<svg id="Layer_1" enable-background="new 0 0 512 512" viewBox="0 0 512 512" xmlns="http://www.w3.org/2000/svg"><g><g><path clip-rule="evenodd" d="m485.443 289.725-272.215-.465-.186 153.272c-.031 14.345 11.712 26.087 26.057 26.118l246.128.403c14.345.031 26.087-11.681 26.087-26.026l.186-127.185c0-14.344-11.711-26.086-26.057-26.117z" fill="#24a0f4" fill-rule="evenodd"/></g><g><path clip-rule="evenodd" d="m213.135 336.292h298.241v49.201h-298.241z" fill="#2b556d" fill-rule="evenodd"/></g><path d="m295.255 427.195c0 4.834-3.918 8.753-8.753 8.753h-45.08c-4.834 0-8.753-3.918-8.753-8.753 0-4.834 3.918-8.753 8.753-8.753h45.08c4.835.001 8.753 3.919 8.753 8.753z" fill="#2b556d"/><g><path clip-rule="evenodd" d="m-27.206 115.196h204.284v70.771h-204.284z" fill="#2b556d" fill-rule="evenodd" transform="matrix(.413 -.911 .911 .413 -93.153 156.584)"/></g><g><path clip-rule="evenodd" d="m233.77 331.304c-1.58 1.301-52.764 43.841-69.03 34.948-15.058-8.21-11.96-39.596 7.746-52.733 16.823 6.972 37.799 11.836 61.284 17.785z" fill="#ffb09e" fill-rule="evenodd"/></g><g><path clip-rule="evenodd" d="m213.321 414.09c-8.954 5.019-20.449 9.791-29.031 7.529-16.266-4.338-17.66-42.973 7.591-60.324l21.533-14.779z" fill="#ffb09e" fill-rule="evenodd"/></g><g><path clip-rule="evenodd" d="m135.709 102.309c118.85 39.534 236.585 40.619 239.621 187.198l-78.387-.124s63.019 42.23 34.205 67.357c-28.783 25.127-51.06-13.633-97.224-25.375-46.164-11.743-82.693-19.116-97.069-46.784s-60.695-51.091-60.695-51.091z" fill="#f5cdb2" fill-rule="evenodd"/></g><path d="m338.987 289.477-42.012-.062c-9.299-4.72-17.26-9.775-24.086-15.109-.111-.084-.22-.171-.328-.262-6.513-5.127-11.988-10.511-16.578-16.108-10.751-13.136-16.668-27.326-20.046-42.105-1.084-4.678 1.859-9.357 6.538-10.441 4.709-1.084 9.388 1.859 10.472 6.568 2.788 12.3 7.715 24.073 16.575 34.887 2.505 3.064 5.343 6.056 8.532 8.972 3.694-3.518 7.077-7.235 10.151-11.172 4.524-5.794 8.49-12.177 11.929-19.117 2.137-4.306 7.404-6.072 11.711-3.903 4.306 2.138 6.072 7.374 3.934 11.711-3.872 7.808-8.489 15.151-13.849 22.029-3.065 3.933-6.362 7.657-9.885 11.18 5.554 3.594 11.837 7.032 18.963 10.291 2.388 1.084 16.206 6.878 27.979 12.641z" fill="#ffb09e"/></g></svg>