<svg id="Layer_3" height="512" viewBox="0 0 512 512" width="512" xmlns="http://www.w3.org/2000/svg" data-name="Layer 3"><path d="m152 16-120 48 112 240 99.411-41.421z" fill="#0f8ca8"/><path d="m168 294 23 30.752a41.065 41.065 0 0 1 9 25.653v49.595h112l28.809-136-172.809-16z" fill="#f4a56e"/><path d="m137.706 21.718v258.282h129.764l-24.059-17.421-91.411-246.579z" fill="#232626" opacity=".2"/><path d="m296 59.294v-51.294h-144v256h104z" fill="#f69038"/><circle cx="28" cy="236" fill="#f69038" r="20"/><circle cx="404" cy="388" fill="#90e3f5" r="20"/><path d="m478.142 227.727 25.858 14.142-25.858 14.142-14.142 25.858-14.142-25.858-25.858-14.142 25.858-14.142 14.142-25.858z" fill="#f69038"/><path d="m102.142 337.858 25.858 14.142-25.858 14.142-14.142 25.858-14.142-25.858-25.858-14.142 25.858-14.142 14.142-25.858z" fill="#90e3f5"/><g fill="#fff"><path d="m207.716 96.284h40v40h-40z" transform="matrix(-.707 .707 -.707 -.707 470.96 37.49)"/><path d="m80 80h24v24h-24z" transform="matrix(0 1 -1 0 184 0)"/><path d="m180.971 35.029h24v24h-24z" transform="matrix(-.707 .707 -.707 -.707 362.676 -56.167)"/></g><path d="m218.333 264h37.667l40-204.706v-32.684l-132.534 201.762z" fill="#232626" opacity=".2"/><path d="m354.508 254.044 101.492-150.044-136-80-136 200 124.253 80.684" fill="#90e3f5"/><path d="m304.284 143.716h40v40h-40z" fill="#fff" transform="matrix(-1 0 0 -1 648.569 327.431)"/><path d="m320 72h24v24h-24z" fill="#fff" transform="matrix(-1 0 0 -1 664 168)"/><path d="m288 208s-16 32 0 56l32 32 24-24z" fill="#232626" opacity=".2"/><path d="m200 512v-104s-8-88 96-88l32-40s-48-24-40-72l73.455 50.853a40 40 0 0 1 11.709 53.168l-61.164 87.979v112" fill="#ffbe92"/><path d="m144 400h16v16h-16z"/><path d="m416 24h16v16h-16z"/><path d="m32 144h16v16h-16z"/><path d="m56 236a28 28 0 1 0 -28 28 28.031 28.031 0 0 0 28-28zm-28 12a12 12 0 1 1 12-12 12.013 12.013 0 0 1 -12 12z"/><path d="m404 360a28 28 0 1 0 28 28 28.031 28.031 0 0 0 -28-28zm0 40a12 12 0 1 1 12-12 12.013 12.013 0 0 1 -12 12z"/><path d="m507.839 234.851-23.8-13.019-13.019-23.8a8 8 0 0 0 -14.037 0l-13.019 23.8-23.8 13.019a8 8 0 0 0 0 14.037l23.8 13.018 13.019 23.8a8 8 0 0 0 14.037 0l13.019-23.8 23.8-13.018a8 8 0 0 0 0-14.037zm-33.539 14.141a8 8 0 0 0 -3.18 3.18l-7.12 13.028-7.124-13.025a8 8 0 0 0 -3.18-3.18l-13.024-7.123 13.024-7.124a8.007 8.007 0 0 0 3.18-3.18l7.124-13.027 7.124 13.024a8.007 8.007 0 0 0 3.18 3.18l13.024 7.124z"/><path d="m131.839 344.981-23.8-13.019-13.019-23.8a8 8 0 0 0 -14.037 0l-13.019 23.8-23.8 13.019a8 8 0 0 0 0 14.037l23.8 13.019 13.019 23.8a8 8 0 0 0 14.037 0l13.019-23.8 23.8-13.019a8 8 0 0 0 0-14.037zm-33.539 14.143a8.007 8.007 0 0 0 -3.18 3.18l-7.12 13.024-7.124-13.028a8.007 8.007 0 0 0 -3.18-3.18l-13.024-7.12 13.028-7.124a8.007 8.007 0 0 0 3.18-3.18l7.12-13.024 7.124 13.028a8.007 8.007 0 0 0 3.18 3.18l13.024 7.12z"/><path d="m380.06 316.077a48.192 48.192 0 0 0 -14.051-63.8l-.441-.305 97.058-143.489a8 8 0 0 0 -2.569-11.383l-136-80a8 8 0 0 0 -10.672 2.4l-9.385 13.8v-25.3a8 8 0 0 0 -8-8h-144a8 8 0 0 0 -8 8v2.584l-114.971 45.988a8 8 0 0 0 -4.278 10.811l112 240a7.993 7.993 0 0 0 10.326 4l18.249-7.6 19.269 25.763c.052.069.105.138.159.206a33.18 33.18 0 0 1 7.246 20.653v161.595h16v-113.056c.658-10.925 3.98-30.546 18.335-46.265 14.954-16.379 38.394-24.679 69.665-24.679a8 8 0 0 0 6.247-3l32-40a8 8 0 0 0 -2.669-12.153 80.78 80.78 0 0 1 -20.678-16.253c-9.456-10.315-14.687-21.652-15.639-33.839l61.639 42.676a32.132 32.132 0 0 1 9.512 42.287l-60.981 87.716a8 8 0 0 0 -1.431 4.566v112h16v-109.492l59.732-85.92q.173-.249.328-.511zm-220.06-300.077h128v40.833l-32.437 47.7-22.19-22.19a8 8 0 0 0 -11.314 0l-28.284 28.284a8 8 0 0 0 0 11.314l28.284 28.284a8 8 0 0 0 1.6 1.228l-46.274 68.047a8 8 0 0 0 2.259 11.208l38.946 25.292h-58.59zm67.716 117.255-16.971-16.971 16.971-16.971 16.971 16.971zm-184.888-64.97 101.172-40.469v236.184a8 8 0 0 0 8 8h48l-52 21.665zm249.295 243.755c-34.053.7-60.147 10.735-77.6 29.85a79.871 79.871 0 0 0 -6.527 8.176 49.239 49.239 0 0 0 -10.66-30.2l-16.774-22.427 62.035-25.848 53.895 35zm6.979-44.634a100.037 100.037 0 0 0 16.983 14.68l-9.553 11.942-111.321-72.287 127.189-187.047 122.2 71.881-92.187 136.289-59.859-41.441a8 8 0 0 0 -12.445 5.262c-3.691 22.142 2.877 43.139 18.991 60.721z"/><path d="m304.284 191.716h40a8 8 0 0 0 8-8v-40a8 8 0 0 0 -8-8h-40a8 8 0 0 0 -8 8v40a8 8 0 0 0 8 8zm8-40h24v24h-24z"/><path d="m104 72h-24a8 8 0 0 0 -8 8v24a8 8 0 0 0 8 8h24a8 8 0 0 0 8-8v-24a8 8 0 0 0 -8-8zm-8 24h-8v-8h8z"/><path d="m192.971 72a7.978 7.978 0 0 0 5.657-2.343l16.972-16.97a8 8 0 0 0 0-11.314l-16.972-16.973a8 8 0 0 0 -11.314 0l-16.971 16.972a8 8 0 0 0 0 11.314l16.971 16.971a7.978 7.978 0 0 0 5.657 2.343zm0-30.628 5.657 5.657-5.657 5.657-5.657-5.657z"/><path d="m320 104h24a8 8 0 0 0 8-8v-24a8 8 0 0 0 -8-8h-24a8 8 0 0 0 -8 8v24a8 8 0 0 0 8 8zm8-24h8v8h-8z"/></svg>