<svg height="512" viewBox="0 0 64 64" width="512" xmlns="http://www.w3.org/2000/svg"><g id="Layer_31" data-name="Layer 31"><rect fill="#e6e6e6" height="62" rx="2" width="46" x="9" y="1"/><path d="m53.883 60a42 42 0 0 1 -42-42v-17h-.883a2 2 0 0 0 -2 2v58a2 2 0 0 0 2 2h42a2 2 0 0 0 2-2v-1z" fill="#cecece"/><rect fill="#98deea" height="40" rx="2" transform="matrix(0 1 -1 0 63 -1)" width="52" x="6" y="11"/><path d="m47.5 17.146a2 2 0 0 0 -2.563 1.2l-1.37 3.754-1.367 3.759-8.61 23.653a2 2 0 0 0 .066 1.53l.846 1.812 1.812-.845a2 2 0 0 0 1.034-1.129l8.61-23.653 1.368-3.759 1.368-3.759a2 2 0 0 0 -1.194-2.563z" fill="#82d0d8"/><path d="m12 20.985v34.015a2 2 0 0 0 2 2h24.3a42.009 42.009 0 0 1 -26.3-36.015z" fill="#82d0d8"/><path d="m49.472 14.965a2 2 0 0 1 2 2v4a0 0 0 0 1 0 0h-4a0 0 0 0 1 0 0v-4a2 2 0 0 1 2-2z" fill="#e6e6e6" transform="matrix(.94 .342 -.342 .94 9.128 -15.837)"/><path d="m39.314 50.009-1.812.845-.846-1.812a2 2 0 0 1 -.066-1.53l8.61-23.653 3.759 1.368-8.611 23.653a2 2 0 0 1 -1.034 1.129z" fill="#e6e6e6"/><path d="m45.762 20.663h4v4h-4z" fill="#7a838b" transform="matrix(.94 .342 -.342 .94 10.632 -14.969)"/><path d="m53 0h-42a3 3 0 0 0 -3 3v4a1 1 0 0 0 2 0v-4a1 1 0 0 1 1-1h42a1 1 0 0 1 1 1v58a1 1 0 0 1 -1 1h-42a1 1 0 0 1 -1-1v-50a1 1 0 0 0 -2 0v50a3 3 0 0 0 3 3h42a3 3 0 0 0 3-3v-58a3 3 0 0 0 -3-3z"/><path d="m53 7a3 3 0 0 0 -3-3h-36a3 3 0 0 0 -3 3v48a3 3 0 0 0 3 3h36a3 3 0 0 0 3-3v-27a1 1 0 0 0 -2 0v27a1 1 0 0 1 -1 1h-36a1 1 0 0 1 -1-1v-48a1 1 0 0 1 1-1h36a1 1 0 0 1 1 1v4a1 1 0 0 0 2 0z"/><path d="m31 59a1 1 0 0 0 0 2h2a1 1 0 0 0 0-2z"/><path d="m50.84 14.207a3 3 0 0 0 -3.84 1.793l-11.35 31.17a2.98 2.98 0 0 0 .1 2.294l.846 1.813a1 1 0 0 0 1.329.483l1.812-.845a2.979 2.979 0 0 0 1.551-1.693l11.345-31.17a3 3 0 0 0 -1.793-3.845zm-1.966 2.477a.993.993 0 0 1 .518-.565.979.979 0 0 1 .764-.033 1 1 0 0 1 .6 1.282l-1.026 2.819-1.88-.685zm-2.394 6.577.684-1.879 1.88.684-.684 1.879zm-7.071 25.277a1 1 0 0 1 -.517.565l-.907.422-.423-.905a1.012 1.012 0 0 1 -.033-.766l8.271-22.713 1.88.684z"/><path d="m50 10a1 1 0 0 1 -1-1v-2a1 1 0 0 1 2 0v2a1 1 0 0 1 -1 1z" fill="#fff"/></g></svg>