<svg id="Layer_1" enable-background="new 0 0 50 50" height="512" viewBox="0 0 50 50" width="512" xmlns="http://www.w3.org/2000/svg"><g><g><g><g enable-background="new"><g><path d="m20.2495 20.3424 21.4717-12.478-.0812 28.6576-21.4718 12.478z" fill="#3d3d3d"/><path d="m21.1996 20.8911 19.5652-11.3694-.0753 26.4516-19.5642 11.3694z" fill="#b0afb0"/></g><g><path d="m8.36 13.478 21.4718-12.478 11.8894 6.8644-21.4717 12.478z" fill="#686868"/><path d="m10.2596 13.4751 19.5744-11.3747 9.988 5.7669-19.5744 11.3747z" fill="#e8e8e8"/><path d="m37.4701 8.0773-7.6346-4.4082-2.8952 1.6826 7.6345 4.4078z" fill="#bfbfbf"/></g><g><path d="m20.2495 20.3424-.0813 28.6576-11.8894-6.8644.0812-28.6576z" fill="#4f4d4d"/><path d="m9.2331 41.5868.0744-26.4626 9.9881 5.7669-.0744 26.4625z" fill="#d7d7d7"/><path d="m9.2991 18.7391v-.8595l9.988 5.7669v.8595z" fill="#4f4d4d"/><g fill="#686868"><path d="m16.4833 21.5985v-1.8926l2.4271 1.4013v1.8926z"/><path d="m16.4833 25.3647v-1.8926l2.4271 1.4013v1.8926z"/><path d="m16.4833 29.2909v-1.8926l2.4271 1.4013v1.8926z"/><path d="m16.4833 33.2171v-1.8926l2.4271 1.4013v1.8926z"/><path d="m16.4833 37.1433v-1.8926l2.4271 1.4013v1.8926z"/><path d="m16.4833 41.0695v-1.8925l2.4271 1.4013v1.8925z"/><path d="m16.4833 44.9957v-1.8925l2.4271 1.4013v1.8925z"/></g><path d="m9.2447 22.6205v-.8595l10.0424 5.8117v.8595z" fill="#4f4d4d"/><path d="m9.2447 26.5468v-.8595l10.0424 5.8116v.8595z" fill="#4f4d4d"/><path d="m9.2447 30.473v-.8595l10.0424 5.8116v.8595z" fill="#4f4d4d"/><path d="m9.2447 34.3992v-.8595l10.0424 5.8117v.8594z" fill="#4f4d4d"/><path d="m9.2447 38.3254v-.8595l10.0424 5.8117v.8595z" fill="#4f4d4d"/></g></g></g></g><g><g><path d="m10.0592 15.9896c.1881.1086.3426.3725.342.5924-.0006.216-.1562.3009-.3442.1923-.1881-.1086-.3426-.3725-.342-.5885.0006-.2199.1562-.3048.3442-.1962z" fill="#ee4541"/></g><g><path d="m11.0359 16.5535c.1914.1105.3426.3725.342.5924-.0006.216-.1529.3028-.3442.1923-.1881-.1086-.3393-.3706-.3387-.5866.0005-.2199.1528-.3067.3409-.1981z" fill="#2174bb"/></g><g><path d="m12.0158 17.1192c.1881.1086.3393.3706.3387.5905-.0006.216-.1529.3028-.3409.1942-.1914-.1105-.3426-.3725-.342-.5885.0006-.2198.1528-.3066.3442-.1962z" fill="#f8c814"/></g></g><g><g><path d="m10.0592 19.5788c.1881.1086.3426.3725.342.5924-.0006.216-.1562.3009-.3442.1923-.1881-.1085-.3426-.3725-.342-.5885.0006-.2198.1562-.3047.3442-.1962z" fill="#ee4541"/></g><g><path d="m11.0359 20.1427c.1914.1105.3426.3725.342.5924-.0006.216-.1529.3028-.3442.1923-.1881-.1086-.3393-.3706-.3387-.5866.0005-.2199.1528-.3067.3409-.1981z" fill="#2174bb"/></g><g><path d="m12.0158 20.7085c.1881.1086.3393.3706.3387.5905-.0006.216-.1529.3028-.3409.1942-.1914-.1105-.3426-.3725-.342-.5885.0006-.2199.1528-.3067.3442-.1962z" fill="#f8c814"/></g></g><g><g><path d="m10.0592 23.6076c.1881.1086.3426.3725.342.5924-.0006.216-.1562.3009-.3442.1923-.1881-.1086-.3426-.3725-.342-.5885.0006-.2199.1562-.3047.3442-.1962z" fill="#ee4541"/></g><g><path d="m11.0359 24.1715c.1914.1105.3426.3725.342.5924-.0006.216-.1529.3028-.3442.1923-.1881-.1086-.3393-.3706-.3387-.5866.0005-.2199.1528-.3067.3409-.1981z" fill="#2174bb"/></g><g><path d="m12.0158 24.7373c.1881.1086.3393.3706.3387.5905-.0006.216-.1529.3028-.3409.1942-.1914-.1105-.3426-.3725-.342-.5885.0006-.2199.1528-.3067.3442-.1962z" fill="#f8c814"/></g></g><g><g><path d="m10.0592 27.4752c.1881.1086.3426.3725.342.5924-.0006.216-.1562.3009-.3442.1923-.1881-.1086-.3426-.3725-.342-.5885.0006-.2199.1562-.3048.3442-.1962z" fill="#ee4541"/></g><g><path d="m11.0359 28.039c.1914.1105.3426.3725.342.5924-.0006.216-.1529.3028-.3442.1923-.1881-.1086-.3393-.3706-.3387-.5866.0005-.2199.1528-.3067.3409-.1981z" fill="#2174bb"/></g><g><path d="m12.0158 28.6048c.1881.1086.3393.3706.3387.5905-.0006.216-.1529.3028-.3409.1942-.1914-.1105-.3426-.3725-.342-.5885.0006-.2199.1528-.3067.3442-.1962z" fill="#f8c814"/></g></g><g><g><path d="m10.0592 31.3427c.1881.1086.3426.3725.342.5924-.0006.216-.1562.3009-.3442.1923-.1881-.1086-.3426-.3725-.342-.5885.0006-.2199.1562-.3048.3442-.1962z" fill="#ee4541"/></g><g><path d="m11.0359 31.9066c.1914.1105.3426.3725.342.5924-.0006.216-.1529.3028-.3442.1923-.1881-.1086-.3393-.3706-.3387-.5866.0005-.2199.1528-.3067.3409-.1981z" fill="#2174bb"/></g><g><path d="m12.0158 32.4723c.1881.1086.3393.3706.3387.5905-.0006.216-.1529.3028-.3409.1942-.1914-.1105-.3426-.3725-.342-.5885.0006-.2199.1528-.3067.3442-.1962z" fill="#f8c814"/></g></g><g><g><path d="m10.0592 35.2102c.1881.1086.3426.3725.342.5924-.0006.216-.1562.3009-.3442.1923-.1881-.1086-.3426-.3725-.342-.5885.0006-.2199.1562-.3048.3442-.1962z" fill="#ee4541"/></g><g><path d="m11.0359 35.7741c.1914.1105.3426.3725.342.5924-.0006.216-.1529.3028-.3442.1923-.1881-.1086-.3393-.3706-.3387-.5866.0005-.2199.1528-.3067.3409-.1981z" fill="#2174bb"/></g><g><path d="m12.0158 36.3398c.1881.1086.3393.3706.3387.5905-.0006.216-.1529.3028-.3409.1942-.1914-.1105-.3426-.3725-.342-.5885.0006-.2198.1528-.3066.3442-.1962z" fill="#f8c814"/></g></g><g><g><path d="m10.0592 39.0778c.1881.1086.3426.3725.342.5924-.0006.216-.1562.3009-.3442.1923-.1881-.1086-.3426-.3725-.342-.5885.0006-.2199.1562-.3048.3442-.1962z" fill="#ee4541"/></g><g><path d="m11.0359 39.6416c.1914.1105.3426.3725.342.5924-.0006.216-.1529.3028-.3442.1923-.1881-.1086-.3393-.3706-.3387-.5866.0005-.2199.1528-.3067.3409-.1981z" fill="#2174bb"/></g><g><path d="m12.0158 40.2074c.1881.1086.3393.3706.3387.5905-.0006.216-.1529.3028-.3409.1942-.1914-.1105-.3426-.3725-.342-.5885.0006-.2199.1528-.3067.3442-.1962z" fill="#f8c814"/></g></g><path d="m26.5836 5.1457.3567.206 2.8952-1.6826v-.4131z" fill="#d7d7d7"/><path d="m29.8355 3.256v.4131l7.6346 4.4082.3566-.2075z" fill="#b0afb0"/></g></svg>