<svg id="Layer_1" enable-background="new 0 0 1600 1600" height="512" viewBox="0 0 1600 1600" width="512" xmlns="http://www.w3.org/2000/svg"><g><g><g><g><g id="XMLID_4_"><path d="m353.6 1221.4v144.5h-297.6v-144.5h148.8z" fill="#e8384d"/><path d="m651.2 1221.4v144.5h-297.6v-144.5h148.8z" fill="#ff4756"/><path d="m948.8 1221.4v144.5h-297.6v-144.5h148.8z" fill="#e8384d"/><path d="m1246.4 1221.4v144.5h-297.6v-144.5h148.8z" fill="#ff4756"/><path d="m1544 1221.4v144.5h-297.6v-144.5h148.8z" fill="#e8384d"/><path d="m1395.2 1076.8h148.8v144.6h-148.8z" fill="#e8384d"/><path d="m1395.2 1076.8v144.6h-148.8-148.8v-144.6h148.8z" fill="#ff4756"/><path d="m1097.6 1076.8v144.6h-148.8-148.8v-144.6h148.8z" fill="#e8384d"/><path d="m800 1076.8v144.6h-148.8-148.8v-144.6h148.8z" fill="#ff4756"/><path d="m502.4 1076.8v144.6h-148.8-148.8v-144.6h148.8z" fill="#e8384d"/><path d="m56 1076.8h148.8v144.6h-148.8z" fill="#ff4756"/><path d="m353.6 932.3v144.5h-148.8-148.8v-144.5h148.8z" fill="#ff4756"/><path d="m651.2 932.3v144.5h-148.8-148.8v-144.5h148.8z" fill="#e8384d"/><path d="m948.8 932.3v144.5h-148.8-148.8v-144.5h77.3c22.6 12.2 46.3 22.2 70.9 29.6h1.2c24.6-7.4 48.3-17.4 70.9-29.6z" fill="#ff4756"/><path d="m1246.4 932.3v144.5h-148.8-148.8v-144.5h148.8z" fill="#e8384d"/><path d="m1544 932.3v144.5h-148.8-148.8v-144.5h148.8z" fill="#ff4756"/><path d="m1395.2 787.8h148.8v144.5h-148.8z" fill="#ff4756"/><path d="m1395.2 787.8v144.5h-148.8-148.8v-144.5h148.8z" fill="#e8384d"/><path d="m1097.6 787.8v144.5h-148.8-77.3c63.5-34.1 118.4-85.3 159.6-144.5z" fill="#ff4756"/><path d="m728.5 932.3h-77.3-148.8v-144.5h66.5c41.2 59.2 96 110.4 159.6 144.5z" fill="#ff4756"/><path d="m502.4 787.8v144.5h-148.8-148.8v-144.5h148.8z" fill="#e8384d"/><path d="m56 787.8h148.8v144.5h-148.8z" fill="#ff4756"/><path d="m353.6 787.8h-148.8-148.8v-144.6h148.8 148.8z" fill="#ff4756"/><path d="m568.9 787.8h-66.5-148.8v-144.6h145.2c10.5 33 23.7 64.9 39.7 94.9 9.1 17 19.2 33.6 30.4 49.7z" fill="#e8384d"/><path d="m1246.4 643.2v144.5h-148.8-66.5c11.2-16 21.3-32.6 30.4-49.7 15.9-30 29.2-61.9 39.7-94.9z" fill="#ff4756"/><path d="m1544 643.2v144.6h-148.8-148.8v-144.6h148.8z" fill="#e8384d"/><path d="m1544 498.7v144.5h-148.8v-144.5z" fill="#ff4756"/><path d="m1395.2 498.7v144.5h-148.8-145.2c14.8-46.7 24.1-95.6 27.7-144.6z" fill="#e8384d"/><path d="m498.8 643.2h-145.2-148.8v-144.5h266.3c3.6 48.9 12.9 97.8 27.7 144.5z" fill="#ff4756"/><path d="m204.8 643.2h-148.8v-144.5h148.8z" fill="#e8384d"/><path d="m1127.8 395.1c3.3 34 3.7 68.8 1.1 103.6-3.6 48.9-12.9 97.9-27.7 144.6-10.5 33-23.7 64.9-39.7 94.9-9.1 17-19.2 33.6-30.4 49.7-41.2 59.2-96 110.4-159.6 144.5-22.6 12.2-46.3 22.2-70.9 29.6h-1.2c-24.6-7.4-48.3-17.4-70.9-29.6-63.5-34.1-118.4-85.3-159.6-144.5-11.2-16-21.3-32.6-30.4-49.7-15.9-30-29.2-61.9-39.7-94.9-14.8-46.7-24.1-95.6-27.7-144.6-2.5-34.8-2.2-69.6 1.1-103.6 0 0 184.9-18.1 327.8-161 142.9 142.8 327.8 161 327.8 161zm-136.9 305.4c37.6-70.6 58.4-155.2 59.7-239-62.9-15.9-159.3-50-250.5-121-91.2 71-187.6 105-250.5 121 1.3 83.8 22.1 168.4 59.7 239 43.6 81.9 113.8 146.6 190.9 176.9 76.9-30.3 147.1-95 190.7-176.9z" fill="#b1dbfc"/><path d="m1050.5 461.5c-1.3 83.8-22.1 168.4-59.7 239-43.5 81.9-113.7 146.6-190.8 177-77.1-30.4-147.3-95-190.9-176.9-37.6-70.6-58.4-155.2-59.7-239 62.9-15.9 159.3-50 250.5-121 91.3 70.9 187.7 105 250.6 120.9z" fill="#d4f3f6"/></g></g></g></g><g><g><g><g><g><path d="m204.8 664.2h-148.8c-11.6 0-21-9.4-21-21v-144.5c0-11.6 9.4-21 21-21h148.8c11.6 0 21 9.4 21 21v144.5c0 11.6-9.4 21-21 21zm-127.8-42h106.8v-102.5h-106.8z"/></g><g><path d="m498.8 664.2h-294c-11.6 0-21-9.4-21-21v-144.5c0-11.6 9.4-21 21-21h266.3c11.6 0 21 9.4 21 21s-9.4 21-21 21h-245.3v102.5h273c11.6 0 21 9.4 21 21s-9.4 21-21 21z"/></g><g><path d="m1395.2 664.2h-294c-11.6 0-21-9.4-21-21s9.4-21 21-21h273v-102.5h-245.3c-11.6 0-21-9.4-21-21s9.4-21 21-21h266.3c11.6 0 21 9.4 21 21v144.5c0 11.6-9.4 21-21 21z"/></g><g><path d="m1544 664.2h-148.8c-11.6 0-21-9.4-21-21v-144.5c0-11.6 9.4-21 21-21h148.8c11.6 0 21 9.4 21 21v144.5c0 11.6-9.4 21-21 21zm-127.8-42h106.8v-102.5h-106.8z"/></g></g><g><g><path d="m353.6 808.8h-297.6c-11.6 0-21-9.4-21-21v-144.6c0-11.6 9.4-21 21-21h297.6c11.6 0 21 9.4 21 21v144.5c0 11.7-9.4 21.1-21 21.1zm-276.6-42h255.6v-102.6h-255.6z"/></g><g><path d="m568.9 808.8h-215.3c-11.6 0-21-9.4-21-21v-144.6c0-11.6 9.4-21 21-21h145.2c11.6 0 21 9.4 21 21s-9.4 21-21 21h-124.2v102.5h194.3c11.6 0 21 9.4 21 21s-9.4 21.1-21 21.1z"/></g><g><path d="m1246.4 808.8h-215.3c-11.6 0-21-9.4-21-21s9.4-21 21-21h194.3v-102.6h-124.2c-11.6 0-21-9.4-21-21s9.4-21 21-21h145.2c11.6 0 21 9.4 21 21v144.5c0 11.7-9.4 21.1-21 21.1z"/></g><g><path d="m1544 808.8h-297.6c-11.6 0-21-9.4-21-21v-144.6c0-11.6 9.4-21 21-21h297.6c11.6 0 21 9.4 21 21v144.5c0 11.7-9.4 21.1-21 21.1zm-276.6-42h255.6v-102.6h-255.6z"/></g></g></g><g><g><g><path d="m204.8 953.3h-148.8c-11.6 0-21-9.4-21-21v-144.5c0-11.6 9.4-21 21-21h148.8c11.6 0 21 9.4 21 21v144.5c0 11.6-9.4 21-21 21zm-127.8-42h106.8v-102.5h-106.8z"/></g><g><path d="m502.4 953.3h-297.6c-11.6 0-21-9.4-21-21v-144.5c0-11.6 9.4-21 21-21h297.6c11.6 0 21 9.4 21 21v144.5c0 11.6-9.4 21-21 21zm-276.6-42h255.6v-102.5h-255.6z"/></g><g><path d="m728.5 953.3h-226.1c-11.6 0-21-9.4-21-21v-144.5c0-11.6 9.4-21 21-21h66.5c11.6 0 21 9.4 21 21s-9.4 21-21 21h-45.5v102.6h205.1c11.6 0 21 9.4 21 21s-9.4 20.9-21 20.9z"/></g><g><path d="m1097.6 953.3h-226.1c-11.6 0-21-9.4-21-21s9.4-21 21-21h205.1v-102.5h-45.5c-11.6 0-21-9.4-21-21s9.4-21 21-21h66.5c11.6 0 21 9.4 21 21v144.6c0 11.5-9.4 20.9-21 20.9z"/></g><g><path d="m1395.2 953.3h-297.6c-11.6 0-21-9.4-21-21v-144.5c0-11.6 9.4-21 21-21h297.6c11.6 0 21 9.4 21 21v144.5c0 11.6-9.4 21-21 21zm-276.6-42h255.6v-102.5h-255.6z"/></g><g><path d="m1544 953.3h-148.8c-11.6 0-21-9.4-21-21v-144.5c0-11.6 9.4-21 21-21h148.8c11.6 0 21 9.4 21 21v144.5c0 11.6-9.4 21-21 21zm-127.8-42h106.8v-102.5h-106.8z"/></g></g><g><g><path d="m353.6 1097.9h-297.6c-11.6 0-21-9.4-21-21v-144.6c0-11.6 9.4-21 21-21h297.6c11.6 0 21 9.4 21 21v144.5c0 11.7-9.4 21.1-21 21.1zm-276.6-42h255.6v-102.6h-255.6z"/></g><g><path d="m651.2 1097.9h-297.6c-11.6 0-21-9.4-21-21v-144.6c0-11.6 9.4-21 21-21h297.6c11.6 0 21 9.4 21 21v144.5c0 11.7-9.4 21.1-21 21.1zm-276.6-42h255.6v-102.6h-255.6z"/></g><g><path d="m948.8 1097.9h-297.6c-11.6 0-21-9.4-21-21v-144.6c0-11.6 9.4-21 21-21h77.3c11.6 0 21 9.4 21 21s-9.4 21-21 21h-56.3v102.5h255.6v-102.5h-56.3c-11.6 0-21-9.4-21-21s9.4-21 21-21h77.3c11.6 0 21 9.4 21 21v144.5c0 11.7-9.4 21.1-21 21.1z"/></g><g><path d="m1246.4 1097.9h-297.6c-11.6 0-21-9.4-21-21v-144.6c0-11.6 9.4-21 21-21h297.6c11.6 0 21 9.4 21 21v144.5c0 11.7-9.4 21.1-21 21.1zm-276.6-42h255.6v-102.6h-255.6z"/></g><g><path d="m1544 1097.9h-297.6c-11.6 0-21-9.4-21-21v-144.6c0-11.6 9.4-21 21-21h297.6c11.6 0 21 9.4 21 21v144.5c0 11.7-9.4 21.1-21 21.1zm-276.6-42h255.6v-102.6h-255.6z"/></g></g></g><g><g><g><path d="m204.8 1242.4h-148.8c-11.6 0-21-9.4-21-21v-144.5c0-11.6 9.4-21 21-21h148.8c11.6 0 21 9.4 21 21v144.5c0 11.6-9.4 21-21 21zm-127.8-42h106.8v-102.5h-106.8z"/></g><g><path d="m502.4 1242.4h-297.6c-11.6 0-21-9.4-21-21v-144.5c0-11.6 9.4-21 21-21h297.6c11.6 0 21 9.4 21 21v144.5c0 11.6-9.4 21-21 21zm-276.6-42h255.6v-102.5h-255.6z"/></g><g><path d="m800 1242.4h-297.6c-11.6 0-21-9.4-21-21v-144.5c0-11.6 9.4-21 21-21h297.6c11.6 0 21 9.4 21 21v144.5c0 11.6-9.4 21-21 21zm-276.6-42h255.6v-102.5h-255.6z"/></g><g><path d="m1097.6 1242.4h-297.6c-11.6 0-21-9.4-21-21v-144.5c0-11.6 9.4-21 21-21h297.6c11.6 0 21 9.4 21 21v144.5c0 11.6-9.4 21-21 21zm-276.6-42h255.6v-102.5h-255.6z"/></g><g><path d="m1395.2 1242.4h-297.6c-11.6 0-21-9.4-21-21v-144.5c0-11.6 9.4-21 21-21h297.6c11.6 0 21 9.4 21 21v144.5c0 11.6-9.4 21-21 21zm-276.6-42h255.6v-102.5h-255.6z"/></g><g><path d="m1544 1242.4h-148.8c-11.6 0-21-9.4-21-21v-144.5c0-11.6 9.4-21 21-21h148.8c11.6 0 21 9.4 21 21v144.5c0 11.6-9.4 21-21 21zm-127.8-42h106.8v-102.5h-106.8z"/></g></g><g><g><path d="m353.6 1386.9h-297.6c-11.6 0-21-9.4-21-21v-144.5c0-11.6 9.4-21 21-21h297.6c11.6 0 21 9.4 21 21v144.5c0 11.6-9.4 21-21 21zm-276.6-42h255.6v-102.5h-255.6z"/></g><g><path d="m651.2 1386.9h-297.6c-11.6 0-21-9.4-21-21v-144.5c0-11.6 9.4-21 21-21h297.6c11.6 0 21 9.4 21 21v144.5c0 11.6-9.4 21-21 21zm-276.6-42h255.6v-102.5h-255.6z"/></g><g><path d="m948.8 1386.9h-297.6c-11.6 0-21-9.4-21-21v-144.5c0-11.6 9.4-21 21-21h297.6c11.6 0 21 9.4 21 21v144.5c0 11.6-9.4 21-21 21zm-276.6-42h255.6v-102.5h-255.6z"/></g><g><path d="m1246.4 1386.9h-297.6c-11.6 0-21-9.4-21-21v-144.5c0-11.6 9.4-21 21-21h297.6c11.6 0 21 9.4 21 21v144.5c0 11.6-9.4 21-21 21zm-276.6-42h255.6v-102.5h-255.6z"/></g><g><path d="m1544 1386.9h-297.6c-11.6 0-21-9.4-21-21v-144.5c0-11.6 9.4-21 21-21h297.6c11.6 0 21 9.4 21 21v144.5c0 11.6-9.4 21-21 21zm-276.6-42h255.6v-102.5h-255.6z"/></g></g></g></g><g><g><g><g><path d="m762.6 717.7c-5.4 0-10.7-2.1-14.8-6.2l-65.3-65.3c-8.2-8.2-8.2-21.5 0-29.7s21.5-8.2 29.7 0l50.4 50.4 139.6-139.6c8.2-8.2 21.5-8.2 29.7 0s8.2 21.5 0 29.7l-154.5 154.5c-4.1 4.1-9.5 6.2-14.8 6.2z"/></g></g></g><g><g><g><path d="m800.6 982.9c-2.5.1-5.1-.2-7.5-1-57.2-17.3-111-47.7-159.6-90.4-45.5-39.9-84.7-89.5-113.4-143.5-55.5-104.2-80.5-233.6-68.6-354.9 1-10 8.9-17.9 18.8-18.9.4 0 45.4-4.7 106.6-26.3 56-19.7 137.7-58.1 208.3-128.7 8.2-8.2 21.5-8.2 29.7 0 136 136 313.2 154.8 315 155 10 1 17.9 8.9 18.8 18.9 11.9 121.3-13.2 250.6-68.6 354.9-28.7 54-67.9 103.6-113.4 143.5-48.7 42.7-102.4 73.1-159.6 90.4-2.2.6-4.4 1-6.5 1zm-308.8-569.4c-7.4 108.5 16.1 222.3 65.2 314.7 54 101.5 144.5 180.3 243 211.8 98.4-31.5 188.9-110.3 243-211.8 49.2-92.5 72.7-206.3 65.3-314.7-19.8-3.3-54.9-10.6-97.7-25.5-56.7-19.8-137.6-57.3-210.6-124.8-72.9 67.5-153.9 105-210.5 124.8-42.8 14.9-77.9 22.2-97.7 25.5z"/></g><g><path d="m800 898.4c-2.6 0-5.2-.5-7.7-1.5-82.3-32.3-155.9-100.4-201.7-186.5-38.7-72.8-60.8-161.1-62.1-248.6-.1-9.7 6.4-18.3 15.8-20.7 62.3-15.8 155-48.9 242.8-117.2 7.6-5.9 18.2-5.9 25.8 0 87.7 68.3 180.4 101.4 242.8 117.2 9.4 2.4 16 10.9 15.8 20.7-1.3 87.5-23.4 175.7-62.1 248.6-45.8 86.1-119.4 154.2-201.7 186.6-2.5 1-5.1 1.4-7.7 1.4zm-229-420.9c3.5 75.5 23.4 150.6 56.7 213.1 39.8 74.8 102.2 134.1 172.3 164.1 70.1-30 132.6-89.3 172.3-164.1 33.3-62.5 53.2-137.6 56.7-213.1-62.2-17.3-146.9-50-229-110.6-82.1 60.6-166.8 93.3-229 110.6z"/></g></g></g></g></g></g></svg>