<svg height="512" viewBox="0 0 32 32" width="512" xmlns="http://www.w3.org/2000/svg"><g id="Cloud"><path d="m29 17.5a6.2721 6.2721 0 0 1 -6 6.5h-15a4.9983 4.9983 0 0 1 -1.9282-9.61 5.4987 5.4987 0 0 1 9.6421-4.4208 4.4972 4.4972 0 0 1 6.5595 1.0781 5.5681 5.5681 0 0 1 .7266-.0473 6.2721 6.2721 0 0 1 6 6.5z" fill="#4294ff"/><path d="m27.5 21.79a5.78 5.78 0 0 1 -4.5 2.21h-15a4.9985 4.9985 0 0 1 -1.93-9.61 5.2566 5.2566 0 0 1 -.07-.89 5.4982 5.4982 0 0 1 3.45-5.1c2.59 5.79 7.8 12.57 18.05 13.39z" fill="#2965ed"/></g></svg>