<svg height="512" viewBox="0 0 64 64" width="512" xmlns="http://www.w3.org/2000/svg"><g id="BLUE"><g><g><g><path d="m22.997 44.678h18.006v13.542h-18.006z" fill="#666"/></g></g><g><g><path d="m22.997 47.02h10.714l-10.714 7.238z" fill="#333"/></g></g><g><g><path d="m46.19 60.84h-28.378c-1.101 0-2-.901-2-2 0-1.101.901-2 2-2h28.376c1.101 0 2 .901 2 2 .002 1.101-.899 2-1.998 2z" fill="#d6d6d6"/></g></g><g><g><path d="m60 47.02h-56c-2.2 0-4-1.8-4-4v-36c0-2.2 1.8-4 4-4h56c2.2 0 4 1.8 4 4v36c0 2.2-1.8 4-4 4z" fill="#d6d6d6"/></g></g><g><g><path d="m2.746 5.762h58.512v38.516h-58.512z" fill="#0ba4e0"/></g></g></g><g opacity=".4"><path d="m2.746 20.543v-14.781h14.781z" fill="#fff"/></g></g></svg>