<svg id="Capa_1" enable-background="new 0 0 512 512" height="512" viewBox="0 0 512 512" width="512" xmlns="http://www.w3.org/2000/svg"><g><path d="m391 7.5h-30v497h30c16.569 0 30-13.431 30-30v-437c0-16.569-13.431-30-30-30z" fill="#b1e3f0"/><path d="m391 474.5v-30l-120-203.5 120-203.5c0-16.569-13.431-30-30-30h-240c-16.569 0-30 13.431-30 30v437c0 16.569 13.431 30 30 30h60l15-15h120l15 15h30c16.569 0 30-13.431 30-30z" fill="#d4f6ff"/><path d="m361 37.5-60 150 90-60v-90z" fill="#49646b"/><path d="m121 37.5v90l240 90v-120l-30-15 30-15v-30z" fill="#597880"/><path d="m331 67.5-30 15 30 15h30v-30z" fill="#74a2ad"/><path d="m301 67.5-30 15 30 15h30v-30z" fill="#b1e3f0"/><path d="m256 67.5h45v30h-45z" fill="#d4f6ff"/><circle cx="166" cy="82.5" fill="#94e368" r="15"/><path d="m361 127.5-60 150 90-60v-90z" fill="#597880"/><path d="m121 127.5v90l240 90v-120l-30-15 30-15v-30z" fill="#688d96"/><path d="m331 157.5-30 15 30 15h30v-30z" fill="#74a2ad"/><path d="m301 157.5-30 15 30 15h30v-30z" fill="#b1e3f0"/><path d="m256 157.5h45v30h-45z" fill="#d4f6ff"/><circle cx="166" cy="172.5" fill="#fff0ad" r="15"/><path d="m361 217.5-60 150 90-60v-90z" fill="#49646b"/><path d="m121 217.5v90l240 90v-120l-30-15 30-15v-30z" fill="#597880"/><path d="m361 307.5-60 68.5 60 68.5h30v-137z" fill="#74a2ad"/><path d="m121 307.5v137h240v-30l-30-38.5 30-38.5v-30z" fill="#88b6c2"/><path d="m331 337.5-15 38.5 15 38.5h30v-77z" fill="#9acedb"/><path d="m301 337.5-15 38.5 15 38.5h30v-77z" fill="#b1e3f0"/><path d="m271 337.5-15 38.5 15 38.5h30v-77z" fill="#d4f6ff"/><path d="m241 337.5-15 38.5 15 38.5h30v-77z" fill="#b1e3f0"/><path d="m211 337.5-15 38.5 15 38.5h30v-77z" fill="#d4f6ff"/><path d="m181 337.5-15 38.5 15 38.5h30v-77z" fill="#b1e3f0"/><path d="m151 337.5h30v77h-30z" fill="#d4f6ff"/><path d="m331 247.5-30 15 30 15h30v-30z" fill="#74a2ad"/><path d="m301 247.5-30 15 30 15h30v-30z" fill="#b1e3f0"/><path d="m256 247.5h45v30h-45z" fill="#d4f6ff"/><circle cx="166" cy="262.5" fill="#94e368" r="15"/><path d="m391 0h-270c-20.678 0-37.5 16.822-37.5 37.5v437c0 20.678 16.822 37.5 37.5 37.5h60c1.989 0 3.897-.79 5.303-2.196l12.803-12.804h113.787l12.803 12.804c1.407 1.406 3.315 2.196 5.304 2.196h60c20.678 0 37.5-16.822 37.5-37.5v-437c0-20.678-16.822-37.5-37.5-37.5zm22.5 474.5c0 12.406-10.093 22.5-22.5 22.5h-56.894l-12.803-12.804c-1.406-1.406-3.314-2.196-5.303-2.196h-120c-1.989 0-3.897.79-5.303 2.196l-12.803 12.804h-56.894c-12.407 0-22.5-10.094-22.5-22.5v-437c0-12.406 10.093-22.5 22.5-22.5h270c12.407 0 22.5 10.094 22.5 22.5z"/><path d="m166 105c12.407 0 22.5-10.094 22.5-22.5s-10.093-22.5-22.5-22.5-22.5 10.094-22.5 22.5 10.093 22.5 22.5 22.5zm0-30c4.136 0 7.5 3.364 7.5 7.5s-3.364 7.5-7.5 7.5-7.5-3.364-7.5-7.5 3.364-7.5 7.5-7.5z"/><path d="m256 105h105c4.142 0 7.5-3.357 7.5-7.5v-30c0-4.143-3.358-7.5-7.5-7.5h-105c-4.142 0-7.5 3.357-7.5 7.5v30c0 4.143 3.358 7.5 7.5 7.5zm97.5-15h-15v-15h15zm-90-15h60v15h-60z"/><path d="m166 195c12.407 0 22.5-10.094 22.5-22.5s-10.093-22.5-22.5-22.5-22.5 10.094-22.5 22.5 10.093 22.5 22.5 22.5zm0-30c4.136 0 7.5 3.364 7.5 7.5s-3.364 7.5-7.5 7.5-7.5-3.364-7.5-7.5 3.364-7.5 7.5-7.5z"/><path d="m256 195h105c4.142 0 7.5-3.357 7.5-7.5v-30c0-4.143-3.358-7.5-7.5-7.5h-105c-4.142 0-7.5 3.357-7.5 7.5v30c0 4.143 3.358 7.5 7.5 7.5zm97.5-15h-15v-15h15zm-90-15h60v15h-60z"/><path d="m391 30h-270c-4.142 0-7.5 3.357-7.5 7.5v270c0 4.143 3.358 7.5 7.5 7.5h262.5v122h-255v-99.5c0-4.143-3.358-7.5-7.5-7.5s-7.5 3.357-7.5 7.5v107c0 4.143 3.358 7.5 7.5 7.5h270c4.142 0 7.5-3.357 7.5-7.5v-407c0-4.143-3.358-7.5-7.5-7.5zm-7.5 15v75h-255v-75zm0 90v75h-255v-75zm-255 165v-75h255v75z"/><path d="m166 240c-12.407 0-22.5 10.094-22.5 22.5s10.093 22.5 22.5 22.5 22.5-10.094 22.5-22.5-10.093-22.5-22.5-22.5zm0 30c-4.136 0-7.5-3.364-7.5-7.5s3.364-7.5 7.5-7.5 7.5 3.364 7.5 7.5-3.364 7.5-7.5 7.5z"/><path d="m361 240h-105c-4.142 0-7.5 3.357-7.5 7.5v30c0 4.143 3.358 7.5 7.5 7.5h105c4.142 0 7.5-3.357 7.5-7.5v-30c0-4.143-3.358-7.5-7.5-7.5zm-97.5 15h60v15h-60zm90 15h-15v-15h15z"/><path d="m361 422c4.142 0 7.5-3.357 7.5-7.5v-77c0-4.143-3.358-7.5-7.5-7.5h-210c-4.142 0-7.5 3.357-7.5 7.5v77c0 4.143 3.358 7.5 7.5 7.5zm-67.5-15h-15v-62h15zm15-62h15v62h-15zm-45 62h-15v-62h15zm-30 0h-15v-62h15zm-30 0h-15v-62h15zm150 0h-15v-62h15zm-195-62h15v62h-15z"/></g></svg>