<svg id="icons" enable-background="new 0 0 64 64" height="512" viewBox="0 0 64 64" width="512" xmlns="http://www.w3.org/2000/svg"><path d="m49 53v4c0 3.3-2.7 6-6 6h-22c-3.3 0-6-2.7-6-6v-4c0 3.3 2.7 6 6 6h11 11c3.3 0 6-2.7 6-6z" fill="#545c66"/><path d="m32 51h-17v2c0 3.3 2.7 6 6 6h11 11c3.3 0 6-2.7 6-6v-2z" fill="#656d78"/><path d="m49 6v1h-34v-1c0-2.77 2.24-5 5-5h24c2.76 0 5 2.24 5 5z" fill="#656d78"/><path d="m32 53c1.1 0 2 .89 2 2 0 1.1-.9 2-2 2s-2-.9-2-2c0-1.11.9-2 2-2z" fill="#aab2bd"/><path d="m49 7v44h-17-17v-44z" fill="#5d9cec"/><path d="m29.508 7-4.004 44h4.984l4.004-44z" fill="#87bcf4"/><path d="m36.515 7-4.004 44h1.981l4.004-44z" fill="#87bcf4"/><path d="m29.03 5c-.553 0-1.005-.448-1.005-1s.442-1 .994-1h.011c.552 0 1 .448 1 1s-.448 1-1 1z" fill="#5d9cec"/><path d="m35 5h-3c-.553 0-1-.448-1-1s.447-1 1-1h3c.553 0 1 .448 1 1s-.447 1-1 1z" fill="#545c66"/><g fill="#656d78"><path d="m15 7h2v44h-2z"/><path d="m47 7h2v44h-2z"/></g></svg>