<?xml version="1.0" encoding="iso-8859-1"?>
<!-- Generator: Adobe Illustrator 19.0.0, SVG Export Plug-In . SVG Version: 6.00 Build 0)  -->
<svg xmlns="http://www.w3.org/2000/svg" xmlns:xlink="http://www.w3.org/1999/xlink" version="1.1" id="Capa_1" x="0px" y="0px" viewBox="0 0 512 512" style="enable-background:new 0 0 512 512;" xml:space="preserve" width="512" height="512">
<g>
	<g>
		<path style="fill:#6F6571;" d="M384.258,23.532h-144.29v72.145h80.161V63.613c0-4.427,3.589-8.016,8.016-8.016h56.113    c4.427,0,8.016-3.589,8.016-8.016V31.548C392.274,27.121,388.685,23.532,384.258,23.532z"/>
		<path style="fill:#5D5360;" d="M456.403,87.661H239.968v56.113h224.452V95.677C464.419,91.25,460.83,87.661,456.403,87.661z"/>
		<path style="fill:#ECEAEC;" d="M71.629,7.5c-13.282,0-24.048,10.767-24.048,24.048v112.227L256,143.774V7.5H71.629z"/>
		<path style="fill:#ECEAEC;" d="M47.581,223.935v264.533c0,4.427,3.589,8.016,8.016,8.016h400.806c4.427,0,8.016-3.589,8.016-8.016    V223.935H47.581z"/>
		<rect x="47.581" y="207.903" style="fill:#6F6571;" width="416.839" height="96.194"/>
		<rect x="47.581" y="215.919" style="fill:#5D5360;" width="416.839" height="32.065"/>
		<rect x="95.677" y="223.935" style="fill:#5D5360;" width="320.645" height="80.161"/>
		<rect x="95.677" y="215.919" style="fill:#4B3F4E;" width="320.645" height="32.065"/>
		<path style="fill:#857E87;" d="M464.419,223.935H47.581c-8.854,0-16.032-7.178-16.032-16.032v-64.129    c0-8.854,7.178-16.032,16.032-16.032h416.839c8.854,0,16.032,7.178,16.032,16.032v64.129    C480.452,216.758,473.274,223.935,464.419,223.935z"/>
		<path style="fill:#C3DDFF;" d="M312.113,191.871H199.887c-4.427,0-8.016-3.589-8.016-8.016v-64.129    c0-4.427,3.589-8.016,8.016-8.016h112.226c4.427,0,8.016,3.589,8.016,8.016v64.129    C320.129,188.282,316.54,191.871,312.113,191.871z"/>
		<path style="fill:#A4CCFF;" d="M215.919,151.79V111.71h-16.032c-4.427,0-8.016,3.589-8.016,8.016v64.129    c0,4.427,3.589,8.016,8.016,8.016h112.226c4.427,0,8.016-3.589,8.016-8.016v-16.032h-88.177    C223.097,167.823,215.919,160.645,215.919,151.79z"/>
		<path style="fill:#DAD8DB;" d="M456.403,496.484H55.597c-4.427,0-8.016-3.589-8.016-8.016v-16.032h416.839v16.032    C464.419,492.895,460.83,496.484,456.403,496.484z"/>
		<path style="fill:#9B959D;" d="M344.177,464.419H167.823c-8.854,0-16.032,7.178-16.032,16.032v16.032H360.21v-16.032    C360.21,471.597,353.032,464.419,344.177,464.419z"/>
	</g>
	<g>
		<path d="M471.919,121.474V95.677c0-8.556-6.96-15.516-15.516-15.516H327.629V63.613c0-0.285,0.231-0.516,0.516-0.516h56.113    c8.556,0,15.516-6.96,15.516-15.516V31.548c0-8.556-6.96-15.516-15.516-15.516H263.5V7.5c0-4.142-3.358-7.5-7.5-7.5H71.629    C54.233,0,40.081,14.152,40.081,31.548v89.926c-9.308,3.139-16.032,11.946-16.032,22.3v64.129c0,10.353,6.724,19.16,16.032,22.3    v258.265c0,8.556,6.96,15.516,15.516,15.516h8.558c-0.012,0.171-0.026,0.342-0.026,0.516c0,4.142,3.358,7.5,7.5,7.5h16.032    c4.142,0,7.5-3.358,7.5-7.5c0-0.174-0.014-0.345-0.026-0.516h321.73c-0.012,0.171-0.026,0.342-0.026,0.516    c0,4.142,3.358,7.5,7.5,7.5h16.032c4.142,0,7.5-3.358,7.5-7.5c0-0.174-0.014-0.345-0.026-0.516h8.558    c8.556,0,15.516-6.96,15.516-15.516V230.203c9.308-3.139,16.032-11.946,16.032-22.3v-64.129    C487.952,133.421,481.228,124.614,471.919,121.474z M384.258,31.032c0.285,0,0.516,0.231,0.516,0.516v16.032    c0,0.285-0.231,0.516-0.516,0.516h-56.113c-8.556,0-15.516,6.96-15.516,15.516v16.548H263.5V31.032H384.258z M312.629,183.855    c0,0.285-0.231,0.516-0.516,0.516H199.887c-0.285,0-0.516-0.231-0.516-0.516v-64.129c0-0.285,0.231-0.516,0.516-0.516h112.226    c0.285,0,0.516,0.231,0.516,0.516V183.855z M71.629,15H248.5v89.209h-48.613c-8.556,0-15.516,6.96-15.516,15.516v0.516H55.081    V31.548C55.081,22.423,62.504,15,71.629,15z M88.177,231.436v65.161H55.081v-65.161H88.177z M120.242,231.436v65.161h-17.064    v-65.161H120.242z M376.758,231.436V248.5H135.242v-17.064H376.758z M408.823,231.436v65.161h-17.064v-65.161H408.823z     M456.919,231.436v65.161h-33.097v-65.161H456.919z M135.242,296.597V263.5h33.097v8.532c0,4.142,3.358,7.5,7.5,7.5    s7.5-3.358,7.5-7.5V263.5H248.5v8.532c0,4.142,3.358,7.5,7.5,7.5s7.5-3.358,7.5-7.5V263.5h65.161v8.532c0,4.142,3.358,7.5,7.5,7.5    s7.5-3.358,7.5-7.5V263.5h33.097v33.097H135.242z M352.709,488.984H159.291v-8.532c0-4.705,3.828-8.532,8.532-8.532h176.354    c4.705,0,8.532,3.828,8.532,8.532V488.984z M456.403,488.984h-88.694v-8.532c0-12.976-10.557-23.532-23.532-23.532H167.823    c-12.976,0-23.532,10.557-23.532,23.532v8.532H55.597c-0.285,0-0.516-0.231-0.516-0.516v-48.613h16.551c4.142,0,7.5-3.358,7.5-7.5    s-3.358-7.5-7.5-7.5H55.081V311.597h401.839v113.258H103.691c-4.142,0-7.5,3.358-7.5,7.5s3.358,7.5,7.5,7.5h353.228v48.613    C456.919,488.752,456.688,488.984,456.403,488.984z M472.952,207.903c0,4.701-3.822,8.526-8.523,8.532c-0.003,0-0.006,0-0.01,0    c-0.007,0-0.013,0.001-0.019,0.001H47.6c-0.006,0-0.013-0.001-0.019-0.001c-0.003,0-0.006,0-0.01,0    c-4.7-0.005-8.523-3.83-8.523-8.532v-64.129c0-4.7,3.82-8.524,8.518-8.532c0.005,0,0.01,0.001,0.014,0.001    c0.01,0,0.019-0.001,0.029-0.001h136.761v48.613c0,8.556,6.96,15.516,15.516,15.516h112.226c8.556,0,15.516-6.96,15.516-15.516    v-48.613h88.694c4.142,0,7.5-3.358,7.5-7.5s-3.358-7.5-7.5-7.5h-88.694v-0.516c0-8.556-6.96-15.516-15.516-15.516H263.5v-9.048    h192.903c0.285,0,0.516,0.231,0.516,0.516v24.564h-8.532c-4.142,0-7.5,3.358-7.5,7.5s3.358,7.5,7.5,7.5h16.032    c4.705,0,8.532,3.828,8.532,8.533V207.903z"/>
		<path d="M360.209,152.307h-8.016c-4.142,0-7.5,3.358-7.5,7.5s3.358,7.5,7.5,7.5h8.016c4.142,0,7.5-3.358,7.5-7.5    S364.352,152.307,360.209,152.307z"/>
		<path d="M159.807,152.307h-8.016c-4.142,0-7.5,3.358-7.5,7.5s3.358,7.5,7.5,7.5h8.016c4.142,0,7.5-3.358,7.5-7.5    S163.949,152.307,159.807,152.307z"/>
		<path d="M159.807,184.371h-8.016c-4.142,0-7.5,3.358-7.5,7.5s3.358,7.5,7.5,7.5h8.016c4.142,0,7.5-3.358,7.5-7.5    S163.949,184.371,159.807,184.371z"/>
		<path d="M400.291,152.307h-8.016c-4.142,0-7.5,3.358-7.5,7.5s3.358,7.5,7.5,7.5h8.016c4.142,0,7.5-3.358,7.5-7.5    S404.433,152.307,400.291,152.307z"/>
		<path d="M440.371,152.307h-8.016c-4.142,0-7.5,3.358-7.5,7.5s3.358,7.5,7.5,7.5h8.016c4.142,0,7.5-3.358,7.5-7.5    S444.513,152.307,440.371,152.307z"/>
		<path d="M360.209,184.371h-8.016c-4.142,0-7.5,3.358-7.5,7.5s3.358,7.5,7.5,7.5h8.016c4.142,0,7.5-3.358,7.5-7.5    S364.352,184.371,360.209,184.371z"/>
		<path d="M400.291,184.371h-8.016c-4.142,0-7.5,3.358-7.5,7.5s3.358,7.5,7.5,7.5h8.016c4.142,0,7.5-3.358,7.5-7.5    S404.433,184.371,400.291,184.371z"/>
		<path d="M440.371,184.371h-8.016c-4.142,0-7.5,3.358-7.5,7.5s3.358,7.5,7.5,7.5h8.016c4.142,0,7.5-3.358,7.5-7.5    S444.513,184.371,440.371,184.371z"/>
	</g>
</g>















</svg>
