<svg id="Layer_1" enable-background="new 0 0 56 56" height="512" viewBox="0 0 56 56" width="512" xmlns="http://www.w3.org/2000/svg"><g id="_x32_52"><g><g><g><g><g><path d="m44.6 44.8-12.4 7.2-20.7-12-.1-28.8 12.4-7.2 20.7 12z" fill="#111d33"/></g></g></g></g></g><g><g><g><g><g><path d="m44.6 44.8-12.4 7.2-20.7-12-.1-28.8 12.4-7.2 20.7 12z" fill="#1d2943"/></g></g></g></g><g><g><g enable-background="new"><g><g><path d="m11.4 11.2.1 28.8 20.7 12-.1-28.8z" fill="#111d33"/></g><g><path d="m14.4 38.3-.1-22.1 14.9 8.6v22.1z" fill="#4c5c75"/></g></g><g><g><path d="m32.1 23.2.1 28.8 12.4-7.2-.1-28.8z" fill="#1d2943"/></g></g><g><g><path d="m11.4 11.2 20.7 12 12.4-7.2-20.7-12z" fill="#4c5c75"/></g><g><path d="m13.8 11.2 10-5.8 18.3 10.6-10 5.8z" fill="#111d33"/></g></g></g></g><g><g><path d="m43.2 19.4v2.3l-9.7 5.6v-2.2z" fill="#f3f1fc"/></g></g><g><g><path d="m43.2 24.2v2.3l-9.7 5.6v-2.3z" fill="#f3f1fc"/></g></g><g><g><g><path d="m34.4 38.3c.4-.3.8-.1.8.5 0 .5-.4 1.1-.8 1.4s-.8 0-.8-.5.4-1.1.8-1.4z" fill="#f45170"/></g></g><g><g><path d="m37 36.8c.4-.3.8-.1.8.5 0 .5-.4 1.1-.8 1.4s-.8 0-.8-.5.4-1.1.8-1.4z" fill="#b28afd"/></g></g><g><g><path d="m39.6 35.3c.4-.3.8-.1.8.5 0 .5-.4 1.1-.8 1.4s-.8 0-.8-.5.4-1.1.8-1.4z" fill="#78e75a"/></g></g><g><g><path d="m42.2 33.8c.4-.3.8-.1.8.5 0 .5-.4 1.1-.8 1.4s-.8 0-.8-.5.4-1.1.8-1.4z" fill="#ffd06c"/></g></g></g><g><g><g><path d="m35.6 44.9c.4-.2.6 0 .6.4 0 .2-.1.4-.2.6s-.3.4-.5.5l-1.5.8c-.4.2-.6 0-.6-.4 0-.2.1-.4.2-.6s.3-.4.5-.5z" fill="#f1f6fa"/></g></g><g><g><path d="m42.6 40.8c.4-.2.6 0 .6.4 0 .2-.1.4-.2.6s-.3.4-.5.5l-1.6.9c-.4.2-.6 0-.6-.4 0-.2.1-.4.2-.6s.3-.4.5-.5z" fill="#f1f6fa"/></g></g><g><g><path d="m38.3 42.3c.8-.5 1.5-.1 1.5.8s-.6 2-1.5 2.5c-.8.5-1.5.1-1.5-.8.1-.9.7-2 1.5-2.5z" fill="#6bb4f9"/></g></g></g></g></g></g></svg>