<svg id="svg8" height="512" viewBox="0 0 16.933333 16.933333" width="512" xmlns="http://www.w3.org/2000/svg" xmlns:svg="http://www.w3.org/2000/svg"><g id="layer2"><path id="path2505" d="m12.96458 7.9375v-6.6145832c0-.2931582.23601-.5291665.52917-.5291665s.52917.2360083.52917.5291665v6.6145832" fill="#96d0ff"/><path id="rect2429" d="m1.587503 10.847916h13.758334c.439737 0 .79375.354012.79375.79375v2.645833c0 .439738-.354013.79375-.79375.79375h-13.758334c-.4397375 0-.79374997-.354012-.79374997-.79375v-2.645833c0-.439738.35401247-.79375.79374997-.79375z" fill="#96d0ff"/><g fill="#0e4b7f"><path id="rect2431" d="m12.700006 7.9375h1.587499c.146579 0 .264583.1180041.264583.2645832v2.3812488c0 .146579-.118004.264583-.264583.264583h-1.587499c-.146579 0-.264583-.118004-.264583-.264583v-2.3812488c0-.1465791.118004-.2645832.264583-.2645832z"/><path id="circle2433" d="m3.4395885 12.435415a.5291667.5291667 0 0 1 -.5291667.529167.5291667.5291667 0 0 1 -.5291667-.529167.5291667.5291667 0 0 1 .5291667-.529166.5291667.5291667 0 0 1 .5291667.529166z"/><path id="circle2435" d="m5.5562572 12.435415a.5291667.5291667 0 0 1 -.5291667.529167.5291667.5291667 0 0 1 -.5291666-.529167.5291667.5291667 0 0 1 .5291666-.529166.5291667.5291667 0 0 1 .5291667.529166z"/><path id="circle2437" d="m7.6729107 12.435415a.5291667.5291667 0 0 1 -.5291667.529167.5291667.5291667 0 0 1 -.5291667-.529167.5291667.5291667 0 0 1 .5291667-.529166.5291667.5291667 0 0 1 .5291667.529166z"/><path id="rect2443" d="m2.1166596 15.081249h1.8520834v1.058334h-1.8520834z"/></g><path id="path2447" d="m13.49375.79374999c-.29316 0-.529167.23600851-.529167.52916661v6.6145833h1.058333v-.5291667h-.529166z" fill="#7cc3ff"/><path id="rect2479" d="m2.1166666 15.08125v1.058333h1.8520834v-.529167h-1.3229167v-.529166z" fill="#0d3f6c"/><path id="rect2483" d="m12.964576 15.081249h1.852083v1.058334h-1.852083z" fill="#0e4b7f"/><path id="path2486" d="m12.964583 15.08125v1.058333h1.852083v-.529167h-1.322917v-.529166z" fill="#0d3f6c"/><path id="circle2523" d="m6.926192 11.953792a.52916671.52916671 0 0 0 -.3116088.481625.52916671.52916671 0 0 0 .5291667.529166.52916671.52916671 0 0 0 .4821412-.312126.52916671.52916671 0 0 1 -.2175579.047543.52916671.52916671 0 0 1 -.5291666-.529167.52916671.52916671 0 0 1 .0470254-.217041z" fill="#0d3f6c"/><path id="rect2490" d="m1.3596069 10.884607c-.3271471.09799-.56585691.397187-.56585691.75706v2.645833c0 .439737.35401251.79375.79375001.79375h13.758333c.359873 0 .659066-.23871.75706-.565857-.0726.02175-.148028.03669-.227893.03669h-13.7583334c-.4397375 0-.79375-.354012-.79375-.79375v-2.645833c0-.07986.014943-.155291.03669-.227893z" fill="#7cc3ff"/><path id="rect2511" d="m12.7 7.9374999c-.146579 0-.264583.1180042-.264583.2645833v2.3812498c0 .146579.118004.264584.264583.264584h1.5875c.146579 0 .264583-.118005.264583-.264584v-.264583h-1.322916c-.14658 0-.264584-.118004-.264584-.264583v-2.1166671z" fill="#0d3f6c"/><path id="path2526" d="m4.8095254 11.953792a.52916671.52916671 0 0 0 -.3116088.481625.52916671.52916671 0 0 0 .5291666.529166.52916671.52916671 0 0 0 .4821412-.312126.52916671.52916671 0 0 1 -.2175578.047543.52916671.52916671 0 0 1 -.5291667-.529167.52916671.52916671 0 0 1 .0470255-.217041z" fill="#0d3f6c"/><path id="path2528" d="m2.6928588 11.953792a.52916671.52916671 0 0 0 -.3116088.481625.52916671.52916671 0 0 0 .5291666.529166.52916671.52916671 0 0 0 .4821412-.312126.52916671.52916671 0 0 1 -.2175578.047543.52916671.52916671 0 0 1 -.5291667-.529167.52916671.52916671 0 0 1 .0470255-.217041z" fill="#0d3f6c"/><path id="path2514" d="m13.494237.52916454c-.441361 0-.7953.358072-.7953.79323346v6.3505167c-.29581 0-.528.2395516-.528131.5281332l-.001 2.3827991h-10.5817899c-.59196997 0-1.05884997.47711-1.05884997 1.05885v2.644283c0 .581741.46885 1.05885 1.05884997 1.05885h.26355v.792717c-.00056.146928.11869.266177.26562.265617h1.85157c.14612-.000582.26514-.119497.26458-.265617v-.792717h8.4656309v.792717c-.00055.147131.11901.266465.26614.265617h1.85105c.14713.000846.26669-.118486.26613-.265617v-.792717h.26355c.59197 0 1.05833-.477109 1.05833-1.05885v-2.644283c0-.581741-.46626-1.05885-1.05833-1.05885h-.52968v-2.3827991c0-.2885816-.23387-.5281332-.52865-.5281332l-.00053-6.3505167c-.000031-.43516146-.35135-.79323346-.79271-.79323346zm0 .52968366c.14392 0 .26355.1123947.26355.2635498l.00052 6.3505167h-.52917l-.00053-6.3505167c0-.1511551.12171-.2635498.26563-.2635498zm-7.5256409 2.4623818c-1.81375 0-3.55213.7310829-4.83381 2.0277833-.25801997.2410111.13877.6336776.37672.3710368 1.18318-1.1970417 2.78513-1.8691367 4.45709-1.8691367 1.67212 0 3.27596.6719129 4.4591599 1.8691367.23955.2643934.63268-.1319519.37673-.3710368-1.2817099-1.2968975-3.0219699-2.0277833-4.8358899-2.0277833zm0 1.6644978c-1.37817 0-2.69801.5537699-3.67161 1.5389245-.27353.232656.15188.6381641.37466.3710366.87509-.8854784 2.06058-1.3828612 3.29695-1.3828612 1.23624-.0000003 2.42189.4975571 3.29696 1.3828612.24267.256079.62826-.1251308.37724-.3710366-.97357-.9849609-2.29617-1.5389245-3.6742-1.5389245zm0 1.6619142c-.94231 0-1.84394.3773339-2.5094 1.0505818-.25691.237023.13421.6358951.37465.373104.56696-.5735917 1.33423-.8945192 2.13475-.8945192.80062 0 1.56985.3208113 2.13683.8945192.24555.2589274.62961-.1285922.37672-.373104-.66549-.6733839-1.57113-1.0505816-2.51355-1.0505818zm6.7313799 1.3544394h1.586981v2.3817656h-1.58802zm-6.7313799.3074746c-.50677 0-.99188.2030693-1.34927.5648235-.25976.2511404.1281.6352762.37672.3731038.25888-.2620391.60761-.4082439.97255-.4082439.36474 0 .71578.1464665.97462.4082439.24866.2603256.63412-.1230135.37517-.3731038-.35734-.3613949-.8433-.5648232-1.34979-.5648235zm-4.38061 2.603975h13.7578209c.29773 0 .52917.235566.52917.529166v2.644283c0 .297736-.238741.529167-.52917.529167h-13.7578209c-.2936 0-.52916-.231431-.52916-.529167v-2.644283c0-.2936.23143-.529166.52916-.529166zm1.32137.529166c-.44144 0-.79272.357475-.79272.792717s.35163.793233.79272.793233.7953-.357991.7953-.793233-.35386-.792717-.7953-.792717zm2.11925 0c-.44547 0-.7953.357475-.7953.792717s.35489.793233.7953.793233.79272-.357991.79272-.793233-.34725-.792717-.79272-.792717zm2.11615 0c-.44255 0-.7953.357475-.7953.792717s.35489.793233.7953.793233.79272-.357991.79272-.793233-.35017-.792717-.79272-.792717zm-4.2354.5271c.14099 0 .26613.116358.26613.265617s-.12307.26355-.26613.26355-.26355-.114291-.26355-.26355.12256-.265617.26355-.265617zm2.11925 0c.14195 0 .26355.116358.26355.265617s-.12049.26355-.26355.26355-.26613-.114291-.26613-.26355.12418-.265617.26613-.265617zm2.11615 0c.13903 0 .26355.116358.26355.265617s-.11946.26355-.26355.26355-.26613-.114291-.26613-.26355.1271-.265617.26613-.265617zm1.58543 0c-.34512 0-.34512.529167 0 .529167h2.3833209c.34512 0 .34512-.529167 0-.529167zm3.5723909 0c-.34511 0-.34511.529167 0 .529167h.6625c.34512 0 .34512-.529167 0-.529167zm-9.9218709 3.176033h1.32343v.529167h-1.32343zm10.8484309 0h1.32292v.529167h-1.32292z" font-variant-ligatures="normal" font-variant-position="normal" font-variant-caps="normal" font-variant-numeric="normal" font-variant-alternates="normal" font-feature-settings="normal" text-indent="0" text-align="start" text-decoration-line="none" text-decoration-style="solid" text-decoration-color="#000000" text-transform="none" text-orientation="mixed" white-space="normal" shape-padding="0" isolation="auto" mix-blend-mode="normal" solid-color="#000000" solid-opacity="1" vector-effect="none"/></g></svg>