<svg id="Capa_1" enable-background="new 0 0 512 512" viewBox="0 0 512 512" xmlns="http://www.w3.org/2000/svg"><g><g><path d="m504.5 259.968h-497v-121.22c0-11.158 9.045-20.203 20.203-20.203h456.594c11.158 0 20.203 9.045 20.203 20.203z" fill="#b5adb6"/><path d="m484.297 118.545h-32.325c11.158 0 20.203 9.045 20.203 20.203v121.22h32.325v-121.22c0-11.157-9.045-20.203-20.203-20.203z" fill="#a79ba7"/><path d="m423.567 393.452h32.565c3.535 0 6.659-2.297 7.713-5.671l8.329-26.654h-64.65l8.329 26.654c1.055 3.374 4.18 5.671 7.714 5.671z" fill="#918291"/><path d="m88.433 393.452h-32.565c-3.535 0-6.659-2.297-7.713-5.671l-8.329-26.654h64.65l-8.329 26.654c-1.055 3.374-4.18 5.671-7.714 5.671z" fill="#918291"/><path d="m484.297 360.984h-456.594c-11.158 0-20.203-9.045-20.203-20.203v-101.016c0-11.158 9.045-20.203 20.203-20.203h456.594c11.158 0 20.203 9.045 20.203 20.203v101.016c0 11.158-9.045 20.203-20.203 20.203z" fill="#e2dee2"/><path d="m484.297 219.562h-32.325c11.158 0 20.203 9.045 20.203 20.203v101.016c0 11.158-9.045 20.203-20.203 20.203h32.325c11.158 0 20.203-9.045 20.203-20.203v-101.016c0-11.158-9.045-20.203-20.203-20.203z" fill="#cbc4cc"/><g fill="#fd8087"><path d="m116.708 306.436h-60.72c-8.926 0-16.163-7.236-16.163-16.163 0-8.926 7.236-16.163 16.163-16.163h60.72c8.926 0 16.163 7.236 16.163 16.163 0 8.926-7.237 16.163-16.163 16.163z"/><circle cx="181.358" cy="290.273" r="16.163"/></g></g><g><path d="m484.3 111.048h-376.75c-4.143 0-7.5 3.358-7.5 7.5s3.357 7.5 7.5 7.5h376.75c7.003 0 12.7 5.697 12.7 12.7v76.407c-3.807-1.974-8.124-3.097-12.7-3.097h-143.18c-4.143 0-7.5 3.358-7.5 7.5s3.357 7.5 7.5 7.5h143.18c7.003 0 12.7 5.702 12.7 12.71v101.01c0 7.009-5.697 12.71-12.7 12.71h-269.23c-4.143 0-7.5 3.358-7.5 7.5s3.357 7.5 7.5 7.5h186.897l6.728 21.53c2.044 6.54 8.021 10.933 14.872 10.933h32.564c6.852 0 12.828-4.394 14.872-10.934l6.728-21.529h6.568c15.274 0 27.7-12.431 27.7-27.71v-202.03c.001-15.273-12.426-27.7-27.699-27.7zm-27.612 274.495c-.076.245-.3.409-.556.409h-32.564c-.256 0-.479-.164-.556-.408l-5.33-17.055h44.335z"/><path d="m370.63 320.217 3.261-8.563h22.557l3.224 8.542c1.133 3.003 3.987 4.854 7.018 4.854.88 0 1.775-.156 2.647-.485 3.875-1.463 5.831-5.79 4.368-9.665l-20.297-53.783c-.025-.069-.053-.139-.081-.207-1.354-3.288-4.523-5.411-8.079-5.411-.003 0-.006 0-.009 0-3.559.003-6.729 2.134-8.077 5.427-.022.057-.046.114-.067.172l-20.482 53.78c-1.475 3.871.469 8.204 4.34 9.678 3.863 1.476 8.202-.468 9.677-4.339zm20.157-23.564h-11.183l5.617-14.749z"/><path d="m292.237 255.949c-3.119.986-5.24 3.88-5.24 7.151v54.447c0 4.142 3.357 7.5 7.5 7.5s7.5-3.358 7.5-7.5v-30.711l24.586 35.021c1.432 2.038 3.741 3.191 6.14 3.191.752 0 1.514-.114 2.259-.349 3.119-.986 5.24-3.88 5.24-7.151v-54.549c0-4.142-3.357-7.5-7.5-7.5s-7.5 3.358-7.5 7.5v30.813l-24.586-35.021c-1.881-2.677-5.277-3.829-8.399-2.842z"/><path d="m455.761 310.047c-5.232 0-10.262-2.102-13.451-5.622-2.781-3.069-7.524-3.304-10.594-.521-3.069 2.781-3.303 7.524-.521 10.594 6.075 6.705 15.029 10.55 24.566 10.55 11.826 0 21.762-7.572 23.625-18.004 1.406-7.877-2.136-18.155-16.293-23.377l-2.434-.896c-6.36-2.34-9.553-3.514-12.444-5.089-.81-.441-1.162-1.232-1.046-2.35.159-1.536 1.303-3.471 4.035-4.295 7.318-2.203 14.168 3.174 14.385 3.347 3.171 2.625 7.871 2.206 10.524-.951 2.665-3.171 2.256-7.902-.915-10.567-.527-.442-13.063-10.784-28.32-6.191-8.063 2.429-13.806 9.147-14.63 17.114-.741 7.169 2.628 13.708 8.793 17.066 3.856 2.1 7.615 3.482 14.438 5.993l2.422.892c1.74.642 7.369 3.02 6.718 6.667-.495 2.773-3.944 5.64-8.858 5.64z"/><path d="m179.97 353.489h-152.27c-7.003 0-12.7-5.702-12.7-12.71v-101.01c0-7.008 5.697-12.71 12.7-12.71h278.32c4.143 0 7.5-3.358 7.5-7.5s-3.357-7.5-7.5-7.5h-278.32c-4.576 0-8.893 1.123-12.7 3.097v-76.407c0-7.003 5.697-12.7 12.7-12.7h44.75c4.143 0 7.5-3.358 7.5-7.5s-3.357-7.5-7.5-7.5h-44.75c-15.274 0-27.7 12.426-27.7 27.7v202.03c0 15.28 12.426 27.71 27.7 27.71h6.568l6.728 21.53c2.044 6.54 8.021 10.933 14.872 10.933h32.564c6.852 0 12.828-4.394 14.872-10.934l6.728-21.529h69.938c4.143 0 7.5-3.358 7.5-7.5s-3.358-7.5-7.5-7.5zm-90.982 32.054c-.076.245-.3.409-.556.409h-32.564c-.256 0-.479-.164-.556-.408l-5.33-17.055h44.335z"/><path d="m55.987 266.61c-13.047 0-23.662 10.615-23.662 23.663s10.615 23.663 23.662 23.663h60.721c13.048 0 23.663-10.615 23.663-23.663s-10.615-23.663-23.663-23.663zm69.384 23.663c0 4.776-3.887 8.663-8.663 8.663h-60.721c-4.776 0-8.662-3.886-8.662-8.663s3.886-8.663 8.662-8.663h60.721c4.776 0 8.663 3.887 8.663 8.663z"/><path d="m181.358 266.61c-13.047 0-23.662 10.615-23.662 23.663s10.615 23.663 23.662 23.663c13.048 0 23.663-10.615 23.663-23.663s-10.615-23.663-23.663-23.663zm0 32.326c-4.776 0-8.662-3.886-8.662-8.663s3.886-8.663 8.662-8.663 8.663 3.886 8.663 8.663-3.886 8.663-8.663 8.663z"/></g></g><g/><g/><g/><g/><g/><g/><g/><g/><g/><g/><g/><g/><g/><g/><g/></svg>