<svg height="511pt" viewBox="1 -22 511.99893 511" width="511pt" xmlns="http://www.w3.org/2000/svg"><path d="m353.167969 429.9375-94.636719 17.324219-54.449219-9.464844-45.253906-7.859375 20.144531-65.828125 77.03125-34.3125 77.019532 34.3125 7.722656 25.246094zm0 0" fill="#e6e6e6"/><path d="m340.746094 389.355469h-127.582032l-9.082031 48.441406-45.253906-7.859375 20.144531-65.828125 77.03125-34.3125 77.019532 34.3125zm0 0" fill="#ccc"/><path d="m469.632812 364.105469h-427.265624c-23.398438 0-42.367188-18.96875-42.367188-42.367188v-278.871093c0-23.398438 18.96875-42.367188 42.367188-42.367188h427.265624c23.398438 0 42.367188 18.96875 42.367188 42.367188v278.871093c0 23.398438-18.96875 42.367188-42.367188 42.367188zm0 0" fill="#e6e6e6"/><path d="m470.207031 42.867188v255.414062h-428.40625v-255.414062c0-.3125.25-.574219.5625-.574219h427.269531c.3125 0 .574219.261719.574219.574219zm0 0" fill="#545d68"/><path d="m470.207031 42.867188v255.414062h-24.03125v-255.414062c0-.3125.011719-.574219.03125-.574219h23.96875c.015625 0 .03125.261719.03125.574219zm0 0" fill="#3b454f"/><path d="m406.550781 448.746094c0 5.195312-2.109375 9.894531-5.503906 13.292968-3.40625 3.40625-8.109375 5.503907-13.304687 5.503907h-263.492188c-10.382812 0-18.804688-8.410157-18.804688-18.796875 0-5.203125 2.097657-9.90625 5.503907-13.300782 3.40625-3.40625 8.109375-5.507812 13.300781-5.507812h263.492188c10.386718 0 18.808593 8.414062 18.808593 18.808594zm0 0" fill="#ccc"/><path d="m406.550781 448.746094c0 5.195312-2.109375 9.894531-5.503906 13.292968-3.40625 3.40625-8.109375 5.503907-13.304687 5.503907h-236.324219c-10.386719 0-18.808594-8.410157-18.808594-18.796875 0-5.203125 2.101563-9.90625 5.507813-13.300782 3.40625-3.40625 8.109374-5.507812 13.300781-5.507812h236.324219c10.386718 0 18.808593 8.414062 18.808593 18.808594zm0 0" fill="#e6e6e6"/><path d="m256.003906 337.632812c-3.273437 0-6.28125-2.121093-7.382812-5.199218-1.144532-3.203125-.03125-6.910156 2.710937-8.933594 2.628907-1.945312 6.296875-2.039062 9.019531-.222656 2.777344 1.851562 4.089844 5.390625 3.195313 8.605468-.933594 3.347657-4.054687 5.75-7.542969 5.75zm0 0" fill="#545d68"/></svg>