<svg id="Layer_1" enable-background="new 0 0 50 50" height="512" viewBox="0 0 50 50" width="512" xmlns="http://www.w3.org/2000/svg"><g><g><g enable-background="new"><g><path d="m27.194 33.9262 21.806-12.6723-.026 9.177-21.806 12.6722z" fill="#515050"/></g><g><path d="m2.3268 19.5691 21.806-12.6722 24.8672 14.357-21.806 12.6723z" fill="#5a5b5b"/></g><g><path d="m27.194 33.9262-.026 9.1769-24.8672-14.357.026-9.177z" fill="#383838"/></g></g></g><g><g><path d="m26.3292 33.9012c.2596.1499.4621.5072.4613.8055-.0008.2917-.2047.4143-.4643.2644-.254-.1466-.4621-.5072-.4613-.7988.0008-.2983.2103-.4177.4643-.2711z" fill="#787677"/></g><g><path d="m26.3088 41.0674c.2596.1499.4622.5008.4613.7992-.0008.2917-.2047.4143-.4643.2644-.254-.1466-.4621-.5072-.4613-.7988.0009-.2984.2104-.4115.4643-.2648z" fill="#787677"/></g><g><path d="m3.1834 20.538c.2596.1499.4621.5072.4613.8055-.0009.2917-.2047.4144-.4644.2645-.254-.1466-.4621-.5072-.4613-.7988.0009-.2984.2104-.4178.4644-.2712z" fill="#787677"/></g><g><path d="m3.1631 27.7041c.2596.1499.4622.5008.4613.7992-.0009.2917-.2047.4144-.4644.2645-.254-.1466-.4621-.5072-.4613-.7988.0009-.2984.2104-.4115.4644-.2649z" fill="#787677"/></g><g><path d="m19.0083 35.891c.1975.1141.3607.3905.3601.6174s-.1649.3203-.3624.2063c-.1975-.1141-.355-.3932-.3544-.6201.0007-.227.1592-.3177.3567-.2036z" fill="#7bd3f7"/></g><g><path d="m14.1003 28.2763 10.4243 6.0185-.0048 1.7252-10.4243-6.0185zm10.2957 7.5295.0041-1.4398-10.176-5.8751-.0041 1.4398z" fill="#787677"/></g><g><path d="m23.879 38.7031c.1975.114.3607.3904.36.6174-.0006.2269-.1648.3203-.3624.2063-.1975-.114-.355-.3932-.3544-.6201.0007-.227.1593-.3177.3568-.2036z" fill="#e02426"/></g><g><path d="m22.6656 38.0025c.1975.114.3551.3872.3544.6141-.0006.2269-.1592.3236-.3568.2095-.1975-.1141-.3607-.3964-.36-.6234.0007-.2268.1649-.3142.3624-.2002z" fill="#7bd3f7"/></g><g><path d="m21.4465 37.2987c.1975.1141.3551.3872.3544.6141s-.1592.3236-.3568.2095c-.1975-.1141-.3607-.3964-.36-.6234s.1648-.3143.3624-.2002z" fill="#e02426"/></g><g enable-background="new"><g><path d="m6.3067 23.5494-1.4017 1.9061-.0452-.026.0012-.4022 1.1918-1.6246z" fill="#3d3d3d"/></g><g><path d="m7.0856 23.999.5248.3031-1.4017 1.9062-.5249-.3031z" fill="#787677"/></g><g><path d="m7.8644 24.4487-1.4017 1.9062-.254-.1467 1.4017-1.9061z" fill="#3d3d3d"/></g><g><path d="m13.5348 32.3284-.0026.9271-1.6593-.958.0026-.9271z" fill="#fde34b"/></g><g><path d="m11.6529 28.1303-.001.3631-2.8163-1.626.001-.3631z" fill="#3d3d3d"/></g><g><path d="m13.5382 31.1286-.0026.9275-1.6593-.958.0026-.9275z" fill="#69c4ef"/></g><g><path d="m13.547 28.0221-.0026.9275-1.6593-.958.0026-.9275z" fill="#69c4ef"/></g><g><path d="m2.3268 19.5691 24.8672 14.3571-.026 9.177-24.8672-14.3571zm23.0009 20.6135.0155-5.467c.0012-.4278-.3026-.9475-.6751-1.1626l-19.8271-11.4472c-.3725-.2151-.6726-.044-.6738.3838l-.0155 5.467c-.0012.4282.2969.9447.6695 1.1598l19.8271 11.4472c.3725.2151.6782.0473.6794-.381m.9984-5.2114c.2596.1499.4635.0272.4643-.2644.0008-.2984-.2017-.6557-.4613-.8056-.2539-.1466-.4635-.0272-.4643.2711-.0008.2917.2074.6523.4613.7989m-23.1458-13.3632c.2596.1499.4635.0272.4643-.2644.0008-.2984-.2017-.6557-.4613-.8055-.254-.1466-.4635-.0272-.4643.2711-.0008.2916.2074.6522.4613.7988m23.1255 20.523c.2596.1499.4635.0273.4643-.2644.0008-.2984-.2017-.6493-.4613-.7992-.2539-.1466-.4634-.0336-.4643.2648-.0008.2916.2074.6522.4613.7988m-23.1458-13.3632c.2596.1499.4635.0273.4643-.2644.0008-.2984-.2017-.6493-.4613-.7992-.254-.1466-.4635-.0336-.4643.2648-.0008.2916.2074.6522.4613.7988" fill="#686868"/></g><g><path d="m5.519 26.2062.5249.303-1.1917 1.6246.0029-1.0246z" fill="#787677"/></g><g><path d="m6.2979 26.6559.5249.303-1.3961 1.9158-.5306-.3064z" fill="#787677"/></g><g><path d="m6.2979 26.6559-1.4018 1.9124-.0451-.026.0012-.4085 1.1917-1.6246z" fill="#3d3d3d"/></g><g><path d="m7.0768 27.1055-1.4018 1.9125-.2483-.1434 1.3961-1.9157z" fill="#3d3d3d"/></g><g><path d="m7.0768 27.1055.5248.3031-1.4017 1.9125-.5249-.3031z" fill="#787677"/></g><g><path d="m7.8556 27.5552-1.4017 1.9125-.254-.1466 1.4017-1.9125z" fill="#3d3d3d"/></g><g><path d="m5.5278 23.0997-.6639.903.0014-.4993.4086-.5503z" fill="#3d3d3d"/></g><g><path d="m8.7417 28.0668-1.4017 1.9125-.254-.1467 1.4074-1.9092z" fill="#3d3d3d"/></g><g><path d="m6.3067 23.5494.5249.303-1.3961 1.9094-.5305-.3063z" fill="#787677"/></g><g><path d="m7.0856 23.999-1.4018 1.9062-.2483-.1434 1.3961-1.9094z" fill="#3d3d3d"/></g><g><path d="m11.6441 31.2368-.001.3631-2.8163-1.626.001-.3631z" fill="#3d3d3d"/></g><g><path d="m11.6459 30.6077-.001.3567-2.314-1.336.001-.3567z" fill="#3d3d3d"/></g><g><path d="m7.8644 24.4487.6378.3682-1.4074 1.9029-.6321-.3649z" fill="#787677"/></g><g><path d="m11.6477 29.9786-.001.3567-1.8061-1.0427.001-.3568z" fill="#3d3d3d"/></g><g><path d="m8.7506 24.9603-1.4018 1.9062-.254-.1467 1.4074-1.9029z" fill="#3d3d3d"/></g><g><path d="m7.8556 27.5552.6378.3682-1.4074 1.9093-.6321-.365z" fill="#787677"/></g><g><path d="m11.6511 28.7594-.001.3631-3.3242-1.9193.001-.3631z" fill="#3d3d3d"/></g><g><path d="m11.6565 26.8654-.001.3634-1.8061-1.0427.001-.3634z" fill="#3d3d3d"/></g><g><path d="m13.5436 29.2219-.0026.9275-1.6593-.958.0026-.9275z" fill="#fde34b"/></g><g><path d="m8.7505 24.9603 4.9949 2.8838-.0077 2.711-6.3889-3.6886zm4.7939 3.9893.0026-.9275-1.6593-.958-.0026.9275zm-.0034 1.1998.0026-.9275-1.6593-.958-.0026.9275zm-1.8909-1.0269.001-.3631-3.3243-1.9193-.001.3631zm.0018-.6291.001-.3631-2.8163-1.626-.001.3631zm.0018-.6354.001-.3568-2.314-1.336-.001.3568zm.0018-.6291.001-.3635-1.8061-1.0427-.001.3635z" fill="#787677"/></g><g><path d="m11.6547 27.5012-.001.3568-2.314-1.336.001-.3568z" fill="#3d3d3d"/></g><g><path d="m20.2274 36.5948c.1975.114.3551.3872.3544.6141-.0006.2269-.1592.3236-.3568.2095-.1975-.1141-.355-.3932-.3544-.6201.0007-.2269.1593-.3175.3568-.2035z" fill="#7bd3f7"/></g><g><path d="m24.4001 34.366-.0041 1.4398-10.176-5.8751.0041-1.4398z" fill="#4f4d4d"/></g><g><path d="m24.6681 33.553-19.8271-11.4472c-.3725-.2151-.6726-.044-.6738.3838l-.0155 5.4671c-.0012.4282.297.9447.6695 1.1597l19.8271 11.4472c.3725.2151.6782.0473.6795-.381l.0155-5.467c.0011-.4278-.3027-.9475-.6752-1.1626zm-10.9392.115-8.8779-5.1257.0077-2.7174.4064.2346.2539.1466.5249.3031.2539.1466.5249.303.254.1467.5249.303.254.1467.6377.3682.2484.1434 4.9948 2.8838zm.0088-3.1129-8.8779-5.1257.0077-2.711.4064.2346.2539.1466.5249.3031.2539.1466.5249.303.254.1467.5249.303.254.1467.6377.3682.2484.1434 4.9949 2.8838zm5.2683 6.1596c-.1975-.1141-.355-.3932-.3544-.6201s.1591-.3176.3567-.2036c.1975.1141.3607.3905.3601.6174-.0007.2269-.1649.3203-.3624.2063m1.2191.7038c-.1975-.114-.3551-.3932-.3544-.6201s.1592-.3176.3568-.2035c.1975.114.3551.3872.3544.6141s-.1593.3236-.3568.2095m1.219.7039c-.1975-.1141-.3607-.3964-.36-.6234.0007-.2269.1648-.3143.3624-.2003.1975.114.3551.3872.3544.6141s-.1592.3236-.3568.2096m1.2191.7038c-.1975-.114-.3607-.3964-.36-.6234.0006-.2269.1648-.3143.3624-.2003.1975.114.3551.3872.3544.6141-.0006.227-.1592.3237-.3568.2096m1.2135.7006c-.1975-.1141-.3551-.3932-.3544-.6202.0006-.2269.1592-.3176.3568-.2035.1975.1141.3607.3905.36.6174s-.1649.3203-.3624.2063m.6431-3.5068-10.4243-6.0185.0049-1.7251 10.4243 6.0185z" fill="#4f4d4d"/></g><g><path d="m5.519 26.2062-.6639.903.0014-.493.4086-.5566z" fill="#3d3d3d"/></g><g><path d="m4.8564 26.6163.4087-.5567-.4064-.2347z" fill="#787677"/></g><g><path d="m4.8675 22.7184.4064.2347-.4086.5503z" fill="#787677"/></g><g><path d="m5.5278 23.0997.5249.303-1.1917 1.6246.0029-1.0246z" fill="#787677"/></g><g><path d="m8.7417 28.0668 4.9949 2.8838-.0077 2.7173-6.3889-3.6886zm4.7939 3.9893.0026-.9275-1.6593-.958-.0026.9275zm-.0034 1.1994.0026-.9271-1.6593-.958-.0026.9271zm-1.8909-1.0265.001-.3631-3.3243-1.9193-.001.3631zm.0018-.6291.001-.3631-2.8163-1.626-.001.3631zm.0018-.6354.001-.3568-2.314-1.336-.001.3568zm.0018-.6292.001-.3568-1.8061-1.0427-.001.3568z" fill="#787677"/></g><g><path d="m11.6423 31.8659-.001.3631-3.3243-1.9193.0011-.3631z" fill="#3d3d3d"/></g></g></g><g enable-background="new"><g><path d="m24.8822 42.4951-.4007-.2348c-.2118-.1202-.3492-.3893-.3492-.7613l-.0115-4.8891c0-.7555.5323-1.6772 1.1906-2.0548l.83-.481.4064.2348-.8357.4807c-.6582.3779-1.1906 1.2994-1.1848 2.0551l.0114 4.8891c0 .3719.1317.6352.3435.7613z" fill="#e8e8e8"/><path d="m26.565 41.4646-.8357.4807c-.2175.1261-.4121.1375-.5552.0573l-.4007-.2345c.1431.0799.3377.0688.5552-.0573l.83-.481z" fill="#bfbfbf"/></g><g><path d="m26.5461 34.3082.0013.4661-.8332.4811c-.4312.249-.7809.8548-.7795 1.3503l.0117 4.89c.0014.4999.3534.7003.7846.4514l.8332-.4811.0013.4661-.8332.4811c-.6578.3798-1.1931.0748-1.1953-.6812l-.0117-4.89c-.0021-.7518.5297-1.673 1.1875-2.0528z" fill="#b0afb0"/></g></g><g enable-background="new"><g><path d="m1.7613 29.0963-.4007-.2348c-.2118-.1202-.3492-.3893-.3492-.7613l-.0114-4.8891c0-.7555.5323-1.6772 1.1906-2.0548l.83-.481.4064.2348-.8357.4807c-.6582.3779-1.1906 1.2994-1.1848 2.0551l.0114 4.8891c-.0001.372.1316.6353.3434.7613z" fill="#e8e8e8"/><path d="m3.4442 28.0659-.8357.4807c-.2175.1261-.4121.1375-.5552.0573l-.4007-.2345c.1431.0799.3377.0688.5552-.0573l.83-.481z" fill="#bfbfbf"/></g><g><path d="m3.4252 20.9094.0013.4661-.8332.4811c-.4312.249-.7809.8548-.7795 1.3503l.0117 4.89c.0014.4999.3534.7003.7846.4514l.8332-.4811.0013.4661-.8332.4811c-.6578.3798-1.1931.0748-1.1953-.6812l-.0117-4.89c-.0021-.7518.5297-1.673 1.1875-2.0528z" fill="#b0afb0"/></g></g></g></svg>