<svg height="512" viewBox="0 0 64 64" width="512" xmlns="http://www.w3.org/2000/svg"><g id="Database"><path d="m60 25v11a3.13 3.13 0 0 1 -.8 2 5.94 5.94 0 0 1 -1.05 1c-3 2.37-9.59 4-17.15 4s-14.1-1.63-17.15-4h-1.05a3.42 3.42 0 0 1 -.65-1.15 2.75 2.75 0 0 1 -.15-.85v-12z" fill="#647499"/><g fill="#96a1c3"><path d="m57 25v9a3.13 3.13 0 0 1 -.8 2 5.94 5.94 0 0 1 -1.05 1c-3 2.37-9.59 4-17.15 4-6.62 0-12.45-1.25-15.85-3.15a2.75 2.75 0 0 1 -.15-.85v-12z"/><path d="m42 51v6a3 3 0 0 1 -2.34 2.93 3.51 3.51 0 0 1 -.66.07h-32a3 3 0 0 1 -3-3v-6a3 3 0 0 1 3-3h32a3.51 3.51 0 0 1 .66.07 3.08 3.08 0 0 1 1.33.69 3 3 0 0 1 1.01 2.24z"/><path d="m42 39v6a3 3 0 0 1 -2.34 2.93 3.51 3.51 0 0 1 -.66.07h-32a3 3 0 0 1 -3-3v-6a3 3 0 0 1 3-3h32a3.51 3.51 0 0 1 .66.07 3.08 3.08 0 0 1 1.33.69 3 3 0 0 1 1.01 2.24z"/></g><path d="m39 48v6a3 3 0 0 1 -2.34 2.93 3.51 3.51 0 0 1 -.66.07h-32v-6a3 3 0 0 1 3-3z" fill="#ccd3eb"/><path d="m39 36v6a3 3 0 0 1 -2.34 2.93 3.51 3.51 0 0 1 -.66.07h-32v-6a3 3 0 0 1 3-3z" fill="#ccd3eb"/><circle cx="10" cy="54" fill="#0074ff" r="2"/><circle cx="16" cy="54" fill="#0074ff" r="2"/><path d="m60 12v11a3.13 3.13 0 0 1 -.8 2c-2.33 2.89-9.6 5-18.2 5-8.27 0-15.31-1.95-17.91-4.67l-.29-.33h-.8v-13l.2-1h37.6a2.7 2.7 0 0 1 .2 1z" fill="#647499"/><path d="m57 11v10a3.13 3.13 0 0 1 -.8 2c-2.33 2.89-9.6 5-18.2 5-6 0-11.43-1-14.91-2.67-.24-.1-.46-.22-.68-.33l-.41-.23v-12.77l.2-1z" fill="#96a1c3"/><path d="m60 11c0 2.55-3.69 4.77-9.2 6a45.59 45.59 0 0 1 -9.8 1 45.59 45.59 0 0 1 -9.8-1c-5.51-1.23-9.2-3.45-9.2-6l.2-1c1.3-3.39 9.23-6 18.8-6s17.5 2.61 18.8 6a2.7 2.7 0 0 1 .2 1z" fill="#ccd3eb"/><g fill="#033c59"><path d="m22 37a1 1 0 0 1 -1-1v-24a4.28 4.28 0 0 1 .05-.72 1 1 0 0 1 2 .34 1.58 1.58 0 0 0 -.05.38v24a1 1 0 0 1 -1 1z"/><path d="m60 37a1 1 0 0 1 -1-1v-13a1 1 0 0 1 2 0v13a1 1 0 0 1 -1 1z"/><path d="m60 15a1 1 0 0 1 -1-1v-2a1.58 1.58 0 0 0 0-.38 1 1 0 0 1 2-.34 4.28 4.28 0 0 1 0 .72v2a1 1 0 0 1 -1 1z"/><path d="m60 20a1 1 0 0 1 -1-1v-1a1 1 0 0 1 2 0v1a1 1 0 0 1 -1 1z"/><path d="m41 19c-9.7 0-20-2.8-20-8s10.3-8 20-8 20 2.8 20 8-10.3 8-20 8zm0-14c-10.61 0-18 3.16-18 6s7.39 6 18 6 18-3.16 18-6-7.39-6-18-6z"/><path d="m41 31a46.76 46.76 0 0 1 -10-1c-6.34-1.42-10-4-10-7a1 1 0 0 1 2 0c0 1.88 3.38 3.9 8.42 5a44.56 44.56 0 0 0 9.58 1 44.56 44.56 0 0 0 9.58-1c5-1.12 8.42-3.14 8.42-5a1 1 0 0 1 2 0c0 3-3.64 5.56-10 7a46.76 46.76 0 0 1 -10 1z"/><path d="m42 44a1 1 0 0 1 0-2 43.17 43.17 0 0 0 8.6-1c5-1.12 8.42-3.14 8.42-5a1 1 0 0 1 2 0c0 3-3.64 5.56-10 7a45.81 45.81 0 0 1 -9 1z"/><path d="m39 61h-32a4 4 0 0 1 -4-4v-6a4 4 0 0 1 4-4h32a4 4 0 0 1 4 4v6a4 4 0 0 1 -4 4zm-32-12a2 2 0 0 0 -2 2v6a2 2 0 0 0 2 2h32a2 2 0 0 0 2-2v-6a2 2 0 0 0 -2-2z"/><path d="m39 49h-32a4 4 0 0 1 -4-4v-6a4 4 0 0 1 4-4h32a4 4 0 0 1 4 4v6a4 4 0 0 1 -4 4zm-32-12a2 2 0 0 0 -2 2v6a2 2 0 0 0 2 2h32a2 2 0 0 0 2-2v-6a2 2 0 0 0 -2-2z"/></g><circle cx="10" cy="42" fill="#0074ff" r="2"/><circle cx="16" cy="42" fill="#0074ff" r="2"/></g></svg>