<svg id="Capa_1" enable-background="new 0 0 453.54 453.54" height="512" viewBox="0 0 453.54 453.54" width="512" xmlns="http://www.w3.org/2000/svg"><g><g><path d="m397.756 213.21c5.866-14.435-2.686-26.332-13.576-37.947-11.463-12.227-10.478-27.853-12.94-43.263-1.262-7.894-3.721-15.344-8.852-21.601-5.357-6.533-13.629-9.937-18.629-16.795-7.951-10.9-10.877-24.159-16.612-36.159-11.908-24.926-35.438-42.684-61.272-51.357-12.418-4.169-26.689-5.877-39.902-6.054-13.216.177-27.484 1.885-39.901 6.054-25.838 8.673-49.368 26.431-61.277 51.357-5.731 12-8.66 25.258-16.607 36.159-5.004 6.858-13.272 10.262-18.63 16.795-5.134 6.257-7.59 13.708-8.852 21.601-2.463 15.41-1.48 31.036-12.943 43.263-10.888 11.615-19.442 23.512-13.573 37.947 5.64 13.882 22.171 23.567 25.475 38.071 5.236 22.974-32.432 57.49 8.83 71.814 13.859 4.811 27.973 3.637 38.298 14.957 8.845 9.701 7.989 19.731 21.488 27.303 16.919 9.488 52.152 13.669 77.693 12.053 25.541 1.616 60.771-2.565 77.69-12.053 13.502-7.572 12.644-17.603 21.492-27.303 10.325-11.319 24.438-10.146 38.297-14.957 41.263-14.324 3.594-48.841 8.827-71.814 3.306-14.504 19.836-24.189 25.476-38.071z" fill="#762c6c"/></g><g><g><path d="m432.618 453.542c1.905-51.437-30.491-71.22-30.491-71.22l-136.483-77.155h-77.754l-136.476 77.154s-32.396 19.783-30.492 71.22h411.696z" fill="#f9c5b8"/></g></g><g><path d="m178.183 315.146h97.176c-21.531-11.626-15.729-56.322-15.729-56.322h-65.719s5.803 44.696-15.728 56.322z" fill="#f9c5b8"/></g><g><path d="m192.565 292.427c23.216-2.651 45.94-10.433 66.364-21.938.078-6.861.7-11.665.7-11.665h-65.719c.001 0 2.28 17.613-1.345 33.603z" fill="#f5a997"/></g><g><g><path d="m340.115 159.251c-2.046 15.809-10.989 27.548-19.979 26.22-8.989-1.33-14.618-15.223-12.576-31.032 2.046-15.81 10.993-27.549 19.983-26.221 8.989 1.329 14.618 15.223 12.572 31.033z" fill="#f5a997"/></g><g><g><path d="m320.007 173.733c-1.219 0-2.326-.828-2.632-2.064-2.241-9.073-3.259-19.823 6.18-30.769.978-1.134 2.692-1.262 3.827-.284 1.134.979 1.262 2.692.282 3.828-8.192 9.503-6.887 18.364-5.021 25.925.36 1.455-.528 2.926-1.984 3.284-.218.054-.436.08-.652.08z" fill="#e9837b"/></g><g><path d="m329.129 157.978c-.168 0-.339-.016-.511-.049-4.35-.824-8.843-.005-8.889.001-1.479.27-2.891-.695-3.166-2.166-.277-1.471.688-2.889 2.157-3.167.221-.044 5.511-1.026 10.912 0 1.472.279 2.438 1.699 2.159 3.172-.247 1.301-1.385 2.209-2.662 2.209z" fill="#e9837b"/></g></g></g><g><g><path d="m113.426 159.251c2.046 15.809 10.989 27.548 19.979 26.22 8.989-1.33 14.618-15.223 12.576-31.032-2.046-15.81-10.993-27.549-19.983-26.221-8.989 1.329-14.618 15.223-12.572 31.033z" fill="#f5a997"/></g><g><g><path d="m133.534 173.733c-.216 0-.435-.026-.652-.081-1.456-.358-2.345-1.83-1.984-3.284 1.866-7.561 3.172-16.422-5.021-25.925-.979-1.135-.853-2.849.282-3.828 1.136-.98 2.852-.852 3.827.284 9.438 10.946 8.421 21.696 6.18 30.769-.306 1.237-1.413 2.065-2.632 2.065z" fill="#e9837b"/></g><g><path d="m124.412 157.978c-1.277 0-2.416-.908-2.663-2.209-.279-1.473.688-2.893 2.159-3.172 5.397-1.025 10.691-.043 10.912 0 1.472.28 2.438 1.7 2.159 3.172-.281 1.473-1.714 2.433-3.17 2.161-.078-.013-4.546-.823-8.887-.001-.171.032-.342.049-.51.049z" fill="#e9837b"/></g></g></g><g><path d="m317.821 121.37c-1.611-45.102-29.294-100.819-86.051-100.513h-5.799-5.802c-56.758-.306-84.437 55.411-86.051 100.513-1.619 45.332 12.279 97.614 40.513 125.418 13.237 13.034 33.315 19.302 51.34 19.616 18.021-.314 38.1-6.583 51.337-19.616 28.234-27.804 42.132-80.086 40.513-125.418z" fill="#f9c5b8"/></g><g><path d="m224.742-.001v.078c-133.102 6.419-98.288 130.376-98.288 130.376 7.859 8.202 5.371 20.43 10.583 39.426 5.838-3.14 9.364-38.102 9.364-38.102 6.877-58.702 29.213-69.832 29.213-69.832 16.403-7.158 33.545-9.385 49.128-9.2v.041c16.106-.405 34.008 1.698 51.11 9.159 0 0 22.336 11.13 29.213 69.832 0 0 3.526 34.962 9.364 38.102 5.212-18.996 2.724-31.224 10.583-39.426.001-.001 35.142-125.171-100.27-130.454z" fill="#762c6c"/></g><g><g><path d="m289.09 318.421 113.037 63.9s32.396 19.783 30.491 71.22h-411.696c-1.904-51.437 30.492-71.22 30.492-71.22l113.03-63.9s1.64 36.408 62.33 35.693c0 0 61.764.553 62.316-35.693z" fill="#85a6cd"/></g></g><g><g><path d="m303.549 326.595-14.459-8.174c-.552 36.246-62.315 35.693-62.315 35.693-60.69.714-62.33-35.693-62.33-35.693l-14.46 8.174s9.025 44.283 76.79 43.69c-.001.001 64.909 3.619 76.774-43.69z" fill="#8c7eb0"/></g></g><g><g><g><path d="m285.651 129.067c-2.318-16.063-36.237-16.661-42.859-10.183 0 0-2.555 4.599.615 8.896 19.028-7.003 36.594-.53 42.188 2.489.88.103.056-1.202.056-1.202z" fill="#762c6c"/></g><g><path d="m166.289 129.067s-.823 1.305.057 1.202c5.594-3.019 23.159-9.492 42.188-2.489 3.17-4.297.615-8.896.615-8.896-6.623-6.478-40.543-5.88-42.86 10.183z" fill="#762c6c"/></g></g><g><g><path d="m207.417 175.234c0 5.52-9.852 9.997-22.008 9.997-12.152 0-22.004-4.477-22.004-9.997 0-5.524 9.852-10.001 22.004-10.001 12.156 0 22.008 4.477 22.008 10.001z" fill="#f6afa8"/></g><g><path d="m288.538 175.234c0 5.52-9.852 9.997-22.007 9.997-12.152 0-22.004-4.477-22.004-9.997 0-5.524 9.852-10.001 22.004-10.001 12.156 0 22.007 4.477 22.007 10.001z" fill="#f6afa8"/></g></g><g><g><ellipse cx="189.844" cy="149.304" fill="#2a2d6b" rx="7.237" ry="13.631"/></g><g><ellipse cx="262.098" cy="149.304" fill="#2a2d6b" rx="7.235" ry="13.631"/></g></g><g><path d="m227.84 204.18c-.343 0-.693-.066-1.03-.205-5.838-2.401-9.017-5.099-10-8.49-1.299-4.474 1.549-8.505 4.566-12.774 1.889-2.672 3.842-5.436 4.792-8.327.467-1.423 2.005-2.196 3.424-1.731 1.425.468 2.2 2.002 1.731 3.426-1.203 3.665-3.492 6.906-5.514 9.766-2.242 3.17-4.357 6.165-3.788 8.127.327 1.122 1.779 2.898 6.852 4.984 1.387.571 2.048 2.156 1.477 3.542-.431 1.047-1.444 1.682-2.51 1.682z" fill="#e9837b"/></g><g><path d="m226.565 223.697c-12.847 0-22.294-6.362-22.435-6.459-1.233-.851-1.545-2.541-.694-3.775.852-1.232 2.54-1.542 3.77-.697.746.51 18.506 12.337 37.586-.039 1.255-.814 2.935-.459 3.755.799.814 1.258.457 2.938-.801 3.754-7.417 4.811-14.728 6.417-21.181 6.417z" fill="#e9837b"/></g></g></g></svg>