<svg id="Capa_1" enable-background="new 0 0 453.54 453.54" height="512" viewBox="0 0 453.54 453.54" width="512" xmlns="http://www.w3.org/2000/svg"><g><g><path d="m419.644 453.542c1.783-48.195-28.569-66.731-28.569-66.731l-127.88-72.292h-72.854l-127.875 72.292s-30.353 18.536-28.569 66.731z" fill="#ba6b4b"/></g><g><path d="m181.246 323.87h91.048c-20.173-10.894-14.737-52.771-14.737-52.771h-61.574c-.001-.001 5.436 41.877-14.737 52.771z" fill="#ba6b4b"/></g><g><path d="m194.721 302.582c21.753-2.484 43.044-9.775 62.18-20.555.074-6.429.655-10.929.655-10.929h-61.574s2.136 16.502-1.261 31.484z" fill="#b05844"/></g><g><g><path d="m332.971 177.801c-1.917 14.813-10.299 25.812-18.722 24.567-8.423-1.246-13.697-14.263-11.781-29.076 1.917-14.813 10.298-25.813 18.722-24.567 8.423 1.245 13.696 14.262 11.781 29.076z" fill="#b05844"/></g><g><g><path d="m314.13 191.37c-1.142 0-2.181-.776-2.467-1.935-2.099-8.5-3.053-18.573 5.789-28.83.918-1.065 2.521-1.181 3.586-.266 1.063.917 1.183 2.523.266 3.586-7.676 8.904-6.452 17.207-4.703 24.291.336 1.363-.495 2.741-1.859 3.077-.206.052-.411.077-.612.077z" fill="#853d30"/></g><g><path d="m322.677 176.607c-.157 0-.316-.015-.478-.045-4.081-.773-8.285-.006-8.328 0-1.384.254-2.708-.65-2.968-2.028s.645-2.707 2.022-2.968c.209-.04 5.168-.962 10.223 0 1.38.261 2.286 1.592 2.023 2.972-.231 1.219-1.297 2.069-2.494 2.069z" fill="#853d30"/></g></g></g><g><g><path d="m120.569 177.801c1.917 14.813 10.298 25.812 18.721 24.567 8.423-1.246 13.697-14.263 11.782-29.076-1.917-14.813-10.298-25.813-18.721-24.567-8.423 1.245-13.698 14.262-11.782 29.076z" fill="#b05844"/></g><g><g><path d="m139.409 191.37c-.202 0-.406-.024-.611-.076-1.364-.336-2.196-1.714-1.859-3.077 1.749-7.084 2.972-15.387-4.704-24.291-.917-1.063-.798-2.669.266-3.586 1.062-.917 2.668-.8 3.587.266 8.842 10.256 7.887 20.33 5.788 28.83-.286 1.158-1.324 1.934-2.467 1.934z" fill="#853d30"/></g><g><path d="m140.143 176.607c-.155 0-.314-.015-.473-.045-.073-.013-4.26-.771-8.329 0-1.376.267-2.71-.645-2.973-2.024-.262-1.38.644-2.711 2.024-2.972 5.052-.963 10.015-.041 10.223 0 1.379.262 2.286 1.593 2.023 2.972-.231 1.219-1.298 2.069-2.495 2.069z" fill="#853d30"/></g></g></g><g><path d="m312.081 142.308c-1.51-42.26-27.446-94.464-80.627-94.178h-5.433-5.434c-53.182-.287-79.117 51.918-80.627 94.178-1.519 42.475 11.504 91.461 37.958 117.513 12.402 12.212 31.216 18.086 48.104 18.379 16.886-.293 35.7-6.167 48.102-18.379 26.453-26.052 39.475-75.039 37.957-117.513z" fill="#ba6b4b"/></g><g><path d="m296.377 107.804c2.265 17.053 8.195 40.824 13.947 65.206 0 0 35.799-129.814-55.427-137.733 0 0-14.301-2.395-29.192-.954-14.893-1.441-29.193.954-29.193.954-91.227 7.919-55.428 137.733-55.428 137.733 5.272-14.249 13.183-39.677 17.865-67.759 0 0 19.4-27.293 67.821-26.164 0-.001 54.426-.566 69.607 28.717z" fill="#2a2d6b"/></g><g><path d="m162.543 46.877s23.695-13.684 18.665-30.92c0 0 15.912 0 19.477 3.831 0 0 2.366-14.682-3.314-19.789 0 0 83.542 22.469 101.27 55.816.001-.001-110.049 23.024-136.098-8.938z" fill="#2a2d6b"/></g><g><path d="m274.539 320.932 116.535 65.878s30.353 18.536 28.569 66.731h-385.746c-1.784-48.195 28.569-66.731 28.569-66.731l116.531-65.878s38.669 54.246 95.542 0z" fill="#707fbd"/></g><g><g><path d="m391.074 386.811-43.947-24.843v91.574h72.517c1.783-48.195-28.57-66.731-28.57-66.731z" fill="#646db2"/></g><g><path d="m106.412 361.966-43.946 24.844s-30.353 18.536-28.569 66.731h72.515z" fill="#646db2"/></g></g><g><g><g><path d="m225.375 239.804c-11.823 0-19.312-6.587-19.423-6.687-1.042-.942-1.123-2.55-.181-3.592.939-1.04 2.543-1.122 3.586-.186.583.517 14.061 12.145 33.667-.257 1.185-.752 2.756-.399 3.508.79.751 1.186.397 2.757-.79 3.508-7.604 4.811-14.516 6.424-20.367 6.424z" fill="#853d30"/></g></g><g><g><path d="m208.635 190.624c0 5.171-9.231 9.366-20.619 9.366s-20.62-4.195-20.62-9.366c0-5.176 9.232-9.371 20.62-9.371s20.619 4.195 20.619 9.371z" fill="#a5513f"/></g><g><path d="m284.644 190.624c0 5.171-9.231 9.366-20.619 9.366-11.387 0-20.62-4.195-20.62-9.366 0-5.176 9.232-9.371 20.62-9.371 11.387-.001 20.619 4.195 20.619 9.371z" fill="#a5513f"/></g></g><g><g><path d="m203.619 142.733c-.251 2.417-2.161 4.038-4.267 3.835-7.733-.754-15.422.521-22.498 3.731-1.93.871-4.259-.045-5.278-2.254-1.016-2.203-.067-5.018 2.202-6.045 8.117-3.684 16.934-5.146 25.804-4.28 2.48.241 4.287 2.6 4.037 5.013z" fill="#2a2d6b"/></g><g><path d="m248.421 142.733c.251 2.417 2.161 4.038 4.267 3.835 7.733-.754 15.422.521 22.497 3.731 1.93.871 4.259-.045 5.277-2.254 1.016-2.203.067-5.018-2.201-6.045-8.117-3.684-16.935-5.146-25.804-4.28-2.478.241-4.286 2.6-4.036 5.013z" fill="#2a2d6b"/></g></g><g><path d="m225.171 220.377c-.323 0-.649-.062-.967-.192-5.469-2.25-8.446-4.778-9.369-7.955-1.217-4.191 1.453-7.969 4.279-11.969 1.77-2.504 3.6-5.093 4.489-7.802.438-1.333 1.874-2.058 3.21-1.622 1.333.438 2.06 1.875 1.622 3.21-1.128 3.433-3.274 6.47-5.168 9.149-2.099 2.971-4.082 5.777-3.548 7.615.306 1.051 1.667 2.715 6.421 4.67 1.298.535 1.917 2.021 1.384 3.319-.404.983-1.353 1.577-2.353 1.577z" fill="#853d30"/></g><g><g><ellipse cx="192.17" cy="168.481" fill="#2a2d6b" rx="6.78" ry="12.771"/></g><g><ellipse cx="259.87" cy="168.481" fill="#2a2d6b" rx="6.78" ry="12.771"/></g></g></g></g></svg>