<svg id="Capa_1" enable-background="new 0 0 453.54 453.54" height="512" viewBox="0 0 453.54 453.54" width="512" xmlns="http://www.w3.org/2000/svg"><g><g><circle cx="227.327" cy="37.327" fill="#4e5da7" r="37.328"/></g><g><path d="m329.635 140.247c-1.817-42.826-33.035-95.727-97.047-95.437h-6.54-6.54c-64.014-.29-95.23 52.611-97.046 95.437-1.829 43.042 13.846 92.684 45.688 119.085 14.926 12.374 37.573 18.326 57.898 18.624 20.326-.298 42.972-6.25 57.898-18.624 31.843-26.402 47.516-76.043 45.689-119.085z" fill="#4e5da7"/></g><g><path d="m412.393 453.542c1.716-46.383-27.496-64.223-27.496-64.223l-123.072-69.574h-70.116l-123.068 69.574s-29.212 17.84-27.494 64.223z" fill="#f9c5b8"/></g><g><path d="m182.957 328.744h87.625c-19.415-10.484-14.183-50.788-14.183-50.788h-59.26s5.233 40.303-14.182 50.788z" fill="#f9c5b8"/></g><g><path d="m195.925 308.256c20.937-2.391 41.427-9.408 59.843-19.782.072-6.188.631-10.519.631-10.519h-59.26c0 .001 2.056 15.883-1.214 30.301z" fill="#f5a997"/></g><g><g><path d="m328.979 188.166c-1.845 14.256-9.912 24.842-18.018 23.644s-13.182-13.727-11.339-27.983c1.845-14.256 9.912-24.842 18.018-23.644 8.108 1.197 13.182 13.726 11.339 27.983z" fill="#f5a997"/></g><g><g><path d="m310.846 201.225c-1.1 0-2.099-.747-2.374-1.862-2.021-8.18-2.939-17.875 5.571-27.746.883-1.024 2.428-1.137 3.452-.255 1.023.882 1.138 2.428.255 3.451-7.388 8.569-6.21 16.56-4.527 23.377.324 1.313-.477 2.639-1.789 2.962-.197.049-.394.073-.588.073z" fill="#e9837b"/></g><g><path d="m319.071 187.017c-.151 0-.304-.015-.458-.044-3.926-.744-7.974-.006-8.016.001-1.334.244-2.606-.626-2.857-1.952-.249-1.327.621-2.605 1.947-2.857.201-.038 4.974-.925 9.838 0 1.328.252 2.2 1.533 1.948 2.861-.223 1.173-1.249 1.991-2.402 1.991z" fill="#e9837b"/></g></g></g><g><g><path d="m124.56 188.166c1.845 14.256 9.912 24.842 18.018 23.644s13.183-13.727 11.339-27.983c-1.845-14.256-9.912-24.842-18.018-23.644s-13.182 13.726-11.339 27.983z" fill="#f5a997"/></g><g><g><path d="m142.692 201.225c-.194 0-.391-.023-.588-.073-1.313-.323-2.113-1.649-1.789-2.962 1.683-6.817 2.861-14.808-4.527-23.377-.883-1.023-.768-2.569.255-3.451 1.021-.882 2.567-.77 3.452.255 8.51 9.871 7.591 19.566 5.571 27.746-.274 1.115-1.274 1.862-2.374 1.862z" fill="#e9837b"/></g><g><path d="m143.399 187.017c-.149 0-.303-.015-.456-.043-.069-.013-4.103-.741-8.015-.001-1.321.257-2.608-.62-2.861-1.947-.252-1.328.62-2.608 1.948-2.861 4.863-.925 9.638-.038 9.838 0 1.328.253 2.2 1.533 1.948 2.861-.223 1.173-1.249 1.991-2.402 1.991z" fill="#e9837b"/></g></g></g><g><path d="m308.874 154.006c-1.453-40.671-26.414-90.913-77.596-90.638h-5.229-5.229c-51.184-.275-76.143 49.967-77.596 90.638-1.463 40.878 11.071 88.023 36.531 113.096 11.935 11.753 30.042 17.406 46.294 17.688 16.252-.282 34.359-5.936 46.294-17.688 25.459-25.072 37.991-72.218 36.531-113.096z" fill="#f9c5b8"/></g><g><path d="m318.412 163.537c-11.604.772-4.944 28.323-13.335 34.084-1.096-21.971-1.337-40.338-5.285-54.542-.469-7.75-10.684-12.728-10.684-12.728h-32.017l-3.671-15.499-3.037 15.724h-47.743l-2.645-9.682-4.407 9.865h-30.88c-17.13.815-15.733 21.74-15.733 21.74.029 43.971-3.123 45.249-3.123 45.249-4.702-17.167-2.457-28.219-9.542-35.631 0 0-32.841-117.085 96.815-118.079.002.001 110.105-.401 85.287 119.499z" fill="#4e5da7"/></g><g><path d="m106.214 453.542c1.024-27.678 38.9-76.744 31.428-103.231l21.121-11.94s46.451 26.656 136.05 0l21.083 11.919c-7.472 26.487 30.442 75.575 31.466 103.253" fill="#aa5f98"/></g><g><g><path d="m199.461 235.862c3.727 11.122 14.211 19.146 26.588 19.146 12.376 0 22.859-8.023 26.586-19.146z" fill="#fff"/></g><g><g><path d="m209.316 202.579c0 4.977-8.884 9.014-19.844 9.014-10.959 0-19.843-4.037-19.843-9.014 0-4.981 8.884-9.019 19.843-9.019 10.961 0 19.844 4.037 19.844 9.019z" fill="#f6afa8"/></g><g><path d="m282.467 202.579c0 4.977-8.884 9.014-19.843 9.014-10.96 0-19.844-4.037-19.844-9.014 0-4.981 8.884-9.019 19.844-9.019 10.959 0 19.843 4.037 19.843 9.019z" fill="#f6afa8"/></g></g><g><g><ellipse cx="193.471" cy="179.196" fill="#2a2d6b" rx="6.525" ry="12.292"/></g><g><ellipse cx="258.626" cy="179.196" fill="#2a2d6b" rx="6.525" ry="12.292"/></g></g><g><path d="m227.735 228.68c-.311 0-.625-.06-.931-.186-5.263-2.165-8.128-4.598-9.017-7.655-1.171-4.034 1.398-7.67 4.118-11.519 1.703-2.41 3.465-4.901 4.32-7.509.422-1.284 1.802-1.982 3.089-1.562 1.283.422 1.982 1.805 1.561 3.089-1.085 3.305-3.151 6.228-4.974 8.806-2.02 2.859-3.929 5.56-3.415 7.329.294 1.012 1.604 2.613 6.18 4.494 1.25.515 1.846 1.945 1.332 3.195-.388.946-1.301 1.518-2.263 1.518z" fill="#e9837b"/></g><g><g><g><path d="m279.647 160.195c-10.399-14.773-32.182-12.517-38.154-6.675 0 0-1.157 5.572.061 5.515 17.159-6.314 32.996-.479 38.041 2.244.792.093.052-1.084.052-1.084z" fill="#4e5da7"/></g></g><g><g><path d="m172.449 160.195c10.399-14.773 32.182-12.517 38.154-6.675 0 0 1.157 5.572-.061 5.515-17.159-6.314-32.996-.479-38.041 2.244-.791.093-.052-1.084-.052-1.084z" fill="#4e5da7"/></g></g></g></g></g></svg>