<svg id="Capa_1" enable-background="new 0 0 453.54 453.54" height="512" viewBox="0 0 453.54 453.54" width="512" xmlns="http://www.w3.org/2000/svg"><g><g><path d="m430.556 453.542c1.884-50.921-30.186-70.506-30.186-70.506l-135.115-76.382h-76.975l-135.11 76.381s-32.07 19.585-30.186 70.506h407.572z" fill="#f9c5b8"/></g><g><path d="m178.67 316.533h96.199c-21.314-11.51-15.571-55.757-15.571-55.757h-65.058c.001 0 5.745 44.247-15.57 55.757z" fill="#f9c5b8"/></g><g><path d="m192.908 294.042c22.983-2.625 45.479-10.329 65.698-21.718.079-6.792.692-11.547.692-11.547h-65.058c.001-.001 2.258 17.435-1.332 33.265z" fill="#f5a997"/></g><g><g><path d="m338.979 162.201c-2.025 15.65-10.881 27.272-19.78 25.957-8.9-1.316-14.472-15.07-12.449-30.722 2.025-15.651 10.881-27.273 19.781-25.958 8.902 1.317 14.472 15.071 12.448 30.723z" fill="#f5a997"/></g><g><g><path d="m319.073 176.538c-1.207 0-2.305-.82-2.606-2.044-2.218-8.981-3.226-19.624 6.116-30.461.97-1.125 2.665-1.248 3.79-.281 1.124.969 1.25 2.666.281 3.79-8.111 9.408-6.818 18.18-4.97 25.665.356 1.44-.523 2.896-1.964 3.252-.218.052-.434.079-.647.079z" fill="#e9837b"/></g><g><path d="m328.103 160.94c-.166 0-.334-.016-.503-.048-4.312-.817-8.753-.006-8.8.001-1.461.269-2.862-.688-3.136-2.144-.273-1.456.681-2.86 2.138-3.136.219-.042 5.462-1.016 10.8 0 1.458.276 2.416 1.683 2.139 3.141-.246 1.288-1.373 2.186-2.638 2.186z" fill="#e9837b"/></g></g></g><g><g><path d="m114.561 162.201c2.025 15.65 10.881 27.272 19.781 25.957 8.899-1.316 14.472-15.07 12.448-30.722-2.025-15.651-10.881-27.273-19.781-25.958-8.9 1.317-14.472 15.071-12.448 30.723z" fill="#f5a997"/></g><g><g><path d="m134.467 176.538c-.214 0-.43-.025-.646-.08-1.441-.355-2.32-1.812-1.964-3.252 1.848-7.484 3.141-16.257-4.97-25.665-.969-1.124-.843-2.82.281-3.79 1.121-.968 2.819-.845 3.79.281 9.342 10.837 8.333 21.48 6.116 30.461-.303 1.225-1.4 2.045-2.607 2.045z" fill="#e9837b"/></g><g><path d="m125.438 160.94c-1.266 0-2.392-.898-2.637-2.187-.277-1.458.681-2.864 2.139-3.141 5.342-1.016 10.581-.042 10.801 0 1.458.277 2.416 1.684 2.138 3.141-.277 1.456-1.68 2.409-3.138 2.139-.073-.014-4.501-.814-8.799-.001-.17.033-.338.049-.504.049z" fill="#e9837b"/></g></g></g><g><path d="m316.908 124.699c-1.595-44.65-28.999-99.809-85.188-99.506h-5.741-5.742c-56.19-.303-83.592 54.855-85.188 99.506-1.604 44.877 12.156 96.635 40.105 124.161 13.104 12.903 32.983 19.109 50.826 19.419 17.841-.311 37.72-6.516 50.824-19.419 27.949-27.526 41.708-79.283 40.104-124.161z" fill="#f9c5b8"/></g><g><path d="m302.673 132.984s2.384 20.519 3.558 38.882h6.841c3.283-18.502 6.089-39.506 14.354-40.086 0 0 17-115.141-95.838-115.141v46.568c3.967.496 52.006 14.572 55.665 16.12 9.283 3.928 13.869 44.447 15.42 53.657z" fill="#2a2e6d"/></g><g><path d="m146.219 171.866c1.139-18.363 2.95-38.882 2.95-38.882 1.552-9.21 6.138-49.729 15.421-53.658 3.658-1.548 16.262-10.217 20.229-10.713 9.162-31.012-17.798-40.02-17.798-40.02-58.816 27.609-42.605 103.186-42.605 103.186 8.266.58 11.071 21.584 14.354 40.086h7.449z" fill="#2a2e6d"/></g><g><path d="m265.255 306.653 135.115 76.382s32.07 19.585 30.186 70.506h-407.572c-1.884-50.921 30.186-70.506 30.186-70.506l135.11-76.382s40.793 25.047 76.975 0z" fill="#9caad8"/></g><g><path d="m265.255 306.653 135.115 76.382s32.07 19.585 30.186 70.506h-407.572c-1.884-50.921 30.186-70.506 30.186-70.506l135.11-76.382s40.793 25.047 76.975 0z" fill="#646db2"/></g><g><path d="m413.602 395.751c-6.881-8.802-13.232-12.716-13.232-12.716l-135.115-76.382c-36.182 25.046-76.975 0-76.975 0l-135.11 76.382s-6.351 3.914-13.232 12.716z" fill="#7f6daf"/></g><g><g><g><path d="m207.609 175.749c0 5.464-9.753 9.896-21.785 9.896s-21.787-4.432-21.787-9.896c0-5.469 9.754-9.901 21.787-9.901s21.785 4.432 21.785 9.901z" fill="#f6afa8"/></g><g><path d="m287.918 175.749c0 5.464-9.753 9.896-21.785 9.896s-21.787-4.432-21.787-9.896c0-5.469 9.755-9.901 21.787-9.901s21.785 4.432 21.785 9.901z" fill="#f6afa8"/></g></g><g><g><path d="m202.309 125.148c-.265 2.555-2.282 4.266-4.508 4.053-8.171-.796-16.294.55-23.77 3.942-2.039.92-4.5-.048-5.576-2.381-1.073-2.327-.071-5.301 2.326-6.388 8.576-3.892 17.893-5.437 27.264-4.521 2.619.254 4.529 2.746 4.264 5.295z" fill="#2a2e6d"/></g><g><path d="m249.646 125.148c.265 2.555 2.283 4.266 4.508 4.053 8.171-.796 16.295.55 23.771 3.942 2.039.92 4.5-.048 5.576-2.381 1.073-2.327.071-5.301-2.326-6.388-8.576-3.892-17.893-5.437-27.264-4.521-2.619.254-4.529 2.746-4.265 5.295z" fill="#2a2e6d"/></g></g><g><path d="m225.979 227.759c-10.983 0-20.467-3.676-24.161-9.365-.807-1.245-.454-2.909.791-3.717 1.246-.806 2.91-.452 3.717.791 2.163 3.332 9.236 6.917 19.654 6.917 10.416 0 17.489-3.585 19.653-6.917.808-1.243 2.473-1.598 3.716-.79 1.244.808 1.598 2.472.79 3.716-3.696 5.689-13.179 9.365-24.16 9.365z" fill="#e9837b"/></g><g><path d="m225.081 207.186c-.341 0-.687-.065-1.021-.203-5.778-2.377-8.924-5.048-9.899-8.405-1.286-4.429 1.535-8.42 4.521-12.646 1.87-2.646 3.804-5.381 4.743-8.244.463-1.409 1.981-2.174 3.392-1.714 1.409.463 2.177 1.982 1.714 3.392-1.192 3.627-3.459 6.836-5.46 9.667-2.218 3.139-4.313 6.104-3.749 8.046.322 1.111 1.761 2.869 6.784 4.935 1.372.565 2.026 2.135 1.462 3.507-.428 1.037-1.43 1.665-2.487 1.665z" fill="#e9837b"/></g><g><g><ellipse cx="190.213" cy="152.354" fill="#2a2d6b" rx="7.164" ry="13.494"/></g><g><ellipse cx="261.743" cy="152.354" fill="#2a2d6b" rx="7.164" ry="13.494"/></g></g></g><g><path d="m328.338 85.294c-72.807 13.134-91.972-4.851-91.972-4.851l13.256 14.648c-60.774-10.503-76.738-40.842-76.738-40.842-5.501-7.294-4.859-25.656-4.859-25.656s2.912-35.24 81.597-27.479c0 .001 67.412 10.15 78.716 84.18z" fill="#2a2e6d"/></g><g><g><path d="m400.37 383.035-46.434-26.249v96.755h76.62c1.883-50.921-30.186-70.506-30.186-70.506z" fill="#575f99"/></g><g><path d="m99.602 356.786-46.432 26.25s-32.07 19.585-30.186 70.506h76.618z" fill="#575f99"/></g></g></g></svg>