<svg id="Capa_1" enable-background="new 0 0 453.54 453.54" height="512" viewBox="0 0 453.54 453.54" width="512" xmlns="http://www.w3.org/2000/svg"><g><g><path d="m415.724 453.542c1.748-47.216-27.99-65.375-27.99-65.375l-125.281-70.822h-71.371l-125.276 70.822s-29.736 18.159-27.988 65.375z" fill="#f9c5b8"/></g><g><path d="m182.171 326.505h89.199c-19.764-10.673-14.438-51.699-14.438-51.699h-60.324s5.327 41.027-14.437 51.699z" fill="#f9c5b8"/></g><g><path d="m195.372 305.65c21.311-2.434 42.17-9.576 60.918-20.137.072-6.299.643-10.707.643-10.707h-60.324c-.001 0 2.091 16.167-1.237 30.844z" fill="#f5a997"/></g><g><g><path d="m330.812 183.405c-1.877 14.512-10.088 25.287-18.338 24.067-8.252-1.22-13.42-13.973-11.545-28.485 1.879-14.512 10.092-25.288 18.342-24.068 8.251 1.22 13.419 13.973 11.541 28.486z" fill="#f5a997"/></g><g><g><path d="m312.354 196.698c-1.119 0-2.137-.76-2.416-1.895-2.057-8.328-2.992-18.196 5.672-28.244.896-1.039 2.473-1.158 3.514-.26s1.158 2.472.26 3.514c-7.521 8.723-6.322 16.856-4.609 23.797.33 1.335-.484 2.686-1.822 3.015-.2.048-.401.073-.599.073z" fill="#e9837b"/></g><g><path d="m320.728 182.236c-.154 0-.311-.015-.469-.045-3.996-.757-8.117-.006-8.158.001-1.357.252-2.652-.639-2.906-1.987-.256-1.351.631-2.652 1.979-2.908.203-.039 5.063-.942 10.018 0 1.35.256 2.238 1.561 1.98 2.912-.228 1.194-1.273 2.027-2.444 2.027z" fill="#e9837b"/></g></g></g><g><g><path d="m122.728 183.405c1.879 14.512 10.088 25.287 18.34 24.067s13.418-13.973 11.545-28.485c-1.879-14.512-10.092-25.288-18.344-24.068s-13.418 13.973-11.541 28.486z" fill="#f5a997"/></g><g><g><path d="m141.187 196.698c-.199 0-.4-.023-.6-.073-1.336-.329-2.152-1.68-1.82-3.015 1.713-6.94 2.91-15.074-4.609-23.797-.898-1.042-.781-2.615.26-3.514 1.043-.9 2.617-.781 3.512.26 8.664 10.048 7.73 19.916 5.674 28.244-.283 1.135-1.298 1.895-2.417 1.895z" fill="#e9837b"/></g><g><path d="m132.812 182.236c-1.172 0-2.217-.833-2.443-2.027-.256-1.352.631-2.656 1.982-2.912 4.955-.941 9.813-.039 10.016 0 1.352.257 2.238 1.562 1.982 2.912-.256 1.352-1.574 2.232-2.91 1.983-.07-.013-4.172-.755-8.158-.001-.157.03-.315.045-.469.045z" fill="#e9837b"/></g></g></g><g><path d="m310.349 148.632c-1.48-41.4-26.891-92.544-78.988-92.264h-5.324-5.324c-52.1-.28-77.508 50.863-78.99 92.264-1.484 41.611 11.273 89.603 37.189 115.125 12.15 11.964 30.58 17.718 47.125 18.006 16.543-.288 34.973-6.042 47.123-18.006 25.917-25.522 38.673-73.513 37.189-115.125z" fill="#f9c5b8"/></g><g><g><ellipse cx="188.804" cy="190.002" fill="#f6afa8" rx="20.201" ry="9.176"/></g><g><ellipse cx="263.267" cy="190.002" fill="#f6afa8" rx="20.201" ry="9.176"/></g></g><g><path d="m289.294 47.602c43.594 32.385 30.762 107.471 30.762 107.471-11.809.858-4.842 21.872-12.76 35.298-5.994-12.88-3.514-42.563-3.514-42.563-1.164-7.072-5.68-13.066-8.637-19.425-3.039-6.535-.131.06-3.039-6.535-3.525-7.998-5.371-23.375-8.639-31.482-66.441 28.091-114.498 0-114.498 0-3.27 8.107-5.113 23.484-8.639 31.482-2.91 6.595 0 0-3.039 6.535-2.959 6.358-7.477 12.353-8.641 19.425 0 0 2.484 29.683-3.51 42.563-7.918-13.426-.951-34.439-12.76-35.298 0 0-12.832-75.086 30.762-107.471 0 0 16.545-14.389 53.078-13.559 0 0 38.047-3.321 36.877-24.911 0 0 9.219 7.41 6.098 20.728 0 0 18.473-13.254 16.813-29.861.001 0 23.251 26.288 13.286 47.603z" fill="#3f5aa6"/></g><g><g><path d="m199.515 176.244c-1.375 0-2.492-1.114-2.492-2.491 0-4.866-2.23-8.642-4.148-8.642-1.92 0-4.152 3.775-4.152 8.642 0 1.377-1.115 2.491-2.49 2.491s-2.49-1.114-2.49-2.491c0-7.639 4.012-13.624 9.133-13.624s9.131 5.985 9.131 13.624c-.002 1.376-1.117 2.491-2.492 2.491z" fill="#2a2d6b"/></g><g><path d="m265.839 176.244c-1.375 0-2.49-1.114-2.49-2.491 0-4.866-2.232-8.642-4.152-8.642-1.918 0-4.148 3.775-4.148 8.642 0 1.377-1.115 2.491-2.49 2.491-1.377 0-2.492-1.114-2.492-2.491 0-7.639 4.012-13.624 9.131-13.624 5.121 0 9.135 5.985 9.135 13.624-.002 1.376-1.119 2.491-2.494 2.491z" fill="#2a2d6b"/></g></g><g><path d="m297.685 337.26 90.049 50.906s29.738 18.159 27.99 65.375h-377.907c-1.748-47.216 27.988-65.375 27.988-65.375l90.047-50.906s6.453 43.875 70.918 42.769c.001 0 67.403-.285 70.915-42.769z" fill="#382e6a"/></g><g><g><path d="m204.087 149.049c-.242 2.369-2.115 3.956-4.178 3.758-7.576-.738-15.107.51-22.039 3.655-1.893.854-4.176-.044-5.172-2.208-.994-2.157-.066-4.915 2.158-5.923 7.949-3.608 16.588-5.041 25.277-4.192 2.43.236 4.202 2.547 3.954 4.91z" fill="#2a2e6d"/></g><g><path d="m247.979 149.049c.246 2.369 2.119 3.956 4.182 3.758 7.576-.738 15.109.51 22.041 3.655 1.891.854 4.17-.044 5.17-2.208.996-2.157.064-4.915-2.158-5.923-7.949-3.608-16.59-5.041-25.279-4.192-2.428.236-4.198 2.547-3.956 4.91z" fill="#2a2e6d"/></g></g><g><path d="m224.144 213.71c-.314 0-.635-.061-.945-.188-5.357-2.204-8.275-4.681-9.18-7.793-1.191-4.106 1.424-7.808 4.193-11.726 1.734-2.453 3.525-4.989 4.398-7.644.428-1.306 1.84-2.013 3.143-1.59 1.307.43 2.02 1.838 1.59 3.146-1.105 3.363-3.207 6.338-5.063 8.963-2.057 2.911-3.998 5.659-3.477 7.461.301 1.029 1.633 2.659 6.289 4.575 1.273.523 1.881 1.979 1.355 3.251-.393.963-1.323 1.545-2.303 1.545z" fill="#e9837b"/></g><g><path d="m189.89 232.313c4.904-.18 9.586-1.552 14.201-3.127 7.785-2.655 16.725-6.569 25.102-4.431 9.777 2.497 17.643 8.825 28.285 7.549 5.586-.67 10.57-2.608 15.102-5.37-2.471-1.167-4.658-3.153-6.658-4.869-4.305-3.688-8.148-6.762-13.818-7.931-5.875-1.211-12.092-.752-18.035-.468-2.295.109-4.773.373-7.301.639v-.026h-2.24c-2.527-.267-5.006-.53-7.303-.64-5.941-.283-12.16-.742-18.033.468-5.67 1.17-9.514 4.244-13.818 7.931-2.473 2.12-5.223 4.67-8.449 5.55 3.656 2.996 7.967 4.909 12.965 4.725z" fill="#3f5aa6"/></g><g><path d="m198.972 231.756c3.793 11.321 14.467 19.488 27.064 19.488 12.6 0 23.27-8.167 27.063-19.488z" fill="#fff"/></g></g></svg>