<svg id="Capa_1" enable-background="new 0 0 453.54 453.54" height="512" viewBox="0 0 453.54 453.54" width="512" xmlns="http://www.w3.org/2000/svg"><g><g><path d="m244.277.533c20.37-1.576 38.505.178 57.392 7.318 41.966 15.866 61.409 61.468 66.821 103.085 6.266 48.191-6.159 84.834-17.834 129.815-5.194 20.017-9.607 39.736-7.946 60.671 1.641 20.653 9.556 35.285 13.768 54.486.201.916 2.1 3.093 2.755 3.896-43.88-25.772-66.982-70.183-66.91-119.054.065-44.104 22.361-84.829 12.922-130.071-4.792-22.976-16.513-50.627-41.044-57.357-18.968-5.205-44.504 5.254-60.456-9.72-27.992-26.271 20.965-41.553 40.532-43.069z" fill="#6d3176"/></g><g><path d="m426.759 453.541c1.851-49.975-29.624-69.192-29.624-69.192l-132.598-74.961h-75.541l-132.591 74.961s-31.474 19.218-29.624 69.192z" fill="#f9c5b8"/></g><g><path d="m179.565 319.086h94.409c-20.917-11.298-15.281-54.72-15.281-54.72h-63.848c.001 0 5.638 43.422-15.28 54.72z" fill="#f9c5b8"/></g><g><path d="m193.538 297.012c22.555-2.575 44.633-10.135 64.476-21.313.076-6.667.68-11.333.68-11.333h-63.848s2.215 17.111-1.308 32.646z" fill="#f5a997"/></g><g><g><path d="m336.889 167.626c-1.988 15.36-10.677 26.765-19.411 25.474-8.733-1.291-14.202-14.79-12.218-30.149 1.988-15.359 10.681-26.764 19.414-25.473 8.734 1.291 14.202 14.789 12.215 30.148z" fill="#f5a997"/></g><g><g><path d="m317.353 181.695c-1.185 0-2.262-.804-2.558-2.005-2.178-8.813-3.166-19.258 6.003-29.894.952-1.103 2.618-1.224 3.719-.274 1.103.951 1.227 2.614.275 3.718-7.961 9.233-6.692 17.842-4.879 25.187.349 1.413-.513 2.843-1.927 3.191-.212.053-.424.077-.633.077z" fill="#e9837b"/></g><g><path d="m326.214 166.391c-.163 0-.328-.016-.494-.047-4.229-.805-8.591-.007-8.636 0-1.438.269-2.809-.673-3.078-2.103s.669-2.807 2.098-3.077c.216-.042 5.359-.994 10.6 0 1.431.271 2.371 1.651 2.099 3.082-.241 1.264-1.346 2.145-2.589 2.145z" fill="#e9837b"/></g></g></g><g><g><path d="m116.651 167.626c1.988 15.36 10.677 26.765 19.411 25.474 8.733-1.291 14.203-14.79 12.218-30.149-1.988-15.359-10.68-26.764-19.414-25.473s-14.202 14.789-12.215 30.148z" fill="#f5a997"/></g><g><g><path d="m136.187 181.695c-.208 0-.421-.024-.634-.077-1.414-.349-2.276-1.778-1.927-3.191 1.813-7.345 3.082-15.953-4.879-25.187-.951-1.104-.828-2.767.275-3.718 1.1-.949 2.766-.829 3.719.274 9.17 10.636 8.181 21.081 6.003 29.894-.295 1.202-1.372 2.005-2.557 2.005z" fill="#e9837b"/></g><g><path d="m127.326 166.391c-1.242 0-2.348-.881-2.588-2.145-.272-1.431.668-2.812 2.099-3.082 5.242-.994 10.384-.042 10.6 0 1.431.271 2.371 1.651 2.099 3.082-.272 1.429-1.651 2.374-3.08 2.098-.072-.012-4.417-.801-8.635 0-.167.031-.332.047-.495.047z" fill="#e9837b"/></g></g></g><g><path d="m315.229 130.824c-1.565-43.819-28.46-97.948-83.602-97.653h-5.634-5.637c-55.142-.295-82.033 53.834-83.602 97.653-1.572 44.042 11.93 94.835 39.36 121.85 12.86 12.661 32.367 18.751 49.879 19.057 17.509-.306 37.015-6.396 49.875-19.057 27.432-27.015 40.934-77.808 39.361-121.85z" fill="#f9c5b8"/></g><g><path d="m142.956 124.634c.031 51.813-3.364 53.319-3.364 53.319" fill="#2a2e6d"/></g><g><path d="m311.137 181.193c9.043-6.608 1.868-38.216 14.368-39.102 0 0 31.604-78.408-32.48-119.735-31.931-17.36-59.405-17.36-59.405-17.36-139.691 1.143-104.31 135.468-104.31 135.468 7.635 8.504 5.218 21.182 10.282 40.878 3.658-7.903 9.097-51.102 9.097-51.102 3.05-34.173 23.431-68.354 58.865-74.778 22.097-4.007 49.578-1.648 67.786 12.489 16.413 12.747 23.623 33.656 27.375 53.358 1.201 6.308 10.412 58.431 8.422 59.884z" fill="#793784"/></g><g><g><g><path d="m283.975 138.301c-2.252-15.603-35.206-16.187-41.64-9.891 0 0-2.482 4.467.598 8.642 18.487-6.805 35.553-.515 40.987 2.417.855.102.055-1.168.055-1.168z" fill="#793784"/></g><g><path d="m168.01 138.301s-.8 1.271.055 1.168c5.435-2.932 22.5-9.222 40.987-2.417 3.079-4.175.597-8.642.597-8.642-6.433-6.296-39.387-5.712-41.639 9.891z" fill="#793784"/></g></g><g><g><ellipse cx="186.588" cy="183.154" fill="#f6afa8" rx="21.379" ry="9.712"/></g><g><ellipse cx="265.4" cy="183.154" fill="#f6afa8" rx="21.379" ry="9.712"/></g></g><g><g><path d="m197.925 157.962c0 7.316-3.148 13.245-7.031 13.245s-7.031-5.929-7.031-13.245c0-7.312 3.148-13.241 7.031-13.241s7.031 5.929 7.031 13.241z" fill="#2a2d6b"/></g><g><path d="m268.121 157.962c0 7.316-3.148 13.245-7.027 13.245-3.883 0-7.031-5.929-7.031-13.245 0-7.312 3.148-13.241 7.031-13.241 3.879 0 7.027 5.929 7.027 13.241z" fill="#2a2d6b"/></g></g><g><path d="m227.81 211.277c-.335 0-.675-.063-1.002-.199-5.671-2.332-8.759-4.953-9.715-8.249-1.262-4.347 1.506-8.262 4.437-12.409 1.835-2.595 3.733-5.28 4.655-8.088.455-1.384 1.941-2.141 3.328-1.683 1.383.453 2.136 1.943 1.682 3.327-1.17 3.562-3.395 6.71-5.359 9.488-2.177 3.08-4.233 5.987-3.679 7.895.316 1.09 1.729 2.815 6.657 4.845 1.347.553 1.99 2.094 1.435 3.441-.419 1.018-1.403 1.632-2.439 1.632z" fill="#e9837b"/></g><g><path d="m226.571 230.24c-12.481 0-21.659-6.182-21.796-6.275-1.199-.828-1.5-2.471-.674-3.669.824-1.196 2.463-1.503 3.663-.676.724.494 17.973 11.99 36.516-.04 1.224-.789 2.855-.44 3.646.778.793 1.222.445 2.854-.777 3.647-7.207 4.675-14.309 6.235-20.578 6.235z" fill="#e9837b"/></g></g><g><g><circle cx="318.589" cy="185.063" fill="#fff" r="6.003"/></g><g><circle cx="133.396" cy="185.063" fill="#fff" r="6.003"/></g></g><g><path d="m264.537 309.388 132.598 74.961s31.475 19.218 29.624 69.192h-399.978c-1.85-49.975 29.624-69.192 29.624-69.192l132.591-74.961s33.695 39.054 75.541 0z" fill="#ca98c5"/></g><g><path d="m426.764 453.541h-399.988c-1.845-49.975 29.636-69.186 29.636-69.186l14.537-8.226 4.235-2.39 113.813-64.353s33.697 39.058 75.548 0l113.813 64.353 4.236 2.39 14.536 8.226c-.002 0 31.48 19.211 29.634 69.186z" fill="#ca98c5"/></g><g><g><g><circle cx="188.965" cy="319.086" fill="#ba80b6" r="5.581"/></g><g><circle cx="264.577" cy="319.086" fill="#ba80b6" r="5.581"/></g></g><g><g><circle cx="132.254" cy="348.844" fill="#ba80b6" r="5.581"/></g><g><circle cx="170.06" cy="348.844" fill="#ba80b6" r="5.581"/></g><g><circle cx="207.867" cy="348.844" fill="#ba80b6" r="5.581"/></g><g><circle cx="245.673" cy="348.844" fill="#ba80b6" r="5.581"/></g><g><circle cx="283.48" cy="348.844" fill="#ba80b6" r="5.581"/></g><g><circle cx="321.286" cy="348.844" fill="#ba80b6" r="5.581"/></g></g><g><g><path d="m81.126 379.312c0 3.076-2.498 5.572-5.59 5.572-3.076 0-5.572-2.496-5.572-5.572 0-1.177.369-2.269.985-3.182l4.235-2.39c.124-.018.23-.018.352-.018 3.092.001 5.59 2.514 5.59 5.59z" fill="#ba80b6"/></g><g><circle cx="113.351" cy="379.312" fill="#ba80b6" r="5.581"/></g><g><circle cx="151.158" cy="379.312" fill="#ba80b6" r="5.581"/></g><g><circle cx="188.965" cy="379.312" fill="#ba80b6" r="5.581"/></g><g><circle cx="226.771" cy="379.312" fill="#ba80b6" r="5.581"/></g><g><circle cx="264.577" cy="379.312" fill="#ba80b6" r="5.581"/></g><g><circle cx="302.384" cy="379.312" fill="#ba80b6" r="5.581"/></g><g><circle cx="340.191" cy="379.312" fill="#ba80b6" r="5.581"/></g><g><path d="m383.577 379.312c0 3.076-2.496 5.572-5.572 5.572-3.093 0-5.589-2.496-5.589-5.572 0-3.075 2.496-5.589 5.589-5.589.124 0 .228 0 .352.018l4.236 2.39c.615.912.984 2.004.984 3.181z" fill="#ba80b6"/></g></g><g><g><circle cx="56.641" cy="409.069" fill="#ba80b6" r="5.581"/></g><g><circle cx="94.447" cy="409.069" fill="#ba80b6" r="5.581"/></g><g><circle cx="132.254" cy="409.069" fill="#ba80b6" r="5.581"/></g><g><circle cx="170.06" cy="409.069" fill="#ba80b6" r="5.581"/></g><g><circle cx="207.867" cy="409.069" fill="#ba80b6" r="5.581"/></g><g><circle cx="245.673" cy="409.069" fill="#ba80b6" r="5.581"/></g><g><circle cx="283.48" cy="409.069" fill="#ba80b6" r="5.581"/></g><g><circle cx="321.286" cy="409.069" fill="#ba80b6" r="5.581"/></g><g><circle cx="359.093" cy="409.069" fill="#ba80b6" r="5.581"/></g><g><circle cx="396.899" cy="409.069" fill="#ba80b6" r="5.581"/></g></g><g><g><circle cx="37.739" cy="439.538" fill="#ba80b6" r="5.581"/></g><g><circle cx="75.545" cy="439.538" fill="#ba80b6" r="5.581"/></g><g><circle cx="113.351" cy="439.538" fill="#ba80b6" r="5.581"/></g><g><circle cx="151.158" cy="439.538" fill="#ba80b6" r="5.581"/></g><g><circle cx="188.965" cy="439.538" fill="#ba80b6" r="5.581"/></g><g><circle cx="226.771" cy="439.538" fill="#ba80b6" r="5.581"/></g><g><circle cx="264.577" cy="439.538" fill="#ba80b6" r="5.581"/></g><g><circle cx="302.384" cy="439.538" fill="#ba80b6" r="5.581"/></g><g><circle cx="340.191" cy="439.538" fill="#ba80b6" r="5.581"/></g><g><circle cx="377.997" cy="439.538" fill="#ba80b6" r="5.581"/></g><g><circle cx="415.803" cy="439.538" fill="#ba80b6" r="5.581"/></g></g></g></g></svg>