<svg viewBox="0 0 512 512" xmlns="http://www.w3.org/2000/svg"><g id="Layer_2" data-name="Layer 2"><rect fill="#5c576e" height="132.76" rx="27.68" transform="matrix(.707 .707 -.707 .707 279.54 19.63)" width="55.37" x="88.39" y="280.87"/><rect fill="#5c576e" height="132.76" rx="27.68" transform="matrix(.707 .707 -.707 .707 327.68 -.31)" width="55.37" x="136.53" y="329.01"/><g fill="#423c59"><path d="m163 339.46-54.53 54.54c-13.33-15.47-20.81-34.74-23.18-55.12l38.57-38.57a27.68 27.68 0 0 1 39.14 39.15z"/><path d="m211.15 387.6-39 39c-20.28-2.52-39.41-10.14-54.74-23.56l54.59-54.59a27.68 27.68 0 1 1 39.15 39.15z"/><path d="m61.58 132.35c10.9 10.9 22.41 38.3 27.17 69.22a13.19 13.19 0 0 0 10 10.73c15.37 3.74 27.93 9.67 34.44 16.18 6.29 6.29 12.82 19 17.65 34.77a12.44 12.44 0 0 0 22.49 2.75c16.88-27.84 36.45-78.09 6.19-132.44-12.35-22.18-62.78-46.46-114.12-23.09a13.44 13.44 0 0 0 -3.94 21.76z"/><path d="m379.65 450.42c-10.9-10.9-38.3-22.41-69.22-27.17a13.19 13.19 0 0 1 -10.73-10c-3.7-15.38-9.7-27.94-16.18-34.45-6.29-6.29-19-12.82-34.77-17.65a12.44 12.44 0 0 1 -2.75-22.48c27.84-16.88 78.09-36.45 132.44-6.19 22.18 12.35 46.46 62.78 23.09 114.12a13.44 13.44 0 0 1 -21.76 3.94z"/></g><path d="m135 229.17c40.81-40.82 97.65-31.48 138.46 9.33s50.15 97.65 9.33 138.46-116.31 50.14-157.12 9.33-31.44-116.29 9.33-157.12z" fill="#5c576e"/><path d="m127.27 310.65a10.15 10.15 0 0 1 -2.87-8.79 107 107 0 0 1 18.08-44.76 10.2 10.2 0 1 1 16.59 11.9 86 86 0 0 0 -14.53 36 10.19 10.19 0 0 1 -17.27 5.63z" fill="#7e7b8e"/><path d="m137 362.87a9.86 9.86 0 0 1 -1.13-1.35 68.21 68.21 0 0 1 -10.87-25.43 10.19 10.19 0 1 1 20-4.21 48.19 48.19 0 0 0 7.52 17.9 10.19 10.19 0 0 1 -15.52 13.09z" fill="#7e7b8e"/><path d="m303.06 347.12c-32.91-.75-66.33-16.76-93.88-44.3s-43.55-61-44.3-93.88c35.9-14.74 77.05-2 108.62 29.56s44.3 72.72 29.56 108.62z" fill="#423c59"/><path d="m370.64 297.5c-43.12 43.11-103.16 33.25-146.27-9.87s-53-103.15-9.87-146.27 122.89-53 166-9.86 33.25 122.88-9.86 166z" fill="#5c576e"/><path d="m333.38 153.37c-28.28 28.28-58.63 30.86-75.77 13.72s-14.56-47.48 13.73-75.76 71.57-43.8 88.7-26.67 1.63 60.42-26.66 88.71z" fill="#5c576e"/><path d="m327.48 124.51c-16.4 16.39-24 9.21-33.17.07s-16.32-16.78.07-33.17 40.84-26 50-16.89-.51 33.59-16.9 49.99z" fill="#ffadb6"/><path d="m420.67 240.66c-28.28 28.34-58.67 30.86-75.76 13.73s-14.56-47.49 13.72-75.77 71.57-43.8 88.71-26.66 1.66 60.42-26.67 88.7z" fill="#5c576e"/><path d="m421 218c-16.39 16.4-24 9.22-33.17.08s-16.32-16.78.08-33.18 40.84-26 50-16.88-.52 33.61-16.91 49.98z" fill="#ffadb6"/><path d="m278.64 246.92c-3.73 3.73-11.67 4.36-16.18-.15s-3.88-12.45-.15-16.18 9.14-1.83 13.65 2.68 6.4 9.92 2.68 13.65z" fill="#ffadb6"/><path d="m279.9 195.51c-13.43 13.44-30 18.63-37.06 11.59-5.7-5.71-3.37-17.71 4.89-29.2a7.67 7.67 0 0 1 10.49-1.9c4.16 2.76 9.79 5.24 13.33 1.7 2.2-2.21 2-6.31-.12-10.71a7.63 7.63 0 0 1 4.7-10.67c6.38-1.82 12-1.26 15.35 2.12 7.04 7.06 1.85 23.64-11.58 37.07z"/><path d="m341.45 257.07c-13.43 13.43-30 18.62-37.05 11.58-5.71-5.71-3.38-17.7 4.88-29.2a7.67 7.67 0 0 1 10.49-1.88c4.17 2.77 9.79 5.24 13.33 1.7 2.21-2.21 2-6.3-.12-10.71a7.62 7.62 0 0 1 4.7-10.66c6.39-1.83 12-1.27 15.36 2.11 7.04 7.04 1.84 23.62-11.59 37.06z"/><path d="m105.2 195.25a6.27 6.27 0 0 1 -.57-.67 5.1 5.1 0 0 1 1.23-7.1c22.72-16 49.78-49.77 50.05-50.11a5.09 5.09 0 1 1 8 6.36c-1.14 1.43-28.22 35.22-52.13 52.08a5.1 5.1 0 0 1 -6.58-.56z" fill="#7e7b8e"/><path d="m316.63 406.68a5.09 5.09 0 0 1 -.56-6.53c16.86-23.91 50.65-51 52.08-52.14a5.1 5.1 0 0 1 6.36 8c-.34.27-34.09 27.33-50.1 50a5.11 5.11 0 0 1 -7.11 1.23 5.18 5.18 0 0 1 -.67-.56z" fill="#7e7b8e"/></g></svg>