<svg viewBox="0 0 512 512" xmlns="http://www.w3.org/2000/svg"><g id="Layer_2" data-name="Layer 2"><path d="m252.29 280.54-37.29-37.28 54.32-30.63a153.64 153.64 0 0 0 61.68-64.69l5.24-10.41a287.14 287.14 0 0 1 27.92-44.63l43.16-56.77a39.24 39.24 0 0 1 59-4 39.23 39.23 0 0 1 -1.14 56.58l-45.84 42.29a286.88 286.88 0 0 0 -48.49 58.4 174.56 174.56 0 0 1 -62.15 59.32z" fill="#f49351"/><path d="m281.31 230.11a7 7 0 0 1 -3.45-13.1 146 146 0 0 0 58.9-61.74l5.24-10.4a294.49 294.49 0 0 1 28.55-45.73l43.17-56.76a7 7 0 0 1 11.15 8.48l-43.17 56.76a280.49 280.49 0 0 0 -27.2 43.54l-5.24 10.41a160 160 0 0 1 -64.52 67.64 7 7 0 0 1 -3.43.9z" fill="#ffb25a"/><path d="m346.4 220.1a175.42 175.42 0 0 0 24.46-30.69 287.16 287.16 0 0 1 48.48-58.41l45.82-42.27c.4-.37.8-.74 1.17-1.12a39.27 39.27 0 0 0 -5.28-59.88 39.23 39.23 0 0 1 -4.36 50.27c-.38.38-.78.75-1.18 1.12l-45.82 42.28a286.83 286.83 0 0 0 -48.48 58.41 174.62 174.62 0 0 1 -62.16 59.31l-4.12 2.33a51.45 51.45 0 0 1 -61.66-8.45l-18.27 10.27 27.63 27.62 9.65 9.65 18.26-10.29 38.15-21.52a174.45 174.45 0 0 0 37.71-28.63z" fill="#e56a2c"/><path d="m40.8 324c7.05-19.78 26.39-42.6 48.2-63.63 42.92-41.46 111.33-40.4 153.52 1.79 46.6 46.6 42.13 123.68-9.92 164.12a297.84 297.84 0 0 0 -26.81 23c-8.34 8.33-13.38 16.31-16.33 23.47-7.12 17.33-28.53 23.84-44.42 13.92a140.64 140.64 0 0 1 -46.91-48.5c-11.13-18.8-12.34-35.59-11.38-46.42a6.29 6.29 0 0 0 -10-5.65 53.37 53.37 0 0 0 -10.31 9.69 13.41 13.41 0 0 1 -21.44-.73c-9-12.83-16.84-35.45-4.2-71.06z" fill="#f9d171"/><path d="m145 486.69a140.67 140.67 0 0 1 -46.93-48.5c-11.07-18.82-12.28-35.61-11.32-46.44a6.29 6.29 0 0 0 -10-5.65 53.36 53.36 0 0 0 -10.3 9.69 13.43 13.43 0 0 1 -21.45-.72c-9-12.84-16.86-35.46-4.23-71a3.62 3.62 0 0 0 .13-.35c4.56-12.57 22.6-12 26.48.83a73 73 0 0 0 10.08 20.75 16.87 16.87 0 0 0 27 .91 67.53 67.53 0 0 1 13-12.18 7.9 7.9 0 0 1 12.56 7.1c-1.21 13.61.31 34.74 14.25 58.4a179 179 0 0 0 40.38 47.6 20.29 20.29 0 0 1 5.54 24c-.24.54-.47 1.07-.69 1.61-7.21 17.36-28.62 23.87-44.5 13.95z" fill="#ffb25a"/><path d="m110.43 238.88 16.14-16.14a61.32 61.32 0 0 1 86.71 0l68.7 68.7a61.31 61.31 0 0 1 0 86.7l-16.14 16.15a6 6 0 0 1 -8.48 0l-146.93-146.93a6 6 0 0 1 0-8.48z" fill="#f49351"/><path d="m282.14 378c.61-.62 1.21-1.25 1.79-1.89.2-.21.39-.43.58-.65.53-.59 1-1.2 1.54-1.8l.32-.39c.59-.72 1.15-1.45 1.7-2.19l.38-.55c.4-.54.78-1.09 1.15-1.65.11-.16.23-.31.33-.47a61.41 61.41 0 0 0 6.07-55.3 43.34 43.34 0 0 1 -61.31 0l-98.33-98.32a62.89 62.89 0 0 0 -9.76 8l-16.14 16.14a6 6 0 0 0 0 8.47l125.62 125.6 21.28 21.28a6 6 0 0 0 8.48 0l16.16-16.13z" fill="#e56a2c"/><g fill="#ffb25a"><rect height="38.04" rx="12.4" transform="matrix(.707 .707 -.707 .707 276.5 -46.2)" width="236.14" x="75.95" y="291.64"/><path d="m70.26 307.59a7.42 7.42 0 0 1 -1.26-8.88c8-14.3 19.66-25.24 28.06-31.9a7.44 7.44 0 0 1 9.25 11.66c-7.31 5.82-17.5 15.32-24.31 27.53a7.44 7.44 0 0 1 -10.12 2.87 7 7 0 0 1 -1.62-1.28z"/><rect height="24.46" rx="12.23" transform="matrix(.707 .707 -.707 .707 236.26 -71.18)" width="75.92" x="166.09" y="237.37"/></g></g></svg>