<svg viewBox="0 0 512 512" xmlns="http://www.w3.org/2000/svg"><g id="Layer_2" data-name="Layer 2"><path d="m308.34 124.2a46.32 46.32 0 1 1 -92.63 0c0-25.58 20.74-103.55 46.32-103.55s46.31 77.97 46.31 103.55z" fill="#f9d171"/><path d="m294 124a32 32 0 1 1 -64 0c0-17.67 14.33-71.56 32-71.56s32 53.87 32 71.56z" fill="#ffb25a"/><rect fill="#423c59" height="85.81" rx="6.93" width="13.86" x="255.1" y="124.31"/><path d="m322.83 468.31-11.38-261.46a24.1 24.1 0 0 0 -24.07-23h-74.13a24.09 24.09 0 0 0 -24.1 24.09 13.67 13.67 0 0 0 13.67 13.67 13.68 13.68 0 0 1 13.66 14.27l-10.31 232.41a22.08 22.08 0 0 0 22.05 23.06h72.55a22.09 22.09 0 0 0 22.06-23.04z" fill="#dadada"/><path d="m287.91 276a12.78 12.78 0 0 1 -12.76-12.23l-1.47-33.57a12.79 12.79 0 1 1 25.55-1.11l1.46 33.57a12.78 12.78 0 0 1 -12.21 13.34z" fill="#fff"/><path d="m294.87 436a12.78 12.78 0 0 1 -12.76-12.23l-5-115.64a12.78 12.78 0 1 1 25.51-1.13l5 115.64a12.8 12.8 0 0 1 -12.18 13.36z" fill="#fff"/><path d="m238.52 240.34v240.66a10.3 10.3 0 0 1 -10.3 10.3 22.08 22.08 0 0 1 -22.06-23l10.32-232.44c0-.21 0-.41 0-.62a13.66 13.66 0 0 0 -13.67-13.66h16.92a18.77 18.77 0 0 1 18.79 18.76z" fill="#bfbcba"/></g></svg>