<svg viewBox="0 0 512 512" xmlns="http://www.w3.org/2000/svg"><g id="Layer_2" data-name="Layer 2"><path d="m363.05 187h-213.87l34.2-81.4c27.08-64.45 118.39-64.45 145.47 0z" fill="#dadada"/><path d="m363.13 448.37a1026.88 1026.88 0 0 1 -110.61 6.37 966.2 966.2 0 0 1 -103.52-5.81c-52.44-5.69-84.55-60.35-64.12-109l9.4-22.37h323.63l9.17 21.83c20.4 48.61-11.59 103.25-63.95 108.98z" fill="#f9d171"/><path d="m417.91 317.58h-323.59l54.86-130.58h213.87z" fill="#ffb25a"/><path d="m363.05 187h-213.87l34.2-81.4c27.08-64.45 118.39-64.45 145.47 0z" fill="#dadada"/><path d="m363.13 448.37a1026.88 1026.88 0 0 1 -110.61 6.37 966.2 966.2 0 0 1 -103.52-5.81c-52.44-5.69-84.55-60.35-64.12-109l9.4-22.37h323.63l9.17 21.83c20.4 48.61-11.59 103.25-63.95 108.98z" fill="#f9d171"/><path d="m417.91 317.58h-323.59l54.86-130.58h213.87z" fill="#ffb25a"/><path d="m276.61 59.88a84.31 84.31 0 0 0 -27.35 35.36l-36.77 87.53-1.78 4.23h-61.53l34.2-81.4c16.7-39.74 57.81-54.97 93.23-45.72z" fill="#bfbcba"/><path d="m175.59 451.47c-9.18-.76-18.05-1.62-26.55-2.54-52.44-5.69-84.55-60.35-64.12-109l9.4-22.37h61.53l-2.35 5.6-10.11 24.06a84.9 84.9 0 0 0 32.2 104.25z" fill="#ffb25a"/><path d="m210.71 187-54.86 130.58h-61.53l54.86-130.58z" fill="#f49351"/><rect fill="#f9f9f9" height="51.01" rx="21.67" transform="matrix(.951 -.309 .309 .951 -26.11 97.82)" width="43.33" x="273.75" y="105.76"/></g></svg>