<svg viewBox="0 0 512 512" xmlns="http://www.w3.org/2000/svg"><g id="Layer_2" data-name="Layer 2"><path d="m164.28 256c0 44.13-44 79.9-98.31 79.9-31.1 0-36.59-27.57-22.35-52.06a77.87 77.87 0 0 1 8.76-11.84 30.19 30.19 0 0 0 2.69-36.57c-20.53-31.12-33.62-59.32 10.93-59.32 54.27 0 98.28 35.77 98.28 79.89z" fill="#ffb25a"/><path d="m347.84 256c0-44.12 44-79.89 98.31-79.89 31.1 0 36.6 27.56 22.35 52.06a77.63 77.63 0 0 1 -8.75 11.88 30.19 30.19 0 0 0 -2.7 36.57c20.53 31.08 33.63 59.28-10.9 59.28-54.29 0-98.31-35.77-98.31-79.9z" fill="#996acc"/><path d="m135.45 312.52c39.72-30 37.29-88.3-4-116.13a97 97 0 0 0 -21.23 53.13 45.35 45.35 0 0 1 -34 40.87 123.32 123.32 0 0 1 -37.32 3.61c-19.77 60.32 67 43.42 92.53 21.59 1.37-.99 2.73-2.01 4.02-3.07z" fill="#f49351"/><path d="m467.84 294.26a131.13 131.13 0 0 1 -41.16-6.55 32 32 0 0 1 -21.95-30.62c.28-21.77-10.54-42.92-28.45-57.28a83.46 83.46 0 0 0 -16.74 18.39c-21.22 29.87-11.69 72.36 16.74 94 22.38 24.18 129.72 45.23 91.56-17.94z" fill="#7e4ab7"/><ellipse cx="256.06" cy="256" fill="#ffb25a" rx="128.16" ry="104.16"/><path d="m384.22 256c0 57.52-57.38 104.16-128.16 104.16s-128.16-46.64-128.16-104.16v-.22c0-5.36 7.28-7 9.72-2.23 19.24 37.76 65 64.32 118.44 64.32s99.2-26.56 118.45-64.32c2.43-4.78 9.7-3.13 9.71 2.23z" fill="#f49351"/><path d="m377 221.54a250 250 0 0 1 -55 82.14 250 250 0 0 1 -83.3 55.52c-23.51-2.58-45-10.35-62.65-21.85 38.74-10.21 77.12-31.81 109.53-64.21 27.64-27.64 47.42-59.64 59-92.48 14.42 11.23 25.7 25.2 32.42 40.88z" fill="#996acc"/><path d="m296.07 157a252.2 252.2 0 0 1 -50 70.71c-32.6 32.6-71.24 54.26-110.19 64.4a86.59 86.59 0 0 1 -7.98-36.11c0-1.33 0-2.66.11-4a250.24 250.24 0 0 0 81.62-54.84 257.13 257.13 0 0 0 36-45q5.18-.36 10.46-.36a154.72 154.72 0 0 1 39.98 5.2z" fill="#996acc"/><g fill="#7e4ab7"><path d="m323.2 302.43c-.4.43-.81.84-1.22 1.25a249.9 249.9 0 0 1 -83.28 55.52c-.78-.08-1.57-.17-2.35-.28s-1.54-.19-2.31-.31q-5.67-.8-11.14-2-1-.19-1.92-.42a.33.33 0 0 1 -.13 0c-.49-.1-1-.22-1.47-.34-1.49-.35-3-.74-4.42-1.14-.9-.25-1.8-.5-2.69-.78-1.89-.54-3.76-1.14-5.61-1.76l-1.29-.45q-5-1.77-9.82-3.86l-1.67-.74a132.17 132.17 0 0 1 -17.83-9.74 231.3 231.3 0 0 0 53.51-21.72 156.36 156.36 0 0 0 26.5 2.24 150 150 0 0 0 67.14-15.47z"/><path d="m161.3 283.83a224.8 224.8 0 0 1 -25.46 8.3c-.63-1.38-1.23-2.78-1.78-4.18 0-.06-.05-.1-.07-.16-.25-.63-.48-1.24-.71-1.87l-.13-.36c-.24-.65-.47-1.29-.69-1.95l-.6-1.84c-.2-.62-.39-1.26-.57-1.89-.28-1-.54-1.92-.79-2.89-.2-.79-.38-1.58-.56-2.38s-.34-1.63-.51-2.46q-.13-.7-.24-1.41c-.06-.32-.12-.62-.17-.94s-.14-.83-.19-1.24-.14-1-.21-1.46-.08-.66-.12-1c-.07-.52-.12-1-.16-1.54 0-.32-.07-.64-.1-.95 0-.47-.08-.94-.1-1.43s-.07-.75-.09-1.13c0-.75-.08-1.52-.1-2.28v-.12c0-.88 0-1.77 0-2.66s0-1.64 0-2.45c0-.51 0-1 .06-1.52q3.7-1.51 7.38-3.18a102.48 102.48 0 0 0 25.91 34.99z"/></g></g></svg>