<svg viewBox="0 0 512 512" xmlns="http://www.w3.org/2000/svg"><g id="Layer_2" data-name="Layer 2"><path d="m328.47 285.26a122.37 122.37 0 0 1 -109.91-68.87 34.72 34.72 0 1 1 62.49-30.28 52.59 52.59 0 1 0 94.64-45.87 34.72 34.72 0 0 1 62.49-30.24 122.14 122.14 0 0 1 -109.71 175.26z" fill="#5c576e"/><path d="m434 420.47a37.25 37.25 0 0 1 -17-4.13c-72.13-36.91-95.89-108.15-87.46-162.34a37.44 37.44 0 1 1 74 11.5c-.88 5.68-7.05 56.26 47.55 84.22a37.45 37.45 0 0 1 -17.09 70.75z" fill="#5c576e"/><path d="m78 419.9a37.44 37.44 0 0 1 -21.49-68.13c50.26-35.15 37.26-84.42 35.61-89.93a37.44 37.44 0 0 1 71.74-21.49c15.74 52.57 1.93 126.38-64.44 172.79a37.23 37.23 0 0 1 -21.42 6.76z" fill="#5c576e"/><path d="m415 249.22c-7.22-16-21.84-26.95-38.71-26.95-24 0-43.5 22.19-43.5 49.55a55.6 55.6 0 0 0 1.6 13.29 123 123 0 0 0 80.61-35.89z" fill="#423c59"/><path d="m78 419.9a37.44 37.44 0 0 1 -21.49-68.13c50.26-35.15 37.26-84.42 35.61-89.93a37.44 37.44 0 0 1 71.74-21.49c15.74 52.57 1.93 126.38-64.44 172.79a37.23 37.23 0 0 1 -21.42 6.76z" fill="#5c576e"/><path d="m191 428.45a37.45 37.45 0 0 1 -28.25-59.57c36.31-49.43 8.17-91.91 4.84-96.59a37.45 37.45 0 1 1 61-43.4c31.79 44.72 42.41 119.11-5.53 184.33a37.43 37.43 0 0 1 -32.06 15.23z" fill="#5c576e"/><path d="m85 271.87c0-76 72.13-92.2 161.1-92.2s161.11 16.2 161.11 92.2-72.13 96.94-161.11 96.94-161.1-20.93-161.1-96.94z" fill="#5c576e"/><path d="m150.74 356.5q-2.91 5.36-6.31 10.59c-9.12-8.63-17.63-17.34-25.34-26.09a122 122 0 0 0 31.65 15.5z" fill="#423c59"/><path d="m96.35 89.59a20.92 20.92 0 0 0 -32.83 4.34c-18 30.46-17.38 66.1 4 87.47s57 22 87.47 4a20.92 20.92 0 0 0 4.34-32.83z" fill="#5c576e"/><path d="m84.8 104c-4.19-4.17-10.65-3.3-14.34 1.85a36.91 36.91 0 0 0 -5.71 12.91c-2 8.53-1.58 17.48-.61 26.12.62 5.53 1.46 11.08 3.39 16.11 5.24 13.67 19 21.75 31.8 18.7a12.8 12.8 0 0 0 5.67-2.69c4.6-4.06 4.8-11.92 4-18.44-2.6-21.37-11-41.44-24.2-54.56z" fill="#ffadb6"/><path d="m85 271.87c0 14.17 2.53 26.39 7.19 36.95.59 1.34 39.69 26.75 93.37 26.75 73.44 0 133-32 133-99.7 0-17.38-18.39-53.58-22.16-54-15.82-1.6-32.72-2.24-50.28-2.24-88.96.04-161.12 16.24-161.12 92.24z" fill="#423c59"/><path d="m43.62 230c0-57.63 56.48-123.84 126.16-123.84s126.16 66.24 126.16 123.84-56.49 84.85-126.16 84.85-126.16-27.19-126.16-84.85z" fill="#5c576e"/><path d="m349.4 353.61c-4.27 1.71-8.73 3.24-13.36 4.62a157.09 157.09 0 0 1 -2.84-43.35 156.45 156.45 0 0 0 16.2 38.73z" fill="#423c59"/><path d="m254.57 368.75q-3.88.06-7.81.06a158.63 158.63 0 0 0 6.52-24.64s4.51 7.07 1.29 24.58z" fill="#423c59"/><path d="m243.21 89.59a20.92 20.92 0 0 1 32.79 4.34c18 30.46 17.38 66.1-4 87.47s-57 22-87.47 4a20.92 20.92 0 0 1 -4.34-32.83z" fill="#5c576e"/><path d="m167.56 234.09c0 4.65-4.56 10-10.19 10s-10.19-5.35-10.19-10 4.56-6.86 10.19-6.86 10.19 2.2 10.19 6.86z" fill="#ffadb6"/><path d="m136.26 201.2c0 16.78-7.12 30.37-15.9 30.37-7.13 0-13.16-8.95-15.18-21.28a6.76 6.76 0 0 1 5.37-7.72c4.33-.87 9.38-2.84 9.38-7.26 0-2.76-2.68-5.19-6.76-6.61a6.74 6.74 0 0 1 -3.72-9.6c2.85-5.12 6.68-8.26 10.91-8.26 8.78 0 15.9 13.59 15.9 30.36z"/><path d="m213.11 201.2c0 16.78-7.11 30.37-15.9 30.37-7.13 0-13.16-8.95-15.18-21.28a6.76 6.76 0 0 1 5.37-7.72c4.33-.87 9.39-2.84 9.39-7.26 0-2.76-2.69-5.19-6.76-6.61a6.74 6.74 0 0 1 -3.73-9.6c2.85-5.12 6.69-8.26 10.91-8.26 8.79 0 15.9 13.59 15.9 30.36z"/><path d="m253.8 105.39c4-3.6 10.48-2.94 14.4 1.41a31.13 31.13 0 0 1 6.28 10.94c2.4 7.25 2.36 14.88 1.79 22.25-.36 4.72-.63 9.6-2.65 13.76-6.74 13.87-41.31.77-39.23-12.9 2.29-14.98 6.87-24.14 19.41-35.46z" fill="#ffadb6"/><g fill="#423c59"><path d="m124.78 262.14h-41.68a4 4 0 0 1 0-8h41.68a4 4 0 0 1 0 8z"/><path d="m123.88 249.92a4.08 4.08 0 0 1 -1.37-.24l-28.27-10.29a4 4 0 0 1 2.76-7.52l28.26 10.29a4 4 0 0 1 -1.36 7.76z"/><path d="m98.82 284.64a4 4 0 0 1 -1.37-7.76l28.26-10.28a4 4 0 0 1 2.74 7.52l-28.27 10.28a3.83 3.83 0 0 1 -1.36.24z"/><path d="m237.24 264.38h-41.69a4 4 0 0 1 0-8h41.69a4 4 0 0 1 0 8z"/><path d="m196.46 252.17a4 4 0 0 1 -1.37-7.76l28.27-10.29a4 4 0 0 1 2.73 7.52l-28.26 10.28a3.9 3.9 0 0 1 -1.37.25z"/><path d="m221.52 286.89a4.12 4.12 0 0 1 -1.37-.24l-28.26-10.29a4 4 0 0 1 2.73-7.52l28.27 10.29a4 4 0 0 1 -1.37 7.76z"/><path d="m165.76 266.54a16.76 16.76 0 0 1 -9.22-3.05c-2.38 2-5.69 3.91-10.48 2.65-3.65-1-6.23-2.81-7.65-5.48-1.49-2.82-1.55-6.23-.18-10.15a3.21 3.21 0 0 1 6.05 2.12c-.94 2.7-.63 4.22-.21 5 .55 1 1.77 1.79 3.63 2.28s3 .1 5-1.57a5.92 5.92 0 0 1 7.2-.36c3.09 2.16 6.44 2.72 8.52 1.45a6.24 6.24 0 0 0 1.93-8.07 3.21 3.21 0 0 1 5.46-3.36 12.64 12.64 0 0 1 -4 16.89 11.39 11.39 0 0 1 -6.05 1.65z"/></g></g></svg>