<svg viewBox="0 0 512 512" xmlns="http://www.w3.org/2000/svg"><g id="Layer_2" data-name="Layer 2"><rect fill="#ffb25a" height="32.69" rx="16.34" transform="matrix(-.555 -.832 .832 -.555 140.74 382.63)" width="191.68" x="76.81" y="137.35"/><path d="m305.21 78.18a91.84 91.84 0 0 0 -53.48 14.52 51 51 0 0 1 -40.68 6.3 73.73 73.73 0 0 0 -19.32-2.48c-40.73.16-74.11 34.14-73.56 74.87a73.84 73.84 0 0 0 114.63 60.61 92.28 92.28 0 0 0 161-65.33c-1.94-47.8-40.8-86.67-88.59-88.49z" fill="#996acc"/><path d="m301.54 262.7a92.07 92.07 0 0 1 -68.74-30.7 73.73 73.73 0 0 1 -108.68-90.4 120.37 120.37 0 0 1 137.47-5.11 66.68 66.68 0 0 0 53.23 8.28 96.72 96.72 0 0 1 25.29-3.24 95.48 95.48 0 0 1 52.89 16.23q.62 4.38.8 8.88a92.3 92.3 0 0 1 -92.26 96.06z" fill="#7e4ab7"/><circle cx="291.97" cy="125.28" fill="#7e4ab7" r="10.12"/><rect fill="#e56a2c" height="55.36" rx="27.68" transform="matrix(.707 .707 -.707 .707 393.34 -131.52)" width="103.32" x="303.77" y="381.37"/><rect fill="#e56a2c" height="55.36" rx="27.68" transform="matrix(-.707 .707 -.707 -.707 556.53 587.58)" width="103.32" x="104.91" y="381.37"/><path d="m360.42 417.94a448.32 448.32 0 0 1 -208.84 0 96.48 96.48 0 0 1 -72.25-112.08l18.58-96.42h316.18l18.58 96.42a96.48 96.48 0 0 1 -72.25 112.08z" fill="#5c576e"/><path d="m410.74 361a664.08 664.08 0 0 1 -309.46 0 143.21 143.21 0 0 1 -18.54-5.8 96.41 96.41 0 0 0 68.86 62.78 448.32 448.32 0 0 0 208.84 0 96.41 96.41 0 0 0 68.86-62.78 143.21 143.21 0 0 1 -18.56 5.8z" fill="#423c59"/><rect fill="#ffb25a" height="55.79" rx="27.9" width="377.14" x="67.43" y="158.41"/><rect fill="#f9d171" height="14.3" rx="7.15" width="59.14" x="92.44" y="165.55"/><rect fill="#f9d171" height="14.3" rx="7.15" width="29.57" x="163.09" y="165.55"/><path d="m444.57 186.3a27.89 27.89 0 0 1 -27.89 27.9h-321.36a27.9 27.9 0 0 1 -27.9-27.9z" fill="#e56a2c"/><rect fill="#ffb25a" height="23.58" rx="11.79" transform="matrix(.974 -.225 .225 .974 -45.97 101.67)" width="64.12" x="391.11" y="240.8"/><rect fill="#ffb25a" height="23.58" rx="11.79" transform="matrix(-.974 -.225 .225 -.974 118.57 518.68)" width="64.12" x="56.77" y="240.8"/><circle cx="222.21" cy="74.47" fill="#996acc" r="16.16"/></g></svg>