<svg viewBox="0 0 512 512" xmlns="http://www.w3.org/2000/svg"><g id="Layer_2" data-name="Layer 2"><path d="m398.91 39.57h-116.25a29.08 29.08 0 0 0 -25.2 14.55l-60.67 105.08a29.1 29.1 0 0 0 -3.06 21.52l66.68 270.7a29.09 29.09 0 0 0 28.25 22.15h104.25a29.11 29.11 0 0 0 28.26-22.15l66.67-270.7a29.14 29.14 0 0 0 -3-21.52l-60.72-105.08a29.1 29.1 0 0 0 -25.21-14.55z" fill="#e56a2c"/><path d="m280.5 425.78-59.4-241.18a29.07 29.07 0 0 1 3.05-21.51l48.11-83.33a29.1 29.1 0 0 1 25.21-14.55h86.64a29.09 29.09 0 0 1 25.2 14.55l48.11 83.33a29.12 29.12 0 0 1 3.06 21.51l-59.41 241.18a29.09 29.09 0 0 1 -28.25 22.15h-64.06a29.1 29.1 0 0 1 -28.26-22.15z" fill="#5c576e"/><path d="m460.48 184.61-59.4 241.18a29.11 29.11 0 0 1 -28.26 22.14h-10.74a29.11 29.11 0 0 1 -28.26-22.14l-59.39-241.18a29.08 29.08 0 0 1 3.05-21.52l48.11-83.33a29.11 29.11 0 0 1 25.21-14.55h33.31a29.1 29.1 0 0 1 25.2 14.55l48.12 83.33a29.18 29.18 0 0 1 3.05 21.52z" fill="#423c59"/><path d="m196 31.12-119.73 29.48a23 23 0 0 0 -16.61 15.95l-35.44 122.27a23.05 23.05 0 0 0 1.78 17.1l132.77 253.29a23 23 0 0 0 25.9 11.66l110.47-27.2a23 23 0 0 0 17.52-22.36v-286a23 23 0 0 0 -6.42-15.94l-88.16-91.84a23.06 23.06 0 0 0 -22.08-6.41z" fill="#e56a2c"/><path d="m172.15 439.51-118.7-226.36a23.07 23.07 0 0 1 -1.73-17.15l28.45-98.09a23 23 0 0 1 16.61-15.91l90.94-22.4a23 23 0 0 1 22.11 6.4l70.77 73.7a23 23 0 0 1 6.42 16v255.6a23 23 0 0 1 -17.52 22.35l-71.45 17.6a23 23 0 0 1 -25.9-11.74z" fill="#ffb25a"/><path d="m198.69 433-118.69-226.39a23 23 0 0 1 -1.72-17.1l28.44-98.14a23 23 0 0 1 16.61-16l-26.55 6.63a23 23 0 0 0 -16.61 16l-28.45 98a23.07 23.07 0 0 0 1.73 17.11l118.7 226.36a23 23 0 0 0 25.9 11.66l26.54-6.53a23 23 0 0 1 -25.9-11.6z" fill="#f49351"/><path d="m228.15 185.57a4.09 4.09 0 0 1 -.79-5c5.06-9.1 6.59-20.17 3.3-33.56-8.93-36.25-45.31-57.38-81.57-48.45s-58.65 44.53-49.72 80.79c3.29 13.39 9.79 22.48 18.5 28.19a4.09 4.09 0 0 1 1.62 4.79 11.06 11.06 0 0 0 -.37 6.51l1.6 6.51a11.12 11.12 0 0 0 13.46 8.13l6.5-1.6a11.11 11.11 0 0 0 8.4-9.65.7.7 0 0 1 1.27-.31 11.1 11.1 0 0 0 11.92 4.64l6.51-1.6a11.11 11.11 0 0 0 8.4-9.65.69.69 0 0 1 1.26-.31 11.12 11.12 0 0 0 11.93 4.64l6.5-1.6a11.12 11.12 0 0 0 8.41-9.65.69.69 0 0 1 1.26-.31 11.11 11.11 0 0 0 11.93 4.64l6.5-1.6a11.13 11.13 0 0 0 8.14-13.45l-1.61-6.51a11 11 0 0 0 -3.35-5.59z" fill="#dadada"/><path d="m231.5 191.16 1.6 6.51a11.11 11.11 0 0 1 -8.1 13.45l-6.5 1.6a11.13 11.13 0 0 1 -11.93-4.64.7.7 0 0 0 -1.27.31 11.1 11.1 0 0 1 -8.4 9.65l-6.5 1.6a11.14 11.14 0 0 1 -11.96-4.64.69.69 0 0 0 -1.26.31 11.11 11.11 0 0 1 -8.41 9.65l-6.5 1.6a11.12 11.12 0 0 1 -11.92-4.64.7.7 0 0 0 -1.27.31 11.1 11.1 0 0 1 -8.4 9.65l-6.5 1.6a11.12 11.12 0 0 1 -13.46-8.13l-1.6-6.51c-.07-.29-.13-.58-.18-.88a11.13 11.13 0 0 0 13.22 7.32l6.5-1.6a11.14 11.14 0 0 0 8.4-9.66.7.7 0 0 1 1.27-.31 11.12 11.12 0 0 0 11.92 4.65l6.5-1.6a11.13 11.13 0 0 0 8.41-9.65.69.69 0 0 1 1.26-.32 11.14 11.14 0 0 0 11.93 4.65l6.5-1.6a11.14 11.14 0 0 0 8.4-9.65.7.7 0 0 1 1.27-.32 11.13 11.13 0 0 0 11.93 4.65l6.5-1.6a11.12 11.12 0 0 0 8.3-12.62 8.47 8.47 0 0 1 .25.86z" fill="#bfbcba"/><path d="m154.51 162.48c3.12 12.65.2 24.24-6.51 25.9-6 1.47-12.93-5.42-16.59-15.86a3.76 3.76 0 0 1 2-4.68c5.93-2.72 9.59-7 8.68-10.7-.66-2.68-3.56-4.5-7.58-5.18a3.74 3.74 0 0 1 -2.54-5.69 8.09 8.09 0 0 1 4.8-3.69c6.66-1.66 14.63 7.25 17.74 19.9z"/><path d="m197.46 151.9c3.12 12.65.21 24.24-6.51 25.9-6 1.47-12.93-5.42-16.58-15.86a3.76 3.76 0 0 1 1.94-4.68c5.93-2.72 9.6-7 8.68-10.7-.66-2.68-3.56-4.5-7.58-5.18a3.74 3.74 0 0 1 -2.54-5.69 8.09 8.09 0 0 1 4.8-3.69c6.72-1.66 14.68 7.26 17.79 19.9z"/><circle cx="171.54" cy="191.27" r="5.68"/></g></svg>