<svg viewBox="0 0 512 512" xmlns="http://www.w3.org/2000/svg"><g id="Layer_2" data-name="Layer 2"><circle cx="254.34" cy="255.95" fill="#996acc" r="182.7"/><path d="m218.54 115.41a10 10 0 0 1 -2.44-19.69 168.49 168.49 0 0 1 41.24-5.11 10 10 0 0 1 0 20 148.25 148.25 0 0 0 -36.34 4.5 10 10 0 0 1 -2.46.3z" fill="#f9d171"/><path d="m99 269a10 10 0 0 1 -10-10 169.05 169.05 0 0 1 84.15-145.74 10 10 0 0 1 10 17.3 149 149 0 0 0 -74.15 128.44 10 10 0 0 1 -10 10z" fill="#f9d171"/><path d="m388.52 379.93a183.86 183.86 0 0 0 16.28-20.32 174.3 174.3 0 0 0 16.8-30c3.19-7.28-7.22-12.72-11.37-5.95l-.66 1.07a48.43 48.43 0 0 1 -50.19 22c-59.92-11.49-150.12-11.49-210 0a48.45 48.45 0 0 1 -50.21-22c-.22-.34-.43-.69-.64-1-4.16-6.77-14.57-1.33-11.38 5.94a174.6 174.6 0 0 0 16.8 30c63.87 95.58 207.74 105.91 284.57 20.26z" fill="#7e4ab7"/><rect fill="#f9d171" height="46.66" rx="9.51" width="241.82" x="133.43" y="404.45"/><rect fill="#fff" height="13.74" rx="6.87" width="44.71" x="143.54" y="414.04"/><rect fill="#fff" height="13.74" rx="6.87" width="27.85" x="195.58" y="414.04"/><path d="m141.39 435.18h233.86a0 0 0 0 1 0 0v15.92a0 0 0 0 1 0 0h-233.86a8 8 0 0 1 -8-8 8 8 0 0 1 8-7.92z" fill="#f49351"/><rect fill="#e56a2c" height="21.74" rx="9.51" width="265.28" x="121.7" y="451.11"/><path d="m449.58 97.06a78 78 0 0 0 -32.16 32.16 11.46 11.46 0 0 1 -19.94 0c-8.27-14.66-17.51-23.89-32.17-32.16a11.48 11.48 0 0 1 0-20c14.69-8.21 23.9-17.45 32.17-32.06a11.47 11.47 0 0 1 19.94 0c8.27 14.66 17.5 23.9 32.16 32.16a11.47 11.47 0 0 1 0 19.9z" fill="#f9d171"/><path d="m453.11 80.17a11.51 11.51 0 0 1 -3.52 3 4.29 4.29 0 0 1 -5.82-1.56 31.76 31.76 0 0 0 -27.6-16c-11.46 0-18.9 5.65-23.68 12.19a20.67 20.67 0 0 1 -26.91 5.49l-.23-.13a11.51 11.51 0 0 1 -3.52-3 11.52 11.52 0 0 0 3.52 16.89c14.66 8.27 23.9 17.5 32.17 32.17a11.47 11.47 0 0 0 19.94 0 82.82 82.82 0 0 1 13.67-18.45 81.25 81.25 0 0 1 16.77-12.77l1.69-1a11.52 11.52 0 0 0 3.52-16.83z" fill="#f49351"/><path d="m112.15 401.36a48 48 0 0 0 -19.83 19.83 7.07 7.07 0 0 1 -12.3 0 48 48 0 0 0 -19.83-19.83 7.07 7.07 0 0 1 0-12.3 48 48 0 0 0 19.81-19.83 7.07 7.07 0 0 1 12.3 0 48.09 48.09 0 0 0 19.83 19.83 7.07 7.07 0 0 1 .02 12.3z" fill="#f9d171"/><path d="m114.33 390.94a7.24 7.24 0 0 1 -2.17 1.88 2.66 2.66 0 0 1 -3.59-1 19.57 19.57 0 0 0 -17-9.87 17.35 17.35 0 0 0 -14.6 7.52 12.73 12.73 0 0 1 -16.59 3.38l-.14-.08a7.12 7.12 0 0 1 -2.24-1.83 7.11 7.11 0 0 0 2.17 10.42 48 48 0 0 1 19.83 19.83 7.07 7.07 0 0 0 12.3 0s0 0 0 0a51 51 0 0 1 8.43-11.37 50.16 50.16 0 0 1 10.38-7.82l1-.59a7.11 7.11 0 0 0 2.22-10.47z" fill="#f49351"/></g></svg>