<svg viewBox="0 0 512 512" xmlns="http://www.w3.org/2000/svg"><g id="Layer_2" data-name="Layer 2"><path d="m224.47 140.33c2.27.14 4.52.37 6.74.73-51.17 6.55-93 33.69-110.26 77.33-31.41-39.39-43.56-95.77-25.67-142.62 5.63-10.16 9.71-39.53 35-35.76 12.71 4 12.4 18.07 11.65 24.2-2.17 46.37 39.07 76.88 82.54 76.12z" fill="#5c576e"/><path d="m419.63 162.37c-5.62 20.13-15.89 39.45-28.58 56-17.22-43.64-59.1-70.78-110.28-77.33 120.92-7.21 70.89-92.42 101-101.05 18.73-5.82 28.88 21.25 29.82 23.29 14.33 31.02 17.68 64.81 8.04 99.09z" fill="#5c576e"/><path d="m231.21 141.06c-51.18 6.55-93 33.69-110.26 77.33-25.46-31.95-38.27-75-32.67-115.15a155 155 0 0 0 4.3 20.92c6.76 24.38 37.34 33 55.68 15.52a125.09 125.09 0 0 1 21.82-16.51c15 11.29 34.47 17.51 54.39 17.16q3.41.21 6.74.73z" fill="#423c59"/><path d="m419.62 162.37c-5.61 20.13-15.88 39.46-28.57 56-17.22-43.64-59.1-70.78-110.28-77.33 29.89-1.78 49.33-8.33 62.12-17.3a124.05 124.05 0 0 1 21 16.06c18.26 17.4 48.69 9.09 55.57-15.18.06-.2.12-.4.17-.6a148.38 148.38 0 0 0 4.15-19.79 141.1 141.1 0 0 1 -4.16 58.14z" fill="#423c59"/><path d="m171.89 260.57c41.52 41.52 45.3 86.06 20.15 111.21s-69.7 21.38-111.22-20.14-64.29-110.78-39.14-135.93 88.69 3.34 130.21 44.86z" fill="#b23443"/><path d="m340.11 260.57c-41.52 41.52-45.29 86.06-20.15 111.21s69.7 21.38 111.22-20.14 64.29-110.78 39.14-135.93-88.69 3.34-130.21 44.86z" fill="#b23443"/><path d="m192 341.23a52.66 52.66 0 0 1 -25.45 14.18c.93-.77 1.84-1.57 2.72-2.45 17.72-17.71 15.06-49.1-14.2-78.36s-74-49.32-91.74-31.6l-.36.36c-9.7 10.2-27 5.5-29.77-8.29-.18-.86-.34-1.71-.49-2.55-7.7 31.65 13.8 84.84 48.07 119.12 41.53 41.52 86.08 45.3 111.22 20.14 13.73-13.71 18.84-33.2 13.92-54.83a52.78 52.78 0 0 1 -13.92 24.28z" fill="#932222"/><path d="m320 341.23a52.66 52.66 0 0 0 25.45 14.18c-.93-.77-1.84-1.57-2.71-2.45-17.72-17.71-15.07-49.1 14.19-78.36s74-49.32 91.74-31.6l.36.36c9.7 10.2 27 5.5 29.77-8.29.18-.86.34-1.71.49-2.55 7.7 31.65-13.8 84.84-48.07 119.12-41.52 41.52-86.08 45.3-111.22 20.14-13.77-13.71-18.88-33.2-14-54.78a52.87 52.87 0 0 0 14 24.23z" fill="#932222"/><path d="m78.09 272.42c0-98.26 79.65-155.42 177.91-155.42s177.91 57.18 177.91 155.44-79.65 200.37-177.91 200.37-177.91-102.14-177.91-200.39z" fill="#b23443"/><path d="m256 438.22c-72.86 0-136.57-50.14-171.32-116 21 80.14 89.74 150.55 171.32 150.55s150.33-70.37 171.32-150.51c-34.75 65.82-98.46 115.96-171.32 115.96z" fill="#932222"/><path d="m433.91 272.42v.85a1.75 1.75 0 0 1 -3.49.16c-15.94-161.29-174.42-77.62-174.42-77.62s-158.5-87.74-174.42 77.06a1.75 1.75 0 0 1 -3.49-.16v-.29c0-182 79.65-182 177.91-182s177.91.04 177.91 182z"/><path d="m272.29 348.14c0 9-8.78 19.26-19.62 19.26s-19.62-10.3-19.62-19.26 8.78-13.2 19.62-13.2 19.62 4.23 19.62 13.2z" fill="#ffadb6"/><path d="m212 284.84c0 32.28-13.69 58.45-30.61 58.45-13.72 0-25.33-17.22-29.22-41a13 13 0 0 1 10.35-14.87c8.33-1.68 18.06-5.47 18.06-14 0-5.3-5.17-10-13-12.73a13 13 0 0 1 -7.17-18.47c5.48-9.86 12.86-15.91 21-15.91 16.93.07 30.59 26.24 30.59 58.53z"/><path d="m360 284.84c0 32.28-13.69 58.45-30.61 58.45-13.72 0-25.33-17.22-29.22-41a13 13 0 0 1 10.35-14.87c8.33-1.68 18.06-5.47 18.06-14 0-5.3-5.17-10-13-12.73a13 13 0 0 1 -7.17-18.47c5.48-9.86 12.87-15.91 21-15.91 16.87.07 30.59 26.24 30.59 58.53z"/></g></svg>