<svg viewBox="0 0 512 512" xmlns="http://www.w3.org/2000/svg"><g id="Layer_2" data-name="Layer 2"><path d="m366 202.81h-263.87v117.59a22 22 0 0 0 22 22 22 22 0 0 1 22 22v55.7a22 22 0 0 0 22 22 22 22 0 0 0 22-22 13.61 13.61 0 0 1 13.61-13.61h8.75a21.61 21.61 0 0 1 21.61 21.62v10.37a22 22 0 0 0 22 22 22 22 0 0 0 22-22v-27.9a22 22 0 0 1 22-22 22 22 0 0 1 22 22v2.29a22 22 0 0 0 22 22 22 22 0 0 0 22-22v-26.33a20.37 20.37 0 0 1 20.37-20.37 23.6 23.6 0 0 0 23.6-23.6v-139.76z" fill="#b23443"/><circle cx="116.96" cy="373.08" fill="#b23443" r="14.9"/><circle cx="256.04" cy="205.44" fill="#dadada" r="153.91"/><path d="m410 205.44a153.91 153.91 0 1 1 -298-54.12 147.72 147.72 0 1 0 288.2-.07 153.38 153.38 0 0 1 9.8 54.19z" fill="#bfbcba"/><path d="m219 86.74a10 10 0 0 1 -2.76-19.61 143.63 143.63 0 0 1 39.76-5.59 10 10 0 0 1 0 20 123.71 123.71 0 0 0 -34.24 4.8 9.87 9.87 0 0 1 -2.76.4z" fill="#fff"/><path d="m126.64 181a10 10 0 0 1 -9.64-12.6 144.29 144.29 0 0 1 57.67-81.58 10 10 0 1 1 11.33 16.47 124.3 124.3 0 0 0 -49.69 70.26 10 10 0 0 1 -9.67 7.45z" fill="#fff"/><circle cx="256.04" cy="205.44" fill="#5c576e" r="90.74"/><path d="m305.86 205.44a49.82 49.82 0 1 1 -99.63 0q0-1.26.06-2.49a2.84 2.84 0 0 1 4.34-2.25 30.68 30.68 0 0 0 42.91-40.89 2.83 2.83 0 0 1 2.44-4.19h.02a49.82 49.82 0 0 1 49.86 49.82z"/><g fill="#b23443"><path d="m353.62 290.42h-21.33a4 4 0 0 1 0-8h17.33v-7.11a4 4 0 0 1 8 0v11.11a4 4 0 0 1 -4 4z"/><path d="m363.38 300.18a4 4 0 0 1 -2.83-1.17l-9.76-9.76a4 4 0 1 1 5.66-5.65l9.76 9.76a4 4 0 0 1 -2.83 6.82z"/><path d="m147.19 285.24a4 4 0 0 1 -4-4v-17.33h-7.11a4 4 0 1 1 0-8h11.11a4 4 0 0 1 4 4v21.33a4 4 0 0 1 -4 4z"/><path d="m147.19 263.91a4 4 0 0 1 -2.83-6.83l9.76-9.76a4 4 0 0 1 5.66 5.66l-9.78 9.76a4 4 0 0 1 -2.81 1.17z"/><path d="m347.83 99.73h-21.33a4 4 0 0 1 -4-4v-11.11a4 4 0 0 1 8 0v7.11h17.33a4 4 0 0 1 0 8z"/><path d="m316.74 109.49a4 4 0 0 1 -2.83-6.83l9.76-9.76a4 4 0 0 1 5.66 5.66l-9.76 9.76a4 4 0 0 1 -2.83 1.17z"/></g></g></svg>