<svg viewBox="0 0 512 512" xmlns="http://www.w3.org/2000/svg"><g id="Layer_2" data-name="Layer 2"><path d="m82.28 217.31v124.61a134.27 134.27 0 0 0 30.34 85 113 113 0 0 0 87.5 41.48 23.75 23.75 0 0 0 23.75-23.75v-19.86c0-11.72 14.71-17 22.13-7.9l8.21 10a113 113 0 0 0 87.5 41.48 23.75 23.75 0 0 0 23.75-23.75v-19.83c0-11.72 14.71-17 22.13-7.9 14.13 17.28 42.13 7.29 42.13-15v-184.58a173.72 173.72 0 0 0 -173.72-173.72 173.72 173.72 0 0 0 -173.72 173.72z" fill="#dadada"/><path d="m208.25 101.82a13.08 13.08 0 0 1 -4.57-25.33 149.42 149.42 0 0 1 37.93-8.71 13.07 13.07 0 0 1 2.48 26 123.22 123.22 0 0 0 -31.27 7.22 13.11 13.11 0 0 1 -4.57.82z" fill="#fff"/><path d="m120.64 208.37a13.74 13.74 0 0 1 -2.11-.17 13.07 13.07 0 0 1 -10.81-15 150.32 150.32 0 0 1 51.69-90.86 13.07 13.07 0 0 1 16.83 20 124.16 124.16 0 0 0 -42.71 75 13.08 13.08 0 0 1 -12.89 11.03z" fill="#fff"/><path d="m412.28 360c9.37-1 17.44 6.66 17.44 16.08v25.79c0 14.49-11.81 23.8-24 23.8a23.2 23.2 0 0 1 -18.17-8.77c-7.41-9.07-22.11-3.82-22.11 7.9v19.86a23.76 23.76 0 0 1 -23.76 23.76 113.08 113.08 0 0 1 -87.51-41.48l-8.21-10c-7.41-9.08-22.12-3.83-22.12 7.89v19.87a23.76 23.76 0 0 1 -23.74 23.76 113.1 113.1 0 0 1 -87.51-41.48q-3.3-4-6.26-8.28c-9.35-13.42 5.25-30.36 20-23.3l.49.24a125.91 125.91 0 0 0 53.86 12.12 26.41 26.41 0 0 0 26.41-26.43v-22.14c0-13 16.36-18.88 24.61-8.79l9.13 11.17a125.8 125.8 0 0 0 97.33 46.14 26.43 26.43 0 0 0 26.42-26.43v-22.09c0-13 16.36-18.88 24.61-8.79a25.76 25.76 0 0 0 20.2 9.74 27.44 27.44 0 0 0 2.89-.14z" fill="#bfbcba"/><g fill="#423c59"><ellipse cx="204.7" cy="224.76" rx="28.96" ry="54.59"/><ellipse cx="307.3" cy="224.76" rx="28.96" ry="54.59"/><circle cx="256" cy="298.88" r="13.15"/></g><circle cx="175.74" cy="381.62" fill="#bfbcba" r="15.02"/><circle cx="336.26" cy="381.62" fill="#bfbcba" r="15.02"/></g></svg>