<svg viewBox="0 0 512 512" xmlns="http://www.w3.org/2000/svg"><g id="Layer_2" data-name="Layer 2"><path d="m433.66 331.19c-36.12-75.8-103.08-140.6-193.15-169.29a11.3 11.3 0 0 1 -6.28-16.54l45.58-76.85a11.33 11.33 0 0 1 15.08-4.23c109.8 58.82 170.25 165.83 160.31 263.2-1.2 11.52-16.58 14.12-21.54 3.71z" fill="#dadada"/><path d="m426 249.68a9.61 9.61 0 0 1 -7.56-6.26 244.38 244.38 0 0 0 -12.93-29.61 9.61 9.61 0 0 1 17.04-8.81 263.86 263.86 0 0 1 13.95 32 9.62 9.62 0 0 1 -10.5 12.68z" fill="#fff"/><path d="m397.19 193a9.55 9.55 0 0 1 -6.5-4.16 288.75 288.75 0 0 0 -60.42-65.28 9.62 9.62 0 0 1 12-15 308 308 0 0 1 64.42 69.64 9.62 9.62 0 0 1 -9.5 14.8z" fill="#fff"/><path d="m452.88 333.39c-4.74 6.1-15.29 6.08-19.22-2.19-36.13-75.81-103.08-140.61-193.15-169.29a11.32 11.32 0 0 1 -6.29-16.55l2.2-3.71c99.99 34.26 174.81 106.87 216.46 191.74z" fill="#bfbcba"/><path d="m314.52 38a21.3 21.3 0 0 0 -30.74 1.61c-23.76 27.7-68.81 86-79.86 141.48-11.21 56.3-91.61 118.42-133 147.11a35.6 35.6 0 0 0 -8 50.64c12.1 16.24 32.27 31.8 64.86 30.34a35.5 35.5 0 0 0 25.22-12.18c23.23-26.88 83.38-103.08 98.66-187.63 13.17-72.88 45.7-119.83 64.53-141.88a21.31 21.31 0 0 0 -1.67-29.49z" fill="#f49351"/><path d="m178.68 267.05a7.89 7.89 0 0 1 -4.68-13.05c21.45-24.47 34.07-46.56 37.53-65.66 2.83-15.64 8.45-32.64 16.68-50.53a7.9 7.9 0 0 1 14.36 6.61c-7.69 16.68-12.9 32.4-15.49 46.73-4 22-17.84 46.61-41.2 73.26a7.86 7.86 0 0 1 -7.2 2.64z" fill="#f9d171"/><path d="m252.15 115.23a7.68 7.68 0 0 1 -2.85-1 7.89 7.89 0 0 1 -2.68-10.84c4.16-6.9 8.7-14 13.5-21a7.9 7.9 0 0 1 13.06 8.89c-4.64 6.81-9 13.64-13 20.28a7.9 7.9 0 0 1 -8.03 3.67z" fill="#f9d171"/><path d="m153 397a35.45 35.45 0 0 1 -25.19 12.21c-32.64 1.45-52.81-14.11-64.9-30.35a36.09 36.09 0 0 1 -6.49-14.61c12.06 13.13 30.15 24 57 23.72a35.8 35.8 0 0 0 25.82-11.41c24.37-26.25 87.67-100.88 106.08-185.51 15.87-73 50.3-119.09 70.06-140.63a21.4 21.4 0 0 0 3.88-6 21.35 21.35 0 0 1 -3.06 23c-18.85 22-51.37 69-64.54 141.88-15.33 84.6-75.46 160.8-98.66 187.7z" fill="#e56a2c"/><ellipse cx="106.66" cy="317.02" fill="#423c59" rx="50.63" ry="39.12" transform="matrix(.631 -.775 .775 .631 -206.51 199.53)"/><path d="m103.33 259.28v114a113 113 0 0 0 25.54 71.57 95.19 95.19 0 0 0 73.68 34.92 20 20 0 0 0 20-20v-16.77a10.5 10.5 0 0 1 18.63-6.65l6.91 8.46a95.2 95.2 0 0 0 73.68 34.92 20 20 0 0 0 20-20v-16.73a10.5 10.5 0 0 1 18.63-6.65c11.89 14.54 35.47 6.13 35.47-12.66v-207a102.88 102.88 0 0 1 7.75-39.19l2.31-5.61a36.13 36.13 0 0 0 -33.41-49.87h-132a137.19 137.19 0 0 0 -137.19 137.26z" fill="#5c576e"/><g fill="#423c59"><circle cx="230.78" cy="250.51" r="104.99"/><path d="m381.17 388.48a13.49 13.49 0 0 1 14.69 13.52v21.71c0 12.2-9.95 20-20.18 20a19.51 19.51 0 0 1 -15.3-7.38 10.5 10.5 0 0 0 -18.62 6.67v16.73a20 20 0 0 1 -20 20 95.19 95.19 0 0 1 -73.68-34.92l-6.91-8.46a10.5 10.5 0 0 0 -18.63 6.65v16.73a20 20 0 0 1 -20 20 95.25 95.25 0 0 1 -73.68-34.92q-2.78-3.41-5.27-7c-7.87-11.29 4.42-25.56 16.83-19.61l.42.2a105.88 105.88 0 0 0 45.34 10.2 22.23 22.23 0 0 0 22.24-22.25v-18.6a11.68 11.68 0 0 1 20.72-7.4l7.69 9.41a105.92 105.92 0 0 0 82 38.84 22.23 22.23 0 0 0 22.17-22.19v-18.6a11.68 11.68 0 0 1 20.72-7.4 21.81 21.81 0 0 0 19.42 8.07z"/><circle cx="182.02" cy="406.69" r="12.64"/><circle cx="317.17" cy="406.69" r="12.64"/></g><path d="m311.73 302.22a5.91 5.91 0 0 1 .61-7.3c10.26-11 16.24-26.05 16.24-46 0-54-43.78-96.28-97.8-96.28s-97.78 42.28-97.78 96.29c0 19.94 6 35 16.24 46a5.91 5.91 0 0 1 .61 7.3 16 16 0 0 0 -2.77 9v9.69a16.09 16.09 0 0 0 16.08 16.08h9.68a16.11 16.11 0 0 0 15.16-10.64 1 1 0 0 1 1.88 0 16.11 16.11 0 0 0 15.12 10.64h9.69a16.1 16.1 0 0 0 15.14-10.65 1 1 0 0 1 1.89 0 16.09 16.09 0 0 0 15.15 10.65h9.69a16.11 16.11 0 0 0 15.14-10.65 1 1 0 0 1 1.88 0 16.11 16.11 0 0 0 15.15 10.65h9.68a16.09 16.09 0 0 0 16.09-16.09v-9.69a16 16 0 0 0 -2.77-9z" fill="#dadada"/><path d="m187.5 185a6 6 0 0 1 -3.12-11.15 88.6 88.6 0 0 1 13.23-6.58 6 6 0 1 1 4.44 11.17 77.64 77.64 0 0 0 -11.44 5.69 6 6 0 0 1 -3.11.87z" fill="#fff"/><path d="m151 232.88a6 6 0 0 1 -5.8-7.62 87 87 0 0 1 23-38.89 6 6 0 0 1 8.41 8.6 74.86 74.86 0 0 0 -19.82 33.5 6 6 0 0 1 -5.79 4.41z" fill="#fff"/><path d="m311.73 302.21a16 16 0 0 1 2.77 9v9.69a16.1 16.1 0 0 1 -16.09 16.1h-9.68a16.11 16.11 0 0 1 -15.15-10.65 1 1 0 0 0 -1.88 0 16.11 16.11 0 0 1 -15.15 10.65h-9.68a16.09 16.09 0 0 1 -15.14-10.65 1 1 0 0 0 -1.88 0 16.11 16.11 0 0 1 -15.15 10.65h-9.7a16.11 16.11 0 0 1 -15.14-10.65 1 1 0 0 0 -1.88 0 16.11 16.11 0 0 1 -15.13 10.65h-9.7a16.09 16.09 0 0 1 -16.08-16.09v-9.69c0-.22 0-.44 0-.66a110.27 110.27 0 0 0 164.67-116 95.16 95.16 0 0 1 16.83 54.38c0 20-6 35-16.24 46a5.89 5.89 0 0 0 -.6 7.27z" fill="#bfbcba"/><path d="m202.25 244.31c0 18.84-8.1 34.12-18.1 34.12-8.88 0-16.28-12.08-17.81-28a5.43 5.43 0 0 1 4.34-5.89c9.28-1.78 15.9-6.5 15.9-12 0-4-3.45-7.56-8.85-9.9a5.41 5.41 0 0 1 -1.6-8.88 11.79 11.79 0 0 1 8-3.52c10.02-.04 18.12 15.23 18.12 34.07z"/><path d="m266.24 244.31c0 18.84-8.1 34.12-18.1 34.12-8.88 0-16.28-12.08-17.81-28a5.43 5.43 0 0 1 4.34-5.89c9.28-1.78 15.9-6.5 15.9-12 0-4-3.45-7.56-8.85-9.9a5.41 5.41 0 0 1 -1.6-8.88 11.79 11.79 0 0 1 8-3.52c10.02-.04 18.12 15.23 18.12 34.07z"/><circle cx="216.21" cy="290.64" r="8.22"/></g></svg>