<svg viewBox="0 0 512 512" xmlns="http://www.w3.org/2000/svg"><g id="Layer_2" data-name="Layer 2"><path d="m230.59 445.56c-14-14-20.91-43.65-6.88-57.68s43.65-7.15 57.67 6.88a35.92 35.92 0 0 1 -50.79 50.8z" fill="#dadada"/><path d="m228.11 445.56c14-14 20.91-43.65 6.88-57.68s-43.65-7.15-57.68 6.88a35.92 35.92 0 0 0 50.8 50.8z" fill="#dadada"/><path d="m234.52 437.29a44.38 44.38 0 0 1 -6.41 8.27 35.92 35.92 0 0 1 -58.63-39 43 43 0 0 0 12.63 26.21c15.2 15.16 38.21 17 52.41 4.52z" fill="#bfbcba"/><path d="m291.35 413.85c-2.14 15.27-15.65 26.83-30.32 29.24a13.6 13.6 0 0 1 -15.81-14 54.53 54.53 0 0 0 -.22-9.09 1.77 1.77 0 0 0 -3.48-.14 54.1 54.1 0 0 1 -12.13 24.43c22.95 26.71 69.42 5.2 61.96-30.44z" fill="#bfbcba"/><path d="m198.71 242.6h61.27v162.91h-61.27z" fill="#dadada"/><path d="m260 303.51h-61.29v44.87q30.64 12.44 61.27 0z" fill="#bfbcba"/><path d="m367.47 115a25.6 25.6 0 0 0 -36.21 0l-11.53 11.5v-18.07a52.67 52.67 0 0 0 -52.66-52.67h-77.37a52.67 52.67 0 0 0 -52.7 52.67v73.35a77.66 77.66 0 0 0 11 40.38 78.35 78.35 0 0 1 11.37 40.65v40a31.81 31.81 0 0 0 31.81 31.81h82.72a31.81 31.81 0 0 0 31.8-31.81v-27.3a75.11 75.11 0 0 1 1.5-14.88l6.55-32.21a100 100 0 0 1 27.25-50.81l26.44-26.44a25.6 25.6 0 0 0 .03-36.17z" fill="#996acc"/><g fill="#ae86e2"><rect height="30.36" rx="13.07" width="26.13" x="143.17" y="109.46"/><rect height="30.36" rx="13.07" width="26.13" x="199.87" y="109.46"/><rect height="30.36" rx="13.07" width="26.13" x="252.59" y="109.46"/></g><path d="m288.85 139.89c-4.38 6.34-10.74 11.75-19.5 11.75-18.42 0-19.7-10.66-19.7-10.9-.47-54.74 8.88-72.74 9.12-73.19a6.3 6.3 0 0 0 -10.9-6.33c-1.16 2-11.33 12.83-10.83 71.5 0 .11 1.45 18.92-20.62 18.92-20 0-20.65-18.84-20.65-19-.47-54.77 8.87-64.6 9.12-65.06a6.31 6.31 0 0 0 -10.89-6.36c-1.16 2-10.82 21-10.82 79.62 0 6.95-5.7 10.8-19.67 10.8a26.46 26.46 0 0 1 -26.51-26.46v16.25c0 14.51 11.43 26.79 25.95 27.06a26.43 26.43 0 0 0 19.23-7.74c4.78-4.8 19.6 7.75 34.21 7.75a26.43 26.43 0 0 0 18.71-7.75c4.79-4.8 19.6 7.75 34.22 7.75a26.46 26.46 0 0 0 26.49-26.5 3.81 3.81 0 0 0 -6.96-2.11z" fill="#7e4ab7"/><path d="m199 228.79a51.63 51.63 0 0 0 20.28-12.31 9.31 9.31 0 0 1 13.32.13 44.68 44.68 0 0 0 21.18 12.68 3 3 0 0 1 -.11 5.8c-6.51 1.31-14.79 1.19-22.56-4.11a9.27 9.27 0 0 0 -10.35-.06c-4.86 3.21-12.7 6.57-21.78 3.52a3 3 0 0 1 .02-5.65z" fill="#7e4ab7"/><path d="m307.71 344.5a11 11 0 0 1 0 22.08c-6.1 0-21.56-4.94-21.56-11s15.46-11.08 21.56-11.08z" fill="#ffb25a"/><path d="m151.24 344.5a11 11 0 1 0 0 22.08c6.09 0 21.55-4.94 21.55-11s-15.46-11.08-21.55-11.08z" fill="#ffb25a"/></g></svg>