<svg viewBox="0 0 512 512" xmlns="http://www.w3.org/2000/svg"><g id="Layer_2" data-name="Layer 2"><ellipse cx="343.01" cy="311.5" fill="#ffb25a" rx="124.26" ry="157.02"/><ellipse cx="168.99" cy="311.5" fill="#f9d171" rx="124.26" ry="157.02"/><ellipse cx="168.99" cy="311.5" fill="#ffb25a" rx="124.26" ry="157.02"/><path d="m113.21 205.57a7.4 7.4 0 0 1 -5.08-12.78 100 100 0 0 1 24.87-17.32 7.4 7.4 0 1 1 6.45 13.31 84.88 84.88 0 0 0 -21.12 14.78 7.39 7.39 0 0 1 -5.12 2.01z" fill="#f9d171"/><path d="m69.84 318.9a7.4 7.4 0 0 1 -7.4-7.4c0-36.08 9.82-70.6 27.63-97.21a7.4 7.4 0 0 1 12.29 8.24c-16.2 24.19-25.13 55.79-25.13 89a7.39 7.39 0 0 1 -7.39 7.37z" fill="#f9d171"/><g fill="#f49351"><path d="m462.07 354.56c-19.18 24.84-58.73 8.25-54.9-22.9 16.7-135.78-155-256-187.85-35.2l-.57-2.19c-13.15 176.77 189 256 244 59.44z"/><path d="m254.43 425.5c30.55-36.12 40.93-84.84 38.81-131.23-.18.73-.37 1.45-.56 2.18-33.02-222.45-207.56-100.9-189.76 36.15 3.89 30-34.55 45.85-53 21.94l-.64-.83c19.42 106.03 137.28 156.15 205.15 71.79z"/><path d="m282.37 165.72 3-8.82a236.18 236.18 0 0 0 12.43-61.38l.91-13.72a36.05 36.05 0 0 0 -41.06-38.1 36.06 36.06 0 0 0 -30.22 43l4.47 21.59a134.7 134.7 0 0 1 .1 54.11 18 18 0 0 0 20.18 21.39l10-1.42a25.13 25.13 0 0 0 20.19-16.65z"/></g><path d="m250 146.23h-.2a6.83 6.83 0 0 1 -6.63-7 128 128 0 0 0 -2.6-29.54 6.83 6.83 0 1 1 13.43-2.79 141.92 141.92 0 0 1 2.88 32.7 6.83 6.83 0 0 1 -6.88 6.63z" fill="#ffb25a"/><path d="m242.8 93.53a6.81 6.81 0 0 1 -6.67-5.44 42.54 42.54 0 0 1 .47-19.47 6.83 6.83 0 1 1 13.21 3.44 28.83 28.83 0 0 0 -.31 13.26 6.83 6.83 0 0 1 -5.31 8.07 6.56 6.56 0 0 1 -1.39.14z" fill="#ffb25a"/><path d="m257.69 43.7c-.75.11-1.49.25-2.22.4a38.41 38.41 0 0 1 30.38 40.14l-1 14.6a251.72 251.72 0 0 1 -13.23 65.36l-3.24 9.38a26.69 26.69 0 0 1 -4.89 8.56 25.11 25.11 0 0 0 18.86-16.42l3-8.82a236.18 236.18 0 0 0 12.43-61.38l.91-13.72a36.05 36.05 0 0 0 -41-38.1z" fill="#e56a2c"/><ellipse cx="254.97" cy="311.5" fill="#ffb25a" rx="124.26" ry="157.02"/><path d="m361.47 310.35c0 74.32-47.69 134.57-106.5 134.57s-106.5-60.25-106.5-134.57v-.35c0-7.15 9.88-9.13 12.69-2.55 18 42.16 53.25 70.81 93.81 70.81s75.82-28.65 93.81-70.81c2.81-6.58 12.68-4.6 12.69 2.55z" fill="#f49351"/><ellipse cx="201.85" cy="274.92" fill="#423c59" rx="29.99" ry="48.04"/><ellipse cx="308.09" cy="274.92" fill="#423c59" rx="29.99" ry="48.04"/><circle cx="254.97" cy="331.44" fill="#423c59" r="13.62"/></g></svg>