<svg viewBox="0 0 512 512" xmlns="http://www.w3.org/2000/svg"><g id="Layer_2" data-name="Layer 2"><path d="m309.78 146.13a62.39 62.39 0 0 0 -25.68 25.68 9.15 9.15 0 0 1 -15.92 0c-6.6-11.7-14-19.08-25.68-25.68a9.16 9.16 0 0 1 0-15.92c11.71-6.6 19.08-14 25.68-25.67a9.15 9.15 0 0 1 15.92 0c6.6 11.7 14 19.07 25.68 25.67a9.15 9.15 0 0 1 0 15.92z" fill="#f9d171"/><path d="m312.59 132.65a9 9 0 0 1 -2.81 2.43 3.41 3.41 0 0 1 -4.64-1.25 25.38 25.38 0 0 0 -22-12.78 22.46 22.46 0 0 0 -18.9 9.74 16.52 16.52 0 0 1 -21.49 4.38l-.18-.11a9.12 9.12 0 0 1 -2.81-2.43 9.19 9.19 0 0 0 2.81 13.48c11.7 6.61 19.08 14 25.68 25.69a9.16 9.16 0 0 0 15.92 0 66.16 66.16 0 0 1 10.83-14.74 65.11 65.11 0 0 1 13.4-10.15l1.35-.78a9.18 9.18 0 0 0 2.84-13.48z" fill="#f49351"/><path d="m457.82 182.41a99.82 99.82 0 0 0 -41.18 41.18 14.69 14.69 0 0 1 -25.53 0c-10.59-18.77-22.41-30.6-41.18-41.18a14.69 14.69 0 0 1 0-25.53c18.77-10.59 30.59-22.41 41.18-41.18a14.69 14.69 0 0 1 25.53 0c10.58 18.77 22.41 30.59 41.18 41.18a14.69 14.69 0 0 1 0 25.53z" fill="#f9d171"/><path d="m462.33 160.79a14.93 14.93 0 0 1 -4.51 3.9h-.05a5.49 5.49 0 0 1 -7.45-2 40.65 40.65 0 0 0 -35.32-20.47c-14.67 0-24.2 7.24-30.32 15.61-7.91 10.82-22.79 13.64-34.45 7l-.29-.17a14.69 14.69 0 0 1 -4.51-3.9 14.74 14.74 0 0 0 4.51 21.62c18.76 10.59 30.59 22.4 41.18 41.18a14.69 14.69 0 0 0 25.53 0 106.28 106.28 0 0 1 17.5-23.62 104.23 104.23 0 0 1 21.5-16.28l2.16-1.24a14.75 14.75 0 0 0 4.52-21.63z" fill="#f49351"/><path d="m370.66 375.9a199.26 199.26 0 0 1 -123.8 43.53c-107.47.43-196.86-85.12-200.86-192.52a200.1 200.1 0 0 1 103.6-183.09c15.58-8.58 33.55 7.26 27 23.78a199.55 199.55 0 0 0 -14.22 72.91c-.77 108.43 86.18 198.49 194.62 201.49l1.92.05c17.77.27 25.68 22.75 11.74 33.85z" fill="#f9d171"/><path d="m370.67 375.91a199.32 199.32 0 0 1 -123.81 43.52c-107.47.44-196.86-85.12-200.86-192.52 0-.13 0-.26 0-.4-.24-6.95 9.51-8.8 11.89-2.27 28.2 77.21 102.77 132.19 189 131.85a199.32 199.32 0 0 0 80.39-17.18 198.85 198.85 0 0 0 29.72 3.09h1.91c17.79.32 25.69 22.79 11.76 33.91z" fill="#f49351"/><path d="m411.08 338.2a5 5 0 0 1 -4.15-5 89.53 89.53 0 0 0 -155.83-60.2 5 5 0 0 1 -6.42.81 66.63 66.63 0 0 0 -102.59 56.18c0 1.06 0 2.11.08 3.15a5 5 0 0 1 -4.14 5.14 66.74 66.74 0 0 0 -54.86 64.72c-.47 37.17 30.66 67.58 67.83 67.58h247.31c37.18 0 68.3-30.42 67.82-67.6a66.71 66.71 0 0 0 -55.05-64.78z" fill="#5c576e"/><path d="m268.66 293a63.32 63.32 0 0 1 16.61-14.25" fill="none" stroke="#7e7b8e" stroke-linecap="round" stroke-miterlimit="10" stroke-width="26.43"/><path d="m168.51 329.94a40.34 40.34 0 0 1 40.29-40.29 39.85 39.85 0 0 1 14.42 2.69" fill="none" stroke="#7e7b8e" stroke-linecap="round" stroke-miterlimit="10" stroke-width="26.43"/><path d="m466.14 403.88a66.72 66.72 0 0 1 -66.72 66.71h-249.54a66.72 66.72 0 0 1 -66.72-66.71c0-1.78.07-3.56.22-5.3a66.71 66.71 0 0 0 58.62 34.75h249.5a66.72 66.72 0 0 0 66.5-61.4 66.37 66.37 0 0 1 8.14 31.95z" fill="#423c59"/></g></svg>