<svg viewBox="0 0 512 512" xmlns="http://www.w3.org/2000/svg"><g id="Layer_2" data-name="Layer 2"><path d="m305.06 192.76-107.78-107.76-104.74 104.72 107.78 107.78a140.66 140.66 0 1 0 104.74-104.74z" fill="#5c576e"/><path d="m477.25 316.05a140.65 140.65 0 1 1 -280.64 13.21 140.65 140.65 0 0 0 280.64-13.21z" fill="#423c59"/><path d="m292.11 230.37-119.78-119.77-54.17 54.17 119.77 119.78a109.07 109.07 0 1 0 54.18-54.18z" fill="#423c59"/><rect fill="#5c576e" height="44.13" rx="22.06" transform="matrix(.707 -.707 .707 .707 -58.09 150.94)" width="186.63" x="59.84" y="123.53"/><rect fill="#7e7b8e" height="17.08" rx="8.54" transform="matrix(.707 -.707 .707 .707 -96.99 130.69)" width="37.54" x="90.5" y="173.88"/><path d="m417.39 255.73a109 109 0 0 1 -3 151.07c-.95.95-1.91 1.87-2.87 2.77a109.13 109.13 0 0 1 -170-27.69 87 87 0 0 1 92.8-59.82c40.11 4.62 77.39-23.49 82.81-63.5.07-.96.18-1.9.26-2.83z" fill="#7e4ab7"/><path d="m263.22 409.9a109 109 0 0 0 151.08-3c.95-.95 1.86-1.9 2.76-2.87a109.1 109.1 0 0 0 -27.69-170 87 87 0 0 0 -59.82 92.8c4.63 40.11-23.49 77.39-63.5 82.81-.96.07-1.9.17-2.83.26z" fill="#996acc"/><circle cx="279.15" cy="301.03" fill="#996acc" r="19.89"/><circle cx="387.16" cy="292.7" fill="#ae86e2" r="28.47"/><circle cx="362.53" cy="378.47" fill="#ae86e2" r="18.06"/><g fill="#996acc"><circle cx="114.56" cy="58.49" r="16.83"/><circle cx="65.9" cy="118.53" r="31.8"/></g></g></svg>