<svg viewBox="0 0 512 512" xmlns="http://www.w3.org/2000/svg"><g id="Layer_2" data-name="Layer 2"><path d="m444.63 336.26c-51.29-74.89-133.63-132.86-234.63-148.37a12.22 12.22 0 0 1 -9.49-16.61l35.79-89.73a12.24 12.24 0 0 1 15.39-7c127.09 44.35 209.6 148.45 215.31 254.13.68 12.45-15.32 17.87-22.37 7.58z" fill="#dadada"/><path d="m422.74 250.5a10.38 10.38 0 0 1 -9.13-5.41 263.86 263.86 0 0 0 -18.78-29.45 10.39 10.39 0 0 1 16.76-12.3 285.62 285.62 0 0 1 20.26 31.78 10.39 10.39 0 0 1 -9.11 15.38z" fill="#fff"/><path d="m382.49 194.75a10.37 10.37 0 0 1 -7.64-3.35 312.14 312.14 0 0 0 -75.48-59.58 10.39 10.39 0 0 1 10.28-18.07 332.82 332.82 0 0 1 80.48 63.56 10.39 10.39 0 0 1 -7.64 17.44z" fill="#fff"/><path d="m465.53 335.38c-4 7.31-15.3 9.06-20.9.89-51.29-74.9-133.63-132.87-234.63-148.38a12.22 12.22 0 0 1 -9.49-16.61l1.73-4.34c112.49 19.81 204.57 84.8 263.29 168.44z" fill="#bfbcba"/><path d="m268.2 43.17a23 23 0 0 0 -32.55 6.88c-20.73 33.56-59.06 103.39-61.55 164.49-2.52 62-77.95 141.84-117.31 179.41a38.5 38.5 0 0 0 -.08 55.44c15.64 15.31 39.79 28.54 74.35 21.51a38.38 38.38 0 0 0 24.85-17.28c20.3-32.6 71.74-124.07 73.88-216.93 1.83-80 28.69-135.63 45.1-162.34a23 23 0 0 0 -6.69-31.18z" fill="#f49351"/><path d="m161.57 310.55a8.53 8.53 0 0 1 -7.21-13.1c18.8-29.73 28.57-55.44 29.06-76.42.4-17.18 3.54-36.28 9.34-56.76a8.54 8.54 0 1 1 16.43 4.65c-5.4 19.1-8.32 36.77-8.69 52.51-.56 24.12-11.23 52.77-31.7 85.15a8.54 8.54 0 0 1 -7.23 3.97z" fill="#f9d171"/><path d="m214.56 136.09a8.53 8.53 0 0 1 -7.9-11.76c3.28-8.06 6.94-16.37 10.89-24.7a8.54 8.54 0 1 1 15.45 7.31c-3.81 8-7.35 16.07-10.52 23.84a8.53 8.53 0 0 1 -7.92 5.31z" fill="#f9d171"/><path d="m155.91 453.63a38.36 38.36 0 0 1 -24.85 17.26c-34.57 7-58.72-6.19-74.35-21.51a38.87 38.87 0 0 1 -9.39-14.51c15.09 12 36.22 20.54 64.81 15.77a38.68 38.68 0 0 0 25.66-16.51c21.61-32.13 76.69-122.45 82.21-215.92 4.7-80.56 33.73-135.61 51.21-161.94a22.87 22.87 0 0 0 3.14-7 23 23 0 0 1 .59 25.11c-16.42 26.71-43.27 82.31-45.11 162.34-2.18 92.83-53.62 184.28-73.92 216.91z" fill="#e56a2c"/></g></svg>