<svg viewBox="0 0 512 512" xmlns="http://www.w3.org/2000/svg"><g id="Layer_2" data-name="Layer 2"><path d="m352 221.32a7 7 0 0 1 .73-8.62c12.11-13 19.17-30.76 19.17-54.31 0-63.79-51.7-113.69-115.49-113.69s-115.41 49.9-115.41 113.69c0 23.55 7.06 41.29 19.17 54.31a7 7 0 0 1 .73 8.62 18.8 18.8 0 0 0 -3.3 10.68v11.4a19 19 0 0 0 19 19h11.4a19 19 0 0 0 17.88-12.58 1.19 1.19 0 0 1 2.23 0 19 19 0 0 0 17.89 12.58h11.44a19 19 0 0 0 17.88-12.58 1.19 1.19 0 0 1 2.23 0 19 19 0 0 0 17.88 12.58h11.44a19 19 0 0 0 17.88-12.58 1.19 1.19 0 0 1 2.23 0 19 19 0 0 0 17.88 12.58h11.44a19 19 0 0 0 19-19v-11.4a18.8 18.8 0 0 0 -3.3-10.68z" fill="#dadada"/><path d="m218.11 80.77a7.34 7.34 0 0 1 -2.9-14.08 103.29 103.29 0 0 1 30-7.78 7.34 7.34 0 1 1 1.54 14.59 89 89 0 0 0 -25.75 6.67 7.19 7.19 0 0 1 -2.89.6z" fill="#fff"/><path d="m163.74 147.32a7 7 0 0 1 -1.44-.15 7.32 7.32 0 0 1 -5.76-8.63 98.29 98.29 0 0 1 27.78-51.18 7.34 7.34 0 0 1 10.26 10.49 83.73 83.73 0 0 0 -23.66 43.56 7.34 7.34 0 0 1 -7.18 5.91z" fill="#fff"/><path d="m355.31 232v11.45a19 19 0 0 1 -19 19h-11.43a19 19 0 0 1 -17.88-12.63 1.18 1.18 0 0 0 -2.22 0 19 19 0 0 1 -17.88 12.57h-11.45a19 19 0 0 1 -17.88-12.57 1.19 1.19 0 0 0 -2.23 0 19 19 0 0 1 -17.88 12.57h-11.46a19 19 0 0 1 -17.88-12.57 1.18 1.18 0 0 0 -2.22 0 19 19 0 0 1 -17.9 12.57h-11.41a19 19 0 0 1 -19-19v-11.39c0-.51 0-1 .06-1.53a19 19 0 0 0 18.94 17.53h11.41a19 19 0 0 0 17.89-12.57 1.18 1.18 0 0 1 2.22 0 19 19 0 0 0 17.89 12.57h11.44a19 19 0 0 0 17.88-12.57 1.18 1.18 0 0 1 2.23 0 19 19 0 0 0 17.9 12.57h11.44a19 19 0 0 0 17.88-12.57 1.18 1.18 0 0 1 2.22 0 19 19 0 0 0 17.89 12.57h11.44a19 19 0 0 0 18.93-17.53c.04.46.06.98.06 1.53z" fill="#bfbcba"/><path d="m239.32 152.93c0 22.25-9.56 40.3-21.37 40.3-10.49 0-19.23-14.27-21-33.08a6.43 6.43 0 0 1 5.13-7c11-2.1 18.78-7.67 18.78-14.2 0-4.72-4.07-8.93-10.46-11.7a6.38 6.38 0 0 1 -1.88-10.47 13.87 13.87 0 0 1 9.47-4.17c11.77.04 21.33 18.08 21.33 40.32z"/><path d="m314.89 152.93c0 22.25-9.57 40.3-21.38 40.3-10.49 0-19.23-14.27-21-33.08a6.41 6.41 0 0 1 5.13-7c10.95-2.1 18.77-7.67 18.77-14.2 0-4.72-4.07-8.93-10.45-11.7a6.38 6.38 0 0 1 -1.96-10.43 13.89 13.89 0 0 1 9.47-4.17c11.85 0 21.42 18.04 21.42 40.28z"/><circle cx="255.81" cy="207.64" r="9.71"/><g fill="#dadada"><path d="m63.48 280.11c15.2-6.9 40.56-3.57 47.46 11.62s-7.26 36.49-22.45 43.39a30.21 30.21 0 0 1 -25-55z"/><path d="m64.22 278.16c6.9 15.19 28.2 29.36 43.39 22.45s18.52-32.26 11.62-47.45a30.21 30.21 0 1 0 -55 25z"/><path d="m448.69 424.57c-6.9-15.19-28.2-29.35-43.39-22.45s-18.52 32.27-11.62 47.46a30.21 30.21 0 0 0 55-25z"/><path d="m449.42 422.62c-15.19 6.91-40.55 3.58-47.42-11.62s7.26-36.49 22.45-43.4a30.21 30.21 0 1 1 25 55z"/><path d="m235.66 175.9h51.54v354.65h-51.54z" transform="matrix(.351 -.936 .936 .351 -161.11 473.97)"/></g><path d="m352.67 359.93-73.39 27.52-119.04-44.65 73.37-27.52z" fill="#bfbcba"/><path d="m444.16 417.1a36.72 36.72 0 0 1 4.62 7.49 30.21 30.21 0 0 1 -48.06 34.64 36.17 36.17 0 0 0 24.37-2.2c16.46-7.49 24.71-25.03 19.07-39.93z" fill="#bfbcba"/><path d="m442.49 365.41c11.4 6.2 16.51 20.25 14.07 32.52a11.43 11.43 0 0 1 -15.71 8.3 46.56 46.56 0 0 0 -7.25-2.48 1.49 1.49 0 0 0 -1.14 2.7 45.49 45.49 0 0 1 15.66 16.77c27.88-10.22 24.64-53.16-5.63-57.81z" fill="#bfbcba"/><path d="m71 277.26a37.71 37.71 0 0 0 -8.45 2.62 30.35 30.35 0 0 0 13.5 58 36.35 36.35 0 0 1 -17-17.77c-7.5-16.57-2.13-35.32 11.95-42.85z" fill="#bfbcba"/><path d="m106.42 239.26c-12.72-2.85-25.88 4.41-32.14 15.31a11.5 11.5 0 0 0 6.41 16.66 47 47 0 0 1 7.13 2.91 1.49 1.49 0 0 1 -.92 2.79 45.85 45.85 0 0 0 -22.9 2.36c-14.39-26.14 16.44-56.52 42.42-40.03z" fill="#bfbcba"/><path d="m448.52 280.11c-15.2-6.9-40.56-3.57-47.46 11.62s7.26 36.49 22.45 43.39a30.21 30.21 0 1 0 25-55z" fill="#dadada"/><path d="m447.78 278.16c-6.9 15.19-28.2 29.36-43.39 22.45s-18.52-32.26-11.62-47.45a30.21 30.21 0 1 1 55 25z" fill="#dadada"/><path d="m63.31 424.57c6.9-15.19 28.2-29.35 43.39-22.45s18.52 32.27 11.62 47.46a30.21 30.21 0 1 1 -55-25z" fill="#dadada"/><path d="m62.58 422.62c15.19 6.91 40.55 3.58 47.42-11.62s-7.26-36.49-22.45-43.4a30.21 30.21 0 1 0 -25 55z" fill="#dadada"/><path d="m224.81 175.9h51.54v354.65h-51.54z" fill="#dadada" transform="matrix(-.351 -.936 .936 -.351 7.82 711.89)"/><path d="m156 387.27a7.33 7.33 0 0 1 -2.57-14.2l155.08-58.16a7.34 7.34 0 0 1 5.15 13.74l-155.06 58.16a7.51 7.51 0 0 1 -2.6.46z" fill="#fff"/><path d="m341.53 317.7a7.33 7.33 0 0 1 -2.53-14.2l28.85-10.82a7.34 7.34 0 0 1 5.15 13.74l-28.84 10.81a7.3 7.3 0 0 1 -2.63.47z" fill="#fff"/><path d="m67.84 417.1a36.72 36.72 0 0 0 -4.62 7.49 30.21 30.21 0 0 0 48.06 34.64 36.17 36.17 0 0 1 -24.37-2.23c-16.46-7.46-24.71-25-19.07-39.9z" fill="#bfbcba"/><path d="m69.51 365.41c-11.4 6.2-16.51 20.25-14.07 32.52a11.43 11.43 0 0 0 15.71 8.3 46.56 46.56 0 0 1 7.25-2.48 1.49 1.49 0 0 1 1.14 2.7 45.49 45.49 0 0 0 -15.66 16.77c-27.88-10.22-24.64-53.16 5.63-57.81z" fill="#bfbcba"/><path d="m441 277.26a37.71 37.71 0 0 1 8.45 2.62 30.35 30.35 0 0 1 -13.5 58 36.35 36.35 0 0 0 17-17.77c7.5-16.57 2.13-35.32-11.95-42.85z" fill="#bfbcba"/><path d="m405.58 239.26c12.72-2.85 25.88 4.41 32.14 15.31a11.5 11.5 0 0 1 -6.41 16.66 47 47 0 0 0 -7.13 2.91 1.49 1.49 0 0 0 .92 2.79 45.85 45.85 0 0 1 22.9 2.36c14.39-26.14-16.44-56.52-42.42-40.03z" fill="#bfbcba"/></g></svg>