<svg viewBox="0 0 512 512" xmlns="http://www.w3.org/2000/svg"><g id="Layer_2" data-name="Layer 2"><path d="m241.55 465.69-16.22-8.18a7.67 7.67 0 0 0 -6.92 0l-16.22 8.18a7.7 7.7 0 0 1 -11.19-6.87v-94.13a7.69 7.69 0 0 1 7.69-7.7h46.31a7.69 7.69 0 0 1 7.69 7.7v94.13a7.7 7.7 0 0 1 -11.14 6.87z" fill="#423c59"/><path d="m110.55 57.5h290.9v356.65h-290.9z" fill="#996acc"/><path d="m128.55 176.85a7.5 7.5 0 0 1 -7.5-7.5v-24.44a7.5 7.5 0 0 1 15 0v24.44a7.5 7.5 0 0 1 -7.5 7.5z" fill="#ae86e2"/><path d="m128.55 311.74a7.5 7.5 0 0 1 -7.5-7.5v-109.11a7.5 7.5 0 1 1 15 0v109.11a7.5 7.5 0 0 1 -7.5 7.5z" fill="#ae86e2"/><path d="m401.45 402.26v11.89h-290.9v-11.89c0-26.32 27.72-43.1 51.25-31.3a210.79 210.79 0 0 0 188.4 0c23.52-11.8 51.25 4.98 51.25 31.3z" fill="#7e4ab7"/><g fill="#f49351"><path d="m110.55 103.07a12 12 0 0 1 -12-12v-33.57a12 12 0 0 1 12-12h33.55a12 12 0 0 1 12 12 12 12 0 0 1 -12 12h-9.51a12 12 0 0 0 -12 12v9.51a12 12 0 0 1 -12.04 12.06z"/><path d="m401.45 103.07a12 12 0 0 1 -12-12v-9.53a12 12 0 0 0 -12-12h-9.55a12 12 0 0 1 -12-12 12 12 0 0 1 12-12h33.55a12 12 0 0 1 12 12v33.51a12 12 0 0 1 -12 12.02z"/><path d="m401.45 426.17h-33.55a12 12 0 0 1 -12-12 12 12 0 0 1 12-12h9.51a12 12 0 0 0 12-12v-9.57a12 12 0 0 1 12-12 12 12 0 0 1 12 12v33.55a12 12 0 0 1 -11.96 12.02z"/><path d="m144.1 426.17h-33.55a12 12 0 0 1 -12-12v-33.57a12 12 0 0 1 12-12 12 12 0 0 1 12 12v9.51a12 12 0 0 0 12 12h9.51a12 12 0 0 1 12 12 12 12 0 0 1 -11.96 12.06z"/></g><circle cx="256" cy="235.82" fill="#996acc" r="98.97"/><path d="m256 346.81a111 111 0 1 1 111-111 111.12 111.12 0 0 1 -111 111zm0-197.93a86.95 86.95 0 1 0 87 86.94 87 87 0 0 0 -87-86.94z" fill="#f9d171"/><path d="m293.09 302.41a14.31 14.31 0 0 1 -6.64-1.65l-30.45-16-30.45 16a14.22 14.22 0 0 1 -20.64-15l5.81-33.91-24.63-24a14.22 14.22 0 0 1 7.91-24.28l34-4.95 15.22-30.85a14.23 14.23 0 0 1 25.52 0l15.26 30.85 34 4.95a14.22 14.22 0 0 1 7.88 24.27l-24.63 24 5.82 33.91a14.25 14.25 0 0 1 -14 16.65zm-37.09-34.41 36.32 19.09-6.94-40.44 29.39-28.64-40.61-5.9-18.16-36.76-18.16 36.8-40.61 5.9 29.39 28.64-6.94 40.44z" fill="#423c59"/><path d="m256 285.54-46-33.44 17.55-54.1h56.9l17.55 54.1zm-28.64-39.09 28.64 20.8 28.64-20.8-10.94-33.67h-35.4z" fill="#423c59"/></g></svg>