<svg viewBox="0 0 512 512" xmlns="http://www.w3.org/2000/svg"><g id="Layer_2" data-name="Layer 2"><g fill="#5c576e"><path d="m132.58 401a22.13 22.13 0 0 1 -21.76-18.2l-12.31-68.04a22.14 22.14 0 0 1 9-22l58.87-41.76a22.14 22.14 0 1 1 25.62 36.09l-47.41 33.64 9.8 54.2a22.13 22.13 0 0 1 -21.81 26.07z"/><path d="m379.42 401a22.13 22.13 0 0 1 -21.81-26.08l9.8-54.2-47.41-33.63a22.14 22.14 0 1 1 25.62-36.09l58.89 41.78a22.14 22.14 0 0 1 9 22l-12.31 68.05a22.13 22.13 0 0 1 -21.78 18.17z"/><path d="m186.32 210.28a22.05 22.05 0 0 1 -11.6-3.3l-49.49-30.51-46.06 30.18a22.14 22.14 0 1 1 -24.27-37l57.84-37.9a22.14 22.14 0 0 1 23.75-.32l61.51 37.86a22.15 22.15 0 0 1 -11.64 41z"/><path d="m325.68 210.28a22.14 22.14 0 0 1 -11.64-41l61.47-37.9a22.14 22.14 0 0 1 23.75.32l57.84 37.9a22.14 22.14 0 1 1 -24.27 37l-46.06-30.18-49.49 30.58a22.05 22.05 0 0 1 -11.6 3.28z"/><path d="m62.72 309.41a22.14 22.14 0 0 1 -19-33.54l35.61-59.28a22.16 22.16 0 0 1 21.29-10.59l71.83 7.41a22.14 22.14 0 1 1 -4.54 44l-57.83-6-28.36 47.26a22.13 22.13 0 0 1 -19 10.74z"/><path d="m449.28 309.41a22.14 22.14 0 0 1 -19-10.74l-28.36-47.21-57.83 6a22.14 22.14 0 1 1 -4.54-44l71.83-7.46a22.12 22.12 0 0 1 21.25 10.62l35.61 59.28a22.14 22.14 0 0 1 -19 33.54z"/></g><path d="m192 287.09-36.61 26a97.76 97.76 0 0 1 -21.39-39.09l32.37-23a22.14 22.14 0 1 1 25.63 36.09z" fill="#423c59"/><path d="m377 273.22a98.15 98.15 0 0 1 -21.12 39.31l-35.88-25.44a22.14 22.14 0 0 1 25.62-36.09z" fill="#423c59"/><path d="m205.18 199.76a22.13 22.13 0 0 1 -30.47 7.24l-32.92-20.3a157.4 157.4 0 0 1 22.88-37.91l33.33 20.5a22.14 22.14 0 0 1 7.18 30.47z" fill="#423c59"/><path d="m369.23 187.28-32 19.7a22.14 22.14 0 1 1 -23.23-37.69l32.46-20a157.87 157.87 0 0 1 22.77 37.99z" fill="#423c59"/><path d="m192.2 237.67a22.13 22.13 0 0 1 -24.29 19.76l-37.58-3.88q-.45-5.13-.45-10.48a138.42 138.42 0 0 1 4.26-33.64l38.31 3.95a22.13 22.13 0 0 1 19.75 24.29z" fill="#423c59"/><path d="m380.88 243.07c0 3.62-.15 7.15-.46 10.61l-36.34 3.75a22.14 22.14 0 0 1 -4.54-44.05l37.12-3.83a138.82 138.82 0 0 1 4.22 33.52z" fill="#423c59"/><path d="m367.88 237.69c0 62.13-50.37 98.29-112.5 98.29s-112.49-36.16-112.49-98.29 50.36-126.69 112.49-126.69 112.5 64.56 112.5 126.69z" fill="#5c576e"/><path d="m367.87 237.7c0 62.12-50.36 98.28-112.49 98.28s-112.49-36.16-112.49-98.28c0-3.27.14-6.55.42-9.82 4.92 54 53.21 85.19 112.07 85.19s107.15-31.17 112.07-85.19c.28 3.27.42 6.55.42 9.82z" fill="#423c59"/><path d="m176.29 198.56a7 7 0 0 1 -6.67-9.14 95.56 95.56 0 0 1 22.38-36.84 7 7 0 0 1 10 9.8 81.27 81.27 0 0 0 -19 31.31 7 7 0 0 1 -6.71 4.87z" fill="#7e7b8e"/><path d="m219.76 148.16a7 7 0 0 1 -2.93-13.36 60.33 60.33 0 0 1 23.66-5.8h.19a7 7 0 0 1 .18 14 46.14 46.14 0 0 0 -18.17 4.48 7 7 0 0 1 -2.93.68z" fill="#7e7b8e"/><path d="m239.65 226.58c0 21.23-9.13 38.45-20.4 38.45-10 0-18.35-13.62-20.07-31.57a6.13 6.13 0 0 1 4.9-6.64c10.45-2 17.91-7.32 17.91-13.55 0-4.5-3.88-8.52-10-11.16a6.09 6.09 0 0 1 -1.8-10 13.25 13.25 0 0 1 9-4c11.33.03 20.46 17.24 20.46 38.47z"/><path d="m311.76 226.58c0 21.23-9.13 38.45-20.4 38.45-10 0-18.35-13.62-20.07-31.57a6.13 6.13 0 0 1 4.9-6.64c10.45-2 17.91-7.32 17.91-13.55 0-4.5-3.88-8.52-10-11.16a6.09 6.09 0 0 1 -1.8-10 13.25 13.25 0 0 1 9-4c11.33.03 20.46 17.24 20.46 38.47z"/><circle cx="255.38" cy="278.78" fill="#423c59" r="9.26"/></g></svg>