<svg viewBox="0 0 512 512" xmlns="http://www.w3.org/2000/svg"><g id="Layer_2" data-name="Layer 2"><path d="m376.82 46.74c-22 38.05-219.67 38.05-241.64 0 21.97 38.05-76.88 209.26-120.81 209.26 43.93 0 142.78 171.21 120.81 209.26 22-38.05 219.67-38.05 241.64 0-21.97-38.05 76.88-209.26 120.81-209.26-43.93 0-142.78-171.21-120.81-209.26z" fill="#dadada"/><path d="m376.82 472.37a7.12 7.12 0 0 1 -6.16-3.56c-1.89-3.26-9.49-11.55-39.28-18-20.77-4.5-47.54-7-75.38-7s-54.61 2.48-75.38 7c-29.79 6.45-37.39 14.74-39.28 18a7.11 7.11 0 1 1 -12.31-7.1c1.88-3.27 5.26-14-4-43-6.49-20.23-17.73-44.65-31.65-68.76s-29.45-46.06-43.73-61.8c-20.48-22.57-31.46-25-35.23-25a7.11 7.11 0 1 1 0-14.22c3.77 0 14.75-2.44 35.23-25 14.28-15.74 29.81-37.69 43.73-61.8s25.11-48.58 31.62-68.81c9.31-29 5.93-39.76 4-43a7.11 7.11 0 1 1 12.31-7.11c1.89 3.26 9.49 11.55 39.28 18 20.77 4.5 47.54 7 75.38 7s54.61-2.48 75.38-7c29.79-6.45 37.39-14.74 39.28-18a7.11 7.11 0 1 1 12.37 7.09c-1.88 3.26-5.26 14 4 43 6.49 20.23 17.73 44.65 31.65 68.76s29.45 46.06 43.73 61.8c20.48 22.57 31.46 25 35.23 25a7.11 7.11 0 0 1 0 14.22c-3.77 0-14.75 2.44-35.23 25-14.28 15.74-29.81 37.69-43.73 61.8s-25.14 48.57-31.65 68.8c-9.31 29-5.93 39.76-4 43a7 7 0 0 1 1 3.55 7.11 7.11 0 0 1 -7.11 7.11zm-120.82-42.75c40.33 0 85.68 5 110.67 18.06 1.17-28.18 19.52-69.94 39.68-104.87s47.17-71.7 71-86.81c-23.81-15.11-50.81-51.88-71-86.81s-38.51-76.69-39.68-104.87c-25 13.07-70.34 18.06-110.67 18.06s-85.68-5-110.67-18.06c-1.17 28.18-19.52 69.94-39.68 104.87s-47.17 71.7-71 86.81c23.81 15.11 50.81 51.88 71 86.81s38.51 76.69 39.68 104.87c24.99-13.07 70.34-18.06 110.67-18.06z" fill="#423c59"/><path d="m180.33 387.07c13.76-23.83-48.15-131.07-75.67-131.07 27.52 0 89.43-107.23 75.67-131.06 13.76 23.83 137.58 23.83 151.34 0-13.76 23.83 48.15 131.06 75.67 131.06-27.52 0-89.43 107.24-75.67 131.07-13.76-23.83-137.58-23.83-151.34 0z" fill="#bfbcba"/><g fill="#423c59"><path d="m331.68 394.18a7.09 7.09 0 0 1 -6.16-3.56c-4.07-7-31.18-14.32-69.52-14.32s-65.45 7.28-69.51 14.32a7.11 7.11 0 0 1 -12.32-7.11c4.07-7-3.18-34.16-22.35-67.36s-39-53-47.16-53a7.11 7.11 0 1 1 0-14.22c8.13 0 28-19.84 47.16-53s26.42-60.32 22.35-67.36a7.11 7.11 0 0 1 12.32-7.11c4.06 7 31.17 14.32 69.51 14.32s65.45-7.28 69.52-14.32a7.11 7.11 0 0 1 12.31 7.11c-4.07 7 3.19 34.16 22.35 67.36s39 53 47.16 53a7.11 7.11 0 0 1 0 14.22c-8.13 0-28 19.84-47.16 53s-26.42 60.32-22.35 67.36a7.12 7.12 0 0 1 -6.15 10.67zm-209.6-138.18c18.19 13.48 35.89 42.38 42.05 53s22.33 40.48 24.87 63c20.77-9 54.64-9.9 67-9.9s46.19.89 67 9.9c2.58-22.5 18.76-52.28 24.91-62.94s23.86-39.56 42.05-53c-18.19-13.48-35.89-42.38-42.05-53s-22.37-40.54-24.91-63.06c-20.77 9-54.64 9.9-67 9.9-12.32 0-46.19-.88-67-9.9-2.58 22.5-18.75 52.28-24.91 62.94s-23.82 39.58-42.01 53.06z"/><path d="m225.47 316a7.12 7.12 0 0 1 -6.33-10.34c.32-2.06-1.41-10.38-8.84-23.26s-13.77-18.53-15.72-19.28a7.11 7.11 0 0 1 0-14.2c1.95-.75 8.29-6.41 15.72-19.28s9.16-21.2 8.84-23.26a7.11 7.11 0 0 1 12.3-7.1c1.62 1.31 9.69 4 24.56 4s22.94-2.66 24.56-4a7.12 7.12 0 0 1 13.08 3.88 7.27 7.27 0 0 1 -.78 3.22c-.32 2.06 1.41 10.38 8.84 23.26s13.77 18.53 15.72 19.28a7.11 7.11 0 0 1 0 14.2c-1.95.75-8.29 6.41-15.72 19.28s-9.16 21.2-8.84 23.26a7.27 7.27 0 0 1 .78 3.22 7.11 7.11 0 0 1 -13.08 3.88c-1.62-1.31-9.69-4-24.56-4s-22.94 2.66-24.56 4a7.12 7.12 0 0 1 -5.97 3.24zm-17.06-60c5.81 5.67 10.92 13.59 14.2 19.27s7.59 14.07 9.6 21.94c7.81-2.19 17.22-2.66 23.79-2.66s16 .47 23.79 2.66c2-7.87 6.31-16.25 9.6-21.94s8.39-13.6 14.2-19.27c-5.81-5.67-10.92-13.59-14.2-19.27s-7.59-14.07-9.6-21.94c-7.79 2.21-17.22 2.66-23.79 2.66-6.57 0-16-.47-23.79-2.66-2 7.87-6.31 16.25-9.6 21.94s-8.39 13.6-14.2 19.27z"/><path d="m376.82 472.37a7.12 7.12 0 0 1 -6.16-3.56l-241.66-418.51a7.11 7.11 0 1 1 12.31-7.11l241.69 418.52a7.1 7.1 0 0 1 -6.15 10.66z"/><path d="m135.18 472.37a7.1 7.1 0 0 1 -6.18-10.66l241.66-418.52a7.11 7.11 0 1 1 12.34 7.11l-241.66 418.51a7.12 7.12 0 0 1 -6.16 3.56z"/><path d="m497.63 263.11h-483.26a7.11 7.11 0 1 1 0-14.22h483.26a7.11 7.11 0 0 1 0 14.22z"/></g></g></svg>