<svg viewBox="0 0 512 512" xmlns="http://www.w3.org/2000/svg"><g id="Layer_2" data-name="Layer 2"><path d="m256 42.36a153.85 153.85 0 0 1 153.85 153.84v248.17a0 0 0 0 1 0 0h-307.7a0 0 0 0 1 0 0v-248.17a153.85 153.85 0 0 1 153.85-153.84z" fill="#5c576e"/><path d="m221.77 73.79a7 7 0 0 1 -1.77-13.79 141 141 0 0 1 36-4.66 7 7 0 0 1 0 14 126.66 126.66 0 0 0 -32.43 4.2 7 7 0 0 1 -1.8.25z" fill="#7e7b8e"/><path d="m122.15 203.2a7 7 0 0 1 -7-7 141.23 141.23 0 0 1 71.9-122.79 7 7 0 1 1 6.88 12.2 127.2 127.2 0 0 0 -64.78 110.59 7 7 0 0 1 -7 7z" fill="#7e7b8e"/><path d="m142.53 404v-207.8a113.47 113.47 0 0 1 226.94 0v207.8z" fill="#423c59"/><path d="m409.85 353.81v90.55h-307.7v-76.17a36.8 36.8 0 0 1 8.64 3.55c11 6.26 24.82 4.09 34-4.57a49.69 49.69 0 0 1 69.58 1.41 24.9 24.9 0 0 0 31.07 3.75 36.37 36.37 0 0 1 43 3.71c7.55 6.65 18.5 7.22 27.47 2.65a27.78 27.78 0 0 1 23.32-.83c10 4.21 21.5 2 28.43-6.33a49.63 49.63 0 0 1 42.19-17.72z"/><path d="m422.68 411.56c0-18.67-12.36-35.4-30.44-40.08a41.67 41.67 0 0 0 -43 13.5c-5.79 6.94-15.42 8.81-23.74 5.29a23.15 23.15 0 0 0 -19.48.69c-7.49 3.82-16.64 3.34-22.95-2.21a30.35 30.35 0 0 0 -35.91-3.1 20.79 20.79 0 0 1 -25.95-3.13 41.5 41.5 0 0 0 -58.11-1.18c-7.69 7.23-19.24 9-28.41 3.82a30.26 30.26 0 0 0 -16.5-3.94c-16.34.77-28.91 14.84-28.91 31.2v19.58h8a30.28 30.28 0 0 0 44.86 0h13.33a41.47 41.47 0 0 0 72.22 0h12.94a30.28 30.28 0 0 0 44.86 0h20.28a23.1 23.1 0 0 0 21.56 0h17.67a41.51 41.51 0 0 0 72.27 0h5.38z" fill="#ffb25a"/><rect fill="#e56a2c" height="50.56" rx="6.96" width="356.92" x="77.54" y="419.09"/><rect fill="#f9d171" height="17.4" rx="8.17" width="28.98" x="89.32" y="429.96"/><rect fill="#f9d171" height="17.4" rx="8.7" width="159.52" x="131.88" y="429.96"/><path d="m324.68 249.58a5 5 0 0 1 .52-6.19c8.71-9.36 13.78-22.1 13.78-39 0-45.83-37.15-81.69-83-81.69s-83 35.86-83 81.69c0 16.93 5.07 29.67 13.77 39a5 5 0 0 1 .52 6.19 13.59 13.59 0 0 0 -2.35 7.65v8.22a13.65 13.65 0 0 0 13.65 13.65h8.22a13.65 13.65 0 0 0 12.85-9 .85.85 0 0 1 1.6 0 13.65 13.65 0 0 0 12.85 9h8.22a13.65 13.65 0 0 0 12.85-9 .85.85 0 0 1 1.6 0 13.65 13.65 0 0 0 12.85 9h8.22a13.65 13.65 0 0 0 12.85-9 .85.85 0 0 1 1.6 0 13.65 13.65 0 0 0 12.85 9h8.22a13.65 13.65 0 0 0 13.65-13.65v-8.22a13.52 13.52 0 0 0 -2.32-7.65z" fill="#dadada"/><path d="m243.69 200.45c0 16-6.87 29-15.36 29-7.54 0-13.82-10.25-15.11-23.77a4.61 4.61 0 0 1 3.68-5c7.87-1.51 13.49-5.51 13.49-10.21 0-3.39-2.92-6.41-7.51-8.4a4.59 4.59 0 0 1 -1.35-7.53 10 10 0 0 1 6.8-3c8.49-.04 15.36 12.92 15.36 28.91z"/><path d="m298 200.45c0 16-6.88 29-15.36 29-7.54 0-13.82-10.25-15.12-23.77a4.62 4.62 0 0 1 3.69-5c7.87-1.51 13.49-5.51 13.49-10.21 0-3.39-2.92-6.41-7.51-8.4a4.59 4.59 0 0 1 -1.36-7.53 10 10 0 0 1 6.81-3c8.47-.04 15.36 12.92 15.36 28.91z"/><circle cx="255.54" cy="239.75" r="6.97"/><ellipse cx="110.34" cy="399.01" fill="#f9d171" rx="11.9" ry="8.46" transform="matrix(.614 -.789 .789 .614 -272.36 241.14)"/><ellipse cx="370.1" cy="389.41" fill="#f9d171" rx="11.9" ry="8.46" transform="matrix(.794 -.608 .608 .794 -160.48 305.17)"/><g fill="#fff"><path d="m229.7 146.67a5.87 5.87 0 0 1 -2.31-11.27 82.77 82.77 0 0 1 24-6.23 5.87 5.87 0 1 1 1.23 11.68 71.48 71.48 0 0 0 -20.62 5.35 5.89 5.89 0 0 1 -2.3.47z"/><path d="m186.17 200a6.6 6.6 0 0 1 -1.16-.11 5.88 5.88 0 0 1 -4.61-6.91 78.69 78.69 0 0 1 22.25-41 5.87 5.87 0 0 1 8.21 8.4 66.94 66.94 0 0 0 -18.94 34.88 5.87 5.87 0 0 1 -5.75 4.74z"/></g></g></svg>