<svg viewBox="0 0 512 512" xmlns="http://www.w3.org/2000/svg"><g id="Layer_2" data-name="Layer 2"><path d="m373.92 335.74-22.62-75.28a146.12 146.12 0 0 0 -32.12-56.55l-8.53-9.32a20 20 0 0 1 -3.3-22.08l3.29-6.89a80.62 80.62 0 0 0 -2.13-73.62l-21.35-38.77c-8.81-16-32.7-12.77-36.92 5a145.82 145.82 0 0 1 -21.05 47.92l-46.73 69.13a121.52 121.52 0 0 0 -20.83 66.1 121.58 121.58 0 0 1 -5.12 33l-18.42 61.32a20 20 0 0 0 19.12 25.72h197.58a20 20 0 0 0 19.13-25.68z" fill="#5c576e"/><path d="m201.65 249.61h-.13a8.22 8.22 0 0 1 -8.09-8.35 129.35 129.35 0 0 1 22.24-70.58l15.7-23.22a8.22 8.22 0 1 1 13.62 9.2l-15.71 23.23a113 113 0 0 0 -19.41 61.64 8.22 8.22 0 0 1 -8.22 8.08z" fill="#7e7b8e"/><path d="m253.6 137.45a8.21 8.21 0 0 1 -6.8-12.82l15.6-23.07a8.22 8.22 0 0 1 13.6 9.21l-15.59 23.07a8.21 8.21 0 0 1 -6.81 3.61z" fill="#7e7b8e"/><path d="m279.55 45.43a19.44 19.44 0 0 0 -9.55 12.81 145.84 145.84 0 0 1 -8.36 24.91 144.87 144.87 0 0 1 -12.69 23l-46.74 69.13a121.43 121.43 0 0 0 -20.82 66.1 124.17 124.17 0 0 1 -1.42 16.69 121.84 121.84 0 0 1 -3.71 16.34l-18.42 61.32a20 20 0 0 0 19.12 25.72h-19.75a20 20 0 0 1 -19.12-25.72l18.42-61.32a120.29 120.29 0 0 0 3.7-16.34 122.56 122.56 0 0 0 1.43-16.69 121.35 121.35 0 0 1 20.82-66.1l46.73-69.13a146 146 0 0 0 21.05-47.92c3.3-13.87 18.58-18.89 29.31-12.8z" fill="#423c59"/><path d="m372.21 356.73h-232.41a11 11 0 0 1 -10.5-14.11l10.84-36.11a11 11 0 0 1 10.5-7.81h210.72a11 11 0 0 1 10.5 7.81l10.84 36.11a11 11 0 0 1 -10.49 14.11z" fill="#423c59"/><path d="m450.81 469.12h-389.62a19.28 19.28 0 0 1 -16.32-29.56l31-49.17a79.64 79.64 0 0 1 67.4-37.2h225.5a79.63 79.63 0 0 1 67.4 37.2l31 49.17a19.28 19.28 0 0 1 -16.36 29.56z" fill="#5c576e"/><path d="m163 353.19c-27.36 0-82.06 94.84-82.06 115.93h-19.75a19.29 19.29 0 0 1 -16.32-29.57l31-49.16a79.64 79.64 0 0 1 67.4-37.2z" fill="#423c59"/><rect fill="#dadada" height="97.42" rx="21.59" transform="matrix(0 1 -1 0 583.72 71.72)" width="98.52" x="206.74" y="279.01"/><path d="m300.23 368.53a21.47 21.47 0 0 1 -17.11 8.47h-54.23a21.59 21.59 0 0 1 -21.6-21.59v-55.36a21.61 21.61 0 0 1 12.28-19.49 21.48 21.48 0 0 0 -4.49 13.16v55.33a21.59 21.59 0 0 0 21.6 21.59h54.23a21.35 21.35 0 0 0 9.32-2.11z" fill="#bfbcba"/><rect fill="#423c59" height="58.03" rx="11.93" width="56.93" x="227.54" y="298.7"/><g fill="#7e7b8e"><path d="m422.89 454h-22.64a8.22 8.22 0 1 1 0-16.43h22.64a8.22 8.22 0 1 1 0 16.43z"/><path d="m374.77 454h-43.92a8.22 8.22 0 1 1 0-16.43h43.92a8.22 8.22 0 1 1 0 16.43z"/></g></g></svg>