<svg viewBox="0 0 512 512" xmlns="http://www.w3.org/2000/svg"><g id="Layer_2" data-name="Layer 2"><path d="m443.31 204.93c33.88 0 53.59 27.46 53.59 61.34s-19.71 61.34-53.59 61.34-69.09-27.46-69.09-61.34 35.21-61.34 69.09-61.34z" fill="#996acc"/><path d="m68.69 204.93c-33.88 0-53.59 27.46-53.59 61.34s19.71 61.34 53.59 61.34 69.09-27.46 69.09-61.34-35.21-61.34-69.09-61.34z" fill="#996acc"/><path d="m429 224.06c31.3 0 49.51 18.9 49.51 42.21s-18.18 42.22-49.51 42.22-63.82-18.9-63.82-42.22 32.56-42.21 63.82-42.21z" fill="#7e4ab7"/><path d="m83 224.06c-31.3 0-49.51 18.9-49.51 42.21s18.18 42.22 49.51 42.22 63.82-18.9 63.82-42.22-32.56-42.21-63.82-42.21z" fill="#7e4ab7"/><path d="m358.59 100.94a46.63 46.63 0 0 0 -62.06-31.41 46.71 46.71 0 0 0 -87.49 0 46.63 46.63 0 0 0 -62.04 31.41 52.09 52.09 0 1 0 38.19 91.49 52 52 0 0 0 67.62 0 52 52 0 0 0 67.61 0 52.08 52.08 0 1 0 38.19-91.49z" fill="#ffadb6"/><path d="m358.59 152.21a46.6 46.6 0 0 0 -62.06-31.41 46.71 46.71 0 0 0 -87.49 0 46.6 46.6 0 0 0 -62.04 31.41 52.09 52.09 0 1 0 38.19 91.48 51.94 51.94 0 0 0 67.62 0 51.93 51.93 0 0 0 67.61 0 52.08 52.08 0 1 0 38.19-91.48z" fill="#ef8f8f"/><path d="m439.52 207.74c0 130-37.25 265.06-183.51 265.06-156.75 0-183.53-135.08-183.53-265.06a277.4 277.4 0 0 1 3.9-47.13 14.34 14.34 0 0 1 14.18-11.79h330.88a14.33 14.33 0 0 1 14.17 11.79 276.36 276.36 0 0 1 3.91 47.13z" fill="#996acc"/><path d="m406.41 381.79c-27.11 54-73.8 91-150.4 91-80.07 0-126.23-35.25-152.22-87.06 35.44 31.97 84.56 51.27 152.21 51.27 65.72 0 114.58-20.91 150.41-55.21z" fill="#7e4ab7"/><path d="m272.29 348.14c0 9-8.79 19.26-19.62 19.26s-19.62-10.3-19.62-19.26 8.78-13.2 19.62-13.2 19.62 4.23 19.62 13.2z" fill="#ffadb6"/><path d="m212 284.84c0 32.28-13.7 58.45-30.61 58.45-13.72 0-25.33-17.22-29.22-41a13 13 0 0 1 10.35-14.87c8.32-1.69 18.06-5.47 18.06-14 0-5.3-5.17-10-13-12.73a13 13 0 0 1 -7.16-18.47c5.47-9.86 12.86-15.91 21-15.91 16.91.07 30.58 26.24 30.58 58.53z"/><path d="m360 284.84c0 32.28-13.69 58.45-30.61 58.45-13.72 0-25.33-17.22-29.22-41a13 13 0 0 1 10.35-14.87c8.33-1.69 18.06-5.47 18.06-14 0-5.3-5.17-10-13-12.73a13 13 0 0 1 -7.17-18.47c5.48-9.86 12.86-15.91 21-15.91 16.87.07 30.59 26.24 30.59 58.53z"/><g fill="#ae86e2"><rect height="25.37" rx="12.69" width="180.24" x="98.27" y="161.82"/><rect height="25.37" rx="12.69" width="59.39" x="297.15" y="161.82"/></g></g></svg>