<?xml version="1.0" encoding="UTF-8"?>
<svg xmlns="http://www.w3.org/2000/svg" xmlns:xlink="http://www.w3.org/1999/xlink" viewBox="0 0 512 512" width="512" height="512"><defs><style>.cls-1,.cls-12,.cls-13,.cls-15,.cls-18,.cls-5,.cls-7{fill:none;}.cls-2{fill:#ffb833;}.cls-3{fill:#ffb08d;}.cls-4,.cls-8{fill:#383333;}.cls-13,.cls-18,.cls-5,.cls-7{stroke:#383333;}.cls-12,.cls-13,.cls-15,.cls-18,.cls-5,.cls-7{stroke-linecap:round;stroke-linejoin:round;}.cls-5,.cls-8{fill-rule:evenodd;}.cls-6{fill:#ff8c5f;}.cls-7{stroke-width:0.75px;}.cls-9{fill:#fff3e3;}.cls-10{fill:#00ccc1;}.cls-11{fill:#aaeeea;}.cls-12{stroke:#fff;}.cls-14{fill:#fff;}.cls-15{stroke:#00ccc1;stroke-width:5px;}.cls-16{fill:#ff535c;}.cls-17{clip-path:url(#clip-path);}.cls-18{stroke-dasharray:12;}</style><clipPath id="clip-path"><path class="cls-1" d="M410.75,275.53c-8.6-2.36-19.36-8.77-26.81-16.82-12.6-13.59-14.43-30.37-14.68-37.94a1.48,1.48,0,0,1,1.58-1.53c7.55.48,24.27,2.82,37.47,15.83,7.82,7.7,13.9,18.64,16,27.31a52.57,52.57,0,0,1-13.56,13.15Z"/></clipPath></defs><g id="Job_Seeker" data-name="Job Seeker"><rect class="cls-2" x="229.23" y="188.61" width="2.74" height="16.46" rx="1.08"/><rect class="cls-2" x="229.23" y="188.61" width="2.74" height="16.46" rx="1.08" transform="translate(33.77 427.44) rotate(-90)"/><rect class="cls-2" x="67.26" y="230.4" width="2.74" height="16.46" rx="1.08"/><rect class="cls-2" x="67.26" y="230.4" width="2.74" height="16.46" rx="1.08" transform="translate(-170 307.26) rotate(-90)"/><rect class="cls-2" x="282.25" y="322.8" width="3.36" height="20.17" rx="1.08"/><rect class="cls-2" x="282.25" y="322.8" width="3.36" height="20.17" rx="1.08" transform="translate(-48.96 616.82) rotate(-90)"/><path class="cls-3" d="M271.1,199.23c-10.21-17-14.38-31.06-16.26-39.41a51.11,51.11,0,0,1-1.1-18.23c1.27-10,5.65-19,7.91-18.68,3,.5.43,17.16,7,19.64,3.11,1.19,6.15-1.7,10.84.54a14.22,14.22,0,0,1,4.19,3.38c3.17,3.33,1.91,7.16,3.23,13.24,1.09,5,4,11.71,11.87,18.87a29.27,29.27,0,0,1-7.6,12.46A30.43,30.43,0,0,1,271.1,199.23Z"/><circle class="cls-3" cx="131.26" cy="155.47" r="66.06"/><path class="cls-3" d="M114.21,215s4.56,18.81,0,33.64S84,269.7,81.71,294.79s16.54,57.58,24.52,91.79,1.71,82.67,1.71,82.67a163.06,163.06,0,0,0,53.88,4.85A165.79,165.79,0,0,0,239.9,447c-3.47-33.57-8.37-78.11-15.08-131.72-3.88-31-8.21-65.33-28.79-72.4-9.12-3.14-30.22-.86-34.49-5.14s-7.42-37.62-7.42-37.62S119.63,196.15,114.21,215Z"/><path class="cls-3" d="M83.49,201.1a90.34,90.34,0,0,0,30.74,20.64c20.92,8.36,56,12.88,74.3-6.32a39.75,39.75,0,0,0,6.46-9.25c14.25-26.27,4.15-58-.9-71.15C194.09,135,91.78,91,83.49,201.1Z"/><path class="cls-4" d="M120.63,153.18a19.58,19.58,0,0,1,9.94-6.28c2.62-.73,6.16-1.72,7.79.07a3,3,0,0,1,.66,2.93c-.82,2-4.3,1.26-9.33,2.48-6.63,1.61-10.29,5.2-11,4.36C118.24,156.14,120,154,120.63,153.18Z"/><path class="cls-4" d="M187.61,132.74a19.43,19.43,0,0,0-11.7,1.14c-2.51,1-5.92,2.44-6.1,4.84a3,3,0,0,0,1.28,2.72c1.85,1.05,4.16-1.65,8.88-3.78,6.22-2.8,11.32-2.21,11.33-3.29C191.32,133.59,188.66,133,187.61,132.74Z"/><path class="cls-5" d="M161,155s8.23,8.75,8.12,11-8.43,4.52-8.43,4.52"/><ellipse class="cls-6" cx="132.67" cy="180.49" rx="7.56" ry="4.71" transform="translate(-51.29 52.68) rotate(-18.89)"/><ellipse class="cls-6" cx="190.29" cy="167.86" rx="7.56" ry="4.71" transform="translate(-44.1 70.65) rotate(-18.89)"/><path class="cls-3" d="M97.69,171.87a12.94,12.94,0,0,0-10.09-2.11,10,10,0,0,0-5.45,3.15c-4.46,5.82.15,21.08,9.94,23.57,5.47,1.4,10.52-1.72,12.2-2.87Z"/><path class="cls-7" d="M85.47,179.52l8.73-1.87s-8,7.06.67,13.06"/><path class="cls-8" d="M143.79,168.48a5.68,5.68,0,1,1-1.93-7.8A5.69,5.69,0,0,1,143.79,168.48Z"/><path class="cls-8" d="M187.85,155.74a5.68,5.68,0,1,1-1.93-7.79A5.7,5.7,0,0,1,187.85,155.74Z"/><path class="cls-4" d="M82.15,172.91s6.46-5.14,11-3.09,7,11.51,10,10.67-6-34.53-6-34.53,13-3.43,12.34-22.1A40.72,40.72,0,0,0,144.61,96.8s19.43,13.45,31.77,7.76-.91-18.36-11.45-20.26c0,0,11.73-30.38-22-8.86,0,0-14.15-12.25-33.77-7.71S87.61,99.49,73.68,109,50.26,166.4,70.2,190.71s39.56,28.42,40.19,34.11,9.22,4.12,8.25-12.34-14.35-18.87-14.35-18.87-10.41,5-15.13,1.67S77.8,179.87,82.15,172.91Z"/><path class="cls-9" d="M100.32,265a81.9,81.9,0,0,0-21.58,16.13c-21,22.1-22.94,50.25-25.31,74.69-2.63,27-7.3,65.28-16.46,115.2a106.85,106.85,0,0,0,18.63,3.33c10.09,1.1,21.72,1.1,27.89-3.33l28.8-126S127.59,283.08,100.32,265Z"/><path class="cls-9" d="M163.72,248.24c23.31-8.1,41.49-8.08,53.65-6.64,19.84,2.35,28.88,9.11,52.57,14.59a198,198,0,0,0,51.93,4.92q5,19.29,10.07,38.6a335.06,335.06,0,0,1-60.93,5.5c-27.51,0-44.33-.36-62.66-9.49C199.71,291.42,178.72,279.14,163.72,248.24Z"/><path class="cls-9" d="M265.13,190c10.48,29.87,41.33,112.55,68.55,109.5,6.36-.71,16.61-6.56,20.41-15.82,4.27-10.4-1-21.66-4.63-28.79-17.09-33.56-46.39-71.21-58.54-86.41a47.62,47.62,0,0,1-8.67,11.07A48.36,48.36,0,0,1,265.13,190Z"/><path class="cls-9" d="M112.93,240.87s3,2.15,18.33,5.24,16.32,12.81,18.46,10.44,1.19-10.48,4.27-15.68,7.83-9.24,9.73-8.77,0,3.13,7.36,5.94,30.62,1.15,35.84,2.83,28.65,63.39,40.91,209.61c0,0-63.22,49.37-145.35,18,0,0,7.6-86.4-6.64-134.82s-19.5-49.27-12.72-56.8,24.11-15.13,25.53-22S108.53,239.07,112.93,240.87Z"/><path class="cls-2" d="M106.86,258.24s-30.17,18.62-30.09,25.08,23.09,61.22,23.61,113.87-2,74.81-2,74.81S194.58,507.77,256,448.9c0,0-15.82-117.52-30.38-175.86,0,0-7.12-31.44-12.19-33s-37-2.49-38.69-1.08-11,58.37-11,58.37S145.1,291,106.86,258.24Z"/><circle class="cls-10" cx="210.61" cy="107.22" r="40.49"/><path class="cls-10" d="M306.8,167.72l1.92-3.17a6.7,6.7,0,0,0-2.41-9.3l-59.61-34a6.7,6.7,0,0,0-9,2.35h0a6.71,6.71,0,0,0,2.1,9.11l57.68,37.15A6.7,6.7,0,0,0,306.8,167.72Z"/><circle class="cls-11" cx="210.61" cy="107.22" r="32.84"/><line class="cls-12" x1="188.82" y1="109.25" x2="230.93" y2="112.58"/><line class="cls-12" x1="203.65" y1="101.9" x2="221.2" y2="102.56"/><path class="cls-3" d="M264.08,180.74c-7.31-13.4-12.48-24.72-16-33s-5.55-14-3.8-15.3,6.92,2.37,9.61,4.86c3.79,3.5,4,5.78,9.14,13.3,4.36,6.4,5,5.88,5.94,8.19C270.65,162.73,271,169.37,264.08,180.74Z"/><path class="cls-3" d="M259.59,124.46q2.1,21.06,5.22,21.21,2.2.11,4.93-10.18a53.39,53.39,0,0,1,.71,8.31c0,3.35-.3,5.77,1.31,7.18a2.94,2.94,0,0,0,2.19.83c3.07-.58,3.41-10.54,3.44-11.75,0,0-.59,14.49,2.62,15.41s3.67-11.31,3.67-11.31-.35,11.15,2.26,10.56S291.16,143,290.09,140s-5.69-.58-5.69-.58-2.38-6.45-6.23-2.57c0,0-3.64-11.1-8.17-4.71C270,132.13,263.51,116.8,259.59,124.46Z"/><path class="cls-13" d="M103.24,266.92s30.07,32.28,64.89,40.82c0,0,12.84-34.79,13.22-64.39"/><path class="cls-13" d="M142.9,252.52l-6,24s-17.09-9.34-27.85-20.41"/><path class="cls-13" d="M151.29,251.29c0-.07,4-.2,7.18,5.18s7.9,15,7.9,15,6.14-24.77,6.79-32.88"/><path class="cls-13" d="M149.72,256.55s9.6,30.3,14,40.75"/><path class="cls-13" d="M294.45,259.64s8.11,23.73,33.27,30.38"/><path class="cls-7" d="M269.78,131.63a10.11,10.11,0,0,1,0,3.86"/><path class="cls-7" d="M278.17,136.84a60.32,60.32,0,0,1-.82,6.65"/><path class="cls-7" d="M284.19,138.92a66.36,66.36,0,0,1-.52,6.75"/><path class="cls-5" d="M127.34,225.92s16.87,4.89,31,3"/><ellipse class="cls-14" cx="170.89" cy="187.54" rx="6.88" ry="10.72"/><path class="cls-7" d="M168.92,201.56a8.2,8.2,0,0,0,7.2-1.19"/><rect class="cls-11" x="308.94" y="32.76" width="168.09" height="118.8" rx="13.04"/><path class="cls-11" d="M342.74,134.78A39.78,39.78,0,0,1,344.56,156a39.24,39.24,0,0,1-4.79,12.63,1.79,1.79,0,0,0,2.05,2.62c9.54-2.83,30.61-11.9,28.63-36.47Z"/><rect class="cls-10" x="346.94" y="66.72" width="92.1" height="64.91" rx="5.3"/><rect class="cls-15" x="379.22" y="58.27" width="27.53" height="14.4" rx="3.5"/><line class="cls-12" x1="346.94" y1="86.28" x2="439.04" y2="86.28"/><rect class="cls-14" x="386.82" y="82.32" width="12.34" height="7.6" rx="2.03"/><path class="cls-16" d="M415.28,245.62s4.9-1.84,8.25.42c2.46,1.66,10.45,11.51,14.53,16.64a1.18,1.18,0,0,1-1.26,1.86,53.36,53.36,0,0,0-15.53-2.42Z"/><path class="cls-16" d="M394.8,265.49s-2,4.83.16,8.26c1.59,2.51,11.19,10.79,16.2,15a1.17,1.17,0,0,0,1.89-1.2A53.2,53.2,0,0,1,411.11,272Z"/><g class="cls-17"><path class="cls-2" d="M410.75,275.53c-8.6-2.36-19.36-8.77-26.81-16.82-12.6-13.59-14.43-30.37-14.68-37.94a1.48,1.48,0,0,1,1.58-1.53c7.55.48,24.27,2.82,37.47,15.83,7.82,7.7,13.9,18.64,16,27.31a52.57,52.57,0,0,1-13.56,13.15Z"/><path class="cls-16" d="M370.23,244.6a44.48,44.48,0,0,1,24.4-23.66l-16.47-17-24.4,23.66Z"/></g><path class="cls-16" d="M411.44,277.17a2.56,2.56,0,0,0,3.31.2,50.25,50.25,0,0,0,11.44-11.1,2.57,2.57,0,0,0-.1-3.31l-.23-.23a2.6,2.6,0,0,0-3.67.1l-10.76,10.44a2.6,2.6,0,0,0-.21,3.67Z"/><path class="cls-16" d="M414.44,280.26a2.56,2.56,0,0,0,3.31.2,51.13,51.13,0,0,0,11.43-11.1,2.54,2.54,0,0,0-.1-3.31l-.22-.23a2.62,2.62,0,0,0-3.68.1l-10.75,10.43a2.6,2.6,0,0,0-.22,3.67Z"/><circle class="cls-9" cx="394.6" cy="245.32" r="9.77"/><path class="cls-16" d="M399.66,250.54a7.27,7.27,0,1,0-10.28-.16A7.28,7.28,0,0,0,399.66,250.54Z"/><path class="cls-2" d="M428.17,272.84a.22.22,0,0,1,.21-.1,8.56,8.56,0,0,1,3.21,1,8.73,8.73,0,0,1,3.06,2.79.23.23,0,0,1-.28.33,5.84,5.84,0,0,0-1.05-.36,6.32,6.32,0,0,0-1.4-.18.22.22,0,0,0-.12.41,7.25,7.25,0,0,1,3.21,6.36,6.92,6.92,0,0,1-1.89,4.17.22.22,0,0,1-.37-.06,3.55,3.55,0,0,0-.93-1.33,4.49,4.49,0,0,0-2.37-1,7.79,7.79,0,0,1-3.8-2.23.23.23,0,0,0-.38.22,4.72,4.72,0,0,0,.49,1.11,4.59,4.59,0,0,0,1,1.11.22.22,0,0,1-.12.39,5.2,5.2,0,0,1-6-5.35.2.2,0,0,1,.11-.18,20.39,20.39,0,0,0,3-2A20,20,0,0,0,428.17,272.84Z"/><path class="cls-18" d="M435,296.75s13.85,70.67-13.37,89.22S378.77,374.61,394,368.44s58.86,55.67-46.53,86.7"/><path class="cls-12" d="M140,91.46s-18,29.43-33.94,22.31c0,0,1.3,27.18-15.19,24.57"/><path class="cls-12" d="M93.07,146.25c2.66,11.93.93,16.22-1.34,17.84-3.34,2.38-11.29,1.46-11.29,1.46h0a15.45,15.45,0,0,1-2.56,9.82,14.64,14.64,0,0,1-4.19,4"/><path class="cls-12" d="M100.75,202.67s12.11,7.1,12.7,16"/><path class="cls-12" d="M149.88,91.46s11.55,8.58,18.36,4.78"/><path class="cls-12" d="M77.69,123.51S89.63,143,73.78,147.74c0,0,2.42,11.62-5.15,15.14"/></g></svg>
