<svg id="Layer_1" enable-background="new 0 0 52 52" height="512" viewBox="0 0 52 52" width="512" xmlns="http://www.w3.org/2000/svg"><g id="Data_Monitoring"><g><g><g><g><g><path d="m29.7906475 39.3149567-.0099487 1.4099731-9.1600342 5.3200073-4.6900034-2.7299805c-1.2699585-.7400513-2.2999878-2.5100098-2.289978-3.9700317l.0100098-3.6599731 1.2299805.7099609 9.1500254-5.3299541v3.669981c0 .6699829.4699707 1.5100098 1.0599976 1.8399658z" fill="#111d33"/></g></g><g><g><path d="m20.6272354 44.6358261 9.1602574-5.3233452-.0040036 1.4111748-9.1602802 5.3233414z" fill="#1d2943"/></g></g><g><g><path d="m29.7863655 39.3156471-9.1585541 5.320179-4.694068-2.7366409c-.5892029-.3379326-1.0657616-1.1610527-1.0657616-1.8455505l.0086279-3.6564903 9.1585312-5.3288078-.0086269 3.6652145c0 .675869.4765797 1.507618 1.0657616 1.8455505z" fill="#4c5c75"/></g></g><g><g><path d="m14.8764181 36.3939819-.010354 3.6614761c-.0019169.6801796.4778271 1.5047379 1.0642281 1.8433456l4.6969433 2.7370224-.0040264 1.411171-4.6969433-2.7370224c-1.2668705-.7313728-2.2924852-2.5078049-2.2883625-3.9635544l.0104494-3.6614761z" fill="#111d33"/></g></g><path d="m33.1607018 26.8349171c.0099487 1.1500244-.8000488 2.5499878-1.8000469 3.1300049l-24.8099981 14.3500347c-.5700073.3399658-1.0899658.3099976-1.4199829.0199585.039978.0400391.0900269.0800171.1400146.1099854l-2.7000122-1.5699463c-.3300171-.1900025-.5300293-.5900269-.5300293-1.1600343l-.039978-20.8599834c-.0100099-1.1500244.7999878-2.5499878 1.7999878-3.1300049l24.809998-14.349976c.5-.3000488.9500122-.3200073 1.2800293-.1300049l2.7000103 1.5700073c.3299561.1799927.5299683.5899658.5299683 1.1599731z" fill="#1d2943"/><g><path d="m1.999369 20.8522892c-.0064231-1.1489754.8042344-2.5467262 1.7999166-3.1275902l24.8067325-14.3539872c.5042648-.2935469.9574318-.3191435 1.2893257-.1276958l2.6999435 1.5703132c-.3318176-.1914477-.7850819-.1660428-1.2893448.121273l-24.8066382 14.360314c-.9956822.57444-1.8063183 1.9787102-1.8000126 3.1275902l.0383473 20.8605289c.0063272.5745354.2041984.9701843.5297651 1.1617279l-2.7000189-1.5701218c-.3254709-.1852188-.5233419-.5872879-.5233419-1.1553993z" fill="#4c5c75"/></g><g><path d="m31.3063259 4.9376698c.9984837-.5764527 1.8120899-.1127405 1.8153515 1.0392065l.0429497 20.8611069c.0032578 1.1472492-.8050995 2.5473003-1.8034649 3.1237545l-24.8055835 14.3576288c-.9984627.5764542-1.8120918.1127396-1.8153515-1.0345078l-.0429487-20.8611069c-.0032592-1.151947.8050971-2.5519981 1.8035598-3.1284504z" fill="#1d2943"/></g><g><path d="m33.1607018 24.5349293v2.2999878c.0099487 1.1500244-.8000488 2.5499878-1.8000469 3.1300049l-24.8099981 14.3500347c-.5.289978-.9499512.3199463-1.2799683.1299438l-.1099854-.0699463-2.5900269-1.5c-.330017-.1900024-.5300292-.5900268-.5300292-1.1600342v-2.2999878l2.7000122 1.5700073z" fill="#b0b8cf"/></g><g><path d="m4.737639 43.2830353.0026841-2.2997704-2.7013607-1.5717506.0050809 2.3077278c0 .5681114.1977751.9701805.5233419 1.1553993l2.7000189 1.5701218c-.3255668-.1915436-.523438-.5871926-.5297651-1.1617279z" fill="#b0b8cf"/></g><g><path d="m33.1646271 24.536293v2.3016891c.0032578 1.1472492-.8050995 2.5473003-1.8034649 3.1237545l-24.8055835 14.3576299c-.9984627.5764542-1.8120918.1127396-1.8153515-1.0345078l.0000958-2.3015938z" fill="#e3e7f0"/></g><g><path d="m19.5722103 33.4889984c.5123405-.2958488.9262753-.0600128.9279041.5288048.0017262.588726-.4095459 1.3009262-.9218636 1.5966759-.5123177.2958488-.926178.0600166-.9278812-.5287094-.0016517-.5888176.409525-1.3010216.9218407-1.5967713z" fill="#1d2943"/></g><g><path d="m32.27248 24.0961647-26.6639571 15.4315414-.0264812-17.1048164c-.0088196-.8362541.6338778-1.9454441 1.3556657-2.3679333l24.8066373-14.3575348c.2024727-.1144662.3256626-.1232858.369688-.1232858.052803.0176396.1232643.1321058.1232643.4049454z" fill="#fff"/></g><g><g><g><path d="m8.2745609 20.6631432.0182467 7.6419773-1.4305907.8259525-.0182466-7.6419773z" fill="#78e75a"/></g></g><g><g><path d="m10.8044472 20.3643742.0149584 6.4820137-1.4363509.8292789-.0149583-6.4820156z" fill="#ffd06c"/></g></g><g><g><path d="m13.327981 19.8634834.0122518 5.527504-1.4305906.8259525-.0122518-5.5275058z" fill="#8fabfe"/></g></g><g><g><path d="m15.8579235 19.5846043.0089073 4.3476524-1.4363518.829277-.0089073-4.3476524z" fill="#dba660"/></g></g><g><g><path d="m18.3809299 18.8981056.0067273 3.5787506-1.4305897.8259526-.0067272-3.5787506z" fill="#ffd06c"/></g></g><g><g><path d="m8.007 29.9362297c.645256-.3725395 1.1569281-.0662346 1.1589861.6598988l.0012407.4374733c.0049648 1.7515316 2.3123827.4261189 2.3073978-1.3321781l-.0003948-.1391926c-.0021105-.7444267.5167694-1.6930447 1.1609983-2.064991.6184301-.3570499 1.1441622-.0564747 1.1462126.6665325l.0017281.6098175c.0020676.7291203.5229206 1.025938 1.1574478.6595936l.5191717-.2997437c.3518753-.2031555.6336069-.6911221.6324606-1.0954647-.0021286-.7508774.516613-1.692955 1.1607246-2.0648327.0097809-.0056458.0195694-.0111637.0294094-.0165291.6118126-.3266983 1.1150112-.0457077 1.1170769.6829033l.0083046 2.9297638-11.5427413 6.6642056-.0120263-4.2422028c-.0020909-.7374134.5125613-1.6847172 1.1540032-2.0550537z" fill="#f45170"/></g></g><g><g><path d="m23.6531715 23.1216068.0096779 3.4136505-3.0226803 1.7451439-.0096759-3.4136486z" fill="#78e75a"/></g></g><g><g><path d="m23.638834 18.0641327.0096779 3.4136276-3.0226803 1.7451439-.0096779-3.4136257z" fill="#b28afd"/></g></g><g><g><path d="m23.6244946 13.0066376.0096778 3.4136257-3.0226783 1.7451458-.0096779-3.4136276z" fill="#f45170"/></g></g><g><g><path d="m31.4591885 8.8683548.0019168.6760998-6.9106445 3.9898624-.0019169-.6760998z" fill="#dedffb"/></g></g><g><g><path d="m29.6186962 22.0343609.0019169.6760979-5.0358944 2.9074764-.0019169-.6760998z" fill="#dedffb"/></g></g><g><g><path d="m31.4878845 18.9899559.0019169.6760998-6.9106445 3.9898624-.0019169-.6760998z" fill="#dedffb"/></g></g><g><g><path d="m29.6043587 16.9768639.0019169.6760997-5.0358944 2.9074746-.0019169-.6760998z" fill="#dedffb"/></g></g><g><g><path d="m31.473526 13.9258289.0019169.6760998-6.9106445 3.9898625-.001915-.6760998z" fill="#dedffb"/></g></g><g><g><path d="m29.5900021 11.9127369.0019149.6761217-5.0358944 2.9074755-.0019149-.6761217z" fill="#dedffb"/></g></g></g></g><g><g><g opacity=".3"><path d="m36.1143684 42.0450706c1.9474602 1.1278381 5.1103477 1.1313438 7.0718117 0 1.9579773-1.1313629 1.9649696-2.9632301.0210152-4.094574-1.9439583-1.1313629-5.1103249-1.1313629-7.068306 0-1.9579582 1.1313439-1.9684753 2.9632111-.0245209 4.094574z" fill="#57b3fe"/></g><path d="m45.730648 39.9849396c0-.8900146-.5799561-1.7900391-1.7599487-2.4700317-2.3600464-1.3800049-6.210022-1.3800049-8.5900269-.0099487-1.3599854.789978-1.9199829 1.8499756-1.7299805 2.8799438-.0200195-.1199951-.0599976-.25-.0599976-.3699951v1.4299927c.0100098.8900146.5899658 1.7800293 1.7699585 2.4700317 2.3600464 1.3699951 6.210022 1.3699951 8.5900269 0 1.1900024-.6900024 1.789978-1.5999756 1.789978-2.5100098zm-2.539978 2.0599975c-1.960022 1.1300049-5.1300049 1.1300049-7.0700073 0-.6499634-.3800049-1.0700073-.8400269-1.2799683-1.3200073.2199707-.4899902.6399536-.960022 1.2999878-1.3499756 1.960022-1.1300049 5.1300049-1.1300049 7.0700073 0 .6499634.3800049 1.0700073.8399658 1.2799683 1.3199463-.2199707.5-.6399536.960022-1.2999878 1.3500366z" fill="#1d2943"/><g><path d="m33.5896378 40.0143051.0040512 1.4276085c.002533.8944511.5904007 1.7872353 1.7636909 2.4690742 2.3639603 1.3737869 6.2090569 1.3750992 8.5907211.0000458 1.1954002-.6901665 1.7922859-1.5964737 1.7897224-2.501709l-.0040436-1.4276009c.0025635.9052315-.594326 1.8115349-1.7897263 2.5017014-2.3816643 1.3750534-6.2267609 1.3737411-8.5907211-.000042-1.1732901-.6818427-1.7611579-1.574623-1.7636946-2.469078z" fill="#1d2943"/></g><g><path d="m34.664875 40.0113907.0040512 1.4276047c-.0021172-.7459183.4902229-1.4931908 1.4762955-2.0625 1.9567757-1.1297455 5.1220207-1.1297302 7.0660744.0000305.9671555.5620499 1.4511566 1.2975426 1.4532433 2.0339432l-.0040436-1.4276009c-.0020905-.7364044-.4860916-1.4718971-1.4532471-2.033947-1.9440536-1.1297607-5.1092987-1.1297798-7.0660744-.0000343-.9860725.569313-1.4784126 1.3165855-1.4762993 2.0625038z" fill="#1d2943"/></g><g><g><path d="m43.9675941 37.5099373c2.3639641 1.3737831 2.3536606 3.6010094-.0235405 4.9734879-2.3816643 1.3750534-6.2267609 1.3737411-8.5907211-.000042-2.3617554-1.3725014-2.3514404-3.59972.0302238-4.9747734 2.3772011-1.3724785 6.2222863-1.3711739 8.5840378.0013275zm-.7811737 4.5332031c1.9567795-1.1297455 1.9670906-2.9631767.0208282-4.0942192-1.9440536-1.1297607-5.1092987-1.1297798-7.0660744-.0000343-1.9589996 1.131031-1.9693146 2.9644585-.0252609 4.0942192 1.9462625 1.1310463 5.1115075 1.1310615 7.0705071.0000343z" fill="#4c5c75"/></g></g><g><g enable-background="new"><g><g><path d="m35.4506798 43.5149078c0 .210022-.0800171.3600464-.1900024.4299927l-.8699951.5100098c.0299683-.0199585.0599976-.0499878.0800171-.0799561-.1100464.1499634-.3200073.1699829-.5599976.0299683-.3700562-.210022-.6600342-.7199707-.6600342-1.1400146 0-.2199707.0800171-.3800049.2200317-.4400024l.8399658-.5c.1300049-.0699463.2900391-.0599976.4799805.0500488.3700562.2099609.6600342.7199706.6600342 1.1399535z" fill="#dedffb"/></g></g></g></g><g><g enable-background="new"><g><g><path d="m33.443573 42.8363037c.1227074-.0687218.2896004-.0589256.4712029.0490723.3681183.2110519.6626053.7215004.6626053 1.1436348 0 .2110519-.0736389.3582916-.1914291.4270134l.8704338-.512394c.117794-.0686951.1913986-.2159653.1913986-.4270172 0-.4221039-.2895699-.9325523-.6576881-1.1436043-.1865158-.1079979-.3534126-.1178246-.47612-.0491028z" fill="#f3f1fc"/></g></g><g><g><path d="m33.9171715 42.8849144c-.3697853-.2134972-.6653214-.0450821-.6665268.3798294-.001194.4213066.2924232.9298668.6622086 1.143364.366642.2116814.662178.0432663.663372-.3780403.0012054-.4249116-.2924118-.9334717-.6590538-1.1451531z" fill="#dedffb"/></g></g></g></g><g><g><path d="m26.097971 47.9701157c.2323647.5355186.7683983.8618355 1.2149734.8881264.0568104.0142212.1136608.0213356.1705132.0213356.4826965 0 .7189522-.1809959.8952389-.2771072l5.8474159-4.0996056c.0284042-.0212936.0639648-.0497437.0852547-.0781479.0781441-.0852547.1137047-.1705132.1207733-.3339577.0071144-.3907661-.2628822-.8667908-.6039085-1.0657501-.1563339-.0923271-.3055115-.1065521-.4121017-.0639229l-.0284042.014225-6.5295124 2.9556656c-.7483751.3388557-1.1335298 1.2626686-.7602426 2.0391388z" fill="#aa6256"/></g></g><g><g><path d="m26.097971 47.9701157c.2323647.5355186.7683983.8618355 1.2149734.8881264.7445316-.0677605.9968796-.5861168 6.5579166-4.3695602.0284042-.0213356.0639648-.0497398.0852547-.0710754.0781479-.0852585.1137047-.1705132.1207733-.3410263.0071144-.3836975-.2628822-.8597221-.6039085-1.0657539-.0284042-.0142212-.0568504-.0284462-.0852547-.0355148l-6.5295124 2.9556656c-.7483749.3388555-1.1335296 1.2626684-.7602424 2.0391386z" fill="#dba660"/></g></g></g></g><g><g><g enable-background="new"><g><g><path d="m40.4107018 27.3049488-2.6900025 1.5499878-2.6900024-1.5599976-.0300293-10.9100341 2.7000122-1.5599986 2.6799927 1.5700083z" fill="#f9a83d"/></g></g></g></g><g><g enable-background="new"><g><g><path d="m35.0044518 16.3842049.0294685 10.9116668 2.6879997 1.5620957-.0294685-10.9116669z" fill="#f9a83d"/></g></g><g><g><path d="m37.6924515 17.9463005.0294685 10.9116669 2.6930542-1.5548363-.0294685-10.9116669z" fill="#febc1f"/></g></g><g><g><path d="m35.0044518 16.3842049 2.6879997 1.5620956 2.6930542-1.5548363-2.6879997-1.5620956z" fill="#ffd06c"/></g></g></g></g><g><g enable-background="new"><g><g><path d="m45.2106895 30.0849171-2.7000122 1.5599975-2.6799926-1.5599975-.0300293-8.1499634 2.6900024-1.5599976 2.6900024 1.5599976z" fill="#dedffb"/></g></g></g></g><g><g enable-background="new"><g><g><path d="m39.796627 21.9303322.0294724 8.1504478 2.6879997 1.5620957-.0294685-8.1504479z" fill="#dedffb"/></g></g><g><g><path d="m42.4846306 23.4924278.0294685 8.1504479 2.6930542-1.5548363-.0294685-8.1504478z" fill="#e9e7fc"/></g></g><g><g><path d="m39.796627 21.9303322 2.6880036 1.5620956 2.6930542-1.5548362-2.6879997-1.5620957z" fill="#f3f1fc"/></g></g></g></g><g><g enable-background="new"><g><g><path d="m50.0006676 32.8749542-2.6900025 1.5499878-2.6900024-1.5599975-.0299683-5.4100323 2.6900025-1.5499878 2.6900024 1.5599976z" fill="#5ec363"/></g></g></g></g><g><g enable-background="new"><g><g><path d="m44.5888062 27.4580708.0294685 5.4076175 2.6880035 1.5620957-.0294723-5.4076176z" fill="#5ec363"/></g></g><g><g><path d="m47.2768059 29.0201664.0294723 5.4076176 2.6930542-1.5548363-.0294723-5.4076176z" fill="#72d561"/></g></g><g><g><path d="m44.5888062 27.4580708 2.6879997 1.5620956 2.6930542-1.5548363-2.6879997-1.5620956z" fill="#78e75a"/></g></g></g></g></g></g></g></g></svg>