<?xml version="1.0" encoding="UTF-8"?>
<svg xmlns="http://www.w3.org/2000/svg" id="Layer_1" data-name="Layer 1" viewBox="0 0 24 24">
  <path d="M5.905,8.657c.252-1.503,.608-2.51,.664-2.663,.353-.957,1.152-1.662,2.14-1.891,.316-.072,3.095-.682,6.338-.682,1.042,0,2.034,.063,2.912,.15-.185-.797-.363-1.281-.376-1.316-.117-.315-.384-.55-.711-.626-.111-.025-2.76-.63-5.887-.63s-5.775,.604-5.887,.63c-.329,.076-.597,.312-.713,.629-.033,.089-.797,2.2-.797,4.995,0,.609,.036,1.184,.093,1.711,.571-.1,1.336-.216,2.226-.308Z"/>
  <path d="M5.809,13.738c1.136,1.135,2.374,1.979,3.036,2.395,.654-.416,1.889-1.272,3.133-2.516,.982-.981,1.719-1.946,2.191-2.63-.996-.186-2.984-.494-5.216-.494-2.33,0-4.4,.337-5.346,.518,.458,.695,1.221,1.747,2.202,2.727Z"/>
  <path d="M13.391,15.033c-2.021,2.018-3.982,3.1-4.065,3.145-.149,.081-.314,.122-.479,.122s-.332-.041-.481-.123c-.085-.048-2.116-1.172-3.97-3.022-.965-.964-1.731-1.973-2.252-2.733-.237,.849-.588,2.43-.588,4.325,0,2.819,.766,4.91,.799,4.998,.117,.314,.384,.55,.711,.626,.111,.025,2.76,.63,5.887,.63s5.775-.604,5.887-.63c.329-.076,.597-.312,.713-.629,.033-.089,.798-2.199,.798-4.995,0-2.03-.398-3.684-.633-4.482-.528,.752-1.306,1.749-2.327,2.769Z"/>
  <path d="M21.646,6.678c-.117-.314-.384-.55-.711-.626-.111-.025-2.76-.63-5.887-.63s-5.775,.604-5.887,.63c-.329,.076-.597,.312-.713,.629-.017,.047-.268,.737-.484,1.831,.323-.012,.653-.018,.989-.018,3.256,0,6.026,.61,6.332,.68,.993,.231,1.791,.934,2.142,1.88,.035,.092,.924,2.492,.924,5.693,0,.337-.01,.665-.027,.982,1.514-.179,2.547-.414,2.611-.429,.329-.076,.597-.312,.713-.629,.033-.089,.797-2.199,.797-4.994,0-2.819-.766-4.91-.799-4.998Zm-2.179,3.796c-.833,0-1.508-.675-1.508-1.508s.675-1.508,1.508-1.508,1.508,.675,1.508,1.508-.675,1.508-1.508,1.508Z"/>
</svg>
