<svg enable-background="new 0 0 512 512" height="512" viewBox="0 0 512 512" width="512" xmlns="http://www.w3.org/2000/svg" xmlns:xlink="http://www.w3.org/1999/xlink"><linearGradient id="SVGID_1_" gradientUnits="userSpaceOnUse" x1="348.98" x2="163.016" y1="420.381" y2="98.281"><stop offset="0" stop-color="#0065ff"/><stop offset=".04716641" stop-color="#0c5efe"/><stop offset=".2951" stop-color="#473df6"/><stop offset=".5232" stop-color="#7623f1"/><stop offset=".7239" stop-color="#9810ec"/><stop offset=".8897" stop-color="#ad04ea"/><stop offset="1" stop-color="#b400e9"/></linearGradient><g id="Layer_2"><path d="m256 73.3c-102.6 0-186 83.4-186 186s83.4 186 186 186 186-83.4 186-186-83.4-186-186-186zm70 201h-55v55c0 8.3-6.7 15-15 15-8.3 0-15-6.7-15-15v-55h-55c-8.3 0-15-6.7-15-15s6.7-15 15-15h55v-55c0-8.3 6.7-15 15-15 8.3 0 15 6.7 15 15v55h55c8.3 0 15 6.7 15 15s-6.7 15-15 15z" fill="url(#SVGID_1_)"/></g></svg>