<?xml version="1.0" encoding="UTF-8"?>
<svg xmlns="http://www.w3.org/2000/svg" xmlns:xlink="http://www.w3.org/1999/xlink" viewBox="0 0 512 512" width="512" height="512"><defs><style>.cls-1,.cls-12,.cls-13,.cls-14,.cls-15,.cls-18,.cls-9{fill:none;}.cls-2{fill:#ffb833;}.cls-3{fill:#aaeeea;}.cls-4{fill:#00ccc1;}.cls-5{fill:#fff3e3;}.cls-6{fill:#ffdb99;}.cls-10,.cls-7{fill:#383333;}.cls-8{fill:#ffc871;}.cls-12,.cls-13,.cls-18,.cls-9{stroke:#383333;}.cls-12,.cls-13,.cls-14,.cls-15,.cls-18,.cls-9{stroke-linecap:round;stroke-linejoin:round;}.cls-13,.cls-9{stroke-width:0.75px;}.cls-10,.cls-12,.cls-13{fill-rule:evenodd;}.cls-11{fill:#fff;}.cls-14{stroke:#aaeeea;stroke-width:3px;}.cls-15{stroke:#fff;}.cls-16{fill:#ff535c;}.cls-17{clip-path:url(#clip-path);}.cls-18{stroke-dasharray:12;}</style><clipPath id="clip-path"><path class="cls-1" d="M453.53,292.14c-8.87-2.43-19.95-9-27.64-17.33-13-14-14.87-31.31-15.13-39.11a1.53,1.53,0,0,1,1.63-1.57c7.79.49,25,2.9,38.63,16.31,8.05,7.93,14.32,19.22,16.48,28.15a54.44,54.44,0,0,1-6.5,7.55A53.3,53.3,0,0,1,453.53,292.14Z"/></clipPath></defs><g id="Data_Analysis" data-name="Data Analysis"><rect class="cls-2" x="50.61" y="237.12" width="2.83" height="16.96" rx="1.08"/><rect class="cls-2" x="50.61" y="237.12" width="2.83" height="16.96" rx="1.08" transform="translate(-193.57 297.62) rotate(-90)"/><rect class="cls-2" x="451.92" y="170.41" width="2.83" height="16.96" rx="1.08"/><rect class="cls-2" x="451.92" y="170.41" width="2.83" height="16.96" rx="1.08" transform="translate(274.45 632.22) rotate(-90)"/><rect class="cls-2" x="248.61" y="420.49" width="3.47" height="20.79" rx="1.08"/><rect class="cls-2" x="248.61" y="420.49" width="3.47" height="20.79" rx="1.08" transform="translate(-180.55 681.23) rotate(-90)"/><rect class="cls-3" x="137.37" y="32.54" width="296.19" height="227.31" rx="13.84"/><circle class="cls-4" cx="159.1" cy="48.53" r="5.03"/><circle class="cls-4" cx="183.93" cy="48.53" r="5.03"/><circle class="cls-4" cx="208.75" cy="48.53" r="5.03"/><rect class="cls-5" x="175.31" y="140.75" width="34.25" height="79.49"/><rect class="cls-5" x="220.54" y="119.67" width="34.25" height="100.57"/><rect class="cls-5" x="265.78" y="105.61" width="34.25" height="114.62"/><rect class="cls-4" x="311.01" y="94.2" width="34.25" height="126.04"/><rect class="cls-4" x="356.24" y="81.9" width="34.25" height="138.34"/><circle class="cls-6" cx="120.97" cy="173.23" r="64.03"/><path class="cls-6" d="M94.25,238c5.72,2.3,52.11,20.31,75.41-.46,20.75-18.5,16.92-62.22,13.89-96.85-.34-3.85-.7-7.05-1-9.3a96.64,96.64,0,0,0-29.47-15.56c-9.15-2.94-43.42-14.93-69.62,5.46-3.52,2.74-18,13.49-23.79,32.66C51.29,182,65,215.59,94.25,238Z"/><path class="cls-7" d="M155,165.28a18.12,18.12,0,0,1,10.68-2.37c2.52.19,5.94.44,6.79,2.52a2.75,2.75,0,0,1-.34,2.77c-1.34,1.47-4.16-.26-8.95-.77-6.31-.68-10.64,1.31-11,.36C152,167.11,154.19,165.79,155,165.28Z"/><path class="cls-6" d="M241.62,143a215.15,215.15,0,0,1-38.25,72.1c-35.26,43.58-78.54,61.66-98.77,68.62l5.64,64.47a246,246,0,0,0,78.84-49.07c60.78-56.5,74.33-127.89,77.9-153.26Z"/><path class="cls-2" d="M122.63,272.72s20-6.21,46.82-24.8c0,0,30.7,20.42,35,44.7,0,0-24.36,30.26-54.47,40.8Z"/><ellipse class="cls-8" cx="154.49" cy="194" rx="4.38" ry="7.03" transform="translate(-42 345.31) rotate(-89.07)"/><path class="cls-6" d="M117.52,172.18a12.08,12.08,0,0,0-8.17-5,9.23,9.23,0,0,0-5.77,1c-5.73,3.69-6.51,18.5,1.27,23.77,4.34,2.94,9.75,1.81,11.58,1.34Q117,182.74,117.52,172.18Z"/><path class="cls-9" d="M104.4,175l8.24,1.12s-9.26,3.65-3.54,11.64"/><path class="cls-10" d="M168.56,186a5.29,5.29,0,1,1,.77-7.44A5.29,5.29,0,0,1,168.56,186Z"/><path class="cls-9" d="M169.19,219.52a10.65,10.65,0,0,1-7-1.4"/><path class="cls-6" d="M91,220.59s-.52,22.25-9,31.51-29.9,6.76-33.8,81.14,2.19,99.1-11.7,132.08c0,0,61.21,25.75,129.26,6.07-3.92-25.69-7.35-46.46-9.65-60.07-10.14-60-15.49-82.68-21.23-125.66C131.62,261,129.71,241,128.66,229Z"/><path class="cls-11" d="M177.22,208.06s-7.45,3.36-20.13-4.07c0,0,2,9.9,9.7,10.85S177.22,208.06,177.22,208.06Z"/><path class="cls-2" d="M77.92,255.46a70.19,70.19,0,0,0,36.15,14.44,67,67,0,0,0,18.92-1,337.77,337.77,0,0,1,21.2,77.64c3.5,24.06,2.81,38,7.18,73.08,3,23.76,6.58,43.1,9.24,55.92-14.7,3.64-33.63,5.68-55.65,6.67-30.28,1.36-65.47-1.23-85.14-17,11.06-57,13.62-98.45,13.46-128.18-.11-18.33-1.35-51.59,20.55-72A55.88,55.88,0,0,1,77.92,255.46Z"/><path class="cls-6" d="M184.46,162.09s.18,12.54,5.23,18.75,3.43,14.68-6.52,14.85-10.44-3.43-10.44-3.43Z"/><path class="cls-6" d="M95.42,288.59A54.57,54.57,0,0,1,111.27,300c12.29,12.91,14.58,28.74,15.89,36.44,2.94,17.22,9.13,41.53,23.08,76.36l-30.32,25.94a180.88,180.88,0,0,1-17.42-23.11C89.42,395.09,84.44,378,77.21,352.55c-11.81-41.67-7.71-49.44-5.06-53C78,291.8,88,289.37,95.42,288.59Z"/><path class="cls-6" d="M203,369.07c-4.14,2.15-79.39,41.33-85.31,55.13a15.44,15.44,0,0,0-1.17,9c1.16,4.72,5.51,8.78,9.5,10.8l.7.34c20.74,9.8,57.73-14.91,93.68-58.57Z"/><path class="cls-2" d="M75.25,290.67s-15.34,12.51-10.77,31.75,18.27,59.7,18.27,59.7,43.06-1,56.76-15c0,0-13.86-65.13-29.77-76.44S75.25,290.67,75.25,290.67Z"/><path class="cls-6" d="M240.44,150.55s.55-10.55,1.8-17.76-2.64-22.47,1.11-21.36,6.1,12.35,6.1,12.35,29.54-17.2,32.87-16.09-15,15.35-15,15.35,5.73-.65,4.34,4.53c0,0,3.61.46,1.94,5.08,0,0,2.59,2.13,1.94,4.16s-4.62,15.54-11.18,16.37S240.44,150.55,240.44,150.55Z"/><rect class="cls-4" x="227.66" y="255.34" width="235.2" height="108.14" rx="13.84"/><circle class="cls-3" cx="245.51" cy="268.68" r="4.74"/><circle class="cls-3" cx="268.92" cy="268.68" r="4.74"/><circle class="cls-3" cx="292.32" cy="268.68" r="4.74"/><path class="cls-6" d="M199.29,371.74s13.2-9.7,20.33-17.82,8-20.79,12.54-20,.13,15.44,1.72,16.83,36.24-6.73,40.2-4.95S259,355.7,259,355.7s19.6-5.38,23.56-2.89-23.17,10-23.17,10,19.08-5.62,21.23-2.91S260,368.57,260,368.57s16.83-2.18,18,.4-30.76,7.58-43.37,10.69-18.34,9.56-18.34,9.56Z"/><path class="cls-12" d="M133.39,269.94s14.77,38.18,18.47,62.78"/><path class="cls-12" d="M85.25,286.73s17.7-1.42,28.15,22.68S134.85,369,134.85,369"/><path class="cls-12" d="M64.48,322.42s6.28,36.87,15.33,59.7h6.45"/><path class="cls-12" d="M122.63,430.89s7.09-19.66,23.19-29.42"/><path class="cls-13" d="M267.3,123s-11.14,4.65-10.1,6.85,14.44-2.32,14.44-2.32"/><path class="cls-13" d="M273.58,132.65s-12.16,3.24-14.24,2.32.32-4.5.32-4.5"/><path class="cls-13" d="M271.2,142.31l.44-2.88s-8.43,1-10.06-.55,2-4,2-4"/><path class="cls-13" d="M249.45,123.78s5.64,6.5,5.35,12.53"/><line class="cls-9" x1="251.45" y1="357.49" x2="259.03" y2="355.7"/><path class="cls-13" d="M254.08,363.91s4.61-.83,7.61-1.73"/><path class="cls-13" d="M254.08,370.34s5.06-1.19,7-1.9"/><line class="cls-14" x1="254.8" y1="297.3" x2="433.56" y2="297.3"/><line class="cls-14" x1="254.8" y1="315.41" x2="433.56" y2="315.41"/><line class="cls-14" x1="254.8" y1="333.51" x2="433.56" y2="333.51"/><path class="cls-7" d="M113.93,168.78s4.38,3.87,3.11,12.62,6.81,2,8.65-14.33-2.82-22.19-.86-27.21,28.21,6.14,50.48.89c4.19-1,11.34-4.1,14.17-10.74,4.11-9.67-3.46-22.45-12.13-28.11-2-1.32-7.33-4.8-12.72-3.26-4.83,1.37-5.37,5.55-8.81,8.48-9.45,8-24.88-6.93-48.28-4.9-14.29,1.25-24.42,8.21-28.05,10.77C65.22,123.05,59.4,136.62,57.3,141.7c-10.75,26-3.82,54.62,9.46,73.4,5.22,7.36,15.87,22.43,27.9,20.71,17.27-2.46,25.07-37.76,19.41-41.81-2.15-1.53-6.42,1.13-10.7-1.78a9.33,9.33,0,0,1-3.33-4.44c-2.58-6.45-3.52-17.63,2.61-20.71C107,164.87,112.63,168,113.93,168.78Z"/><path class="cls-12" d="M106.48,237.26s11.2,7,23.83,9.2"/><path class="cls-15" d="M170.52,112.34s20.24,19.24-11.42,24"/><path class="cls-15" d="M161.52,123.67s-5.7,11.66-33.43,3.1"/><path class="cls-15" d="M116.68,140.75s4.45,22.15.84,23.62-12.92-7.18-12.92-7.18-1.46,11.42-12.06,13.7"/><path class="cls-15" d="M92.54,182.64s15.5,20.08,6.6,35.48"/><path class="cls-15" d="M82.59,195.69s8.35,12.78,4.4,24.9"/><path class="cls-15" d="M80.55,138.57S67.33,149.13,71,168.78"/><path class="cls-16" d="M458.2,261.31s5.05-1.89,8.51.44c2.53,1.71,10.76,11.86,15,17.15a1.21,1.21,0,0,1-1.3,1.91,55.54,55.54,0,0,0-16-2.49Z"/><path class="cls-16" d="M437.09,281.8s-2,5,.17,8.51c1.63,2.59,11.53,11.12,16.69,15.49a1.21,1.21,0,0,0,1.95-1.24,55.24,55.24,0,0,1-2-16.07Z"/><g class="cls-17"><path class="cls-2" d="M453.53,292.14c-8.87-2.43-19.95-9-27.64-17.33-13-14-14.87-31.31-15.13-39.11a1.53,1.53,0,0,1,1.63-1.57c7.79.49,25,2.9,38.63,16.31,8.05,7.93,14.32,19.22,16.48,28.15a54.44,54.44,0,0,1-6.5,7.55A53.3,53.3,0,0,1,453.53,292.14Z"/><path class="cls-16" d="M411.77,260.27a45.83,45.83,0,0,1,25.14-24.39l-17-17.5-25.15,24.38Z"/></g><path class="cls-16" d="M454.25,293.83a2.61,2.61,0,0,0,3.41.21,52.12,52.12,0,0,0,11.78-11.44,2.63,2.63,0,0,0-.1-3.41l-.23-.24a2.7,2.7,0,0,0-3.79.11l-11.09,10.75a2.69,2.69,0,0,0-.22,3.78Z"/><path class="cls-16" d="M457.33,297a2.64,2.64,0,0,0,3.42.2A52.09,52.09,0,0,0,466,293a53,53,0,0,0,6.51-7.19,2.63,2.63,0,0,0-.1-3.41l-.24-.24a2.67,2.67,0,0,0-3.78.1L457.32,293a2.69,2.69,0,0,0-.22,3.78Z"/><circle class="cls-5" cx="436.89" cy="261.01" r="10.07"/><path class="cls-16" d="M442.1,266.39a7.49,7.49,0,1,0-10.59-.17A7.51,7.51,0,0,0,442.1,266.39Z"/><path class="cls-2" d="M471.49,289.37a.2.2,0,0,1,.21-.1,9,9,0,0,1,3.31,1,9.2,9.2,0,0,1,3.16,2.87.23.23,0,0,1-.29.34,6.91,6.91,0,0,0-1.09-.37,6.64,6.64,0,0,0-1.43-.18.23.23,0,0,0-.14.42,7.47,7.47,0,0,1,3.31,6.56,7.09,7.09,0,0,1-1.95,4.3.23.23,0,0,1-.38-.07,3.7,3.7,0,0,0-.95-1.37,4.65,4.65,0,0,0-2.44-1,8,8,0,0,1-3.93-2.29.23.23,0,0,0-.38.22,4.47,4.47,0,0,0,.51,1.15,4.63,4.63,0,0,0,1,1.14.24.24,0,0,1-.13.41,5.39,5.39,0,0,1-6.14-5.52.22.22,0,0,1,.12-.19,20.2,20.2,0,0,0,3.12-2.11A20.68,20.68,0,0,0,471.49,289.37Z"/><path class="cls-18" d="M478.55,314s14.27,72.84-13.78,92-44.2-11.71-28.55-18.07,60.67,57.39-48,89.37"/></g></svg>
