<svg id="Capa_1" enable-background="new 0 0 511.933 511.933" height="512" viewBox="0 0 511.933 511.933" width="512" xmlns="http://www.w3.org/2000/svg"><g><g><path d="m49.211 54.565h113.599v102.888h-113.599z" fill="#a2e62e" transform="matrix(.707 -.707 .707 .707 -43.91 106.01)"/><path d="m118.022 211.143c-12.258 12.258-32.133 12.258-44.392 0l-39.488-39.488c-18.372-18.372-18.372-48.158 0-66.529l11.127-11.127 72.753 72.753c12.258 12.257 12.258 32.132 0 44.391z" fill="#bbec6c"/><path d="m124.817 200.997c-1.53 3.69-3.79 7.15-6.79 10.15-12.26 12.26-32.14 12.26-44.4 0l-39.48-39.49c-18.38-18.37-18.38-48.16 0-66.53l11.12-11.13.52.52c-12.84 18.35-11.07 43.8 5.32 60.18l39.48 39.49c9.25 9.25 22.84 11.52 34.23 6.81z" fill="#a2e62e"/><path d="m49.211 354.478h113.599v102.888h-113.599z" fill="#5f99d7" transform="matrix(-.707 -.707 .707 -.707 -106.06 767.913)"/><path d="m211.143 393.91c12.258 12.258 12.258 32.133 0 44.392l-39.488 39.488c-18.372 18.372-48.158 18.372-66.529 0l-11.127-11.127 72.753-72.753c12.258-12.258 32.133-12.258 44.391 0z" fill="#7bacdf"/><path d="m216.955 401.923c-11.78-6-26.56-4.06-36.4 5.79l-72.65 72.64c-.95-.8-1.88-1.66-2.78-2.56l-11.13-11.13 72.75-72.76c12.26-12.25 32.14-12.25 44.4 0 2.42 2.42 4.36 5.13 5.81 8.02z" fill="#5f99d7"/><path d="m349.123 54.565h113.599v102.888h-113.599z" fill="#dedbee" transform="matrix(.707 .707 -.707 .707 193.852 -255.981)"/><path d="m300.789 118.021c-12.258-12.258-12.258-32.133 0-44.392l39.488-39.488c18.372-18.372 48.158-18.372 66.529 0l11.127 11.127-72.753 72.753c-12.257 12.259-32.132 12.259-44.391 0z" fill="#faf7f7"/><path d="m310.938 124.811c-3.69-1.53-7.15-3.79-10.15-6.79-12.26-12.26-12.26-32.14 0-44.4l39.49-39.48c18.37-18.38 48.16-18.38 66.53 0l11.13 11.12-.52.52c-18.35-12.84-43.8-11.07-60.18 5.32l-39.49 39.48c-9.25 9.25-11.52 22.84-6.81 34.23z" fill="#dedbee"/><path d="m349.123 354.478h113.599v102.888h-113.599z" fill="#fd4755" transform="matrix(-.707 .707 -.707 -.707 979.983 405.922)"/><path d="m393.911 300.789c12.258-12.258 32.133-12.258 44.392 0l39.488 39.488c18.372 18.372 18.372 48.158 0 66.529l-11.127 11.127-72.753-72.753c-12.259-12.258-12.259-32.133 0-44.391z" fill="#fe646f"/><path d="m401.924 294.977c-6 11.78-4.06 26.56 5.79 36.4l72.64 72.65c-.8.95-1.66 1.88-2.56 2.78l-11.13 11.13-72.76-72.75c-12.25-12.26-12.25-32.14 0-44.4 2.42-2.42 5.13-4.36 8.02-5.81z" fill="#fd4755"/><path d="m237.527 27.627-209.9 209.9c-10.184 10.184-10.184 26.695 0 36.879l209.9 209.9c10.184 10.184 26.695 10.184 36.879 0l209.9-209.9c10.184-10.184 10.184-26.695 0-36.879l-209.9-209.9c-10.184-10.184-26.695-10.184-36.879 0z" fill="#b98080"/><path d="m72.707 274.396 205.8 205.8-4.1 4.1c-10.18 10.19-26.7 10.19-36.88 0l-209.9-209.9c-10.18-10.18-10.18-26.69 0-36.87l209.9-209.9c10.18-10.19 26.7-10.19 36.88 0l4.1 4.1-205.8 205.8c-10.18 10.18-10.18 26.69 0 36.87z" fill="#ae6c6c"/><path d="m206.179 230.466h85.67v114.394h-85.67z" fill="#dedbee" transform="matrix(.707 .707 -.707 .707 276.343 -91.825)"/><path d="m130.512 246.024h85.67v114.394h-85.67z" fill="#faf7f7" transform="matrix(.707 .707 -.707 .707 265.182 -33.763)"/><path d="m286.884 380.005c-12.258 12.258-12.258 32.133 0 44.392l53.394 53.394c18.372 18.372 48.158 18.372 66.529 0l11.127-11.127-86.659-86.659c-12.258-12.259-32.133-12.259-44.391 0z" fill="#fe646f"/><path d="m294.884 374.206c-5.99 11.78-4.05 26.54 5.8 36.39l53.39 53.39c17.47 17.48 45.26 18.34 63.75 2.57l.11.11-11.13 11.13c-18.37 18.37-48.16 18.37-66.53 0l-53.39-53.4c-12.26-12.26-12.26-32.13 0-44.39 2.41-2.409 5.11-4.349 8-5.8z" fill="#fd4755"/><path d="m398.785 486.333c-24.177-24.177-24.177-63.372 0-87.549s63.372-24.177 87.549 0c.936.936 1.845 1.9 2.698 2.883-8.229 12.918.005 53.699-16.829 70.534-16.826 16.826-57.101 6.54-70.543 16.82-.984-.852-1.939-1.752-2.875-2.688z" fill="#ffdfcf"/><path d="m458.015 479.934c-19.26 5.53-45.91 1.1-56.36 9.09-.98-.86-1.94-1.76-2.87-2.69-24.18-24.18-24.18-63.37 0-87.55 4.16-4.16 8.75-7.6 13.64-10.33-13.17 23.57-9.73 53.91 10.3 73.93.94.94 1.89 1.84 2.87 2.69 9.4 8.3 20.72 13.25 32.42 14.86z" fill="#ffcebf"/><path d="m401.659 489.021c.992-22.036 9.919-43.793 26.745-60.619 16.835-16.835 38.583-25.753 60.628-26.736 21.442 24.316 20.543 61.425-2.698 84.666-23.241 23.242-60.369 24.141-84.675 2.689z" fill="#ffd15b"/><path d="m496.654 472.694c-2.72 4.89-6.16 9.48-10.32 13.64-23.25 23.24-60.37 24.14-84.68 2.69.62-13.72 4.31-27.34 11.07-39.72 2.67 4.68 6 9.09 10 13.08.94.94 1.89 1.84 2.87 2.69 19.971 17.62 48.591 20.17 71.06 7.62z" fill="#ffc344"/><path d="m380.005 225.048c12.258 12.258 32.133 12.258 44.392 0l53.394-53.394c18.372-18.372 18.372-48.158 0-66.529l-11.127-11.127-86.659 86.659c-12.258 12.258-12.258 32.133 0 44.391z" fill="#faf7f7"/><path d="m390.168 231.841c-3.69-1.53-7.16-3.8-10.16-6.8-12.26-12.26-12.26-32.13 0-44.39l86.66-86.66 11.13 11.13c1.99 1.99 3.77 4.11 5.32 6.34l-86.15 86.15c-9.26 9.26-11.52 22.85-6.8 34.23z" fill="#dedbee"/><path d="m486.334 113.147c-24.177 24.177-63.372 24.177-87.549 0s-24.177-63.372 0-87.549c.936-.936 1.9-1.845 2.883-2.698 12.918 8.229 53.699-.005 70.534 16.829 16.826 16.826 6.54 57.101 16.82 70.543-.853.984-1.752 1.939-2.688 2.875z" fill="#d78878"/><path d="m410.795 122.517c-4.28-2.56-8.32-5.68-12.01-9.37-24.18-24.18-24.18-63.37 0-87.55.94-.94 1.9-1.85 2.88-2.7 8.96 5.71 31.3 3.5 49.78 7.22-10.25 2.1-20.07 6.82-28.39 14.16-.99.86-1.95 1.77-2.89 2.7-20.49 20.49-23.62 51.76-9.37 75.54z" fill="#ca6e59"/><path d="m489.022 110.273c-22.036-.992-43.793-9.919-60.619-26.745-16.835-16.835-25.753-38.583-26.736-60.628 24.316-21.442 61.425-20.543 84.666 2.698s24.14 60.369 2.689 84.675z" fill="#7a6d79"/><path d="m410.825 58.937c-5.56-11.37-8.61-23.66-9.16-36.04 24.32-21.44 61.43-20.54 84.67 2.7 3.69 3.69 6.81 7.73 9.37 12.01-22.69-13.59-52.2-11.37-72.65 6.67-.99.86-1.95 1.77-2.89 2.7-3.67 3.67-6.79 7.69-9.34 11.96z" fill="#685e68"/><path d="m131.927 286.883c-12.258-12.258-32.133-12.258-44.392 0l-53.394 53.394c-18.372 18.372-18.372 48.158 0 66.529l11.127 11.127 86.659-86.659c12.259-12.257 12.259-32.132 0-44.391z" fill="#7bacdf"/><path d="m137.726 294.883c-11.78-5.99-26.54-4.05-36.39 5.8l-53.39 53.39c-17.48 17.47-18.34 45.26-2.57 63.75l-.11.11-11.13-11.13c-18.37-18.37-18.37-48.16 0-66.53l53.4-53.39c12.26-12.26 32.13-12.26 44.39 0 2.409 2.41 4.349 5.11 5.8 8z" fill="#5f99d7"/><path d="m25.599 398.784c24.177-24.177 63.372-24.177 87.549 0s24.177 63.372 0 87.549c-.936.936-1.9 1.845-2.883 2.698-12.918-8.229-53.699.005-70.534-16.829-16.826-16.826-6.54-57.101-16.82-70.543.852-.984 1.752-1.939 2.688-2.875z" fill="#ffdfcf"/><path d="m31.999 458.013c-5.53-19.26-1.1-45.91-9.09-56.36.86-.98 1.76-1.94 2.69-2.87 24.18-24.18 63.37-24.18 87.55 0 4.16 4.16 7.6 8.75 10.33 13.64-23.57-13.17-53.91-9.73-73.93 10.3-.94.94-1.84 1.89-2.69 2.87-8.3 9.4-13.25 20.72-14.86 32.42z" fill="#ffcebf"/><path d="m22.911 401.658c22.036.992 43.793 9.919 60.619 26.745 16.835 16.835 25.753 38.583 26.736 60.628-24.316 21.442-61.425 20.543-84.666-2.698-23.242-23.241-24.141-60.368-2.689-84.675z" fill="#7a6d79"/><path d="m39.239 496.653c-4.89-2.72-9.48-6.16-13.64-10.32-23.24-23.25-24.14-60.37-2.69-84.68 13.72.62 27.34 4.31 39.72 11.07-4.68 2.67-9.09 6-13.08 10-.94.94-1.84 1.89-2.69 2.87-17.62 19.97-20.17 48.59-7.62 71.06z" fill="#685e68"/><path d="m225.049 131.927c12.258-12.258 12.258-32.133 0-44.392l-53.394-53.394c-18.372-18.372-48.158-18.372-66.529 0l-11.128 11.127 86.659 86.659c12.258 12.258 32.133 12.258 44.392 0z" fill="#bbec6c"/><path d="m231.847 121.767c-1.53 3.69-3.8 7.16-6.8 10.16-12.26 12.26-32.13 12.26-44.39 0l-86.66-86.66 11.13-11.13c1.99-1.99 4.11-3.77 6.34-5.32l86.15 86.15c9.26 9.26 22.85 11.52 34.23 6.8z" fill="#a2e62e"/><path d="m113.148 25.598c24.177 24.177 24.177 63.372 0 87.549s-63.372 24.177-87.549 0c-.936-.936-1.845-1.9-2.698-2.883 8.229-12.918-.005-53.699 16.829-70.534 16.826-16.826 57.101-6.54 70.543-16.82.984.853 1.939 1.752 2.875 2.688z" fill="#ffdfcf"/><path d="m122.519 101.138c-2.56 4.28-5.68 8.32-9.37 12.01-24.18 24.18-63.37 24.18-87.55 0-.94-.94-1.85-1.9-2.7-2.88 5.71-8.96 3.5-31.3 7.22-49.78 2.1 10.25 6.82 20.07 14.16 28.39.86.99 1.77 1.95 2.7 2.89 20.49 20.49 51.76 23.62 75.54 9.37z" fill="#ffcebf"/><path d="m110.274 22.91c-.992 22.036-9.919 43.793-26.745 60.619-16.835 16.835-38.583 25.753-60.628 26.736-21.442-24.317-20.543-61.426 2.698-84.667 23.241-23.24 60.368-24.139 84.675-2.688z" fill="#b98080"/><path d="m58.939 101.109c-11.37 5.56-23.66 8.61-36.04 9.16-21.44-24.32-20.54-61.43 2.7-84.67 3.69-3.69 7.73-6.81 12.01-9.37-13.59 22.69-11.37 52.2 6.67 72.65.86.99 1.77 1.95 2.7 2.89 3.67 3.669 7.69 6.789 11.96 9.34z" fill="#ae6c6c"/></g><path d="m483.099 334.976-24.378-24.378 4.669-4.669c2.929-2.929 2.928-7.678 0-10.607-2.93-2.929-7.678-2.928-10.607 0l-97.785 97.793-18.417-18.417c-7.343-7.343-17.107-11.387-27.493-11.387-.002 0-.004 0-.006 0-10.388.001-20.156 4.049-27.503 11.396-7.344 7.344-11.388 17.109-11.388 27.497 0 10.387 4.044 20.152 11.388 27.496l18.412 18.412-30.889 30.889c-7.244 7.243-19.029 7.243-26.273 0l-124.008-124.008 7.398-7.398 31.664 31.664c1.464 1.465 3.384 2.197 5.303 2.197s3.838-.732 5.303-2.196l40.312-40.312 24.752 24.751c1.464 1.464 3.384 2.197 5.303 2.197s3.839-.732 5.303-2.197l80.89-80.89c2.929-2.929 2.929-7.678 0-10.606l-60.58-60.58c-2.929-2.929-7.678-2.929-10.606 0l-40.309 40.309-24.745-24.749c-2.929-2.929-7.678-2.929-10.606 0l-48.508 48.508c-5.971-3.585-12.822-5.5-19.968-5.5-10.387 0-20.152 4.044-27.496 11.388l-18.412 18.412-30.889-30.889c-3.507-3.507-5.438-8.172-5.438-13.137 0-4.964 1.932-9.63 5.438-13.136l124.016-124.007 18.404 18.404c7.341 7.347 17.104 11.393 27.492 11.393h.006c10.39-.001 20.158-4.051 27.499-11.398 7.347-7.342 11.394-17.106 11.394-27.496s-4.046-20.154-11.391-27.493l-18.41-18.414 30.89-30.89c7.243-7.243 19.029-7.243 26.273 0l124.009 124.009-18.412 18.414c-15.162 15.162-15.158 39.835.009 55.002 7.344 7.344 17.109 11.388 27.497 11.388 10.387 0 20.152-4.044 27.496-11.388l18.413-18.413 30.889 30.889c7.244 7.244 7.244 19.03 0 26.273l-1.5 1.5c-2.929 2.929-2.929 7.678 0 10.606 1.464 1.464 3.384 2.197 5.303 2.197s3.839-.732 5.303-2.197l1.5-1.5c13.092-13.092 13.092-34.395 0-47.486l-30.889-30.889 24.378-24.378c16.248-16.248 20.44-40.675 11.073-61.179 24.496-27.215 23.653-69.293-2.535-95.481-26.188-26.188-68.267-27.03-95.481-2.535-20.504-9.367-44.931-5.176-61.179 11.073l-24.378 24.378-30.889-30.889c-13.092-13.092-34.395-13.092-47.486 0l-30.889 30.889-23.695-23.698c-2.929-2.929-7.677-2.929-10.606-.001-2.929 2.929-2.93 7.677-.001 10.606l52.712 52.722c4.512 4.508 6.996 10.504 6.996 16.885 0 6.38-2.484 12.376-7 16.889-4.512 4.516-10.512 7.004-16.895 7.005-.001 0-.002 0-.003 0-6.378 0-12.374-2.484-16.883-6.997l-47.855-47.855c2.29-16.906-1.641-34.49-11.778-49.039 4.554-1.456 9.366-2.079 14.241-1.814 4.136.228 7.671-2.944 7.897-7.08s-2.944-7.672-7.08-7.897c-8.889-.484-17.639 1.174-25.617 4.816-27.214-24.488-69.287-23.644-95.472 2.542-26.188 26.188-27.031 68.266-2.535 95.481-9.367 20.504-5.174 44.932 11.073 61.179l24.379 24.38-30.89 30.887c-6.34 6.34-9.832 14.772-9.832 23.743s3.492 17.403 9.832 23.743l30.889 30.889-24.378 24.378c-16.248 16.248-20.44 40.675-11.074 61.179-24.493 27.21-23.651 69.29 2.533 95.484 6.386 6.385 13.801 11.383 22.04 14.857 3.817 1.61 8.215-.18 9.824-3.997 1.609-3.816-.18-8.215-3.997-9.824-6.444-2.717-12.251-6.635-17.259-11.642-19.518-19.526-21.059-50.308-4.654-71.623 19.62 1.734 37.96 10.276 51.98 24.296 14.024 14.024 22.566 32.37 24.297 51.997-7.06 5.447-15.312 9.054-24.218 10.522-4.087.674-6.854 4.534-6.179 8.621.606 3.674 3.786 6.28 7.391 6.28.406 0 .817-.033 1.229-.101 13.144-2.168 25.172-7.977 35.016-16.851 7.222 3.302 14.931 4.922 22.599 4.922 14.104 0 28.067-5.472 38.594-15.999l24.378-24.378 30.889 30.889c6.546 6.546 15.145 9.819 23.743 9.819 8.599 0 17.197-3.273 23.743-9.819l30.889-30.889 24.378 24.378c10.528 10.528 24.489 15.999 38.594 15.999 7.665 0 15.372-1.62 22.593-4.919 13.152 11.835 29.773 17.755 46.396 17.755 17.773 0 35.547-6.765 49.078-20.296 26.188-26.188 27.031-68.266 2.535-95.481 9.367-20.503 5.174-44.93-11.073-61.178zm-117.499-226.763 12.673-12.673c3.383 8.343 8.451 16.156 15.207 22.912 6.755 6.756 14.569 11.824 22.912 15.207l-12.673 12.673zm38.486-.367c-18.263-18.263-20.788-46.38-7.604-67.386 4.069 18.201 13.211 34.966 26.618 48.373 13.406 13.406 30.171 22.548 48.372 26.618-21.006 13.182-49.122 10.657-67.386-7.605zm68.406 58.503-53.397 53.397c-9.313 9.312-24.466 9.313-33.78 0-4.515-4.515-7.002-10.517-7.003-16.899-.001-6.381 2.483-12.379 6.994-16.89l47.854-47.854c3.118.423 6.258.645 9.399.645 13.894 0 27.778-4.154 39.646-12.423 4.449 13.863.943 29.368-9.713 40.024zm-29.933-151.357c13.932 0 27.865 5.304 38.472 15.91 19.521 19.521 21.063 50.301 4.655 71.62-19.62-1.735-37.959-10.276-51.979-24.296s-22.561-32.359-24.296-51.979c9.735-7.493 21.437-11.255 33.148-11.255zm-96.976 24.447c10.656-10.656 26.161-14.161 40.023-9.711-10.138 14.55-14.069 32.136-11.778 49.044l-18.835 18.834-33.789-33.789zm-199.243 68.776-38.122 38.12-12.676-12.677c8.343-3.383 16.156-8.451 22.912-15.207 6.757-6.757 11.826-14.572 15.208-22.916zm-30.89-67.756c13.184 21.006 10.659 49.123-7.604 67.386s-46.379 20.787-67.386 7.604c18.201-4.069 34.966-13.211 48.372-26.618 13.407-13.406 22.549-30.171 26.618-48.372zm-84.548-9.557c10.607-10.606 24.54-15.91 38.472-15.91 11.71 0 23.413 3.762 33.148 11.255-1.735 19.62-10.276 37.959-24.296 51.979s-32.359 22.562-51.979 24.296c-16.408-21.319-14.866-52.099 4.655-71.62zm8.538 135.447c-10.656-10.656-14.161-26.161-9.712-40.023 11.867 8.269 25.752 12.423 39.646 12.423 3.141 0 6.281-.223 9.399-.645l18.838 18.838-33.79 33.788zm106.893 237.369-12.651 12.651c-3.446-8.462-8.575-16.233-15.231-22.886-6.654-6.657-14.425-11.787-22.887-15.233l12.651-12.651zm112.833-176.186 49.973 49.974-70.283 70.283-19.449-19.448 29.972-29.972c2.928-2.929 2.928-7.676 0-10.605l-25.221-25.225zm-75.66 15.56 49.965 49.974-70.284 70.284-26.362-26.361.407-.407c13.839-13.839 15.036-35.598 3.608-50.823zm-144.066 102.49 53.397-53.397c9.313-9.312 24.466-9.313 33.78 0 4.515 4.515 7.002 10.517 7.003 16.899.001 6.381-2.483 12.379-6.994 16.89l-47.823 47.823c-3.1-.419-6.246-.647-9.428-.647-14.389 0-28.099 4.367-39.65 12.443-4.444-13.858-.937-29.358 9.715-40.011zm1.001 50.896c8.588-5.415 18.534-8.327 28.934-8.327 14.533 0 28.194 5.66 38.469 15.939 10.277 10.273 15.937 23.935 15.937 38.467 0 10.399-2.912 20.345-8.327 28.933-4.067-18.208-13.211-34.979-26.622-48.39-13.411-13.412-30.183-22.555-48.391-26.622zm125.909 76.014c-10.654 10.652-26.153 14.159-40.011 9.716 8.076-11.552 12.443-25.262 12.443-39.651 0-3.182-.228-6.328-.647-9.428l18.805-18.805 33.789 33.789zm230.132-1.02c-13.184-21.006-10.659-49.123 7.604-67.386 10.607-10.606 24.54-15.91 38.472-15.91 10.057 0 20.107 2.779 28.914 8.306-18.201 4.069-34.966 13.211-48.372 26.618-13.406 13.406-22.548 30.171-26.618 48.372zm76.01-125.89c10.656 10.656 14.161 26.161 9.712 40.023-14.55-10.138-32.136-14.069-49.044-11.777l-18.832-18.833 33.788-33.791zm-68.77 20.02 12.67 12.67c-8.343 3.383-16.156 8.451-22.912 15.207s-11.824 14.569-15.206 22.912l-12.669-12.668zm-58.139 106.89-53.397-53.397c-9.313-9.313-9.313-24.467 0-33.78 9.318-9.318 24.477-9.322 33.789-.009l47.854 47.854c-2.292 16.908 1.64 34.494 11.778 49.044-13.862 4.449-29.368.944-40.024-9.712zm135.447 8.538c-19.522 19.521-50.301 21.062-71.62 4.655 1.735-19.62 10.276-37.959 24.296-51.979s32.359-22.562 51.979-24.296c16.408 21.318 14.867 52.098-4.655 71.62z"/></g></svg>