<svg height="512" viewBox="0 0 24 24" width="512" xmlns="http://www.w3.org/2000/svg"><g id="Layer_2" data-name="Layer 2"><g fill="#ff6174"><path d="m20 4.25h-16a.749.749 0 0 0 -.749.794l.89 15.117a2.752 2.752 0 0 0 2.745 2.589h10.228a2.752 2.752 0 0 0 2.745-2.588l.89-15.118a.749.749 0 0 0 -.749-.794z"/><path d="m21.5 4h-19a1 1 0 0 0 0 2h19a1 1 0 0 0 0-2z"/><path d="m16 1h-8a1 1 0 0 0 0 2h8a1 1 0 0 0 0-2z"/></g><path d="m9.5 16.75a.75.75 0 0 1 -.75-.75v-5a.75.75 0 0 1 1.5 0v5a.75.75 0 0 1 -.75.75z" fill="#fff"/><path d="m14.5 16.75a.75.75 0 0 1 -.75-.75v-5a.75.75 0 0 1 1.5 0v5a.75.75 0 0 1 -.75.75z" fill="#fff"/></g></svg>