<svg id="Capa_1" enable-background="new 0 0 504.5 504.5" height="512" viewBox="0 0 504.5 504.5" width="512" xmlns="http://www.w3.org/2000/svg"><g><g><g><g><path d="m445.124 504.5h-385.748c-16.569 0-30-13.431-30-30v-26.733l445.748-96v122.733c0 16.569-13.432 30-30 30z" fill="#cdbfba"/><path d="m363.51 474.5h-304.084c-16.596 0-30.05-13.454-30.05-30.05v-372.626c0-16.596 13.454-30.05 30.05-30.05h385.647c16.596 0 30.05 13.454 30.05 30.05v291.062c0 7.97-18.166 15.613-23.802 21.249l-66.563 66.563c-5.634 5.636-13.278 23.802-21.248 23.802z" fill="#f9f3f1"/><path d="m351.196 474.5c13.598 0 24.621-11.023 24.621-24.621v-50.064c0-13.598 11.023-24.621 24.621-24.621h50.064c13.598 0 24.621-11.023 24.621-24.621v12.174c0 7.97-3.166 15.613-8.802 21.249l-81.703 81.703c-5.636 5.636-13.279 8.802-21.249 8.802h-12.173z" fill="#efe2dd"/><path d="m475.12 71.77v77.18h-445.74v-77.18c0-16.56 13.43-30 30-30h385.74c16.57 0 30 13.44 30 30z" fill="#8379c1"/><g><g><path d="m114.3 94.133c-5.722 0-10.58-.003-14.72-.003-12.58 0-22.81-10.23-22.81-22.8v-29.56h15v29.56c0 4.3 3.5 7.8 7.81 7.8 4.14 0 18.86 15.003 14.72 15.003z" fill="#6354b1"/></g><g><path d="m386.757 94.133s-10.577-.003-14.727-.003c-12.57 0-22.8-10.23-22.8-22.8v-29.56h15v29.56c0 4.3 3.5 7.8 7.8 7.8 4.15 0 14.727 10.863 14.727 15.003z" fill="#6354b1"/></g></g><g><g><path d="m125.55 41.774v-18.967c0-4.305-3.502-7.807-7.807-7.807h-3.443c-4.305 0-7.807 3.502-7.807 7.807v48.52c0 4.305 3.502 7.807 7.807 7.807 4.142 0 7.5 3.358 7.5 7.5s-3.358 7.5-7.5 7.5c-12.576 0-22.807-10.231-22.807-22.807v-48.52c0-12.576 10.231-22.807 22.807-22.807h3.443c12.576 0 22.807 10.231 22.807 22.807v18.967z" fill="#554e56"/></g><g><path d="m394.257 86.633c0 4.142-3.358 7.5-7.5 7.5-12.576 0-22.807-10.231-22.807-22.807v-48.52c0-12.575 10.231-22.806 22.807-22.806h3.443c12.576 0 22.807 10.231 22.807 22.807v18.967h-15v-18.967c0-4.305-3.502-7.807-7.807-7.807h-3.443c-4.305 0-7.807 3.502-7.807 7.807v48.52" fill="#554e56"/></g></g></g></g></g><g><path d="m219.072 386.465c-5.879 0-11.758-2.243-16.243-6.728l-36.786-36.785c-8.808-8.808-9.46-23.16-.969-32.275 8.914-9.569 23.901-9.768 33.068-.602l18.103 18.103c1.562 1.562 4.095 1.562 5.657 0l84.46-84.46c8.97-8.972 23.516-8.972 32.487 0 8.971 8.971 8.971 23.516 0 32.487l-103.534 103.531c-4.485 4.486-10.364 6.729-16.243 6.729z" fill="#7acaa6"/></g></g></svg>