<svg xmlns="http://www.w3.org/2000/svg" viewBox="0 0 1024 1024" role="img" aria-label="logo outline">
<style>:root{color:#4f6ff5}.dark{color:#e8ecff}@media (prefers-color-scheme: dark){svg{color:#e8ecff}} .outline{fill:none;stroke:currentColor;stroke-width:10;stroke-linecap:round;stroke-linejoin:round;vector-effect:non-scaling-stroke}</style>
<g class="outline">
<path d="M 473 114 L 461 117 L 448 124 L 437 135 L 430 147 L 417 207 L 410 257 L 324 205 L 304 197 L 278 199 L 265 206 L 253 218 L 208 273 L 202 288 L 202 307 L 211 329 L 262 391 L 284 413 L 240 430 L 229 419 L 212 411 L 188 410 L 181 412 L 166 420 L 156 430 L 147 448 L 145 464 L 148 480 L 157 496 L 169 507 L 189 515 L 198 557 L 210 591 L 220 610 L 209 632 L 208 653 L 211 664 L 221 680 L 232 689 L 249 696 L 267 697 L 279 694 L 307 724 L 357 761 L 401 783 L 431 793 L 458 798 L 466 813 L 478 825 L 496 834 L 515 836 L 530 833 L 545 825 L 556 814 L 566 798 L 586 795 L 615 786 L 643 774 L 673 757 L 713 727 L 745 694 L 756 696 L 775 694 L 790 687 L 802 676 L 810 662 L 813 651 L 812 629 L 805 612 L 824 566 L 835 515 L 852 508 L 867 494 L 873 484 L 877 471 L 877 453 L 873 440 L 867 430 L 854 418 L 839 411 L 824 409 L 807 412 L 795 418 L 783 430 L 740 413 L 812 329 L 818 318 L 822 301 L 821 288 L 815 272 L 760 207 L 738 197 L 715 198 L 699 205 L 613 256 L 597 157 L 592 144 L 584 132 L 569 120 L 549 114 Z"/>
<path d="M 511 759 L 519 760 L 527 766 L 530 772 L 530 781 L 521 794 L 507 797 L 497 790 L 494 784 L 494 774 L 501 763 Z"/>
<path d="M 252 632 L 264 630 L 269 632 L 275 639 L 275 650 L 267 659 L 256 660 L 246 652 L 245 641 Z"/>
<path d="M 572 553 L 645 616 L 675 634 L 709 647 L 715 668 L 686 699 L 653 724 L 613 745 L 565 760 L 556 742 L 542 729 L 531 724 L 531 571 L 550 565 Z"/>
<path d="M 451 553 L 467 563 L 493 571 L 493 723 L 477 732 L 468 741 L 458 760 L 409 744 L 369 723 L 332 694 L 308 668 L 314 646 L 337 638 L 374 618 L 412 588 Z"/>
<path d="M 618 467 L 678 450 L 709 448 L 733 452 L 772 468 L 780 492 L 797 511 L 791 540 L 779 577 L 766 605 L 755 620 L 741 618 L 714 609 L 672 587 L 645 567 L 599 526 L 613 496 Z"/>
<path d="M 406 468 L 411 499 L 424 526 L 376 568 L 337 594 L 300 611 L 293 604 L 279 596 L 253 592 L 235 548 L 227 508 L 238 499 L 245 489 L 252 466 L 295 451 L 330 448 L 354 452 Z"/>
<path d="M 821 446 L 831 447 L 840 458 L 840 466 L 837 472 L 828 478 L 817 477 L 808 466 L 810 454 Z"/>
<path d="M 197 446 L 208 449 L 215 459 L 213 471 L 208 476 L 200 479 L 191 477 L 184 470 L 182 464 L 184 455 L 191 448 Z"/>
<path d="M 505 398 L 529 400 L 553 412 L 565 424 L 572 435 L 579 459 L 577 482 L 566 505 L 547 523 L 533 530 L 520 533 L 502 533 L 489 530 L 466 516 L 451 496 L 444 470 L 445 454 L 449 440 L 461 421 L 476 408 L 488 402 Z"/>
<path d="M 735 238 L 779 290 L 782 296 L 780 305 L 723 374 L 700 395 L 669 412 L 610 428 L 594 399 L 584 388 L 567 375 L 585 339 L 602 316 L 634 288 L 723 238 Z"/>
<path d="M 290 237 L 295 236 L 307 241 L 392 290 L 414 308 L 440 342 L 456 374 L 432 394 L 420 411 L 412 428 L 353 412 L 324 396 L 296 370 L 242 305 L 241 295 Z"/>
<path d="M 548 155 L 554 159 L 558 166 L 573 250 L 571 280 L 559 308 L 529 360 L 494 360 L 458 294 L 452 274 L 452 240 L 466 167 L 470 159 L 476 155 Z"/>
</g></svg>