<svg height="512" viewBox="0 0 64 64" width="512" xmlns="http://www.w3.org/2000/svg"><g id="_14-firewall" data-name="14-firewall"><path d="m8 3h16v8h-16z" fill="#fe8845"/><path d="m24 3h16v8h-16z" fill="#d46120"/><path d="m40 3h16v8h-16z" fill="#fe8845"/><path d="m1 3h7v8h-7z" fill="#d46120"/><path d="m56 3h7v8h-7z" fill="#d46120"/><path d="m8 19h16v8h-16z" fill="#fe8845"/><path d="m24 19h16v8h-16z" fill="#d46120"/><path d="m40 19h16v8h-16z" fill="#fe8845"/><path d="m1 19h7v8h-7z" fill="#d46120"/><path d="m56 19h7v8h-7z" fill="#d46120"/><path d="m8 35h16v8h-16z" fill="#fe8845"/><path d="m24 35h16v8h-16z" fill="#d46120"/><path d="m40 35h16v8h-16z" fill="#fe8845"/><path d="m1 35h7v8h-7z" fill="#d46120"/><path d="m56 35h7v8h-7z" fill="#d46120"/><path d="m1 11h15v8h-15z" fill="#be571d"/><path d="m16 11h16v8h-16z" fill="#e87c3f"/><path d="m32 11h16v8h-16z" fill="#be571d"/><path d="m48 11h15v8h-15z" fill="#e87c3f"/><path d="m1 27h15v8h-15z" fill="#be571d"/><path d="m16 27h16v8h-16z" fill="#e87c3f"/><path d="m32 27h16v8h-16z" fill="#be571d"/><path d="m48 27h15v8h-15z" fill="#e87c3f"/><path d="m46.462 61c-10.078 0-17.133-6-15.117-23 0 0 2.015 5 6.047 3s0-9 0-9a7.169 7.169 0 0 1 6.046 4s3.024-8-1.007-13c0 0 13.1 4 15.117 21a6.278 6.278 0 0 0 3.023-7s11.086 24-14.109 24z" fill="#eb3138"/><path d="m46 57c-5 0-8-4-6-10 0 0 2 3 5 1s0-7 0-7 5 4 5 8c0 0 3-1 3-3 0 0 5 11-7 11z" fill="#fac437"/><path d="m63 2h-62a1 1 0 0 0 -1 1v40a1 1 0 0 0 1 1h27a1 1 0 0 0 0-2h-3v-6h10a1 1 0 0 0 0-2h-2v-6h7a1 1 0 0 0 1-1v-2a1 1 0 0 0 -2 0v1h-14v-6h30v6h-1a1 1 0 0 0 0 2h8v7a1 1 0 0 0 2 0v-32a1 1 0 0 0 -1-1zm-1 8h-5v-6h5zm-7 0h-14v-6h14zm-16 0h-14v-6h14zm-8 8h-14v-6h14zm-29 0v-6h13v6zm13 16h-13v-6h13zm-8-8h-5v-6h5zm16-16h-14v-6h14zm-21-6h5v6h-5zm0 32h5v6h-5zm21 6h-14v-6h14zm8-14v6h-14v-6zm-8-2h-14v-6h14zm10-8v-6h14v6zm16-6h13v6h-13zm8 8h5v6h-5z"/><path d="m60.253 36.05a1 1 0 0 0 -.67 1.147 5.333 5.333 0 0 1 -1.3 4.977c-2.72-16.024-15.44-20.09-15.573-20.131a1 1 0 0 0 -1.07 1.584c2.467 3.061 1.978 7.5 1.408 10.043a8.148 8.148 0 0 0 -5.665-2.67 1 1 0 0 0 -.867 1.5c.626 1.09 2.119 4.351 1.521 6.318a2.005 2.005 0 0 1 -1.1 1.287 2.7 2.7 0 0 1 -2.23.216 5.37 5.37 0 0 1 -2.445-2.694 1 1 0 0 0 -1.921.256c-1.043 8.8.251 15.31 3.846 19.356 2.813 3.161 6.935 4.761 12.267 4.761 6.546 0 12.8-2.136 15.491-6.347 4.785-7.481-.257-18.6-.474-19.072a1 1 0 0 0 -1.218-.531zm0 18.53c-2.3 3.6-6.947 5.42-13.8 5.42-4.736 0-8.359-1.376-10.77-4.09-2.827-3.182-4.037-8.228-3.608-15.023a5.393 5.393 0 0 0 1.915 1.3 4.642 4.642 0 0 0 3.837-.291 3.99 3.99 0 0 0 2.124-2.5c.595-1.966-.111-4.371-.791-6.014a6.126 6.126 0 0 1 3.376 3.069.981.981 0 0 0 .946.549 1 1 0 0 0 .883-.645c.11-.292 2.262-6.123.411-11.172 3.778 2.136 10.409 7.46 11.769 18.936a1 1 0 0 0 1.438.778 7.08 7.08 0 0 0 3.1-3.339c.982 3.677 1.707 9.068-.826 13.022z"/><path d="m52.78 45.022a1 1 0 0 0 -.788.978c0 .6-.581 1.129-1.185 1.5-.924-3.831-5-7.129-5.191-7.285a1 1 0 0 0 -1.483 1.3c.026.042 2.439 4.23.3 5.654a2.479 2.479 0 0 1 -3.613-.723 1 1 0 0 0 -1.781.239c-1.1 3.287-.853 6.269.682 8.4a7.44 7.44 0 0 0 6.271 2.915c3.886 0 6.57-1.106 7.974-3.288 2.367-3.676.037-8.905-.064-9.126a1.006 1.006 0 0 0 -1.122-.564zm-.5 8.607c-1.008 1.571-3.126 2.371-6.288 2.371a5.5 5.5 0 0 1 -4.645-2.086 6.425 6.425 0 0 1 -.821-5.012q.163.112.345.216a4.275 4.275 0 0 0 4.675-.286 4.133 4.133 0 0 0 1.774-3.938 7.363 7.363 0 0 1 1.672 4.106 1 1 0 0 0 1.316.948 7.443 7.443 0 0 0 2.453-1.412 6.944 6.944 0 0 1 -.476 5.093z"/></g></svg>