<svg id="Layer_1" enable-background="new 0 0 56 56" height="512" viewBox="0 0 56 56" width="512" xmlns="http://www.w3.org/2000/svg"><g id="_x31_04"><g><g><g><g><g><g enable-background="new"><g><g><path d="m4 33.9v1.8c0 .3.2.6.6.8l16.7 9.7c.8.4 2 .4 2.8 0l27.3-15.8c.4-.2.6-.5.6-.8v-1.8c0 .3-.2.6-.6.8l-27.3 15.8c-.8.4-2 .4-2.8 0l-16.7-9.7c-.4-.2-.6-.5-.6-.8z" fill="#1d2943"/></g></g><g><g><path d="m4.6 33.1c-.8.4-.8 1.2 0 1.6l16.7 9.7c.8.4 2 .4 2.8 0l27.3-15.8c.8-.4.8-1.2 0-1.6l-16.7-9.7c-.8-.4-2-.4-2.8 0z" fill="#4c5c75"/></g></g></g></g><g><g enable-background="new"><g><g><path d="m4 28.1v6.1c0 .3.2.6.6.8l16.7 9.7c.8.4 2 .4 2.8 0l27.3-15.8c.4-.2.6-.5.6-.8v-6.1c0 .3-.2.6-.6.8l-27.3 15.8c-.8.4-2 .4-2.8 0l-16.7-9.7c-.4-.2-.6-.5-.6-.8z" fill="#c9cee2"/></g></g></g></g><g><g enable-background="new"><g><g><path d="m4 26.4v1.8c0 .3.2.6.6.8l16.7 9.7c.8.4 2 .4 2.8 0l27.3-15.8c.4-.2.6-.5.6-.8v-1.8c0 .3-.2.6-.6.8l-27.3 9.5c-.8.4-2 .4-2.8 0l-16.7-3.4c-.4-.2-.6-.5-.6-.8z" fill="#1d2943"/></g></g><g><g><path d="m4.6 25.6c-.8.4-.8 1.2 0 1.6l16.7 9.7c.8.4 2 .4 2.8 0l27.3-15.8c.8-.4.8-1.2 0-1.6l-16.7-9.7c-.8-.4-2-.4-2.8 0z" fill="#4c5c75"/></g></g></g></g></g><g><g><g><g><g><g><g><g><g><g><g><path d="m35.5 36.9-10.4 6v-3.4l10.4-6z" fill="#fff"/></g></g><g><g><g><path d="m35.1 36.6-.7-.4-.9-.5-.5-.2 1.2-.7.9-.5z" fill="#1d2943"/></g></g><g><g><path d="m35.1 36.6-9.6 5.6v-2.4l.1-.1.5-.3.4-.2 1.3-.7.5-.3.4-.2 1.2-.7.1-.1.4-.2.4-.3 1.2-.7h.1l.4-.3.4-.2h.1l.5.2.9.5z" fill="#4c5c75"/></g></g></g></g></g><g><g enable-background="new"><g><g><g><path d="m30 37.2.4.3v.5l-1.3.7-.8-.5.4-.2 1.2-.7z" fill="#febc1f"/></g><g><path d="m28.3 38.7v.5l-1.3.7-.9-.5.4-.2 1.3-.7z" fill="#febc1f"/></g><g><path d="m32.1 36 .5.3v.4l-1.3.8-.9-.5.4-.3 1.2-.7z" fill="#febc1f"/></g><g><path d="m34.7 35v.5l-1.3.8-.8-.5-.1-.1.4-.2h.1l1.2-.7z" fill="#febc1f"/></g></g></g></g></g><g><g enable-background="new"><g><g><g><path d="m33.4 36.2-.8-.4-.1-.1.4-.2.5.3z" fill="#ffd06c"/></g></g></g><g><g><g><path d="m34.7 35-1.2.7-.1.1-.5-.3h.1l1.2-.7z" fill="#ffde9b"/></g></g></g><g><g><g><path d="m34.7 35v.5l-1.3.8v-.5z" fill="#febc1f"/></g></g></g></g><g enable-background="new"><g><g><g><path d="m31.3 37v.5l-.9-.5.4-.3z" fill="#ffd06c"/></g></g></g><g><g><g><path d="m32.6 36.3h-.1l-1.2.7-.5-.3 1.2-.7h.1z" fill="#ffde9b"/></g></g></g><g><g><g><path d="m32.6 36.3v.4l-1.3.8-.1-.5z" fill="#febc1f"/></g></g></g></g><g enable-background="new"><g><g><g><path d="m29.1 38.7-.8-.5.4-.2.4.2z" fill="#ffd06c"/></g></g></g><g><g><g><path d="m30.4 37.5h-.1l-1.2.7-.4-.2 1.2-.7.1-.1z" fill="#ffde9b"/></g></g></g><g><g><g><path d="m30.4 37.5v.5l-1.3.7v-.5z" fill="#febc1f"/></g></g></g></g><g enable-background="new"><g><g><g><path d="m27 39.5v.4l-.9-.5.4-.2z" fill="#ffd06c"/></g></g></g><g><g><g><path d="m28.3 38.7-.1.1-1.2.7-.5-.3 1.3-.7z" fill="#ffde9b"/></g></g></g><g><g><g><path d="m28.3 38.7v.5l-1.3.7v-.4z" fill="#febc1f"/></g></g></g></g></g></g></g></g></g></g><g><g><g><g><g><g><g><g><g><path d="m35.5 36.9-10.4 6v-3.4l10.4-6z" fill="#fff"/></g></g><g><path d="m35.1 34.3-.9.5-1.2.7h-.1l-.4.2-.4.3h-.1l-1.2.7-.4.3-.4.2-.1.1-1.2.7-.4.2-.5.3-1.3.7-.4.2-.5.3-.1.1v2.4l9.6-5.6z" fill="#4c5c75"/></g><g><g><g><path d="m35.1 36.6-.7-.4-.9-.5-.5-.2 1.2-.7.9-.5z" fill="#1d2943"/></g></g><g><g><path d="m35.1 36.6-9.6 5.6v-2.4l.1-.1.5-.3.4-.2 1.3-.7.5-.3.4-.2 1.2-.7.1-.1.4-.2.4-.3 1.2-.7h.1l.4-.3.4-.2h.1l.5.2.9.5z" fill="#4c5c75"/></g></g></g></g></g><g><g enable-background="new"><g><g><g><path d="m30 37.2.4.3v.5l-1.3.7-.8-.5.4-.2 1.2-.7z" fill="#febc1f"/></g><g><path d="m28.3 38.7v.5l-1.3.7-.9-.5.4-.2 1.3-.7z" fill="#febc1f"/></g><g><path d="m32.1 36 .5.3v.4l-1.3.8-.9-.5.4-.3 1.2-.7z" fill="#febc1f"/></g><g><path d="m34.7 35v.5l-1.3.8-.8-.5-.1-.1.4-.2h.1l1.2-.7z" fill="#febc1f"/></g></g></g></g></g><g><g enable-background="new"><g><g><g><path d="m33.4 36.2-.8-.4-.1-.1.4-.2.5.3z" fill="#ffd06c"/></g></g></g><g><g><g><path d="m34.7 35-1.2.7-.1.1-.5-.3h.1l1.2-.7z" fill="#ffde9b"/></g></g></g><g><g><g><path d="m34.7 35v.5l-1.3.8v-.5z" fill="#febc1f"/></g></g></g></g><g enable-background="new"><g><g><g><path d="m31.3 37v.5l-.9-.5.4-.3z" fill="#ffd06c"/></g></g></g><g><g><g><path d="m32.6 36.3h-.1l-1.2.7-.5-.3 1.2-.7h.1z" fill="#ffde9b"/></g></g></g><g><g><g><path d="m32.6 36.3v.4l-1.3.8-.1-.5z" fill="#febc1f"/></g></g></g></g><g enable-background="new"><g><g><g><path d="m29.1 38.7-.8-.5.4-.2.4.2z" fill="#ffd06c"/></g></g></g><g><g><g><path d="m30.4 37.5h-.1l-1.2.7-.4-.2 1.2-.7.1-.1z" fill="#ffde9b"/></g></g></g><g><g><g><path d="m30.4 37.5v.5l-1.3.7v-.5z" fill="#febc1f"/></g></g></g></g><g enable-background="new"><g><g><g><path d="m27 39.5v.4l-.9-.5.4-.2z" fill="#ffd06c"/></g></g></g><g><g><g><path d="m28.3 38.7-.1.1-1.2.7-.5-.3 1.3-.7z" fill="#ffde9b"/></g></g></g><g><g><g><path d="m28.3 38.7v.5l-1.3.7v-.4z" fill="#febc1f"/></g></g></g></g></g></g></g></g></g></g><g><g><g><g><g><g><g><g><g><g><g><path d="m35.5 36.9-10.4 6v-3.4l10.4-6z" fill="#fff"/></g></g><g><g><g><path d="m35.1 36.6-.7-.4-.9-.5-.5-.2 1.2-.7.9-.5z" fill="#1d2943"/></g></g><g><g><path d="m35.1 36.6-9.6 5.6v-2.4l.1-.1.5-.3.4-.2 1.3-.7.5-.3.4-.2 1.2-.7.1-.1.4-.2.4-.3 1.2-.7h.1l.4-.3.4-.2h.1l.5.2.9.5z" fill="#4c5c75"/></g></g></g></g></g><g><g enable-background="new"><g><g><g><path d="m30 37.2.4.3v.5l-1.3.7-.8-.5.4-.2 1.2-.7z" fill="#febc1f"/></g><g><path d="m28.3 38.7v.5l-1.3.7-.9-.5.4-.2 1.3-.7z" fill="#febc1f"/></g><g><path d="m32.1 36 .5.3v.4l-1.3.8-.9-.5.4-.3 1.2-.7z" fill="#febc1f"/></g><g><path d="m34.7 35v.5l-1.3.8-.8-.5-.1-.1.4-.2h.1l1.2-.7z" fill="#febc1f"/></g></g></g></g></g><g><g enable-background="new"><g><g><g><path d="m33.4 36.2-.8-.4-.1-.1.4-.2.5.3z" fill="#ffd06c"/></g></g></g><g><g><g><path d="m34.7 35-1.2.7-.1.1-.5-.3h.1l1.2-.7z" fill="#ffde9b"/></g></g></g><g><g><g><path d="m34.7 35v.5l-1.3.8v-.5z" fill="#febc1f"/></g></g></g></g><g enable-background="new"><g><g><g><path d="m31.3 37v.5l-.9-.5.4-.3z" fill="#ffd06c"/></g></g></g><g><g><g><path d="m32.6 36.3h-.1l-1.2.7-.5-.3 1.2-.7h.1z" fill="#ffde9b"/></g></g></g><g><g><g><path d="m32.6 36.3v.4l-1.3.8-.1-.5z" fill="#febc1f"/></g></g></g></g><g enable-background="new"><g><g><g><path d="m29.1 38.7-.8-.5.4-.2.4.2z" fill="#ffd06c"/></g></g></g><g><g><g><path d="m30.4 37.5h-.1l-1.2.7-.4-.2 1.2-.7.1-.1z" fill="#ffde9b"/></g></g></g><g><g><g><path d="m30.4 37.5v.5l-1.3.7v-.5z" fill="#febc1f"/></g></g></g></g><g enable-background="new"><g><g><g><path d="m27 39.5v.4l-.9-.5.4-.2z" fill="#ffd06c"/></g></g></g><g><g><g><path d="m28.3 38.7-.1.1-1.2.7-.5-.3 1.3-.7z" fill="#ffde9b"/></g></g></g><g><g><g><path d="m28.3 38.7v.5l-1.3.7v-.4z" fill="#febc1f"/></g></g></g></g></g></g></g></g></g></g><g><g><g><g><g><g><g><g><g><path d="m35.5 36.9-10.4 6v-3.4l10.4-6z" fill="#fff"/></g></g><g><path d="m35.1 34.3-.9.5-1.2.7h-.1l-.4.2-.4.3h-.1l-1.2.7-.4.3-.4.2-.1.1-1.2.7-.4.2-.5.3-1.3.7-.4.2-.5.3-.1.1v2.4l9.6-5.6z" fill="#4c5c75"/></g><g><g><g><path d="m35.1 36.6-.7-.4-.9-.5-.5-.2 1.2-.7.9-.5z" fill="#1d2943"/></g></g><g><g><path d="m35.1 36.6-9.6 5.6v-2.4l.1-.1.5-.3.4-.2 1.3-.7.5-.3.4-.2 1.2-.7.1-.1.4-.2.4-.3 1.2-.7h.1l.4-.3.4-.2h.1l.5.2.9.5z" fill="#4c5c75"/></g></g></g></g></g><g><g enable-background="new"><g><g><g><path d="m30 37.2.4.3v.5l-1.3.7-.8-.5.4-.2 1.2-.7z" fill="#febc1f"/></g><g><path d="m28.3 38.7v.5l-1.3.7-.9-.5.4-.2 1.3-.7z" fill="#febc1f"/></g><g><path d="m32.1 36 .5.3v.4l-1.3.8-.9-.5.4-.3 1.2-.7z" fill="#febc1f"/></g><g><path d="m34.7 35v.5l-1.3.8-.8-.5-.1-.1.4-.2h.1l1.2-.7z" fill="#febc1f"/></g></g></g></g></g><g><g enable-background="new"><g><g><g><path d="m33.4 36.2-.8-.4-.1-.1.4-.2.5.3z" fill="#ffd06c"/></g></g></g><g><g><g><path d="m34.7 35-1.2.7-.1.1-.5-.3h.1l1.2-.7z" fill="#ffde9b"/></g></g></g><g><g><g><path d="m34.7 35v.5l-1.3.8v-.5z" fill="#febc1f"/></g></g></g></g><g enable-background="new"><g><g><g><path d="m31.3 37v.5l-.9-.5.4-.3z" fill="#ffd06c"/></g></g></g><g><g><g><path d="m32.6 36.3h-.1l-1.2.7-.5-.3 1.2-.7h.1z" fill="#ffde9b"/></g></g></g><g><g><g><path d="m32.6 36.3v.4l-1.3.8-.1-.5z" fill="#febc1f"/></g></g></g></g><g enable-background="new"><g><g><g><path d="m29.1 38.7-.8-.5.4-.2.4.2z" fill="#ffd06c"/></g></g></g><g><g><g><path d="m30.4 37.5h-.1l-1.2.7-.4-.2 1.2-.7.1-.1z" fill="#ffde9b"/></g></g></g><g><g><g><path d="m30.4 37.5v.5l-1.3.7v-.5z" fill="#febc1f"/></g></g></g></g><g enable-background="new"><g><g><g><path d="m27 39.5v.4l-.9-.5.4-.2z" fill="#ffd06c"/></g></g></g><g><g><g><path d="m28.3 38.7-.1.1-1.2.7-.5-.3 1.3-.7z" fill="#ffde9b"/></g></g></g><g><g><g><path d="m28.3 38.7v.5l-1.3.7v-.4z" fill="#febc1f"/></g></g></g></g></g></g></g></g></g></g></g></g></g></g><g><g><g><g><g><g><g><g><g><g><g><path d="m49.5 28.8-10.5 6.1v-3.4l10.5-6z" fill="#fff"/></g></g><g><g><g><path d="m49 28.6-.7-.4-.9-.5-.4-.3 1.2-.7.8-.5z" fill="#1d2943"/></g></g><g><g><path d="m49 28.6-9.5 5.5v-2.4h.1l.5-.3.4-.3 1.2-.7h.1l.4-.2.4-.3 1.2-.7h.1l.4-.3.4-.2 1.3-.7v-.1l.5-.2.4-.2.1-.1.4.3.9.5z" fill="#4c5c75"/></g></g></g></g></g><g><g enable-background="new"><g><g><g><path d="m43.9 29.2.5.2v.5l-1.3.8-.9-.5.4-.3 1.2-.7z" fill="#febc1f"/></g><g><path d="m42.2 30.7v.4l-1.3.8-.8-.5.4-.3 1.2-.7h.1z" fill="#febc1f"/></g><g><path d="m46 27.9.5.3v.5l-1.3.7-.8-.5h-.1l.4-.2 1.3-.7z" fill="#febc1f"/></g><g><path d="m48.6 27v.4l-1.3.8-.8-.5.4-.2.1-.1 1.2-.7z" fill="#febc1f"/></g></g></g></g></g><g><g enable-background="new"><g><g><g><path d="m47.3 28.2-.8-.5.4-.2.4.2z" fill="#ffd06c"/></g></g></g><g><g><g><path d="m48.6 27-1.2.7h-.1l-.4-.2.1-.1 1.2-.7z" fill="#ffde9b"/></g></g></g><g><g><g><path d="m48.6 27v.4l-1.3.8v-.5z" fill="#febc1f"/></g></g></g></g><g enable-background="new"><g><g><g><path d="m45.2 29v.4l-.8-.5h-.1l.4-.2z" fill="#ffd06c"/></g></g></g><g><g><g><path d="m46.5 28.2h-.1l-1.2.8-.5-.3 1.3-.7v-.1z" fill="#ffde9b"/></g></g></g><g><g><g><path d="m46.5 28.2v.5l-1.3.7v-.4z" fill="#febc1f"/></g></g></g></g><g enable-background="new"><g><g><g><path d="m43.1 30.7-.9-.5.4-.3.5.3z" fill="#ffd06c"/></g></g></g><g><g><g><path d="m44.4 29.4-.1.1-1.2.7-.5-.3 1.2-.7h.1z" fill="#ffde9b"/></g></g></g><g><g><g><path d="m44.4 29.4v.5l-1.3.8v-.5z" fill="#febc1f"/></g></g></g></g><g enable-background="new"><g><g><g><path d="m40.9 31.4v.5l-.8-.5.4-.3z" fill="#ffd06c"/></g></g></g><g><g><g><path d="m42.2 30.7-1.3.7-.4-.3 1.2-.7h.1z" fill="#ffde9b"/></g></g></g><g><g><g><path d="m42.2 30.7v.4l-1.3.8v-.5z" fill="#febc1f"/></g></g></g></g></g></g></g></g></g></g><g><g><g><g><g><g><g><g><g><path d="m49.5 28.8-10.5 6.1v-3.4l10.5-6z" fill="#fff"/></g></g><g><path d="m49 26.2-.8.5-1.2.7-.1.1-.4.2-.5.2v.1l-1.3.7-.4.2-.4.3h-.1l-1.2.7-.4.3-.4.2h-.1l-1.2.7-.4.3-.5.3h-.1v2.4l9.5-5.5z" fill="#4c5c75"/></g><g><g><g><path d="m49 28.6-.7-.4-.9-.5-.4-.3 1.2-.7.8-.5z" fill="#1d2943"/></g></g><g><g><path d="m49 28.6-9.5 5.5v-2.4h.1l.5-.3.4-.3 1.2-.7h.1l.4-.2.4-.3 1.2-.7h.1l.4-.3.4-.2 1.3-.7v-.1l.5-.2.4-.2.1-.1.4.3.9.5z" fill="#4c5c75"/></g></g></g></g></g><g><g enable-background="new"><g><g><g><path d="m43.9 29.2.5.2v.5l-1.3.8-.9-.5.4-.3 1.2-.7z" fill="#febc1f"/></g><g><path d="m42.2 30.7v.4l-1.3.8-.8-.5.4-.3 1.2-.7h.1z" fill="#febc1f"/></g><g><path d="m46 27.9.5.3v.5l-1.3.7-.8-.5h-.1l.4-.2 1.3-.7z" fill="#febc1f"/></g><g><path d="m48.6 27v.4l-1.3.8-.8-.5.4-.2.1-.1 1.2-.7z" fill="#febc1f"/></g></g></g></g></g><g><g enable-background="new"><g><g><g><path d="m47.3 28.2-.8-.5.4-.2.4.2z" fill="#ffd06c"/></g></g></g><g><g><g><path d="m48.6 27-1.2.7h-.1l-.4-.2.1-.1 1.2-.7z" fill="#ffde9b"/></g></g></g><g><g><g><path d="m48.6 27v.4l-1.3.8v-.5z" fill="#febc1f"/></g></g></g></g><g enable-background="new"><g><g><g><path d="m45.2 29v.4l-.8-.5h-.1l.4-.2z" fill="#ffd06c"/></g></g></g><g><g><g><path d="m46.5 28.2h-.1l-1.2.8-.5-.3 1.3-.7v-.1z" fill="#ffde9b"/></g></g></g><g><g><g><path d="m46.5 28.2v.5l-1.3.7v-.4z" fill="#febc1f"/></g></g></g></g><g enable-background="new"><g><g><g><path d="m43.1 30.7-.9-.5.4-.3.5.3z" fill="#ffd06c"/></g></g></g><g><g><g><path d="m44.4 29.4-.1.1-1.2.7-.5-.3 1.2-.7h.1z" fill="#ffde9b"/></g></g></g><g><g><g><path d="m44.4 29.4v.5l-1.3.8v-.5z" fill="#febc1f"/></g></g></g></g><g enable-background="new"><g><g><g><path d="m40.9 31.4v.5l-.8-.5.4-.3z" fill="#ffd06c"/></g></g></g><g><g><g><path d="m42.2 30.7-1.3.7-.4-.3 1.2-.7h.1z" fill="#ffde9b"/></g></g></g><g><g><g><path d="m42.2 30.7v.4l-1.3.8v-.5z" fill="#febc1f"/></g></g></g></g></g></g></g></g></g></g><g><g><g><g><g><g><g><g><g><g><g><path d="m49.5 28.8-10.5 6.1v-3.4l10.5-6z" fill="#fff"/></g></g><g><g><g><path d="m49 28.6-.7-.4-.9-.5-.4-.3 1.2-.7.8-.5z" fill="#1d2943"/></g></g><g><g><path d="m49 28.6-9.5 5.5v-2.4h.1l.5-.3.4-.3 1.2-.7h.1l.4-.2.4-.3 1.2-.7h.1l.4-.3.4-.2 1.3-.7v-.1l.5-.2.4-.2.1-.1.4.3.9.5z" fill="#4c5c75"/></g></g></g></g></g><g><g enable-background="new"><g><g><g><path d="m43.9 29.2.5.2v.5l-1.3.8-.9-.5.4-.3 1.2-.7z" fill="#febc1f"/></g><g><path d="m42.2 30.7v.4l-1.3.8-.8-.5.4-.3 1.2-.7h.1z" fill="#febc1f"/></g><g><path d="m46 27.9.5.3v.5l-1.3.7-.8-.5h-.1l.4-.2 1.3-.7z" fill="#febc1f"/></g><g><path d="m48.6 27v.4l-1.3.8-.8-.5.4-.2.1-.1 1.2-.7z" fill="#febc1f"/></g></g></g></g></g><g><g enable-background="new"><g><g><g><path d="m47.3 28.2-.8-.5.4-.2.4.2z" fill="#ffd06c"/></g></g></g><g><g><g><path d="m48.6 27-1.2.7h-.1l-.4-.2.1-.1 1.2-.7z" fill="#ffde9b"/></g></g></g><g><g><g><path d="m48.6 27v.4l-1.3.8v-.5z" fill="#febc1f"/></g></g></g></g><g enable-background="new"><g><g><g><path d="m45.2 29v.4l-.8-.5h-.1l.4-.2z" fill="#ffd06c"/></g></g></g><g><g><g><path d="m46.5 28.2h-.1l-1.2.8-.5-.3 1.3-.7v-.1z" fill="#ffde9b"/></g></g></g><g><g><g><path d="m46.5 28.2v.5l-1.3.7v-.4z" fill="#febc1f"/></g></g></g></g><g enable-background="new"><g><g><g><path d="m43.1 30.7-.9-.5.4-.3.5.3z" fill="#ffd06c"/></g></g></g><g><g><g><path d="m44.4 29.4-.1.1-1.2.7-.5-.3 1.2-.7h.1z" fill="#ffde9b"/></g></g></g><g><g><g><path d="m44.4 29.4v.5l-1.3.8v-.5z" fill="#febc1f"/></g></g></g></g><g enable-background="new"><g><g><g><path d="m40.9 31.4v.5l-.8-.5.4-.3z" fill="#ffd06c"/></g></g></g><g><g><g><path d="m42.2 30.7-1.3.7-.4-.3 1.2-.7h.1z" fill="#ffde9b"/></g></g></g><g><g><g><path d="m42.2 30.7v.4l-1.3.8v-.5z" fill="#febc1f"/></g></g></g></g></g></g></g></g></g></g><g><g><g><g><g><g><g><g><g><path d="m49.5 28.8-10.5 6.1v-3.4l10.5-6z" fill="#fff"/></g></g><g><path d="m49 26.2-.8.5-1.2.7-.1.1-.4.2-.5.2v.1l-1.3.7-.4.2-.4.3h-.1l-1.2.7-.4.3-.4.2h-.1l-1.2.7-.4.3-.5.3h-.1v2.4l9.5-5.5z" fill="#4c5c75"/></g><g><g><g><path d="m49 28.6-.7-.4-.9-.5-.4-.3 1.2-.7.8-.5z" fill="#1d2943"/></g></g><g><g><path d="m49 28.6-9.5 5.5v-2.4h.1l.5-.3.4-.3 1.2-.7h.1l.4-.2.4-.3 1.2-.7h.1l.4-.3.4-.2 1.3-.7v-.1l.5-.2.4-.2.1-.1.4.3.9.5z" fill="#4c5c75"/></g></g></g></g></g><g><g enable-background="new"><g><g><g><path d="m43.9 29.2.5.2v.5l-1.3.8-.9-.5.4-.3 1.2-.7z" fill="#febc1f"/></g><g><path d="m42.2 30.7v.4l-1.3.8-.8-.5.4-.3 1.2-.7h.1z" fill="#febc1f"/></g><g><path d="m46 27.9.5.3v.5l-1.3.7-.8-.5h-.1l.4-.2 1.3-.7z" fill="#febc1f"/></g><g><path d="m48.6 27v.4l-1.3.8-.8-.5.4-.2.1-.1 1.2-.7z" fill="#febc1f"/></g></g></g></g></g><g><g enable-background="new"><g><g><g><path d="m47.3 28.2-.8-.5.4-.2.4.2z" fill="#ffd06c"/></g></g></g><g><g><g><path d="m48.6 27-1.2.7h-.1l-.4-.2.1-.1 1.2-.7z" fill="#ffde9b"/></g></g></g><g><g><g><path d="m48.6 27v.4l-1.3.8v-.5z" fill="#febc1f"/></g></g></g></g><g enable-background="new"><g><g><g><path d="m45.2 29v.4l-.8-.5h-.1l.4-.2z" fill="#ffd06c"/></g></g></g><g><g><g><path d="m46.5 28.2h-.1l-1.2.8-.5-.3 1.3-.7v-.1z" fill="#ffde9b"/></g></g></g><g><g><g><path d="m46.5 28.2v.5l-1.3.7v-.4z" fill="#febc1f"/></g></g></g></g><g enable-background="new"><g><g><g><path d="m43.1 30.7-.9-.5.4-.3.5.3z" fill="#ffd06c"/></g></g></g><g><g><g><path d="m44.4 29.4-.1.1-1.2.7-.5-.3 1.2-.7h.1z" fill="#ffde9b"/></g></g></g><g><g><g><path d="m44.4 29.4v.5l-1.3.8v-.5z" fill="#febc1f"/></g></g></g></g><g enable-background="new"><g><g><g><path d="m40.9 31.4v.5l-.8-.5.4-.3z" fill="#ffd06c"/></g></g></g><g><g><g><path d="m42.2 30.7-1.3.7-.4-.3 1.2-.7h.1z" fill="#ffde9b"/></g></g></g><g><g><g><path d="m42.2 30.7v.4l-1.3.8v-.5z" fill="#febc1f"/></g></g></g></g></g></g></g></g></g></g></g></g></g></g></g><g><g><g><path d="m18.9 42.3c-.9-.5-1.6-1.7-1.6-2.7 0-.5.2-.9.5-1.1s.8-.2 1.2.1c.9.5 1.6 1.7 1.6 2.7 0 .5-.2.9-.5 1.1-.1.1-.3.1-.5.1s-.5-.1-.7-.2z" fill="#f45170"/></g></g></g><g><g><g><path d="m18.4 39.5h-.1c-.2.1-.3.3-.3.6s.1.6.3 1c.2.3.4.6.7.7s.5.2.7.1.3-.3.3-.6-.1-.6-.3-1c0-.1-.1-.1-.1-.1h-.1c-.1 0-.1.1 0 .3s.2.4.2.7c0 .2-.1.4-.2.4-.1.1-.3.1-.5 0s-.3-.3-.5-.5c-.1-.2-.2-.4-.2-.7 0-.2.1-.4.2-.4s.1-.1 0-.3c0-.2-.1-.2-.1-.2z" fill="#fff"/></g></g><g><g><path d="m19 39.1c-.1 0-.2 0-.2.1v1.4c0 .1.1.2.2.3.1 0 .2 0 .2-.1v-1.4c-.1-.2-.2-.3-.2-.3z" fill="#fff"/></g></g></g><g><g><g><path d="m15.1 37.6c-.4-.2-.7 0-.7.4s.3.9.7 1.1.7 0 .7-.4c0-.3-.3-.9-.7-1.1z" fill="#423d9b"/></g></g><g><g><path d="m12.8 36.3c-.4-.2-.7 0-.7.4s.3.9.7 1.1.7 0 .7-.4c-.1-.4-.4-.9-.7-1.1z" fill="#72d561"/></g></g><g><g><path d="m10.4 34.9c-.4-.2-.7 0-.7.4s.3.9.7 1.1.7 0 .7-.4-.3-.9-.7-1.1z" fill="#b4895e"/></g></g></g></g><g><g><g><path d="m5.2 32.4c0 1 .7 2.2 1.6 2.7.3.2.5.2.8.2.2 0 .3 0 .5-.1.1 0 .1-.1.2-.1.2-.2.3-.5.3-1 0-1-.7-2.2-1.6-2.7-.3-.2-.6-.3-.9-.2-.1 0-.2.1-.3.1-.4.2-.6.6-.6 1.1z" fill="#4c5c75"/></g></g></g><g><g><g><path d="m5.7 32.2c0 1 .7 2.2 1.6 2.7.2.1.5.2.7.2h.2c.2-.2.3-.5.3-1 0-1-.7-2.2-1.6-2.7-.3-.2-.6-.3-.9-.2-.2.2-.3.6-.3 1z" fill="#f3f1fc"/></g></g></g></g><g><g><path d="m30.9 27.3c.7 0 1.4.3 1.9.8s.8 1.2.8 2c0-1.6 1.2-2.8 2.6-2.8-.7 0-1.4-.3-1.9-.8s-.8-1.2-.8-2c0 .8-.3 1.5-.8 2-.4.5-1.1.8-1.8.8z" fill="#fff"/></g></g></g></svg>