<svg id="Layer_1" enable-background="new 0 0 70 70" viewBox="0 0 70 70" xmlns="http://www.w3.org/2000/svg"><g><g><g opacity=".5"><path d="m35.4496536 58.3937111-24.2776012-15.5471153.0079365-4.259327-8.2175963 4.9979668 27.6950094 14.9583893z" fill="#b6bcd8"/></g></g><path d="m67.00634 26.4738293-25.8415527-15.0174551-31.5879517 18.2373037.0313111 13.6825581 25.8414917 15.017456 31.5879516-18.2373047z" fill="#333"/><g><g><g><g enable-background="new"><g><g><path d="m35.4496536 58.3937111-25.8415279-15.0174561-.0312739-13.6825351 25.8415289 15.0174541z" fill="#333"/></g></g><g><g><path d="m35.4183807 44.711174-25.8415289-15.0174541 31.5879546-18.2373152 25.841526 15.0174551z" fill="#666"/></g></g><g><g><path d="m24.1052322 34.66045-7.4976558-4.3571625 9.1649246-5.2913704 7.4976559 4.3571606z" fill="#333"/></g></g><g><g><path d="m67.0063324 26.4738598.0312729 13.6825352-31.5879517 18.2373161-.0312729-13.6825371z" fill="#4d4d4d"/></g></g></g></g><g><path d="m66.2070847 35.8540192c0 .3899536-.2699585.8499756-.5999756 1.039978l-27.3699951 15.8099976c-.2200317.1199951-.4100342.0900269-.5200195-.0599976.0300293.039978.0499878.0800171.0900269.0999756l-.6900024-.3999634c-.1099854-.0599976-.1699829-.2000122-.1699829-.3900146l-.0200195-5.6699829c0-.3800049.2700195-.8500366.5999756-1.0400391l27.3699951-15.7999897c.1700439-.0999756.3300171-.1099854.4299927-.0499878l.6900024.4000244c.1100464.0599976.1700439.1999512.1700439.3899536z" fill="#dbdcfa"/><g><g enable-background="new"><path d="m65.3319016 29.3960094c-.1097412-.0637817-.2619629-.0543213-.4307861.0431519l-27.3706666 15.8024921c-.3317871.1915283-.6036987.6582031-.6026001 1.0437012l.0161133 5.6717529c.0004883.190979.0679321.324585.1762085.3874512l.6831665.3970337c-.1082153-.0628662-.1756592-.1964722-.1762085-.3874512l-.0160522-5.6717529c-.0010986-.385498.270813-.8521729.6025391-1.0437622l27.3707275-15.8024311c.1688232-.0974731.3209839-.1069336.4307251-.0431519z" fill="#dbdcfa"/><g><g><path d="m65.584343 29.8361835c.3354568-.1936741.6054306-.0398159.6065216.345644l.0160828 5.6717758c.001091.3854599-.2671356.850029-.6025848 1.043705l-27.3707086 15.8024865c-.3317642.1915436-.6054268.0398293-.6065178-.3456306l-.0160828-5.6717758c-.001091-.3854599.2708168-.8521729.6025848-1.0437202z" fill="#bac2f0"/></g></g></g></g><g><g><g enable-background="new"><g><g><path d="m44.4040489 47.8816223-3.493061-2.0323448-.2020646-.1154785.4272461-.2424851-.0057792-.6812896 1.131649-.6524277.028862-.0115585.3810463-.2194024.0173378-.0172996h.0057792l.1558686-.0866203.023117-.0173035.1501198-.0866203.2540436.1501236v.3810463l.1558647-.086586.1732025-.1039544.2309609.1328164v.4099082l.3521843-.2020645.2020988.1154824z" fill="#242322"/></g></g><g><g><path d="m43.8382416 43.9266357v.6755104l-.2020645-.1154441-.1789818-.1039238-.3810806-.2251816-.2078438-.1154785-.1963234-.1154824.0173378-.0172996h.0057792l.1558686-.0866203.023117-.0173035.1501198-.0866203.2309265-.132782.0231171-.0115586v.6755105l.1558647-.086586.1732025-.1039544z" fill="#3a3937"/></g></g><g><g><path d="m43.6361771 44.2788239v.6755447l-1.1720734-.6812897-.2020645-.1154823.028862-.0115585.3810463-.2194024.0173378-.0172996h.0057792l.1558686-.0866203.1963196.1154785.028862.0173034.2020988.1154824v.1789818l.1558647-.086586z" fill="#666"/></g></g><g><g><path d="m44.4040489 47.8816223-4.364891 2.5173111-.2020645-.1154785-.0115586-3.3602829.7505684-.4330254v-.6812858l.1328201-.0750618.2020646.1154785z" fill="#666"/></g></g><g><g><path d="m43.2782135 43.6033134v.6466485l-.2020988-.1154824-.1847649-.1096992-.1962853-.1154442.1558686-.0866203.023117-.0173035.1501198-.0866203.2309265-.132782z" fill="#3a3937"/></g></g><g><g><path d="m43.0761147 43.9208565v.6812896l-.5889283-.3406257-.1962852-.1154823.3810463-.2194024.0173378-.0172996h.0057792l.1558686-.0866203.023117-.0173035z" fill="#808080"/></g></g><g><g><path d="m43.0761147 44.1575966v.4445496l.3810806-.219368zm0 0v.4445496l.3810806-.219368zm0 0v.4445496l.3810806-.219368zm0 0v.4445496l.3810806-.219368zm1.5300331 3.8394699-.0115585-3.8279457-.4041634.2309608-.3521843.2020645v-.6755104l-.2309608.1327858-.1732025.1039543-.1558647.086586v-.6755104l-.0231172.0115586-.2309265.132782-.1501198.0866203-.0231171.0173035-.1558685.0866203h-.0057793l-.0173378.0172997-.3810463.2194023-.028862.0115585-1.131649.6524277.0057793.6812897-.4272461.242485-.1328201.0750618v.6812859l-.7505684.4330254.0115585 3.3602829v.4676628zm-4.5785141-.9584122.7563477-.4388046v-.6755104l.1270065-.0750618.4272461-.2482605v-.6755447l1.1258698-.6523933.0230827-.0115585.3810844-.2194023.0230789-.0173378.1559029-.086586.028862-.0173378v.6812897l.3810806-.219368.1789818-.1039543v.6755447l.7563477-.4388046.0115242 3.3660583-4.3648911 2.5173111zm3.048481-2.8810577v.4445496l.3810806-.219368zm0 0v.4445496l.3810806-.219368zm0 0v.4445496l.3810806-.219368z" fill="#343331"/></g></g></g></g><g><g enable-background="new"><g><g><path d="m50.6514664 44.2786217-3.4930649-2.0323448-.2020645-.1154786.4272461-.242485-.0057793-.6812897 1.1316528-.6524277.028862-.0115585.3810463-.2194023.0173378-.0172997h.0057793l.1558647-.0866203.0231171-.0173034.1501198-.0866204.2540435.1501236v.3810463l.1558648-.086586.1732025-.1039543.2309608.1328163v.4099083l.3521881-.2020645.2020989.1154823z" fill="#242322"/></g></g><g><g><path d="m50.0856552 40.3236351v.6755104l-.2020645-.1154442-.1789818-.1039238-.3810806-.2251816-.2078438-.1154785-.1963196-.1154823.0173378-.0172997h.0057793l.1558647-.0866203.0231171-.0173034.1501198-.0866204.2309265-.132782.023117-.0115585v.6755104l.1558648-.086586.1732025-.1039543z" fill="#3a3937"/></g></g><g><g><path d="m49.8835907 40.6758232v.6755448l-1.1720696-.6812897-.2020645-.1154824.028862-.0115585.3810463-.2194023.0173378-.0172997h.0057793l.1558647-.0866203.1963196.1154785.028862.0173035.2020988.1154823v.1789818l.1558648-.086586z" fill="#666"/></g></g><g><g><path d="m50.6514664 44.2786217-4.3648949 2.5173111-.2020645-.1154785-.0115585-3.3602829.7505722-.4330254v-.6812859l.1328163-.0750618.2020645.1154786z" fill="#666"/></g></g><g><g><path d="m49.5256271 40.0003128v.6466484l-.2020988-.1154823-.1847611-.1096993-.1962852-.1154442.1558647-.0866203.0231171-.0173034.1501198-.0866204.2309265-.132782z" fill="#3a3937"/></g></g><g><g><path d="m49.3235283 40.3178558v.6812897l-.5889244-.3406258-.1962853-.1154823.3810463-.2194023.0173378-.0172997h.0057793l.1558647-.0866203.0231171-.0173034z" fill="#808080"/></g></g><g><g><path d="m49.3235283 40.5545959v.4445496l.3810806-.219368zm0 0v.4445496l.3810806-.219368zm0 0v.4445496l.3810806-.219368zm0 0v.4445496l.3810806-.219368zm1.5300369 3.83947-.0115585-3.8279457-.4041634.2309608-.3521881.2020645v-.6755104l-.2309608.1327858-.1732025.1039543-.1558647.086586v-.6755104l-.0231171.0115585-.2309265.132782-.1501198.0866203-.0231171.0173035-.1558647.0866203h-.0057793l-.0173378.0172997-.3810463.2194023-.028862.0115585-1.1316528.6524277.0057793.6812897-.4272461.242485-.1328163.0750618v.6812859l-.7505722.4330254.0115585 3.3602829v.4676628zm-4.5785179-.9584122.7563515-.4388046v-.6755104l.1270027-.0750618.4272461-.2482605v-.6755447l1.1258736-.6523933.0230827-.0115585.3810806-.2194023.0230827-.0173378.155899-.086586.028862-.0173378v.6812897l.3810806-.219368.1789818-.1039543v.6755447l.7563515-.4388046.0115242 3.3660583-4.3648949 2.5173111zm3.048481-2.8810578v.4445496l.3810806-.219368zm0 0v.4445496l.3810806-.219368zm0 0v.4445496l.3810806-.219368z" fill="#343331"/></g></g></g></g><g><g enable-background="new"><g><g><path d="m56.89888 40.675621-3.4930611-2.0323448-.2020645-.1154785.4272461-.242485-.0057792-.6812897 1.131649-.6524277.028862-.0115585.3810463-.2194023.0173378-.0172997h.0057792l.1558647-.0866203.0231171-.0173035.1501236-.0866203.2540436.1501236v.3810463l.1558647-.086586.1732025-.1039543.2309609.1328163v.4099083l.3521843-.2020645.2020988.1154823z" fill="#242322"/></g></g><g><g><path d="m56.3330727 36.7206345v.6755104l-.2020646-.1154442-.1789817-.1039238-.3810845-.2251816-.2078438-.1154785-.1963195-.1154823.0173378-.0172997h.0057792l.1558647-.0866203.0231171-.0173035.1501236-.0866203.2309265-.132782.0231171-.0115585v.6755104l.1558647-.086586.1732025-.1039543z" fill="#3a3937"/></g></g><g><g><path d="m56.1310081 37.0728226v.6755447l-1.1720733-.6812897-.2020645-.1154823.028862-.0115585.3810463-.2194023.0173378-.0172997h.0057792l.1558647-.0866203.1963234.1154785.0288582.0173035.2021027.1154823v.1789818l.1558647-.086586z" fill="#666"/></g></g><g><g><path d="m56.89888 40.675621-4.364891 2.5173111-.2020646-.1154785-.0115585-3.3602829.7505684-.4330253v-.6812859l.1328201-.0750618.2020645.1154785z" fill="#666"/></g></g><g><g><path d="m55.7730446 36.3973122v.6466484l-.2021027-.1154824-.184761-.1096992-.1962853-.1154442.1558647-.0866203.0231171-.0173035.1501236-.0866203.2309265-.132782z" fill="#3a3937"/></g></g><g><g><path d="m55.5709419 36.7148552v.6812897l-.5889244-.3406258-.1962852-.1154823.3810463-.2194023.0173378-.0172997h.0057792l.1558647-.0866203.0231171-.0173035z" fill="#808080"/></g></g><g><g><path d="m55.5709419 36.9515953v.4445496l.3810844-.219368zm0 0v.4445496l.3810844-.219368zm0 0v.4445496l.3810844-.219368zm0 0v.4445496l.3810844-.219368zm1.530037 3.8394699-.0115585-3.8279457-.4041634.2309608-.3521843.2020645v-.6755104l-.2309608.1327858-.1732025.1039543-.1558647.086586v-.6755104l-.0231171.0115585-.2309265.132782-.1501236.0866203-.0231171.0173035-.1558647.0866203h-.0057793l-.0173378.0172997-.3810463.2194023-.028862.0115585-1.131649.6524277.0057793.6812897-.4272461.242485-.1328201.0750618v.6812859l-.7505684.4330254.0115585 3.3602829v.4676628zm-4.5785141-.9584122.7563477-.4388046v-.6755104l.1270065-.0750618.4272461-.2482605v-.6755447l1.1258698-.6523933.0230827-.0115585.3810806-.2194023.0230827-.0173378.1559029-.086586.0288582-.0173378v.6812897l.3810844-.219368.1789818-.1039543v.6755447l.7563477-.4388046.0115241 3.3660582-4.3648911 2.5173111zm3.0484771-2.8810577v.4445496l.3810844-.219368zm0 0v.4445496l.3810844-.219368zm0 0v.4445496l.3810844-.219368z" fill="#343331"/></g></g></g></g><g><g enable-background="new"><g><g><path d="m63.1462975 37.0726204-3.4930649-2.0323448-.2020645-.1154785.4272461-.2424851-.0057793-.6812897 1.1316528-.6524276.028862-.0115586.3810463-.2194023.0173378-.0172996h.0057793l.1558647-.0866204.0231171-.0173034.1501197-.0866204.2540436.1501236v.3810463l.1558647-.086586.1732026-.1039543.2309608.1328163v.4099083l.3521881-.2020645.2020989.1154823z" fill="#242322"/></g></g><g><g><path d="m62.5804863 33.1176338v.6755104l-.2020645-.1154442-.1789818-.1039238-.3810806-.2251815-.2078438-.1154786-.1963196-.1154823.0173378-.0172996h.0057793l.1558647-.0866204.0231171-.0173034.1501197-.0866204.2309266-.1327819.023117-.0115586v.6755104l.1558647-.086586.1732026-.1039543z" fill="#3a3937"/></g></g><g><g><path d="m62.3784218 33.4698219v.6755448l-1.1720696-.6812897-.2020645-.1154823.028862-.0115586.3810463-.2194023.0173378-.0172996h.0057793l.1558647-.0866204.1963196.1154786.028862.0173034.2020988.1154823v.1789818l.1558647-.086586z" fill="#666"/></g></g><g><g><path d="m63.1462975 37.0726204-4.3648949 2.5173111-.2020645-.1154823-.0115586-3.3602791.7505722-.4330254v-.6812858l.1328164-.0750618.2020645.1154785z" fill="#666"/></g></g><g><g><path d="m62.0204582 32.7943115v.6466484l-.2020988-.1154823-.1847611-.1096992-.1962852-.1154442.1558647-.0866204.0231171-.0173034.1501197-.0866204.2309266-.1327819z" fill="#3a3937"/></g></g><g><g><path d="m61.8183594 33.1118546v.6812896l-.5889244-.3406257-.1962853-.1154824.3810463-.2194023.0173378-.0172996h.0057793l.1558647-.0866204.0231171-.0173034z" fill="#808080"/></g></g><g><g><path d="m61.8183594 33.3485947v.4445496l.3810806-.219368zm0 0v.4445496l.3810806-.219368zm0 0v.4445496l.3810806-.219368zm0 0v.4445496l.3810806-.219368zm1.5300369 3.8394699-.0115585-3.8279457-.4041634.2309608-.3521881.2020645v-.6755104l-.2309608.1327858-.1732025.1039543-.1558647.086586v-.6755104l-.0231171.0115585-.2309265.132782-.1501198.0866203-.0231171.0173035-.1558647.0866203h-.0057793l-.0173378.0172997-.3810463.2194023-.028862.0115585-1.1316528.6524277.0057793.6812897-.4272461.242485-.1328163.0750618v.6812859l-.7505722.4330254.0115585 3.3602791v.4676666zm-4.5785179-.9584122.7563515-.4388046v-.6755104l.1270027-.0750618.4272461-.2482605v-.6755447l1.1258736-.6523933.0230827-.0115585.3810806-.2194023.0230827-.0173378.155899-.086586.028862-.0173378v.6812897l.3810806-.219368.1789818-.1039543v.6755447l.7563515-.4388046.0115242 3.3660583-4.3648949 2.5173111zm3.048481-2.8810577v.4445496l.3810806-.219368zm0 0v.4445496l.3810806-.219368zm0 0v.4445496l.3810806-.219368z" fill="#343331"/></g></g></g></g></g></g><g><g><g><path d="m19.6642818 38.2678528c.1536446.088707.3084564.2344437.4393635.4255295.3146534.4635773.3688583 1.0117111.1266041 1.2349243l-2.6647053 2.4168739c-.1395168.1293182-.3536987.1161575-.5696621-.0085297-.1532688-.0884895-.3074188-.2330894-.4364967-.4228745-.3109436-.4614372-.37257-1.013855-.1303158-1.2370682l2.6646938-2.4126053c.1414795-.1328505.3548375-.1207617.5705185.00375z" fill="#1a1a1a"/></g></g><g><g><path d="m15.4814959 35.8529205c.1539125.0888596.3087187.2345924.4396248.4256821.3146544.4635773.3688593 1.0117111.1228914 1.2327805l-2.6609926 2.419014c-.1416883.128067-.3542261.1158562-.5691986-.0082588-.152566-.0880852-.3063421-.2324715-.4369602-.4231453-.3146544-.4635773-.372571-1.013855-.1266041-1.2349243l2.6572704-2.416893c.1436481-.1315957.357913-.1189805.5739689.0057448z" fill="#1a1a1a"/></g></g><g><g><path d="m23.8468056 40.6826324c.1536465.088707.3084583.2344475.4393635.4255333.3109436.4614334.3725719 1.013855.1228943 1.2327805l-2.6572838 2.4211578c-.143858.126812-.3573055.1140785-.571909-.0098267-.1523037-.0879326-.305172-.2317924-.4342499-.4215775-.3183651-.4657211-.37257-1.013855-.1303139-1.2370682l2.6609802-2.4147491c.1414815-.1328505.3548394-.120758.5705186.0037499z" fill="#1a1a1a"/></g></g><g><g><path d="m32.2145691 45.5137634c.1533852.0885582.3072853.2337685.4366493.4239655.3146553.4635773.3688583 1.0117111.1266022 1.2349243l-2.6609917 2.419014c-.1416874.128067-.3542252.1158562-.5691986-.0082588-.152565-.0880852-.3063412-.2324715-.4369602-.4231453-.3146553-.4635773-.37257-1.013855-.1303139-1.2370644l2.6609802-2.414753c.1436482-.1315956.357914-.1189804.5732327.0053177z" fill="#1a1a1a"/></g></g><g><g><path d="m28.0309258 43.0983353c.1539555.0888863.3090286.2347755.4414806.426754.3109417.4614334.3688583 1.0117111.1228924 1.2327805l-2.6609936 2.4190178c-.1416893.128067-.3555069.1151123-.5715332-.0096092-.1533127-.0885162-.3077202-.2332649-.4383373-.4239388-.3146553-.4635773-.37257-1.013855-.1266041-1.2349243l2.6572704-2.416893c.1458149-.1303483.3597069-.1179467.5758248.006813z" fill="#1a1a1a"/></g></g></g></g><g><g><g><path d="m43.0134506 50.6788063c.6347198-.3664551 1.1469269-.0692825 1.1489944.6600571.0020523.7240562-.506813 1.6054535-1.1415329 1.9719124-.6347237.3664551-1.151516.0772247-1.1535683-.6468315-.0020675-.7293397.5113832-1.6186829 1.1461068-1.985138z" fill="#242322"/></g></g><g><path d="m44.1624527 52.107563c0 .5420647-.439476.9815445-.9815445.9815445-.1586456 0-.3085861-.0375557-.4411087-.104496-.0351028-.0176888-.0688477-.037281-.1015015-.0590515-.0971489-.0819092-.1556511-.2236824-.1561966-.4144402-.0010872-.4438324.3107605-.9837227.6966286-1.2065887.1687164-.0974197.323555-.1180992.4446487-.0732002.0345612.0174141.0677605.0367355.0998688.0579605.2647744.1757927.4392052.476757.4392052.8182716z" fill="#89de56"/></g></g><g><g><g><path d="m49.3785591 47.0079269c.6347198-.3664551 1.1469307-.0692787 1.1489983.6600571.0020523.7240562-.5068169 1.6054573-1.1415367 1.9719124s-1.151516.0772247-1.1535683-.6468315c-.0020676-.7293396.5113869-1.6186791 1.1461067-1.985138z" fill="#242322"/></g></g><g><path d="m50.5275612 48.4366837c0 .5420685-.439476.9815445-.9815407.9815445-.1586494 0-.3085861-.0375519-.4411087-.104496-.0351067-.0176849-.0688477-.037281-.1015015-.0590515-.0971489-.0819054-.1556549-.2236824-.1562004-.4144402-.0010872-.4438286.3107643-.9837189.6966324-1.2065887.1687164-.0974197.3235512-.1180992.4446487-.0732002.0345573.0174179.0677567.0367393.099865.0579605.2647782.1757926.4392052.4767608.4392052.8182716z" fill="#89de56"/></g></g><g><g><g><path d="m55.7436676 43.3370514c.6347237-.3664589 1.1469307-.0692825 1.1489983.6600571.0020523.7240562-.506813 1.6054535-1.1415329 1.9719086-.6347237.3664589-1.151516.0772247-1.1535683-.6468315-.0020714-.7293359.5113831-1.6186791 1.1461029-1.9851342z" fill="#242322"/></g></g><g><path d="m56.8926735 44.7658043c0 .5420685-.439476.9815445-.9815445.9815445-.1586456 0-.3085861-.0375519-.4411087-.104496-.0351028-.0176849-.0688477-.037281-.1015015-.0590477-.0971489-.0819092-.1556511-.2236824-.1561966-.4144402-.0010872-.4438324.3107605-.9837227.6966286-1.2065887.1687164-.0974236.323555-.118103.4446487-.073204.0345612.0174179.0677567.0367393.0998688.0579643.2647743.1757888.4392052.476757.4392052.8182678z" fill="#89de56"/></g></g><g><g><g><path d="m62.1087799 39.666172c.6347198-.3664551 1.1469307-.0692825 1.1489983.6600571.0020523.7240562-.5068169 1.6054535-1.1415367 1.9719124-.6347198.3664551-1.151516.0772247-1.1535683-.6468315-.0020676-.7293396.5113869-1.6186829 1.1461067-1.985138z" fill="#242322"/></g></g><g><path d="m63.257782 41.0949287c0 .5420647-.439476.9815445-.9815407.9815445-.1586494 0-.3085861-.0375557-.4411087-.104496-.0351067-.0176888-.0688477-.037281-.1015053-.0590515-.0971451-.0819092-.1556511-.2236824-.1561966-.4144402-.0010872-.4438324.3107643-.9837227.6966324-1.2065887.1687164-.0974197.3235512-.1180992.4446487-.0732002.0345573.0174141.0677567.0367355.099865.0579605.2647781.1757927.4392052.4767571.4392052.8182716z" fill="#89de56"/></g></g></g><g opacity=".4"><path d="m19.0148411 35.173954 16.4348125 8.544838 20.521904-10.8855057-20.5573883 11.8778877z" fill="#fff"/></g></g></svg>