<svg id="Icons" height="512" viewBox="0 0 60 60" width="512" xmlns="http://www.w3.org/2000/svg"><rect fill="#346d92" height="58" rx="4" width="58" x="1" y="1"/><path d="m54.54 28.72-5-6a2 2 0 1 0 -3.08 2.56l2.27 2.72h-7.91a11.015 11.015 0 0 0 -8.82-8.82v-7.91l2.72 2.27a1.994 1.994 0 0 0 1.28.46 2 2 0 0 0 1.28-3.54l-6-5a2.019 2.019 0 0 0 -2.56 0l-6 5a2 2 0 1 0 2.56 3.08l2.72-2.27v7.91a11.015 11.015 0 0 0 -8.82 8.82h-7.91l2.27-2.72a1.994 1.994 0 0 0 .46-1.28 2 2 0 0 0 -3.54-1.28l-5 6a2.019 2.019 0 0 0 0 2.56l5 6a2 2 0 0 0 3.08-2.56l-2.27-2.72h7.91a11.015 11.015 0 0 0 8.82 8.82v7.91l-2.72-2.27a1.994 1.994 0 0 0 -1.28-.46 2 2 0 0 0 -1.28 3.54l6 5a2.019 2.019 0 0 0 2.56 0l6-5a2 2 0 1 0 -2.56-3.08l-2.72 2.27v-7.91a11.015 11.015 0 0 0 8.82-8.82h7.91l-2.27 2.72a1.994 1.994 0 0 0 -.46 1.28 2 2 0 0 0 3.54 1.28l5-6a2.019 2.019 0 0 0 0-2.56zm-24.54 8.28a7 7 0 1 1 7-7 7.008 7.008 0 0 1 -7 7z" fill="#f0f2f5"/></svg>