<svg height="512" viewBox="0 0 128 128" width="512" xmlns="http://www.w3.org/2000/svg"><g><rect fill="#ecebfd" height="43.374" rx="11.2" width="114.211" x="6.895" y="42.313"/><path d="m37.5 42.313h26.5a81.412 81.412 0 0 1 -25.327-3.878q-.631 1.891-1.173 3.878z" fill="#4cb8df"/><path d="m64 13.036a50.857 50.857 0 0 0 -39.364 18.591 54.332 54.332 0 0 0 14.037 6.808c5.072-15.188 14.514-25.399 25.327-25.399z" fill="#97ebff"/><path d="m24.636 31.627a51.068 51.068 0 0 0 -6.775 10.686h19.639q.538-1.989 1.174-3.878a54.332 54.332 0 0 1 -14.038-6.808z" fill="#269fcf"/><path d="m38.673 38.435a81.412 81.412 0 0 0 25.327 3.878v-29.277c-10.813 0-20.255 10.211-25.327 25.399z" fill="#71d2ef"/><path d="m103.364 31.627a54.332 54.332 0 0 1 -14.037 6.808q.632 1.891 1.174 3.878h19.638a51.068 51.068 0 0 0 -6.775-10.686z" fill="#97ebff"/><path d="m89.327 38.435a54.332 54.332 0 0 0 14.037-6.808 50.857 50.857 0 0 0 -39.364-18.591c10.813 0 20.255 10.211 25.327 25.399z" fill="#269fcf"/><path d="m64 42.313h26.5q-.539-1.989-1.174-3.878a81.412 81.412 0 0 1 -25.326 3.878z" fill="#71d2ef"/><path d="m64 13.036v29.277a81.412 81.412 0 0 0 25.327-3.878c-5.072-15.188-14.514-25.399-25.327-25.399z" fill="#4cb8df"/><path d="m90.5 85.687h-26.5a81.412 81.412 0 0 1 25.327 3.878q.632-1.891 1.173-3.878z" fill="#4cb8df"/><path d="m64 114.964a50.857 50.857 0 0 0 39.364-18.591 54.332 54.332 0 0 0 -14.037-6.808c-5.072 15.188-14.514 25.399-25.327 25.399z" fill="#97ebff"/><path d="m103.364 96.373a51.068 51.068 0 0 0 6.775-10.686h-19.639q-.539 1.989-1.174 3.878a54.332 54.332 0 0 1 14.038 6.808z" fill="#269fcf"/><path d="m89.327 89.565a81.412 81.412 0 0 0 -25.327-3.878v29.277c10.813 0 20.255-10.211 25.327-25.399z" fill="#71d2ef"/><path d="m24.636 96.373a54.332 54.332 0 0 1 14.037-6.808q-.632-1.891-1.174-3.878h-19.638a51.068 51.068 0 0 0 6.775 10.686z" fill="#97ebff"/><path d="m38.673 89.565a54.332 54.332 0 0 0 -14.037 6.808 50.857 50.857 0 0 0 39.364 18.591c-10.813 0-20.255-10.211-25.327-25.399z" fill="#269fcf"/><path d="m64 85.687h-26.5q.538 1.989 1.174 3.878a81.412 81.412 0 0 1 25.326-3.878z" fill="#71d2ef"/><path d="m64 114.964v-29.277a81.412 81.412 0 0 0 -25.327 3.878c5.072 15.188 14.514 25.399 25.327 25.399z" fill="#4cb8df"/><g fill="#696eaf"><path d="m38.723 76.961a1.75 1.75 0 0 1 -1.6-1.051l-9.76-22.423a1.75 1.75 0 0 1 3.209-1.4l8.156 18.736 8.149-18.733a1.75 1.75 0 1 1 3.209 1.4l-9.759 22.42a1.749 1.749 0 0 1 -1.604 1.051z"/><path d="m57.165 76.961a1.749 1.749 0 0 1 -1.75-1.75v-22.422a1.749 1.749 0 0 1 1.75-1.75h9.57a5.856 5.856 0 0 1 5.85 5.85v3.011a5.857 5.857 0 0 1 -5.85 5.85h-7.82v9.461a1.749 1.749 0 0 1 -1.75 1.75zm1.75-14.711h7.82a2.352 2.352 0 0 0 2.35-2.35v-3.011a2.352 2.352 0 0 0 -2.35-2.35h-7.82z"/><path d="m91.534 76.961a1.748 1.748 0 0 1 -1.53-.9l-9.15-16.505v15.655a1.75 1.75 0 0 1 -3.5 0v-22.422a1.75 1.75 0 0 1 3.28-.849l9.15 16.5v-15.651a1.75 1.75 0 0 1 3.5 0v22.422a1.75 1.75 0 0 1 -1.311 1.7 1.79 1.79 0 0 1 -.439.05z"/></g></g></svg>