<svg id="Capa_1" enable-background="new 0 0 512 512" height="512" viewBox="0 0 512 512" width="512" xmlns="http://www.w3.org/2000/svg"><g><g><g><g><path d="m28.713 262.061h270.724v32.325h-270.724z" fill="#d0cee7"/></g><g><g><path d="m304.488 405.504h-280.825c-8.926 0-16.163-7.236-16.163-16.163v-78.793c0-8.926 7.236-16.163 16.163-16.163h280.825c8.926 0 16.163 7.236 16.163 16.163v78.793c-.001 8.927-7.237 16.163-16.163 16.163z" fill="#efecef"/></g><g><path d="m304.488 294.386h-26.264c8.926 0 16.163 7.236 16.163 16.163v78.793c0 8.926-7.236 16.163-16.163 16.163h26.264c8.926 0 16.163-7.236 16.163-16.163v-78.793c-.001-8.927-7.237-16.163-16.163-16.163z" fill="#dddaec"/></g></g><g><path d="m28.713 118.618h270.724v32.325h-270.724z" fill="#d0cee7"/></g><g><g><path d="m304.488 118.618h-280.825c-8.926 0-16.163-7.236-16.163-16.163v-78.792c0-8.927 7.236-16.163 16.163-16.163h280.825c8.926 0 16.163 7.236 16.163 16.163v78.793c-.001 8.926-7.237 16.162-16.163 16.162z" fill="#efecef"/></g><g><path d="m304.488 7.5h-26.264c8.926 0 16.163 7.236 16.163 16.163v78.793c0 8.926-7.236 16.163-16.163 16.163h26.264c8.926 0 16.163-7.236 16.163-16.163v-78.793c-.001-8.927-7.237-16.163-16.163-16.163z" fill="#dddaec"/></g><g><circle cx="55.988" cy="63.059" fill="#b3e59f" r="16.163"/></g><g><circle cx="120.638" cy="63.059" fill="#b3e59f" r="16.163"/></g></g><g><g><path d="m304.488 262.061h-280.825c-8.926 0-16.163-7.236-16.163-16.163v-78.793c0-8.926 7.236-16.163 16.163-16.163h280.825c8.926 0 16.163 7.236 16.163 16.163v78.793c-.001 8.927-7.237 16.163-16.163 16.163z" fill="#efecef"/></g><g><path d="m304.488 150.943h-26.264c8.926 0 16.163 7.236 16.163 16.163v78.793c0 8.926-7.236 16.163-16.163 16.163h26.264c8.926 0 16.163-7.236 16.163-16.163v-78.793c-.001-8.927-7.237-16.163-16.163-16.163z" fill="#dddaec"/></g></g><g><g><circle cx="55.988" cy="206.502" fill="#b3e59f" r="16.163"/></g><g><circle cx="120.638" cy="206.502" fill="#b3e59f" r="16.163"/></g></g><g><g><circle cx="55.988" cy="349.945" fill="#b3e59f" r="16.163"/></g><g><circle cx="120.638" cy="349.945" fill="#b3e59f" r="16.163"/></g></g></g><g><g><path d="m296.406 179.228v32.325h187.89v-22.224c0-5.579-4.523-10.102-10.102-10.102h-177.788z" fill="#ffc250"/></g><g><path d="m494.398 211.553h-167.687l-7.886-25.237c-1.318-4.217-5.224-7.089-9.642-7.089h-65.96c-4.418 0-8.324 2.871-9.642 7.089l-7.886 25.237h-10.102c-5.579 0-10.102 4.523-10.102 10.102v173.748c0 5.579 4.523 10.102 10.102 10.102h278.805c5.579 0 10.102-4.523 10.102-10.102v-173.749c0-5.578-4.523-10.101-10.102-10.101z" fill="#ffe07d"/></g><g><path d="m494.398 211.553h-25.254c5.579 0 10.102 4.523 10.102 10.102v173.748c0 5.579-4.523 10.102-10.102 10.102h25.254c5.579 0 10.102-4.523 10.102-10.102v-173.749c0-5.578-4.523-10.101-10.102-10.101z" fill="#ffd064"/></g></g></g><g><circle cx="256" cy="415.606" fill="#b3e59f" r="88.894"/></g><g><path d="m305.457 341.732c9.485 14.14 15.021 31.151 15.021 49.457 0 49.095-39.799 88.894-88.894 88.894-18.306 0-35.317-5.536-49.457-15.021 15.953 23.783 43.084 39.438 73.873 39.438 49.095 0 88.894-39.799 88.894-88.894 0-30.79-15.655-57.92-39.437-73.874z" fill="#95d6a4"/></g><g><path d="m169.126 54.396h6c4.142 0 7.5-3.357 7.5-7.5s-3.358-7.5-7.5-7.5h-6c-4.142 0-7.5 3.357-7.5 7.5s3.358 7.5 7.5 7.5z"/><path d="m243.268 54.396h9.972c4.143 0 7.5-3.357 7.5-7.5s-3.357-7.5-7.5-7.5h-9.972c-4.142 0-7.5 3.357-7.5 7.5s3.358 7.5 7.5 7.5z"/><path d="m204.211 54.396h9.972c4.142 0 7.5-3.357 7.5-7.5s-3.358-7.5-7.5-7.5h-9.972c-4.142 0-7.5 3.357-7.5 7.5s3.358 7.5 7.5 7.5z"/><path d="m282.325 54.396h6c4.143 0 7.5-3.357 7.5-7.5s-3.357-7.5-7.5-7.5h-6c-4.143 0-7.5 3.357-7.5 7.5s3.358 7.5 7.5 7.5z"/><path d="m282.325 86.722h6c4.143 0 7.5-3.357 7.5-7.5s-3.357-7.5-7.5-7.5h-6c-4.143 0-7.5 3.357-7.5 7.5s3.358 7.5 7.5 7.5z"/><path d="m243.268 86.722h9.972c4.143 0 7.5-3.357 7.5-7.5s-3.357-7.5-7.5-7.5h-9.972c-4.142 0-7.5 3.357-7.5 7.5s3.358 7.5 7.5 7.5z"/><path d="m204.211 86.722h9.972c4.142 0 7.5-3.357 7.5-7.5s-3.358-7.5-7.5-7.5h-9.972c-4.142 0-7.5 3.357-7.5 7.5s3.358 7.5 7.5 7.5z"/><path d="m169.126 86.722h6c4.142 0 7.5-3.357 7.5-7.5s-3.358-7.5-7.5-7.5h-6c-4.142 0-7.5 3.357-7.5 7.5s3.358 7.5 7.5 7.5z"/><path d="m32.325 63.059c0 13.048 10.615 23.663 23.663 23.663s23.662-10.616 23.662-23.663-10.615-23.662-23.663-23.662-23.662 10.615-23.662 23.662zm23.663-8.663c4.776 0 8.663 3.886 8.663 8.662s-3.886 8.663-8.663 8.663-8.663-3.887-8.663-8.663 3.886-8.662 8.663-8.662z"/><path d="m144.301 63.059c0-13.047-10.615-23.662-23.663-23.662s-23.662 10.615-23.662 23.662c0 13.048 10.615 23.663 23.663 23.663s23.662-10.616 23.662-23.663zm-32.325 0c0-4.776 3.886-8.662 8.663-8.662s8.663 3.886 8.663 8.662-3.886 8.663-8.663 8.663-8.663-3.887-8.663-8.663z"/><path d="m55.988 230.165c13.047 0 23.663-10.615 23.663-23.663 0-13.047-10.615-23.662-23.663-23.662s-23.663 10.615-23.663 23.662c0 13.048 10.615 23.663 23.663 23.663zm0-32.325c4.776 0 8.663 3.886 8.663 8.662s-3.886 8.663-8.663 8.663-8.663-3.887-8.663-8.663 3.886-8.662 8.663-8.662z"/><path d="m120.638 230.165c13.047 0 23.663-10.615 23.663-23.663 0-13.047-10.615-23.662-23.663-23.662s-23.663 10.615-23.663 23.662c.001 13.048 10.616 23.663 23.663 23.663zm0-32.325c4.776 0 8.663 3.886 8.663 8.662s-3.886 8.663-8.663 8.663-8.663-3.887-8.663-8.663 3.887-8.662 8.663-8.662z"/><path d="m55.988 326.282c-13.047 0-23.663 10.615-23.663 23.663 0 13.047 10.615 23.662 23.663 23.662s23.663-10.615 23.663-23.662c-.001-13.048-10.616-23.663-23.663-23.663zm0 32.325c-4.776 0-8.663-3.886-8.663-8.662s3.886-8.663 8.663-8.663 8.663 3.887 8.663 8.663-3.887 8.662-8.663 8.662z"/><path d="m120.638 326.282c-13.047 0-23.663 10.615-23.663 23.663 0 13.047 10.615 23.662 23.663 23.662s23.663-10.615 23.663-23.662c0-13.048-10.615-23.663-23.663-23.663zm0 32.325c-4.776 0-8.663-3.886-8.663-8.662s3.886-8.663 8.663-8.663 8.663 3.887 8.663 8.663-3.886 8.662-8.663 8.662z"/><path d="m494.398 204.053h-2.598v-14.723c0-9.704-7.896-17.6-17.6-17.6h-17.31c-4.143 0-7.5 3.357-7.5 7.5s3.357 7.5 7.5 7.5h17.31c1.434 0 2.6 1.166 2.6 2.6v14.723h-144.575l-5.416-17.322h95.081c4.143 0 7.5-3.357 7.5-7.5s-3.357-7.5-7.5-7.5h-93.74v-4.625c0-12.22-9.313-22.306-21.214-23.536v-17.576c11.901-1.228 21.214-11.314 21.214-23.534v-78.8c0-13.046-10.614-23.66-23.66-23.66h-222.32c-4.142 0-7.5 3.357-7.5 7.5s3.358 7.5 7.5 7.5h222.32c4.775 0 8.66 3.885 8.66 8.66v78.8c0 4.775-3.885 8.66-8.66 8.66h-280.83c-4.775 0-8.66-3.885-8.66-8.66v-78.8c0-4.775 3.885-8.66 8.66-8.66h23.51c4.142 0 7.5-3.357 7.5-7.5s-3.358-7.5-7.5-7.5h-23.51c-13.046 0-23.66 10.614-23.66 23.66v78.8c0 12.22 9.312 22.305 21.213 23.534v17.576c-11.9 1.23-21.213 11.315-21.213 23.535v78.793c0 12.22 9.313 22.306 21.213 23.535v17.579c-11.9 1.23-21.213 11.316-21.213 23.537v78.793c0 13.047 10.615 23.662 23.663 23.662h135.983c-.023.866-.036 1.735-.036 2.606 0 5.688.497 11.359 1.477 16.856.728 4.078 4.623 6.795 8.7 6.067s6.794-4.622 6.067-8.7c-.826-4.63-1.244-9.416-1.244-14.224 0-44.885 36.511-81.4 81.39-81.4 44.878 0 81.39 36.516 81.39 81.4 0 44.878-36.512 81.39-81.39 81.39-27.855 0-53.477-14.012-68.538-37.48-2.237-3.486-6.877-4.498-10.363-2.261-3.486 2.236-4.499 6.876-2.261 10.362 17.834 27.79 48.175 44.38 81.162 44.38 53.149 0 96.39-43.24 96.39-96.39 0-.872-.013-1.74-.036-2.606h142.045c9.705 0 17.602-7.896 17.602-17.602v-173.748c-.001-9.705-7.897-17.601-17.603-17.601zm-458.185-60.61v-17.323h255.723v17.323zm-21.213 102.455v-78.793c0-4.776 3.886-8.662 8.663-8.662h280.826c4.776 0 8.662 3.886 8.662 8.662v4.625l-69.929-.003c-7.749 0-14.5 4.969-16.795 12.354l-6.244 19.972h-4.589c-9.706 0-17.602 7.896-17.602 17.602v32.906h-174.329c-4.777 0-8.663-3.886-8.663-8.663zm182.992 23.663v17.325h-161.779v-17.325zm-36.766 128.443h-137.563c-4.776 0-8.663-3.886-8.663-8.662v-78.793c0-4.776 3.886-8.663 8.663-8.663h174.329v36.787c-18.836 14.239-32.299 35.225-36.766 59.331zm335.774-2.602c0 1.435-1.167 2.602-2.602 2.602h-143.625c-8.297-44.776-47.635-78.794-94.773-78.794-15.447 0-30.054 3.659-43.008 10.146v-107.702c0-1.435 1.167-2.602 2.602-2.602h10.102c3.28 0 6.18-2.132 7.158-5.262l7.893-25.245c.338-1.088 1.333-1.818 2.476-1.818h65.251c.02 0 .038.003.058.003h.692c1.126.016 2.104.74 2.442 1.827l7.889 25.233c.979 3.13 3.878 5.262 7.158 5.262h167.688c1.435 0 2.602 1.167 2.602 2.602v173.748z"/><path d="m256 456.594c-4.142 0-7.5 3.357-7.5 7.5s3.358 7.5 7.5 7.5c21.241 0 39.483-13.054 47.146-31.557 1.453 2.025 3.742 3.136 6.088 3.136 1.391 0 2.798-.387 4.055-1.195 3.482-2.243 4.486-6.885 2.244-10.367l-9.718-15.088c-2.243-3.481-6.883-4.485-10.367-2.244l-15.088 9.718c-3.482 2.243-4.486 6.885-2.244 10.367 2.17 3.366 6.577 4.408 10.015 2.447-5.945 11.723-18.111 19.783-32.131 19.783z"/><path d="m256 359.618c-21.239 0-39.48 13.051-47.144 31.551-2.315-3.226-6.771-4.108-10.145-1.936-3.482 2.243-4.487 6.884-2.245 10.366l9.718 15.089c1.077 1.673 2.774 2.849 4.719 3.27.525.114 1.057.17 1.587.17 1.429 0 2.841-.409 4.062-1.194l15.088-9.719c3.482-2.243 4.487-6.885 2.244-10.367-2.17-3.367-6.578-4.408-10.015-2.447 5.945-11.724 18.111-19.783 32.131-19.783 4.143 0 7.5-3.357 7.5-7.5s-3.357-7.5-7.5-7.5z"/></g></g></svg>