<svg id="Layer_1" enable-background="new 0 0 512 512" viewBox="0 0 512 512" xmlns="http://www.w3.org/2000/svg"><g id="_2460169335936"><g clip-rule="evenodd" fill-rule="evenodd"><path d="m350.53452 410.73782c0 30.76941-78.45721 55.70163-175.31673 55.70163-96.76059 0-175.21779-24.93222-175.21779-55.70163v-105.2692h350.53452z" fill="#33568e"/><path d="m350.53452 311.70166c0 30.76947-78.45721 55.70163-175.31673 55.70163-96.76059 0-175.21779-24.93216-175.21779-55.70163v-105.26918h350.53452z" fill="#5086c6"/><path d="m350.53452 206.63031c0 30.67053-78.45721 55.60275-175.31673 55.60275-96.76059 0-175.21779-24.93214-175.21779-55.60275v-105.36813h350.53452z" fill="#7ea2d6"/><path d="m175.21777 45.56055c96.85953 0 175.31674 24.93215 175.31674 55.70163s-78.45721 55.70161-175.31673 55.70161c-96.76058 0-175.21778-24.93214-175.21778-55.70161s78.45721-55.70163 175.21777-55.70163z" fill="#a6c0db"/></g><g><path clip-rule="evenodd" d="m373.78476 302.7973c9.39902-5.14471 20.08423-8.01389 31.56094-8.01389 30.17584 0 55.60269 20.28214 63.22086 47.98453 25.13006 8.2118 43.43344 31.85779 43.43344 59.65912 0 34.43011-28.19708 62.62726-62.62723 62.62726h-151.17605c-34.43015 0-62.62724-28.19714-62.62724-62.62726 0-27.80133 18.30339-51.44733 43.43343-59.65912 7.7171-27.70245 33.04504-47.98453 63.22089-47.98453 11.4767.00001 22.26085 2.86918 31.56096 8.01389z" fill="#d1def1" fill-rule="evenodd"/><path d="m328.6694 396.68875c-7.02454-7.02454-7.02454-18.30334 0-25.32788 6.9256-7.02454 18.30338-7.02454 25.32794 0l10.48737 10.4873 29.08752-29.08755c7.02454-6.92557 18.40231-6.92557 25.42685 0 6.9256 7.02454 6.9256 18.40231 0 25.42685l-41.75152 41.75153c-7.02454 7.02454-18.40231 7.02454-25.42685 0z" fill="#7ea2d6"/></g></g></svg>