<?xml version="1.0" encoding="UTF-8"?>
<!-- Generator: Adobe Illustrator 25.2.1, SVG Export Plug-In . SVG Version: 6.00 Build 0)  -->
<svg xmlns="http://www.w3.org/2000/svg" xmlns:xlink="http://www.w3.org/1999/xlink" version="1.1" id="Capa_1" x="0px" y="0px" viewBox="0 0 512 512" style="enable-background:new 0 0 512 512;" xml:space="preserve" width="512" height="512">
<g>
	<g>
		<path style="fill-rule:evenodd;clip-rule:evenodd;fill:#F9D87A;" d="M300.26,94.594c5.043-0.393,12.141,0.065,16.187,2.193    c12.45,6.559,17.138,29.492,21.117,44.429c4.965,18.663,8.445,35.788,12.888,52.659c4.643,17.619,9.995,33.922,15.634,49.918    c2.67,7.57,5.583,15.663,7.953,24.956c2.166,8.488,4.466,19.569,1.917,28.524c-2.568,9.045-10.928,14.786-20.845,18.378    c-9.762,3.531-21.101,6.359-30.714,8.5c-21.934,4.883-44.055,8.902-64.447,13.712c-42.158,9.943-83.244,20.937-125.613,30.993    c-10.757,2.551-21.876,5.774-34.009,4.662c-12.334-1.13-19.55-6.297-24.136-15.085c-4.461-8.553-7.024-18.633-9.597-29.62    c-7.336-31.303-14.025-63.474-21.943-95.168c-3.766-15.082-8.189-30.595-10.971-47.721c-0.978-6.025-2.211-15.539,0.822-20.846    c2.017-3.533,7.685-6.99,12.07-9.048c4.501-2.116,10.331-3.953,15.356-5.487c10.99-3.349,23.953-4.814,34.831-7.132    c11.359-2.416,23.194-4.704,34.835-7.129c11.552-2.407,22.927-5.427,33.733-8.228c21.963-5.697,44.744-11.029,66.918-17.005    c15.965-4.301,33.153-9.107,49.915-13.164C288.096,96.45,293.933,95.087,300.26,94.594z"/>
		<g>
			<g>
				<g>
					<path style="fill-rule:evenodd;clip-rule:evenodd;fill:#C4765B;" d="M115.698,340.279       c12.621-15.191,25.893-30.064,39.516-44.763c1.2,17.02,4.145,34.894,5.356,51.911       C142.515,351.5,128.053,348.085,115.698,340.279z"/>
					<path style="fill-rule:evenodd;clip-rule:evenodd;fill:#7C75D1;" d="M87.495,279.059c20.357,2.471,39.638,7.187,59.746,10.167       c-2.215,4.289-5.916,7.589-9.071,11.253c-9.415,10.918-19.915,22.535-29.505,33.637       C94.751,324.92,82.032,296.468,87.495,279.059z"/>
					<path style="fill-rule:evenodd;clip-rule:evenodd;fill:#69AF7A;" d="M167.5,345.498c-2.339-17.243-3.55-35.018-5.916-53.527       c-0.351-2.725-0.764-6.89-1.309-7.684c-1.318-1.94-14.194-3.581-17.027-4.077c-15.076-2.646-29.095-4.793-44.071-7.428       c-3.423-0.602-7.158-1.687-9.237-0.885c-0.478,0.077-0.358-0.332-0.138-0.407c1.362-8.978,6.787-19.618,13.15-26.659       c24.073-26.62,68.393-24.263,88.94-6.201c17.982,15.806,23.278,43.776,18.062,62.899c-2.668,9.807-7.651,17.79-14.503,25.314       C188.681,334.288,180.143,341.265,167.5,345.498z"/>
				</g>
				<g>
					<path style="fill-rule:evenodd;clip-rule:evenodd;fill:#A59AE8;" d="M71.062,220.412c2.695-3.981,13.858-7.269,25.353-10.573       c12.852-3.692,22.723-8.994,28.097-5.807c3.239,1.918,6.238,9.682,8.562,15.788c1.96,5.151,6.198,14.039,4.656,18.284       c-1.884,5.195-19.883,9.771-26.713,12.014c-4.319,1.422-9.551,3.482-15.205,4.998c-8.971,2.406-14.267,3.864-18.499-6.05       C75.24,244.204,67.167,226.18,71.062,220.412z"/>
					<g>
						<g>
							<path style="fill:#FFFFFF;" d="M95.959,247.506c4.908-11.262,9.815-22.521,14.732-33.779         c1.035-2.382-2.564-4.322-3.621-1.925c-4.912,11.265-9.817,22.526-14.736,33.784         C91.294,247.97,94.902,249.913,95.959,247.506"/>
						</g>
						<path style="fill:#FFFFFF;" d="M90.574,226.911c-3.113-0.54-5.121-3.423-4.479-6.439c0.646-3.014,3.697-5.03,6.803-4.492        c3.108,0.535,5.121,3.422,4.479,6.437C96.737,225.43,93.684,227.446,90.574,226.911z M92.231,219.118        c-1.322-0.225-2.621,0.633-2.897,1.913c-0.273,1.285,0.584,2.513,1.906,2.739c1.326,0.228,2.619-0.63,2.901-1.912        C94.406,220.575,93.56,219.346,92.231,219.118z"/>
						<path style="fill:#FFFFFF;" d="M111.348,244.398c-3.564-0.615-5.854-3.916-5.121-7.359c0.735-3.449,4.223-5.754,7.78-5.143        c3.557,0.613,5.856,3.916,5.121,7.364C118.402,242.703,114.907,245.01,111.348,244.398z M113.341,235.035        c-1.771-0.303-3.51,0.842-3.872,2.557c-0.367,1.715,0.775,3.358,2.552,3.663c1.764,0.307,3.506-0.841,3.87-2.556        C116.256,236.983,115.105,235.34,113.341,235.035z"/>
					</g>
				</g>
			</g>
			<g>
				<path style="fill-rule:evenodd;clip-rule:evenodd;fill:#FFFFFF;" d="M131.758,175.978c2.85-1.195,4.392-5.593,7.667-4.807      c3.39,0.812,2.162,5.934,3.361,9.019c3.017-1.471,5.383-4.54,8.933-3.643c3.828,0.965,7.127,8.7,7.22,12.233      c-1.928-1.547-2.746-2.589-4.17-4.465c-0.853-1.131-2.186-4.258-3.803-4.682c-3.499-0.92-5.467,4.687-8.704,3.986      c-3.121-0.677-3.077-5.327-3.792-8.522c-3.099,0.239-4.521,6.515-7.72,6.274c-2.875-0.214-2.693-3.079-2.879-5.955      c-3.434,3.923-4.93,16.214-10.561,15.399c-3.459-0.5-3.412-4.28-3.777-7.336c-2.068,4.237-3.939,17.385-9.935,14.061      c-3.535-1.966-3.752-10.458-2.615-17.128c0.68-4.002,2.033-10.484,5.314-10.353c3.81,0.152,3.646,4.156,4.203,6.839      c2.464-2.388,1.517-10.012,4.643-11.387c4.217,0.069,3.297,4.341,3.408,7.55c0.115,3.262,0.349,6.219,0.5,8.09      c2.455-2.398,5.403-14.095,9.186-14.816C132.987,165.433,132.407,171.907,131.758,175.978z M105.837,190.938      c1.384-2.366,1.964-5.981,3.293-8.432c-1.564-1.463-1.358-3.982-2.286-5.826C106.061,181.696,105.244,186.738,105.837,190.938z"/>
				<g>
					<path style="fill:#FFFFFF;" d="M61.337,185.347l-1.124,4.833c-0.127,0.539-0.004,1.058,0.34,1.463       c0.367,0.427,0.969,0.682,1.569,0.67c0.838-0.022,1.468-0.523,1.655-1.315l1.635-7.018l3.546-1.382       c0.355,0.868,0.706,1.734,1.053,2.606l0.471,1.179c0.293,0.722,0.989,1.163,1.802,1.14c0.635-0.013,1.233-0.31,1.551-0.772       c0.296-0.423,0.344-0.943,0.133-1.462l-1.875-4.672c0.104-0.318,0.107-0.636,0.004-0.95c-0.12-0.381-0.393-0.719-0.769-0.953       l-3.139-7.801c-0.291-0.725-0.982-1.163-1.795-1.145c-0.624,0.015-1.195,0.292-1.526,0.739       c-0.242,0.333-0.331,0.731-0.258,1.148c-0.091,0.146-0.151,0.31-0.193,0.482l-2.171,9.306l-1.269,0.49       c-0.955,0.377-1.448,1.287-1.171,2.169C60.004,184.746,60.646,185.253,61.337,185.347z M66.385,179.829l0.535-2.308       l0.729,1.815C67.229,179.499,66.805,179.666,66.385,179.829z"/>
					<path style="fill:#FFFFFF;" d="M87.661,190.977c-0.209-1.069-1.242-1.694-2.306-1.34c-8.911,2.977-17.586,6.743-25.78,11.186       c-0.726,0.393-1.053,1.107-0.826,1.867c0.229,0.814,1.006,1.391,1.839,1.373c0.3-0.009,0.591-0.09,0.875-0.24       c7.951-4.314,16.362-7.961,24.998-10.846C87.486,192.633,87.802,191.725,87.661,190.977z"/>
				</g>
				<g>
					<path style="fill-rule:evenodd;clip-rule:evenodd;fill:#FFFFFF;" d="M233.331,314.863c-1.786-1.173-5.212-15.64-9.06-29.204       c-3.65-12.899-7.789-24.929-7.189-25.986c0.789-1.396,6.756-3.046,8.407-1.963c1.777,1.172,16.278,52.773,15.867,53.829       C240.48,313.785,235.013,315.97,233.331,314.863z"/>
					<path style="fill-rule:evenodd;clip-rule:evenodd;fill:#FFFFFF;" d="M248.218,310.38c-1.964-1.818-7.031-22.18-12.423-41.339       c-5.13-18.222-10.662-35.288-10.157-36.688c0.664-1.843,6.632-3.495,8.442-1.823c1.957,1.808,22.352,74.683,22.043,76.101       C255.461,309.648,250.062,312.089,248.218,310.38z"/>
					<path style="fill-rule:evenodd;clip-rule:evenodd;fill:#FFFFFF;" d="M263.852,306.692c-1.642-0.664-3.768-10.405-6.367-19.486       c-2.471-8.634-5.488-16.627-4.81-17.411c0.882-1.037,6.854-2.686,8.369-2.076c1.64,0.661,11.415,35.218,10.924,35.985       C270.923,305.338,265.394,307.318,263.852,306.692z"/>
					<path style="fill-rule:evenodd;clip-rule:evenodd;fill:#FFFFFF;" d="M278.213,302.22c-1.888-1.537-6.254-19.367-10.979-36.119       c-4.492-15.93-9.424-30.831-8.878-32.082c0.715-1.651,6.683-3.303,8.424-1.884c1.882,1.534,19.739,65.256,19.386,66.518       C285.413,301.339,279.985,303.671,278.213,302.22z"/>
					<path style="fill-rule:evenodd;clip-rule:evenodd;fill:#FFFFFF;" d="M293.722,298.095c-1.795-1.23-5.363-16.186-9.333-30.217       c-3.781-13.341-8.033-25.787-7.44-26.872c0.775-1.432,6.74-3.087,8.405-1.952c1.797,1.224,16.787,54.591,16.387,55.678       C300.88,297.045,295.412,299.252,293.722,298.095z"/>
					<path style="fill-rule:evenodd;clip-rule:evenodd;fill:#FFFFFF;" d="M309.32,294.268c-1.557-0.35-2.87-7.184-4.71-13.507       c-1.746-6.012-4.07-11.518-3.35-12.134c0.949-0.812,6.914-2.466,8.351-2.143c1.557,0.344,8.424,24.411,7.885,25.002       C316.344,292.741,310.779,294.596,309.32,294.268z"/>
					<path style="fill-rule:evenodd;clip-rule:evenodd;fill:#FFFFFF;" d="M324.753,289.691c-1.697-0.874-4.359-12.563-7.471-23.492       c-2.957-10.393-6.438-20.049-5.796-20.946c0.849-1.182,6.818-2.835,8.387-2.029c1.699,0.873,13.423,42.453,12.963,43.339       C331.86,288.449,326.353,290.513,324.753,289.691z"/>
					<path style="fill-rule:evenodd;clip-rule:evenodd;fill:#FFFFFF;" d="M340.836,284.741c-1.946-1.751-6.849-21.535-12.095-40.148       c-4.985-17.7-10.379-34.275-9.868-35.639c0.68-1.798,6.647-3.45,8.44-1.836c1.942,1.748,21.763,72.535,21.441,73.919       C348.069,283.977,342.662,286.391,340.836,284.741z"/>
					<path style="fill-rule:evenodd;clip-rule:evenodd;fill:#FFFFFF;" d="M358.329,280.154c-1.808-1.291-5.532-16.789-9.644-31.337       c-3.917-13.834-8.298-26.75-7.714-27.867c0.767-1.473,6.734-3.123,8.409-1.939c1.813,1.287,17.353,56.622,16.955,57.742       C365.5,279.133,360.039,281.363,358.329,280.154z"/>
				</g>
				<path style="fill-rule:evenodd;clip-rule:evenodd;fill:#FFFFFF;" d="M163.742,148.445c1.86,1.967,4.116,4.406,4.952,7.26      c0.172,0.586-0.387,1.146-0.96,0.935c-1.15-0.424-1.728-2-2.595-2.99c0.504,5.313,2.157,10.976,3.692,16.893      c3.604,13.881,7.307,28.677,11.568,43.082c1.824,6.143,3.83,12.861,9.76,12.258c1.035-3.527,1.242-6.542,2.428-9.966      c0.915-2.637,2.528-7.15,5.83-8.725c1.848-0.882,3.639-0.634,5.563-0.579c1.622,0.049,3.67,0.492,5.052-0.053      c4.859-1.907,4.714-10.134,4.808-14.759c0.222-11.901,0.107-21.34,3.206-31.83c1.342-4.556,3.104-10.78,9.486-13.063      c7.945,1.549,10.62,13.73,17.011,18.419c2.915-3.108,3.301-7.348,4.066-11.254c1.906-9.732,2.419-20.08,5.059-29.983      c0.447-1.672,0.651-4.251,3.001-5.041c2.042,3.311,0.622,7.835-0.151,11.967c-1.408,7.525-2.231,15.666-3.679,23.648      c-0.729,4.026-1.237,8.251-3.017,11.162c-0.529,0.867-2.34,2.908-3.684,3.38c-8.886,3.108-12.445-16.742-19.224-18.515      c-3.448,3.392-4.621,7.889-5.627,11.866c-2.097,8.279-2.526,17.221-2.539,26.422c-0.009,4.47,0.326,9.31-1.058,13.286      c-1.006,2.899-3.379,6.569-7.453,7.431c-3.186,0.679-6.256-1.377-9.677,0.266c-3.21,1.543-3.559,4.771-4.501,7.56      c-0.948,2.797-1.968,5.473-2.059,8.21c27.379-2.679,59.048-14.011,89.132-22.148c-0.925-1.198-4.896-0.931-6.563-2.35      c-0.548-0.467-0.328-1.38,0.382-1.503c2.412-0.419,4.28,0.517,6.83,1.026c2.348,0.471,5.756,0.307,6.818,2.469      c1.268,2.589-1.746,5.646-3.532,8.148c-1.649,2.304-3.123,4.738-5.639,6.253c-0.652,0.393-1.44-0.224-1.283-0.969      c0.431-2.041,2.242-3.781,3.23-5.444c1.331-2.262,2.755-4.372,3.363-6.793c-15.891,6.448-34.073,11.184-49.966,15.127      c-14.874,3.688-29.355,7.419-43.104,8.889c-1.871,8.596-1.862,17.864-3.166,26.665c-1.613,0.274-1.357-1.911-1.444-2.648      c-0.418-3.193,0.318-6.919,0.516-10.181c0.28-4.589,0.444-9.404,1.373-13.41c-10.524,0.322-12.419-14.065-15.205-24.599      c-4.397-16.594-8.256-36.324-11.537-51.783c-0.602,1.372-0.455,2.869-0.7,4.458c-0.211,1.374-0.447,4.164-1.559,4.151      c-0.735-0.109-0.279-8.808,1.587-12.472C162.765,148.157,163.385,148.068,163.742,148.445z"/>
			</g>
		</g>
	</g>
	<g>
		<g>
			<g>
				<g>
					<polygon style="fill-rule:evenodd;clip-rule:evenodd;fill:#DB9171;" points="449.482,445.186 456.149,454.199 435.823,468.7        429.638,459.986      "/>
				</g>
				<g>
					<path style="fill-rule:evenodd;clip-rule:evenodd;fill:#7C75D1;" d="M434.83,509.49l-2.241-12.5       c0.433-0.632,0.902-1.264,1.381-1.901l8.925-10.025l-8.334-18.149c6.105-4.559,20.908-14.42,21.716-14.217       c0,0,5.235,6.325,10.681,12.933l6.71,14.32l-5.597,10.123c-8.543,5.774-16.968,11.452-25.479,16.953L434.83,509.49z"/>
					<path style="fill:#A59AE8;" d="M438.898,496.647c2.328-0.864,8.682-10.357,8.635-12.212       c-0.051-1.573-10.726-14.804-12.972-17.516c0,0-2.357,1.581-2.592,2.177c-1.573,3.924,6.72,10.505,7.493,15.16       c0.433,2.569-1.875,5.763-3.548,8.189c-0.615,0.894-1.289,1.781-1.944,2.646C435.744,495.999,437.312,497.231,438.898,496.647"/>
					<path style="fill:#A59AE8;" d="M479.416,481.591c0.025-0.935-1.306-2.338-2.426-3.725c-3.777-4.652-6.842-8.266-10.035-12.232       c-2.088,2.225-3.152,5.152-3.564,7.508c-0.9,5.146,0.829,11.456,4.677,16.931c2.188-1.481,4.379-2.957,6.58-4.444       C476.615,484.305,479.383,482.908,479.416,481.591"/>
					<path style="fill:#A59AE8;" d="M434.188,497.378c-0.435-0.198-0.995-0.331-1.595-0.384c-0.791,1.159-1.473,2.317-1.857,3.492       c-1.124,3.398-0.547,8.562,4.034,11.513l7.816-4.98C442.526,506.945,439.136,499.622,434.188,497.378"/>
				</g>
			</g>
			<g>
				<g>
					<polygon style="fill-rule:evenodd;clip-rule:evenodd;fill:#DB9171;" points="272.785,464.724 268.511,475.087 245.595,465.184        249.856,455.386      "/>
				</g>
				<g>
					<path style="fill-rule:evenodd;clip-rule:evenodd;fill:#7C75D1;" d="M210.623,484.5l9.079-7.467       c0.766,0.044,1.551,0.119,2.344,0.199l12.53,1.792c0,0,10.14-16.558,11.891-15.846c7.058,2.871,23.154,10.448,23.397,11.245       c0,0-2.71,7.748-5.553,15.825l-8.186,15.036l-12.165-1.451c-9.357-4.33-18.571-8.606-27.679-13.048L210.623,484.5z"/>
					<path style="fill:#A59AE8;" d="M223.256,482.254c1.944,1.549,13.356,2.085,14.916,1.083c1.324-0.857,7.132-16.836,8.293-20.155       c0,0-2.573-1.201-3.204-1.094c-4.17,0.68-5.514,11.184-9.104,14.252c-1.977,1.695-5.9,1.372-8.846,1.19       c-1.089-0.062-2.188-0.181-3.266-0.294C222.181,479.221,221.937,481.197,223.256,482.254"/>
					<path style="fill:#A59AE8;" d="M257.091,509.163c0.806-0.464,1.322-2.329,1.933-4c2.028-5.638,3.535-10.132,5.283-14.916       c-2.982-0.634-6.041-0.039-8.264,0.83c-4.872,1.892-9.382,6.635-12.084,12.758c2.402,1.108,4.803,2.216,7.212,3.333       C253.317,508.167,255.943,509.816,257.091,509.163"/>
					<path style="fill:#A59AE8;" d="M220.201,478.605c-0.062-0.48-0.236-1.025-0.5-1.567c-1.397-0.078-2.746-0.064-3.95,0.215       c-3.49,0.794-7.614,3.957-7.771,9.405l8.307,4.116C216.318,490.686,220.832,484.002,220.201,478.605"/>
				</g>
			</g>
			<g>
				<path style="fill-rule:evenodd;clip-rule:evenodd;fill:#69AF7A;" d="M441.391,414.386c-8.4-12.935-17.098-25.792-26.117-39.029      c-4.441-6.533-8.886-12.887-11.79-20.778c-2.83-7.71-4.286-17.04-4.77-27.796c-0.784-17.172-1.357-37.387-1.968-55.034      c-0.089-2.605-0.64-5.691-0.282-7.863c0.211-1.249,1.353-2.809,1.968-4.211c4.543-10.277,5.807-28.351,2.488-41.369      c-31.7,0.681-66.156,5.817-96.554,2.343c-1.155,0.206-0.007,0.765,0,0.842c0.142,1.174-1.715,4.506-2.524,6.738      c-6.338,17.517-11.228,36.586-16.282,53.91c-6.061,20.764-12.594,41.673-18.251,62.05      c-10.459,37.677-20.072,75.396-31.62,110.739c13.414,5.419,26.797,10.938,40.251,16.269      c6.121-10.782,11.455-22.456,16.358-34.63c6.913-17.167,12.486-35.147,16.284-55.033c1.931-10.109,3.748-20.268,5.332-30.324      c1.578-9.972,4.141-19.225,7.58-28.079c6.9-17.73,12.914-34.953,18.813-52.504c1.766,23.672,4.812,45.783,8.145,66.543      c1.733,10.809,3.199,21.788,7.02,30.325c3.706,8.279,9.131,15.758,14.319,23.303c18.313,26.634,35.364,52.829,54.739,77.76      c1.129-0.72,2.264-1.43,3.377-2.175c7.389-4.936,14.547-10.206,21.936-15.139c3.239-2.163,6.538-4.252,9.871-6.304      C454.03,434.439,447.847,424.329,441.391,414.386z"/>
				<g>
					<path style="fill-rule:evenodd;clip-rule:evenodd;fill:#2C8952;" d="M344.575,226.32c1.273,1.093,0.662,4.696,0.562,7.021       c-0.102,2.31-0.626,6.409-1.124,9.548c-0.336,2.112-0.453,7.709-3.09,7.578c-2.508-0.121-2.988-6.623-2.808-9.826       C338.405,235.51,342.293,224.368,344.575,226.32z"/>
					<path style="fill:#2C8952;" d="M275.94,471.197c6.121-10.782,11.455-22.456,16.358-34.63       c6.913-17.167,12.486-35.147,16.284-55.033c1.931-10.109,3.748-20.268,5.332-30.324c1.578-9.972,4.141-19.225,7.58-28.079       c6.9-17.73,12.914-34.953,18.813-52.504c0,0.007,0,0.012,0.005,0.021c0.775-7.569,1.246-17.152-0.831-17.154       c-2.055,0-4.283,10.137-5.892,15.163c-7.927,24.742-18.186,45.957-26.113,69.916c-3.193,9.644-4.228,21.863-5.616,32.85       c-1.453,11.466-3.021,22.406-5.896,32.57c-2.83,10.002-6.118,19.597-9.551,28.92c-4.665,12.699-9.922,24.622-15.009,36.474       C272.909,469.99,274.427,470.595,275.94,471.197z"/>
					<path style="fill:#2C8952;" d="M391.129,335.767c0,9.575,0.289,19.086,2.526,25.831c1.664,4.999,4.777,9.88,7.582,14.599       c7.967,13.394,17.486,28.729,26.115,41.277c7.449,10.835,15.607,21.937,23.483,33.123c2.917-1.933,5.881-3.814,8.878-5.657       c-5.683-10.502-11.866-20.611-18.322-30.554c-8.4-12.935-17.098-25.792-26.117-39.029c-4.441-6.533-8.886-12.887-11.79-20.778       c-2.83-7.71-4.286-17.04-4.77-27.796c-0.784-17.172-1.357-37.387-1.968-55.034c-0.089-2.605-0.64-5.691-0.282-7.863       c0.211-1.249,1.353-2.809,1.968-4.211c4.543-10.277,5.807-28.351,2.488-41.369c-2.313,0.051-4.643,0.128-6.98,0.221       c0.011,0.262,0.024,0.543,0.042,0.867c0.504,8.637-0.489,15.852-1.729,22.593c-0.818,4.449-2.419,8.494-3.086,12.635       c-1.313,8.094,0.082,16.989,0.84,26.114C391.498,298.732,391.129,316.366,391.129,335.767z"/>
					<path style="fill-rule:evenodd;clip-rule:evenodd;fill:#2C8952;" d="M282.253,355.644c4.472,5.281-11.601,17.751-14.056,11.027       c0.327-3.313,4.303-4.62,6.727-6.647C277.333,358.006,280.092,353.093,282.253,355.644z"/>
					<path style="fill-rule:evenodd;clip-rule:evenodd;fill:#2C8952;" d="M376.297,359.156c4.47,5.281-11.606,17.749-14.061,11.024       c0.331-3.311,4.303-4.618,6.732-6.647C371.372,361.516,374.136,356.604,376.297,359.156z"/>
				</g>
			</g>
		</g>
		<g>
			<g>
				<g>
					<g>
						<path style="fill-rule:evenodd;clip-rule:evenodd;fill:#DB9171;" d="M301.133,56.598c-1.482,6.711-6.038,13.063-9.609,19.617        c-6.951,12.76-14.343,29.242-14.614,42.27c-0.047,2.516-0.047,5.19,0.378,7.458c0.631,3.378,2.85,8.266,8.687,10.447        c4.572,1.705,7.225-0.632,9.797-3.158c1.364-1.336,2.288-3.068,3.041-4.736c2.548-5.605,3.104-11.275,3.928-16.728        c2.368-15.59,4.774-32.734,10.664-49.712C313.405,62.055,305.147,57.927,301.133,56.598z"/>
						<g>
							<path style="fill:#FFFFFF;" d="M278.806,113.803c-0.056,2.515-0.056,5.191,0.371,7.46c0.635,3.378,2.85,8.266,8.691,10.446         c4.572,1.704,7.218-0.632,9.797-3.158c1.075-1.051,1.87-2.357,2.535-3.676c-0.387,1.208-0.837,2.416-1.386,3.62         c-0.753,1.669-1.677,3.4-3.041,4.736c-2.572,2.526-5.225,4.863-9.797,3.158c-5.836-2.182-8.056-7.069-8.687-10.447         c-0.424-2.268-0.424-4.942-0.378-7.458c0.169-8.111,3.099-17.564,6.965-26.62C280.985,99.44,278.941,107.082,278.806,113.803         z"/>
							<path style="fill-rule:evenodd;clip-rule:evenodd;fill:#C4765B;" d="M299.867,60.688l6.318,2.858         c0,0-3.268,1.057-7.314-0.542L299.867,60.688z"/>
						</g>
					</g>
					<g>
						<g>
							<path style="fill-rule:evenodd;clip-rule:evenodd;fill:#7C75D1;" d="M305.321,26.991c-0.413,0.013-0.855-0.109-1.32-0.213         c-2.91-0.631-5.843-1.26-8.8-1.885c-0.233-0.049-0.447-0.139-0.671-0.143c-0.335-0.009-0.864,0.154-1.224,0.515         c-0.555,0.538-0.844,1.308-0.946,1.952c-0.673,4.434-1.393,8.881-2.059,13.231c-0.767,5.007-1.557,9.872-2.355,14.858         c-0.391,2.457-0.744,4.885-1.144,7.334c-0.189,1.182-0.429,2.416-0.551,3.639c-0.12,1.155,0.273,2.443,1.662,2.637         c0.258,0.036,0.544,0.009,0.809,0.021c3.737,0.156,7.538,0.213,11.295,0.35c0.267,0.011,0.542,0.04,0.795,0.018         c0.52-0.048,1.177-0.241,1.737-0.681c0.2-0.161,0.589-0.871,0.751-1.076c0.027,0.289-0.533,1.099-0.798,1.342         c-0.729,0.697-1.497,0.851-2.206,0.837c-2.133-0.048-4.43-0.172-6.5-0.247c-2.186-0.076-4.27-0.15-6.512-0.212         c-0.711-0.02-1.535,0.053-2.148-0.472c-0.642-0.557-0.777-1.397-0.706-2.21c0.064-0.826,0.233-1.668,0.349-2.449         c0.74-4.946,1.582-10.036,2.339-14.937c0.782-5.084,1.564-10.087,2.346-15.223c0.322-2.146,0.653-4.262,0.991-6.417         c0.124-0.788,0.187-1.827,0.938-2.611c0.353-0.375,0.716-0.521,1.098-0.63c0.702-0.195,1.444,0.032,2.166,0.178         C298.218,25.227,301.702,26.132,305.321,26.991z"/>
						</g>
						<g>
							<path style="fill-rule:evenodd;clip-rule:evenodd;fill:#A59AE8;" d="M308.489,28.143c0.429,0.398,0.782,0.983,0.942,1.513         c0.149,0.535,0.136,1.006,0.053,1.526c-1.169,7.21-2.324,14.272-3.515,21.334c-0.762,4.476-1.475,8.942-2.235,13.396         c-0.087,0.509-0.118,1.01-0.293,1.474c-0.218,0.591-0.649,1.154-1.146,1.497c-0.951,0.661-1.897,0.436-2.844,0.409         c-3.261-0.094-6.518-0.219-9.86-0.281c-0.469-0.009-0.938-0.02-1.422-0.02c-0.491,0-0.982-0.103-1.391-0.46         c-0.818-0.722-0.724-1.7-0.52-2.94c1.4-8.5,2.715-17.128,4.106-25.888c0.628-3.989,1.286-8.288,1.933-12.407         c0.04-0.281,0.089-0.575,0.173-0.824c0.309-0.926,1.144-1.65,1.835-1.746c0.322-0.047,0.675,0.045,1.024,0.121         c3.748,0.789,7.367,1.556,11.124,2.398c0.675,0.156,1.464,0.299,2.004,0.862C308.471,28.12,308.475,28.131,308.489,28.143z"/>
							<path style="fill:#FFFFFF;" d="M303.546,59.531c0.127-0.774,0.26-1.524,0.393-2.286c0.555-3.146,0.995-6.11,1.526-9.183         c0.269-1.558,0.491-3.106,0.74-4.624c0.506-3.071,1.011-6.225,1.517-9.352c0.067-0.38,0.12-0.775,0.182-1.178         c0.067-0.381,0.171-0.777,0.218-1.188c0.087-0.786-0.069-1.706-0.753-2.318c-0.014-0.013-0.018-0.027-0.029-0.037         c-0.378-0.395-0.851-0.454-1.264-0.546c-0.489-0.11-0.864-0.205-1.359-0.316c-0.222-0.05-0.522-0.163-0.68-0.068         c-0.16,0.098-0.231,0.392-0.486,0.513c-0.151,0.07-0.376-0.009-0.602-0.058c-1.26-0.279-2.404-0.503-3.634-0.776         c-0.231-0.048-0.491-0.079-0.609-0.209c-0.227-0.228-0.062-0.582-0.253-0.77c-0.067-0.06-0.284-0.081-0.431-0.118         c-0.458-0.103-0.902-0.2-1.311-0.294c-0.626-0.141-1.224-0.331-1.764-0.244c-0.475,0.079-1.022,0.493-1.262,1.125         c-0.136,0.333-0.176,0.86-0.24,1.284c-0.191,1.253-0.409,2.755-0.578,3.856c-0.264,1.762-0.556,3.461-0.815,5.13         c-0.509,3.337-1.007,6.706-1.557,10.139c-0.742,4.63-1.84,10.158-2.581,14.907l15.242,0.699         C303.352,62.431,303.363,60.695,303.546,59.531z"/>
							<g>
								<path style="fill:#A59AE8;" d="M302.568,66.987c0.116-0.335,0.165-0.756,0.229-1.159c0.071-0.382,0.129-0.791,0.187-1.164          c0.057-0.351,0.12-0.701,0.171-1.045l-15.242-0.699c-0.098,0.645-0.204,1.285-0.302,1.918          c-0.06,0.413-0.147,0.854-0.193,1.284c-0.089,0.795,0.258,1.743,1.171,1.982c0.222,0.052,0.48,0.026,0.742,0.037          c3.264,0.12,6.607,0.208,9.831,0.357c0.515,0.027,1.031,0.101,1.515,0.048C301.353,68.47,302.259,67.892,302.568,66.987z"/>
							</g>
						</g>
					</g>
					<g>
						<g>
							<path style="fill-rule:evenodd;clip-rule:evenodd;fill:#DB9171;" d="M293.353,45.781c1.548,1.225,4.285,2.275,3.788,4.063         c-0.52,1.826-3.452,1.259-5.503,1.282c0.96,0.432,2.308,1.095,2.097,2.272c-0.282,1.545-4.377,1.798-7.242,0.945         c-3.903-1.161-5.743-5.279-1.344-5.526c-1.799-1.831-0.496-5.3,2.126-4.852c-1.049-1.133-2.024-1.84-1.415-3.354         c1.469-3.656,12.312,1.266,11.41,4.335C296.856,46.345,295.066,46.163,293.353,45.781"/>
							<path style="fill:#C4765B;" d="M285.859,40.611c-0.609,1.514,0.165,2.425,1.415,3.354c-3.068-0.629-4.254,3.048-2.126,4.852         c-0.518,0.031-0.946,0.114-1.295,0.239c-0.04,0.02-0.082,0.034-0.124,0.052c-0.129,0.051-0.233,0.109-0.34,0.169         c-0.062,0.038-0.111,0.077-0.165,0.115c-1.062,0.792-0.675,2.246,0.573,3.425c-0.06-0.493-0.042-0.982,0.111-1.441         c0.329-0.982,0.933-1.648,1.682-2.127c-0.142-0.194-0.26-0.404-0.349-0.639c-0.598-1.676,0.202-3.495,1.697-4.357         c0.313-0.182,0.653-0.281,1-0.32c-1.382-0.945-1.442-3.076-0.567-4.041c0.238-0.26,0.5-0.441,0.762-0.563         C287.048,39.386,286.201,39.767,285.859,40.611z"/>
						</g>
						<g>
							<path style="fill-rule:evenodd;clip-rule:evenodd;fill:#DB9171;" d="M286.179,35.898c-0.564,1.41,0.691,2.975,2.251,3.419         c0.738,0.071,5.143,1.636,5.69,1.844c1.564,0.308,3.099,0.353,3.475-0.929C298.496,37.164,287.654,32.248,286.179,35.898z"/>
							<path style="fill:#C4765B;" d="M286.184,35.905c-1.004,2.292,1.942,3.316,2.246,3.413c-1.844-1.444-1.353-3.785,0.326-4.713         C287.532,34.602,286.586,34.989,286.184,35.905z"/>
						</g>
					</g>
					<g>
						<path style="fill:#DB9171;" d="M303.912,51.931c1.817-4.501,2.168-7.718-3.661-12.674c-2.213-1.881-8.256-6.101-6.558-9.592        c0.502-0.492,10.728,6.486,12.93,7.838c4.174,2.57,7.347,5.926,8.149,7.964c1.024,2.62,1.175,9.98-1.366,16.589        c-1.275,3.316-4.974,2.529-9.142,0.73C301.115,61.426,302.384,55.723,303.912,51.931z"/>
					</g>
				</g>
				<g>
					<path style="fill-rule:evenodd;clip-rule:evenodd;fill:#7C75D1;" d="M290.047,73.237c6.707,0.224,13.039,0.819,19.657,1.123       c-2.073,15.335-7.725,37.619-10.006,52.739c6.934-14.493,16.134-37.119,30.225-44.463c-0.609,2.969-1.644,5.693-2.531,8.571       c-5.325,17.384-10.035,36.674-13.479,56.156c-0.598,3.396-0.384,7.14-1.402,10.107c-0.464,1.369-2.206,3.186-3.646,4.773       c-3.812,4.182-8.907,8.648-12.921,12.077c-2.91,2.482-5.576,5.031-9.546,7.299c-6.876,3.921-16.955,5.192-20.779-2.246       c-4.528-8.827-1.271-25.424,0.844-35.942c3.366-16.73,8.5-33.109,14.036-47.732C283.527,87.724,286.519,79.906,290.047,73.237z       "/>
					<g>
						<path style="fill-rule:evenodd;clip-rule:evenodd;fill:#FFFFFF;" d="M273.774,179.73c1.378-1.692-1.673-2.958-2.481-1.933        C270.215,179.177,272.561,181.222,273.774,179.73z"/>
						<path style="fill-rule:evenodd;clip-rule:evenodd;fill:#FFFFFF;" d="M272.725,174.047c0.962-1.827-3.697-3.72-4.354-1.941        c-0.28,0.748,0.145,1.143,0.971,1.743C270.57,174.731,272.045,175.328,272.725,174.047z"/>
					</g>
				</g>
			</g>
			<g>
				<path style="fill-rule:evenodd;clip-rule:evenodd;fill:#FFFFFF;" d="M401.237,219.244l-24.681-1.676l-21.053,4.887      c-6.417,0.224-12.867,0.331-19.262,0.285l-17.402-4.135l-14.751,2.322c1.602-21.71,5.054-42.325,5.059-65.422      c0-12-1.251-23.196-0.564-33.973c0.653-10.306,2.872-19.773,7.86-27.237c8.509-12.723,25.176-17.864,45.206-18.811      c18.382-0.871,30.567,4.222,37.625,14.318c10.262,14.685,9.535,41.131,6.176,63.175c-1.573,10.346-3.757,21.096-5.052,32.01      C399.035,196.419,399.94,207.894,401.237,219.244z"/>
				<path style="fill:#A59AE8;" d="M400.397,184.989c1.295-10.914,3.479-21.664,5.052-32.01c3.359-22.044,4.086-48.49-6.176-63.175      c-5.632-8.055-15.089-13.122-27.795-14.318C366,82.2,362.317,90.398,359.684,99.63c-3.337,11.701-4.065,25.526-4.772,40.433      c-1.266,26.567-0.502,55.987,0.591,82.383c15.907-0.556,31.607-1.811,45.734-3.202      C399.94,207.894,399.035,196.419,400.397,184.989z"/>
				<g>
					<path style="fill:#A59AE8;" d="M343.973,77.729c-11.981,2.683-21.685,7.828-27.53,16.567       c-4.988,7.465-7.207,16.931-7.86,27.237c-0.687,10.777,0.564,21.973,0.564,33.973c-0.004,23.096-3.457,43.712-5.059,65.422       c10.246,1.195,21.116,1.724,32.154,1.804c-0.702-24.983-0.702-51.484-0.702-77.051       C335.539,120.021,344.463,77.619,343.973,77.729z"/>
					<g>
						<path style="fill-rule:evenodd;clip-rule:evenodd;fill:#FFFFFF;" d="M314.798,105.401c-0.511-1.541,2.317-7.507,4.288-6.417        c1.604,0.889-1.013,6.097-2.788,6.815C315.836,105.984,315.496,105.955,314.798,105.401z"/>
						<path style="fill-rule:evenodd;clip-rule:evenodd;fill:#FFFFFF;" d="M320.055,96.272c-1.911-0.787,0.46-5.223,2.104-4.278        c0.695,0.398,0.62,0.973,0.364,1.963C322.145,95.421,321.388,96.822,320.055,96.272z"/>
					</g>
				</g>
				<g>
					<g>
						<g>
							<path style="fill-rule:evenodd;clip-rule:evenodd;fill:#DB9171;" d="M375.386,36.378c3.612-0.35,7.822,0.661,8.456,3.709         c0.813,3.918-3.021,6.656-5.519,7.918c-1.142,0.578-2.421,0.623-3.144,1.287c-0.691,0.641-1.5,3.336-1.651,4.417         c-0.742,5.46-2.015,21.776-2.015,21.776c-2.206,14.274-29.141,15.812-27.506,2.402l0.982-11.411         c-4.51-0.876-7.909-3.931-10.062-8.602c-1.186-2.569-1.811-7.427-1.142-11.287c0.371-2.152,1.442-4.959,2.53-8.022         c1.851-5.168,3.519-10.156,5.703-15.069c1.286-2.912,2.353-5.519,3.561-6.865c2.588-2.878,7.353-4.97,13.174-4.572         c8.407,0.573,16.755,7.269,17.951,15.541C377.239,31.29,376.466,33.665,375.386,36.378"/>
							<g>
								<g>
									<g>
										<path style="fill-rule:evenodd;clip-rule:evenodd;fill:#FFFFFF;" d="M361.119,38.542            c-5.929,3.126-8.755-1.875-8.755-1.875s1.686-1.327,4.788-0.809C359.453,36.238,361.119,38.542,361.119,38.542"/>
										<path style="fill-rule:evenodd;clip-rule:evenodd;fill:#7C75D1;" d="M352.364,36.667c0,0,1.362,2.438,4.25,2.85            c0.151-0.18,0.478-0.537,0.575-0.77c0.415-1.052-0.029-2.254-0.986-2.998C353.712,35.615,352.364,36.667,352.364,36.667"/>
									</g>
									<path style="fill:#7C75D1;" d="M362.074,36.601c-2.702-3.641-7.518-3.674-9.3-3.134l-0.489-1.58           c2.828-0.858,8.147-0.274,11.106,3.731L362.074,36.601z"/>
								</g>
								<g>
									<g>
										<path style="fill-rule:evenodd;clip-rule:evenodd;fill:#FFFFFF;" d="M346.847,34.014            c-5.363,3.159-8.193-1.353-8.193-1.353s1.497-1.311,4.399-0.973C345.203,31.952,346.847,34.014,346.847,34.014"/>
										<path style="fill-rule:evenodd;clip-rule:evenodd;fill:#7C75D1;" d="M338.654,32.661c0,0,1.364,2.199,4.059,2.451            c0.138-0.176,0.429-0.518,0.496-0.74c0.34-0.99-0.111-2.086-1.044-2.734C339.854,31.614,338.654,32.661,338.654,32.661"/>
									</g>
									<path style="fill:#7C75D1;" d="M347.652,32.438c-2.484-3.352-6.92-3.385-8.564-2.885l-0.476-1.583           c2.628-0.802,7.594-0.261,10.362,3.484L347.652,32.438z"/>
								</g>
								<path style="fill-rule:evenodd;clip-rule:evenodd;fill:#C4765B;" d="M361.557,64.679          c-1.393,3.733-9.484,10.095-17.213,9.299l0.646-7.502C348.833,67.753,357.449,67.328,361.557,64.679"/>
								<g>
									<path style="fill-rule:evenodd;clip-rule:evenodd;fill:#FFFFFF;" d="M356.68,48.469c1.302,4.534-4.47,8.649-10.479,8.067           c-2.171-0.217-5.741-1.777-6.083-4.187c-0.587-4.209,3.366-3.684,6.825-3.986C350.326,48.076,355.587,44.66,356.68,48.469"/>
									<path style="fill-rule:evenodd;clip-rule:evenodd;fill:#C4765B;" d="M347.201,46.625c-8.958-2.618-1.113-8.23,1.424-11.557           c0.147-0.181,0.253-0.59,0.587-0.614C350.948,34.305,348.842,43.492,347.201,46.625"/>
									<path style="fill-rule:evenodd;clip-rule:evenodd;fill:#C4765B;" d="M365.114,45.572c0.056,1.743-1.306,3.2-3.052,3.254           c-1.742,0.05-3.201-1.317-3.255-3.062c-0.056-1.741,1.317-3.198,3.055-3.251C363.612,42.46,365.062,43.829,365.114,45.572"/>
									<path style="fill:#C4765B;" d="M339.705,39.388c0.051,1.739-1.32,3.203-3.062,3.255c-0.593,0.019-1.144-0.142-1.624-0.404           c0.395-1.163,0.846-2.39,1.297-3.674c0.271-0.734,0.524-1.46,0.778-2.188C338.534,36.631,339.658,37.865,339.705,39.388z"/>
								</g>
							</g>
						</g>
						<g>
							<path style="fill-rule:evenodd;clip-rule:evenodd;fill:#7C75D1;" d="M350.851,6.296c-1.844-0.945-3.364-5.335-7.114-6.14         c-3.668-0.79-7.029,1.42-6.927,6.426c-3.819-5.225-13.612-4.706-12.572,4.03c0.671,5.741,9.24,12.762,17.711,15.574         c9.771,3.238,18.828,2.403,24.904,0.543c-0.509,4.327,1.313,8.803,3.006,12.805c1.342,3.153-2.448,12.021,0.52,13.134         c2.626,0.984,3.668-8.628,6.369-13.495c1.884-3.377,4.528-1.26,6.503-8.759c0.664-2.504,1.548-6.961,0.826-8.942         c-1.3-3.582-7.202-3.604-10.955-6.152c-3.672-2.492-8.413-17.808-18.175-13.766C353.259,2.256,351.724,5.004,350.851,6.296z"/>
							<g>
								<path style="fill-rule:evenodd;clip-rule:evenodd;fill:#FFFFFF;" d="M377.544,29.852c0.513,0.041,0.731-0.423,0.951-0.847          c0.171-0.328,0.353-0.767,0.193-1.117c-0.216-0.492-0.893-0.17-1.178,0.193c-0.091,0.119-0.244,0.469-0.326,0.655          C377.037,29.14,376.986,29.805,377.544,29.852z"/>
								<path style="fill-rule:evenodd;clip-rule:evenodd;fill:#FFFFFF;" d="M380.834,27.434c0.662,0.022,0.915-0.566,1.078-1.079          c0.206-0.672,0.362-1.625,0.464-2.424c0.129-0.983-0.111-2.593-1.202-2.411c-1.144,0.189-1.209,2.463-1.273,3.626          C379.847,25.996,379.878,27.402,380.834,27.434z"/>
							</g>
							<g>
								<path style="fill-rule:evenodd;clip-rule:evenodd;fill:#FFFFFF;" d="M337.823,16.378c-0.689,0.277-1.189-0.274-1.684-0.764          c-0.378-0.379-0.826-0.91-0.755-1.464c0.091-0.774,1.166-0.619,1.715-0.239c0.178,0.128,0.551,0.538,0.733,0.767          C338.221,15.17,338.57,16.075,337.823,16.378z"/>
								<path style="fill-rule:evenodd;clip-rule:evenodd;fill:#FFFFFF;" d="M332.22,14.448c-0.915,0.318-1.515-0.387-1.959-1.035          c-0.582-0.838-1.204-2.091-1.702-3.154c-0.595-1.305-0.96-3.637,0.631-3.86c1.671-0.237,2.739,2.892,3.337,4.474          C332.96,12.032,333.526,13.993,332.22,14.448z"/>
							</g>
						</g>
					</g>
					<path style="fill-rule:evenodd;clip-rule:evenodd;fill:#7C75D1;" d="M371.743,72.56c1.991,0.445,6.149,3.069,6.22,3.918       c0.5,5.943-0.655,12.331-1.166,18.543c-0.584,7.036,0.396,14.977-3.09,19.936c-2.853,4.06-8.238,3.998-10.668,4.772       c0.733,5.832,1.462,10.072-0.562,14.321c-1.469,3.092-6.458,9.7-7.791,10.503c-0.662-14.466,0.382-28.641,3.021-41.388       C360.464,89.832,363.343,80.255,371.743,72.56z"/>
					<path style="fill-rule:evenodd;clip-rule:evenodd;fill:#7C75D1;" d="M340.762,101.281c-1.873,14.033-4.65,26.333-5.214,41.799       c-1.848-1.221-6.267-8.224-6.651-10.325c-0.982-5.341,2.955-11.689,3.719-14.91c-0.906-1.124-3.781-1.352-4.772-2.807       c-2.608-3.839,0.771-14.677,1.686-18.533c0.684-2.878,1.251-5.487,2.244-8.701c0.895-2.891,1.646-6.323,2.815-7.862       c1.578-2.099,6.685-4.116,9.711-5.461C344.648,74.328,341.884,92.849,340.762,101.281z"/>
				</g>
			</g>
			<g>
				<g>
					<g>
						<g>
							<path style="fill-rule:evenodd;clip-rule:evenodd;fill:#7C75D1;" d="M376.113,279.968c-1.686-0.041-4.299,0.02-6.836,0.147         c-5.225,0.267-11.01-0.129-12.477,3.892c-0.731,1.992-0.786,4.945-0.835,7.859c-0.051,2.818,0.242,5.787,0.382,8.535         c0.642,12.038,2.075,21.182,2.339,33.525c0.06,2.719,0.293,5.588,0.58,8.329c0.404,3.825,0.504,7.748,3.215,8.98         c1.224,0.554,3.434,0.252,5.534,0.281c2.017,0.024,4.106-0.23,5.825-0.326c4.186-0.239,8.085-0.458,11.644-0.656         c8.533-0.471,15.838-0.447,23.909-0.621c7.625-0.163,15.707,0.086,23.818-0.314c6.907-0.344,16.382,0.434,21.661-2.38         c4.199-2.242,4.428-7.616,4.519-14.068c0.176-12.629-1.244-24.221-1.786-36.15c-0.133-2.856-0.2-6.157-0.4-9.139         c-0.236-3.446-0.698-6.904-2.186-8.094c-1.508-1.203-5.478-1.186-8.873-1.115c-3.541,0.078-6.942,0.279-9.939,0.415         c-19.686,0.898-40.176,0.472-59.895,0.898C376.244,279.964,376.177,279.97,376.113,279.968z"/>
							<path style="fill:#A59AE8;" d="M446.709,299.656c-11.481,16.116-38.723,24.225-62.141,13.845         c-5.796-2.573-12.184-7.591-16.362-11.976c-4.788-5.016-8.484-11.394-10.868-18.535c2.035-2.922,7.211-2.631,11.939-2.876         c2.537-0.127,5.15-0.188,6.836-0.147c0.064,0.002,0.131-0.004,0.198-0.004c19.719-0.426,40.209,0,59.895-0.898         c2.997-0.137,6.398-0.338,9.939-0.415c3.257-0.069,7.047-0.083,8.669,0.978c-1.455,7.031-3.928,13.67-7.309,18.876         C447.254,298.891,446.98,299.275,446.709,299.656z"/>
							<path style="fill:#A59AE8;" d="M382.549,285.049l-0.233-10.549c-0.116-5.493,4.257-10.061,9.746-10.181l31.167-0.674         c5.485-0.119,10.053,4.253,10.173,9.745l0.227,10.546c0.124,5.496-4.248,10.063-9.742,10.183l-31.161,0.676         C387.23,294.916,382.669,290.542,382.549,285.049z M392.253,272.97c-0.729,0.016-1.304,0.616-1.284,1.342l0.227,10.548         c0.013,0.726,0.62,1.302,1.346,1.287l31.156-0.679c0.729-0.013,1.302-0.615,1.286-1.342l-0.229-10.549         c-0.018-0.723-0.615-1.3-1.346-1.284L392.253,272.97z"/>
							<path style="fill:#F9D87A;" d="M399.447,311.744c0.42-1.134,1.64-1.176,2.533-1.204l0.329-0.013         c0.451-0.026,0.917-0.034,1.204-0.03c1.297-0.025,2.615-0.032,3.937-0.037c2.031-0.009,4.077-0.02,6.069-0.111l0.418-0.02         c0.4-0.019,0.826-0.041,1.273-0.048c0.842-0.021,1.569-0.005,2.046,0.373c0.487,0.393,0.626,1.07,0.691,1.974         c0.018,0.323,0.031,0.672,0.042,1.011l0.022,0.539c0.031,0.688,0.08,1.371,0.129,2.061c0.093,1.293,0.191,2.63,0.173,4.041         c-0.013,1.108-0.036,2.483-1.217,3.11c-0.715,0.382-1.66,0.455-2.575,0.475l-1.058,0.013         c-0.125,0.002-0.244,0.007-0.36,0.014c-0.846,0.041-1.677,0.041-2.506,0.039c-0.513,0.002-1.015,0.002-1.508,0.012         l-2.224,0.038c-0.571,0.012-1.139,0.031-1.748,0.067l-2.222,0.128c-0.191,0.018-0.389,0.031-0.598,0.036h-0.296l-0.264,0.01         c-0.271,0.005-0.584,0-0.882-0.133c-0.86-0.389-0.953-1.331-1.017-2.014l-0.027-0.189c-0.056-0.581-0.089-1.048-0.098-1.465         c-0.027-1.172-0.111-2.152-0.207-3.197c-0.069-0.762-0.136-1.532-0.182-2.392l-0.029-0.393         c-0.022-0.366-0.044-0.736-0.035-1.121C399.269,312.77,399.278,312.206,399.447,311.744z"/>
							<g>
								<path style="fill-rule:evenodd;clip-rule:evenodd;fill:#FFFFFF;" d="M363.41,295.014c-2.866-1.397-2.493,6.433-0.116,6.455          c2.799,0.024,1.535-4.976,0.38-6.296C363.603,295.084,363.51,295.065,363.41,295.014z"/>
								<path style="fill-rule:evenodd;clip-rule:evenodd;fill:#FFFFFF;" d="M368.206,301.526c-2.462-0.804-2.517,5.807,0.115,5.322          C370.319,306.473,369.906,302.082,368.206,301.526z"/>
							</g>
							<g>
								<path style="fill-rule:evenodd;clip-rule:evenodd;fill:#FFFFFF;" d="M449.635,324.185c-1.324,1.168-1.944,8.321,0.507,8.38          c1.997,0.048,2.395-6.279,1.117-7.931C450.931,324.212,450.595,324.051,449.635,324.185z"/>
								<path style="fill-rule:evenodd;clip-rule:evenodd;fill:#FFFFFF;" d="M454.983,332.459c-2.248-0.782-2.406,2.808-1.062,3.25          C455.734,336.308,456.96,333.149,454.983,332.459z"/>
								<path style="fill-rule:evenodd;clip-rule:evenodd;fill:#FFFFFF;" d="M449.566,335.641c-2.235-0.308-2.442,5.158-0.378,5.173          c0.873,0.009,1.115-0.578,1.42-1.643C451.062,337.59,451.122,335.86,449.566,335.641z"/>
							</g>
						</g>
						<g>
							<path style="fill-rule:evenodd;clip-rule:evenodd;fill:#DB9171;" d="M392.766,269.022c1.951,1.779,5.592-2.123,7.849-4.885         c0.06,6.923,2.144,16.407,4.99,22.408c0.884,1.853,2.128,5.14,3.941,4.941c2.373-0.263,1.626-4.352,1.218-6.446         c-0.56-2.872-1.311-4.514-1.471-7.045c0.447,0.161,2.63,1.044,3.779,0.081c0.942-0.794,0.955-1.572,0.869-2.949         c1.751,0.263,2.395,0.205,3.521-1.001c1.349-1.435,0.369-4.306,0.369-4.306c1.027-0.449,2.511-1.464,3.359-2.717         c2.71-3.957-1.944-13.571-0.909-22.241c-0.933,7.865-13.516,5.276-21.159,4.062c-0.555,3.793-1.206,6.385-2.63,9.656         c-1.335,3.062-3.637,5.508-4.483,7.991C391.802,267.171,392.053,268.367,392.766,269.022"/>
							<path style="fill-rule:evenodd;clip-rule:evenodd;fill:#C4765B;" d="M393.386,269.383c2.488,0.903,7.594-3.067,7.905-8.159         c-0.684,1.707-3.315,4.628-5.367,5.52c-1.3,0.561-3.608,0.359-3.255-1.646C391.153,267.064,391.966,268.871,393.386,269.383"/>
							<path style="fill-rule:evenodd;clip-rule:evenodd;fill:#C4765B;" d="M407.582,275.638c1.617,4.366,7.396,4.45,6.358-0.507         c0.778,0.398,2.148,0.174,2.699-0.219c1.802-1.265,1.84-3.356,1.191-5.093c2.557-0.904,4.552-3.23,5.005-6.904         c0.304-2.609-2.482-8.18-2.517-11.191c0,0-0.336,2.651-0.313,4.11c0.067,4.709,1.228,10.236-3.184,10.452         c0.076,1.915-0.164,3.341-1.171,4.294c-0.658,0.62-2.235,1.42-3.586,1.201C411.477,273.647,410.048,276.62,407.582,275.638"/>
						</g>
					</g>
					<g>
						<g>
							<path style="fill-rule:evenodd;clip-rule:evenodd;fill:#7C75D1;" d="M421.421,249.564         c-7.907,0.829-16.276,1.191-24.416,1.782c0.213-14.861-0.282-29.097,0-43.484c0.275-13.87,1.655-27.501-0.251-41.447         c-1.729-12.612-5.505-23.884-8.647-34.837c-1.522-5.312-3.432-10.831-5.087-16.529c-2.248-7.737-5.467-19.269-1.271-26.7         c2.661-4.706,9.873-7.806,16.273-4.83c5.348,2.483,8.838,8.066,12.208,13.729c6.672,11.213,10.402,23.812,14.241,37.633         c1.866,6.723,3.679,13.75,4.828,20.851c2.63,16.165-1.009,32.359-2.286,47.806         C425.657,219.87,424.489,235.603,421.421,249.564z"/>
							<path style="fill-rule:evenodd;clip-rule:evenodd;fill:#7C75D1;" d="M410.155,165.463c0.582,4.15-11.681,5.343-10.77,1.102         c1.244-1.59,3.701-0.975,5.603-1.231C406.869,165.08,409.873,163.455,410.155,165.463z"/>
						</g>
					</g>
				</g>
				<g>
					<path style="fill-rule:evenodd;clip-rule:evenodd;fill:#FFFFFF;" d="M403.943,103.602c0.631-1.494-1.706-7.668-3.759-6.742       c-1.671,0.757,0.522,6.159,2.235,7.016C402.859,104.1,403.199,104.097,403.943,103.602z"/>
					<path style="fill-rule:evenodd;clip-rule:evenodd;fill:#FFFFFF;" d="M396.221,98.874c2.164-0.243,0.869-3.285-0.422-3.115       C394.061,95.987,394.306,99.091,396.221,98.874z"/>
					<path style="fill-rule:evenodd;clip-rule:evenodd;fill:#FFFFFF;" d="M399.438,94.079c1.973-0.632-0.031-5.242-1.751-4.432       c-0.722,0.338-0.695,0.918-0.516,1.926C397.425,93.06,398.062,94.519,399.438,94.079z"/>
				</g>
			</g>
		</g>
	</g>
</g>















</svg>
