<?xml version="1.0" encoding="UTF-8"?>
<!-- Generator: Adobe Illustrator 25.2.1, SVG Export Plug-In . SVG Version: 6.00 Build 0)  -->
<svg xmlns="http://www.w3.org/2000/svg" xmlns:xlink="http://www.w3.org/1999/xlink" version="1.1" id="Capa_1" x="0px" y="0px" viewBox="0 0 512 512" style="enable-background:new 0 0 512 512;" xml:space="preserve" width="512" height="512">
<g>
	<g>
		<g>
			<g>
				<path style="fill:#F9D87A;" d="M492.918,182.11c10.541,0,19.081-8.916,19.081-19.923V75.805c0-11.009-8.54-19.921-19.081-19.921      h-9.025h-0.341H359.201c-10.536,0-19.077,8.914-19.077,19.921v86.382c0,11.006,8.541,19.916,19.077,19.916h124.352v0.007      H492.918z"/>
				<path style="fill:#FFFFFF;" d="M499.5,82.822l-2.881-13.929c-0.028-0.136-0.083-0.26-0.133-0.387      c-0.009-0.03-0.005-0.06-0.018-0.09c-0.005-0.012-0.014-0.018-0.019-0.03c-0.115-0.249-0.272-0.466-0.461-0.661      c-0.042-0.044-0.088-0.085-0.134-0.127c-0.194-0.173-0.41-0.327-0.659-0.431c-0.005-0.002-0.014-0.002-0.023-0.007      c-0.009-0.002-0.014-0.009-0.023-0.014c-0.023-0.009-0.051-0.005-0.074-0.014c-0.258-0.088-0.521-0.127-0.788-0.127      c-0.032,0-0.064-0.004-0.101-0.002c-0.424,0.014-0.844,0.131-1.212,0.366l-12.504,8.14c-1.097,0.721-1.41,2.203-0.696,3.302      c0.692,1.069,2.236,1.394,3.305,0.703l5.959-3.878c-15.076,33.275-40.919,57.329-76.929,71.555      c-30.641,12.103-57.968,12.451-60.982,12.451c-0.387,0-0.618-0.005-0.738-0.009c-1.295,0-2.378,1.047-2.406,2.335      c-0.028,1.316,1.018,2.41,2.392,2.44l0.415,0.003c3.074,0,30.95-0.35,62.171-12.465c37.771-14.654,64.831-39.721,80.534-74.567      l1.327,6.409c0.226,1.104,1.208,1.906,2.337,1.906c0.166,0,0.323-0.016,0.484-0.048C498.933,85.375,499.763,84.11,499.5,82.822z      "/>
			</g>
			<g>
				<path style="fill:#A59AE8;" d="M449.248,187.327c0,2.784,2.258,5.045,5.047,5.045h39.536c2.784,0,5.042-2.261,5.042-5.045      V141.97c0-2.788-2.258-5.047-5.042-5.047h-39.536c-2.789,0-5.047,2.258-5.047,5.047V187.327z"/>
				<g>
					<g>
						<path style="fill:#FFFFFF;" d="M462.637,182.432c8.015-11.693,16.04-23.372,24.068-35.058        c1.691-2.473-1.963-5.457-3.678-2.973c-8.029,11.693-16.048,23.379-24.082,35.065        C457.249,181.939,460.909,184.93,462.637,182.432"/>
					</g>
					<path style="fill:#FFFFFF;" d="M461.029,157.917c-3.406-1.286-5.052-4.996-3.669-8.273c1.392-3.273,5.286-4.888,8.693-3.604       c3.411,1.288,5.056,4.998,3.669,8.273C468.338,157.587,464.439,159.205,461.029,157.917z M464.61,149.452       c-1.447-0.546-3.107,0.143-3.701,1.533c-0.585,1.394,0.12,2.975,1.567,3.519c1.452,0.551,3.102-0.138,3.696-1.533       C466.758,151.577,466.066,149.999,464.61,149.452z"/>
					<path style="fill:#FFFFFF;" d="M480.751,182.271c-3.899-1.473-5.775-5.715-4.194-9.46c1.585-3.745,6.047-5.593,9.941-4.125       c3.899,1.471,5.78,5.715,4.194,9.462C489.111,181.891,484.655,183.741,480.751,182.271z M485.051,172.099       c-1.936-0.731-4.153,0.187-4.941,2.051c-0.793,1.864,0.143,3.975,2.088,4.706c1.936,0.735,4.157-0.187,4.946-2.051       C487.936,174.94,486.991,172.829,485.051,172.099z"/>
				</g>
			</g>
		</g>
		<g>
			<path style="fill:#A59AE8;" d="M326.072,81.004c0,2.784,2.259,5.044,5.047,5.044h89.162c2.784,0,5.042-2.261,5.042-5.044V35.646     c0-2.788-2.258-5.047-5.042-5.047h-89.162c-2.788,0-5.047,2.259-5.047,5.047V81.004z"/>
			<g>
				<g>
					<path style="fill:#F9D87A;" d="M380.583,58.06c0,10.571,8.568,19.142,19.142,19.142c10.568,0,19.141-8.571,19.141-19.142       c0-10.575-8.573-19.144-19.141-19.144C389.151,38.916,380.583,47.484,380.583,58.06z"/>
					<path style="fill:#FFFFFF;" d="M420.538,62.079c-1.88,9.785-10.486,17.18-20.814,17.18c-1.802,0-3.558-0.23-5.236-0.654       l5.231-22.195L420.538,62.079z"/>
					<g>
						<path style="fill:#FFFFFF;" d="M334.188,52.944h42.366c0.668,0,1.217-0.544,1.217-1.221c0-0.673-0.548-1.219-1.217-1.219        h-42.366c-0.673,0-1.221,0.546-1.221,1.219C332.967,52.4,333.515,52.944,334.188,52.944z"/>
						<path style="fill:#FFFFFF;" d="M334.188,63.492h42.366c0.668,0,1.217-0.544,1.217-1.217c0-0.675-0.548-1.221-1.217-1.221        h-42.366c-0.673,0-1.221,0.546-1.221,1.221C332.967,62.948,333.515,63.492,334.188,63.492z"/>
						<path style="fill:#FFFFFF;" d="M334.188,42.394h42.366c0.668,0,1.217-0.549,1.217-1.221c0-0.675-0.548-1.221-1.217-1.221        h-42.366c-0.673,0-1.221,0.546-1.221,1.221C332.967,41.845,333.515,42.394,334.188,42.394z"/>
						<path style="fill:#FFFFFF;" d="M334.188,74.042h42.366c0.668,0,1.217-0.544,1.217-1.219c0-0.673-0.548-1.219-1.217-1.219        h-42.366c-0.673,0-1.221,0.546-1.221,1.219C332.967,73.498,333.515,74.042,334.188,74.042z"/>
					</g>
				</g>
			</g>
		</g>
	</g>
	<g>
		<g>
			<g>
				<g>
					<path style="fill-rule:evenodd;clip-rule:evenodd;fill:#DB9171;" d="M319.55,422.12c0,0,2.332,7.296,3.102,9.589       c4.706,14.018,5.96,22.333,21.575,30.938c1.945,1.072,4.89,1.733,6.273,3.551c-2.429,3.263-6.687,4.844-11.255,5.314       c-15.394,1.59-28.917-5.863-37.199-12.191c-0.622-12.094-2.752-22.679-4.379-33.764       C303.948,423.397,311.705,422.71,319.55,422.12z"/>
					<path style="fill-rule:evenodd;clip-rule:evenodd;fill:#7C75D1;" d="M301.953,457.755c8.457,2.722,22.796,8.483,34.475,9.382       c2.678,0.207,5.909,0.111,7.817-0.627c1.618-0.625,2.613-1.611,3.12-2.461c3.189,0.776,17.731,5.976,16.579,9.027       c-0.53,1.406-4.429,2.095-6.881,2.5c-4.572,0.76-10.315,1.159-15.629,1.251c-12.472,0.219-23.967-3.21-31.263-8.439l1.562,9.69       c0.051,0.32-6.25,0.311-6.25,0.311C304.354,471.49,302.137,466.312,301.953,457.755z"/>
				</g>
				<g>
					<path style="fill-rule:evenodd;clip-rule:evenodd;fill:#DB9171;" d="M216.381,417.209c0,0-0.484,7.646-0.604,10.066       c-0.719,14.765-2.572,22.967,8.836,36.665c1.419,1.708,3.922,3.395,4.554,5.595c-3.452,2.15-7.997,2.072-12.421,0.85       c-14.92-4.125-24.801-15.987-30.212-24.898c3.826-11.49,5.697-22.123,8.213-33.04       C201.384,412.718,208.859,414.905,216.381,417.209z"/>
					<path style="fill-rule:evenodd;clip-rule:evenodd;fill:#7C75D1;" d="M187.022,443.997c6.886,5.614,18.141,16.199,28.696,21.285       c2.42,1.168,5.466,2.256,7.508,2.267c1.733,0.005,3.019-0.553,3.803-1.159c2.682,1.883,14.339,12.016,12.149,14.44       c-1,1.116-4.881,0.341-7.315-0.175c-4.535-0.956-10.029-2.676-15.012-4.524c-11.698-4.335-21.151-11.716-26.046-19.24       l-2.074,9.594c-0.069,0.318-5.932-1.984-5.932-1.984C184.256,457.665,184.077,452.03,187.022,443.997z"/>
				</g>
				<g>
					<path style="fill-rule:evenodd;clip-rule:evenodd;fill:#69AF7A;" d="M240.168,190.201c20.285,0.219,40.905,0.111,60.535,0.991       c6.946,15.8,11.928,32.968,16.542,51.276c2.369,9.421,3.388,19.305,4.627,29.442c2.411,19.621,5.314,39.691,7.278,60.535       c2.964,31.395,2.277,64.46,4.305,96.928c-15.228,1.867-30.632,3.556-46.316,4.961c-5.333-24.559-7.937-53.038-7.937-82.038       c0-15.314-0.696-28.945-2.977-42.014c-2.259-12.935-5.347-25.264-6.287-38.372c-1.152,0.825-0.973,3.362-1.323,5.294       c-4.802,26.43-12.209,52.785-18.528,78.068c-6.817,27.304-14.486,53.866-24.147,78.734c-15.965-0.574-30.549-2.535-45.652-3.97       c2.088-22.147,6.015-42.952,10.919-63.515c4.794-20.1,11.204-39.619,13.564-60.869       C209.832,260.067,217.059,218.503,240.168,190.201z"/>
					<g>
						<g>
							<path style="fill:#2C8952;" d="M214.45,305.65c5.052-45.54,12.269-87.065,35.324-115.367         c-3.203-0.023-6.411-0.051-9.605-0.083c-23.11,28.302-30.337,69.866-35.397,115.449c-2.36,21.25-8.771,40.769-13.564,60.869         c-4.904,20.563-8.831,41.368-10.919,63.515c3.305,0.313,6.577,0.654,9.854,0.998c2.12-21.653,5.964-44.466,10.744-64.513         C205.675,346.419,212.086,326.9,214.45,305.65z"/>
							<path style="fill:#2C8952;" d="M285.899,310.282c-2.258-12.935-13.694-36.068-14.638-49.176         c-0.277,0.203-0.724,4.323-1.327,10.806l0.005-0.002c0.94,13.108,4.028,25.437,6.287,38.372         c2.281,13.069,2.977,26.7,2.977,42.014c0,29,2.604,57.479,7.937,82.038c3.18-0.283,6.337-0.587,9.49-0.896         c-5.204-24.356-7.753-52.492-7.753-81.142C288.877,336.982,288.185,323.351,285.899,310.282z"/>
						</g>
						<g>
							<path style="fill-rule:evenodd;clip-rule:evenodd;fill:#2C8952;" d="M277.216,208.063c2.3,1.754,0.82,5.485,0.659,8.932         c-0.415,9.184-0.881,18.432-1.318,27.788c-0.258,5.411-0.069,10.391-2.319,12.239c-1.991,1.641-5.319,1.429-7.609,1.655         c-0.535-2.45,1.691-3.586,2.646-5.625c2.719-5.775,2.752-13.982,3.641-21.831c0.88-7.766,1.95-15.468,2.977-22.165         c0.189-0.477,0.516-0.807,0.991-0.993C276.994,208.063,277.105,208.063,277.216,208.063z"/>
							<path style="fill-rule:evenodd;clip-rule:evenodd;fill:#2C8952;" d="M309.968,224.273c-1.968,1.311-5.434-0.122-8.273-0.993         c-5.222-1.602-9.992-4.485-7.277-10.917c0.212,0.039,0.456-0.051,0.663,0c2.42,0.608,5.158,4.273,7.605,5.953         c1.295,0.892,2.687,1.924,3.978,2.65C308.004,221.727,310.613,221.883,309.968,224.273z"/>
							<path style="fill-rule:evenodd;clip-rule:evenodd;fill:#2C8952;" d="M259.02,213.357c2.553,9.121-5.029,12.442-11.91,15.546         c-3.959,1.791-9.9,4.003-12.901,1.323c-0.171-3.021,3.365-3.369,5.296-4.3c3.766-1.816,8.582-4.464,11.91-7.278         C253.558,216.834,254.853,213.082,259.02,213.357z"/>
						</g>
						<g>
							<path style="fill-rule:evenodd;clip-rule:evenodd;fill:#FFFFFF;" d="M249.078,328.144c-0.922,1.24-1.152,3.83-1.231,6.388         c-0.033,1.095-0.06,2.865,0.917,3.005c1.171,0.17,1.516-1.837,1.641-2.558c0.387-2.277,0.387-5.102-0.051-6.607         C250.115,328.098,249.474,328.011,249.078,328.144z"/>
							<path style="fill-rule:evenodd;clip-rule:evenodd;fill:#FFFFFF;" d="M245.377,334.307c-2.351-0.816-3.24,4.547-1.18,4.658         c0.89,0.048,2.29-2.385,2.069-3.71C246.183,334.779,245.787,334.447,245.377,334.307z"/>
						</g>
						<g>
							<path style="fill-rule:evenodd;clip-rule:evenodd;fill:#FFFFFF;" d="M323.864,339.888c-0.715-1.367-0.535-3.962-0.207-6.499         c0.138-1.088,0.392-2.842,1.378-2.823c1.184,0.016,1.212,2.053,1.217,2.782c0.023,2.309-0.419,5.102-1.088,6.522         C324.882,340.103,324.233,340.086,323.864,339.888z"/>
							<path style="fill-rule:evenodd;clip-rule:evenodd;fill:#FFFFFF;" d="M320.26,328.698c-2.448,0.435-2.484-5.001-0.433-4.786         c0.89,0.094,1.89,2.717,1.461,3.991C321.131,328.356,320.684,328.621,320.26,328.698z"/>
							<path style="fill-rule:evenodd;clip-rule:evenodd;fill:#FFFFFF;" d="M322.726,322.593c-0.848,0.246-1.645-0.751-2.028-1.971         c-0.304-0.982-0.443-3,0.737-2.98c0.525,0.009,1.272,0.726,1.613,1.733C323.454,320.553,323.818,322.279,322.726,322.593z"/>
						</g>
					</g>
				</g>
			</g>
			<g>
				<path style="fill-rule:evenodd;clip-rule:evenodd;fill:#F9D87A;" d="M284.839,38.241c4.356-1.337,6.854-1.238,9.923-0.33      c6.835,2.023,8.287,8.338,11.578,15.88c1.705,3.902,5.112,8.589,5.955,12.569c0.562,2.685-0.147,9.854,0.659,12.901      c0.876,3.289,3.895,5.877,6.287,8.271c3.212,3.212,7.231,7.579,7.937,13.894c0.77,6.822-1.876,13.267-1.318,20.513      c0.829,10.843,9.776,20.572,5.95,32.085c-1.309,3.943-5.231,7.481-9.26,8.932c-4.563,1.643-10.919,0.613-16.874,1.984      c-6.392,1.473-10.836,5.635-16.21,5.955c-9.444,0.562-13.187-5.427-22.492-6.944c-10.864-1.779-21.34,3.581-31.097,0.659      c-10.831-3.245-17.929-16.081-15.219-29.772c2.028-10.237,9.942-16.62,10.255-27.79c0.23-8.135-3.231-15.011-0.991-23.817      c2.341-9.195,8.559-13.633,15.546-17.862c3.286-1.989,6.95-3.878,9.264-7.278c3.318-4.874,3.337-10.55,6.287-14.887      C264.647,37.87,276.289,32.758,284.839,38.241z"/>
				<g>
					<g>
						<path style="fill-rule:evenodd;clip-rule:evenodd;fill:#DB9171;" d="M447.086,105.42c-3.429,0.475-7.075,1.175-10.241,1.268        c0.816-1.874,3.111-7.439-0.424-7.836c-1.53-0.17-2.655,1.804-3.604,2.971c-2.761,3.379-6.337,5.238-11.716,6.096        c0.622,5.19,0.995,10.405,1.235,15.634c3.314,0.228,6.337,1.627,9.426,1.127c2.581,3.019,10.333,5.229,11.956-0.265        c4.065-0.843,8.181-4.134,7.711-7.448c-0.424-2.975-3.553-2.752-5.632-4.712c4.443-1.27,9.725-2.217,10.094-6.213        C456.106,103.657,450.359,104.966,447.086,105.42z"/>
						<path style="fill-rule:evenodd;clip-rule:evenodd;fill:#C4765B;" d="M436.421,98.852c4.438,0.173,0.839,7.969-1,9.99        c0.853,3.049,0.839,7.107-1.779,8.366c1.139-3.056-0.198-5.291,0.189-8.19C434.296,105.524,438.767,103.512,436.421,98.852"/>
						<path style="fill-rule:evenodd;clip-rule:evenodd;fill:#C4765B;" d="M441.68,123.439c-0.378-0.673,0.115-2.072,1.189-2.977        c-2.784,1.367-8.757-0.871-9.14,1.113c-0.194,1.005,1.148,1.641,2.148,2.129c1.83,0.892,5.48,1.136,6.291,1.44        c-3.53,0.44-5.95-0.246-8.969-1.53c0.06,2.074,2.282,2.973,4.346,4.015c-2.378-0.279-4.535-1.438-5.784-2.95        c-0.318-0.896-0.184-1.415,0.341-1.802c0,0-0.793-1.526,0.207-2.627c1.696-1.873,5.517-0.293,8.052-0.475        c0.627-1.235,0.429-3.519-0.18-5.236c-0.539,0.288-1.125,0.622-1.751,0.401c1.327-1.187,2.254-2.178,2.761-3.415        c4.545-0.922,13.325-2.563,14.634-5.989c1.281,4.699-9.039,6.37-14.629,8.082c0.465,1.132,0.581,1.629,0.788,2.793        c1.572,0.413,3.139,0.832,4.655,1.307c-1.447,1.302-5.088,4.443-2.922,6.697C443.123,124.619,442.141,124.25,441.68,123.439         M441.583,119.547c1.005-0.081,2.07-0.145,2.07-0.145c0.24-0.157,0.387-0.641,0.982-1.182        c-0.963-0.065-1.954-0.341-2.535-0.341C442.099,117.878,442.072,119.047,441.583,119.547"/>
					</g>
					<g>
						<path style="fill-rule:evenodd;clip-rule:evenodd;fill:#7C75D1;" d="M295.412,100.55c35.476,9.174,83.474,6.914,126.366,5.955        c0.613,6.001,1.623,11.612,1.987,17.862c-33.784,8.1-75.989,15.018-117.102,9.596        C302.916,122.817,298.689,112.161,295.412,100.55z"/>
						<g>
							<path style="fill-rule:evenodd;clip-rule:evenodd;fill:#FFFFFF;" d="M343.71,130.41c1.392-0.668,3.978-0.41,6.504-0.002         c1.079,0.175,2.825,0.489,2.779,1.473c-0.055,1.182-2.097,1.143-2.821,1.127c-2.309-0.053-5.088-0.585-6.48-1.3         C343.471,131.422,343.498,130.774,343.71,130.41z"/>
							<path style="fill-rule:evenodd;clip-rule:evenodd;fill:#FFFFFF;" d="M353.288,128.799c-0.36-2.457,5.079-2.321,4.793-0.279         c-0.12,0.887-2.775,1.802-4.033,1.335C353.597,129.684,353.348,129.228,353.288,128.799z"/>
							<path style="fill-rule:evenodd;clip-rule:evenodd;fill:#FFFFFF;" d="M363.746,130.5c-0.217-0.855,0.806-1.622,2.042-1.963         c0.986-0.272,3.005-0.343,2.945,0.834c-0.023,0.523-0.765,1.246-1.779,1.553C365.765,131.291,364.022,131.602,363.746,130.5z         "/>
						</g>
					</g>
				</g>
				<g>
					<path style="fill-rule:evenodd;clip-rule:evenodd;fill:#7C75D1;" d="M249.096,101.873c1.493-0.189,0.378,2.309,0,3.639       c-1.895,6.704-4.807,13.996-6.614,21.172c-0.76,3.026-0.853,6.379-1.986,8.932c-1.244,2.814-5.314,6.107-7.937,8.932       c-5.383,5.796-10.495,11.951-15.878,17.865c-3.277,3.593-7.448,7.909-11.91,10.253c-17.519,9.197-47.224,5.57-70.795,6.287       c-0.655-5.505-1.051-12.709-0.327-18.526c18.109-4.204,32.798-9.85,51.603-13.23c2.47-0.445,5.77-0.493,7.937-1.325       c3.54-1.355,8.43-8.426,11.251-11.248c8.121-8.119,13.776-14.502,22.824-21.831       C233.992,107.337,238.938,103.341,249.096,101.873z"/>
					<g>
						<path style="fill-rule:evenodd;clip-rule:evenodd;fill:#FFFFFF;" d="M191.691,149.964c1.346-0.747,3.941-0.64,6.49-0.385        c1.088,0.113,2.848,0.318,2.862,1.304c0.014,1.185-2.023,1.265-2.752,1.295c-2.305,0.083-5.107-0.283-6.545-0.915        C191.506,150.989,191.502,150.344,191.691,149.964z"/>
						<path style="fill-rule:evenodd;clip-rule:evenodd;fill:#FFFFFF;" d="M198.282,147.102c-0.502-2.433,4.932-2.618,4.771-0.56        c-0.069,0.89-2.664,1.964-3.95,1.567C198.646,147.966,198.365,147.528,198.282,147.102z"/>
					</g>
				</g>
				<g>
					<g>
						<path style="fill-rule:evenodd;clip-rule:evenodd;fill:#FFFFFF;" d="M300.104,192.185c-19.418,1.79-41.444-0.171-61.945-0.332        c1.35-13.717,1.189-28.295,0-42.675c-1.526-18.409-3.517-38.01,8.43-45.979c6.794-4.533,18.178-3.775,27.894-4.964        c9.499-1.166,22.04,1.171,26.082,6.183c6.407,7.932,4.913,23.343,8.619,34.176c1.295,3.791,3.448,7.105,2.917,10.919        c-0.802,5.821-7.204,9.76-9.729,15.546C298.878,173.074,298.874,181.672,300.104,192.185z"/>
						<g>
							<path style="fill-rule:evenodd;clip-rule:evenodd;fill:#7C75D1;" d="M263.651,210.711         c-12.085-0.373-22.561-2.36-32.415-4.964c1.424-7.743,3.747-15.899,4.628-25.142c0.843-8.801,0.452-17.971-0.332-27.785         c-1.479-18.591-1.89-39.764,8.932-48.3c3.341-2.63,7.67-4.339,13.896-5.291c3.18-0.489,3.346,0.765,4.632,4.3         c4.83,13.332,5.222,32.139,4.632,49.291C266.887,174.064,265.131,192.623,263.651,210.711z"/>
							<path style="fill-rule:evenodd;clip-rule:evenodd;fill:#A59AE8;" d="M267.703,150.264c-2.968-0.454-7.48-0.963-8.683-3.067         c-1.424-2.503,1.862-12.253,2.977-18.194c-1.42,0.643-3.706,1.309-5.623,0.327c-1.784-2.521-1.89-8.458-1.655-13.889         c0.244-5.459-0.074-12.06,1.655-14.89c0.617-1.005,3.245-2.652,4.632-2.316c1.816,0.445,1.774,2.973,2.645,6.285         C267.242,118.222,268.933,134.093,267.703,150.264z"/>
						</g>
						<g>
							<path style="fill-rule:evenodd;clip-rule:evenodd;fill:#7C75D1;" d="M307.318,207.402c-3.25,0.306-7.172,1.606-9.923,1.323         c-5.171-35.81,4.42-87.65-13.232-110.49c4.323-0.963,12.679,1.625,15.546,4.303c4.144,3.86,6.637,13.924,8.605,21.172         c1.033,3.798,1.254,8.374,2.314,12.571c1.12,4.411,3.489,8.176,3.309,11.576c-0.263,4.973-4.729,8.967-6.618,13.564         C301.801,174.883,302.953,194.462,307.318,207.402z"/>
							<path style="fill-rule:evenodd;clip-rule:evenodd;fill:#A59AE8;" d="M297.062,128.338c1.687,5.814,6.49,14.046,5.296,17.201         c-0.802,2.118-3.378,3.459-6.946,3.309c-1.521-16.975-4.563-32.176-9.928-45.65c-0.691-1.742-1.323-3.821-1.982-5.294         c5.807-0.95,8.504,5.222,11.246,11.246C298.053,116.415,302.086,123.273,297.062,128.338z"/>
						</g>
					</g>
					<g>
						<g>
							<g>
								<path style="fill:#DB9171;" d="M266.085,79.128c0,0-3.733-3.814-5.12-10.615c0.876-7.411,0.014-20.289,5.471-23.836          c8.034-5.224,20.644-3.268,26.548,2.143c5.065,4.646,9.969,15.277,10.827,26.062c0.857,10.914-3.005,20.215-16.201,16.86          c-1.125,3.07-3.47,16.058-3.466,16.058c-1.171,8.22-11.024,14.161-21.856-5.72          C262.324,100.59,266.131,81.889,266.085,79.128z"/>
								<g>
									<path style="fill-rule:evenodd;clip-rule:evenodd;fill:#C4765B;" d="M287.669,89.784c-4.065-0.793-9.02-5.473-9.02-5.473           s-0.318,8.054,7.227,12.516L287.669,89.784z"/>
									<g>
										<g>
											<path style="fill-rule:evenodd;clip-rule:evenodd;fill:#FFFFFF;" d="M282.295,67.425c3.3-4.604,7.319-1.885,7.319-1.885             s-0.774,1.646-3.309,2.418C284.424,68.532,282.295,67.425,282.295,67.425"/>
											<path style="fill-rule:evenodd;clip-rule:evenodd;fill:#7C75D1;" d="M289.614,65.54c0,0-1.945-1.332-4.277-0.548             c-0.051,0.194-0.166,0.59-0.147,0.8c0.083,0.947,0.862,1.685,1.871,1.887C288.992,66.849,289.614,65.54,289.614,65.54"/>
										</g>
										<g>
											<path style="fill-rule:evenodd;clip-rule:evenodd;fill:#FFFFFF;" d="M295.592,64.888             c3.065-4.259,6.794-1.745,6.794-1.745s-0.719,1.521-3.07,2.242C297.569,65.925,295.592,64.888,295.592,64.888"/>
											<path style="fill-rule:evenodd;clip-rule:evenodd;fill:#7C75D1;" d="M302.386,63.144c0,0-1.807-1.231-3.973-0.514             c-0.042,0.185-0.147,0.551-0.129,0.744c0.074,0.876,0.797,1.569,1.733,1.754             C301.805,64.354,302.386,63.144,302.386,63.144"/>
										</g>
										<path style="fill:#C4765B;" d="M287.678,72.154c1.129,1.382,0.926,3.424-0.461,4.556            c-1.387,1.118-3.415,0.917-4.544-0.472c-1.129-1.385-0.927-3.42,0.461-4.547            C284.521,70.566,286.549,70.767,287.678,72.154"/>
										<path style="fill:#C4765B;" d="M300.883,71.43c0.733,0.892,1.839,1.288,2.913,1.157c-0.014-0.141-0.014-0.272-0.023-0.406            c-0.157-2.007-0.576-4.021-0.996-5.971c-0.544,0.078-0.963,0.293-1.424,0.662            C299.961,68.006,299.758,70.043,300.883,71.43z"/>
										<path style="fill-rule:evenodd;clip-rule:evenodd;fill:#F9D87A;" d="M280.461,64.483l0.973,0.791            c2.448-2.987,6.545-2.807,8.038-2.277l0.429-1.178C287.568,60.98,283.102,61.256,280.461,64.483z"/>
										<path style="fill-rule:evenodd;clip-rule:evenodd;fill:#F9D87A;" d="M293.855,62.13l0.977,0.8            c2.249-2.763,6.033-2.597,7.407-2.097l0.424-1.187C300.496,58.871,296.325,59.12,293.855,62.13z"/>
										<g>
											<path style="fill-rule:evenodd;clip-rule:evenodd;fill:#C4765B;" d="M293.905,65.545c0.71-0.288,3.996,6.135,3.959,6.89             c-0.055,0.95-3.125,2.023-3.434,1.705C293.55,73.233,292.836,65.976,293.905,65.545"/>
											<path style="fill:#C4765B;" d="M300.413,78.653c-3.268,2.537-7.43,1.141-9.896-1.215l0.996-1.046             c2.042,1.947,5.42,3.127,8.024,1.122L300.413,78.653z"/>
										</g>
									</g>
								</g>
							</g>
							<g>
								<path style="fill-rule:evenodd;clip-rule:evenodd;fill:#FFFFFF;" d="M295.09,102.048c-1.945-5.614-5.941-10.338-7.909-10.22          c-0.009,0.03-3.9,15.164-9.398,21.529C276.17,115.216,296.915,107.294,295.09,102.048z"/>
								<path style="fill-rule:evenodd;clip-rule:evenodd;fill:#FFFFFF;" d="M257.024,104.051c1.355-5.791,4.83-10.907,6.803-11          c0.009,0.033,8.204,11.679,13.956,20.305C279.142,115.399,255.761,109.457,257.024,104.051z"/>
							</g>
						</g>
						<path style="fill-rule:evenodd;clip-rule:evenodd;fill:#F9D87A;" d="M297.261,45.028c0,0-4.097-2.125-5.955-2.422        c-5.526-0.88-16.132-1.908-16.003-1.864c0.037,0.016-0.083-0.03-0.129-0.044c-19.533,3.729-20.381,19.971-14.97,34.111        c13.864-4.572,20.561-15.435,25.963-25.435c4.088,4.54,8.997,8.347,14.965,9.882C299.45,54.633,298.537,49.837,297.261,45.028        z"/>
						<path style="fill-rule:evenodd;clip-rule:evenodd;fill:#DB9171;" d="M268.98,74.996c0,2.805-1.291,6.75-3.885,6.75        c-2.586,0-5.25-3.565-5.503-6.75c-0.221-2.8,0.383-5.086,4.697-5.086C266.883,69.91,268.98,72.184,268.98,74.996z"/>
					</g>
				</g>
			</g>
		</g>
		<g>
			<g>
				<path style="fill-rule:evenodd;clip-rule:evenodd;fill:#DB9171;" d="M157.137,55.486c0.456-1.411,6.42-1.235,9.329-1.742      c-1.996-0.592-9.817-0.187-9.416-2.782c0.373-2.397,8.319-1.548,10.863-2.286c-1.899-0.509-8.167-0.512-7.582-3.136      c0.346-1.546,6.766-1.609,9.08-1.542c5.595,0.157,12.97,2.044,15.615,4.319c1.77,1.526,2.558,4.72,3.374,6.768      c1.249,3.169,2.475,4.581,4.54,6.48l-5.858,14.64c-3.452-1.772-6.356-4.547-8.458-7.603c-1.097-1.602-2.24-3.298-3.443-3.821      c-1.586-0.694-4.84-0.98-7.435-1.365c-1.968-0.295-7.061,0.016-7.028-1.947c0.037-2.009,4.586-2.106,6.761-2.583      c-1.235-0.26-3.484-0.118-5.701-0.537C159.704,57.961,156.611,57.071,157.137,55.486z"/>
				<path style="fill-rule:evenodd;clip-rule:evenodd;fill:#C4765B;" d="M157.662,50.098c-3.042,2.424,3.54,3.279,6.199,3.588      c4.176,0.482,8.78,0.567,11.375,1.072c-3.208-2.217-11.956-1.332-15.851-2.95C158.602,51.48,157.837,50.969,157.662,50.098"/>
				<path style="fill-rule:evenodd;clip-rule:evenodd;fill:#C4765B;" d="M161.064,44.832c-0.959,0.481-0.811,0.972-0.756,1.376      c0.198,1.544,4.738,2.148,6.821,2.39c4.171,0.479,8.923,0.389,11.513,0.894c-3.208-2.222-11.956-1.334-15.85-2.955      C162.013,46.215,161.239,45.698,161.064,44.832"/>
				<path style="fill-rule:evenodd;clip-rule:evenodd;fill:#C4765B;" d="M160.764,61.173c0.908,1.975,8.951,2.293,13.057,2.984      c2.6,0.436,3.259,1.876,5.024,3.466c1.023,0.922,8.338,8.642,8.232,8.589c-2.724-1.36-5.075-3.254-7.13-5.413      c-1.406-1.484-3.235-5.153-4.968-5.828c-1.046-0.41-2.715-0.35-4.116-0.495c-1.406-0.147-2.807-0.274-4.111-0.495      C164.461,63.591,160.128,62.95,160.764,61.173z"/>
				<path style="fill-rule:evenodd;clip-rule:evenodd;fill:#C4765B;" d="M158.708,54.606c-3.784,0.889-0.728,2.823,0.526,3.288      c4.554,1.696,10.329,0.157,16.85,2.192c-0.765-0.781-1.576-0.966-2.719-1.249c-3.042-0.756-8.421-0.906-11.758-1.473      C160.077,57.106,158.418,56.583,158.708,54.606"/>
			</g>
			<g>
				<g>
					<g>
						<g>
							<path style="fill-rule:evenodd;clip-rule:evenodd;fill:#DB9171;" d="M152.214,433.042l-2.784,27.822l20.358,10.029         c0,0,15.689-8.07,12.984-9.534c-1.102-0.597-5.711-2.643-6.78-6.893c-1.766-7.018,1.069-19.757,1.069-19.757L152.214,433.042         z"/>
						</g>
						<path style="fill:#2C8952;" d="M149.804,457.2c4.231,3.643,9.702,5.883,15.62,5.883c5.586,0,8.107-2.168,12.232-5.457        c0.005,0.007,0.009,0.019,0.014,0.028c0.982,2.185,14.168,3.629,16.689,4.63c0.908,0.359,1.857,0.687,2.779,1.007        c0.714,0.251,1.415,0.505,2.088,0.777c0.009,0.002,0.009,0.002,0.019,0.005c0.272,0.113,0.539,0.226,0.802,0.343        c0.051,0.023,0.101,0.051,0.157,0.072c0.226,0.104,0.452,0.212,0.673,0.325c0.106,0.058,0.207,0.115,0.309,0.17        c0.171,0.097,0.341,0.189,0.502,0.291c0.125,0.078,0.24,0.164,0.355,0.244c0.134,0.092,0.272,0.175,0.397,0.274        c0.65,0.505,1.272,1.152,1.811,1.908c1.622,2.265,2.484,5.519,0.986,8.971c0,0-4.042,0.115-6.061,0.147        c-0.613,0.012-1.231,0.014-1.844,0.023l-0.627,0.014l-0.005-0.007c-11.716,0.178-30.586,0.085-42.61,0.028        c-2.18-0.012-5.01,0.334-5.711-0.657c-0.111-0.154-0.175-0.366-0.217-0.608c-0.152-0.864,0.051-2.205,0.171-3.484        C148.652,468.701,149.237,462.832,149.804,457.2z"/>
					</g>
					<g>
						<g>
							<path style="fill-rule:evenodd;clip-rule:evenodd;fill:#DB9171;" d="M25.775,410.987L8.906,433.283l12.149,19.164         c0,0,17.593,1.288,16.044-1.373c-0.627-1.081-3.498-5.229-2.194-9.412c2.153-6.911,11.205-16.309,11.205-16.309         L25.775,410.987z"/>
						</g>
						<path style="fill:#2C8952;" d="M11.127,430.348c1.714,5.319,5.217,10.078,10.269,13.163c4.766,2.908,8.052,2.369,13.288,1.715        c-0.005,0.007-0.009,0.016-0.009,0.028c-0.3,2.378,10.204,10.479,11.831,12.649c0.59,0.779,1.231,1.551,1.853,2.309        c0.479,0.585,0.945,1.166,1.374,1.749c0.004,0.007,0.009,0.009,0.014,0.014c0.175,0.238,0.341,0.475,0.507,0.712        c0.032,0.044,0.065,0.094,0.097,0.141c0.138,0.21,0.277,0.417,0.401,0.627c0.065,0.104,0.12,0.205,0.18,0.309        c0.092,0.171,0.193,0.339,0.281,0.509c0.065,0.129,0.115,0.263,0.171,0.394c0.064,0.147,0.143,0.293,0.198,0.438        c0.286,0.772,0.484,1.648,0.553,2.574c0.203,2.779-0.756,6.003-3.835,8.17c0,0-3.512-2.007-5.25-3.03        c-0.53-0.309-1.055-0.629-1.585-0.94l-0.544-0.318v-0.005C30.826,465.6,14.769,455.69,4.537,449.376        c-1.858-1.145-4.452-2.323-4.535-3.535c-0.009-0.189,0.041-0.403,0.134-0.634c0.327-0.816,1.194-1.852,1.959-2.883        C4.149,439.563,7.707,434.86,11.127,430.348z"/>
					</g>
					<g>
						<path style="fill-rule:evenodd;clip-rule:evenodd;fill:#A59AE8;" d="M183.215,248.901c2.932,16.104,5.854,31.89,9.26,47.966        c3.406,16.081,7.278,31.715,7.278,49.955c0,17.646-3.263,34.598-6.614,50.612c-3.318,15.848-6.761,31.344-11.251,45.982        c-10.891-0.35-22.091-0.403-32.752-0.993c-1.668-32.182,9.259-58.777,5.628-89.648c-1.595-13.56-5.319-26.829-8.269-40.027        c-2.991-13.36-5.987-26.654-8.273-40.03c-5.328,15.655-9.167,31.554-13.564,46.646c-2.3,7.907-4.568,15.496-7.937,22.165        c-3.295,6.512-7.282,12.207-11.578,18.192c-12.578,17.528-61.59,75.182-63.448,75.424        c-5.715-3.703-24.271-14.689-25.732-16.311c6.194-12.608,19.962-34.718,27.571-46.404        c11.182-17.166,25.092-32.793,31.503-54.721c6.351-21.72,9.319-45.857,14.887-69.138        C120.887,248.367,152.8,247.754,183.215,248.901z"/>
						<g>
							<g>
								<g>
									<path style="fill:#7C75D1;" d="M81.295,322.508c5.941-20.314,5.065-51.008,9.485-73.943c-0.286,0-0.572,0.005-0.857,0.007           c-5.568,23.28-8.536,47.417-14.887,69.138c-6.411,21.927-20.321,37.554-31.503,54.721           c-7.609,11.686-21.377,33.796-27.571,46.404c0.512,0.565,3.083,2.261,6.466,4.388c6.278-12.67,19.833-34.432,27.364-45.993           C60.974,360.057,74.884,344.435,81.295,322.508z"/>
									<path style="fill:#7C75D1;" d="M164.875,350.291c-1.595-13.562-24.368-64.197-26.654-77.572           c2.286,13.376,5.282,26.67,8.273,40.03c2.95,13.198,6.674,26.467,8.269,40.027c3.632,30.871-7.296,57.466-5.628,89.648           c3.268,0.182,6.586,0.304,9.928,0.408C157.552,410.87,168.489,380.973,164.875,350.291z"/>
								</g>
								<g>
									<path style="fill-rule:evenodd;clip-rule:evenodd;fill:#7C75D1;" d="M143.549,230.818c1.802,1.371,0.641,4.289,0.516,6.985           c-0.323,7.186-0.687,14.417-1.032,21.736c-0.198,4.231-0.051,8.126-1.812,9.573c-1.558,1.281-4.162,1.115-5.955,1.293           c-0.41-1.915,1.323-2.805,2.074-4.399c2.12-4.514,2.148-10.935,2.844-17.077c0.691-6.07,1.525-12.096,2.328-17.334           c0.148-0.373,0.406-0.631,0.779-0.777C143.374,230.818,143.467,230.818,143.549,230.818z"/>
									<path style="fill-rule:evenodd;clip-rule:evenodd;fill:#7C75D1;" d="M169.166,243.495c-1.54,1.028-4.249-0.094-6.471-0.777           c-4.084-1.251-7.817-3.51-5.692-8.538c0.166,0.032,0.355-0.039,0.516,0c1.89,0.479,4.038,3.346,5.95,4.658           c1.014,0.698,2.102,1.5,3.107,2.072C167.632,241.504,169.669,241.628,169.166,243.495z"/>
									<path style="fill-rule:evenodd;clip-rule:evenodd;fill:#7C75D1;" d="M129.317,234.959c2,7.135-3.931,9.732-9.315,12.159           c-3.097,1.399-7.743,3.129-10.089,1.035c-0.134-2.362,2.636-2.636,4.139-3.362c2.945-1.424,6.715-3.493,9.315-5.69           C125.049,237.678,126.058,234.745,129.317,234.959z"/>
								</g>
							</g>
							<g>
								<g>
									<path style="fill-rule:evenodd;clip-rule:evenodd;fill:#FFFFFF;" d="M111.853,336.443c-1.36,0.726-2.673,2.966-3.844,5.245           c-0.493,0.977-1.277,2.569-0.456,3.113c0.986,0.654,2.161-1.014,2.581-1.611c1.323-1.895,2.535-4.45,2.784-5.994           C112.812,336.846,112.277,336.491,111.853,336.443z"/>
									<path style="fill-rule:evenodd;clip-rule:evenodd;fill:#FFFFFF;" d="M105.875,340.43c-1.77-1.742-4.876,2.724-3.056,3.706           c0.783,0.424,3.092-1.178,3.457-2.468C106.405,341.202,106.184,340.732,105.875,340.43z"/>
								</g>
								<g>
									<path style="fill-rule:evenodd;clip-rule:evenodd;fill:#FFFFFF;" d="M190.179,359.076           c-0.221-1.528,0.807-3.917,1.959-6.201c0.488-0.982,1.309-2.549,2.235-2.21c1.111,0.408,0.461,2.341,0.226,3.03           c-0.747,2.187-2.088,4.676-3.189,5.791C191.069,359.613,190.46,359.385,190.179,359.076z"/>
									<path style="fill-rule:evenodd;clip-rule:evenodd;fill:#FFFFFF;" d="M190.488,347.32c-2.456-0.399-0.691-5.54,1.175-4.658           c0.811,0.383,0.885,3.187,0.055,4.245C191.423,347.29,190.912,347.389,190.488,347.32z"/>
									<path style="fill-rule:evenodd;clip-rule:evenodd;fill:#FFFFFF;" d="M194.839,342.379           c-0.885-0.051-1.309-1.258-1.263-2.535c0.037-1.028,0.581-2.975,1.682-2.562c0.493,0.182,0.963,1.106,0.95,2.168           C196.198,340.695,195.973,342.446,194.839,342.379z"/>
								</g>
							</g>
						</g>
					</g>
				</g>
				<g>
					<g>
						<g>
							<g>
								<path style="fill-rule:evenodd;clip-rule:evenodd;fill:#69AF7A;" d="M192.806,60.344          c14.376,5.042,30.028,12.002,46.975,19.514c7.633,3.388,15.201,6.566,22.165,10.916c6.586,4.121,13.873,9.359,17.533,15.219          c3.443,5.515,3.784,12.975-0.332,18.194c-3.637,4.611-10.652,8.499-17.201,11.246c-19.409,8.14-47.524,11.35-73.113,11.58          c-3.296-15.387-10.08-27.612-19.515-37.05c-3.019-3.021-6.674-5.379-9.264-8.603c20.321,0.521,40.057,1.627,60.54,1.987          c-14.021-7.264-26.12-16.445-38.707-25.142C185.256,71.979,188.93,66.059,192.806,60.344z"/>
								<path style="fill:#2C8952;" d="M240.178,113.967c0.268-1.488-1.498-2.417-2.613-3.079          c-3.056-1.802-7.199-3.392-10.762-4.973c-2.148-0.954-4.286-1.827-6.346-2.643c0.046,0.025,0.092,0.051,0.138,0.076          c-4.803-0.085-9.555-0.217-14.288-0.366c3.706,2.862,19.215,7.897,24.433,9.54          C233.725,113.465,236.873,114.7,240.178,113.967z"/>
								<g>
									<path style="fill-rule:evenodd;clip-rule:evenodd;fill:#FFFFFF;" d="M278.082,116.82c-1.502,0.337-3.369,2.148-5.098,4.035           c-0.738,0.809-1.918,2.139-1.268,2.878c0.774,0.894,2.351-0.401,2.913-0.866c1.779-1.475,3.623-3.616,4.273-5.04           C278.898,117.461,278.474,116.975,278.082,116.82z"/>
									<path style="fill-rule:evenodd;clip-rule:evenodd;fill:#FFFFFF;" d="M271.256,119.074c-1.244-2.15-5.42,1.332-3.932,2.761           c0.645,0.618,3.296-0.311,3.987-1.461C271.561,119.962,271.478,119.45,271.256,119.074z"/>
								</g>
							</g>
							<g>
								<path style="fill-rule:evenodd;clip-rule:evenodd;fill:#69AF7A;" d="M102.497,60.344c0.217,0,7.494,11.907,11.246,17.53          c-12.044,10.008-24.691,19.418-38.043,28.12c14.232-2.968,31.005-5.162,47.634-4.632c-0.742,2.118-3.01,0.754-4.632,1.323          c-2.825,1-6.771,6.141-8.932,8.932c-7.716,9.981-13.551,23.186-15.874,37.052c-22.059-1.758-43.721-7.812-61.203-16.212          c-5.651-2.715-12.242-6.372-15.546-10.253c-4.153-4.877-3.231-13.21,0.664-18.197c4.144-5.309,11.855-9.582,18.192-13.564          c12.956-8.132,27.691-14.726,42.675-20.84C86.946,66.232,94.721,63.033,102.497,60.344z"/>
								<path style="fill:#2C8952;" d="M58.504,115.615c-1.051,0.763-2.724,1.85-2.319,3.311c3.36,0.419,6.379-1.104,9.264-2.318          c5.748-2.417,24.419-10.472,24.151-12.901c-0.009-0.06-0.028-0.113-0.041-0.168c-4.789,0.708-9.439,1.533-13.827,2.447          c-2.254,1.132-4.609,2.351-6.973,3.676C65.357,111.571,61.38,113.539,58.504,115.615z"/>
								<g>
									<path style="fill-rule:evenodd;clip-rule:evenodd;fill:#FFFFFF;" d="M19.894,112.709c1.466,0.482,3.143,2.468,4.674,4.517           c0.659,0.876,1.696,2.314,0.977,2.989c-0.862,0.811-2.3-0.634-2.812-1.15c-1.622-1.645-3.249-3.957-3.756-5.439           C19.018,113.265,19.488,112.822,19.894,112.709z"/>
									<path style="fill-rule:evenodd;clip-rule:evenodd;fill:#FFFFFF;" d="M27.895,118.205c1.456-2.016,5.268,1.86,3.646,3.134           c-0.705,0.551-3.254-0.634-3.83-1.846C27.503,119.058,27.646,118.558,27.895,118.205z"/>
									<path style="fill-rule:evenodd;clip-rule:evenodd;fill:#FFFFFF;" d="M34.232,126.7c0.438-0.765,1.706-0.608,2.83,0.005           c0.904,0.493,2.401,1.846,1.54,2.652c-0.378,0.355-1.415,0.364-2.36-0.122C35.131,128.668,33.666,127.684,34.232,126.7z"/>
								</g>
							</g>
						</g>
						<g>
							<path style="fill-rule:evenodd;clip-rule:evenodd;fill:#FFFFFF;" d="M182.883,249.897         c-30.383,0.843-62.849,0.926-93.619,0.329c0.811-11.073,3.176-23.462,2.646-36.72c-0.493-12.359-0.581-25.509-0.332-38.043         c0.613-30.966,0.355-60.033,20.842-71.124c5.153-2.791,12.933-4.462,20.178-4.962c21.994-1.516,42.057,2.98,49.953,16.208         c9.753,16.351,6.973,44.311,3.637,65.499C182.781,202.742,179.38,227.391,182.883,249.897z"/>
							<g>
								<path style="fill-rule:evenodd;clip-rule:evenodd;fill:#2C8952;" d="M89.591,273.38c-12.827-1.173-24.161-3.846-36.052-5.95          c4.526-25.58,15.26-50.531,21.828-78.073c6.743-28.263,5.881-59.611,23.156-76.747c6.808-6.75,16.108-10.324,25.806-12.573          c0.281-0.06,0.309,0.129,0.327,0.332c-2.365,16.268-2.641,32.652-3.968,48.3c-1.323,15.629-4.471,30.139-8.269,43.666          C104.686,219.872,97.279,246.401,89.591,273.38z"/>
								<path style="fill-rule:evenodd;clip-rule:evenodd;fill:#69AF7A;" d="M132.331,99.094          c-3.061,25.414-10.555,57.627-16.749,81.001c-4.167,0.396-8.329-1.272-9.734-5.243c-2.046-5.782,6.144-17.793,10.509-26.184          c-1.719,0-5.692-0.159-7.609-1.323c-4.59-2.793,0.018-18.858,0.991-23.158c0.82-3.604,1.691-7.437,2.65-11.248          c0.968-3.841,1.904-8.564,3.305-10.587C118.656,98.08,128.321,98.036,132.331,99.094z"/>
							</g>
							<g>
								<path style="fill-rule:evenodd;clip-rule:evenodd;fill:#2C8952;" d="M202.398,271.066          c-8.734,1.738-18.104,2.841-27.788,3.641c-3.369-44.666,1.033-94.653-6.614-134.973c-2.558-13.488-6.038-27.332-9.826-38.96          c0.051-0.385,19.648,1.217,27.106,19.128c7.845,18.835,7.282,44.804,7.531,68.794          C193.124,219.196,199.853,245.267,202.398,271.066z"/>
								<path style="fill-rule:evenodd;clip-rule:evenodd;fill:#69AF7A;" d="M175.605,151.314          c1.231,2.926,7.503,19.415,6.614,22.494c-1.097,3.814-6.678,5.089-9.923,6.287c-1.452-14.756-3.176-28.293-5.955-41.352          c-2.747-12.903-7.586-25.396-10.37-38.926c7.287-1.256,12.817,3.496,14.832,10.493c2.028,7.047,10.647,28.668,9.481,34.803          C179.813,147.6,175.983,149.655,175.605,151.314z"/>
							</g>
						</g>
					</g>
					<g>
						<g>
							<path style="fill-rule:evenodd;clip-rule:evenodd;fill:#7C75D1;" d="M139.152,49.738c-2.456-0.378-4.922,0.101-6.687,1.433         c-1.503,1.132-3.144,3.028-3.775,5.722c-1.009,4.321-0.06,7.075-0.71,7.914c-0.526,0.682-1.581,0.332-2.54,0.622         c-1.567,0.482-2.968,1.954-3.36,4.176c-0.442,2.491,1.009,4.738,1.148,7.047c0.111,1.964-0.83,3.694-2.364,4.386         c-0.991,0.445-1.438,0.078-1.668,0.781c-0.53,1.599,3.023,2.434,4.337,2.498c0.848,0.044,1.774-0.106,2.577-0.3         c0.94-0.23,1.544-0.876,2.484-0.486c0.876,0.362,0.991,1.756,1.516,3.477c0.419,1.392,1.014,2.917,2.245,3.59         c3.494,1.911,6.536-0.249,8.582-1.977c0.479-0.408,0.894-1.023,1.41-1.337c0.88-0.541,2.733-0.783,4.111-1.134         c3.959-1.009,8.347-2.21,12.366-3.07c4.162-0.892,8.402-1.802,12.592-2.839c1.401-0.343,2.904-0.463,4.061-0.991         c3.033-1.39,6.171-4.922,8.126-9.234c0.562-1.247,1.641-2.812,0.751-4.199c-2.217-0.141-3.563,1.583-5.941,1.081         c1.018-1.125,2.618-2.576,3.484-5.363c0.664-2.129,0.959-5.625-0.203-6.245c-1.116-0.59-2.429,0.871-3.296,1.429         c-1.171,0.758-2.01,1.221-3.24,1.291c1.876-1.161,5.13-6.286,4.236-9.564c-0.452-1.671-2.563,0.092-3.95,0.267         c-5.282,0.661-10.177-3.517-16.316-5.607C150.357,40.108,142.508,41.062,139.152,49.738z"/>
							<g>
								<path style="fill-rule:evenodd;clip-rule:evenodd;fill:#FFFFFF;" d="M127.685,78.718c0.083,1.258,0.465,2.173,1.761,2.051          C130.308,79.556,128.957,77.494,127.685,78.718z"/>
								<path style="fill-rule:evenodd;clip-rule:evenodd;fill:#FFFFFF;" d="M134.281,79.906c-0.272,0.019-0.544,0.039-0.821,0.056          c-0.769,1.279-1.867,4.71,0.097,5.422C135.419,84.649,135.451,81.2,134.281,79.906z"/>
							</g>
						</g>
						<path style="fill:#DB9171;" d="M137.263,82.276c0,0-3.3-4.093-4.024-10.896c1.548-7.186,1.917-19.9,7.605-22.868        c8.37-4.369,20.556-1.267,25.843,4.593c4.531,5.033,8.352,15.924,8.172,26.585c-0.175,10.785-4.84,19.547-17.468,15.016        c-1.203,4.243-3.084,11.262-3.577,12.788c-1.438,4.473-14.542,14.763-21.778-7.677        C132.022,100.327,137.06,84.988,137.263,82.276z"/>
						<path style="fill-rule:evenodd;clip-rule:evenodd;fill:#DB9171;" d="M130.658,76.98c1.383,2.71,6.213,6.236,8.592,5.024        c2.374-1.212,1.396-6.706,0.014-9.421c-1.383-2.71-4.429-3.92-6.808-2.706C130.082,71.09,129.275,74.27,130.658,76.98z"/>
						<path style="fill-rule:evenodd;clip-rule:evenodd;fill:#C4765B;" d="M157.39,94.706c-3.918-1.159-8.158-6.512-8.158-6.512        s-0.636,7.93,6.356,13.013L157.39,94.706z"/>
						<g>
							<path style="fill-rule:evenodd;clip-rule:evenodd;fill:#FFFFFF;" d="M152.721,71.43c3.932-4.505,7.882-1.244,7.882-1.244         s-0.977,1.65-3.72,2.21C154.842,72.806,152.721,71.43,152.721,71.43"/>
							<path style="fill-rule:evenodd;clip-rule:evenodd;fill:#7C75D1;" d="M160.603,70.186c0,0-1.913-1.592-4.443-1.009         c-0.069,0.198-0.221,0.606-0.235,0.827c-0.009,1.007,0.742,1.86,1.779,2.171C159.824,71.498,160.603,70.186,160.603,70.186"/>
						</g>
						<g>
							<path style="fill-rule:evenodd;clip-rule:evenodd;fill:#FFFFFF;" d="M166.954,70.099c3.641-4.164,7.31-1.15,7.31-1.15         s-0.904,1.528-3.443,2.053C168.931,71.389,166.954,70.099,166.954,70.099"/>
							<path style="fill-rule:evenodd;clip-rule:evenodd;fill:#7C75D1;" d="M174.264,68.949c0,0-1.774-1.475-4.116-0.94         c-0.069,0.194-0.212,0.565-0.221,0.77c-0.009,0.933,0.687,1.731,1.65,2.021C173.536,70.163,174.264,68.949,174.264,68.949"/>
						</g>
						<path style="fill:#C4765B;" d="M158.151,76.33c1.046,1.567,0.618,3.685-0.945,4.738c-1.572,1.037-3.687,0.618-4.734-0.952        c-1.046-1.567-0.627-3.69,0.945-4.731C154.98,74.341,157.1,74.756,158.151,76.33"/>
						<path style="fill:#C4765B;" d="M171.849,77.959c0.678,1.012,1.876,1.56,3.014,1.528c0.005-0.143,0.046-4.558-0.433-6.808        c-0.581,0.028-1.115,0.194-1.632,0.54C171.231,74.27,170.807,76.388,171.849,77.959z"/>
						<path style="fill-rule:evenodd;clip-rule:evenodd;fill:#7C75D1;" d="M151.09,68.154l0.95,0.931        c2.862-2.895,7.153-2.3,8.669-1.586l0.562-1.198C158.911,65.186,154.187,65.029,151.09,68.154z"/>
						<path style="fill-rule:evenodd;clip-rule:evenodd;fill:#7C75D1;" d="M165.405,67.024l0.94,0.943        c2.646-2.676,6.6-2.123,7.997-1.461l0.567-1.205C172.711,64.271,168.305,64.116,165.405,67.024z"/>
						<g>
							<path style="fill-rule:evenodd;clip-rule:evenodd;fill:#C4765B;" d="M165.11,70.619c0.775-0.23,3.586,6.856,3.471,7.642         c-0.152,0.991-3.494,1.811-3.784,1.445C163.972,78.667,163.944,70.965,165.11,70.619"/>
							<path style="fill:#C4765B;" d="M161.515,81.78c1.59,14.134,8.273,7.294,8.305,1.984L161.515,81.78z"/>
						</g>
						<g>
							<path style="fill-rule:evenodd;clip-rule:evenodd;fill:#7C75D1;" d="M138.793,49.455c-3.245-0.014-6.195,1.609-8.135,4.144         c-2.867,3.747-2.834,8.937-1.005,12.124c1.853,3.231,5.194,5.568,7.167,8.305c0.912,1.27,2.171,4.54,3.221,4.713         c2.185,0.362,3.116-5.658,3.365-7.57c0.659-5.006-0.134-8.213-1.706-11.873c2.876-2.65,5.411-5.524,9.181-5.768         c6.01-0.392,8.9,6.086,14.422,7.849c4.254,1.357,8.061-1.099,10.523-4.358c1.659-2.203,4.143-6.798,3.309-9.13         c-0.604-1.673-3.088,0.269-4.462,0.392c-5.111,0.445-10.97-3.671-16.311-5.607c-3.226-1.171-7.199-1.56-10.292-0.956         C144.185,42.479,140.908,44.908,138.793,49.455z"/>
							<g>
								<g>
									<path style="fill-rule:evenodd;clip-rule:evenodd;fill:#FFFFFF;" d="M131.732,57.311c2.093-0.965,4.392-1.751,4.595-4.377           C133.437,52.048,130.133,55.055,131.732,57.311z"/>
									<path style="fill-rule:evenodd;clip-rule:evenodd;fill:#FFFFFF;" d="M132.414,59.438c-1.945,0.362-0.751,4.15,0.816,4.019           C134.626,62.577,133.474,60.046,132.414,59.438z"/>
								</g>
								<g>
									<path style="fill-rule:evenodd;clip-rule:evenodd;fill:#FFFFFF;" d="M169.604,56.543c0.258-0.009,0.23,0.318,0.304,0.521           c2.577,0.528,5.406-0.839,5.771-3.097C173.78,52.326,169.78,54.257,169.604,56.543z"/>
									<path style="fill-rule:evenodd;clip-rule:evenodd;fill:#FFFFFF;" d="M163.308,55.871c0.078,1.505,2.821,1.595,3.577,0.583           C166.871,54.866,164.046,54.873,163.308,55.871z"/>
								</g>
							</g>
						</g>
					</g>
				</g>
			</g>
			<g>
				<path style="fill-rule:evenodd;clip-rule:evenodd;fill:#DB9171;" d="M138.272,50.312c-0.71-1.3-6.535-0.03-9.49,0.009      c1.853-0.952,9.614-1.991,8.744-4.471c-0.807-2.286-8.463,0.009-11.103-0.244c1.779-0.853,7.937-2.007,6.881-4.482      c-0.627-1.456-6.95-0.332-9.213,0.157c-5.471,1.187-12.371,4.399-14.555,7.123c-1.456,1.823-1.645,5.109-2.065,7.271      c-0.641,3.348-1.59,4.961-3.273,7.208l8.453,13.309c3.069-2.376,5.411-5.639,6.913-9.029c0.784-1.777,1.599-3.653,2.682-4.39      c1.429-0.975,4.577-1.855,7.057-2.71c1.88-0.65,6.946-1.281,6.549-3.206c-0.41-1.971-4.89-1.226-7.121-1.295      c1.166-0.484,3.402-0.758,5.508-1.576C136.202,53.22,139.079,51.778,138.272,50.312z"/>
				<path style="fill-rule:evenodd;clip-rule:evenodd;fill:#C4765B;" d="M136.765,45.116c3.434,1.823-2.876,3.876-5.434,4.669      c-4.015,1.244-8.527,2.173-10.983,3.146c2.742-2.77,11.504-3.51,15.035-5.819C136.092,46.648,136.751,46.003,136.765,45.116"/>
				<path style="fill-rule:evenodd;clip-rule:evenodd;fill:#C4765B;" d="M132.451,40.566c1.028,0.293,0.973,0.807,0.996,1.212      c0.092,1.553-4.264,2.985-6.264,3.602c-4.015,1.244-8.697,2.028-11.154,2.998c2.747-2.77,11.504-3.51,15.035-5.819      C131.773,42.097,132.437,41.449,132.451,40.566"/>
				<path style="fill-rule:evenodd;clip-rule:evenodd;fill:#C4765B;" d="M135.76,56.571c-0.535,2.111-8.384,3.901-12.292,5.337      c-2.475,0.906-2.858,2.447-4.3,4.333c-0.839,1.097-6.605,10.029-6.513,9.958c2.429-1.837,4.388-4.13,6.015-6.635      c1.111-1.714,2.231-5.662,3.807-6.641c0.959-0.595,2.604-0.844,3.959-1.245c1.35-0.403,2.705-0.786,3.95-1.244      C132.566,59.629,136.705,58.201,135.76,56.571z"/>
				<path style="fill-rule:evenodd;clip-rule:evenodd;fill:#C4765B;" d="M136.567,49.736c3.881,0.182,1.235,2.641,0.083,3.332      c-4.162,2.505-10.121,2.056-16.155,5.254c0.608-0.908,1.373-1.238,2.443-1.724c2.853-1.305,8.107-2.443,11.288-3.614      C135.677,52.448,137.212,51.63,136.567,49.736"/>
			</g>
		</g>
	</g>
</g>















</svg>
