<?xml version="1.0" encoding="UTF-8"?>
<!-- Generator: Adobe Illustrator 25.2.1, SVG Export Plug-In . SVG Version: 6.00 Build 0)  -->
<svg xmlns="http://www.w3.org/2000/svg" xmlns:xlink="http://www.w3.org/1999/xlink" version="1.1" id="Capa_1" x="0px" y="0px" viewBox="0 0 512 512" style="enable-background:new 0 0 512 512;" xml:space="preserve" width="512" height="512">
<g>
	<g>
		<g>
			<path style="fill:#FF4F4F;" d="M444.763,277.881c6.216,2.174,13.451,3.68,20.058,5.647c4.064-10.92,6.482-22.324,9.754-33.666     c2.775-9.617,6.091-19.684,8.234-29.163c0.333-1.486,0.709-3.202,0.792-4.45c0.005-0.036-0.005-0.065-0.005-0.094l-9.534-7.203     l-12.697,2.328C455.198,233.48,450.227,256.089,444.763,277.881z"/>
			<path style="fill-rule:evenodd;clip-rule:evenodd;fill:#FF4F4F;" d="M445.801,280.627c6.163,2.606,12.254,4.064,18.326,5.268     c-0.362,3.651-1.491,7.72-3.692,10.763c-3.036,4.199-6.82,3.468-10.584,2.655c-2.804-0.606-5.497-1.39-6.781-4.566     c-0.816-2.005-0.396-4.723,0.15-6.979C443.803,285.32,444.628,282.97,445.801,280.627z"/>
			<path style="fill-rule:evenodd;clip-rule:evenodd;fill:#E8BD54;" d="M445.637,281.862c-1.665-1.081-1.892-2.447-1.796-5.019     c0.053-1.677,0.213-3.938,1.38-4.981c1.178-1.057,4.088-0.342,5.743-0.014c4.233,0.832,7.317,1.612,11.554,2.777     c1.714,0.47,4.759,0.917,5.797,2.551c0.705,1.112-0.333,3.456-0.796,4.578c-0.598,1.448-1.559,3.617-2.645,4.334     c-0.931,0.608-3.277,0.234-4.773-0.048c-3.34-0.627-6.274-1.653-9.465-2.558C448.885,282.992,447.235,282.898,445.637,281.862z"/>
			
				<rect x="437.097" y="243.421" transform="matrix(0.2532 -0.9674 0.9674 0.2532 113.9523 637.3341)" style="fill:#E8BD54;" width="65.38" height="2.876"/>
			
				<rect x="426.409" y="241.248" transform="matrix(0.2531 -0.9674 0.9674 0.2531 108.1031 625.3992)" style="fill:#E8BD54;" width="65.38" height="2.876"/>
			<path style="fill:#E8BD54;" d="M465.715,202.876c-1.323,2.126-4.122,7.597-4.334,8.36c-0.005,0.017-0.01,0.031-0.015,0.043     l22.23,4.875c0-0.536-0.116-15.531-0.854-21.987c-0.217-1.95-0.579-6.301-2.558-7.285c-1.443-0.727-3.697,1.272-5.632,3.547     C470.642,195.031,468.297,198.726,465.715,202.876z"/>
			<path style="fill:#A59AE8;" d="M473.442,191.773l9.368,2.963c-0.024-0.191-0.043-0.376-0.068-0.57     c-0.217-1.95-0.579-6.301-2.558-7.285c-1.443-0.727-3.697,1.272-5.632,3.547C474.166,190.89,473.804,191.334,473.442,191.773z"/>
		</g>
		<path style="fill-rule:evenodd;clip-rule:evenodd;fill:#FFFFFF;" d="M452.659,295.702c-1.018,1.805-3.567,0.772-2.968-0.536    C450.13,294.206,452.355,294.083,452.659,295.702z"/>
		<path style="fill-rule:evenodd;clip-rule:evenodd;fill:#FFFFFF;" d="M454.937,296.778c-1.921-1.544,0.56-2.7,2.138-4.544    c1.52-1.774,2.326-4.426,3.798-3.557C463.094,289.98,457.495,297.847,454.937,296.778z"/>
		<path style="fill-rule:evenodd;clip-rule:evenodd;fill:#FFFFFF;" d="M451.882,291.351c1.091-1.347,2.742-2.194,3.634-0.488    C454.841,292.915,451.795,293.622,451.882,291.351z"/>
		<g>
			<path style="fill-rule:evenodd;clip-rule:evenodd;fill:#FFFFFF;" d="M455.29,250.517c-2.153-0.021-1.984-2.15-1.206-4.549     c0.656-2.029,2.77-6.757,4.594-4.544c0.391,0.473,0.087,3.026-0.164,4.344C458.021,248.348,456.853,250.534,455.29,250.517z"/>
			<path style="fill-rule:evenodd;clip-rule:evenodd;fill:#FFFFFF;" d="M463.635,243.288c-3.084-0.019-0.545-5.442,1.438-4.807     c1.163,0.376,0.729,3.176-0.135,4.223C464.585,243.133,464.136,243.285,463.635,243.288z"/>
			<path style="fill-rule:evenodd;clip-rule:evenodd;fill:#FFFFFF;" d="M458.784,237.841c-3.335,0.135-1.11-7.426,1.887-5.591     c0.994,0.608,0.323,1.788-0.14,3.185C460.053,236.897,459.957,237.795,458.784,237.841z"/>
		</g>
	</g>
	<g>
		<g>
			<g>
				<g>
					<path style="fill-rule:evenodd;clip-rule:evenodd;fill:#69AF7A;" d="M70.931,102.121c0.738-5.917,2.336-15.051,4.122-23.866       C78.74,60.083,80.4,39.595,95.27,36.561c7.346-1.494,17.737-0.13,27.979,1.226c9.904,1.301,20.15,3.888,29.711,5.847       c41.854,8.589,73.144,18.415,116.263,25.865c9.484,1.634,19.426,3.977,28.886,6.431c13.19,3.427,26.888,5.833,29.769,15.983       c1.308,4.59-0.917,12.191-1.926,19.556c-0.975,7.09-2.978,14.252-4.223,20.228c-3.031,14.556-5.864,28.097-8.427,40.474       c-6.158,29.68-9.908,55.276-14.778,83.474c-4.6,26.63-7.983,55.098-13.669,83.308c-4.841,24.038-7.109,57.649-19.759,74.662       c-10.058,13.535-29.021,11.511-51.695,8.424c-44.345-6.043-84.235-17.136-125.752-25.336       c-9.928-1.959-21.472-3.941-31.815-6.216c-11.955-2.625-23.833-6.072-27.221-11.924c-3.422-5.912-1.274-19.829,0.777-31.678       c2.133-12.38,4.633-24.183,6.699-34.629C49.613,243.761,58.923,171.71,70.81,102.825       C70.849,102.591,70.902,102.355,70.931,102.121z"/>
					<g>
						<path style="fill-rule:evenodd;clip-rule:evenodd;fill:#FFFFFF;" d="M213.473,407.915c1.786,6.743-15.932,3.183-11.738-2.261        C203.912,402.811,210.834,405.777,213.473,407.915z"/>
						<path style="fill-rule:evenodd;clip-rule:evenodd;fill:#FFFFFF;" d="M222.127,416.456c-1.231-0.816-3.306-3.154-1.482-5.497        c2.37-3.065,10.101-2.046,13.234-2.227c3.813-0.219,10.908-2.348,13.239,1.269c3.34,5.157-7.683,6.632-11.496,6.974        c-2.022,0.19-4.03,0.171-5.753,0.253C226.925,417.341,224.492,418.024,222.127,416.456z"/>
					</g>
					<g>
						<path style="fill-rule:evenodd;clip-rule:evenodd;fill:#FFFFFF;" d="M266.477,353.592c-0.348-3.181,1.945-8.065,4.493-12.722        c1.081-1.993,2.901-5.198,4.797-4.421c2.273,0.924,0.787,4.882,0.261,6.296c-1.708,4.486-4.662,9.547-7.027,11.786        C268.282,354.762,267.041,354.253,266.477,353.592z"/>
						<path style="fill-rule:evenodd;clip-rule:evenodd;fill:#FFFFFF;" d="M267.939,329.238c-5.063-1.006-1.033-11.542,2.775-9.583        c1.65,0.856,1.612,6.682-0.183,8.815C269.879,329.241,268.827,329.412,267.939,329.238z"/>
						<path style="fill-rule:evenodd;clip-rule:evenodd;fill:#FFFFFF;" d="M277.312,319.296c-1.824-0.162-2.626-2.696-2.437-5.343        c0.149-2.128,1.409-6.132,3.673-5.198c1.009,0.408,1.916,2.358,1.815,4.566C280.256,315.9,279.658,319.515,277.312,319.296z"/>
					</g>
					<g>
						<path style="fill-rule:evenodd;clip-rule:evenodd;fill:#FFFFFF;" d="M308.481,150.001c-0.946-3.458,0.724-9.262,2.703-14.863        c0.854-2.399,2.293-6.25,4.518-5.736c2.678,0.618,1.742,5.263,1.409,6.916c-1.086,5.256-3.456,11.376-5.666,14.272        C310.696,150.973,309.229,150.631,308.481,150.001z"/>
						<path style="fill-rule:evenodd;clip-rule:evenodd;fill:#FFFFFF;" d="M308.794,127.454c-5.772-0.208-3.2-12.565,1.356-11.084        c1.979,0.652,2.963,7.097,1.366,9.778C310.942,127.104,309.793,127.483,308.794,127.454z"/>
						<path style="fill-rule:evenodd;clip-rule:evenodd;fill:#FFFFFF;" d="M317.028,104.261c-2.042,0.142-3.369-2.519-3.639-5.473        c-0.217-2.382,0.468-7.025,3.147-6.393c1.173,0.273,2.524,2.261,2.809,4.713C319.678,99.985,319.664,104.08,317.028,104.261z"/>
					</g>
					<g>
						<path style="fill-rule:evenodd;clip-rule:evenodd;fill:#FFFFFF;" d="M57.519,301.38c0.961,3.497-0.724,9.37-2.737,15.039        c-0.859,2.423-2.317,6.327-4.561,5.806c-2.722-0.627-1.767-5.323-1.429-7.001c1.096-5.314,3.49-11.516,5.734-14.436        C55.289,300.393,56.77,300.736,57.519,301.38z"/>
						<path style="fill-rule:evenodd;clip-rule:evenodd;fill:#FFFFFF;" d="M60.385,318.024c5.835,0.212,3.239,12.715-1.375,11.212        c-1.998-0.659-2.997-7.184-1.375-9.894C58.218,318.371,59.367,317.99,60.385,318.024z"/>
						<path style="fill-rule:evenodd;clip-rule:evenodd;fill:#FFFFFF;" d="M48.57,348.983c2.066-0.154,3.407,2.541,3.678,5.531        c0.207,2.406-0.478,7.104-3.171,6.475c-1.202-0.28-2.558-2.29-2.852-4.783C45.882,353.303,45.901,349.166,48.57,348.983z"/>
					</g>
				</g>
				<path style="fill-rule:evenodd;clip-rule:evenodd;fill:#FFFFFF;" d="M103.557,115.173c0.7-5.273,2.124-13.42,3.678-21.296      c3.195-16.226,4.981-34.451,15.956-37.547c5.435-1.527,13.012-0.601,20.483,0.314c7.22,0.888,14.663,2.898,21.618,4.375      c30.44,6.472,53.105,14.334,84.51,19.757c6.902,1.192,14.127,3,20.995,4.918c9.58,2.676,19.547,4.435,21.39,13.362      c0.821,4.039-1.013,10.838-1.959,17.404c-0.903,6.318-2.568,12.73-3.644,18.07c-2.625,12.998-5.072,25.095-7.297,36.14      c-5.324,26.507-8.784,49.323-13.123,74.481c-4.103,23.755-7.365,49.106-12.307,74.297c-4.208,21.465-6.791,51.35-16.535,66.799      c-7.742,12.281-21.588,11.007-38.124,8.885c-32.337-4.141-61.271-12.889-91.474-19.021c-7.235-1.467-15.637-2.908-23.157-4.645      c-8.692-1.993-17.298-4.735-19.624-9.832c-2.35-5.157-0.386-17.563,1.438-28.13c1.902-11.04,4.064-21.586,5.864-30.913      c11.8-61.155,20.599-125.341,31.198-186.786C103.485,115.589,103.528,115.379,103.557,115.173z"/>
				<g>
					<path style="fill-rule:evenodd;clip-rule:evenodd;fill:#FF4F4F;" d="M230.438,52.527c15.459,5.442,37.718,8.159,45.219,24.59       c1.255,2.732,1.795,6.714,1.578,10.695c-46.816-10.555-94.916-19.393-142.402-29.057c0.647-5.835,4.011-10.162,8.094-13.034       c13.166-9.262,35.344-3.043,48.027-1.624c2.268-7.478,6.376-13.919,15.251-15.917       C220.467,24.983,232.962,36.409,230.438,52.527z"/>
					<path style="fill-rule:evenodd;clip-rule:evenodd;fill:#FFFFFF;" d="M208.97,39.464c15.42-3.538,16.241,25.556-0.333,23.413       C196.05,61.258,198.324,41.909,208.97,39.464z"/>
				</g>
			</g>
			<path style="fill-rule:evenodd;clip-rule:evenodd;fill:#A59AE8;" d="M326.84,116.947c8.842,4.653,9.064,11.658,7.543,20.517     c-6.549,38.177-9.542,74.331-16.149,112.829c-3.841,22.387-7.346,42.67-11.207,64.951c-2.35,13.54-6.043,31.678-10.912,48.908     c-1.887,6.677-3.485,12.976-7.322,16.33c-5.261,4.597-16.752,1.122-24.002-0.157c-9.561-1.687-16.902-2.671-24.619-3.738     c-16.757-2.317-32.458-5.229-49.099-8.419c-8.301-1.588-16.294-3.309-24.726-4.332c-16.183-1.972-31.092-2.203-48.274-3.646     c-7.09-0.596-18.779-1.325-24.784-6.475c-7.36-6.301-4.797-22.139-3.928-31.596c2.934-32.037,7.307-67.338,11.361-97.862     c3.108-23.43,7.5-44.026,10.758-65.793c2.176-14.561,6.332-33.104,8.663-49.449c0.739-5.181,1.897-13.135,5.671-16.962     c5.497-5.572,16.4-2.599,24.291-1.74c16.246,1.774,33.746,3.335,50.228,6.074c17.095,2.84,33.283,5.497,50.194,7.618     c16.844,2.114,32.834,4.636,50.436,7.266C309.581,112.56,318.385,112.49,326.84,116.947z M328.809,137.196     c0.985-5.864,1.96-11.75-4.479-15.208c-6.405-3.449-15.439-3.912-23.63-5.138c-8.77-1.308-17.443-1.803-23.673-3.593     c0.319,8.451-1.115,17.201-1.988,25.853c17.177,3.955,33.862,5.041,51.198,9.904C327.144,145.162,328.1,141.412,328.809,137.196z      M273.692,113.525c-29.683-5.135-61.696-8.379-92.454-13.837c-1.009,7.86-2.046,15.724-3.596,23.673     c30.918,3.989,62.26,10.442,93.26,14.928C271.511,130.092,273.842,121.597,273.692,113.525z M325.668,152.803     c-16.897-2.295-33.973-5.657-50.996-8.707c-1.443,7.725-2.572,15.403-3.099,22.971c16.965,1.535,34.21,4.696,51.488,8.009     C323.597,167.709,325.61,160.085,325.668,152.803z M322.236,179.215c-17.225-1.873-34.881-6.19-51.975-7.307     c-0.975,8.671-1.993,17.351-3.779,26.161c17.587,3.325,34.6,3.376,52.226,6.957C320.175,196.373,321.189,187.796,322.236,179.215     z M177.174,127.749c-1.482,9.474-3.06,18.97-4.31,28.406c30.778,1.441,62.251,6.861,93.275,9.704     c0.685-7.295,2.616-14.8,3.552-22.134c-0.236-0.164-0.468-0.328-0.7-0.492C238.325,137.722,207.653,132.189,177.174,127.749z      M177.802,99.36c-9.291-1.289-24.687-3.258-35.783-4.266c-4.16-0.379-9.387-1.2-11.299,0.413     c-2.963,2.512-3.639,7.201-4.566,10.939c-0.912,3.654-1.424,7.223-2.775,10.618c16.622,3.086,32.752,3.34,49.282,5.927     C175.123,114.988,176.31,107.198,177.802,99.36z M240.062,167.902c-20.585-2.346-42.395-5.348-62.338-6.747     c-1.868-0.133-3.982-0.627-5.825,0.084c-1.825,9.023-2.78,17.899-4.271,26.861c27.071,2.961,54.692,5.842,81.421,8.678     c4.016,0.427,8.137,0.912,11.747,0.429c1.163-6.711,2.452-13.514,3.369-19.639c0.323-2.119,0.704-4.686,0.415-6.528     C256.419,169.811,248.325,168.845,240.062,167.902z M317.994,209.761c-17.51-2.295-35.054-4.802-52.371-6.009     c-0.545,4.909-1.009,9.805-2.056,14.8c17.534,2.445,34.962,4.281,52.477,6.607C317.255,219.933,318.216,214.744,317.994,209.761z      M171.841,127.131c-13.606-2.333-27.81-3.004-41.459-5.131c-2.5-0.388-5.222-1.619-7.573-1.149     c-2.23,10.116-3.76,20.114-5.546,30.16c12.66,2.239,25.503,3.016,37.564,3.955c4.069,0.319,8.538,0.874,12.602-0.027     C168.67,145.71,171.252,136.25,171.841,127.131z M263.446,223.186c-1.525,8.458-2.543,16.832-3.031,25.112     c16.757,0.362,33.741,2.005,50.967,5.024c1.969-8.229,3.224-16.333,4.088-24.371     C298.374,228.442,280.714,224.674,263.446,223.186z M259.59,202.645c-30.85-3.625-61.498-6.028-92.324-9.559     c-1.39,5.874-1.8,11.579-2.838,17.394c31.087,3.224,61.686,3.55,92.961,7.913C258.392,213.096,259.58,207.765,259.59,202.645z      M310.416,258.406c-12.766-2.522-26.516-3.972-38.616-4.698c-4.088-0.246-8.364-1.043-12.356-0.324     c-0.656,7.693-2.36,15.57-2.148,23.113c16.236,0.321,32.761,2.228,49.321,4.387C308.365,273.308,309.663,265.81,310.416,258.406z      M256.819,222.177c-15.57-1.18-31.444-3.024-47.188-4.445c-11.511-1.042-23.393-1.554-34.518-2.336     c-3.716-0.258-7.698-1.031-11.405-0.181c-0.917,7.848-2.186,15.746-2.997,23.572c15.647,1.836,31.299,3.395,46.937,4.795     c15.594,1.405,31.198,2.879,46.729,3.608C254.551,238.963,256.67,230.403,256.819,222.177z M166.213,160.377     c-16.207-1.322-32.308-1.984-48.829-5.085c-2.403,9.021-2.548,17.652-4.619,26.62c16.506,1.812,33.157,4.515,49.533,5.577     C163.158,178.527,165.041,169.391,166.213,160.377z M256.086,281.935c-0.145,5.352-1.699,10.946-1.501,16.241     c16.111,1.33,32.409,3.721,48.38,4.242c1.443-5.372,1.959-10.582,2.794-15.847C289.054,284.186,272.466,282.461,256.086,281.935z      M253.412,252.272c-27.086-2.37-55.204-5.273-81.909-7.973c-3.871-0.391-7.65-1.291-11.511-0.779     c-0.83,6.701-1.564,13.386-2.659,20.133c15.493,2.681,31.246,3.897,46.893,6.342c15.618,2.442,31.473,4.566,47.038,5.398     C251.515,267.767,253.112,259.909,253.412,252.272z M160.982,192.326c-16.048-1.539-32.38-4.756-48.442-6.383     c-1.52,6.921-2.162,13.692-2.91,20.483c16.019,0.198,32.414,2.594,48.621,3.893C159.823,204.206,160.736,198.209,160.982,192.326     z M301.753,307.852c-15.797-0.685-31.772-2.435-47.781-4.341c-1.627,8.682-1.385,17.04-2.93,25.708     c15.599,3.716,30.614,4.047,45.947,6.197C299.069,326.144,301.13,316.875,301.753,307.852z M157.681,214.107     c-16.313-1.31-32.781-3.492-48.978-4.141c-0.463,7.459-2.018,15.104-2.848,22.624c16.241,2.085,32.351,3.42,48.684,6.033     C155.909,230.396,157.241,222.174,157.681,214.107z M157.063,269.232c-1.602,6.631-1.887,13.031-2.77,19.535     c31.487,3.731,62.695,5.866,94.013,8.646c1.023-5.295,0.941-10.403,2.201-15.744c-0.237-0.164-0.468-0.326-0.704-0.492     C219.058,278.148,188.019,273.445,157.063,269.232z M247.451,303.101c-31.188-2.57-62.285-4.648-93.67-8.405     c-1.776,6.866-1.651,13.4-3.263,20.237c31.517,4.513,62.743,7.324,94.592,13.774C246.36,320.09,247.311,311.523,247.451,303.101z      M153.964,242.414c-16.043-2.128-32.028-3.897-48.192-6.735c-1.457,7.628-2.567,15.196-2.852,22.624     c16.183,1.154,32.573,3.509,48.727,4.491C152,256.07,153.839,249.094,153.964,242.414z M251.23,335.643     c-1.829,11.895-1.216,23.362-4.025,35.426c6.342,1.448,11.82,2.391,19.05,3.473c3.663,0.548,15.869,3.359,18.625,1.084     c1.945-1.6,2.799-5.283,3.784-8.34c2.891-8.989,5.102-17.112,7.071-24.885c-0.232-0.167-0.468-0.328-0.7-0.497     C280.415,339.721,266.028,338.876,251.23,335.643z M244.946,334.883c-26.41-5.27-56.565-9.976-83.433-13.246     c-3.91-0.475-8.224-0.871-11.757-0.427c-1.887,11.395-3.475,22.732-6.96,34.398c32.4,1.914,65.962,10.546,98.835,15.196     C243.942,358.624,244.328,346.775,244.946,334.883z M150.431,268.225c-15.937-2.114-31.594-2.604-47.839-6.487     c-1.964,7.819-1.39,15.203-3.099,22.973c16.163,0.454,32.708,3.113,48.867,3.545C148.675,281.645,150.47,274.777,150.431,268.225     z M147.255,294.288c-15.932-0.878-32.255-4.032-48.23-5.19c-0.246,7.109-1.443,14.39-2.114,21.574     c16.028,2.032,31.844,2.852,47.675,3.748C145.011,307.787,146.836,300.917,147.255,294.288z M143.375,319.856     c-15.498-1.947-30.657-1.935-46.439-5.502c-1.231,5.823-1.574,11.016-1.887,17.541c-0.227,4.776-1.241,13.35,2.292,16.818     c2.109,2.07,6.603,3.362,10.232,4.071c10.584,2.061,20.561,1.619,29.89,2.213C139.306,343.302,142.434,331.391,143.375,319.856z"/>
		</g>
		<g>
			<g>
				<path style="fill-rule:evenodd;clip-rule:evenodd;fill:#C8C4F7;" d="M477.119,93.86c0.927,0.719,2.587,1.82,3.755,3.972      c2.906,5.333-0.854,15.48-2.683,19.863c-3.113,7.466-6.477,13.519-9.677,19.868c-13.967,27.72-25.348,51.435-38.235,79.457      c-6.086,13.239-12.273,26.656-18.876,39.719c-15.3,30.293-25.691,52.936-37.501,79.671      c-5.459,12.353-11.646,26.526-16.95,39.659c-2.568,6.347-5.256,13.07-8.234,19.812c-2.684,6.079-7.066,16.813-12.317,20.203      c-3.422,2.208-9.402,0.584-13.775-0.726c-13.76-4.129-27.066-10.049-41.048-15.457c-8.89-3.434-18.186-6.593-27.356-10.14      c-9.291-3.591-18.33-7.816-27.409-11.588c-17.288-7.177-35.474-14.018-54.736-20.766c-12.727-4.452-27.375-9.214-41.135-17.86      c-7.298-4.592-15.266-9.983-16.994-17.257c-1.192-5.017,0.449-13.239,2.206-19.849c1.791-6.752,4.715-14.078,7.022-20.015      c5.459-14.078,11.183-27.438,16.448-40.119c16.946-40.81,34.06-80.745,53.452-120.257      c13.383-27.255,24.325-51.724,37.004-80.135c2.65-5.939,5.415-12.763,8.948-20.082c3.6-7.452,8.76-18.174,15.425-21.033      c7.384-3.166,20.16,3.89,27.728,6.752c27.351,10.348,56.372,23.886,83.173,34.248c9.228,3.567,18.557,6.523,27.843,10.123      c22.906,8.888,46.242,21.504,69.654,33.753C467.597,88.158,472.317,90.105,477.119,93.86z"/>
				<g>
					<path style="fill-rule:evenodd;clip-rule:evenodd;fill:#FFFFFF;" d="M275.106,19.133c-1.491,2.153-13.171-0.362-14.566-2.874       c-2.196-3.948,4.633-2.98,8.374-1.976C272.172,15.164,276.714,16.822,275.106,19.133z"/>
					<path style="fill-rule:evenodd;clip-rule:evenodd;fill:#FFFFFF;" d="M247.606,32.628c-3.465,0.116,1.516-16.945,4.604-16.441       C256.805,16.933,253.663,32.423,247.606,32.628z"/>
					<path style="fill-rule:evenodd;clip-rule:evenodd;fill:#FFFFFF;" d="M241.524,45.136c-4.199-0.104-1.636-7.976,1.665-7.775       C247.017,37.592,244.777,45.213,241.524,45.136z"/>
				</g>
				<g>
					<path style="fill-rule:evenodd;clip-rule:evenodd;fill:#FFFFFF;" d="M403.758,237.954c5.319,0.063,1.318,11.559-1.926,14.057       c-1.043,0.801-2.515,1.093-3.099,0.828c-2.963-1.325-1.139-5.69-0.275-7.705C399.752,242.122,401.307,239.605,403.758,237.954z       "/>
					<path style="fill-rule:evenodd;clip-rule:evenodd;fill:#FFFFFF;" d="M398.049,261.063c-0.126,2.44-2.582,9.735-6.207,8.654       C387.658,268.472,393.676,255.288,398.049,261.063z"/>
				</g>
			</g>
			<g>
				<g>
					<path style="fill-rule:evenodd;clip-rule:evenodd;fill:#FFFFFF;" d="M235.805,192.598c-3.484,4.732-8.475,8.173-13.2,11.769       c-8.934,6.793-18.022,13.229-27.467,18.898c-3.157,1.897-6.974,4.312-10.584,5.336c-0.912,0.258-2.601,1.018-3.292-0.212       c-0.859-1.578,1.308-2.109,2.037-2.664c3.147-2.394,6.612-4.831,10.111-7.225c8.953-6.113,17.78-12.365,26.912-18.174       c4.609-2.93,9.547-6.074,13.717-7.925c0.405-0.246,0.83-0.302,1.284-0.171C235.487,192.35,235.646,192.475,235.805,192.598z"/>
					<path style="fill-rule:evenodd;clip-rule:evenodd;fill:#FFFFFF;" d="M203.247,204.779c-0.395,0.441-1.146,0.379-1.416-0.147       c-1.199-2.335,0.812-6.031,1.83-8.594c1.036-2.599,2.365-5.212,3.47-7.661c0.354-0.785-0.521-1.558-1.263-1.119       c-2.35,1.39-4.577,3.682-7.033,4.25c-0.844,0.195-1.475-0.795-0.892-1.436c3.187-3.503,7.628-5.486,11.36-7.987       c0.748-0.501,1.736-0.61,2.494-0.123c2.469,1.587,0.214,6.508-1.089,9.873C208.803,196.756,206.665,200.967,203.247,204.779z"/>
					<path style="fill-rule:evenodd;clip-rule:evenodd;fill:#FFFFFF;" d="M208.999,234.233c2.095,1.183,5.391,1.709,8.63,2.756       c2.383,0.769,5.935,1.582,7.234,4.032c0.441,0.831,0.006,1.887-0.867,2.238c-3.046,1.224-7.061-0.441-10.489-1.37       c-1.747-0.468-3.905-0.951-6.081-1.571c-3.301-0.949-8.243-2.671-6.53-6.518c1.453-3.246,5.98-4.826,8.895-6.627       c2.925-1.806,5.447-3.306,7.686-4.772c0.404-0.265,0.22-0.901-0.263-0.894c-1.088,0.015-2.424,0.245-3.962,0.637       c-1.574,0.398-4.271,2.102-5.497,1.171c-3.61-2.749,4.025-5.703,6.332-6.284c3.359-0.845,9.185-1.926,11.516-0.022       c5.039,4.114-4.339,9.481-7.78,11.694C214.733,230.688,211.799,232.238,208.999,234.233z"/>
				</g>
				<path style="fill-rule:evenodd;clip-rule:evenodd;fill:#2C8952;" d="M263.784,289.652c-1.911-2.104-0.555-4.322,0.019-6.508      c-5.946,0.922-13.104,11.055-18.586,6.431c-3.393-2.865-2.553-10.869-2.944-15.329c-0.512-5.78-1.076-10.987-1.733-15.133      c-12.939,14.112-25.536,29.682-38.437,45.706c-3.779,4.686-10.087,14.436-14.537,12.078c-3.431-1.822-3.813-6.552-4.184-9.501      c-1.216-9.638-1.154-18.902-3.147-28.101c-7.022,6.322-12.669,13.666-20.227,21.68c-2.38,2.524-5.174,5.939-7.105,3.622      c-1.588-1.899,1.94-4.925,3.62-6.878c4.204-4.892,9.431-11.612,15.058-17.643c4.493-4.817,8.47-10.394,12.756-7.677      c4.566,2.898,4.373,12.431,4.904,16.226c0.787,5.645,1.26,10.138,2.249,16.077c10.551-12.73,25.015-29.644,36.825-43.478      c4.392-5.14,11.516-14.689,17.269-9.52c3.147,2.821,3.205,11.588,3.663,15.066c0.738,5.591,0.864,9.988,1.486,14.899      c3.079-1.419,6.144-3.391,9.214-5.384c-0.483-0.432-3.229-1.144-2.761-3.041c3.181-2.133,9.025-1.499,12.278-0.668      c4.373,1.117,2.693,6.113,1.062,9.851C269.291,285.265,267.206,290.494,263.784,289.652z"/>
				<path style="fill-rule:evenodd;clip-rule:evenodd;fill:#FF4F4F;" d="M162.565,235.78c0.251,0.234,0.502,0.466,0.748,0.697      c-7.52,22.527-15.232,45.059-24.417,67.642c27.38,11.561,52.497,20.213,81.151,31.424c3.986,1.559,8.49,3.367,13.437,5.08      c1.496,0.514,13.002,2.877,10.15,7.602c-2.529,4.208-11.135-1.491-13.833-2.652c-27.882-12.03-54.089-21.806-82.41-33.065      c-3.533-1.405-12.047-3.75-13.224-5.811c-1.265-2.213,1.062-5.999,2.104-8.755c8.026-21.137,16.429-40.617,25.599-61.416      C162.101,236.275,162.333,236.029,162.565,235.78z"/>
				<g>
					<path style="fill-rule:evenodd;clip-rule:evenodd;fill:#2C8952;" d="M237.557,234.897c-0.685-2.025,5.502-15.563,10.811-28.645       c5.044-12.438,9.175-24.489,10.3-24.957c1.486-0.616,7.21,1.749,7.852,3.622c0.681,2.017-19.6,51.705-20.575,52.294       C243.87,238.442,238.204,236.806,237.557,234.897z"/>
					<path style="fill-rule:evenodd;clip-rule:evenodd;fill:#A59AE8;" d="M252.084,240.512c-0.434-2.642,8.084-21.844,15.608-40.303       c7.153-17.551,13.282-34.441,14.542-35.237c1.655-1.045,7.384,1.32,7.79,3.755c0.43,2.63-28.273,72.755-29.393,73.687       C258.253,244.388,252.485,242.998,252.084,240.512z"/>
					<path style="fill-rule:evenodd;clip-rule:evenodd;fill:#FFFFFF;" d="M266.699,247.216c-0.888-1.537,3.427-10.538,6.96-19.31       c3.359-8.347,5.888-16.516,6.906-16.719c1.337-0.27,7.071,2.092,7.891,3.507c0.893,1.535-12.641,34.849-13.499,35.15       C273.123,250.493,267.539,248.659,266.699,247.216z"/>
					<path style="fill-rule:evenodd;clip-rule:evenodd;fill:#2C8952;" d="M280.797,252.513c-0.541-2.377,6.974-19.146,13.548-35.288       c6.245-15.353,11.511-30.163,12.713-30.812c1.583-0.864,7.312,1.501,7.819,3.695c0.54,2.37-24.542,63.703-25.599,64.48       C287.027,256.246,281.308,254.75,280.797,252.513z"/>
					<path style="fill-rule:evenodd;clip-rule:evenodd;fill:#A59AE8;" d="M295.59,258.795c-0.666-2.076,5.719-16.089,11.212-29.617       c5.217-12.862,9.518-25.312,10.647-25.809c1.501-0.647,7.23,1.711,7.848,3.629c0.666,2.076-20.314,53.462-21.304,54.07       C301.888,262.366,296.217,260.749,295.59,258.795z"/>
					<path style="fill-rule:evenodd;clip-rule:evenodd;fill:#FF4F4F;" d="M310.266,265.361c-1.013-1.228,2.153-7.438,4.59-13.562       c2.317-5.825,3.866-11.608,4.817-11.651c1.25-0.061,6.979,2.305,7.915,3.444c1.014,1.228-8.359,24.467-9.146,24.605       C316.753,268.476,311.222,266.522,310.266,265.361z"/>
					<path style="fill-rule:evenodd;clip-rule:evenodd;fill:#2C8952;" d="M325.281,271.242c-0.806-1.733,4.281-12.609,8.543-23.157       c4.059-10.032,7.245-19.803,8.301-20.117c1.405-0.41,7.129,1.952,7.877,3.557c0.806,1.733-15.507,41.801-16.415,42.216       C331.657,274.632,326.039,272.881,325.281,271.242z"/>
					<path style="fill-rule:evenodd;clip-rule:evenodd;fill:#A59AE8;" d="M341.03,277.224c-0.459-2.585,7.833-21.234,15.14-39.161       c6.945-17.052,12.877-33.464,14.122-34.231c1.646-1.004,7.37,1.361,7.8,3.74c0.454,2.575-27.424,70.697-28.529,71.592       C347.217,281.064,341.46,279.649,341.03,277.224z"/>
					<path style="fill-rule:evenodd;clip-rule:evenodd;fill:#FFFFFF;" d="M357.676,284.362c-0.642-2.138,5.956-16.675,11.656-30.698       c5.41-13.338,9.894-26.236,11.038-26.762c1.516-0.69,7.244,1.675,7.843,3.641c0.642,2.133-21.115,55.412-22.119,56.051       C363.97,287.963,358.284,286.368,357.676,284.362z"/>
				</g>
				<path style="fill:#FFFFFF;" d="M364.327,333.707c1.559-13.774-3.248-28.032-12.848-38.141      c-4.923-5.188-10.748-8.987-17.322-11.303c-1.998-0.709-4.165-1.282-6.462-1.704c-0.212-0.282-0.487-0.509-0.83-0.661      c-19.209-8.557-43.751-0.862-57.096,17.911c-11.419,16.074-17.148,42.74-5.994,62.601c1.486,2.643,3.287,5.097,5.367,7.283      c0,0.003,0,0.003,0,0.003c13.639,14.363,37.086,15.809,54.268,10.864C345.779,374.131,361.837,355.74,364.327,333.707z       M299.958,378.581c-11.555-1.002-21.342-5.162-27.573-11.719c-0.319-0.343-0.632-0.69-0.946-1.047      c-13.437-15.546-10.647-40.167-2.365-56.459c2.302-4.527,5.164-8.646,8.528-12.252c9.961,14.011,20.7,27.588,32.004,40.445      c0.719,0.762,1.791,0.905,2.727,0.376c0.82-0.468,1.255-1.298,1.124-2.119l4.643-14.735c0.342-0.41,0.502-0.934,0.458-1.491      l10.198-32.358c7.37,1.742,14.151,5.707,19.653,11.499c7.085,7.454,11.395,17.471,11.839,27.477      c0.893,19.981-11.492,39.096-30.831,47.566C320.233,377.789,310.045,379.457,299.958,378.581z M281.839,295.511      c-0.15-0.222-0.314-0.442-0.478-0.659c-0.198-0.278-0.406-0.562-0.608-0.835c2.896-2.599,6.014-4.761,9.286-6.426      c9.006-4.592,19.016-6.019,28.195-3.999c0.478,0.104,0.97,0.227,1.462,0.36C306.69,287.336,293.963,291.221,281.839,295.511z       M291.521,308.579l28.413-7.852l-2.066,6.588c-0.048,0.007-0.106,0.017-0.154,0.027l-22.621,5.895      c-1.134-1.455-2.249-2.915-3.359-4.382L291.521,308.579z M298.051,316.953c6.091-1.598,12.186-3.178,18.282-4.764l-1.868,5.958      c-4.045,1.723-8.137,3.079-12.182,4.018C300.865,320.44,299.451,318.697,298.051,316.953z M305.324,325.867      c2.558-0.673,5.048-1.46,7.447-2.341l-2.544,8.067C308.587,329.694,306.946,327.793,305.324,325.867z M321.488,295.799      l-32.814,9.057c-1.4-1.875-2.785-3.772-4.156-5.664c12.988-4.556,26.318-8.562,39.663-11.916L321.488,295.799L321.488,295.799z       M321.763,296.421v-0.007V296.421L321.763,296.421z"/>
				<path style="fill-rule:evenodd;clip-rule:evenodd;fill:#69AF7A;" d="M349.877,102.864c-15.55-3.309-31.12-7.194-46.695-11.402      c11.564-7.196,23.08-15.941,34.639-23.145C347.584,79.632,350.683,91.179,349.877,102.864z"/>
				<path style="fill-rule:evenodd;clip-rule:evenodd;fill:#FF4F4F;" d="M317.366,145.708      c-6.019-15.382-10.034-30.838-15.599-46.237c3.88-0.024,7.621,1.376,11.414,2.254c11.303,2.623,23.519,5.753,35.02,8.429      C347.005,123.468,331.744,143.104,317.366,145.708z"/>
				<path style="fill-rule:evenodd;clip-rule:evenodd;fill:#2C8952;" d="M333.824,64.118c-11.298,8.079-23.403,15.565-35.575,24.142      c-1.796,1.262-4.58,3.108-4.933,3.786c-0.869,1.667,2.876,11.424,3.605,13.62c3.876,11.699,7.708,22.457,11.555,34.079      c0.878,2.66,1.53,5.717,2.891,6.894c0.236,0.311-0.096,0.381-0.237,0.251c-6.863,2.374-16.444,2.488-23.847,0.589      c-27.993-7.189-43.22-39.555-38.288-60.885c4.32-18.666,22.066-32.853,37.564-36.268c7.954-1.757,15.488-1.192,23.417,0.873      C317.82,53.237,326.005,56.704,333.824,64.118z"/>
				<path style="fill-rule:evenodd;clip-rule:evenodd;fill:#FFFFFF;" d="M424.69,104.179c3.499,0.384,7.606-3.263,10.348-0.603      c2.843,2.751-1.385,7.314-2.022,11.163c3.818,0.193,7.944-1.622,10.898,1.313c3.181,3.154,1.844,12.959-0.145,16.641      c-0.975-2.684-1.163-4.211-1.448-6.945c-0.174-1.643,0.372-5.606-0.965-6.957c-2.886-2.925-8.123,1.721-10.879-0.828      c-2.664-2.461,0.13-7.21,1.308-10.898c-3.176-1.508-8.268,4.136-11.26,2.078c-2.688-1.844-0.821-4.684,0.695-7.739      c-5.681,2.087-14.392,13.861-19.431,9.836c-3.089-2.461-0.82-6.32,0.627-9.667c-4.527,3.183-14.117,15.626-18.021,8.825      c-2.307-4.018,2.495-12.862,7.539-19.069c3.026-3.723,8.176-9.617,11.308-7.626c3.644,2.312,1.125,6.332,0.087,9.402      c3.818-1.059,7.389-9.426,11.26-9.074c4.093,2.459,0.676,6.327-1.11,9.684c-1.815,3.412-3.33,6.583-4.281,8.589      c3.813-1.076,13.605-11.422,17.737-10.022C432.113,94.041,427.731,100.361,424.69,104.179z M390.476,104.884      c2.756-1.644,5.449-5.029,8.205-6.793c-0.676-2.392,1.014-4.86,1.192-7.281C396.147,95.523,392.378,100.236,390.476,104.884z"/>
				<path style="fill-rule:evenodd;clip-rule:evenodd;fill:#FFFFFF;" d="M376.909,102.963c-4.426,3.523-9.798,5.418-14.807,7.527      c-12.177,5.118-24.619,10.596-37.163,14.429c-1.105,0.333-2.596,0.615-3.827,0.832c-1.023,0.183-2.659,0.9-3.345-0.408      c1.115-2.379,4.349-3.555,6.675-4.612c14.16-6.455,29.253-11.427,43.935-16.243c2.529-0.832,5.053-2.09,7.457-2.189      c0.232-0.152,0.473,0.212,0.7-0.019c0.184,0.108,0.106,0.224,0.01,0.345C376.668,102.738,376.789,102.852,376.909,102.963z"/>
				<path style="fill-rule:evenodd;clip-rule:evenodd;fill:#FFFFFF;" d="M286.11,136.75c-4.006,5.191-9.252,8.924-14.088,12.773      c-11.752,9.351-23.727,19.173-36.063,27.252c-1.081,0.705-2.577,1.479-3.813,2.102c-1.033,0.516-2.602,1.808-3.514,0.608      c0.767-2.913,3.924-5.198,6.149-7.068c13.591-11.419,28.379-21.526,42.762-31.34c2.481-1.692,4.889-3.844,7.351-4.703      c0.212-0.239,0.526,0.08,0.719-0.246c0.208,0.06,0.145,0.217,0.068,0.374C285.821,136.586,285.966,136.665,286.11,136.75z"/>
				<g>
					<path style="fill-rule:evenodd;clip-rule:evenodd;fill:#FFFFFF;" d="M405.559,131.76c-5.111,5.861-11.921,9.756-18.176,13.854       c-15.223,9.952-30.715,20.449-46.744,28.746c-1.409,0.729-3.359,1.474-4.976,2.08c-1.342,0.497-3.374,1.878-4.629,0.273       c0.917-3.494,5.01-5.888,7.891-7.896c17.578-12.249,36.777-22.72,55.46-32.879c3.219-1.752,6.323-4.083,9.556-4.81       c0.27-0.265,0.695,0.169,0.941-0.208c0.28,0.106,0.198,0.285,0.101,0.473C405.177,131.516,405.366,131.636,405.559,131.76z"/>
					<path style="fill-rule:evenodd;clip-rule:evenodd;fill:#FFFFFF;" d="M362.309,144.938c-5.772,5.835-7.273-3.415-3.842-8.531       c1.593-2.367,4.609-4.368,7.099-4.764c4.291-0.683,11.526,3.627,8.596,9.959C371.952,146.383,366.663,147.759,362.309,144.938z        M365.369,136.373c-3.823,4.324,2.317,7.766,4.59,2.944C370.167,137.508,367.02,135.085,365.369,136.373z"/>
					<path style="fill-rule:evenodd;clip-rule:evenodd;fill:#FFFFFF;" d="M388.652,158.165c2.577,0.784,3.914,2.563,4.324,3.987       c1.708,5.898-8.427,11.668-11.458,3.991C380.143,162.665,383.444,156.584,388.652,158.165z M384.501,164.007       c0.41,0.897,0.541,1.853,2.032,2.514C391.828,165.616,387.276,158.227,384.501,164.007z"/>
				</g>
				<g>
					<path style="fill-rule:evenodd;clip-rule:evenodd;fill:#A59AE8;" d="M405.496,190.622c0.072,0.027,0.198-0.174,0.415-0.053       c9.831,5.41-2.046,19.573-8.828,12.546C392.754,198.626,400.23,188.631,405.496,190.622z M405.641,194.811       c-3.031-2.633-6.757,2.329-5.227,4.908C402.837,201.011,406.756,197.495,405.641,194.811z"/>
					<path style="fill-rule:evenodd;clip-rule:evenodd;fill:#A59AE8;" d="M382.942,194.917c-1.163-0.285-2.322-0.562-3.528-1.209       c-2.124,0.693-4.228,1.81-6.019,0.596c-3.282-2.218-1.154-7.582,2.563-10.647c0.811-0.041,1.096,0,1.583,0.835       c4.315-6.506,8.861,2.679,4.436,6.344c2.384,1.624,2.983-3.589,5.28-4.493c0.864,0.183,1.626-0.403,2.587,0.495       c2.722-1.332,5.627,0.034,6.766,1.822c3.485,5.461-6.274,15.35-11.767,11.048C383.097,198.339,383.309,196.858,382.942,194.917       z M391.63,192.277c-0.637,0.468-1.371,0.244-2.176-0.55c-1.496,1.653-3.577,2.592-1.926,4.467       c1.993,0.562,7.08-3.431,4.884-5.915C391.239,190.46,392.72,191.474,391.63,192.277z M374.781,190.542       c0.845,0.562,1.554,0.084,2.244-0.509c-0.184-1.728-0.111-3.494,0.338-5.304C375.939,186.742,374.969,188.694,374.781,190.542z       "/>
					<path style="fill-rule:evenodd;clip-rule:evenodd;fill:#A59AE8;" d="M374.777,178.216c-2.339,0.257-4.964-1.591-7.313-1.412       c-1.578,1.289-3.06,3.279-4.638,4.621c0.704,0.91,1.646,0.7,2.761,1.73c5.975,5.533-5.082,19.115-12.414,10.924       c-1.052-1.414,0.029-5.374,2.515-4.759c1.646,0.835,0.521,2.034,1.448,2.961c2.766,3.007,8.311-4.254,5.835-6.675       c-2.09-2.037-4.749,1.161-6.545-0.169c-2.529-1.875,1.105-5.263,3.605-7.635c1.737-1.66,4.812-4.604,7.172-4.539       c1.767,0.048,5.492,2.283,7.93,2.717c0.031,0.006,0.069,0.019,0.112,0.039C376.297,176.509,375.929,178.089,374.777,178.216z"/>
				</g>
			</g>
		</g>
		<g>
			<path style="fill-rule:evenodd;clip-rule:evenodd;fill:#E8BD54;" d="M411.925,286.655c4.754,2.587,10.956,11.593,13.813,15.676     c11.159,15.966,19.007,30.86,28.876,46.983c9.769,15.954,19.223,30.788,26.241,47.315c2.471,5.813,5.425,11.197,3.924,15.782     c-1.593,4.86-8.557,10.49-12.09,12.959c-4.599,3.21-9.841,6.61-13.948,7.956c-4.368,1.431-9.802-0.746-14.687,0.75     c-4.933,1.518-11.009,5.555-17.037,9.276c-16.057,9.908-34.711,22.24-50.455,33.097c-10.58,7.298-21.593,15.112-33.712,22.151     c-10.637,6.18-25.252,16.473-34.046,12.52c-5.338-2.401-9.214-9.411-12.544-14.035c-10.729-14.884-21.439-30.206-30.242-44.523     c-10.961-17.819-30.73-42.151-21.661-61.22c2.645-5.562,10.179-11.091,15.164-14.754c5.565-4.086,11.38-7.705,16.024-10.683     c11.308-7.256,19.711-12.783,32.1-19.923c18.055-10.401,37.535-19.252,56.367-29.448c3.002-1.626,6.752-3.198,8.041-4.617     c2.413-2.671,2.346-8.089,5.145-11.516c3.852-4.718,11.53-7.696,17.008-10.237C398.976,287.958,406.973,283.955,411.925,286.655z     "/>
			<g>
				<path style="fill-rule:evenodd;clip-rule:evenodd;fill:#2C8952;" d="M383.637,346.958c-3.181,3.263-6.849,4.677-10.859,6.646      c-2.939,1.445-7.901,4.365-10.748,3.026c-3.268-1.54-4.822-6.61-6.612-9.896c-2.071-3.815-4.199-6.791-3.007-10.268      c1.588-2.355,4.479-3.946,7.52-5.565c3.055-1.621,11.385-7.922,13.572-5.048c2.22,2.906,3.75,6.817,5.917,10.642      C381.417,340.025,384.337,343.445,383.637,346.958z"/>
				<path style="fill-rule:evenodd;clip-rule:evenodd;fill:#FF4F4F;" d="M385.631,352.73c0.592-0.231,1.259-0.2,1.818,0.101      c3.546,1.907,5.497,6.937,7.636,11.331c1.742,3.574,4.411,8.294,2.794,10.997c-1.921,3.212-6.482,4.551-9.431,6.117      c-2.795,1.474-6.617,4.303-9.551,2.741c-3.996-2.131-5.956-9.469-7.409-12.042c-2.939-5.2-6.38-8.584,0.758-12.809      C376.412,356.707,381.432,354.367,385.631,352.73z"/>
				<path style="fill-rule:evenodd;clip-rule:evenodd;fill:#A59AE8;" d="M404.41,382.649c3.065,1.549,6.014,7.126,8.34,11.043      c2.321,3.897,5.256,8.905,3.065,11.709c-2.273,2.896-6.578,3.936-10.647,5.915c-4.392,2.138-7.896,4.354-10.763,2.543      c-3.489-2.198-4.522-7.329-6.414-11.108c-1.245-2.486-4.913-8.014-3.277-10.98c1.598-2.893,6.564-4.129,9.45-5.632      C397.87,384.208,400.829,380.837,404.41,382.649z"/>
				<path style="fill-rule:evenodd;clip-rule:evenodd;fill:#A59AE8;" d="M433.079,430.361c-2.095,3.798-6.308,5.285-9.402,7.078      c-2.616,1.52-7.906,5.64-10.729,3.511c-2.766-2.09-4.315-6.072-6.115-9.433c-1.313-2.451-4.03-6.677-3.461-9.283      c0.661-3.002,5.188-5.463,8.654-7.78c4.682-3.125,9.127-6.537,13.205-1.663c2.07,2.478,3.417,6.009,4.884,8.753      C431.66,424.422,433.035,427.46,433.079,430.361z"/>
				<path style="fill-rule:evenodd;clip-rule:evenodd;fill:#A59AE8;" d="M342.946,341.62c2.867,1.315,4.913,6.064,6.612,9.899      c1.583,3.579,3.045,7.486,1.544,9.829c-1.902,2.978-5.763,4.078-8.967,5.618c-3.277,1.576-6.53,3.861-9.083,2.247      c-2.297-1.453-3.61-5.838-5.135-8.987c-1.689-3.47-3.678-7.131-2.032-9.817c1.405-2.283,5.082-3.77,8.007-5.582      C337.531,342.576,339.79,340.172,342.946,341.62z"/>
				<path style="fill-rule:evenodd;clip-rule:evenodd;fill:#A59AE8;" d="M358.83,368.554c4.3,1.798,6.805,7.529,8.857,11.996      c1.578,3.436,3.311,7.512,1.795,10.063c-1.848,3.113-6.462,4.967-9.416,6.593c-3.084,1.706-6.815,3.359-9.349,1.532      c-2.799-2.015-4.397-7.865-5.917-10.645c-1.617-2.961-4.662-7.727-3.026-10.744c1.4-2.582,4.383-3.562,7.539-5.085      C352.879,370.542,355.765,367.994,358.83,368.554z"/>
				<path style="fill-rule:evenodd;clip-rule:evenodd;fill:#A59AE8;" d="M376.494,398.084c4.238,2.059,5.488,7.546,7.891,12.025      c2.032,3.789,4.189,7.708,2.297,10.531c-1.714,2.551-5.685,4.184-8.721,5.847c-3.128,1.716-5.84,3.473-8.62,1.747      c-2.592-1.61-3.972-5.994-6.13-9.913c-2.336-4.24-5.743-8.531-3.793-11.926c1.679-2.92,5.15-3.856,8.007-5.582      C370.732,398.808,373.159,396.465,376.494,398.084z"/>
				<path style="fill-rule:evenodd;clip-rule:evenodd;fill:#A59AE8;" d="M404.926,446.049c-3.147,3.518-5.821,4.749-9.648,6.844      c-5.502,3.012-9.581,5.046-13.34-2.186c-0.922-1.771-1.786-3.4-2.828-4.966c-1.602-2.413-5.41-6.911-4.204-9.981      c1.327-3.371,6.704-5.958,10.102-7.828c3.181-1.752,9.17-4.573,11.989-1.863c2.712,2.613,4.233,6.491,5.652,9.933      C403.98,439.248,405.897,442.67,404.926,446.049z"/>
				<path style="fill-rule:evenodd;clip-rule:evenodd;fill:#A59AE8;" d="M315.44,355.112c3.494,1.506,6.072,7.102,8.34,11.045      c1.781,3.089,4.74,7.809,3.509,10.729c-1.346,3.183-5.463,4.824-8.683,6.813c-3.412,2.102-6.375,4.594-9.305,2.975      c-3.629-2.005-4.276-7.138-6.414-11.11c-1.926-3.581-6.351-7.949-5.449-11.144c0.801-2.852,5.126-4.515,7.988-6.064      C308.838,356.505,312.149,353.698,315.44,355.112z"/>
				<path style="fill-rule:evenodd;clip-rule:evenodd;fill:#A59AE8;" d="M333.337,384.394c0.145,0.079,0.492-0.113,0.729,0.215      c1.964,2.696,3.316,6.554,5.686,10.893c1.964,3.584,4.821,8.84,3.06,11.709c-1.718,2.797-5.362,4.032-8.485,5.601      c-3.06,1.54-5.772,3.284-8.639,1.267c-2.51-1.769-4.773-7.934-6.164-10.879c-1.583-3.352-3.755-8.034-2.061-10.78      c1.501-2.438,4.88-3.309,7.534-5.087C328.134,385.236,330.074,382.541,333.337,384.394z"/>
				<path style="fill-rule:evenodd;clip-rule:evenodd;fill:#A59AE8;" d="M351.899,411.96c4.276,2.056,8.972,12.013,10.203,16.048      c2.21,7.254-2.365,9.957-9.416,13.586c-3.263,1.68-5.931,3.412-8.62,1.747c-3.263-2.025-4.46-7.034-6.414-11.11      c-1.844-3.844-4.17-7.906-2.312-11.014c1.173-1.965,4.262-3.328,6.805-5.299C346.358,412.66,348.13,410.15,351.899,411.96z"/>
				<path style="fill-rule:evenodd;clip-rule:evenodd;fill:#A59AE8;" d="M368.367,441.772c2.968,1.757,4.653,6.089,6.626,10.379      c2.838,6.159,3.229,9.281-2.92,13.121c-3.547,2.22-8.842,7.029-12.37,4.773c-2.809-1.795-3.485-5.367-5.135-8.984      c-2.09-4.568-4.884-8.294-1.882-12.474c1.631-2.271,8.446-6.974,10.831-7.611C365.065,440.561,367.107,441.024,368.367,441.772z      "/>
				<path style="fill-rule:evenodd;clip-rule:evenodd;fill:#A59AE8;" d="M292.158,372.077c2.515,1.815,4.45,6.836,6.149,10.398      c1.863,3.919,3.533,6.75,1.293,9.6c-2.032,2.599-5.507,3.297-9.445,5.632c-3.813,2.264-7.278,6.052-10.483,3.741      c-3.301-2.382-3.654-6.299-5.647-9.933c-1.771-3.217-4.474-6.701-2.51-9.798c1.38-2.186,6.617-4.87,9.88-7.092      C285.246,371.997,288.316,369.312,292.158,372.077z"/>
				<path style="fill-rule:evenodd;clip-rule:evenodd;fill:#A59AE8;" d="M307.129,400.497c4.841,2.611,11.786,15.437,9.354,19.445      c-1.443,2.387-5,4.037-7.737,6.299c-3.156,2.606-5.092,4.556-7.606,3.156c-1.419-0.789-2.703-3.127-3.789-4.93      c-1.096-1.827-2.022-3.366-3.055-4.718c-2.278-2.995-5.584-6.839-4.672-9.484c0.893-2.599,5.367-4.814,8.205-6.796      C301.42,400.966,303.457,398.509,307.129,400.497z"/>
				<path style="fill-rule:evenodd;clip-rule:evenodd;fill:#A59AE8;" d="M325.769,427.94c0.164,0.113,0.608,0.606,0.921,1.053      c3.195,4.638,8.967,15.459,5.994,20.049c-2.186,3.386-11.82,8.68-14.445,7.495c-3.205-1.453-4.556-6.011-6.347-9.185      c-2.77-4.911-5.734-8.982-1.68-13.69c2.09-2.423,4.798-2.659,7.336-3.868C320.561,428.36,322.386,425.657,325.769,427.94z"/>
				<path style="fill-rule:evenodd;clip-rule:evenodd;fill:#A59AE8;" d="M342.323,455.697c3.345,1.639,5.42,7.013,7.129,10.847      c1.742,3.905,3.658,8.195,1.134,11.774c-2.645,3.743-7.905,5.912-11.062,7.862c-6.95,4.298-13.953,9.206-21.955,13.543      c-7.191,3.893-10.266,5.195-15.029-2.372c-2.727-4.329-7.524-10.524-5.604-15.48c1.207-3.123,6.207-6.675,10.28-9.52      c7.843-5.48,15.304-10.234,22.664-13.808C333.597,456.741,338.964,454.053,342.323,455.697z"/>
				<path style="fill-rule:evenodd;clip-rule:evenodd;fill:#A59AE8;" d="M263.359,389.956c2.838,1.207,5.212,6.339,6.612,9.899      c1.187,3.021,1.554,6.817,0.536,8.422c-1.708,2.696-4.764,3.386-7.558,4.604c-2.616,1.139-5.121,2.804-7.423,1.462      c-3.504-2.042-7.954-14.402-6.385-17.141c1.51-2.63,4.44-3.909,6.578-5.051C258.248,390.804,260.878,388.902,263.359,389.956z"/>
				<path style="fill-rule:evenodd;clip-rule:evenodd;fill:#A59AE8;" d="M283.051,415.319c2.056,1.424,3.451,6.113,5.435,10.659      c1.887,4.327,4.696,8.154,2.809,11.479c-2.013,3.54-6.405,5.435-9.633,7.327c-2.852,1.668-7.293,4.433-10.28,2.526      c-2.983-1.904-3.75-5.567-5.618-8.967c-1.911-3.482-5.319-6.841-4.918-9.715c0.685-4.921,9.769-8.19,13.852-10.85      C278.07,415.577,279.532,412.882,283.051,415.319z"/>
				<path style="fill-rule:evenodd;clip-rule:evenodd;fill:#FF4F4F;" d="M298.987,443.701c3.185,1.602,5.29,6.361,7.592,10.345      c1.376,2.387,3.996,7.04,2.027,9.817c-1.824,2.585-4.773,3.429-8.002,5.582c-3.489,2.324-6.68,5.734-9.995,3.724      c-1.564-0.941-2.076-2.722-3.297-4.469c-3.441-4.942-9.301-10.324-6.313-15.213c1.926-3.149,11.622-9.648,14.349-10.384      C296.222,442.868,298.012,443.208,298.987,443.701z"/>
			</g>
			<g>
				<path style="fill-rule:evenodd;clip-rule:evenodd;fill:#FFFFFF;" d="M408.841,293.965c1.182-0.331,2.78,1.723,3.967,3.238      c3.499,4.457,6.472,9.675,9.672,14.612c9.522,14.687,17.848,27.966,25.623,43.481c6.511,12.988,15.343,28.92,22.255,43.594      c2.37,5.036,5.4,11.294,3.161,14.6c-1.443,2.128-4.85,3.323-7.558,4.602c-2.63,1.245-5.063,2.556-7.592,3.644      c-4.064,1.74-11.467,5.664-15.063,3.656c-4.296-2.396-6.762-9.469-9.672-14.612c-13.847-24.479-27.438-48.257-39.417-72.663      c-2.162-4.402-5.184-9.286-8.229-14.663c-2.413-4.274-6.313-11.39-4.604-14.552c1.313-2.418,7.577-6.552,9.846-8.057      C396.972,297.046,405.11,294.112,408.841,293.965z"/>
				<g>
					<g>
						<path style="fill-rule:evenodd;clip-rule:evenodd;fill:#A59AE8;" d="M459.484,389.336c-1.66,0.779-4.788-5.862-3.123-6.644        C458.021,381.911,461.144,388.557,459.484,389.336z"/>
						<path style="fill-rule:evenodd;clip-rule:evenodd;fill:#A59AE8;" d="M459.566,391.742c0.69,1.207-9.45,6.007-9.962,4.689        C449.088,395.121,458.885,390.55,459.566,391.742z"/>
						<path style="fill-rule:evenodd;clip-rule:evenodd;fill:#A59AE8;" d="M454.31,381.527c0.685,1.204-9.45,6.007-9.966,4.686        C443.827,384.906,453.625,380.332,454.31,381.527z"/>
						<path style="fill-rule:evenodd;clip-rule:evenodd;fill:#A59AE8;" d="M445.565,397.63c0.685,1.204-9.45,6.007-9.966,4.689        C435.087,401.011,444.884,396.436,445.565,397.63z"/>
						<path style="fill-rule:evenodd;clip-rule:evenodd;fill:#A59AE8;" d="M441.202,387.613c0.685,1.204-9.45,6.011-9.966,4.684        C430.723,390.992,440.516,386.424,441.202,387.613z"/>
						<path style="fill-rule:evenodd;clip-rule:evenodd;fill:#A59AE8;" d="M447.143,395.07c-2.037-0.379-4.986-4.771-3.567-5.664        C444.99,388.513,448.789,395.376,447.143,395.07z"/>
						<path style="fill-rule:evenodd;clip-rule:evenodd;fill:#A59AE8;" d="M434.575,401.05c-1.11,0.311-4.479-5.688-2.881-6.409        C433.301,393.921,436.264,400.577,434.575,401.05z"/>
					</g>
					<g>
						<path style="fill-rule:evenodd;clip-rule:evenodd;fill:#A59AE8;" d="M451.718,375.074c-1.66,0.782-4.783-5.862-3.123-6.644        C450.256,367.651,453.383,374.292,451.718,375.074z"/>
						<path style="fill-rule:evenodd;clip-rule:evenodd;fill:#A59AE8;" d="M451.805,377.485c0.685,1.202-9.45,6.007-9.966,4.684        C441.327,380.861,451.125,376.288,451.805,377.485z"/>
						<path style="fill-rule:evenodd;clip-rule:evenodd;fill:#A59AE8;" d="M446.544,367.267c0.685,1.207-9.45,6.007-9.966,4.686        C436.066,370.646,445.859,366.073,446.544,367.267z"/>
						<path style="fill-rule:evenodd;clip-rule:evenodd;fill:#A59AE8;" d="M437.794,383.373c0.69,1.202-9.445,6.004-9.962,4.684        C427.321,386.749,437.118,382.176,437.794,383.373z"/>
						<path style="fill-rule:evenodd;clip-rule:evenodd;fill:#A59AE8;" d="M433.436,373.354c0.69,1.202-9.45,6.007-9.967,4.686        C422.958,376.73,432.755,372.162,433.436,373.354z"/>
						<path style="fill-rule:evenodd;clip-rule:evenodd;fill:#A59AE8;" d="M439.377,380.808c-2.042-0.379-4.986-4.771-3.572-5.659        C437.22,374.254,441.023,381.115,439.377,380.808z"/>
						<path style="fill-rule:evenodd;clip-rule:evenodd;fill:#A59AE8;" d="M426.809,386.793c-1.11,0.306-4.479-5.693-2.876-6.412        C425.535,379.659,428.498,386.32,426.809,386.793z"/>
					</g>
					<g>
						<path style="fill-rule:evenodd;clip-rule:evenodd;fill:#A59AE8;" d="M467.858,405.203c-1.66,0.779-4.788-5.864-3.123-6.641        C466.395,397.778,469.523,404.421,467.858,405.203z"/>
						<path style="fill-rule:evenodd;clip-rule:evenodd;fill:#A59AE8;" d="M467.94,407.611c0.69,1.204-9.445,6.007-9.962,4.684        C457.466,410.992,467.259,406.417,467.94,407.611z"/>
						<path style="fill-rule:evenodd;clip-rule:evenodd;fill:#A59AE8;" d="M462.679,397.396c0.685,1.202-9.445,6.007-9.962,4.686        C452.201,400.775,461.998,396.202,462.679,397.396z"/>
						<path style="fill-rule:evenodd;clip-rule:evenodd;fill:#A59AE8;" d="M453.938,413.499c0.685,1.202-9.45,6.004-9.966,4.684        C443.46,416.878,453.253,412.302,453.938,413.499z"/>
						<path style="fill-rule:evenodd;clip-rule:evenodd;fill:#A59AE8;" d="M449.575,403.48c0.686,1.207-9.45,6.009-9.966,4.691        C439.097,406.858,448.89,402.29,449.575,403.48z"/>
						<path style="fill-rule:evenodd;clip-rule:evenodd;fill:#A59AE8;" d="M455.516,410.937c-2.041-0.381-4.986-4.773-3.572-5.664        C453.364,404.38,457.162,411.241,455.516,410.937z"/>
						<path style="fill-rule:evenodd;clip-rule:evenodd;fill:#A59AE8;" d="M442.944,416.921c-1.105,0.309-4.474-5.693-2.872-6.412        C441.67,409.788,444.638,416.446,442.944,416.921z"/>
					</g>
				</g>
			</g>
			<g>
				<path style="fill-rule:evenodd;clip-rule:evenodd;fill:#FFFFFF;" d="M367.754,333.01c6.549,4.57-3.547,11.837-7.935,7.507      c-3.224-3.181,1.129-8.95,5-8.854C365.876,331.69,366.962,332.453,367.754,333.01z M362.358,337.293      c1.163,1.066,2.278,0.804,3.354-0.599C364.549,335.633,363.429,335.727,362.358,337.293z"/>
				<path style="fill-rule:evenodd;clip-rule:evenodd;fill:#FFFFFF;" d="M371.861,347.093c1.604,0.336,3.158-1.059,4.788-0.098      c0.341,0.201,0.439,0.668,0.222,1c-1.127,1.725-3.754,1.744-5.623,2.255c-1.742,0.475-4.609,2.334-6.26,0.215      c-0.295-0.365-0.313-0.463-0.27-0.714c0.782-1.793,3.108-3.642,4.638-5.464c-2.053-0.072-4.02,2.281-6.095,1.487      c-0.497-0.19-0.624-0.836-0.24-1.204c2.426-2.325,6.318-2.842,9.28-4.124c0.186-0.081,0.401-0.085,0.582,0.006      C375.732,341.892,373.586,344.866,371.861,347.093z"/>
				<path style="fill-rule:evenodd;clip-rule:evenodd;fill:#FFFFFF;" d="M392.663,376.754c-1.052-0.085-2.307-1.704-2.736-2.556      c-0.748-0.688-1.595,0.158-2.148,0.794c-0.169,0.893,1.433,1.721,0.333,2.643c-2.915-4.616-4.633,0.71-7.042-1.443      c2.114-3.463,6.236-4.329,9.252-4.421C392.074,373.4,393.396,375.038,392.663,376.754z"/>
				<path style="fill-rule:evenodd;clip-rule:evenodd;fill:#FFFFFF;" d="M401.722,387.531c0.338-0.11,0.376,0.201,0.497,0.463      c1.072,2.778-0.758,5.654-1.395,8.49c2.382,1.198,6.693,1.592,7.975,4.769c0.108,0.268-0.042,0.589-0.317,0.68      c-2.62,0.864-5.324-0.64-8.02-2.06c-1.147,1.833-0.927,5.368-3.494,6.078c-0.223,0.062-0.464-0.07-0.553-0.284      c-0.969-2.332-0.742-4.707,0.143-7.108c-1.247-0.804-4.109-1.408-4.441-3.22c-0.055-0.299,0.088-0.599,0.345-0.763      c1.525-0.971,3.125,0.126,4.709,0.829C398.449,392.857,398.691,388.644,401.722,387.531z"/>
				<path style="fill-rule:evenodd;clip-rule:evenodd;fill:#FFFFFF;" d="M424.122,422.519c-1.287,0.88-2.925,0.327-3.606-0.852      c-0.53-0.918-0.209-2.034,0.646-2.66c1.342-0.983,3.077-0.193,3.702,1.115C425.27,420.971,424.899,421.987,424.122,422.519z"/>
				<path style="fill-rule:evenodd;clip-rule:evenodd;fill:#FFFFFF;" d="M330.784,356.393c2.568-4.307,8.489-2.86,12.62-0.633      c0.267,0.144,0.601-0.047,0.593-0.35c-0.057-2.194-3.014-4.289-3.208-6.48c-0.081-0.646,0.208-0.925,0.695-0.751      c5.473,2.457,8.833,12.064,1.598,11.282c-1.404-0.155-2.843-1.658-4.653-2.013c-2.793-0.542-5.654,1.023-7.348,0.085      C330.673,357.308,330.545,356.792,330.784,356.393z"/>
				<path style="fill-rule:evenodd;clip-rule:evenodd;fill:#FFFFFF;" d="M420.682,431.015c-0.025,0.381-0.432,0.595-0.762,0.404      c-3.898-2.248-6.844-8.309-7.228-11.684c0-0.616,0.303-0.963,0.946-0.514C417.053,422.214,420.942,427.011,420.682,431.015z"/>
				<path style="fill-rule:evenodd;clip-rule:evenodd;fill:#FFFFFF;" d="M355.591,379.522c0.101-0.238,0.182-0.474,0.266-0.711      c0.502-1.415,1.736-2.491,3.225-2.686c6.778-0.886,6.855,11.211-0.599,10.289c-0.173,0.51-0.525,1.076-0.956,1.654      c-1.183,1.586-2.978,2.608-4.951,2.762c-0.747,0.058-1.452,0.014-2.144-0.28C342.579,387.215,347.84,374.49,355.591,379.522z       M358.516,380.386c-0.388,0.474,0.009,1.307,0.585,1.942c0.409,0.451,1.178,0.45,1.484-0.076      C361.384,380.879,359.912,379.054,358.516,380.386z M350.412,383.074c-0.632,1.166,0.15,3.311,2.312,4.023      c0.167,0.063,0.396,0,0.71-0.268C356.614,383.513,352.232,379.72,350.412,383.074z"/>
				<path style="fill-rule:evenodd;clip-rule:evenodd;fill:#FFFFFF;" d="M411.959,429.186c-0.943,1.177-2.353,0.614-2.881-0.394      c-0.334-0.638-0.115-1.372,0.454-1.814c1.034-0.803,2.386,0.003,2.692,1.102C412.33,428.46,412.206,428.878,411.959,429.186z"/>
				<path style="fill-rule:evenodd;clip-rule:evenodd;fill:#FFFFFF;" d="M366.278,415.812c0.253-3.078,4.304-0.867,6.196-1.431      c-3.567-3.765,1.52-9.149,5.019-8.369c2.751,0.608,3.224,3.183,3.165,5.715c-0.014,0.587-0.192,1.167-0.541,1.639      c-3.578,4.842-8.802,6.336-13.298,3.52C366.459,416.66,366.243,416.236,366.278,415.812z M374.52,410.693      c-0.27,0.66,0.367,1.877,1.51,1.877c0.777-0.83,1.549-1.66,2.326-2.493C377.025,408.784,375.76,409.438,374.52,410.693z"/>
				<path style="fill-rule:evenodd;clip-rule:evenodd;fill:#FFFFFF;" d="M316.427,365.895c-1.322,0.554-3.006,0.521-4.191,1.143      c-0.106,1.291,1.385,2.526,2.066,3.789c1.762-0.077,3.451-2.312,5.261-1.149c1.588,2.799-2.766,4.563-4.865,5.714      c-2.384,1.308-5.405,2.884-7.158,2.182c-1.626-1.947,2.384-4.095,3.687-4.952c-0.777-2.806-3.958-5.003-2.432-7.392      c1.244-1.936,4.641-2.16,7.393-1.616C317.35,363.844,317.52,365.438,316.427,365.895z"/>
				<path style="fill-rule:evenodd;clip-rule:evenodd;fill:#FFFFFF;" d="M396.417,437.18c-0.444,1.622-2.095,2.208-3.253,3.49      c-0.149,1.373,1.796,2.671-0.101,4.105c-0.806-0.046-2.389-1.52-2.49-2.326c-1.767,0.022-3.485,1.496-5.266,1.146      c-1.622-1.371,1.767-3.994,2.973-4.684c0.15-0.888-0.873-1.737-0.333-2.64c0.825-1.149,2.529-0.012,2.693,1.11      C392.566,437.436,394.415,434.967,396.417,437.18z"/>
				<path style="fill-rule:evenodd;clip-rule:evenodd;fill:#FFFFFF;" d="M335.767,402.05c-1.757-1.256-2.699-5.478-5.085-3.822      c1.174,2.318,1.957,4.648,1.852,7.011c-0.037,0.827-0.382,1.617-0.963,2.206c-4.343,4.405-10.846-4.598-8.947-8.414      c0.166-0.334,0.593-0.427,0.901-0.216c2.188,1.5,2.748,5,4.716,6.67c0.432,0.366,1.106,0.17,1.329-0.35      c1.31-3.061-3.466-5.905-2.575-8.95c2.123-1.424,4.281-1.648,6.457-1.428c1.693,2.161,2.763,4.338,3.381,6.535      C337.012,401.927,336.304,402.434,335.767,402.05z"/>
				<path style="fill-rule:evenodd;clip-rule:evenodd;fill:#FFFFFF;" d="M353.536,429.089c-1.039-0.966-1.694-3.188-3.582-3.56      c1.202,2.604,1.168,6.858-2.602,8.292c-2.403,0.915-6.043-1.742-6.665-4.349c-1.788-7.515,15.15-10.365,13.645-0.684      C354.273,429.169,353.818,429.352,353.536,429.089z M346.323,426.401c-0.247-0.326-0.686-0.463-1.065-0.31      c-1.239,0.5-1.367,1.594-1.231,2.298c0.042,0.538,0.785,1.376,1.481,1.811c0.403,0.252,0.953,0.181,1.233-0.204      C347.613,428.798,346.967,427.252,346.323,426.401z"/>
				<path style="fill-rule:evenodd;clip-rule:evenodd;fill:#FFFFFF;" d="M292.231,383.657c0.538,0.283,0.726,0.954,0.445,1.493      c-1.047,2.014-3.706,3.631-5.678,4.951c-1.699,1.135-3.989,3.054-5.836,2.577c-0.675-0.174-1.026-0.957-0.668-1.555      c1.589-2.657,5.474-3.765,8.16-5.568c0.495-0.332,0.407-1.078-0.146-1.301c-1.266-0.511-3.143-0.387-4.654-1.361      c-0.364-0.235-0.253-0.81,0.166-0.921C286.713,381.259,289.463,382.201,292.231,383.657z"/>
				<path style="fill-rule:evenodd;clip-rule:evenodd;fill:#FFFFFF;" d="M359.993,450.742c0.155-0.645,0.276-1.055,1.182-0.763      c2.592,1.091,8.19,8.043,6.13,9.916C364.872,462.108,359.288,453.619,359.993,450.742z"/>
				<path style="fill-rule:evenodd;clip-rule:evenodd;fill:#FFFFFF;" d="M300.87,414.696c0.57,2.16,3.151,4.254,2.461,6.458      c-0.181,0.577-0.857,0.845-1.385,0.551c-2.893-1.611-4.636-5.573-5.309-8.387c-0.131-0.548,0.116-1.137,0.625-1.38      c3.071-1.47,6.298,1.692,9.413,1.61c0.303-0.008,0.591-0.187,0.736-0.453c0.242-0.444,0.215-0.878,0.16-1.312      c-0.067-0.533-0.406-1.013-0.91-1.198c-0.511-0.187-1.061-0.264-1.475-0.47c-0.499-0.248-0.447-0.991,0.075-1.185      c4.023-1.487,6.926,3.948,3.119,6.713C306.077,417.32,303.693,414.887,300.87,414.696z"/>
				<path style="fill-rule:evenodd;clip-rule:evenodd;fill:#FFFFFF;" d="M323.221,444.231c-0.181-0.074-0.4,0.019-0.434,0.212      c-0.253,1.427,0.54,2.393-0.266,3.505c-3.386,4.658-11.326-3.061-8.06-6.983c0.354-0.425,1.035-0.375,1.271,0.125      c0.854,1.811,1.475,4.413,3.373,5.102c0.399,0.145,0.871-0.122,0.918-0.545c0.206-1.862-2.139-3.64-0.904-5.541      c1.79-1.658,3.764,2.08,5.598,1.494c0.569-1.129-1.705-2.161-2.259-3.253c-0.193-0.38,0.028-0.82,0.44-0.926      C328.029,436.103,328.787,446.498,323.221,444.231z"/>
				<path style="fill-rule:evenodd;clip-rule:evenodd;fill:#FFFFFF;" d="M264.807,396.902c7.486,5.032-5.333,13.263-10.048,9.269      C248.446,400.823,259.927,393.615,264.807,396.902z M257.812,403.838c1.733,0.371,3.824-0.662,4.895-2.423      c0.247-0.406,0.137-0.96-0.282-1.186c-1.358-0.734-4.006,0.479-5.182,2.362C256.94,403.076,257.253,403.718,257.812,403.838z"/>
				<path style="fill-rule:evenodd;clip-rule:evenodd;fill:#FFFFFF;" d="M277.799,423.939c8.012,4.001-4.783,11.851-8.234,5.833      c-0.888-1.549,0.232-3.555,1.762-4.884C273.277,423.191,276.294,423.188,277.799,423.939z M273.383,428.674      c0.449,0.576,2.413,0.01,3.591-0.847c0.288-0.227,0.306-0.73-0.034-0.965C275.879,426.627,273.043,427.644,273.383,428.674z"/>
				<path style="fill-rule:evenodd;clip-rule:evenodd;fill:#FFFFFF;" d="M282.452,432.94c7.515,4.088-4.069,12.838-8.417,7.527      C270.343,435.959,278.683,430.889,282.452,432.94z M277.576,439.271c1.414,0.032,3.048-0.463,3.935-1.949      c0.28-0.47,0.071-1.102-0.432-1.316c-1.564-0.666-3.884,0.491-4.406,2.014C276.46,438.64,276.921,439.256,277.576,439.271z"/>
				<path style="fill-rule:evenodd;clip-rule:evenodd;fill:#FFFFFF;" d="M325.325,481.31c-2.199-1.041-3.715-4.163-4.008-6.31      c-0.063-0.461,0.165-0.932,0.584-1.135c3.234-1.564,6.615,4.383,4.764,7.114C326.378,481.404,325.789,481.53,325.325,481.31z"/>
				<path style="fill-rule:evenodd;clip-rule:evenodd;fill:#FFFFFF;" d="M316.837,479.014c1.484,1.049,4.94,6.215,2.938,7.848      c-2.761,2.263-7.664-6.368-5.584-8.002C315.363,477.941,315.727,478.23,316.837,479.014z"/>
				<path style="fill-rule:evenodd;clip-rule:evenodd;fill:#FFFFFF;" d="M384.323,365.709c1.366-0.015,2.688-1.291,4.069-0.862      c1.318,1.721,3.523,3.41,2.109,5.232c-1.583-0.186-1.781-2.08-3.239-3.024c-3.157,0.293-1.115,2.265-1.327,3.422      c-0.542,0.615-1.444-0.226-2.17-0.953c-0.34-0.341-0.895-0.383-1.257-0.067c-1.127,0.985-1.995,2.52-3.315,1.257      c-0.034-1.549,1.728-2.659,3.002-3.724c-3.9,1.713-9.855-2.099-6.723-6.279C378.931,356.095,388.126,359.034,384.323,365.709z       M378.353,363.556c1.108,0.462,2.21,0.766,3.27-0.025c0.322-0.241,0.365-0.712,0.099-1.013      c-0.856-0.968-2.829-1.047-3.654,0.003C377.795,362.868,377.946,363.387,378.353,363.556z"/>
			</g>
		</g>
	</g>
</g>















</svg>
