<svg height="512" viewBox="0 0 64 64" width="512" xmlns="http://www.w3.org/2000/svg"><g id="Layer_32" data-name="Layer 32"><path d="m47 17 6 22h-22z" fill="#faaf42"/><circle cx="47" cy="17" fill="#fcab68" r="2"/><path d="m17 17-6 22h22z" fill="#faaf42"/><path d="m59 22-10.482 8.236a4 4 0 0 1 -5.873-1.04l-10.645-17.196-10.645 17.2a4 4 0 0 1 -5.873 1.04l-10.482-8.24h-2l8 17h42l8-17z" fill="#f8c460"/><path d="m10.838 32.406-4.345-9.233-1.493-1.173h-2l8 17h42l.941-2h-35.864a8 8 0 0 1 -7.239-4.594z" fill="#faaf42"/><rect fill="#fcab68" height="3" rx="1.5" width="46" x="9" y="52"/><rect fill="#fcab68" height="3" rx="1.5" width="46" x="9" y="39"/><path d="m11 42h42v10h-42z" fill="#f8c460"/><path d="m14 45v-3h-3v10h42v-3h-35a4 4 0 0 1 -4-4z" fill="#faaf42"/><circle cx="32" cy="12" fill="#fcab68" r="3"/><circle cx="17" cy="17" fill="#fcab68" r="2"/><circle cx="4" cy="22" fill="#fcab68" r="3"/><circle cx="60" cy="22" fill="#fcab68" r="3"/><g fill="#f96464"><path d="m32 21-3 6 3 6 3-6z"/><circle cx="24" cy="47" r="2"/><circle cx="16" cy="47" r="2"/><circle cx="32" cy="47" r="2"/><circle cx="40" cy="47" r="2"/><circle cx="48" cy="47" r="2"/></g><path d="m64 22a4 4 0 0 0 -8 0 3.953 3.953 0 0 0 .135.979l-5.326 4.185-2.1-7.7a3 3 0 1 0 -4.179-.764l-3.894 5.354-5.752-9.292a4 4 0 1 0 -5.768 0l-5.752 9.288-3.894-5.35a3 3 0 1 0 -4.178.764l-2.1 7.7-5.327-4.185a3.953 3.953 0 0 0 .135-.979 4 4 0 1 0 -4.234 3.976l5.753 12.224a2.5 2.5 0 0 0 .481 4.749v8.1a2.5 2.5 0 0 0 .5 4.951h43a2.5 2.5 0 0 0 .5-4.949v-8.1a2.5 2.5 0 0 0 .481-4.747l5.754-12.226a3.992 3.992 0 0 0 3.765-3.978zm-4-2a2 2 0 1 1 -2 2 2 2 0 0 1 2-2zm-13-4a1 1 0 1 1 -1 1 1 1 0 0 1 1-1zm-.846 3.864a2.969 2.969 0 0 0 .622.113l2.324 8.528-1.2.945a3 3 0 0 1 -4.4-.78l-1.723-2.783zm-14.154-9.864a2 2 0 1 1 -2 2 2 2 0 0 1 2-2zm-15 6a1 1 0 1 1 -1 1 1 1 0 0 1 1-1zm.224 3.977a2.969 2.969 0 0 0 .622-.113l4.381 6.022-1.727 2.784a3 3 0 0 1 -4.4.78l-1.2-.944zm-2.36 11.045a5 5 0 0 0 3.091 1.069 5.1 5.1 0 0 0 .87-.076 5.007 5.007 0 0 0 3.38-2.292l8.618-13.923a3.615 3.615 0 0 0 2.354 0l8.623 13.923a5.007 5.007 0 0 0 3.38 2.292 5.1 5.1 0 0 0 .87.076 5.009 5.009 0 0 0 3.091-1.069l7.977-6.267a4 4 0 0 0 1.105.807l-5.858 12.438h-40.73l-5.853-12.438a4.016 4.016 0 0 0 1.1-.807zm-12.864-9.022a2 2 0 1 1 2 2 2 2 0 0 1 -2-2zm50 29h-40v-8h40zm1.5 3h-43a.5.5 0 0 1 0-1h43a.5.5 0 0 1 0 1zm0-13h-43a.5.5 0 0 1 0-1h43a.5.5 0 0 1 0 1z"/><path d="m31.105 33.447a1 1 0 0 0 1.79 0l3-6a1 1 0 0 0 0-.894l-3-6a1.042 1.042 0 0 0 -1.79 0l-3 6a1 1 0 0 0 0 .894zm.895-10.211 1.882 3.764-1.882 3.764-1.882-3.764z"/><path d="m24 50a3 3 0 1 0 -3-3 3 3 0 0 0 3 3zm0-4a1 1 0 1 1 -1 1 1 1 0 0 1 1-1z"/><path d="m16 50a3 3 0 1 0 -3-3 3 3 0 0 0 3 3zm0-4a1 1 0 1 1 -1 1 1 1 0 0 1 1-1z"/><path d="m32 50a3 3 0 1 0 -3-3 3 3 0 0 0 3 3zm0-4a1 1 0 1 1 -1 1 1 1 0 0 1 1-1z"/><path d="m40 50a3 3 0 1 0 -3-3 3 3 0 0 0 3 3zm0-4a1 1 0 1 1 -1 1 1 1 0 0 1 1-1z"/><path d="m48 50a3 3 0 1 0 -3-3 3 3 0 0 0 3 3zm0-4a1 1 0 1 1 -1 1 1 1 0 0 1 1-1z"/></g></svg>