<?xml version="1.0" encoding="UTF-8"?>
<!-- Generator: Adobe Illustrator 26.0.1, SVG Export Plug-In . SVG Version: 6.00 Build 0)  -->
<svg xmlns="http://www.w3.org/2000/svg" xmlns:xlink="http://www.w3.org/1999/xlink" version="1.1" id="Capa_1" x="0px" y="0px" viewBox="0 0 512 512" style="enable-background:new 0 0 512 512;" xml:space="preserve" width="512" height="512">
<path d="M194.403,176.227l-67.021,159.926H83.638L50.68,208.536c-2.029-7.871-3.763-10.734-9.847-14.076  C30.867,189.072,14.474,184.017,0,180.87l1.013-4.642h70.379c8.976,0,17.046,5.987,19.075,16.308l17.427,92.562l43.044-108.87  H194.403z M365.749,283.915c0.194-42.186-58.373-44.482-57.952-63.355c0.114-5.761,5.574-11.857,17.532-13.396  c5.938-0.79,22.279-1.369,40.8,7.134l7.259-33.898c-9.965-3.617-22.774-7.081-38.694-7.081c-40.889,0-69.674,21.749-69.917,52.868  c-0.268,23.013,20.537,35.854,36.23,43.518c16.114,7.842,21.502,12.849,21.445,19.882c-0.106,10.734-12.857,15.425-24.751,15.636  c-20.805,0.324-32.872-5.622-42.509-10.11l-7.49,35.063c9.652,4.432,27.525,8.28,46.021,8.507  C337.182,338.681,365.612,317.164,365.749,283.915 M473.728,336.154H512l-33.395-159.926h-35.331  c-7.939,0-14.632,4.63-17.613,11.723l-62.042,148.203h43.425l8.62-23.884h53.082L473.728,336.154z M427.564,279.491l21.785-60.049  l12.533,60.049H427.564z M253.525,176.227l-34.23,159.926h-41.379l34.238-159.926H253.525z"/>















</svg>
