<svg id="Layer_1" enable-background="new 0 0 152 152" height="512" viewBox="0 0 152 152" width="512" xmlns="http://www.w3.org/2000/svg" xmlns:xlink="http://www.w3.org/1999/xlink"><linearGradient id="lg1"><stop offset="0" stop-color="#fae100"/><stop offset=".15" stop-color="#fcb720"/><stop offset=".3" stop-color="#ff7950"/><stop offset=".5" stop-color="#ff1c74"/><stop offset="1" stop-color="#6c1cd1"/></linearGradient><linearGradient id="SVGID_1_" gradientUnits="userSpaceOnUse" x1="21.441" x2="130.559" xlink:href="#lg1" y1="21.441" y2="130.559"/><linearGradient id="SVGID_2_" gradientUnits="userSpaceOnUse" x1="52.416" x2="99.408" xlink:href="#lg1" y1="52.418" y2="99.41"/><linearGradient id="SVGID_3_" gradientUnits="userSpaceOnUse" x1="105.559" x2="116.742" xlink:href="#lg1" y1="35.242" y2="46.425"/><g id="Icon"><path d="m105.2 11h-58.4c-19.9 0-35.8 15.9-35.8 35.8v58.5c0 19.8 15.9 35.8 35.8 35.8h58.5c19.8 0 35.8-15.9 35.8-35.8v-58.5c-.1-19.9-16-35.8-35.9-35.8zm24.4 89.1c0 16.2-13.2 29.6-29.6 29.6h-48c-16.2 0-29.6-13.2-29.6-29.6v-48.1c0-16.2 13.2-29.6 29.6-29.6h48.3c16.2 0 29.6 13.2 29.6 29.6v48.1z" fill="url(#SVGID_1_)"/><path d="m99.7 52.6-.3-.3-.3-.3c-6.2-6.2-14.5-9.6-23.1-9.6-18.4.1-33.3 15.2-33.2 33.6 0 8.9 3.6 17.4 9.8 23.7 6.2 6.3 14.6 9.8 23.4 9.8 18.5-.3 33.3-15.8 33-34.5-.2-8.3-3.4-16.4-9.3-22.4zm-23.7 45.5c-12.2.2-22.1-9.6-22.3-21.8s9.6-22.1 21.8-22.3 22.1 9.6 22.3 21.8v.3c0 11.9-9.8 21.8-21.8 22z" fill="url(#SVGID_2_)"/><path d="m118.9 40.9c0 4.4-3.4 8-7.8 8-2.1 0-4.1-.8-5.5-2.3-3.1-3.1-3.1-8.3.2-11.4 1.5-1.5 3.4-2.3 5.5-2.3 1.8 0 3.6.7 5 1.8l.2.2c.3.2.5.5.7.7l.2.2c.8 1.4 1.5 3.2 1.5 5.1z" fill="url(#SVGID_3_)"/></g></svg>