<svg id="Flat" viewBox="0 0 64 64" xmlns="http://www.w3.org/2000/svg"><path d="m57.59 5.86c-.32-.76-1.35-.86-1.83-.19-2.98 4.13-7.99 3.53-7.99 3.53-6.59-1.37-9.37 4.49-9.37 4.49-1.31 3-1.32 5.36-.75 7.19 0 0 .02.01.03.02.27 3.88 2.33 5.43 5.52 5.52 8.13 3.01 13.36-4.92 13.36-4.92 4.1-6.19 2.32-12.6 1.03-15.65z" fill="#a26a55"/><path d="m34.31 24.42-26.91 24.46c-.91.83-1.64 1.84-2.05 3-.8 2.23-.61 4.46 1.3 6.37 1.56 1.56 3.29 1.94 5.1 1.6 1.56-.29 2.95-1.18 4.02-2.35l24.66-26.95c-1.13-3.18-2.95-5.5-6.12-6.12z" fill="#d85264"/><path d="m56.56 21.5s-.14.22-.42.57h-.01s-2.18 1.2-3.13-2.33c-.26-.94-.65-2.32-1.68-3.35-.74-.74-1.81-1.14-3.17-1.31-1.1-.14-1.87-1.13-1.69-2.22l.62-3.78c.23.03.46.07.69.12 0 0 5.02.6 7.99-3.53.49-.67 1.51-.57 1.83.19 1.28 3.04 3.07 9.45-1.03 15.64z" fill="#d88852"/><rect fill="#d3dce5" height="12.13" rx="1.57" transform="matrix(.707 -.707 .707 .707 -6.78 35.22)" width="4.87" x="36.69" y="19.73"/><rect fill="#d3dce5" height="12.13" rx="1.57" transform="matrix(.707 -.707 .707 .707 -6.78 35.22)" width="4.87" x="36.69" y="19.73"/><path d="m34.3 24.41-6.1 5.55 6.67 6.67 5.57-6.08z" fill="#b8c3d5"/></svg>