<svg id="Capa_1" enable-background="new 0 0 453.54 453.54" height="512" viewBox="0 0 453.54 453.54" width="512" xmlns="http://www.w3.org/2000/svg"><g><g><path d="m381.063 276.061c8-6.636-.942-10.252-6.324-17.848-5.348-7.548-8.792-14.459-9.334-23.389-.986-16.238 6.79-32.824-1.477-48.279-8.535-15.958-22.188-23.926-23.816-42.028-1.611-17.9 5.009-34.606 3.342-52.503-1.495-16.032-10.789-36.462-20.1-50.265-9.472-14.038-24.69-24.657-42.5-31.673-16.864-6.643-36.052-10.053-54.883-10.078-18.832.025-38.018 3.435-54.883 10.078-17.81 7.016-33.027 17.635-42.498 31.673-9.312 13.803-18.606 34.232-20.1 50.265-1.669 17.896 4.951 34.603 3.34 52.503-1.629 18.103-15.28 26.07-23.815 42.028-8.267 15.455-.49 32.041-1.477 48.279-.544 8.93-3.986 15.841-9.335 23.389-5.382 7.596-14.326 11.212-6.326 17.848.001 0 158.914 65.967 310.186 0z" fill="#6d4176"/></g><g><path d="m432.356 453.542c1.9-51.372-30.453-71.13-30.453-71.13l-136.307-77.057h-77.657l-136.304 77.057s-32.353 19.758-30.451 71.13z" fill="#f9c5b8"/></g><g><path d="m178.245 315.322h97.049c-21.503-11.611-15.708-56.25-15.708-56.25h-65.633s5.795 44.639-15.708 56.25z" fill="#f9c5b8"/></g><g><path d="m192.608 292.632c23.188-2.647 45.882-10.42 66.279-21.909.08-6.854.699-11.65.699-11.65h-65.633c0-.001 2.276 17.59-1.345 33.559z" fill="#f5a997"/></g><g><g><path d="m339.97 159.626c-2.043 15.789-10.977 27.514-19.955 26.187-8.979-1.328-14.6-15.204-12.559-30.993 2.043-15.789 10.978-27.514 19.956-26.187 8.98 1.327 14.6 15.203 12.558 30.993z" fill="#f5a997"/></g><g><g><path d="m319.888 174.09c-1.217 0-2.325-.827-2.629-2.063-2.238-9.06-3.255-19.797 6.17-30.729.978-1.135 2.689-1.259 3.823-.283 1.134.978 1.261 2.689.283 3.822-8.182 9.491-6.878 18.342-5.014 25.892.359 1.453-.527 2.923-1.981 3.28-.219.054-.438.081-.652.081z" fill="#e9837b"/></g><g><path d="m328.998 158.354c-.168 0-.337-.016-.508-.048-4.348-.823-8.832-.006-8.877.001-1.478.267-2.887-.693-3.164-2.163-.276-1.469.688-2.885 2.156-3.164.223-.042 5.509-1.023 10.896 0 1.471.279 2.437 1.698 2.157 3.169-.247 1.299-1.384 2.205-2.66 2.205z" fill="#e9837b"/></g></g></g><g><g><path d="m113.568 159.626c2.043 15.789 10.978 27.514 19.956 26.187 8.978-1.328 14.6-15.204 12.559-30.993-2.043-15.789-10.978-27.514-19.956-26.187s-14.601 15.203-12.559 30.993z" fill="#f5a997"/></g><g><g><path d="m133.65 174.09c-.215 0-.433-.026-.651-.081-1.454-.357-2.341-1.827-1.982-3.28 1.864-7.55 3.168-16.4-5.014-25.892-.978-1.133-.851-2.845.283-3.822 1.131-.977 2.843-.853 3.823.283 9.425 10.933 8.407 21.67 6.17 30.729-.304 1.236-1.411 2.063-2.629 2.063z" fill="#e9837b"/></g><g><path d="m134.433 158.354c-.166 0-.335-.016-.505-.047-.077-.014-4.544-.822-8.877-.001-1.463.28-2.889-.687-3.168-2.157-.28-1.471.686-2.889 2.157-3.169 5.387-1.023 10.675-.043 10.896 0 1.471.28 2.437 1.698 2.157 3.169-.247 1.299-1.384 2.205-2.66 2.205z" fill="#e9837b"/></g></g></g><g><path d="m317.704 121.793c-1.609-45.045-29.255-100.69-85.941-100.385h-5.792-5.792c-56.688-.306-84.332 55.34-85.941 100.385-1.62 45.274 12.262 97.489 40.459 125.259 13.218 13.017 33.272 19.277 51.273 19.591 18-.313 38.055-6.574 51.273-19.591 28.198-27.77 42.078-79.985 40.461-125.259z" fill="#f9c5b8"/></g><g><path d="m360.332 453.542c-1.134-30.654-1.63-61.563 6.646-90.898l-64.846-36.659c-.531 29.96-6.797 62.339-32.109 80.266-11.521 8.161-25.645 11.223-39.71 11.385v-.144c-1.172.063-2.345.103-3.521.128-1.177-.025-2.35-.064-3.522-.128v.144c-14.065-.162-28.187-3.224-39.709-11.385-25.313-17.927-31.579-50.306-32.11-80.266l-64.846 36.659c8.276 29.335 7.78 60.244 6.646 90.898z" fill="#77569f"/></g><g><g><g><path d="m207.439 175.589c0 5.512-9.839 9.983-21.978 9.983-12.138 0-21.978-4.472-21.978-9.983 0-5.518 9.839-9.988 21.978-9.988s21.978 4.47 21.978 9.988z" fill="#f6afa8"/></g><g><path d="m288.458 175.589c0 5.512-9.839 9.983-21.978 9.983s-21.978-4.472-21.978-9.983c0-5.518 9.839-9.988 21.978-9.988 12.138 0 21.978 4.47 21.978 9.988z" fill="#f6afa8"/></g></g><g><g><ellipse cx="189.89" cy="149.691" fill="#2a2d6b" rx="7.227" ry="13.614"/></g><g><ellipse cx="262.052" cy="149.691" fill="#2a2d6b" rx="7.227" ry="13.614"/></g></g><g><path d="m227.838 204.497c-.344 0-.692-.066-1.03-.204-5.829-2.398-9.003-5.093-9.987-8.479-1.297-4.468 1.548-8.494 4.562-12.758 1.886-2.669 3.837-5.429 4.785-8.316.468-1.421 1.996-2.193 3.421-1.729 1.421.467 2.196 1.999 1.729 3.421-1.203 3.66-3.49 6.897-5.509 9.753-2.237 3.167-4.351 6.157-3.782 8.117.326 1.12 1.777 2.894 6.844 4.978 1.384.57 2.044 2.154 1.476 3.538-.431 1.046-1.443 1.679-2.509 1.679z" fill="#e9837b"/></g><g><path d="m254.807 215.307s-25.117 34.861-57.673 0z" fill="#fff"/></g><g><g><g><path d="m285.334 128.647c-11.517-16.362-35.642-13.863-42.257-7.394 0 0-1.281 6.173.067 6.108 19.004-6.994 36.544-.529 42.132 2.485.877.104.058-1.199.058-1.199z" fill="#6d4176"/></g></g><g><g><path d="m166.607 128.647c11.517-16.362 35.642-13.863 42.258-7.394 0 0 1.281 6.173-.067 6.108-19.004-6.994-36.544-.529-42.132 2.485-.877.104-.059-1.199-.059-1.199z" fill="#6d4176"/></g></g></g></g><g><path d="m137.151 170.239c-5.207-19.014-2.721-33.397-10.568-41.606 0 0-36.373-127.532 107.227-128.635 0 0 46.883.962 58.432 18.242 65.878 39.895 36.025 110.393 36.025 110.393-12.851.854-5.475 35.085-14.769 41.465-1.214-24.334 3.063-47.813-17.917-64.019-18.373-14.192-27.353-29.755-27.353-51.783-13.789 13.069-40.59 1.273-51.555 19.077-8.105 13.163-14.618 28.385-31.834 31.877-18.449 3.743-36.195-4.72-44.229 14.874.032 48.7-3.459 50.115-3.459 50.115" fill="#6d4176"/></g></g></svg>