<svg id="Capa_1" enable-background="new 0 0 453.54 453.54" height="512" viewBox="0 0 453.54 453.54" width="512" xmlns="http://www.w3.org/2000/svg"><path d="m273.67 134.021c7.85 5.375 11.788 19.184 13.333 27.998 1.922 10.961-2.667 21.098-1.331 32.002 1.255 10.232 8.552 17.291 12.663 26.701 5.002 11.451 3.135 20.313-1.831 31.333-4.367 9.692-8.502 18.954-4.333 29.463 4.321 10.894 15.268 12.622 23.351 19.982 13.759 12.526 27.657 40.804 2.114 47.167-20.629 5.14-45.098 3.803-66.667 4.652-7.893.311-17.303 2.662-24.199-1.11-6.896 3.772-16.306 1.421-24.198 1.11-21.569-.85-46.038.487-66.667-4.652-25.543-6.363-11.645-34.641 2.114-47.167 8.083-7.36 19.029-9.089 23.351-19.982 4.169-10.509.034-19.771-4.333-29.463-4.966-11.02-6.833-19.882-1.831-31.333 4.111-9.411 11.408-16.469 12.663-26.701 1.336-10.905-3.253-21.042-1.331-32.002 1.545-8.814 5.483-22.623 13.333-27.998-.001 0 41.946-20.666 93.799 0z" fill="#6078ba"/><g><g><path d="m430.865 453.542c1.889-51.002-30.232-70.613-30.232-70.613l-135.316-76.5h-77.096l-135.314 76.5s-32.119 19.611-30.23 70.613z" fill="#f9c5b8"/></g><g><path d="m178.596 316.325h96.348c-21.348-11.529-15.594-55.842-15.594-55.842h-65.158c-.001 0 5.751 44.313-15.596 55.842z" fill="#f9c5b8"/></g><g><path d="m192.855 293.798c23.021-2.627 45.549-10.342 65.801-21.75.076-6.805.693-11.564.693-11.564h-65.158c0-.001 2.26 17.46-1.336 33.314z" fill="#f5a997"/></g><g><g><path d="m339.15 161.757c-2.029 15.674-10.896 27.314-19.811 25.997-8.912-1.318-14.494-15.093-12.469-30.768 2.029-15.675 10.9-27.314 19.813-25.997 8.915 1.318 14.495 15.093 12.467 30.768z" fill="#f5a997"/></g><g><g><path d="m319.213 176.116c-1.209 0-2.307-.82-2.611-2.047-2.221-8.995-3.229-19.654 6.129-30.507.969-1.124 2.67-1.251 3.795-.281 1.123.971 1.25 2.67.279 3.795-8.123 9.422-6.828 18.208-4.979 25.704.357 1.442-.523 2.901-1.967 3.256-.216.053-.433.08-.646.08z" fill="#e9837b"/></g><g><path d="m328.258 160.495c-.168 0-.338-.016-.508-.048-4.314-.816-8.768-.007-8.813.001-1.461.27-2.863-.688-3.139-2.147-.275-1.458.682-2.864 2.139-3.141.221-.044 5.463-1.019 10.818 0 1.459.276 2.418 1.685 2.141 3.145-.244 1.29-1.373 2.19-2.638 2.19z" fill="#e9837b"/></g></g></g><g><g><path d="m114.391 161.757c2.029 15.674 10.896 27.314 19.809 25.997 8.914-1.318 14.494-15.093 12.469-30.768-2.027-15.675-10.898-27.314-19.813-25.997-8.913 1.318-14.495 15.093-12.465 30.768z" fill="#f5a997"/></g><g><g><path d="m134.328 176.116c-.215 0-.432-.025-.646-.08-1.443-.355-2.324-1.814-1.969-3.256 1.852-7.496 3.145-16.282-4.979-25.704-.969-1.125-.844-2.824.281-3.795 1.127-.971 2.828-.844 3.795.281 9.357 10.853 8.348 21.512 6.127 30.507-.302 1.226-1.4 2.047-2.609 2.047z" fill="#e9837b"/></g><g><path d="m125.283 160.495c-1.268 0-2.395-.9-2.641-2.19-.275-1.46.682-2.869 2.141-3.145 5.352-1.017 10.6-.044 10.82 0 1.459.277 2.416 1.686 2.141 3.145-.279 1.46-1.697 2.412-3.143 2.143-.076-.014-4.51-.816-8.813-.001-.169.032-.339.048-.505.048z" fill="#e9837b"/></g></g></g><g><path d="m317.045 124.199c-1.598-44.718-29.043-99.96-85.318-99.657h-5.748-5.75c-56.277-.303-83.721 54.939-85.318 99.657-1.607 44.946 12.172 96.783 40.166 124.351 13.123 12.922 33.031 19.137 50.902 19.447 17.867-.311 37.779-6.525 50.898-19.447 27.994-27.569 41.773-79.405 40.168-124.351z" fill="#f9c5b8"/></g><g><path d="m359.365 453.542c-1.129-30.432-1.619-61.115 6.598-90.24l-64.379-36.393c-.525 29.742-6.748 61.887-31.875 79.686-11.439 8.1-25.459 11.137-39.422 11.299v-.141c-1.162.063-2.33.102-3.496.127-1.166-.025-2.334-.064-3.496-.127v.141c-13.963-.162-27.982-3.199-39.422-11.299-25.127-17.799-31.35-49.943-31.875-79.686l-64.379 36.393c8.217 29.125 7.727 59.809 6.598 90.24z" fill="#382e6a"/></g><g><g><g><path d="m207.582 177.604c0 5.473-9.77 9.912-21.82 9.912-12.049 0-21.816-4.439-21.816-9.912 0-5.477 9.768-9.916 21.816-9.916 12.051 0 21.82 4.439 21.82 9.916z" fill="#f6afa8"/></g><g><path d="m288.012 177.604c0 5.473-9.768 9.912-21.82 9.912-12.049 0-21.816-4.439-21.816-9.912 0-5.477 9.768-9.916 21.816-9.916 12.052 0 21.82 4.439 21.82 9.916z" fill="#f6afa8"/></g></g><g><g><ellipse cx="190.158" cy="151.895" fill="#2a2d6b" rx="7.176" ry="13.515"/></g><g><path d="m268.971 151.895c0 7.464-3.213 13.515-7.172 13.515-3.963 0-7.176-6.051-7.176-13.515 0-7.465 3.213-13.514 7.176-13.514 3.959 0 7.172 6.049 7.172 13.514z" fill="#2a2d6b"/></g></g><g><path d="m227.83 206.303c-.34 0-.688-.066-1.021-.203-5.787-2.381-8.939-5.056-9.916-8.417-1.287-4.436 1.537-8.433 4.529-12.665 1.873-2.649 3.809-5.389 4.75-8.256.463-1.411 1.986-2.175 3.396-1.717 1.412.464 2.18 1.985 1.717 3.397-1.193 3.633-3.465 6.847-5.469 9.682-2.223 3.144-4.318 6.113-3.756 8.058.324 1.112 1.766 2.873 6.795 4.941 1.375.566 2.029 2.138 1.463 3.513-.425 1.038-1.429 1.667-2.488 1.667z" fill="#e9837b"/></g><g><path d="m254.605 217.035s-24.934 34.609-57.254 0z" fill="#fff"/></g><g><g><g><path d="m284.912 131.003c-11.436-16.244-35.387-13.763-41.953-7.34 0 0-1.271 6.128.068 6.063 18.865-6.943 36.277-.525 41.824 2.468.874.103.061-1.191.061-1.191z" fill="#6078ba"/></g></g><g><g><path d="m167.045 131.003c11.432-16.244 35.383-13.763 41.951-7.34 0 0 1.271 6.128-.066 6.063-18.867-6.943-36.279-.525-41.828 2.468-.87.103-.057-1.191-.057-1.191z" fill="#6078ba"/></g></g></g></g><g><path d="m312.869 168.864c9.229-6.334 1.906-36.626 14.662-37.476 0 0 29.637-73.676-35.764-113.281-11.462-17.154-58.007-18.108-58.007-18.108-142.559 1.094-106.447 129.83-106.447 129.83 7.787 8.15 5.32 20.301 10.488 39.176 0 0 14.383-33.331 17.072-76.382 0 0 90.967-5.381 114.098-44.845 0 0 33.006 10.763 37.484 50.227 0-.002-.057 55.259 6.414 70.859z" fill="#6078ba"/></g></g></svg>