<svg id="Capa_1" enable-background="new 0 0 453.54 453.54" height="512" viewBox="0 0 453.54 453.54" width="512" xmlns="http://www.w3.org/2000/svg"><g><g><g><path d="m141.349 172.383s-12.115 54.688 32.781 83.866v-82.98z" fill="#382e6a"/></g><g><path d="m310.712 172.383s12.115 54.688-32.779 83.866v-82.98z" fill="#382e6a"/></g></g><g><path d="m417.003 453.542c1.76-47.535-28.18-65.817-28.18-65.817l-126.125-71.303h-71.859l-126.123 71.303s-29.939 18.282-28.178 65.817z" fill="#ba6b4b"/></g><g><path d="m181.868 325.646h89.803c-19.896-10.745-14.535-52.05-14.535-52.05h-60.732c-.001 0 5.361 41.304-14.536 52.05z" fill="#ba6b4b"/></g><g><path d="m195.159 304.648c21.459-2.449 42.455-9.641 61.33-20.273.072-6.342.646-10.779.646-10.779h-60.732s2.106 16.275-1.244 31.052z" fill="#b05844"/></g><g><g><path d="m331.517 181.576c-1.891 14.609-10.156 25.458-18.463 24.23-8.309-1.229-13.51-14.068-11.623-28.679 1.891-14.61 10.16-25.459 18.467-24.231 8.308 1.229 13.509 14.069 11.619 28.68z" fill="#b05844"/></g><g><g><path d="m312.935 194.959c-1.127 0-2.15-.765-2.434-1.908-2.07-8.384-3.012-18.319 5.711-28.435.904-1.048 2.488-1.166 3.537-.263 1.049.905 1.166 2.488.262 3.538-7.572 8.781-6.365 16.971-4.641 23.958.332 1.344-.488 2.703-1.834 3.035-.201.051-.402.075-.601.075z" fill="#853d30"/></g><g><path d="m321.364 180.398c-.156 0-.314-.015-.473-.045-4.023-.761-8.172-.007-8.215.001-1.365.251-2.668-.642-2.926-2.001-.256-1.359.635-2.67 1.994-2.928.205-.041 5.096-.949 10.084 0 1.359.258 2.254 1.57 1.996 2.932-.227 1.203-1.28 2.041-2.46 2.041z" fill="#853d30"/></g></g></g><g><g><path d="m122.024 181.576c1.891 14.609 10.154 25.458 18.463 24.23 8.307-1.229 13.51-14.068 11.621-28.679-1.891-14.61-10.158-25.459-18.467-24.231-8.306 1.229-13.509 14.069-11.617 28.68z" fill="#b05844"/></g><g><g><path d="m140.606 194.959c-.199 0-.402-.023-.604-.074-1.344-.332-2.166-1.691-1.832-3.035 1.723-6.987 2.93-15.177-4.641-23.958-.904-1.05-.787-2.633.26-3.538 1.051-.905 2.637-.786 3.537.263 8.723 10.115 7.783 20.051 5.713 28.435-.282 1.142-1.306 1.907-2.433 1.907z" fill="#853d30"/></g><g><path d="m132.177 180.398c-1.182 0-2.232-.839-2.461-2.041-.258-1.361.635-2.674 1.994-2.932 4.988-.948 9.879-.041 10.084 0 1.361.259 2.254 1.571 1.996 2.932s-1.584 2.248-2.93 1.997c-.07-.013-4.201-.761-8.213-.001-.158.031-.316.045-.47.045z" fill="#853d30"/></g></g></g><g><path d="m310.915 146.568c-1.49-41.682-27.072-93.171-79.523-92.889h-5.359-5.359c-52.455-.282-78.033 51.207-79.523 92.889-1.498 41.893 11.346 90.208 37.438 115.905 12.232 12.043 30.787 17.836 47.445 18.127 16.654-.291 35.213-6.084 47.441-18.127 26.09-25.697 38.934-74.012 37.44-115.905z" fill="#ba6b4b"/></g><g><path d="m309.493 184.224s35.311-128.038-54.672-135.849c0 0-14.104-2.361-28.793-.94-14.688-1.421-28.793.94-28.793.94-89.939 7.808-54.693 135.745-54.668 135.849 0 0 12.736-11.891 15.381-54.815.541-8.775 1.727-10.358 9.914-13.249 11.891-4.2 19.371-5.116 29.781-13.85 11.973-10.045 24.996-20.387 41.006-14.651 5.729 2.051 10.135 6.975 15.889 8.777 6.32 1.981 14.168-.63 19.873 2.905 11.498 7.123 20.475 30.159 23.598 42.104 0-.001 3.775 27.938 11.484 42.779z" fill="#382e6a"/></g><g><path d="m273.886 322.747 114.938 64.978s29.939 18.282 28.18 65.817h-380.466c-1.762-47.535 28.178-65.817 28.178-65.817l114.936-64.978c-.001 0 38.138 53.504 94.234 0z" fill="#9d579e"/></g><g><path d="m283.853 328.382-9.967-5.635c-56.096 53.504-94.234 0-94.234 0l-11.443 6.47c-.001 0 49.136 65.228 115.644-.835z" fill="#84549d"/></g><g><g><g><path d="m208.884 194.223c0 5.101-9.104 9.238-20.338 9.238-11.23 0-20.338-4.138-20.338-9.238 0-5.105 9.107-9.242 20.338-9.242 11.234-.001 20.338 4.136 20.338 9.242z" fill="#a5513f"/></g><g><path d="m283.853 194.223c0 5.101-9.105 9.238-20.338 9.238-11.23 0-20.338-4.138-20.338-9.238 0-5.105 9.107-9.242 20.338-9.242 11.232-.001 20.338 4.136 20.338 9.242z" fill="#a5513f"/></g></g><g><g><path d="m203.937 146.987c-.248 2.385-2.131 3.982-4.209 3.783-7.629-.743-15.211.514-22.189 3.681-1.904.858-4.199-.045-5.205-2.224-1.002-2.172-.064-4.948 2.172-5.963 8.004-3.633 16.703-5.075 25.451-4.221 2.442.238 4.226 2.564 3.98 4.944z" fill="#2a2d6b"/></g><g><path d="m248.126 146.987c.246 2.385 2.131 3.982 4.207 3.783 7.629-.743 15.211.514 22.189 3.681 1.904.858 4.203-.045 5.205-2.224 1.002-2.172.068-4.948-2.172-5.963-8.004-3.633-16.699-5.075-25.447-4.221-2.447.238-4.23 2.564-3.982 4.944z" fill="#2a2d6b"/></g></g><g><path d="m225.194 223.569c-.316 0-.641-.062-.951-.189-5.395-2.22-8.332-4.713-9.242-7.847-1.199-4.134 1.432-7.859 4.221-11.804 1.746-2.47 3.549-5.023 4.428-7.695.434-1.315 1.852-2.029 3.164-1.601 1.316.433 2.033 1.851 1.602 3.166-1.113 3.387-3.23 6.382-5.098 9.024-2.07 2.931-4.025 5.697-3.5 7.511.303 1.037 1.645 2.678 6.332 4.606 1.281.527 1.893 1.993 1.365 3.273-.399.97-1.334 1.556-2.321 1.556z" fill="#853d30"/></g><g><g><path d="m199.333 174.891c-1.385 0-2.508-1.122-2.508-2.508 0-6.064-2.518-10.088-4.18-10.088-1.664 0-4.18 4.023-4.18 10.088 0 1.386-1.125 2.508-2.51 2.508-1.383 0-2.508-1.122-2.508-2.508 0-8.61 3.953-15.104 9.197-15.104 5.242 0 9.195 6.493 9.195 15.104.002 1.386-1.121 2.508-2.506 2.508z" fill="#2a2d6b"/></g><g><path d="m266.104 174.891c-1.385 0-2.508-1.122-2.508-2.508 0-6.064-2.516-10.088-4.178-10.088-1.664 0-4.18 4.023-4.18 10.088 0 1.386-1.123 2.508-2.508 2.508s-2.508-1.122-2.508-2.508c0-8.61 3.953-15.104 9.195-15.104s9.193 6.493 9.193 15.104c.002 1.386-1.121 2.508-2.506 2.508z" fill="#2a2d6b"/></g></g><g><path d="m252.712 230.103s-23.242 32.257-53.365 0z" fill="#fff"/></g></g><g><path d="m290.171 83.425c28.424-15.048 26.615-42.216 26.615-42.216-6.822 3.764-13.824-.009-13.824-.009 3.357-6.768 5.301-13.983 2.672-21.052-7.557 4.716-15.453 7.38-24.486 4.424 4.373-7.794 7.041-15.402 6.184-24.574-18.275 14.846-35.561 22.813-58.18 26.585-18.826 3.14-58.131 8.029-55.182 36.778 0 0-16.721 30.096 116.201 20.064z" fill="#382e6a"/></g></g></svg>