<svg id="Capa_1" enable-background="new 0 0 453.54 453.54" height="512" viewBox="0 0 453.54 453.54" width="512" xmlns="http://www.w3.org/2000/svg"><g><g><path d="m349.736 303.674-16.049-86.892c17.887-116.082-38.996-148.02-47.185-151.979h-116.215c-8.189 3.959-65.074 35.897-47.188 151.979l-19.258 86.892c.001 0 127.491 68.728 245.895 0z" fill="#2a2e6d"/></g><g><path d="m407.072 453.542c1.668-45.056-26.707-62.382-26.707-62.382l-119.547-67.582h-68.104l-119.538 67.582s-28.377 17.326-26.709 62.382z" fill="#f9c5b8"/></g><g><path d="m184.213 332.321h85.115c-18.859-10.186-13.777-49.332-13.777-49.332h-57.563s5.082 39.147-13.775 49.332z" fill="#f9c5b8"/></g><g><path d="m196.809 312.42c20.336-2.321 40.24-9.137 58.131-19.214.066-6.011.611-10.217.611-10.217h-57.563s1.996 15.426-1.179 29.431z" fill="#f5a997"/></g><g><g><path d="m326.049 195.772c-1.793 13.847-9.625 24.129-17.5 22.966-7.873-1.165-12.805-13.334-11.016-27.182 1.793-13.848 9.629-24.13 17.504-22.967 7.873 1.166 12.803 13.335 11.012 27.183z" fill="#f5a997"/></g><g><g><path d="m308.436 208.457c-1.066 0-2.037-.726-2.305-1.809-1.963-7.946-2.854-17.362 5.412-26.95.855-.993 2.359-1.105 3.352-.249.994.857 1.105 2.358.248 3.353-7.176 8.324-6.031 16.086-4.398 22.708.316 1.274-.461 2.563-1.736 2.877-.193.047-.384.07-.573.07z" fill="#e9837b"/></g><g><path d="m316.426 194.656c-.146 0-.297-.014-.447-.042-3.811-.722-7.746-.007-7.785 0-1.295.239-2.531-.607-2.773-1.896-.242-1.288.602-2.53 1.889-2.774.193-.039 4.828-.899 9.559 0 1.289.244 2.135 1.489 1.891 2.778-.219 1.14-1.215 1.934-2.334 1.934z" fill="#e9837b"/></g></g></g><g><g><path d="m127.492 195.772c1.791 13.847 9.625 24.129 17.498 22.966 7.875-1.165 12.805-13.334 11.016-27.182-1.791-13.848-9.629-24.13-17.502-22.967-7.875 1.166-12.805 13.335-11.012 27.183z" fill="#f5a997"/></g><g><g><path d="m145.104 208.457c-.188 0-.381-.022-.57-.07-1.275-.314-2.055-1.603-1.738-2.877 1.635-6.622 2.777-14.384-4.398-22.708-.857-.994-.746-2.495.248-3.353s2.498-.746 3.352.249c8.268 9.588 7.377 19.004 5.414 26.95-.269 1.083-1.24 1.809-2.308 1.809z" fill="#e9837b"/></g><g><path d="m137.113 194.656c-1.117 0-2.115-.794-2.332-1.935-.244-1.289.604-2.534 1.893-2.778 4.727-.898 9.363-.039 9.557 0 1.289.245 2.137 1.489 1.891 2.778-.246 1.29-1.5 2.131-2.775 1.893-.068-.012-3.982-.721-7.785 0-.152.029-.3.042-.449.042z" fill="#e9837b"/></g></g></g><g><path d="m306.521 162.592c-1.412-39.505-25.658-88.308-75.371-88.039h-5.08-5.082c-49.713-.269-73.957 48.534-75.371 88.039-1.418 39.706 10.754 85.5 35.484 109.855 11.594 11.414 29.182 16.905 44.969 17.181 15.785-.275 33.371-5.767 44.967-17.181 24.729-24.355 36.902-70.149 35.484-109.855z" fill="#f9c5b8"/></g><g><path d="m151.205 157.012c.029 46.711-3.033 48.068-3.033 48.068" fill="#2a2e6d"/></g><g><path d="m302.832 208.004c8.152-5.959 1.684-34.455 12.953-35.253 0 0 28.494-70.69-29.283-107.948-28.787-15.653-53.557-15.653-53.557-15.653-125.941 1.029-94.043 122.133-94.043 122.133 6.885 7.666 4.705 19.097 9.27 36.854 8.012-11.463 8.203-46.07 8.203-46.07 16.176-22.867 23.455-54.573 23.455-54.573 38.824 3.856 95.365 1.607 95.365 1.607 6.201 28.785 7.02 41.275 21.973 52.966 0-.001.898 29.851 5.664 45.937z" fill="#2a2e6d"/></g><g><path d="m292.863 341.672 56.873 32.149c-7.262 25.729-6.826 52.836-5.832 79.721h-234.234c.996-26.885 1.43-53.991-5.828-79.721l56.873-32.149s71.592 39.76 132.148 0z" fill="#6078ba"/></g><g><g><g><path d="m278.344 169.334c-2.031-14.069-31.74-14.594-37.541-8.92 0 0-2.236 4.028.539 7.792 16.668-6.134 32.053-.464 36.953 2.18.769.091.049-1.052.049-1.052z" fill="#2a2e6d"/></g><g><path d="m173.795 169.334s-.723 1.143.049 1.052c4.9-2.644 20.285-8.313 36.953-2.18 2.775-3.764.537-7.792.537-7.792-5.799-5.674-35.51-5.149-37.539 8.92z" fill="#2a2e6d"/></g></g><g><g><path d="m209.818 209.771c0 4.835-8.629 8.756-19.277 8.756-10.643 0-19.273-3.921-19.273-8.756 0-4.839 8.631-8.76 19.273-8.76 10.648.001 19.277 3.922 19.277 8.76z" fill="#f6afa8"/></g><g><path d="m280.873 209.771c0 4.835-8.629 8.756-19.277 8.756-10.645 0-19.273-3.921-19.273-8.756 0-4.839 8.629-8.76 19.273-8.76 10.648.001 19.277 3.922 19.277 8.76z" fill="#f6afa8"/></g></g><g><g><ellipse cx="194.427" cy="187.06" fill="#2a2d6b" rx="6.339" ry="11.939"/></g><g><ellipse cx="257.714" cy="187.06" fill="#2a2d6b" rx="6.337" ry="11.939"/></g></g><g><path d="m227.707 235.125c-.301 0-.607-.058-.902-.18-5.113-2.103-7.898-4.466-8.76-7.436-1.137-3.919 1.357-7.45 4-11.189 1.654-2.34 3.365-4.761 4.197-7.293.408-1.247 1.756-1.922 3-1.517 1.246.41 1.926 1.753 1.516 3-1.053 3.21-3.059 6.049-4.83 8.554-1.963 2.777-3.816 5.4-3.318 7.119.287.982 1.559 2.538 6.002 4.365 1.215.5 1.793 1.889 1.295 3.103-.38.918-1.266 1.474-2.2 1.474z" fill="#e9837b"/></g><g><path d="m226.59 252.221c-11.252 0-19.527-5.573-19.65-5.658-1.08-.745-1.352-2.226-.607-3.307.746-1.08 2.223-1.353 3.303-.609.662.452 16.209 10.806 32.92-.035 1.1-.713 2.57-.402 3.289.7.713 1.103.4 2.574-.701 3.288-6.498 4.214-12.902 5.621-18.554 5.621z" fill="#e9837b"/></g></g><g><circle cx="229.054" cy="42.556" fill="#2a2e6d" r="42.558"/></g><g><g><circle cx="309.551" cy="211.491" fill="#fff" r="5.412"/></g><g><circle cx="142.588" cy="211.491" fill="#fff" r="5.412"/></g></g></g></svg>