<svg id="Capa_1" enable-background="new 0 0 453.54 453.54" height="512" viewBox="0 0 453.54 453.54" width="512" xmlns="http://www.w3.org/2000/svg"><g><g><path d="m324.508 141.397c-1.728-42.59-31.413-95.202-92.281-94.914h-6.218-6.22c-60.868-.288-90.551 52.324-92.281 94.914-1.738 42.805 13.168 92.177 43.444 118.431 14.196 12.309 35.729 18.228 55.057 18.525 19.326-.298 40.859-6.217 55.055-18.525 30.278-26.254 45.182-75.626 43.444-118.431z" fill="#523e91"/></g><g><path d="m422.683 453.542c1.811-48.956-29.02-67.782-29.02-67.782l-129.895-73.433h-74.001l-129.89 73.433s-30.831 18.826-29.02 67.782z" fill="#f9c5b8"/></g><g><path d="m180.529 321.826h92.482c-20.491-11.066-14.969-53.603-14.969-53.603h-62.545c.001.001 5.523 42.537-14.968 53.603z" fill="#f9c5b8"/></g><g><path d="m194.216 300.203c22.095-2.522 43.722-9.93 63.16-20.878.076-6.531.666-11.102.666-11.102h-62.545c.001.001 2.17 16.762-1.281 31.98z" fill="#f5a997"/></g><g><g><path d="m334.645 178.197c-1.947 15.047-10.46 26.219-19.016 24.954s-13.913-14.488-11.968-29.534c1.947-15.047 10.461-26.219 19.017-24.954s13.912 14.488 11.967 29.534z" fill="#f5a997"/></g><g><g><path d="m315.507 191.979c-1.161 0-2.215-.787-2.505-1.964-2.132-8.633-3.102-18.865 5.879-29.284.933-1.079 2.562-1.202 3.643-.269 1.08.93 1.201 2.561.27 3.642-7.797 9.045-6.555 17.479-4.778 24.674.342 1.384-.503 2.784-1.888 3.125-.208.053-.417.076-.621.076z" fill="#e9837b"/></g><g><path d="m324.188 176.983c-.16 0-.321-.015-.484-.045-4.146-.789-8.416-.007-8.459 0-1.406.261-2.751-.659-3.015-2.061-.263-1.4.655-2.749 2.055-3.015.212-.04 5.249-.974 10.384 0 1.401.266 2.322 1.617 2.056 3.021-.237 1.238-1.32 2.1-2.537 2.1z" fill="#e9837b"/></g></g></g><g><g><path d="m118.896 178.197c1.947 15.047 10.46 26.219 19.016 24.954s13.913-14.488 11.968-29.534c-1.947-15.047-10.461-26.219-19.017-24.954s-13.913 14.488-11.967 29.534z" fill="#f5a997"/></g><g><g><path d="m138.033 191.979c-.204 0-.413-.023-.621-.076-1.385-.341-2.23-1.741-1.888-3.125 1.777-7.195 3.02-15.629-4.778-24.674-.932-1.081-.811-2.712.27-3.642 1.081-.931 2.712-.81 3.643.269 8.981 10.419 8.012 20.651 5.88 29.284-.29 1.177-1.346 1.964-2.506 1.964z" fill="#e9837b"/></g><g><path d="m129.352 176.983c-1.217 0-2.3-.862-2.535-2.1-.266-1.403.654-2.755 2.056-3.021 5.137-.974 10.172-.04 10.384 0 1.401.266 2.322 1.617 2.056 3.021-.267 1.398-1.618 2.325-3.017 2.055-.072-.012-4.329-.784-8.459 0-.163.031-.325.045-.485.045z" fill="#e9837b"/></g></g></g><g><path d="m313.421 140.317c-1.534-42.924-27.878-95.953-81.897-95.66h-5.519-5.521c-54.019-.293-80.362 52.736-81.897 95.66-1.542 43.144 11.687 92.903 38.556 119.364 12.598 12.406 31.708 18.372 48.862 18.672 17.152-.3 36.262-6.266 48.86-18.672 26.871-26.46 40.098-76.22 38.556-119.364z" fill="#f9c5b8"/></g><g><path d="m263.768 312.327 129.895 73.433s30.831 18.826 29.02 67.782h-391.826c-1.811-48.956 29.02-67.782 29.02-67.782l129.89-73.433s39.217 24.079 74.001 0z" fill="#9e91c6"/></g><g><path d="m226.77 322.988c-20.58-.848-37.003-10.661-37.003-10.661l-23.306 13.177 36.168 40.686 24.141-19.228z" fill="#6e85c2"/></g><g><path d="m226.77 322.988c20.58-.848 37.003-10.661 37.003-10.661l23.306 13.177-36.168 40.686-24.141-19.228z" fill="#6e85c2"/></g><g><g><g><path d="m208.35 191.223c0 5.253-9.376 9.515-20.943 9.515s-20.945-4.262-20.945-9.515c0-5.258 9.378-9.519 20.945-9.519s20.943 4.261 20.943 9.519z" fill="#f6afa8"/></g><g><path d="m285.556 191.223c0 5.253-9.376 9.515-20.943 9.515s-20.945-4.262-20.945-9.515c0-5.258 9.378-9.519 20.945-9.519s20.943 4.261 20.943 9.519z" fill="#f6afa8"/></g></g><g><g><path d="m203.254 142.576c-.255 2.456-2.194 4.103-4.334 3.897-7.855-.767-15.665.528-22.852 3.79-1.959.885-4.326-.047-5.36-2.29-1.032-2.236-.068-5.097 2.236-6.141 8.245-3.741 17.201-5.227 26.211-4.347 2.517.244 4.353 2.641 4.099 5.091z" fill="#523e91"/></g><g><path d="m248.763 142.576c.255 2.456 2.194 4.103 4.334 3.897 7.855-.767 15.665.528 22.852 3.79 1.959.885 4.326-.047 5.36-2.29 1.032-2.236.068-5.097-2.236-6.141-8.245-3.741-17.201-5.227-26.211-4.347-2.518.244-4.354 2.641-4.099 5.091z" fill="#523e91"/></g></g><g><path d="m247.069 232.348c-2.953 4.547-11.256 12.587-21.06 12.587s-18.109-8.04-21.062-12.587z" fill="#fff"/></g><g><path d="m225.146 221.443c-.327 0-.66-.063-.982-.193-5.555-2.285-8.579-4.853-9.517-8.08-1.236-4.258 1.476-8.095 4.347-12.157 1.797-2.544 3.656-5.174 4.56-7.925.445-1.357 1.903-2.101 3.26-1.648 1.354.444 2.093 1.903 1.648 3.259-1.146 3.488-3.326 6.573-5.25 9.296-2.132 3.017-4.147 5.867-3.604 7.735.31 1.067 1.693 2.756 6.522 4.741 1.319.544 1.948 2.054 1.406 3.372-.411.999-1.374 1.6-2.39 1.6z" fill="#e9837b"/></g><g><g><ellipse cx="191.625" cy="168.73" fill="#2a2d6b" rx="6.887" ry="12.974"/></g><g><ellipse cx="260.392" cy="168.73" fill="#2a2d6b" rx="6.887" ry="12.974"/></g></g></g><g><path d="m166.461 50.299s-47.965 4.666-35.598 98.364c0 0 11.07-.098 10.71 37.165h5.095s2.406-28.46 3.29-48.588c0 0 12.104-19.546 23.83-55.586z" fill="#523e91"/></g><g><path d="m267.753 46.481s71.833-.415 53.875 102.182c0 0-11.07-.098-10.71 37.165h-5.095s-2.406-28.46-3.29-48.588c0 0-23.055-12.413-34.781-48.453v-42.306z" fill="#523e91"/></g><g><path d="m260.931 83.564c24.283-4.278 67.604-11.381 66.896-31.872-18.176-1.631-11.195-13.475-21.67-22.341-6.141-5.196-12.836-.31-19.586-2.798-8.231-3.035-5.186-7.128-8.397-14.828-6.473-15.518-16.849-13.38-29.439-6.48-14.968 8.202-25.492 9.25-42.231 10.116-16.548.857-33.443 6.949-45.417 19.152-17.522 17.859-7.338 43.061 14.397 48.378 28.632 7.005 56.579 5.759 85.447.673z" fill="#523e91"/></g></g></svg>