<svg id="Capa_1" enable-background="new 0 0 453.54 453.54" height="512" viewBox="0 0 453.54 453.54" width="512" xmlns="http://www.w3.org/2000/svg"><g><g><path d="m427.31 453.542c1.854-50.11-29.705-69.383-29.705-69.383l-132.963-75.165h-75.749l-132.957 75.164s-31.559 19.273-29.705 69.383h401.079z" fill="#f9c5b8"/></g><g><path d="m179.437 318.716h94.667c-20.975-11.327-15.323-54.869-15.323-54.869h-64.021c-.001 0 5.652 43.542-15.323 54.869z" fill="#f9c5b8"/></g><g><path d="m193.448 296.582c22.617-2.583 44.754-10.164 64.651-21.372.078-6.685.682-11.364.682-11.364h-64.021c-.001.001 2.219 17.159-1.312 32.736z" fill="#f5a997"/></g><g><g><path d="m337.192 166.842c-1.993 15.4-10.708 26.837-19.466 25.543-8.758-1.295-14.242-14.83-12.25-30.232 1.993-15.402 10.708-26.838 19.465-25.544 8.761 1.295 14.243 14.83 12.251 30.233z" fill="#f5a997"/></g><g><g><path d="m317.603 180.95c-1.188 0-2.268-.806-2.564-2.011-2.183-8.838-3.175-19.312 6.019-29.976.954-1.106 2.622-1.228 3.729-.276 1.106.954 1.229 2.624.276 3.729-7.981 9.257-6.709 17.891-4.891 25.256.35 1.417-.515 2.85-1.933 3.2-.214.052-.427.078-.636.078z" fill="#e9837b"/></g><g><path d="m326.489 165.601c-.164 0-.329-.016-.496-.047-4.243-.803-8.614-.005-8.66.001-1.438.261-2.816-.677-3.086-2.109-.27-1.433.67-2.814 2.104-3.086.216-.041 5.375-.999 10.628 0 1.435.272 2.377 1.656 2.104 3.091-.241 1.266-1.349 2.15-2.594 2.15z" fill="#e9837b"/></g></g></g><g><g><path d="m116.348 166.842c1.994 15.4 10.708 26.837 19.466 25.543 8.758-1.295 14.242-14.83 12.25-30.232-1.993-15.402-10.708-26.838-19.465-25.544-8.759 1.295-14.243 14.83-12.251 30.233z" fill="#f5a997"/></g><g><g><path d="m135.938 180.95c-.21 0-.423-.025-.635-.078-1.418-.35-2.283-1.783-1.933-3.2 1.819-7.365 3.091-15.999-4.891-25.256-.954-1.106-.83-2.776.276-3.729 1.104-.953 2.774-.831 3.729.276 9.193 10.664 8.201 21.138 6.018 29.976-.297 1.205-1.377 2.011-2.564 2.011z" fill="#e9837b"/></g><g><path d="m127.051 165.601c-1.245 0-2.354-.884-2.595-2.151-.272-1.435.67-2.819 2.104-3.091 5.256-.999 10.413-.042 10.628 0 1.435.273 2.377 1.657 2.104 3.091-.273 1.433-1.653 2.37-3.088 2.105-.072-.013-4.43-.802-8.659-.001-.164.031-.33.047-.494.047z" fill="#e9837b"/></g></g></g><g><path d="m315.472 129.937c-1.57-43.939-28.536-98.218-83.832-97.92h-5.649-5.651c-55.295-.298-82.26 53.981-83.832 97.92-1.578 44.163 11.963 95.096 39.466 122.184 12.896 12.698 32.458 18.805 50.016 19.11 17.557-.306 37.119-6.413 50.014-19.11 27.507-27.088 41.046-78.021 39.468-122.184z" fill="#f9c5b8"/></g><g><path d="m140.443 178.003h10.229c-.201-22.917-2.154-50.415-2.154-50.415.822-45.77 13.896-55.336 14.137-55.508 13.948-10.03 22.436 2.498 27.342 14.31 4.036 9.721 8.505 18.452 18.533 23.536 8.401 4.261 17.963 5.034 27.278 4.415 16.04-1.063 35.039-5.78 50.482.756 9.135 3.866 13.648 13.93 15.175 22.993 0 0-1.005 21.446.106 39.913h9.832c3.363-18.584 6.04-40.51 14.42-41.098 0 0 29.12-76.415-35.141-117.493-16.533-24.305-68.373-24.055-81.684-8.82-65.569-10.593-77.076 42.41-77.076 42.41-21.853 17.446-16.066 67.676-2.834 82.285 5.125 5.658 7.118 23.644 11.355 42.716z" fill="#793784"/></g><g><path d="m264.642 308.993 132.963 75.165s31.559 19.273 29.705 69.383h-401.08c-1.854-50.11 29.705-69.383 29.705-69.383l132.958-75.165s40.143 24.648 75.749 0z" fill="#9caad8"/></g><g><g><path d="m311.443 335.452h-169.346l12.461-7.05h144.423z" fill="#707fbd"/></g><g><path d="m357.181 361.309h-260.823l12.462-7.051h235.9z" fill="#707fbd"/></g><g><path d="m401.581 387.165h-349.622c2.415-2.062 3.984-3.014 3.984-3.014l7.138-4.036h327.377l7.138 4.036c.001 0 1.57.952 3.985 3.014z" fill="#707fbd"/></g><g><path d="m420.298 413.004h-387.057c1.093-2.538 2.256-4.882 3.473-7.05h380.113c1.215 2.168 2.379 4.513 3.471 7.05z" fill="#707fbd"/></g><g><path d="m426.873 438.861h-400.206c.247-2.45.582-4.795.987-7.05h398.231c.406 2.255.741 4.6.988 7.05z" fill="#707fbd"/></g></g><g><g><g><path d="m207.915 180.173c0 5.377-9.598 9.739-21.438 9.739s-21.44-4.361-21.44-9.739c0-5.381 9.6-9.743 21.44-9.743s21.438 4.362 21.438 9.743z" fill="#f6afa8"/></g><g><path d="m286.944 180.173c0 5.377-9.598 9.739-21.438 9.739s-21.44-4.361-21.44-9.739c0-5.381 9.6-9.743 21.44-9.743s21.438 4.362 21.438 9.743z" fill="#f6afa8"/></g></g><g><g><path d="m202.698 130.379c-.261 2.514-2.246 4.198-4.437 3.988-8.041-.784-16.035.542-23.392 3.88-2.006.905-4.428-.047-5.487-2.344-1.056-2.29-.07-5.217 2.29-6.286 8.439-3.83 17.607-5.351 26.83-4.45 2.578.251 4.457 2.704 4.196 5.212z" fill="#793784"/></g><g><path d="m249.282 130.379c.261 2.514 2.246 4.198 4.437 3.988 8.041-.784 16.035.542 23.392 3.88 2.006.905 4.428-.047 5.487-2.344 1.056-2.29.07-5.217-2.289-6.286-8.439-3.83-17.607-5.351-26.83-4.45-2.578.251-4.458 2.704-4.197 5.212z" fill="#793784"/></g></g><g><path d="m197.267 215.529c4.026 12.016 15.354 20.684 28.724 20.684s24.696-8.668 28.722-20.684z" fill="#fff"/></g><g><path d="m225.108 211.11c-.336 0-.676-.064-1.005-.2-5.686-2.339-8.782-4.968-9.741-8.271-1.265-4.358 1.51-8.286 4.449-12.445 1.84-2.604 3.743-5.295 4.667-8.112.456-1.387 1.949-2.138 3.337-1.687 1.387.456 2.142 1.95 1.687 3.337-1.173 3.57-3.405 6.728-5.374 9.513-2.183 3.089-4.245 6.006-3.689 7.918.317 1.093 1.733 2.823 6.676 4.855 1.35.556 1.994 2.101 1.439 3.451-.42 1.023-1.406 1.641-2.446 1.641z" fill="#e9837b"/></g><g><g><ellipse cx="190.795" cy="157.151" fill="#2a2d6b" rx="7.05" ry="13.279"/></g><g><ellipse cx="261.186" cy="157.151" fill="#2a2d6b" rx="7.049" ry="13.279"/></g></g></g></g></svg>