<svg id="Capa_1" enable-background="new 0 0 453.54 453.54" height="512" viewBox="0 0 453.54 453.54" width="512" xmlns="http://www.w3.org/2000/svg"><g><g><path d="m292.566 17.706h-128.011c-9.021 4.479-71.68 40.61-51.979 171.936l29.289 231.285h173.385l29.289-231.285c19.703-131.326-42.953-167.457-51.973-171.936z" fill="#2a2e6d"/></g><g><path d="m425.373 453.542c1.838-49.627-29.418-68.713-29.418-68.713l-131.68-74.44h-75.018l-131.672 74.44s-31.258 19.086-29.42 68.713z" fill="#f9c5b8"/></g><g><path d="m179.893 320.017h93.754c-20.771-11.217-15.174-54.34-15.174-54.34h-63.406c-.001 0 5.599 43.123-15.174 54.34z" fill="#f9c5b8"/></g><g><path d="m193.768 298.097c22.4-2.558 44.324-10.066 64.029-21.166.076-6.62.676-11.254.676-11.254h-63.406c-.001 0 2.199 16.993-1.299 32.42z" fill="#f5a997"/></g><g><g><path d="m336.125 169.608c-1.973 15.252-10.602 26.579-19.275 25.297-8.674-1.283-14.104-14.687-12.133-29.94 1.973-15.253 10.605-26.58 19.279-25.298 8.672 1.283 14.104 14.687 12.129 29.941z" fill="#f5a997"/></g><g><g><path d="m316.725 183.581c-1.176 0-2.244-.799-2.539-1.992-2.162-8.753-3.145-19.125 5.963-29.687.941-1.093 2.598-1.217 3.691-.273 1.096.944 1.217 2.598.273 3.693-7.904 9.168-6.645 17.718-4.846 25.012.35 1.404-.508 2.823-1.914 3.169-.208.052-.419.078-.628.078z" fill="#e9837b"/></g><g><path d="m325.525 168.379c-.16 0-.326-.015-.492-.047-4.197-.795-8.531-.005-8.576.001-1.422.26-2.787-.671-3.055-2.089-.268-1.419.664-2.787 2.082-3.057.215-.042 5.316-.989 10.527 0 1.42.27 2.354 1.64 2.084 3.061-.238 1.256-1.337 2.131-2.57 2.131z" fill="#e9837b"/></g></g></g><g><g><path d="m117.414 169.608c1.975 15.252 10.604 26.579 19.275 25.297 8.674-1.283 14.105-14.687 12.135-29.94-1.975-15.253-10.607-26.58-19.279-25.298-8.674 1.283-14.106 14.687-12.131 29.941z" fill="#f5a997"/></g><g><g><path d="m136.814 183.581c-.207 0-.42-.025-.629-.078-1.404-.346-2.262-1.765-1.914-3.169 1.801-7.294 3.061-15.844-4.844-25.012-.945-1.096-.822-2.749.271-3.693 1.096-.945 2.752-.822 3.693.273 9.105 10.561 8.123 20.933 5.963 29.687-.293 1.193-1.364 1.992-2.54 1.992z" fill="#e9837b"/></g><g><path d="m128.014 168.379c-1.232 0-2.33-.875-2.568-2.131-.27-1.42.662-2.791 2.082-3.061 5.209-.989 10.314-.042 10.529 0 1.42.27 2.352 1.641 2.082 3.061-.271 1.421-1.652 2.348-3.059 2.085-.072-.013-4.387-.794-8.574-.001-.164.032-.33.047-.492.047z" fill="#e9837b"/></g></g></g><g><path d="m314.617 133.061c-1.555-43.515-28.264-97.271-83.023-96.976h-5.594-5.598c-54.76-.295-81.465 53.461-83.023 96.976-1.561 43.736 11.848 94.178 39.088 121.004 12.771 12.575 32.143 18.623 49.533 18.926 17.387-.303 36.758-6.351 49.529-18.926 27.241-26.826 40.649-77.268 39.088-121.004z" fill="#f9c5b8"/></g><g><path d="m143.537 126.914c.029 51.453-3.342 52.948-3.342 52.948" fill="#2a2e6d"/></g><g><path d="m310.553 179.712c8.98-6.741 1.855-38.98 14.268-39.882 0 0 31.387-79.974-32.254-122.124-31.712-17.707-58.995-17.707-58.995-17.707-138.725 1.164-103.588 138.17-103.588 138.17 7.582 8.673 5.182 21.604 10.211 41.693 8.822-12.967 9.035-52.12 9.035-52.12 17.816-25.87 25.906-46.323 25.906-46.323 42.766 4.364 91.682-24.054 91.682-24.054 6.828 32.565 21.025 57.151 37.496 70.377 0 0 .989 33.771 6.239 51.97z" fill="#2a2e6d"/></g><g><path d="m299.572 330.316 62.645 35.415c-7.998 28.338-7.518 58.198-6.424 87.811h-258.01c1.098-29.613 1.576-59.472-6.42-87.811l62.646-35.415c.001 0 78.86 43.797 145.563 0z" fill="#b690c2"/></g><g><g><g><path d="m283.578 140.487c-2.236-15.498-34.961-16.075-41.35-9.825 0 0-2.465 4.437.592 8.583 18.359-6.756 35.307-.511 40.703 2.401.85.1.055-1.159.055-1.159z" fill="#2a2e6d"/></g><g><path d="m168.418 140.487s-.795 1.259.053 1.159c5.398-2.912 22.346-9.157 40.703-2.401 3.059-4.146.594-8.583.594-8.583-6.389-6.25-39.114-5.673-41.35 9.825z" fill="#2a2e6d"/></g></g><g><g><path d="m208.098 185.029c0 5.325-9.506 9.645-21.232 9.645-11.725 0-21.23-4.319-21.23-9.645 0-5.33 9.506-9.649 21.23-9.649 11.726-.001 21.232 4.319 21.232 9.649z" fill="#f6afa8"/></g><g><path d="m286.363 185.029c0 5.325-9.504 9.645-21.232 9.645-11.725 0-21.229-4.319-21.229-9.645 0-5.33 9.504-9.649 21.229-9.649 11.728-.001 21.232 4.319 21.232 9.649z" fill="#f6afa8"/></g></g><g><g><ellipse cx="191.143" cy="160.012" fill="#2a2d6b" rx="6.982" ry="13.151"/></g><g><ellipse cx="260.854" cy="160.012" fill="#2a2d6b" rx="6.98" ry="13.151"/></g></g><g><path d="m227.801 212.956c-.33 0-.668-.064-.994-.198-5.631-2.316-8.697-4.919-9.646-8.19-1.254-4.316 1.494-8.206 4.406-12.325 1.822-2.578 3.705-5.244 4.623-8.034.449-1.374 1.932-2.119 3.303-1.671 1.375.452 2.123 1.932 1.67 3.305-1.16 3.536-3.369 6.663-5.32 9.422-2.162 3.059-4.203 5.948-3.654 7.841.316 1.083 1.717 2.795 6.611 4.809 1.338.551 1.975 2.081 1.424 3.418-.415 1.011-1.394 1.623-2.423 1.623z" fill="#e9837b"/></g><g><path d="m226.572 231.786c-12.395 0-21.51-6.139-21.645-6.232-1.191-.821-1.49-2.451-.67-3.642.818-1.189 2.451-1.488 3.637-.672.719.492 17.855 11.903 36.264-.038 1.211-.786 2.832-.443 3.621.771.787 1.214.441 2.835-.771 3.622-7.156 4.642-14.211 6.191-20.436 6.191z" fill="#e9837b"/></g></g></g></svg>