<svg id="Capa_1" enable-background="new 0 0 453.54 453.54" height="512" viewBox="0 0 453.54 453.54" width="512" xmlns="http://www.w3.org/2000/svg"><g><g><path d="m317.789 41.039s56.549 67.203 0 246.158c0 0-22.018-29.223-90.197-29.879-68.18.656-90.197 29.879-90.197 29.879-56.547-178.955 0-246.158 0-246.158s93.367-31.517 180.394 0z" fill="#4e5da7"/></g><g><g><path d="m432.355 453.542c1.902-51.371-30.453-71.13-30.453-71.13l-136.305-77.057h-77.658l-136.302 77.057s-32.355 19.759-30.453 71.13z" fill="#f9c5b8"/></g><g><path d="m178.244 315.323h97.051c-21.502-11.612-15.707-56.25-15.707-56.25h-65.635s5.795 44.637-15.709 56.25z" fill="#f9c5b8"/></g><g><path d="m192.607 292.632c23.191-2.648 45.883-10.42 66.281-21.91.078-6.853.699-11.649.699-11.649h-65.635c.001 0 2.277 17.59-1.345 33.559z" fill="#f5a997"/></g><g><g><path d="m339.971 159.626c-2.043 15.788-10.977 27.513-19.953 26.186-8.979-1.327-14.602-15.203-12.561-30.992 2.043-15.79 10.979-27.515 19.957-26.188 8.979 1.328 14.6 15.204 12.557 30.994z" fill="#f5a997"/></g><g><g><path d="m319.889 174.089c-1.219 0-2.324-.826-2.631-2.062-2.236-9.062-3.254-19.798 6.174-30.73.975-1.131 2.689-1.261 3.822-.283s1.26 2.689.281 3.823c-8.182 9.49-6.879 18.341-5.014 25.892.359 1.453-.529 2.922-1.982 3.28-.217.054-.435.08-.65.08z" fill="#e9837b"/></g><g><path d="m328.998 158.354c-.168 0-.338-.016-.51-.049-4.344-.824-8.832-.006-8.877.001-1.477.274-2.887-.694-3.162-2.162-.277-1.47.686-2.886 2.154-3.164.221-.042 5.504-1.025 10.898 0 1.469.278 2.434 1.697 2.156 3.168-.247 1.3-1.384 2.206-2.659 2.206z" fill="#e9837b"/></g></g></g><g><g><path d="m113.57 159.626c2.043 15.788 10.975 27.513 19.953 26.186s14.6-15.203 12.561-30.992c-2.043-15.79-10.98-27.515-19.957-26.188-8.979 1.328-14.602 15.204-12.557 30.994z" fill="#f5a997"/></g><g><g><path d="m133.652 174.089c-.215 0-.434-.025-.65-.08-1.455-.358-2.342-1.827-1.982-3.28 1.863-7.551 3.168-16.401-5.016-25.892-.977-1.134-.85-2.846.283-3.823 1.135-.979 2.848-.85 3.822.283 9.426 10.933 8.41 21.669 6.172 30.73-.304 1.236-1.412 2.062-2.629 2.062z" fill="#e9837b"/></g><g><path d="m124.541 158.354c-1.275 0-2.412-.906-2.658-2.206-.279-1.471.686-2.89 2.156-3.168 5.391-1.024 10.678-.042 10.898 0 1.469.279 2.434 1.698 2.156 3.168-.281 1.471-1.713 2.429-3.166 2.158-.078-.014-4.541-.821-8.877-.001-.169.033-.341.049-.509.049z" fill="#e9837b"/></g></g></g><g><path d="m317.705 121.793c-1.609-45.045-29.256-100.69-85.941-100.386h-5.791-5.791c-56.689-.305-84.332 55.341-85.941 100.386-1.621 45.273 12.26 97.489 40.457 125.258 13.221 13.018 33.273 19.278 51.275 19.592 17.998-.313 38.055-6.574 51.271-19.592 28.197-27.768 42.078-79.984 40.461-125.258z" fill="#f9c5b8"/></g><g><g><g><path d="m207.441 175.588c0 5.513-9.84 9.984-21.98 9.984-12.137 0-21.975-4.472-21.975-9.984 0-5.517 9.838-9.988 21.975-9.988 12.141 0 21.98 4.472 21.98 9.988z" fill="#f6afa8"/></g><g><ellipse cx="266.481" cy="175.588" fill="#f6afa8" rx="21.978" ry="9.984"/></g></g><g><g><ellipse cx="189.891" cy="149.692" fill="#2a2d6b" rx="7.229" ry="13.613"/></g><g><path d="m269.279 149.692c0 7.519-3.236 13.613-7.225 13.613-3.992 0-7.229-6.095-7.229-13.613 0-7.52 3.236-13.613 7.229-13.613 3.989 0 7.225 6.093 7.225 13.613z" fill="#2a2d6b"/></g></g><g><path d="m227.838 204.498c-.342 0-.691-.066-1.029-.205-5.83-2.397-9.004-5.093-9.986-8.479-1.297-4.468 1.547-8.495 4.561-12.758 1.887-2.669 3.836-5.429 4.785-8.316.467-1.422 2.004-2.191 3.42-1.729 1.422.468 2.197 1.999 1.729 3.422-1.201 3.659-3.488 6.896-5.506 9.753-2.24 3.166-4.352 6.157-3.783 8.116.326 1.121 1.777 2.895 6.842 4.979 1.387.569 2.045 2.153 1.477 3.538-.434 1.045-1.444 1.679-2.51 1.679z" fill="#e9837b"/></g><g><path d="m254.809 215.307s-25.117 34.86-57.672 0z" fill="#fff"/></g><g><g><g><path d="m285.336 128.648c-11.52-16.363-35.645-13.863-42.258-7.394 0 0-1.281 6.172.066 6.107 19.006-6.994 36.545-.529 42.131 2.485.879.105.061-1.198.061-1.198z" fill="#4e5da7"/></g></g><g><g><path d="m166.609 128.648c11.516-16.363 35.641-13.863 42.258-7.394 0 0 1.281 6.172-.068 6.107-19.004-6.994-36.543-.529-42.133 2.485-.875.105-.057-1.198-.057-1.198z" fill="#4e5da7"/></g></g></g></g><g><path d="m137.15 170.239s3.492-1.415 3.459-50.115c8.037-19.594 25.781-11.131 44.23-14.873 0 0 74.662-4.25 83.391-50.955 0 22.028 8.979 37.591 27.35 51.783 20.982 16.207 16.705 39.686 17.918 64.02 9.297-6.381 1.92-36.895 14.77-37.749 0 0 29.854-74.215-36.025-114.108-11.548-17.282-58.432-18.243-58.432-18.243-143.6 1.101-107.225 130.778-107.225 130.778 7.844 8.209 5.359 20.449 10.564 39.462" fill="#4e5da7"/></g><g><path d="m432.355 453.542c1.902-51.371-30.453-71.13-30.453-71.13l-136.305-77.057h-77.658l-136.302 77.057s-32.355 19.759-30.453 71.13z" fill="#acb6de"/></g></g><g><path d="m265.605 305.355 2.477-29.502c-46.543-10.672-82.621 0-82.621 0l2.479 29.502c-.001 0 33.763 13.109 77.665 0z" fill="#acb6de"/></g></g></svg>