<svg id="Capa_1" enable-background="new 0 0 453.54 453.54" height="512" viewBox="0 0 453.54 453.54" width="512" xmlns="http://www.w3.org/2000/svg"><g><g><path d="m328.27 122.916c-1.791-42.226-32.563-94.389-95.66-94.103h-6.446-6.447c-63.097-.286-93.867 51.877-95.66 94.103-1.802 42.442 13.65 91.39 45.035 117.42 14.715 12.205 37.037 18.072 57.072 18.369 20.034-.297 42.356-6.164 57.071-18.369 31.387-26.03 46.836-74.978 45.035-117.42z" fill="#495c9e"/></g><g><path d="m429.856 453.542c1.877-50.749-30.083-70.265-30.083-70.265l-134.651-76.121h-76.71l-134.645 76.121s-31.96 19.516-30.083 70.265z" fill="#f9c5b8"/></g><g><path d="m178.835 317.003h95.869c-21.242-11.472-15.517-55.565-15.517-55.565h-64.835c.001 0 5.725 44.093-15.517 55.565z" fill="#f9c5b8"/></g><g><path d="m193.024 294.588c22.904-2.614 45.322-10.293 65.473-21.642.079-6.771.69-11.509.69-11.509h-64.835c.001.001 2.249 17.376-1.328 33.151z" fill="#f5a997"/></g><g><g><path d="m338.777 165.35c-2.019 15.597-10.844 27.179-19.713 25.868-8.869-1.312-14.422-15.019-12.405-30.616 2.019-15.597 10.844-27.179 19.712-25.869 8.871 1.312 14.423 15.019 12.406 30.617z" fill="#f5a997"/></g><g><g><path d="m318.939 179.638c-1.203 0-2.296-.817-2.597-2.037-2.21-8.95-3.215-19.557 6.095-30.356.967-1.122 2.656-1.243 3.776-.28 1.12.966 1.246 2.657.28 3.776-8.083 9.375-6.794 18.118-4.953 25.577.354 1.436-.521 2.887-1.958 3.24-.215.053-.431.08-.643.08z" fill="#e9837b"/></g><g><path d="m327.938 164.093c-.166 0-.333-.016-.502-.048-4.295-.814-8.725-.006-8.77.001-1.457.265-2.852-.685-3.125-2.136s.679-2.85 2.13-3.125c.219-.042 5.442-1.011 10.764 0 1.453.275 2.407 1.677 2.131 3.13-.245 1.283-1.367 2.178-2.628 2.178z" fill="#e9837b"/></g></g></g><g><g><path d="m115.129 165.35c2.019 15.597 10.844 27.179 19.712 25.868 8.869-1.312 14.423-15.019 12.406-30.616-2.019-15.597-10.844-27.179-19.712-25.869-8.869 1.312-14.423 15.019-12.406 30.617z" fill="#f5a997"/></g><g><g><path d="m134.967 179.638c-.212 0-.428-.025-.643-.08-1.436-.354-2.312-1.805-1.958-3.24 1.842-7.458 3.13-16.201-4.953-25.577-.965-1.12-.84-2.811.28-3.776 1.118-.964 2.809-.842 3.777.28 9.31 10.799 8.305 21.406 6.095 30.356-.301 1.22-1.395 2.037-2.598 2.037z" fill="#e9837b"/></g><g><path d="m125.968 164.093c-1.261 0-2.384-.895-2.628-2.179-.276-1.453.678-2.854 2.131-3.13 5.325-1.013 10.544-.042 10.764 0 1.453.276 2.407 1.678 2.131 3.13s-1.677 2.403-3.127 2.132c-.074-.014-4.484-.812-8.769-.001-.168.033-.336.048-.502.048z" fill="#e9837b"/></g></g></g><g><path d="m316.777 126.083c-1.59-44.497-28.899-99.466-84.896-99.164h-5.721-5.723c-55.997-.302-83.305 54.667-84.896 99.164-1.599 44.724 12.114 96.304 39.967 123.735 13.06 12.86 32.87 19.045 50.651 19.355 17.779-.311 37.59-6.495 50.649-19.355 27.856-27.431 41.567-79.011 39.969-123.735z" fill="#f9c5b8"/></g><g><path d="m269.254 255.647c-12.51 8.732-28.58 13.014-43.274 13.27-.594-.01-1.196-.045-1.794-.069-14.201-.56-29.484-4.825-41.487-13.2-.001-.001 36.775-18.743 86.555-.001z" fill="#495c9e"/></g><g><path d="m265.123 307.156 134.651 76.121s31.96 19.516 30.083 70.265h-406.173c-1.877-50.749 30.083-70.265 30.083-70.265l134.646-76.121c-.001 0 40.652 24.961 76.71 0z" fill="#9caad8"/></g><g><path d="m265.123 307.156 134.651 76.121s31.96 19.516 30.083 70.265h-406.173c-1.877-50.749 30.083-70.265 30.083-70.265l134.646-76.121c-.001 0 40.652 24.961 76.71 0z" fill="#523e91"/></g><g><g><g><path d="m207.858 178.852c0 5.445-9.72 9.862-21.71 9.862s-21.712-4.417-21.712-9.862c0-5.45 9.721-9.867 21.712-9.867s21.71 4.417 21.71 9.867z" fill="#f6afa8"/></g><g><path d="m287.891 178.852c0 5.445-9.72 9.862-21.71 9.862s-21.712-4.417-21.712-9.862c0-5.45 9.721-9.867 21.712-9.867s21.71 4.417 21.71 9.867z" fill="#f6afa8"/></g></g><g><g><path d="m202.576 128.425c-.264 2.546-2.274 4.251-4.493 4.039-8.143-.794-16.239.548-23.689 3.929-2.031.917-4.484-.048-5.557-2.373-1.07-2.319-.071-5.284 2.318-6.366 8.546-3.878 17.831-5.418 27.17-4.506 2.612.253 4.515 2.737 4.251 5.277z" fill="#495c9e"/></g><g><path d="m249.751 128.425c.264 2.546 2.275 4.251 4.493 4.039 8.143-.794 16.238.548 23.688 3.929 2.032.917 4.484-.048 5.557-2.373 1.069-2.319.07-5.284-2.318-6.366-8.546-3.878-17.831-5.418-27.17-4.506-2.61.253-4.514 2.737-4.25 5.277z" fill="#495c9e"/></g></g><g><path d="m247.995 221.483c-3.061 4.713-11.668 13.048-21.831 13.048-10.162 0-18.772-8.334-21.832-13.048z" fill="#fff"/></g><g><path d="m225.27 210.181c-.34 0-.684-.065-1.018-.202-5.758-2.369-8.893-5.031-9.865-8.375-1.281-4.414 1.529-8.392 4.506-12.603 1.863-2.636 3.79-5.362 4.726-8.215.461-1.404 1.972-2.166 3.38-1.708 1.404.462 2.169 1.975 1.708 3.38-1.188 3.615-3.448 6.813-5.442 9.634-2.21 3.128-4.299 6.083-3.736 8.018.321 1.107 1.755 2.859 6.761 4.917 1.367.563 2.019 2.127 1.457 3.495-.425 1.033-1.424 1.659-2.477 1.659z" fill="#e9837b"/></g><g><g><ellipse cx="190.521" cy="155.537" fill="#2a2d6b" rx="7.139" ry="13.448"/></g><g><ellipse cx="261.805" cy="155.537" fill="#2a2d6b" rx="7.139" ry="13.448"/></g></g></g><g><path d="m335.366 138.626c-.016-.004-1.652.008 0 .008 7.505-17.074 14.579-32.821 4.154-49.194-4.882-7.669-9.639-10.364-11.237-19.877-1.544-9.182.349-17.099-3.421-25.427-12.153-26.861-40.369-38.782-67.806-43.06 0 0-27.518-4.802-30.104 5.874v33.479c27.38.343 12.448 25.113 21.042 40.066.001 0 16.655 46.65 87.372 58.131z" fill="#495c9e"/></g><g><path d="m118.906 138.626c.016-.004 1.652.008 0 .008-7.505-17.074-14.58-32.821-4.154-49.194 4.881-7.669 9.638-10.364 11.237-19.877 1.543-9.182-.349-17.099 3.421-25.427 12.153-26.861 40.368-38.782 67.806-43.06 0 0 27.518-4.802 30.104 5.874v33.479c-27.38.343-47.629 8.699-56.222 23.652-9.523 16.573-2.536 47.145-13.214 57.131-.001-.001-8.719 17.238-38.978 17.414z" fill="#495c9e"/></g></g></svg>