<svg id="Layer_1" enable-background="new 0 0 512 512" viewBox="0 0 512 512" xmlns="http://www.w3.org/2000/svg"><g><g><path d="m232.8 193-33.8 15.5c-1.7.8-2.4 2.9-1.5 4.6l17.9 32.7c1.3 2.5-.8 5.4-3.5 4.8l-36.6-7.4c-1.9-.4-3.7.9-3.9 2.8l-4.7 37c-.4 2.8-3.8 3.9-5.7 1.8l-25.2-27.5c-1.3-1.4-3.5-1.4-4.8 0l-25.6 27.2c-1.9 2-5.4.9-5.7-1.9l-4.3-37c-.2-1.9-2-3.2-3.9-2.9l-36.6 6.9c-2.8.5-4.9-2.4-3.5-4.9l18.3-32.5c.9-1.7.3-3.8-1.5-4.6l-33.7-15.9c-2.5-1.2-2.5-4.8 0-6l33.9-15.5c1.7-.8 2.4-2.9 1.5-4.6l-17.9-32.6c-1.3-2.5.8-5.4 3.5-4.8l36.6 7.4c1.9.4 3.7-.9 3.9-2.8l4.7-37c.4-2.8 3.8-3.9 5.7-1.8l25.2 27.5c1.3 1.4 3.5 1.4 4.8 0l25.6-27.2c1.9-2 5.4-.9 5.7 1.9l4.3 37c.2 1.9 2 3.2 3.9 2.9l36.6-6.9c2.8-.5 4.9 2.4 3.5 4.9l-18.3 32.5c-.9 1.7-.3 3.8 1.5 4.6l33.7 15.9c2.5 1.1 2.5 4.7-.1 5.9z" fill="#ff8e43"/><circle cx="133.6" cy="190.4" fill="#fde05f" r="53.9"/></g><path d="m492.8 288c0-52-44.1-94.2-98.6-94.2-5.3 0-10.6.4-15.7 1.2-.2-43-44.7-77.9-99.6-77.9-47.5 0-87.2 26.1-97.2 61-3.6-.8-7.3-1.4-11.1-1.8-42.8-4-80.5 25-84.3 64.8v.3c-.1 0-.1 0-.2 0-37 0-67 30.8-67 68.8s30 68.8 67 68.8c18.3 0 34.9-7.5 47-19.8 16.6 26.9 52.2 45.4 93.5 45.4 29.5 0 56.1-9.5 74.9-24.7 8.7 14.6 27.7 24.7 49.8 24.7 21 0 39.2-9.1 48.4-22.6 52-2.7 93.1-43.8 93.1-94z" fill="#d6edf5"/><g><g><path d="m234.6 275.3c-.1-1.5 1.1-2.9 2.6-3.1 5.7-.8 12.6-2.3 27.2-2.7 11.1-.3 20.4 2 26.4 2.9 1.4.2 2.6 1.4 2.6 2.9-.1 20.8-14.4 32-28.4 32.9-19.6 1.1-29.5-9.6-30.4-32.9z" fill="#cd4545"/><path d="m278.4 271.2c0 5.2-5.7 12.6-13.2 12.5s-13.9-7.5-13.9-12.6c0-1.7 27.1-2 27.1.1z" fill="#fff"/></g><path d="m212.6 257.8-10.8-9.8c-3.5-3.2-4.5-7.7-2.4-10.5 2.1-2.8 6.5-3.1 10.5-.9l12.8 7.3c5.1 2.9 7.3 8.9 4.5 12.3l-2.1 2.5c-2.5 3.3-8.4 2.9-12.5-.9z" fill="#6b443f"/><circle cx="203.3" cy="276.3" fill="#f99680" r="14.8"/><path d="m315.3 257.8 10.7-9.8c3.5-3.2 4.5-7.7 2.4-10.5-2.1-2.8-6.5-3.1-10.5-.9l-12.8 7.3c-5.1 2.9-7.3 8.9-4.5 12.3l2.1 2.5c2.6 3.3 8.4 2.9 12.6-.9z" fill="#6b443f"/><circle cx="324.5" cy="276.3" fill="#f99680" r="14.8"/></g></g></svg>