<svg id="Layer_1" enable-background="new 0 0 512 512" viewBox="0 0 512 512" xmlns="http://www.w3.org/2000/svg"><g><g clip-rule="evenodd" fill="#cbdde1" fill-rule="evenodd"><path d="m117 420c32.8-1 10.9-38.3 2.3-52.6-9.8 13.5-34.9 48.7-2.3 52.6z"/><path d="m210.1 449c32.8-.9 11.1-38.3 2.6-52.6-9.9 13.4-35.2 48.5-2.6 52.6z"/><path d="m299.2 433.3c32.8-1.6 10.3-38.5 1.5-52.6-9.6 13.6-34.1 49.2-1.5 52.6z"/><path d="m407.5 431.4c32.7-3.2 8.4-39-1.2-52.6-8.8 14.1-31.6 50.9 1.2 52.6z"/></g><g><path d="m233.9 166.6-33.9 15.6c-1.7.8-2.4 2.9-1.5 4.6l17.9 32.7c1.3 2.5-.8 5.4-3.5 4.8l-36.6-7.4c-1.9-.4-3.7.9-3.9 2.8l-4.7 37c-.4 2.8-3.8 3.9-5.7 1.8l-25.2-27.5c-1.3-1.4-3.5-1.4-4.8 0l-25.6 27.2c-1.9 2-5.4.9-5.7-1.9l-4.3-37c-.2-1.9-2-3.2-3.9-2.9l-36.6 6.9c-2.8.5-4.9-2.4-3.5-4.9l18.3-32.4c.9-1.7.3-3.8-1.5-4.6l-33.7-15.9c-2.5-1.2-2.5-4.8 0-6l33.9-15.5c1.7-.8 2.4-2.9 1.5-4.6l-17.9-32.8c-1.3-2.5.8-5.4 3.5-4.8l36.6 7.4c1.9.4 3.7-.9 3.9-2.8l4.7-37c.4-2.8 3.8-3.9 5.7-1.8l25.2 27.5c1.3 1.4 3.5 1.4 4.8 0l25.6-27.2c1.9-2 5.4-.9 5.7 1.9l4.3 37c.2 1.9 2 3.2 3.9 2.9l36.6-6.9c2.8-.5 4.9 2.4 3.5 4.9l-18.3 32.5c-.9 1.7-.3 3.8 1.5 4.6l33.7 15.9c2.6 1.2 2.6 4.8 0 5.9z" fill="#ff8e43"/><circle cx="134.7" cy="164.1" fill="#fde05f" r="53.9"/></g><path d="m493.9 261.7c0-52-44.1-94.2-98.6-94.2-5.3 0-10.6.4-15.7 1.2-.2-43-44.7-77.9-99.6-77.9-47.5 0-87.2 26.1-97.2 61-3.6-.8-7.3-1.4-11.1-1.8-42.8-4-80.5 25-84.3 64.8v.3c-.1 0-.1 0-.2 0-37 0-67 30.8-67 68.8s30 68.8 67 68.8c18.3 0 34.9-7.5 47-19.8 16.6 26.9 52.2 45.4 93.5 45.4 29.5 0 56.1-9.5 74.9-24.7 8.7 14.6 27.7 24.7 49.8 24.7 21 0 39.2-9.1 48.4-22.6 52-2.8 93.1-43.8 93.1-94z" fill="#afc8e5"/><g><path d="m211.9 232.7-11.2-10.2c-3.6-3.3-4.7-8-2.5-10.9 2.1-2.9 6.7-3.3 10.9-.9l13.3 7.6c5.3 3 7.6 9.2 4.6 12.8l-2.1 2.6c-2.7 3.3-8.8 2.9-13-1z" fill="#6b443f"/><circle cx="202.2" cy="251.9" fill="#ffbaba" r="15.3"/><path d="m318.1 232.7 11.2-10.2c3.6-3.3 4.7-8 2.5-10.9-2.1-2.9-6.7-3.3-10.9-.9l-13.3 7.6c-5.3 3-7.6 9.2-4.6 12.8l2.1 2.6c2.7 3.3 8.8 2.9 13-1z" fill="#6b443f"/><circle cx="327.8" cy="251.9" fill="#ffbaba" r="15.3"/><path d="m251.4 275.1c-1.9 0-3.6-1.4-3.9-3.4-.2-1.2-1.8-12.2 4.4-19.2 2.2-2.5 6.4-5.5 13.7-5.3 5.9.2 10.7 2.2 14 6.1 6.2 7.1 5.1 17.7 5.1 18.1-.2 2.2-2.2 3.8-4.4 3.5-2.2-.2-3.8-2.2-3.5-4.4 0-.1.7-7.6-3.2-12-1.9-2.1-4.6-3.2-8.2-3.3-3.4-.1-5.8.7-7.4 2.6-3.1 3.5-2.9 10.4-2.5 12.7.3 2.2-1.1 4.2-3.3 4.6-.4 0-.6 0-.8 0z" fill="#e47410"/></g></g></svg>