<svg id="Layer_1" enable-background="new 0 0 512 512" viewBox="0 0 512 512" xmlns="http://www.w3.org/2000/svg"><g><g fill="#cbdde1"><path d="m137.7 262c6.2 0 11.2 5 11.2 11.2v146.7c0 6.2-5 11.2-11.2 11.2-6.2 0-11.2-5-11.2-11.2v-146.7c0-6.2 5-11.2 11.2-11.2z"/><path d="m137.7 438.7c6.2 0 11.2 5 11.2 11.2v15.6c0 6.2-5 11.2-11.2 11.2-6.2 0-11.2-5-11.2-11.2v-15.6c0-6.2 5-11.2 11.2-11.2z"/><path d="m179.6 274.3c6.2 0 11.2 5 11.2 11.2v90.7c0 6.2-5 11.2-11.2 11.2-6.2 0-11.2-5-11.2-11.2v-90.7c0-6.2 5-11.2 11.2-11.2z"/><path d="m179.6 395.5c6.2 0 11.2 5 11.2 11.2v58.8c0 6.2-5 11.2-11.2 11.2-6.2 0-11.2-5-11.2-11.2v-58.8c0-6.2 5-11.2 11.2-11.2z"/><path d="m221.1 274.3c6.2 0 11.2 5 11.2 11.2v35.7c0 6.2-5 11.2-11.2 11.2-6.2 0-11.2-5-11.2-11.2v-35.7c0-6.2 5-11.2 11.2-11.2z"/><path d="m221.1 339.7c6.2 0 11.2 5 11.2 11.2v114.6c0 6.2-5 11.2-11.2 11.2-6.2 0-11.2-5-11.2-11.2v-114.6c0-6.2 5-11.2 11.2-11.2z"/><path d="m264.4 274.3c6.2 0 11.2 5 11.2 11.2v122c0 6.2-5 11.2-11.2 11.2-6.2 0-11.2-5-11.2-11.2v-122c0-6.2 5-11.2 11.2-11.2z"/><path d="m264.4 427.2c6.2 0 11.2 5 11.2 11.2v27.1c0 6.2-5 11.2-11.2 11.2-6.2 0-11.2-5-11.2-11.2v-27.1c0-6.2 5-11.2 11.2-11.2z"/><path d="m304.9 274.3c6.2 0 11.2 5 11.2 11.2v71.3c0 6.2-5 11.2-11.2 11.2-6.2 0-11.2-5-11.2-11.2v-71.3c0-6.2 5-11.2 11.2-11.2z"/><path d="m304.9 375.5c6.2 0 11.2 5 11.2 11.2v78.9c0 6.2-5 11.2-11.2 11.2-6.2 0-11.2-5-11.2-11.2v-78.9c0-6.2 5-11.2 11.2-11.2z"/><path d="m347.3 274.3c6.2 0 11.2 5 11.2 11.2v131.7c0 6.2-5 11.2-11.2 11.2-6.2 0-11.2-5-11.2-11.2v-131.7c0-6.2 5-11.2 11.2-11.2z"/><path d="m347.3 436.3c6.2 0 11.2 5 11.2 11.2v18c0 6.2-5 11.2-11.2 11.2-6.2 0-11.2-5-11.2-11.2v-18c0-6.2 5-11.2 11.2-11.2z"/><path d="m387.6 274.3c6.2 0 11.2 5 11.2 11.2v71.3c0 6.2-5 11.2-11.2 11.2-6.2 0-11.2-5-11.2-11.2v-71.3c0-6.2 5-11.2 11.2-11.2z"/><path d="m387.6 375.5c6.2 0 11.2 5 11.2 11.2v78.9c0 6.2-5 11.2-11.2 11.2-6.2 0-11.2-5-11.2-11.2v-78.9c0-6.2 5-11.2 11.2-11.2z"/></g><path d="m494.7 196.8c-.6-52-45.2-93.7-99.6-93.1-5.3.1-10.6.5-15.7 1.4-.7-43-45.6-77.4-100.5-76.8-47.5.5-86.9 27.1-96.5 62.1-3.6-.8-7.3-1.4-11.1-1.7-42.8-3.5-80.2 25.9-83.5 65.7v.3c-.1 0-.1 0-.2 0-37 .4-66.7 31.5-66.3 69.5s30.8 68.4 67.8 68c18.3-.2 34.8-7.9 46.8-20.3 16.9 26.7 52.7 44.8 94 44.4 29.5-.3 56-10.1 74.6-25.6 8.9 14.5 28 24.4 50.1 24.1 21-.2 39.1-9.6 48.2-23.1 51.8-3.2 92.5-44.7 91.9-94.9z" fill="#6d88a0"/><ellipse cx="275.2" cy="216.7" fill="#cd4545" rx="21" ry="26.8"/><circle cx="206.3" cy="200.5" fill="#ffbaba" r="15.2"/><path d="m226.4 171.7-27.7 8.4c-7.5 2.3-15.3-1.5-17.3-8.5l-.1-.5c-1.1-3.8 1.5-7.9 5.7-8.8l26.6-5.9c7.7-1.7 15.1 2.9 16.3 10.2.2 2.2-1.2 4.4-3.5 5.1z" fill="#6b443f"/><circle cx="334.5" cy="200.5" fill="#ffbaba" r="15.2"/><path d="m314.3 171 27.4 9.3c7.4 2.5 15.3-1.1 17.6-8l.2-.5c1.2-3.8-1.3-7.9-5.4-9l-26.4-6.7c-7.7-2-15.2 2.4-16.6 9.6-.5 2.3.9 4.6 3.2 5.3z" fill="#6b443f"/><ellipse cx="275.2" cy="199.5" fill="#fff" rx="13.8" ry="9.5"/></g></svg>