<svg id="Layer_1" enable-background="new 0 0 512 512" viewBox="0 0 512 512" xmlns="http://www.w3.org/2000/svg"><g><path d="m492.7 207.6c-.6-52-45.2-93.7-99.6-93.1-5.3.1-10.6.5-15.7 1.4-.7-43-45.6-77.4-100.5-76.8-47.5.5-86.9 27.1-96.5 62.1-3.6-.8-7.3-1.4-11.1-1.7-42.8-3.5-80.2 25.9-83.5 65.7v.3c-.1 0-.1 0-.2 0-37 .4-66.7 31.5-66.3 69.5s30.8 68.4 67.8 68c18.3-.2 34.8-7.9 46.8-20.3 16.9 26.7 52.7 44.8 94 44.4 29.5-.3 56-10.1 74.6-25.6 8.9 14.5 28 24.4 50.1 24.1 21-.2 39.1-9.6 48.2-23.1 51.8-3.1 92.5-44.6 91.9-94.9z" fill="#afc8e5"/><g clip-rule="evenodd" fill="#cbdde1" fill-rule="evenodd"><path d="m132 366.8c10.1-.9 13.7-6.1 13.8-12.8.3-19.1-28.8-20.4-30.2-1.3-.5 6.8 2.6 12.2 12.6 14 1.2.2 2.5.2 3.8.1z"/><path d="m215.6 392.9c10.1-.8 13.7-6 13.8-12.8.4-19.1-28.7-20.6-30.2-1.5-.5 6.8 2.5 12.2 12.5 14.1 1.3.2 2.6.3 3.9.2z"/><path d="m295.6 378.8c10.1-1 13.6-6.3 13.6-13.1 0-19.2-29.1-20-30.2-.9-.4 6.8 2.8 12.2 12.8 13.8 1.3.2 2.6.3 3.8.2z"/><path d="m392.9 376.9c10-1.6 13.2-7 12.9-13.7-1-19.1-30.1-18.5-30.2.7 0 6.8 3.4 12 13.5 13.1 1.3.2 2.6.1 3.8-.1z"/><path d="m159.8 445c10.1-.5 13.9-5.6 14.2-12.3 1-19.1-28.1-21.5-30.1-2.4-.7 6.7 2.2 12.3 12.1 14.4 1.2.2 2.5.3 3.8.3z"/><path d="m258.2 451.8c10.1-.8 13.7-5.9 13.9-12.7.5-19.1-28.6-20.7-30.2-1.6-.6 6.8 2.5 12.3 12.5 14.1 1.2.2 2.5.3 3.8.2z"/><path d="m350.4 441c10-1.5 13.3-6.9 12.9-13.7-.9-19.1-30.1-18.6-30.2.6-.1 6.8 3.4 12 13.5 13.2 1.2.1 2.5.1 3.8-.1z"/></g><g><circle cx="206.3" cy="212.4" fill="#ffbaba" r="15.2"/><path d="m230.7 195-28.9-1.3c-7.8-.3-13.9-6.5-13.5-13.8v-.5c.2-4 4-6.9 8.3-6.4l27 3.3c7.9 1 13.3 7.8 12 15-.3 2.2-2.4 3.8-4.9 3.7z" fill="#6b443f"/><circle cx="332.5" cy="212.4" fill="#ffbaba" r="15.2"/><path d="m308 195 28.9-1.3c7.8-.3 13.9-6.5 13.5-13.8v-.5c-.2-4-4-6.9-8.3-6.4l-27 3.3c-7.9 1-13.3 7.8-12 15 .4 2.2 2.5 3.8 4.9 3.7z" fill="#6b443f"/><path d="m283.9 216.4c-.4 0-.8-.1-1.2-.2-4.1-1.3-8.3-1.9-12.6-1.8-3.8.1-7.6.7-11.2 1.8-2.1.7-4.4-.5-5-2.6-.7-2.1.5-4.4 2.6-5 4.4-1.4 8.9-2.1 13.4-2.2 5.1-.1 10.2.6 15.1 2.1 2.1.7 3.3 2.9 2.6 5-.4 1.8-2 2.9-3.7 2.9z" fill="#e47410"/></g></g></svg>