<svg id="Layer_1" enable-background="new 0 0 512 512" viewBox="0 0 512 512" xmlns="http://www.w3.org/2000/svg"><g><path d="m492.8 264.6c0-52-44.1-94.2-98.6-94.2-5.3 0-10.6.4-15.7 1.2-.2-43-44.7-77.9-99.6-77.9-47.5 0-87.2 26.1-97.2 61-3.6-.8-7.3-1.4-11.1-1.8-42.8-4-80.5 25-84.3 64.8v.3c-.1 0-.1 0-.2 0-37 0-67 30.8-67 68.8s30 68.8 67 68.8c18.3 0 34.9-7.5 47-19.8 16.6 26.9 52.2 45.4 93.5 45.4 29.5 0 56.1-9.5 74.9-24.7 8.7 14.6 27.7 24.7 49.8 24.7 21 0 39.2-9.1 48.4-22.6 52-2.7 93.1-43.8 93.1-94z" fill="#d6edf5"/><circle cx="195.8" cy="256.5" fill="#f99680" r="15.2"/><path d="m203.7 239.7c-1.5 0-2.9-.9-3.6-2.3-.9-2-.1-4.4 1.9-5.3l19.5-9.1-19.9-7.8c-2.1-.8-3.1-3.1-2.3-5.2s3.1-3.1 5.2-2.3l28.7 11.2c1.5.6 2.5 2 2.5 3.6.1 1.6-.9 3.1-2.3 3.8l-28 13.1c-.5.2-1.1.3-1.7.3z" fill="#6b443f"/><circle cx="333.1" cy="256.5" fill="#f99680" r="15.2"/><path d="m322.7 239.7c-.6 0-1.1-.1-1.7-.4l-28-13.1c-1.5-.7-2.4-2.2-2.3-3.8s1.1-3 2.5-3.6l28.7-11.2c2.1-.8 4.4.2 5.2 2.3s-.2 4.4-2.3 5.2l-19.9 7.8 19.5 9.1c2 .9 2.9 3.3 1.9 5.3-.7 1.6-2.1 2.4-3.6 2.4z" fill="#6b443f"/><path d="m266.4 277.6c-6.6 0-10.5-2.8-12.6-5.2-6-6.8-4.5-17.5-4.3-18.7.4-2.2 2.4-3.7 4.6-3.3s3.7 2.4 3.3 4.6c-.3 2.2-.6 8.7 2.4 12.1 1.5 1.7 3.8 2.5 7.1 2.4 3.5-.1 6.1-1.2 7.9-3.2 3.7-4.2 3-11.4 3-11.5-.2-2.2 1.3-4.2 3.5-4.4s4.2 1.3 4.4 3.5c0 .4 1.1 10.7-4.9 17.6-3.3 3.8-7.9 5.8-13.6 6-.3.1-.5.1-.8.1z" fill="#e47410"/></g></svg>