<svg id="Layer_1" enable-background="new 0 0 512 512" viewBox="0 0 512 512" xmlns="http://www.w3.org/2000/svg"><g><path d="m492.7 207.6c-.6-52-45.2-93.7-99.6-93.1-5.3.1-10.6.5-15.7 1.4-.7-43-45.6-77.4-100.5-76.8-47.5.5-86.9 27.1-96.5 62.1-3.6-.8-7.3-1.4-11.1-1.7-42.8-3.5-80.2 25.9-83.5 65.7v.3c-.1 0-.1 0-.2 0-37 .4-66.7 31.5-66.3 69.5s30.8 68.4 67.8 68c18.3-.2 34.8-7.9 46.8-20.3 16.9 26.7 52.7 44.8 94 44.4 29.5-.3 56-10.1 74.6-25.6 8.9 14.5 28 24.4 50.1 24.1 21-.2 39.1-9.6 48.2-23.1 51.8-3.1 92.5-44.6 91.9-94.9z" fill="#afc8e5"/><g clip-rule="evenodd" fill="#cbdde1" fill-rule="evenodd"><path d="m117 373.9c32.8-1 10.9-38.3 2.3-52.6-9.8 13.5-34.9 48.6-2.3 52.6z"/><path d="m210.1 402.9c32.8-.9 11.1-38.3 2.6-52.6-9.9 13.4-35.2 48.5-2.6 52.6z"/><path d="m299.2 387.2c32.8-1.6 10.3-38.5 1.5-52.6-9.6 13.6-34.1 49.2-1.5 52.6z"/><path d="m407.5 385.3c32.7-3.2 8.4-39-1.2-52.6-8.8 14.1-31.6 50.8 1.2 52.6z"/><path d="m148 460.8c32.9.1 12.3-37.9 4.2-52.5-10.3 13.1-36.7 47.4-4.2 52.5z"/><path d="m257.5 468.4c32.8-.8 11.3-38.2 2.8-52.6-9.9 13.5-35.3 48.4-2.8 52.6z"/><path d="m360.2 456.6c32.7-3.1 8.5-38.9-1-52.6-9 14-31.8 50.7 1 52.6z"/></g><circle cx="206.3" cy="212.4" fill="#ffbaba" r="15.2"/><path d="m283.9 216.4c-.4 0-.8-.1-1.2-.2-4.1-1.3-8.3-1.9-12.6-1.8-3.8.1-7.6.7-11.2 1.8-2.1.7-4.4-.5-5-2.6-.7-2.1.5-4.4 2.6-5 4.4-1.4 8.9-2.1 13.4-2.2 5.1-.1 10.2.6 15.1 2.1 2.1.7 3.3 2.9 2.6 5-.4 1.8-2 2.9-3.7 2.9z" fill="#e47410"/><path d="m226.4 185.8-27.7 8.4c-7.5 2.3-15.3-1.5-17.3-8.5l-.1-.5c-1.1-3.8 1.5-7.9 5.7-8.8l26.6-5.9c7.7-1.7 15.1 2.9 16.3 10.2.2 2.2-1.2 4.4-3.5 5.1z" fill="#6b443f"/><circle cx="334.5" cy="212.4" fill="#ffbaba" r="15.2"/><path d="m314.3 185.1 27.4 9.3c7.4 2.5 15.3-1.1 17.6-8l.2-.5c1.2-3.8-1.3-7.9-5.4-9l-26.4-6.7c-7.7-2-15.2 2.4-16.6 9.6-.5 2.3.9 4.5 3.2 5.3z" fill="#6b443f"/></g></svg>