<svg id="Layer_1" enable-background="new 0 0 512 512" viewBox="0 0 512 512" xmlns="http://www.w3.org/2000/svg"><g><path d="m449.5 229.3-22.8 7.5-80.4 26.4s5.3-85.2-82-87c-84.8-1.8-98.9 75.4-100.3 88.8s0 33.9 0 33.9-48 23.4-69.2 23.9c-.4 0-.7 0-1.1 0-20.5.5-29.3-2.9-29.3-2.9s-7.1-116.3 67.8-181.1c74.9-64.9 179-60.7 233.8-27.4 71.5 43.1 83.5 117.9 83.5 117.9z" fill="#f75b41"/><path d="m426.8 236.8-31.8 10.4-48.6 16s5.3-85.2-82-87c-84.8-1.8-98.9 75.4-100.3 88.8s0 33.9 0 33.9-20.2 9.8-40.1 16.9c-10.9 3.8-21.6 6.9-29.1 7.1-.4 0-.7 0-1.1 0-3.5-28.4-5.6-108.4 61.8-169.4 82.7-74.8 184.9-37.4 220.4-2.9 32.5 31.4 43.1 63.6 50.8 86.2z" fill="#fde05f"/><path d="m346.4 263.2s5.3-85.2-82-87c-84.8-1.8-98.9 75.4-100.3 88.8s0 33.9 0 33.9-15.2 12.7-35.2 19.8c-1-27.3 1.4-107.1 56.4-148.9 62.2-47.3 130-25.1 168.1 11.1 19.9 18.9 31.4 47.4 37.4 70.1z" fill="#5ba6f4"/><path d="m226.4 344.9c0-27.5-20.5-49.8-45.8-49.8-2.5 0-4.9.2-7.3.6-.1-22.8-20.8-41.2-46.3-41.2-22.1 0-40.5 13.8-45.2 32.3-1.7-.4-3.4-.8-5.2-1-19.9-2.1-37.4 13.2-39.2 34.2v.2h-.1c-17.2 0-31.2 16.3-31.2 36.4s14 36.4 31.2 36.4c8.5 0 16.2-4 21.9-10.5 7.7 14.2 24.3 24 43.4 24 13.7 0 26.1-5 34.8-13.1 4.1 7.7 12.9 13.1 23.1 13.1 9.7 0 18.2-4.8 22.5-12 24.3-1.3 43.4-23 43.4-49.6z" fill="#d6edf5"/><path d="m507.6 267c0-25.5-19.1-46.3-42.6-46.3-2.3 0-4.6.2-6.8.6-.1-21.1-19.3-38.3-43-38.3-20.5 0-37.6 12.8-41.9 30-1.6-.4-3.2-.7-4.8-.9-18.5-2-34.8 12.3-36.4 31.8v.2h-.1c-16 0-28.9 15.1-28.9 33.8s13 33.8 28.9 33.8c7.9 0 15.1-3.7 20.3-9.7 7.2 13.2 22.5 22.3 40.3 22.3 12.7 0 24.2-4.7 32.3-12.1 3.8 7.2 12 12.1 21.5 12.1 9 0 16.9-4.5 20.9-11.1 22.6-1.3 40.3-21.5 40.3-46.2z" fill="#d6edf5"/><g><path d="m103.5 341.9c0-.9.6-1.6 1.5-1.7 3.2-.5 7.1-1.3 15.3-1.5 6.3-.2 11.5 1.1 14.9 1.6.8.1 1.4.8 1.4 1.6 0 11.7-8.1 18.1-16 18.5-10.9.6-16.5-5.4-17.1-18.5z" fill="#cd4545"/><path d="m128.2 339.6c0 2.9-3.2 7.1-7.4 7.1s-7.8-4.2-7.8-7.1c0-1.1 15.2-1.2 15.2 0z" fill="#fff"/></g><path d="m91.1 332-6.1-5.6c-2-1.8-2.5-4.3-1.3-5.9 1.2-1.6 3.7-1.8 5.9-.5l7.2 4.1c2.9 1.7 4.1 5 2.5 7l-1.2 1.4c-1.3 1.9-4.6 1.6-7-.5z" fill="#6b443f"/><circle cx="85.9" cy="342.5" fill="#f99680" r="8.3"/><path d="m149.1 332 6.1-5.6c2-1.8 2.5-4.3 1.3-5.9-1.2-1.6-3.7-1.8-5.9-.5l-7.2 4.1c-2.9 1.7-4.1 5-2.5 7l1.2 1.4c1.3 1.9 4.6 1.6 7-.5z" fill="#6b443f"/><circle cx="154.3" cy="342.5" fill="#f99680" r="8.3"/><path d="m408.6 261.2c0-.8.6-1.5 1.5-1.6 1.9-.1 3.9-.2 6.1-.2 1.8 0 3.6.1 5.2.2.8.1 1.4.7 1.4 1.6 0 7.4-2.9 13.2-6.6 13.2-6.9.1-7.6-4.9-7.6-13.2z" fill="#cd4545"/><path d="m421 261.6c0 1.7-2.3 3.1-5.2 3.1s-5.3-1.2-5.4-2.9c0-.7.4-1.4 1.1-1.9 1-.7 7.9-.4 8.5 0s.9 1 1 1.7z" fill="#fff"/><path d="m392.4 255.4-6.9-6.3c-2.2-2-2.9-4.9-1.5-6.7 1.3-1.8 4.1-2 6.7-.6l8.2 4.7c3.3 1.9 4.6 5.7 2.9 7.9l-1.3 1.6c-1.7 2.1-5.5 1.8-8.1-.6z" fill="#6b443f"/><circle cx="387.6" cy="264.1" fill="#f99680" r="7.8"/><path d="m437.8 255.4 6.9-6.3c2.2-2 2.9-4.9 1.5-6.7-1.3-1.8-4.1-2-6.7-.6l-8.2 4.7c-3.3 1.9-4.6 5.7-2.9 7.9l1.3 1.6c1.7 2.1 5.5 1.8 8.1-.6z" fill="#6b443f"/><circle cx="442.6" cy="264.1" fill="#f99680" r="7.8"/></g></svg>