<svg id="Layer_1" enable-background="new 0 0 512 512" viewBox="0 0 512 512" xmlns="http://www.w3.org/2000/svg"><g><g fill="#fde05f"><path d="m387.2 82.1c.5-2.2 3.6-2.4 4.3-.2 1.8 5.9 4.7 12.6 9.6 17.7 5.5 5.7 10.8 8.9 14.6 10.6 1.6.7 1.7 3.1.2 3.9-3.5 2-8.4 5.7-13.1 12.8-4.3 6.5-6.5 14.6-7.7 21.2-.4 2.3-3.6 2.5-4.3.3-2.2-7-5.6-15.5-10.1-20.7-4.4-5.1-10.6-8.7-14.7-10.7-1.6-.8-1.7-3-.2-3.9 3.4-2.1 8.5-5.9 13.5-12.3 4.2-5.2 6.5-12.4 7.9-18.7z"/><path d="m294.2 137.2c.5-2.1 3.5-2.2 4.2-.1 1.3 3.7 3.3 7.7 6.3 10.7 3.5 3.6 6.9 5.8 9.5 7.2 1.5.8 1.6 2.9.2 3.9-2.4 1.5-5.5 4.2-8.5 8.7-2.6 4-4.2 8.8-5.1 13-.5 2.2-3.5 2.4-4.3.3-1.6-4.5-3.8-9.5-6.5-12.8-2.8-3.3-6.7-5.7-9.6-7.2-1.5-.8-1.6-2.9-.2-3.8 2.4-1.6 5.7-4.2 8.9-8.4 2.4-3.2 4-7.5 5.1-11.5z"/><path d="m380.4 188c.5-2.3 3.7-2.4 4.3-.1 2.1 7.9 6 17.7 12.8 24.8 7.6 7.8 14.8 11.9 19.6 13.9 1.7.7 1.8 3.1.2 4-4.5 2.3-11.2 7.1-17.6 16.8-6.1 9.1-8.8 20.8-10.1 29.5-.3 2.3-3.6 2.6-4.3.3-2.8-9.3-7.4-21.6-13.6-28.8-5.9-6.9-14.5-11.6-19.6-14-1.6-.8-1.7-3-.2-3.9 4.3-2.5 11.2-7.5 18.1-16.3 5.7-7.3 8.8-17.8 10.4-26.2z"/><path d="m181.5 71.2c-281.5 187.8 3 569.6 234.2 309.4 4.4-5 1.8-12.8-4.6-14.2-95.7-19.7-114.5-38-120.6-51.9-1-2.4-1-5.1.2-7.3 6.4-12.1 7.1-25.4-1.8-35.9-1.7-2-8.2-3-10.8-2.9-57.7 2-75.3-60.9-83.2-190.6-.4-6.6-7.8-10.2-13.4-6.6z"/></g><circle cx="173.8" cy="323" fill="#f99680" r="23.7"/><path d="m184.9 288.4c-12.6 0-24-8.8-27.2-21.6-.5-2.1.8-4.3 2.9-4.8s4.3.8 4.8 2.9c2.5 10.2 12.7 17.1 22.8 15.3 9.2-1.7 16.2-10.2 16.2-19.9 0-2.2 1.8-4 4-4 2.2 0 4 1.8 4 4 0 13.7-9.6 25.4-22.8 27.8-1.5.2-3.1.3-4.7.3z" fill="#6b443f"/><path d="m263 364.8c-.5 0-.9 0-1.4 0-9.2-.5-18.5-5.8-25.5-14.5-1-1.3-.9-3.2.4-4.2s3.2-.9 4.2.4c5.9 7.2 13.9 11.8 21.2 12.3 3.5.2 6.6-.6 8.2-2.2 3.3-3.2 3.3-11.4-.2-19.5-.7-1.5 0-3.3 1.6-3.9 1.5-.7 3.3 0 3.9 1.6 4.6 10.6 4.1 21.1-1.1 26.2-2.6 2.4-6.6 3.8-11.3 3.8z" fill="#e47410"/></g></svg>