<svg id="Layer_1" enable-background="new 0 0 512 512" viewBox="0 0 512 512" xmlns="http://www.w3.org/2000/svg"><g><path d="m492.7 207.6c-.6-52-45.2-93.7-99.6-93.1-5.3.1-10.6.5-15.7 1.4-.7-43-45.6-77.4-100.5-76.8-47.5.5-86.9 27.1-96.5 62.1-3.6-.8-7.3-1.4-11.1-1.7-42.8-3.5-80.2 25.9-83.5 65.7v.3c-.1 0-.1 0-.2 0-37 .4-66.7 31.5-66.3 69.5s30.8 68.4 67.8 68c18.3-.2 34.8-7.9 46.8-20.3 16.9 26.7 52.7 44.8 94 44.4 29.5-.3 56-10.1 74.6-25.6 8.9 14.5 28 24.4 50.1 24.1 21-.2 39.1-9.6 48.2-23.1 51.8-3.1 92.5-44.6 91.9-94.9z" fill="#6d88a0"/><g clip-rule="evenodd" fill-rule="evenodd"><path d="m201 375c-1.1 2.8-.8 5.6 1 8s4.6 3.8 7.9 3.9l34.8 1.5-30 64.3c-1.8 3.9 0 7.9 4.2 8.2 2.2.2 4.9-.8 7.3-3.4l89.3-97.8c1.5-1.6 1.9-3.6 1-5.5-.8-1.9-2.6-3.1-4.9-3.3l-34.2-3.4c-2-.2-3.6-1.1-4.6-2.6s-1-3.2-.2-4.9l31.8-62.5c1.4-2.7 1.3-5.4-.2-8-.7-1.1-1.6-2.1-2.7-2.9-2.4-1.6-5.7.2-6.9.7-5.1 2.4-21.7 21.3-44.5 48-16 20.1-33.2 39.8-49.1 59.7z" fill="#fde05f"/><path d="m130.1 366.4c29.3 1.8 13-33.2 6.5-46.7-9.9 11.2-35.2 40.4-6.5 46.7z" fill="#cbdde1"/><path d="m85.6 432c29.4-.8 9.9-34.3 2.3-47.1-8.8 12-31.4 43.4-2.3 47.1z" fill="#cbdde1"/><path d="m412.4 432.5c29.4-1.3 9.3-34.4 1.4-47.1-8.6 12.2-30.6 44-1.4 47.1z" fill="#cbdde1"/><path d="m363.7 386.8c29.1-4 6.1-35.1-2.9-47-7.5 12.9-26.5 46.6 2.9 47z" fill="#cbdde1"/><path d="m164.1 441.2c29.4.1 11-33.9 3.8-47-9.3 11.8-32.9 42.4-3.8 47z" fill="#cbdde1"/><path d="m320.1 440.6c29.3-2.8 7.6-34.9-.9-47.1-8 12.6-28.4 45.4.9 47.1z" fill="#cbdde1"/></g><circle cx="326.8" cy="204.5" fill="#ffbaba" r="15.2"/><path d="m306.3 193.4c4.1-2.9 8.1-5.8 12.2-8.8 5.4-3.9 10.7-7.8 15.9-11.7.3-.2 2.2-1.8 2.2-4.4 0-1.7-.7-3.5-2.2-4.8l-2.6-2.3c-2.3-2.1-5.5-2.2-7.6-.3-4.2 2.3-9.4 5.6-14.7 10.5-4.8 4.3-8.3 8.7-10.8 12.3-2.2 2.5-2.1 6.3.1 8.5 2.1 2.2 5.3 2.6 7.5 1z" fill="#6b443f"/><ellipse cx="269.8" cy="211" fill="#cd4545" rx="21" ry="21.1"/><ellipse cx="269.8" cy="196" fill="#fdfcfa" rx="12.7" ry="6.1"/><circle cx="212" cy="204.5" fill="#ffbaba" r="15.2"/><path d="m232.5 193.4c-4.1-2.9-8.1-5.8-12.2-8.8-5.4-3.9-10.7-7.8-15.9-11.7-.3-.2-2.2-1.8-2.2-4.4 0-1.7.7-3.5 2.2-4.8l2.6-2.3c2.3-2.1 5.5-2.2 7.6-.3 4.2 2.3 9.4 5.6 14.7 10.5 4.8 4.3 8.3 8.7 10.8 12.3 2.2 2.5 2.1 6.3-.1 8.5-2.1 2.2-5.3 2.6-7.5 1z" fill="#6b443f"/></g></svg>