<svg id="Layer_1" enable-background="new 0 0 512 512" viewBox="0 0 512 512" xmlns="http://www.w3.org/2000/svg"><g><path d="m500.4 252.1c-.4-22.9-66.6-34-73.7-54.6-7.3-21.3 38-70.7 24.7-88.3-13.4-17.8-73.5 12-91.7-.8-18-12.7-10.3-79.4-31.9-86-20.8-6.4-51.8 52.9-74.7 53.2-22.9.4-55.8-57.9-76.4-50.9-21.3 7.3-11.5 73.7-29.1 87-17.8 13.4-78.8-14.5-91.7 3.8-12.7 18 34.1 65.9 27.5 87.5-6.4 20.8-72.2 34-71.9 56.9.4 22.9 66.6 34 73.7 54.6 7.3 21.3-38 70.7-24.7 88.3 13.4 17.8 73.5-12 91.7.8 18 12.7 10.3 79.4 31.9 86 20.8 6.4 51.8-52.9 74.7-53.3s55.8 57.9 76.4 50.9c21.3-7.3 11.5-73.7 29.1-87 17.8-13.4 78.8 14.5 91.7-3.8 12.7-18-34.1-65.9-27.5-87.5 6.4-20.6 72.2-33.9 71.9-56.8zm-243.3 154.1c-84.1 0-152.2-68.1-152.2-152.2s68.1-152.3 152.2-152.3 152.2 68.1 152.2 152.2-68.1 152.3-152.2 152.3z" fill="#ff8e43"/><circle cx="256" cy="253.9" fill="#ff8e43" r="135"/><g><g fill="#232323"><path d="m123.9 217.4c-3.6.7-5.8 4.1-5.3 7.7 5.8 36.8 34.9 63.7 67.5 61.1 34.6-2.7 60.1-37.3 57-77.4-42.6-.7-82.7 1.8-119.2 8.6z"/><path d="m262.9 207.3c3.1 40.1 33.7 70.4 68.3 67.7 32.9-2.6 57.6-34 57.2-71.6 0-3.4-2.8-6.1-6.1-6.4-38.6-2.7-78.5 1.2-119.4 10.3z"/><path d="m239.9 210.3c8.4-7.7 17.9-8.4 28.4-2.3.8.5 1.1 1.5.6 2.3s-1.5 1.1-2.3.6c-9.2-5.4-17.2-4.8-24.5 1.9-1.5 1.4-3.8-1.1-2.2-2.5z"/></g><g fill="#fff9e8"><path d="m149.1 222.1-9.2 17.3c-.1.2-5.8 9.1-6.4 8.7s4-9.8 4.1-10l10-16.9c.7-1.1 2.2-.3 1.5.9z"/><path d="m176.7 234.9-7.8 14.8c-.1.1-5 7.7-5.6 7.3s3.3-8.5 3.3-8.6l8.6-14.4c.6-.9 2.1-.1 1.5.9z"/><path d="m170.9 217.9c-13.5 20.7-27.2 47.4-28.1 47s7.3-17 7.8-17.8c5.9-10.3 12.2-20.3 18.9-30.1 1.4-2.1 2.8-1.1 1.4.9z"/></g><g fill="#fff9e8"><path d="m302.2 208.8-9.2 17.3c-.1.2-5.8 9.1-6.4 8.7s4-9.8 4.1-10l10-16.9c.7-1.2 2.2-.3 1.5.9z"/><path d="m329.8 221.6-7.8 14.8c-.1.1-5 7.7-5.6 7.3s3.3-8.5 3.3-8.6l8.6-14.4c.7-1 2.1-.2 1.5.9z"/><path d="m324 204.6c-6.5 9.9-12.5 20-18 30.4-6.8 11.6-9.7 16.8-10.1 16.6-.8-.4 7.3-16.9 7.8-17.8 5.9-10.3 12.2-20.3 18.9-30.1 1.4-2.1 2.8-1.2 1.4.9z"/></g></g><g><path d="m233 285.8c-.1-1.6 1-3.1 2.6-3.4 6-1.2 13.2-3.1 28.6-4.3 11.7-.9 21.7 1 28 1.6 1.5.2 2.8 1.4 2.9 2.9 1 22-13.6 34.6-28.3 36.2-20.5 2.4-31.5-8.4-33.8-33z" fill="#cd4545"/><path d="m279.1 279.3c.3 5.5-5.4 13.6-13.3 13.9-7.9.4-15.1-7.2-15.3-12.6-.1-1.9 28.5-3.6 28.6-1.3z" fill="#fff"/></g><g fill="#ffbaba"><circle cx="200" cy="288.6" r="15.6"/><circle cx="328.2" cy="282.2" r="15.6"/></g></g></svg>