<svg id="Layer_1" enable-background="new 0 0 512 512" viewBox="0 0 512 512" xmlns="http://www.w3.org/2000/svg"><g><path d="m460.6 276.8c0-23.3-18.8-42.1-42.1-42.1-2.1 0-4.2.2-6.3.5 15-4.4 26-18.2 26-34.7 0-19.4-15.3-35.2-34.4-36 3.9-6.4 6.2-13.9 6.2-22 0-23.4-18.9-42.3-42.3-42.3-12.3 0-23.4 5.3-31.1 13.7-5.9-7.3-15-12-25.2-12-1.5 0-3 .1-4.5.3-3.4-19.9-20.8-35.1-41.7-35.1-23.3 0-42.1 18.8-42.3 42-5.1-22.6-25.3-39.4-49.5-39.4-28 0-50.7 22.7-50.7 50.7 0 9.9 2.8 19 7.7 26.8-6.3 3.1-11.3 8.5-13.7 15.2-1.5-.2-3.1-.2-4.7-.2-24.7 0-44.7 20-44.7 44.7 0 11.5 4.3 21.9 11.4 29.8-10 5.5-16.7 16.1-16.7 28.3 0 10.8 5.3 20.4 13.5 26.3-8.8 8.6-14.3 20.6-14.3 33.9 0 26.1 21.2 47.3 47.3 47.3 4.4 0 8.6-.6 12.6-1.7-.2 1.7-.3 3.4-.3 5.1 0 28 22.7 50.7 50.7 50.7 11.9 0 22.9-4.1 31.5-11 5.8 5.6 13.8 9.1 22.5 9.1 6.7 0 12.9-2 18-5.5 9.1 20.1 29.2 34 52.7 34 31.9 0 57.8-25.9 57.8-57.8 0-2.1-.1-4.1-.3-6.1 7.8 6.7 18 10.8 29.1 10.8 24.6 0 44.5-19.9 44.5-44.5 0-18.6-11.4-34.5-27.6-41.2-21.7 57.6-77.3 98.6-142.5 98.6-84.1 0-152.2-68.1-152.2-152.2s68-152.1 152.1-152.1 152.2 68.1 152.2 152.2c0 18.8-3.4 36.9-9.7 53.5 5.7 2.8 12.1 4.4 18.8 4.4 23.3.1 42.2-18.7 42.2-42z" fill="#fde05f"/><g fill="#ffe991"><circle cx="94.8" cy="397.6" r="14.6"/><circle cx="332.7" cy="76.3" r="14"/><circle cx="90.5" cy="131.2" r="20.1"/></g><circle cx="257.1" cy="260.9" fill="#fde05f" r="135"/><circle cx="451.7" cy="223.2" fill="#ffe991" r="7.4"/><circle cx="373" cy="422.2" fill="#ffe991" r="13.4"/><path d="m260 287.3c-6.6 0-10.5-2.8-12.6-5.2-6-6.8-4.5-17.5-4.3-18.7.4-2.2 2.4-3.7 4.6-3.3s3.7 2.4 3.3 4.6c-.3 2.2-.6 8.8 2.4 12.1 1.5 1.7 3.8 2.5 7.1 2.4 3.5-.1 6.1-1.2 7.8-3.2 3.7-4.2 3-11.4 3-11.5-.2-2.2 1.4-4.2 3.6-4.4s4.2 1.3 4.4 3.5c0 .4 1.1 10.7-4.9 17.6-3.3 3.8-7.9 5.8-13.6 6-.3.1-.5.1-.8.1z" fill="#e47410"/><circle cx="323.5" cy="262.7" fill="#f99680" r="14.3"/><path d="m318.4 240.6-25.2 14.5c-2.1 1.2-5.1.5-7-1.7-2.4-2.8-2.3-6.8.2-8.7l22.8-17.3c2.1-1.6 5.3-1 7.4 1.3l2.4 2.7c2.6 3.1 2.3 7.5-.6 9.2z" fill="#6b443f"/><circle cx="194.3" cy="262.7" fill="#f99680" r="14.3"/><path d="m199.3 240.6 25.2 14.6c2.1 1.2 5 .6 6.9-1.5 2.3-2.7 2.2-6.6-.3-8.5l-22.8-17.2c-2.1-1.6-5.3-1.1-7.3 1.2l-2.4 2.6c-2.5 2.8-2.1 7.1.7 8.8z" fill="#6b443f"/></g></svg>