<svg id="Layer_1" enable-background="new 0 0 512 512" viewBox="0 0 512 512" xmlns="http://www.w3.org/2000/svg"><path d="m395.4 304c-3.7 1.7-5.2 6.2-3.2 9.7l38 69.4c2.9 5.2-1.7 11.4-7.5 10.2l-77.7-15.5c-4-.8-7.8 1.9-8.3 6l-10 78.5c-.8 5.9-8.1 8.2-12.1 3.9l-53.6-58.4c-2.8-3-7.5-3-10.3-.1l-54.3 57.7c-4.1 4.3-11.4 1.9-12.1-4l-9.1-78.7c-.5-4-4.3-6.8-8.3-6.1l-77.8 14.7c-5.9 1.1-10.3-5.1-7.4-10.3l38.8-69c2-3.5.6-8-3.1-9.8" fill="#fde05f"/><path d="m27.7 279.9 77.5 36.6c2.3 1.1 3.8 3.2 4.2 5.5h293c.7-1.6 2-2.9 3.7-3.7l78-35.7c5.9-2.7 5.9-11 .1-13.8l-77.5-36.6c-4-1.9-5.5-6.8-3.4-10.6l42.1-74.7c3.2-5.6-1.7-12.4-8-11.2l-84.3 16c-4.3.8-8.5-2.2-9-6.6l-9.8-85.2c-.7-6.4-8.6-9-13.1-4.3l-58.7 62.4c-3 3.2-8.1 3.2-11.1-.1l-58-63.2c-4.4-4.7-12.4-2.2-13.2 4.3l-10.8 85c-.6 4.4-4.7 7.4-9 6.5l-84.1-17c-6.3-1.3-11.3 5.4-8.2 11.1l41.2 75.2c2.1 3.9.5 8.7-3.5 10.6l-78 35.7c-5.9 2.7-5.9 11-.1 13.8z" fill="#ff8e43"/><circle cx="256" cy="266.8" fill="#ffe991" r="114.4"/><path d="m371.3 322.1c5.5-14.1 8.6-29.4 8.6-45.4 0-68.4-55.5-123.9-123.9-123.9s-123.9 55.5-123.9 123.9c0 16 3 31.3 8.6 45.4z" fill="#fde05f"/><path d="m27 313.6h458c3.7 0 6.7 3 6.7 6.7 0 3.7-3 6.7-6.7 6.7h-458c-3.7 0-6.7-3-6.7-6.7 0-3.7 3-6.7 6.7-6.7z" fill="#6b443f"/><path d="m257.8 289.6c-5.2 0-9.3-1.7-12.2-5-5.9-6.8-4.2-17.8-4.1-18.3.3-1.9 2.1-3.2 4-2.9s3.2 2.1 2.9 4c-.4 2.3-.6 9 2.5 12.5 1.6 1.9 4.1 2.7 7.4 2.6 3.6-.1 6.3-1.2 8.2-3.4 3.9-4.4 3.1-11.8 3.1-11.9-.2-1.9 1.2-3.6 3.1-3.8s3.6 1.2 3.8 3.1c0 .4 1.1 10.5-4.8 17.2-3.2 3.7-7.7 5.6-13.3 5.8-.1.1-.3.1-.6.1z" fill="#e47410"/><g><circle cx="322.5" cy="263.5" fill="#f99680" r="14.3"/><path d="m287.2 252.5c4.7-1.1 9.4-2.2 14.2-3.4 6.3-1.5 12.4-3 18.6-4.6.3-.1 2.6-.8 3.6-3.1.6-1.5.6-3.4-.2-5.1l-1.4-3c-1.3-2.7-4.1-4-6.7-3.1-4.6.5-10.5 1.6-17.1 3.9-5.9 2.1-10.6 4.7-14.3 7-2.9 1.5-4.2 4.9-3.1 7.7 1 2.8 3.8 4.3 6.4 3.7z" fill="#6b443f"/><circle cx="189.5" cy="263.5" fill="#f99680" r="14.3"/><path d="m224.8 252.5c-4.7-1.1-9.4-2.2-14.2-3.4-6.3-1.5-12.4-3-18.6-4.6-.3-.1-2.6-.8-3.6-3.1-.6-1.5-.6-3.4.2-5.1l1.4-3c1.3-2.7 4.1-4 6.7-3.1 4.6.5 10.5 1.6 17.1 3.9 5.9 2.1 10.6 4.7 14.3 7 2.9 1.5 4.2 4.9 3.1 7.7-1 2.8-3.8 4.3-6.4 3.7z" fill="#6b443f"/></g></svg>