<svg id="Layer_1" viewBox="0 0 512 512" xmlns="http://www.w3.org/2000/svg" data-name="Layer 1"><path d="m27.7263 290.8869 77.5266 36.6459c2.3243 1.0987 3.8117 3.2147 4.2253 5.5482h293.0137c.729-1.5939 2.0087-2.9491 3.7382-3.7413l77.9608-35.7122c5.8694-2.6887 5.9194-11.0104.0828-13.7693l-77.5266-36.6459c-3.9842-1.8833-5.5339-6.7513-3.3717-10.5912l42.0773-74.727c3.168-5.6262-1.6855-12.3882-8.0295-11.1871l-84.2867 15.9588c-4.3334.8204-8.4518-2.2108-8.9565-6.5922l-9.8143-85.1956c-.7394-6.4183-8.6462-9.0401-13.0739-4.3351l-58.7916 62.4732c-3.0231 3.2124-8.1379 3.1817-11.1222-.0668l-58.0375-63.1746c-4.3709-4.7578-12.3087-2.2311-13.125 4.1779l-10.8364 85.0715c-.5573 4.375-4.7119 7.3566-9.035 6.4841l-84.0891-16.9697c-6.3292-1.2772-11.2635 5.426-8.1633 11.0898l41.1769 75.227c2.116 3.8657.5079 8.7147-3.4986 10.55l-77.9609 35.7122c-5.8694 2.6887-5.9193 11.0104-.0827 13.7693z" fill="#ff8e43"/><path d="m371.337 333.081c5.5314-14.0504 8.5703-29.355 8.5703-45.3696 0-68.4321-55.4752-123.9072-123.9072-123.9072s-123.9072 55.4752-123.9072 123.9072c0 16.0146 3.0389 31.3192 8.5703 45.3696h230.674z" fill="#fde05f"/><rect fill="#6b443f" height="13.438" rx="6.719" width="471.482" x="20.255" y="324.614"/><path d="m472.5156 372.873h-35.0312c-3.8662 0-7-3.1338-7-7s3.1338-7 7-7h35.0312c3.8662 0 7 3.1338 7 7s-3.1338 7-7 7zm-65.0312 0h-50c-3.8662 0-7-3.1338-7-7s3.1338-7 7-7h50c3.8662 0 7 3.1338 7 7s-3.1338 7-7 7zm-80 0h-50c-3.8662 0-7-3.1338-7-7s3.1338-7 7-7h50c3.8662 0 7 3.1338 7 7s-3.1338 7-7 7zm-80.0005 0h-50c-3.8657 0-7-3.1338-7-7s3.1343-7 7-7h50c3.8662 0 7 3.1338 7 7s-3.1338 7-7 7zm-80 0h-50c-3.8657 0-7-3.1338-7-7s3.1343-7 7-7h50c3.8662 0 7 3.1338 7 7s-3.1338 7-7 7zm-80 0h-50c-3.8657 0-7-3.1338-7-7s3.1343-7 7-7h50c3.8662 0 7 3.1338 7 7s-3.1338 7-7 7z" fill="#ff8e43"/><path d="m439.0322 401.5352h-28.4082c-3.3135 0-6-2.6865-6-6s2.6865-6 6-6h28.4082c3.3135 0 6 2.6865 6 6s-2.6865 6-6 6zm-58.4082 0h-50c-3.3135 0-6-2.6865-6-6s2.6865-6 6-6h50c3.3135 0 6 2.6865 6 6s-2.6865 6-6 6zm-80 0h-50c-3.314 0-6-2.6865-6-6s2.686-6 6-6h50c3.3135 0 6 2.6865 6 6s-2.6865 6-6 6zm-80 0h-50c-3.314 0-6-2.6865-6-6s2.686-6 6-6h50c3.3135 0 6 2.6865 6 6s-2.6865 6-6 6zm-80 0h-50c-3.314 0-6-2.6865-6-6s2.686-6 6-6h50c3.3135 0 6 2.6865 6 6s-2.6865 6-6 6z" fill="#ff8e43"/><g><circle cx="191.802" cy="266.644" fill="#f99680" r="14.776"/><path d="m223.1481 259.4183c-4.4741-1.835-8.9701-3.7-13.4876-5.5956-5.9315-2.4889-11.7998-4.9884-17.6048-7.4969-.319-.1601-2.4258-1.1996-3.0013-3.6612-.3757-1.6068-.0876-3.4342.9803-4.9847l1.9022-2.7614c1.6786-2.4371 4.7162-3.2944 7.0948-2.0026 4.4641 1.2288 10.134 3.2441 16.238 6.65 5.4449 3.0383 9.7379 6.3473 12.9522 9.2041 2.6533 1.9132 3.355 5.4741 1.8202 8.0649-1.4933 2.5209-4.4296 3.6213-6.8941 2.5834z" fill="#6b443f"/><circle cx="320.199" cy="268.706" fill="#f99680" r="14.776"/><path d="m289.1007 260.4776c4.5307-1.6904 9.0843-3.41 13.6604-5.1595 6.0084-2.2971 11.9539-4.6069 17.8365-6.9276.3239-.1498 2.4631-1.1211 3.1173-3.563.4271-1.5939.1979-3.4297-.8197-5.0136l-1.8125-2.8211c-1.5995-2.4897-4.608-3.4442-7.0268-2.2294-4.5012 1.0848-10.233 2.9169-16.4432 6.1251-5.5397 2.8618-9.9368 6.0313-13.2412 8.7833-2.7134 1.827-3.5291 5.3635-2.0783 8.0023 1.4116 2.5676 4.311 3.7617 6.8076 2.8035z" fill="#6b443f"/><path d="m243.4166 272.5424c-.0018-1.5801 1.216-2.9056 2.7928-3.0066 3.5934-.2301 7.4392-.3467 11.5091-.2949 3.4542.0439 6.7401.205 9.8406.4483 1.5397.1208 2.7509 1.4081 2.748 2.9525-.0259 14.0594-5.5892 25.0383-12.4893 25.0413-13.0384.0057-14.3838-9.5171-14.4012-25.1406z" fill="#fff"/></g><path d="m406.001 430.0498h-27.8525c-3.3135 0-6-2.6865-6-6s2.6865-6 6-6h27.8525c3.3135 0 6 2.6865 6 6s-2.6865 6-6 6zm-57.8525 0h-50c-3.3135 0-6-2.6865-6-6s2.6865-6 6-6h50c3.3135 0 6 2.6865 6 6s-2.6865 6-6 6zm-80 0h-49.9995c-3.314 0-6-2.6865-6-6s2.686-6 6-6h49.9995c3.3135 0 6 2.6865 6 6s-2.6865 6-6 6zm-79.9995 0h-50c-3.314 0-6-2.6865-6-6s2.686-6 6-6h50c3.3135 0 6 2.6865 6 6s-2.6865 6-6 6z" fill="#ff8e43"/></svg>