<svg id="Layer_1" enable-background="new 0 0 512 512" viewBox="0 0 512 512" xmlns="http://www.w3.org/2000/svg"><g><path d="m256 481.3c-56.9 0-103.2-44.3-103.2-98.8 0-38.8 23.5-73.6 60.1-89.8v-217.5c0-23.8 19.4-43.2 43.2-43.2s43.2 19.4 43.2 43.2v217.6c36.6 16.1 60.1 51 60.1 89.8-.2 54.4-46.5 98.7-103.4 98.7zm0-438.3c-17.7 0-32.2 14.4-32.2 32.2v221.3c0 2.3-1.4 4.3-3.5 5.1-34.4 13.7-56.6 45.5-56.6 81 0 48.4 41.4 87.8 92.2 87.8s92.2-39.4 92.2-87.8c0-35.5-22.2-67.3-56.6-81-2.1-.8-3.5-2.9-3.5-5.1v-221.3c.2-17.8-14.3-32.2-32-32.2z" fill="#6b443f"/><path d="m267.9 336.4v-65.8c0-6.9-5.6-12.5-12.5-12.5s-12.5 5.6-12.5 12.5v66.1c-25.6 5.3-44.7 25.9-44.7 50.4 0 28.6 25.9 51.7 57.8 51.7s57.8-23.2 57.8-51.7c0-25-19.7-45.8-45.9-50.7z" fill="#afc8e5"/><g fill="#6b443f"><path d="m326.8 93h-14.1c-2.3 0-4.1-1.8-4.1-4.1 0-2.3 1.8-4.1 4.1-4.1h14.1c2.3 0 4.1 1.8 4.1 4.1 0 2.3-1.8 4.1-4.1 4.1z"/><path d="m326.8 114.5h-14.1c-2.3 0-4.1-1.8-4.1-4.1 0-2.3 1.8-4.1 4.1-4.1h14.1c2.3 0 4.1 1.8 4.1 4.1 0 2.2-1.8 4.1-4.1 4.1z"/><path d="m341.2 135.9h-28.5c-2.3 0-4.1-1.8-4.1-4.1 0-2.3 1.8-4.1 4.1-4.1h28.5c2.3 0 4.1 1.8 4.1 4.1 0 2.3-1.8 4.1-4.1 4.1z"/><path d="m326.8 157.4h-14.1c-2.3 0-4.1-1.8-4.1-4.1 0-2.3 1.8-4.1 4.1-4.1h14.1c2.3 0 4.1 1.8 4.1 4.1 0 2.2-1.8 4.1-4.1 4.1z"/><path d="m312.7 170.6h14.1c2.3 0 4.1 1.8 4.1 4.1 0 2.3-1.8 4.1-4.1 4.1h-14.1c-2.3 0-4.1-1.8-4.1-4.1 0-2.2 1.9-4.1 4.1-4.1z"/><path d="m341.2 200.3h-28.5c-2.3 0-4.1-1.8-4.1-4.1 0-2.3 1.8-4.1 4.1-4.1h28.5c2.3 0 4.1 1.8 4.1 4.1 0 2.3-1.8 4.1-4.1 4.1z"/><path d="m326.8 221.8h-14.1c-2.3 0-4.1-1.8-4.1-4.1 0-2.3 1.8-4.1 4.1-4.1h14.1c2.3 0 4.1 1.8 4.1 4.1 0 2.2-1.8 4.1-4.1 4.1z"/><path d="m326.8 243.2h-14.1c-2.3 0-4.1-1.8-4.1-4.1 0-2.3 1.8-4.1 4.1-4.1h14.1c2.3 0 4.1 1.8 4.1 4.1 0 2.3-1.8 4.1-4.1 4.1z"/><path d="m341.2 264.7h-28.5c-2.3 0-4.1-1.8-4.1-4.1 0-2.3 1.8-4.1 4.1-4.1h28.5c2.3 0 4.1 1.8 4.1 4.1 0 2.2-1.8 4.1-4.1 4.1z"/></g><g><path d="m239.7 391.5c0-.9.6-1.6 1.4-1.7 3.2-.5 7-1.3 15.1-1.5 6.1-.2 11.3 1.1 14.6 1.6.8.1 1.4.8 1.4 1.6 0 11.5-8 17.8-15.8 18.2-10.7.7-16.1-5.2-16.7-18.2z" fill="#cd4545"/><path d="m264 389.3c0 2.9-3.2 7-7.3 7s-7.7-4.1-7.7-7c0-1 15-1.2 15 0z" fill="#fff"/></g><path d="m227.5 381.9-6-5.5c-1.9-1.8-2.5-4.3-1.3-5.8 1.1-1.5 3.6-1.7 5.8-.5l7.1 4.1c2.9 1.6 4 4.9 2.5 6.8l-1.1 1.4c-1.4 1.8-4.7 1.5-7-.5z" fill="#6b443f"/><circle cx="222.4" cy="392.1" fill="#f99680" r="8.2"/><path d="m284.5 381.9 6-5.5c1.9-1.8 2.5-4.3 1.3-5.8-1.1-1.5-3.6-1.7-5.8-.5l-7.1 4.1c-2.9 1.6-4 4.9-2.5 6.8l1.1 1.4c1.4 1.8 4.7 1.5 7-.5z" fill="#6b443f"/><circle cx="289.6" cy="392.1" fill="#f99680" r="8.2"/></g></svg>