<svg id="Layer_1" viewBox="0 0 512 512" xmlns="http://www.w3.org/2000/svg" data-name="Layer 1"><path d="m267.8849 336.4149v-258.7961c0-6.9036-5.5964-12.5-12.5-12.5s-12.5 5.5964-12.5 12.5v259.0503c-25.5965 5.32-44.6771 25.8505-44.6771 50.3843 0 28.5745 25.8745 51.7388 57.7922 51.7388s57.7922-23.1642 57.7922-51.7388c0-24.9268-19.692-45.7317-45.9073-50.6385z" fill="#e25a40"/><path d="m256 481.3047c-56.9199 0-103.2275-44.3135-103.2275-98.7812 0-38.7998 23.4502-73.6416 60.0654-89.7549v-217.6128c0-23.7998 19.3623-43.1621 43.1621-43.1621s43.1621 19.3623 43.1621 43.1621v217.6128c36.6152 16.1143 60.0654 50.9561 60.0654 89.7549 0 54.4678-46.3076 98.7812-103.2275 98.7812zm0-438.311c-17.7344 0-32.1621 14.4277-32.1621 32.1621v221.269c0 2.251-1.3711 4.2744-3.4619 5.1084-34.3853 13.7197-56.6035 45.5107-56.6035 80.9902 0 48.4023 41.373 87.7812 92.2275 87.7812s92.2275-39.3789 92.2275-87.7812c0-35.4795-22.2188-67.2705-56.6035-80.9902-2.0908-.834-3.4619-2.8574-3.4619-5.1084v-221.269c0-17.7344-14.4277-32.1621-32.1621-32.1621z" fill="#6b443f"/><g fill="#6b443f"><path d="m326.8465 92.998h-14.1162c-2.2635 0-4.0982-1.835-4.0982-4.0982 0-2.2635 1.8348-4.0982 4.0982-4.0982h14.1162c2.2633 0 4.0982 1.8348 4.0982 4.0982 0 2.2633-1.835 4.0982-4.0982 4.0982z"/><path d="m326.8465 114.4568h-14.1162c-2.2635 0-4.0982-1.8348-4.0982-4.0982 0-2.2635 1.8348-4.0982 4.0982-4.0982h14.1162c2.2633 0 4.0982 1.8348 4.0982 4.0982 0 2.2635-1.835 4.0982-4.0982 4.0982z"/><path d="m341.1911 135.9156h-28.4609c-2.2635 0-4.0982-1.8348-4.0982-4.0982 0-2.2635 1.8348-4.0982 4.0982-4.0982h28.4609c2.2635 0 4.0982 1.8348 4.0982 4.0982 0 2.2635-1.8348 4.0982-4.0982 4.0982z"/><path d="m326.8465 157.3745h-14.1162c-2.2635 0-4.0982-1.8348-4.0982-4.0982 0-2.2633 1.8348-4.0982 4.0982-4.0982h14.1162c2.2633 0 4.0982 1.835 4.0982 4.0982 0 2.2635-1.835 4.0982-4.0982 4.0982z"/><rect height="8.197" rx="4.098" width="22.313" x="308.632" y="170.637"/><path d="m341.1911 200.2923h-28.4609c-2.2635 0-4.0982-1.835-4.0982-4.0982 0-2.2635 1.8348-4.0982 4.0982-4.0982h28.4609c2.2635 0 4.0982 1.8348 4.0982 4.0982 0 2.2633-1.8348 4.0982-4.0982 4.0982z"/><path d="m326.8465 221.7511h-14.1162c-2.2635 0-4.0982-1.8348-4.0982-4.0982 0-2.2635 1.8348-4.0982 4.0982-4.0982h14.1162c2.2633 0 4.0982 1.8348 4.0982 4.0982 0 2.2635-1.835 4.0982-4.0982 4.0982z"/><path d="m326.8465 243.2099h-14.1162c-2.2635 0-4.0982-1.8348-4.0982-4.0982 0-2.2635 1.8348-4.0982 4.0982-4.0982h14.1162c2.2633 0 4.0982 1.8348 4.0982 4.0982 0 2.2635-1.835 4.0982-4.0982 4.0982z"/><path d="m341.1911 264.6688h-28.4609c-2.2635 0-4.0982-1.8348-4.0982-4.0982 0-2.2633 1.8348-4.0982 4.0982-4.0982h28.4609c2.2635 0 4.0982 1.835 4.0982 4.0982 0 2.2635-1.8348 4.0982-4.0982 4.0982z"/></g><g><circle cx="286.867" cy="398.752" fill="#ffbaba" r="8.192"/><path d="m275.8529 392.7827c2.1842-1.555 4.3765-3.1289 6.5765-4.7221 2.8886-2.0919 5.7418-4.1815 8.5596-6.2679.152-.1267 1.1584-.9536 1.1587-2.3553.0002-.9149-.3858-1.8652-1.1579-2.5677l-1.3753-1.2511c-1.2137-1.1041-2.9618-1.1839-4.0831-.1865-2.2552 1.2264-5.0624 3.0296-7.9285 5.6383-2.5566 2.3271-4.4572 4.6551-5.8323 6.6029-1.1913 1.3676-1.1211 3.3787.0343 4.5839 1.1242 1.1728 2.8483 1.3966 4.048.5254z" fill="#6b443f"/><ellipse cx="256.199" cy="402.273" fill="#cd4545" rx="11.307" ry="11.334"/><ellipse cx="256.199" cy="394.217" fill="#fdfcfa" rx="6.809" ry="3.278"/><circle cx="225.133" cy="398.752" fill="#ffbaba" r="8.192"/><path d="m236.1471 392.7827c-2.1842-1.555-4.3765-3.1289-6.5765-4.7221-2.8886-2.0919-5.7418-4.1815-8.5596-6.2679-.152-.1267-1.1584-.9536-1.1587-2.3553-.0002-.9149.3858-1.8652 1.1579-2.5677l1.3753-1.2511c1.2137-1.1041 2.9618-1.1839 4.0831-.1865 2.2552 1.2264 5.0624 3.0296 7.9285 5.6383 2.5566 2.3271 4.4572 4.6551 5.8323 6.6029 1.1913 1.3676 1.1211 3.3787-.0343 4.5839-1.1242 1.1728-2.8483 1.3966-4.048.5254z" fill="#6b443f"/></g></svg>