<svg id="Layer_1" enable-background="new 0 0 512 512" viewBox="0 0 512 512" xmlns="http://www.w3.org/2000/svg"><g><path d="m492.7 207.6c-.6-52-45.2-93.7-99.6-93.1-5.3.1-10.6.5-15.7 1.4-.7-43-45.6-77.4-100.5-76.8-47.5.5-86.9 27.1-96.5 62.1-3.6-.8-7.3-1.4-11.1-1.7-42.8-3.5-80.2 25.9-83.5 65.7v.3c-.1 0-.1 0-.2 0-37 .4-66.7 31.5-66.3 69.5s30.8 68.4 67.8 68c18.3-.2 34.8-7.9 46.8-20.3 16.9 26.7 52.7 44.8 94 44.4 29.5-.3 56-10.1 74.6-25.6 8.9 14.5 28 24.4 50.1 24.1 21-.2 39.1-9.6 48.2-23.1 51.8-3.1 92.5-44.6 91.9-94.9z" fill="#6d88a0"/><path clip-rule="evenodd" d="m201 375c-1.1 2.8-.8 5.6 1 8s4.6 3.8 7.9 3.9l34.8 1.5-30 64.3c-1.8 3.9 0 7.9 4.2 8.2 2.2.2 4.9-.8 7.3-3.4l89.3-97.8c1.5-1.6 1.9-3.6 1-5.5-.8-1.9-2.6-3.1-4.9-3.3l-34.2-3.4c-2-.2-3.6-1.1-4.6-2.6s-1-3.2-.2-4.9l31.8-62.5c1.4-2.7 1.3-5.4-.2-8-.7-1.1-1.6-2.1-2.7-2.9-2.4-1.6-5.7.2-6.9.7-5.1 2.4-21.7 21.3-44.5 48-16 20.1-33.2 39.8-49.1 59.7z" fill="#fde05f" fill-rule="evenodd"/><circle cx="206" cy="208.1" fill="#ffbaba" r="15.2"/><path d="m238.2 200.1c-4.6-1.8-9.3-3.7-14-5.5-6.2-2.5-12.2-4.9-18.3-7.4-.3-.2-2.5-1.2-3.2-3.7-.4-1.6-.1-3.5.9-5.2l1.9-2.9c1.7-2.5 4.8-3.5 7.3-2.2 4.6 1.2 10.5 3.2 16.8 6.6 5.7 3 10.1 6.4 13.5 9.3 2.8 1.9 3.5 5.6 2 8.3-1.4 2.5-4.4 3.7-6.9 2.7z" fill="#6b443f"/><circle cx="335" cy="208.1" fill="#ffbaba" r="15.2"/><path d="m302.8 200.1c4.6-1.8 9.3-3.7 14-5.5 6.2-2.5 12.2-4.9 18.3-7.4.3-.2 2.5-1.2 3.2-3.7.4-1.6.1-3.5-.9-5.2l-1.9-2.9c-1.7-2.5-4.8-3.5-7.3-2.2-4.6 1.2-10.5 3.2-16.8 6.6-5.7 3-10.1 6.4-13.5 9.3-2.8 1.9-3.5 5.6-2 8.3 1.4 2.5 4.4 3.7 6.9 2.7z" fill="#6b443f"/><ellipse cx="271" cy="212" fill="#cd4545" rx="21" ry="20"/><ellipse cx="271" cy="198.2" fill="#fdfcfa" rx="12.7" ry="6.1"/></g></svg>