<svg id="Layer_1" enable-background="new 0 0 512 512" viewBox="0 0 512 512" xmlns="http://www.w3.org/2000/svg"><g><path d="m333.1 481c-28.4-7.4-139.8-26.9-177.3-136 0 0-47.1-26.1-40.4-54.5 1.3-5.6 6.6-8.8 13.1-8 25.9 2.9 12.9-14.7-20-39.7 0 0-38.3-21.8-23.4-48 17.7-31.1-22.9-18.4-50.8-69.5 0 0-42.6-84.4 85.1-94.6 2.3-.2 3.4 2.8 1.4 4.1-67.4 49 62.8 119 226.9 90.8 21.2-2.7 69.8-21.8 33.9-42.1-4.8-3-58.1-30.9-88.7-20.7 183.3 32.3-75.3 78.6-115.8 6.8-22.6-67.5 251.6-38.3 305.5 39.2 0 0 11.3 18.6-21.2 53.6-1.7 1.9 15.6 14.1 11.8 24.3-7.5 20.3-36.2 73.9-99.2 114.3 0 0-106.8 65.4-30.3 51.8 2-.4 4.1 1.6 3 3-15 18.6-49.5 60.5-8 117.7 3.1 4.1-.4 8.8-5.6 7.5z" fill="#637b94"/><circle cx="198.6" cy="225.5" fill="#ffbaba" r="15.2"/><path d="m230.7 217.5c-4.6-1.8-9.3-3.7-14-5.5-6.2-2.5-12.2-4.9-18.3-7.4-.3-.2-2.5-1.2-3.2-3.7-.4-1.6-.1-3.5.9-5.2l1.9-2.9c1.7-2.5 4.8-3.5 7.3-2.2 4.6 1.2 10.5 3.2 16.8 6.6 5.7 3 10.1 6.4 13.5 9.3 2.8 1.9 3.5 5.6 2 8.3-1.3 2.5-4.3 3.7-6.9 2.7z" fill="#6b443f"/><circle cx="327.6" cy="225.5" fill="#ffbaba" r="15.2"/><path d="m295.4 217.5c4.6-1.8 9.3-3.7 14-5.5 6.2-2.5 12.2-4.9 18.3-7.4.3-.2 2.5-1.2 3.2-3.7.4-1.6.1-3.5-.9-5.2l-1.9-2.9c-1.7-2.5-4.8-3.5-7.3-2.2-4.6 1.2-10.5 3.2-16.8 6.6-5.7 3-10.1 6.4-13.5 9.3-2.8 1.9-3.5 5.6-2 8.3 1.4 2.5 4.4 3.7 6.9 2.7z" fill="#6b443f"/><ellipse cx="263.6" cy="229.4" fill="#cd4545" rx="21" ry="20"/><ellipse cx="263.6" cy="215.5" fill="#fdfcfa" rx="12.7" ry="6.1"/></g></svg>