<svg id="Layer_1" enable-background="new 0 0 512 512" viewBox="0 0 512 512" xmlns="http://www.w3.org/2000/svg"><g><path d="m382.6 249.5c0-45.4-33.9-82.2-75.7-82.2-4.1 0-8.1.4-12.1 1.1-.2-37.6-34.3-68-76.4-68-36.4 0-66.9 22.8-74.6 53.3-2.8-.7-5.6-1.3-8.5-1.6-32.8-3.5-61.8 21.8-64.7 56.5v.3h-.1c-28.4 0-51.4 26.9-51.4 60s23 60 51.4 60c14.1 0 26.8-6.6 36.1-17.3 12.7 23.5 40.1 39.7 71.7 39.7 22.6 0 43-8.3 57.5-21.6 6.7 12.8 21.3 21.6 38.2 21.6 16.1 0 30.1-8 37.2-19.7 39.9-2.4 71.4-38.2 71.4-82.1z" fill="#d6edf5"/><circle cx="153.3" cy="250.8" fill="#f99680" r="12.6"/><path d="m159.9 237.1c-1.3 0-2.6-.7-3.2-2-.8-1.8-.1-3.8 1.7-4.7l15.7-7.3-16.1-6.3c-1.8-.7-2.7-2.7-2-4.5s2.7-2.7 4.5-2l23.7 9.2c1.3.5 2.2 1.7 2.2 3.1s-.7 2.7-2 3.3l-23.2 10.8c-.3.3-.8.4-1.3.4z" fill="#6b443f"/><circle cx="267" cy="250.8" fill="#f99680" r="12.6"/><path d="m222.9 263.1c-3.9 0-7.3-2.4-7.7-2.7-1.1-.8-1.4-2.4-.6-3.5s2.4-1.4 3.5-.6c.9.6 3.6 2.1 5.6 1.7.9-.2 1.7-.9 2.3-2 1.7-3.2.1-4.9-3.8-7.1-1.3-.7-2.3-1.3-2.6-2.6-.2-.7 0-1.5.4-2.1.9-1.4 2.8-5.1.9-6.4-2-1.4-7.4-.6-10 2.9-.8 1.1-2.4 1.3-3.5.5s-1.3-2.4-.5-3.5c3.9-5.2 12.2-7.1 16.8-4 1.3.9 5 4.2 1.6 11.2 2.9 1.7 9.1 6 5.1 13.5-1.7 3.1-4 4.2-5.6 4.5-.6.1-1.3.2-1.9.2zm1.5-16.5c0 .1-.1.1-.1.2 0-.1 0-.1.1-.2z" fill="#e47410"/><path d="m258.4 237.1c-.5 0-1-.1-1.5-.3l-23.2-10.8c-1.3-.6-2.1-1.9-2-3.3s.9-2.6 2.2-3.1l23.7-9.2c1.8-.7 3.8.2 4.5 2s-.2 3.8-2 4.5l-16.1 6.3 15.7 7.3c1.8.8 2.5 2.9 1.7 4.7-.5 1.1-1.7 1.9-3 1.9z" fill="#6b443f"/><g fill="#cbdde1"><path d="m418.6 234.5c-1.2 1.3-3.4.5-3.4-1.3-.2-4.1.3-10.1 3.9-15.9 8.3-13.7 25.2-13.6 25.9-13.6 9-1.2 17.9 2.5 23.3 9.7 6.7 9 4.7 19.1 3.7 22.7-.2.8 0 1.6.7 2.1 4.1 3.2 17.2 14.9 17 33.5-.1 16-10 30.7-25.1 37.5-.1.1-.2.1-.4.1-4.9 1.2-18 3.8-32.9-2-6.9-2.7-12.3-6.5-16.1-10-1.5-1.4-.2-3.9 1.8-3.4 10.5 2.5 20.5-.1 28.6-4.8 9.1-5.2 13.2-18.7 11-26.6-1.4-5.2-5.8-9.3-11.3-11-1.9-.6 5.8-.9 8.7-5.9 2.8-4.7 2-10.8-1.8-14.8-.1-.1-.2-.2-.3-.2-2.1-1.6-7.4-5.1-14.8-5.1-8.8.3-15.1 5.4-18.5 9z"/><path d="m315.1 255.2c-3.7-.4-3.5-5.7.1-6 14.6-.9 29.6-2.1 44.9-3.6 15.7-1.5 30.9-3.3 45.8-5.3 3.5-.5 9.3-.8 16.1 1.2 1.3.4 2.5.8 3.7 1.3 2.7 1.1 2.4 5-.5 5.7-16.1 3.6-34.9 6.7-56 7.9-19.7 1.2-37.9.5-54.1-1.2z"/><path d="m361.7 271.1c-2.1-.3-1.9-3.5.2-3.5 8.6-.1 17.4-.4 26.5-.9 9.3-.5 18.3-1.1 27-1.9 2.1-.2 5.5-.2 9.4 1.2.8.3 1.5.5 2.1.9 1.6.7 1.3 3-.4 3.3-9.5 1.7-20.7 3-33.1 3.1-11.6.1-22.3-.8-31.7-2.2z"/><path d="m420.1 287.7c2.8-.5 2.4-3.7-.4-3.5-11.2.8-22.7 1.4-34.4 1.9-12 .5-23.8.8-35.2 1-2.7 0-7.2.4-12.2 2.2-1 .3-1.9.7-2.7 1.1-2 .9-1.5 3.2.7 3.3 12.4.7 27 .8 43.1-.4 15.1-1.2 28.9-3.2 41.1-5.6z"/><path d="m181.6 321.2c-1.2.9-2.9-.1-2.7-1.6.5-3.5 2-8.4 5.9-12.7 9.2-10.1 23.4-7.3 24-7.1 7.8.5 14.7 5.1 18 12 4.2 8.7.8 16.8-.7 19.7-.3.6-.2 1.4.2 1.9 2.9 3.4 12 15.3 8.7 31-2.8 13.4-13.5 24.1-27.3 27.3-.1 0-.2 0-.3 0-4.3.2-15.8.2-27.3-7.1-5.4-3.4-9.2-7.5-11.9-11-1.1-1.4.5-3.3 2.1-2.6 8.4 3.9 17.2 3.3 24.8.7 8.5-2.9 14.2-13.5 13.7-20.5-.3-4.6-3.3-8.8-7.7-11.1-1.5-.8 5 .2 8.3-3.5 3.1-3.5 3.5-8.7.9-12.7-.1-.1-.1-.2-.2-.2-1.5-1.7-5.4-5.5-11.6-6.7-7.3-1.6-13.5 1.7-16.9 4.2z"/><path d="m72 329.7c-3.5-.6-2.8-5.2.7-5.1 14.2.5 28.8.9 43.8 1 15.3.1 30.2 0 44.8-.3 3.4-.1 9.1.2 15.4 2.5 1.2.4 2.4.9 3.4 1.4 2.5 1.2 1.8 4.5-1.1 4.8-15.9 1.6-34.4 2.5-54.9 1.6-19.2-.8-36.7-3.1-52.1-5.9z"/><path d="m117.7 347.4c-2-.5-1.5-3.1.6-3 8.3.7 16.9 1.2 25.7 1.6 9 .4 17.8.7 26.3.9 2 0 5.3.3 9 1.8.7.3 1.4.6 2 .9 1.4.8.9 2.7-.8 2.8-9.4.6-20.3.6-32.3-.4-11.4-.8-21.6-2.5-30.5-4.6z"/><path d="m158.4 366.8c2.7-.2 2.7-2.9-.1-3-10.9-.4-22.1-.9-33.5-1.5-11.7-.7-23.1-1.5-34.1-2.4-2.6-.2-6.9-.3-12 .7-1 .2-1.9.4-2.7.7-2 .6-1.8 2.6.3 2.9 12 1.7 26 3.1 41.7 3.6 14.8.4 28.4 0 40.4-1z"/><path d="m43.6 343c-2-.5-1.5-3.1.6-3 8.3.7 16.9 1.2 25.7 1.6 9 .4 17.8.7 26.3.9 2 0 5.3.3 9 1.8.7.3 1.4.6 2 .9 1.4.8.9 2.7-.8 2.8-9.4.6-20.3.6-32.3-.4-11.4-.8-21.6-2.6-30.5-4.6z"/></g></g></svg>