<svg id="Layer_1" enable-background="new 0 0 512 512" viewBox="0 0 512 512" xmlns="http://www.w3.org/2000/svg"><g><path d="m390.9 241.8c0-46.3-34.5-83.9-77.1-83.9-4.2 0-8.3.4-12.3 1.1-.2-38.3-35-69.4-77.9-69.4-37.2 0-68.2 23.2-76 54.3-2.8-.7-5.7-1.3-8.7-1.6-33.5-3.6-63 22.2-65.9 57.7v.3h-.1c-29 0-52.5 27.4-52.5 61.2s23.5 61.2 52.5 61.2c14.3 0 27.3-6.7 36.8-17.6 13 23.9 40.9 40.5 73.1 40.5 23.1 0 43.9-8.5 58.6-22 6.8 13 21.7 22 39 22 16.4 0 30.7-8.1 37.9-20.1 40.4-2.4 72.6-39 72.6-83.7z" fill="#afc8e5"/><g clip-rule="evenodd" fill="#cbdde1" fill-rule="evenodd"><path d="m134.1 421.8c26.1-.8 8.7-30.5 1.9-41.8-7.8 10.7-27.8 38.7-1.9 41.8z"/><path d="m208.2 444.9c26.1-.7 8.8-30.4 2-41.8-7.8 10.7-28 38.5-2 41.8z"/><path d="m273.1 400.8c26.1-1.2 8.2-30.6 1.2-41.9-7.6 10.8-27.2 39.1-1.2 41.9z"/><path d="m355.2 381.9c26-2.6 6.6-31-.9-41.9-7.1 11.3-25.2 40.5.9 41.9z"/><path d="m327.7 442.7c26-2.5 6.7-31-.8-41.9-7.1 11.2-25.3 40.4.8 41.9z"/></g><g fill="#d6edf5"><path d="m422.5 225.5c-1.2 1.3-3.4.5-3.5-1.3-.2-4.2.3-10.3 3.9-16.2 8.5-14 25.7-13.9 26.4-13.9 9.2-1.2 18.3 2.6 23.8 9.9 6.9 9.2 4.8 19.5 3.7 23.1-.2.8 0 1.6.7 2.2 4.2 3.3 17.5 15.2 17.4 34.2-.1 16.3-10.2 31.3-25.6 38.3-.1.1-.2.1-.4.1-5 1.3-18.4 3.9-33.5-2-7.1-2.8-12.5-6.6-16.4-10.2-1.6-1.4-.2-4 1.8-3.5 10.7 2.6 20.9-.1 29.1-4.9 9.3-5.3 13.4-19.1 11.2-27.1-1.5-5.3-5.9-9.5-11.6-11.2-2-.6 5.9-.9 8.9-6 2.8-4.8 2.1-11-1.9-15.1-.1-.1-.2-.2-.3-.2-2.1-1.6-7.6-5.2-15.1-5.2-8.7 0-15.2 5.2-18.6 9z"/><path d="m317 246.6c-3.7-.4-3.6-5.9.1-6.1 14.9-.9 30.2-2.2 45.8-3.7 16-1.6 31.6-3.4 46.7-5.4 3.5-.5 9.5-.8 16.4 1.2 1.3.4 2.6.8 3.8 1.3 2.8 1.1 2.4 5.1-.5 5.8-16.4 3.7-35.6 6.8-57.1 8-20.3 1.3-38.8.6-55.2-1.1z"/><path d="m364.5 262.8c-2.2-.3-2-3.5.2-3.6 8.8-.1 17.8-.4 27-.9 9.4-.5 18.6-1.1 27.6-1.9 2.1-.2 5.6-.2 9.6 1.2.8.3 1.5.6 2.2.9 1.6.7 1.3 3.1-.4 3.4-9.7 1.7-21.1 3-33.7 3.2-12.1 0-22.9-.9-32.5-2.3z"/><path d="m424 279.7c2.8-.6 2.4-3.7-.4-3.6-11.4.8-23.1 1.4-35.1 1.9-12.3.5-24.2.8-35.9 1-2.7 0-7.3.4-12.4 2.2-1 .3-1.9.7-2.8 1.1-2 .9-1.6 3.2.7 3.4 12.7.7 27.5.8 44-.4 15.4-1.1 29.5-3.2 41.9-5.6z"/></g><g fill="#d6edf5"><path d="m192.8 320.7c-1.3.9-3-.2-2.7-1.7.6-3.6 2.1-8.6 6.1-12.9 9.5-10.2 23.9-7.2 24.6-7 7.9.6 14.9 5.3 18.2 12.4 4.2 8.9.6 17.2-.9 20.1-.3.6-.2 1.4.2 1.9 2.9 3.5 12.1 15.8 8.6 31.7-3 13.6-14 24.5-28.1 27.6-.1 0-.2 0-.3 0-4.4.2-16.1.1-27.8-7.5-5.5-3.6-9.3-7.7-12-11.4-1.1-1.5.5-3.4 2.1-2.6 8.5 4 17.5 3.5 25.3 1 8.7-2.8 14.6-13.7 14.1-20.8-.3-4.7-3.3-9-7.7-11.4-1.6-.8 5.1.3 8.5-3.5 3.2-3.5 3.6-8.8 1.1-13-.1-.1-.1-.2-.2-.3-1.5-1.7-5.4-5.7-11.7-7-7.5-1.4-13.8 1.8-17.4 4.4z"/><path d="m81 328.3c-3.6-.7-2.8-5.3.8-5.2 14.5.7 29.4 1.2 44.6 1.4 15.6.3 30.8.3 45.6.1 3.5 0 9.3.3 15.7 2.7 1.2.5 2.4 1 3.5 1.5 2.5 1.2 1.8 4.6-1.1 4.9-16.2 1.5-35.1 2.2-56 1.1-19.6-1-37.4-3.5-53.1-6.5z"/><path d="m127.4 346.8c-2.1-.5-1.5-3.2.6-3 8.5.8 17.2 1.4 26.2 1.9 9.2.5 18.1.9 26.8 1.1 2 .1 5.4.4 9.1 2 .7.3 1.4.6 2 1 1.5.8.9 2.8-.8 2.8-9.6.5-20.7.5-32.9-.7-11.5-1-21.9-2.9-31-5.1z"/><path d="m168.8 367c2.8-.2 2.7-2.9 0-3.1-11.1-.5-22.5-1.1-34.1-1.9-11.9-.8-23.5-1.7-34.7-2.7-2.6-.2-7.1-.4-12.3.6-1 .2-1.9.4-2.8.7-2.1.6-1.9 2.6.3 2.9 12.2 1.9 26.4 3.4 42.5 4.1 15 .6 28.8.2 41.1-.6z"/><path d="m51.9 341.6c-2.1-.5-1.5-3.2.6-3 8.5.8 17.2 1.4 26.2 1.9 9.2.5 18.1.9 26.8 1.1 2 .1 5.4.4 9.1 2 .7.3 1.4.6 2 1 1.5.8.9 2.8-.8 2.8-9.6.5-20.7.5-32.9-.7-11.5-1.1-21.9-2.9-31-5.1z"/></g><circle cx="272.5" cy="231.8" fill="#ffbaba" r="13.4"/><path d="m207 243.2c-.7 0-1.5-.2-2.2-.6-1.9-1.2-2.4-3.7-1.2-5.5l9.5-14.7c.7-1 1.8-1.7 3-1.8s2.4.4 3.3 1.2l13 13.9c1.5 1.6 1.4 4.1-.2 5.7-1.6 1.5-4.1 1.4-5.7-.2l-9.5-10.1-6.8 10.4c-.6 1.1-1.9 1.7-3.2 1.7z" fill="#e47410"/><path d="m244.2 224.8c4.1-1.6 8.2-3.2 12.3-4.9 5.4-2.2 10.8-4.3 16.1-6.5.3-.1 2.2-1.1 2.8-3.3.4-1.5.1-3.1-.8-4.5l-1.7-2.5c-1.5-2.2-4.2-3.1-6.4-1.9-4.1 1-9.2 2.8-14.8 5.8-5 2.7-8.9 5.6-11.9 8.1-2.4 1.7-3.1 4.9-1.8 7.3 1.3 2.3 3.9 3.3 6.2 2.4z" fill="#6b443f"/><circle cx="156.1" cy="231.8" fill="#ffbaba" r="13.4"/><path d="m184.4 224.8c-4.1-1.6-8.2-3.2-12.3-4.9-5.4-2.2-10.8-4.3-16.1-6.5-.3-.1-2.2-1.1-2.8-3.3-.4-1.5-.1-3.1.8-4.5l1.7-2.5c1.5-2.2 4.2-3.1 6.4-1.9 4.1 1 9.2 2.8 14.8 5.8 5 2.7 8.9 5.6 11.9 8.1 2.4 1.7 3.1 4.9 1.8 7.3-1.3 2.3-3.9 3.3-6.2 2.4z" fill="#6b443f"/></g></svg>