<?xml version="1.0" encoding="UTF-8"?>
<svg xmlns="http://www.w3.org/2000/svg" xmlns:xlink="http://www.w3.org/1999/xlink" viewBox="0 0 512 512" width="512" height="512"><defs><style>.cls-1,.cls-14,.cls-17,.cls-5,.cls-7,.cls-9{fill:none;}.cls-10,.cls-2{fill:#383333;}.cls-3{fill:#ffb833;}.cls-4{fill:#d17352;}.cls-14,.cls-5,.cls-7,.cls-9{stroke:#383333;}.cls-14,.cls-17,.cls-5,.cls-7,.cls-9{stroke-linecap:round;stroke-linejoin:round;}.cls-5{stroke-width:0.75px;}.cls-6{fill:#d89071;}.cls-10,.cls-7{fill-rule:evenodd;}.cls-8{fill:#fff;}.cls-11{fill:#ff535c;}.cls-12{clip-path:url(#clip-path);}.cls-13{fill:#fff3e3;}.cls-14{stroke-dasharray:12;}.cls-15{fill:#aaeeea;}.cls-16{fill:#00ccc1;}.cls-17{stroke:#fff;}</style><clipPath id="clip-path"><path class="cls-1" d="M414.69,236.9c-8.71-2.4-19.6-8.89-27.15-17-12.75-13.76-14.61-30.76-14.86-38.42a1.5,1.5,0,0,1,1.6-1.55c7.65.49,24.58,2.86,37.94,16,7.92,7.79,14.07,18.88,16.2,27.65a52.62,52.62,0,0,1-13.73,13.32Z"/></clipPath></defs><g id="Creativity_and_Innovation" data-name="Creativity and Innovation"><circle class="cls-2" cx="168.03" cy="190.75" r="39.18"/><circle class="cls-2" cx="232.65" cy="191.69" r="39.18"/><circle class="cls-3" cx="204.54" cy="132.49" r="76.93"/><path class="cls-3" d="M181.94,69.37s-21.1-14.68-44.44-14-29.35,2.64-24.3,9.85S159.11,86.47,181.94,69.37Z"/><path class="cls-3" d="M166.67,79.44s6.56-22.82,23.71-35.9,22.57-15.2,23.15-7.09S193,78.38,166.67,79.44Z"/><rect class="cls-3" x="110.15" y="218.76" width="2.78" height="16.66" rx="1.08"/><rect class="cls-3" x="110.15" y="218.76" width="2.78" height="16.66" rx="1.08" transform="translate(-115.55 338.63) rotate(-90)"/><rect class="cls-3" x="302.3" y="420.5" width="2.78" height="16.66" rx="1.08"/><rect class="cls-3" x="302.3" y="420.5" width="2.78" height="16.66" rx="1.08" transform="translate(-125.14 732.51) rotate(-90)"/><rect class="cls-3" x="320.53" y="158.64" width="3.4" height="20.43" rx="1.08"/><rect class="cls-3" x="320.53" y="158.64" width="3.4" height="20.43" rx="1.08" transform="translate(153.37 491.09) rotate(-90)"/><path class="cls-4" d="M264,157.63c.73-.73,4.72-4.57,10.5-4.21.85.05,4.21.26,6.51,2.36,5.93,5.43,3.88,22.82-6.23,27.4-5.65,2.55-11.71.16-13.75-.77Z"/><path class="cls-5" d="M278.7,163.56l-9.8-.35s10,6.1,1.78,14.25"/><path class="cls-4" d="M148.14,158.92a14.15,14.15,0,0,0-10.59-4c-.85.07-4.21.36-6.45,2.5-5.82,5.57-3.38,22.91,6.83,27.26,5.7,2.43,11.71-.1,13.73-1.07Q149.91,171.27,148.14,158.92Z"/><path class="cls-5" d="M133.59,165.17l9.8-.56s-9.91,6.31-1.47,14.28"/><circle class="cls-6" cx="205.78" cy="144.33" r="68.06"/><path class="cls-6" d="M220.76,196.19s-.95,36.49,7.94,45.85,35.26,12.44,43.57,30.59-19,84.66,2.05,184.75a157.76,157.76,0,0,1-45.81,18.37c-54.11,12.25-99.29-8.19-115.62-16.62a327.46,327.46,0,0,0,10.33-73c1.83-68.25-18.21-106.4,2.63-127.72,15-15.37,39.44-7.53,50.42-22.85s9.54-45.37,9.54-45.37S201.66,179.85,220.76,196.19Z"/><path class="cls-6" d="M272.24,160.28s-13.33,68.37-66.35,66.78-66.67-54.79-68.07-86.4C137.82,140.66,224.18,77.49,272.24,160.28Z"/><path class="cls-6" d="M149.9,248c-8.39.31-21.69,2.07-33.14,10.89C105,268,103.88,277.77,87.43,328.18c-8.19,25.11-18.25,54.38-18.25,54.38h0L110.87,398c4.32-7.49,10.06-18,16.12-30.81,5.34-11.33,13.44-28.52,18.42-46.24C149.61,306,154.28,281.2,149.9,248Z"/><path class="cls-2" d="M248.64,151.83a21.42,21.42,0,0,0-12.27-4c-3-.08-7-.18-8.27,2.16a3.24,3.24,0,0,0,.08,3.29c1.39,1.88,4.91.19,10.6.14,7.49-.06,12.35,2.79,12.85,1.71C252,154.34,249.58,152.54,248.64,151.83Z"/><path class="cls-2" d="M162.37,151.66a21.41,21.41,0,0,1,12.34-3.83c3,0,7-.06,8.23,2.3a3.26,3.26,0,0,1-.13,3.3c-1.43,1.85-4.92.1-10.61,0-7.48-.18-12.39,2.58-12.87,1.5C159,154.11,161.42,152.35,162.37,151.66Z"/><path class="cls-7" d="M205.75,163.88S211,176,210,178.3s-10.39,1.53-10.39,1.53"/><ellipse class="cls-4" cx="245.6" cy="182.79" rx="8.3" ry="5.17" transform="translate(-2.9 3.96) rotate(-0.92)"/><ellipse class="cls-4" cx="167.86" cy="184.04" rx="8.3" ry="5.17" transform="translate(-2.93 2.71) rotate(-0.92)"/><path class="cls-5" d="M210.13,202.18a12.4,12.4,0,0,1-11.18,0"/><path class="cls-8" d="M219.89,189.26a41.74,41.74,0,0,1-32.44-.55,17.22,17.22,0,0,0,32.44.55Z"/><path class="cls-9" d="M222.53,225.07s-20.76,4.84-40.21-2.86"/><path class="cls-10" d="M239.34,169.46a5.95,5.95,0,1,1,.14-8.4A6,6,0,0,1,239.34,169.46Z"/><path class="cls-10" d="M245.34,162c-.12-.12-1.44,1.8-2.92,1.54-1.09-.19-1.28-1.42-2.59-2.6a7.13,7.13,0,0,0-4.08-1.67,15,15,0,0,0,2.12,3.65c1.23,1.58,2,2.59,3.21,2.7C243.48,165.85,245.51,162.16,245.34,162Z"/><path class="cls-10" d="M183.36,169.69a5.95,5.95,0,1,1,.63-8.38A6,6,0,0,1,183.36,169.69Z"/><path class="cls-10" d="M169.67,161.08c.13-.11,1.27,1.93,2.77,1.8,1.1-.09,1.4-1.3,2.82-2.35a7.16,7.16,0,0,1,4.22-1.28,15.36,15.36,0,0,1-2.45,3.43c-1.38,1.46-2.26,2.4-3.45,2.4C171.17,165.08,169.49,161.23,169.67,161.08Z"/><path class="cls-3" d="M227.59,236.65s-28.5,6.25-54.07-3.68c0,0-3,8-10.9,10.77s-23.07,5.09-32.17,7.81Q127,278.79,123.6,306a52.81,52.81,0,0,0-7.13,16.31c-4.43,18.07,2.27,33.26,4.89,38.49q-1.23,19.95-3.3,41.06c-2.08,20.83-4.67,40.76-7.64,59.73,0,0,92.16,47.59,167.48-3.85q-3.19-21-5.92-43.1-3.24-26.35-5.41-51.36a66.44,66.44,0,0,0,4.26-17,68.54,68.54,0,0,0-4.94-33.88q2.52-23.87,5.05-47.74s-11.46-9.3-24.12-13.15S227.27,241.62,227.59,236.65Z"/><path class="cls-11" d="M419.28,206.61s5-1.86,8.36.43c2.49,1.68,10.57,11.65,14.7,16.85a1.19,1.19,0,0,1-1.27,1.88,53.88,53.88,0,0,0-15.72-2.45Z"/><path class="cls-11" d="M398.54,226.73s-2,4.9.17,8.36c1.6,2.54,11.33,10.93,16.39,15.22a1.19,1.19,0,0,0,1.92-1.22,54.16,54.16,0,0,1-2-15.79Z"/><g class="cls-12"><path class="cls-3" d="M414.69,236.9c-8.71-2.4-19.6-8.89-27.15-17-12.75-13.76-14.61-30.76-14.86-38.42a1.5,1.5,0,0,1,1.6-1.55c7.65.49,24.58,2.86,37.94,16,7.92,7.79,14.07,18.88,16.2,27.65a52.62,52.62,0,0,1-13.73,13.32Z"/><path class="cls-11" d="M373.67,205.58a45,45,0,0,1,24.7-24l-16.68-17.19-24.7,24Z"/></g><path class="cls-11" d="M415.39,238.55a2.6,2.6,0,0,0,3.36.21,51.72,51.72,0,0,0,11.58-11.23,2.6,2.6,0,0,0-.11-3.36l-.23-.23a2.64,2.64,0,0,0-3.72.1L415.38,234.6a2.65,2.65,0,0,0-.21,3.72Z"/><path class="cls-11" d="M418.43,241.68a2.58,2.58,0,0,0,3.35.21,51.51,51.51,0,0,0,11.58-11.24,2.58,2.58,0,0,0-.11-3.35l-.22-.23a2.64,2.64,0,0,0-3.72.1l-10.89,10.56a2.64,2.64,0,0,0-.22,3.72Z"/><circle class="cls-13" cx="398.34" cy="206.31" r="9.89"/><path class="cls-11" d="M403.47,211.59a7.36,7.36,0,1,0-10.41-.16A7.38,7.38,0,0,0,403.47,211.59Z"/><path class="cls-3" d="M432.33,234.17a.23.23,0,0,1,.22-.1,8.83,8.83,0,0,1,6.34,3.84.23.23,0,0,1-.28.33,6.67,6.67,0,0,0-1.07-.36,5.85,5.85,0,0,0-1.41-.18.22.22,0,0,0-.13.41,7.35,7.35,0,0,1,3.26,6.44,7.13,7.13,0,0,1-1.92,4.23.22.22,0,0,1-.37-.07,3.81,3.81,0,0,0-.94-1.35,4.66,4.66,0,0,0-2.4-1,7.76,7.76,0,0,1-3.85-2.25.23.23,0,0,0-.39.22,4.9,4.9,0,0,0,.5,1.13,4.48,4.48,0,0,0,1,1.12.23.23,0,0,1-.12.4,5.48,5.48,0,0,1-4.28-1.29,5.53,5.53,0,0,1-1.76-4.13.25.25,0,0,1,.12-.19,19.44,19.44,0,0,0,3.06-2.07A19.79,19.79,0,0,0,432.33,234.17Z"/><path class="cls-14" d="M439.27,258.38s14,71.56-13.54,90.34-43.41-11.5-28-17.75,59.6,56.37-47.11,87.79"/><path class="cls-15" d="M188.92,345c-16.27-71.83,33.17-135.26,89.17-139.56,54.75-4.2,106.7,48.81,106.14,100.6-.6,56.73-64.2,113.2-143.29,100.38Z"/><path class="cls-9" d="M187.5,371.27s76.24-89.52,57.72-92.17S225,337.49,259,333.81s38.39-40.74,21.34-32.27S266.07,350.16,294,349.35s9-14.71-8.48-9-86,53.84-86,53.84"/><path class="cls-16" d="M149,363.94h88.54a0,0,0,0,1,0,0v56.76a5.25,5.25,0,0,1-5.25,5.25h-77a6.25,6.25,0,0,1-6.25-6.25V363.94A0,0,0,0,1,149,363.94Z" transform="translate(366.78 -9.09) rotate(49.32)"/><rect class="cls-16" x="154.62" y="403.49" width="28.75" height="21.71" rx="8.86" transform="translate(373.04 16.09) rotate(49.32)"/><path class="cls-3" d="M133.45,250.72A45,45,0,0,0,107,265.39c-11.7,13.14-23.87,75.77-23.87,75.77S107,353,133.45,345.35l21.82-58S152.17,255.76,133.45,250.72Z"/><path class="cls-2" d="M213.75,96S184,147.08,131.1,157.44c0,0-13.17-85.45,70.79-88S281,155.78,281,155.78,222.08,147.94,213.75,96Z"/><path class="cls-6" d="M183.1,336.52a286.83,286.83,0,0,1-43.54,43.92c-18,14.59-28.28,19.12-39.23,20.27-3.23.34-23,2.41-29.26-8.23-3.72-6.31-1-14.25-.08-16.89,6.6-18.52,27.48-24.14,55.43-37.53a375.82,375.82,0,0,0,53.33-31.29Z"/><path class="cls-6" d="M175.93,309.44s5.27-12.34,9.85-17,18-9.45,21.4-7.69-11.54,12.15-11.54,12.15,14.58-6.86,17.3-5.26-3.36,7.62-13.94,14c0,0,13.46-5.17,16.67-2.6s-15.38,11.53-15.38,11.53,11.05-1.44,13.14,1.29a.82.82,0,0,1,.18.44c.17,1.9-7.11,2.43-12.92,5.9-8.27,4.94-7.83,12.35-15.27,14.3a13.37,13.37,0,0,1-6.2.08,53.56,53.56,0,0,1-3-10.63A54.15,54.15,0,0,1,175.93,309.44Z"/><path class="cls-6" d="M329.32,390.46s3.53-3.72,3.83-5.66-3.78-17.38,0-18.75,7.63,13.66,7.63,13.66-3.79-18.68-.71-20,8,15.59,8,15.59-3.72-16.34-.68-17.45,7.78,13.23,7.78,13.23-2.33-12.41-.08-13.41,7.76,12.59,7.1,16.52-5.51.2-5.51.2-2.48,10.17-6.81,4c0,0-2.83,11.07-7.16,5.24C342.64,383.61,334.37,398.29,329.32,390.46Z"/><path class="cls-5" d="M340.57,378.89s1.77,3.66,1.89,5"/><path class="cls-5" d="M348,375.27s1.06,2.3,1.62,3.75"/><path class="cls-5" d="M355.1,371.05a15.11,15.11,0,0,1,1.36,3.84"/><path class="cls-9" d="M133.31,292.47s-11.8,12.67-7.18,40.79l.29,4.8"/><path class="cls-9" d="M77.22,365.15a125.82,125.82,0,0,1,28.71-17.75"/><path class="cls-17" d="M203.67,96.35s-31.22,41.2-65.85,44.31"/><path class="cls-17" d="M183.32,104.68S161,122.31,138.49,123.91"/><path class="cls-17" d="M221.76,101.8s23.52,41,56.94,36.85"/><path class="cls-17" d="M232.65,107.24s19.24,19.87,39.59,15.07"/><path class="cls-17" d="M140.68,191.69s5.68,30.15,27.35,32.7"/></g></svg>
