<svg fill="none" height="24" viewBox="0 0 24 24" width="24" xmlns="http://www.w3.org/2000/svg" xmlns:xlink="http://www.w3.org/1999/xlink"><clipPath id="clip0_170_799"><path d="m0 0h24v24h-24z"/></clipPath><g clip-path="url(#clip0_170_799)"><path clip-rule="evenodd" d="m3.5 12c0-4.08614 3.46521-7.5 7.8674-7.5 2.2538 0 4.2743.90117 5.7031 2.33412.455.4564.8491.96588 1.1716 1.51647l-1.4167-.31483c-.8087-.17971-1.61.33018-1.7897 1.13888-.1797.80871.3302 1.60996 1.1389 1.78966l4.5 1c.7297.1622 1.4674-.2377 1.7299-.9376l1.5-3.99997c.2909-.77568-.1021-1.6403-.8778-1.93118s-1.6403.10212-1.9312.87781l-.3003.80076c-.4465-.75063-.9853-1.44136-1.6003-2.05818-1.9815-1.98738-4.7623-3.21594-7.8275-3.21594-5.94479 0-10.8674 4.64502-10.8674 10.5 0 5.855 4.92261 10.5 10.8674 10.5 2.7648 0 5.2987-.9997 7.2229-2.6544 1.0254-.8817 1.8796-1.9511 2.503-3.1565.3806-.7358.0927-1.6408-.6431-2.0214-.7359-.3806-1.6409-.0927-2.0215.6432-.4424.8553-1.0531 1.6226-1.7944 2.2601-1.3904 1.1956-3.2335 1.929-5.2669 1.929-4.40219 0-7.8674-3.4139-7.8674-7.5z" fill="#3a3a3a" fill-rule="evenodd"/></g></svg>