<?xml version="1.0" encoding="UTF-8"?>
<svg xmlns="http://www.w3.org/2000/svg" xmlns:xlink="http://www.w3.org/1999/xlink" viewBox="0 0 512 512" width="512" height="512"><defs><style>.cls-1,.cls-15,.cls-16,.cls-19,.cls-20,.cls-7,.cls-9{fill:none;}.cls-2{fill:#ffb833;}.cls-3{fill:#ff535c;}.cls-4{clip-path:url(#clip-path);}.cls-5{fill:#fff3e3;}.cls-6{fill:#d17352;}.cls-19,.cls-20,.cls-7,.cls-9{stroke:#383333;}.cls-15,.cls-16,.cls-19,.cls-20,.cls-7,.cls-9{stroke-linecap:round;stroke-linejoin:round;}.cls-7{stroke-width:0.75px;}.cls-18,.cls-8{fill:#d89071;}.cls-12,.cls-13,.cls-14,.cls-17,.cls-18,.cls-9{fill-rule:evenodd;}.cls-10,.cls-17{fill:#aaeeea;}.cls-11,.cls-14{fill:#00ccc1;}.cls-12{fill:#383333;}.cls-13{fill:#fff;}.cls-15,.cls-16{stroke:#00ccc1;}.cls-15{stroke-width:3px;}.cls-16{stroke-width:2px;}.cls-20{stroke-dasharray:12;}</style><clipPath id="clip-path"><path class="cls-1" d="M98.9,146c9.72,2.47,23.8,2.18,35.56-1.54,19.87-6.28,31-21.67,35.44-28.93a1.67,1.67,0,0,0-.69-2.37c-7.66-3.73-25.3-10.74-45.43-5.36-11.92,3.18-24,10.5-30.82,17.81A58.87,58.87,0,0,0,98.9,146Z"/></clipPath></defs><g id="Contact_Us" data-name="Contact Us"><rect class="cls-2" x="180.34" y="154.13" width="3.08" height="18.51" rx="1.08"/><rect class="cls-2" x="180.34" y="154.13" width="3.08" height="18.51" rx="1.08" transform="translate(18.5 345.27) rotate(-90)"/><rect class="cls-2" x="404.86" y="336.97" width="3.08" height="18.51" rx="1.08"/><rect class="cls-2" x="404.86" y="336.97" width="3.08" height="18.51" rx="1.08" transform="translate(60.18 752.63) rotate(-90)"/><rect class="cls-2" x="383.23" y="71.03" width="3.78" height="22.69" rx="1.08"/><rect class="cls-2" x="383.23" y="71.03" width="3.78" height="22.69" rx="1.08" transform="translate(302.75 467.49) rotate(-90)"/><path class="cls-3" d="M111.1,114.26s-3.76-4.52-8.3-4.18c-3.33.26-16.61,5.45-23.45,8.19a1.32,1.32,0,0,0,.2,2.52,59.93,59.93,0,0,1,16.52,6.27Z"/><path class="cls-3" d="M120.07,145.07s-.74,5.83-4.75,8c-2.94,1.57-16.93,4.33-24.18,5.69A1.33,1.33,0,0,1,90,156.51a59.91,59.91,0,0,0,10.57-14.16Z"/><g class="cls-4"><path class="cls-2" d="M98.9,146c9.72,2.47,23.8,2.18,35.56-1.54,19.87-6.28,31-21.67,35.44-28.93a1.67,1.67,0,0,0-.69-2.37c-7.66-3.73-25.3-10.74-45.43-5.36-11.92,3.18-24,10.5-30.82,17.81A58.87,58.87,0,0,0,98.9,146Z"/><path class="cls-3" d="M155.7,138.31a51.31,51.31,0,0,0-1.06-17A50.68,50.68,0,0,0,145,101.62l25.53-7.44,10.7,36.69Z"/></g><path class="cls-3" d="M97.31,147.23A2.87,2.87,0,0,1,94,145.59a57.42,57.42,0,0,1-5-17.2,2.87,2.87,0,0,1,1.94-3.18l.35-.1a2.92,2.92,0,0,1,3.54,2.14l4.71,16.17a2.93,2.93,0,0,1-1.83,3.71Z"/><path class="cls-3" d="M92.67,148.58a2.87,2.87,0,0,1-3.35-1.64,54.83,54.83,0,0,1-2.71-6.86,56.76,56.76,0,0,1-2.3-10.34,2.86,2.86,0,0,1,1.94-3.18l.35-.1a2.93,2.93,0,0,1,3.53,2.14l4.72,16.18a2.92,2.92,0,0,1-1.84,3.7Z"/><circle class="cls-5" cx="131.48" cy="125.46" r="10.99"/><path class="cls-3" d="M123.63,127.75a8.18,8.18,0,1,1,10.13,5.56A8.19,8.19,0,0,1,123.63,127.75Z"/><path class="cls-2" d="M83.37,133.7a.27.27,0,0,0-.15-.22,9.9,9.9,0,0,0-3.7-.8,10.09,10.09,0,0,0-4.54,1,.26.26,0,0,0,.09.48,7,7,0,0,1,1.23.24,6.69,6.69,0,0,1,1.46.6.25.25,0,0,1-.1.47A8.16,8.16,0,0,0,71,139.92a7.85,7.85,0,0,0-.47,5.13.25.25,0,0,0,.4.14,4.25,4.25,0,0,1,1.64-.78,5.05,5.05,0,0,1,2.87.35,8.76,8.76,0,0,0,5-.06.25.25,0,0,1,.25.42,5.14,5.14,0,0,1-1.11.81,5,5,0,0,1-1.55.55.25.25,0,0,0-.1.45,5.85,5.85,0,0,0,8.8-1.92.23.23,0,0,0,0-.24,21.38,21.38,0,0,1-1.82-3.68A22.17,22.17,0,0,1,83.37,133.7Z"/><path class="cls-6" d="M221,127.78c-.78-.72-5-4.52-10.9-4-.86.08-4.3.41-6.58,2.63-5.9,5.76-3.21,23.5,7.29,27.84,5.86,2.43,12-.22,14.05-1.23Q222.91,140.42,221,127.78Z"/><path class="cls-7" d="M206.14,132.88l10-.68s-10.08,6.58-1.35,14.65"/><path class="cls-6" d="M344.57,128.2c.73-.74,4.72-4.66,10.56-4.36.85,0,4.25.22,6.59,2.31,6,5.43,4.15,23-6,27.72-5.68,2.64-11.81.28-13.89-.63Q343.21,140.71,344.57,128.2Z"/><path class="cls-7" d="M359.45,132.52l-9.89-.25s10.19,6,1.94,14.36"/><circle class="cls-8" cx="284.13" cy="108.17" r="72.97"/><path class="cls-8" d="M263.1,175.38c2.63,24.55-3.59,36.29-9.69,42.47-11.43,11.59-27.45,8.7-39.35,24.22-3.68,4.8-6.23,10.42-8.27,19.67-8,36.45,2.59,80,6.46,103.31,3.57,21.56,5.16,52.72-4.84,92.82a194.2,194.2,0,0,0,54.88,17.76c54.1,8.89,98-7.81,117.84-16.95a597.89,597.89,0,0,1-10.49-98.47c-1.49-67.14,9.12-111.44-15.14-128.13-14.16-9.75-28.75-2.25-41.77-15.74-11.83-12.27-12.15-31.49-10.29-46.61C302.44,169.73,272.29,162.87,263.1,175.38Z"/><path class="cls-5" d="M228.76,229.11c-10.16,3.55-24.24,10.21-35.25,23.55-6.89,8.35-6.28,11.69-15.13,30.27-3.79,7.95-6,11.81-35.72,60.53h0l27.85,26c6.93-3.57,51-27.18,62.35-78.09C239.09,263.53,232.68,240.22,228.76,229.11Z"/><path class="cls-5" d="M343.79,227.07a119.5,119.5,0,0,1,18.84,2.78c20.16,4.63,29.57,12.35,42.18,17.08,10.17,3.82,25.87,7,48.58,2.13,1.84,1.88,18.4,19.17,12.81,33.64-.52,1.35-2.81,6.74-11.21,11.21-29.45,15.66-110.11,7.36-119.58-31.5C334,256.7,332.81,244.8,343.79,227.07Z"/><path class="cls-8" d="M211.11,101.5c-.17,5.55-1,57.05,34.88,81.89,4.75,3.29,17.87,12.37,36.66,12.64,20.2.28,34.42-9.8,39.68-13.53,34.22-24.26,34.76-70.61,34.74-76.67-30-29.83-70.3-42.52-105.22-31.53Z"/><path class="cls-5" d="M244.65,223.62c-15,4-24.19,8.46-30.13,12.47l-.17.12c-1.44,1-10.22,7.13-15.42,16.45-8.66,15.51-2.61,31.1,1.68,55.65,0,0,2.26,12.84,4.27,57.13,1,21.29-.24,51.7-10.52,89.71a195.58,195.58,0,0,0,61.7,22.7C316.8,489,366,467.64,385.12,458a325.47,325.47,0,0,1-8.54-51.25c-2.65-31-1.17-66.85.74-110.71,1-23.83,2.7-53.49-13.07-63.47a40.21,40.21,0,0,0-7.15-3.46,73.44,73.44,0,0,0-15.16-4.2c-5.77-1.11-13.37-2.39-22.51-3.52-1.18,1.83-13.17,19.57-35.81,20.73C259.76,243.36,245.71,225.05,244.65,223.62Z"/><path class="cls-2" d="M239.18,113.14a24,24,0,0,1,13.6-5.06c3.35-.22,7.88-.51,9.38,2.06a3.66,3.66,0,0,1,.06,3.7c-1.49,2.17-5.51.43-11.9.63-8.41.26-13.74,3.67-14.35,2.48C235.54,116.1,238.15,114,239.18,113.14Z"/><path class="cls-2" d="M327.57,112.07a24,24,0,0,0-14-3.74c-3.35.1-7.89.24-9.14,3a3.66,3.66,0,0,0,.3,3.69c1.68,2,5.53-.1,11.9-.52,8.4-.54,14,2.34,14.52,1.11C331.48,114.66,328.68,112.8,327.57,112.07Z"/><path class="cls-9" d="M284.35,125s-6.16,13.48-5.14,16.1,11.64,2,11.64,2"/><path class="cls-7" d="M290.11,168.32s-5.09,2-9.29.13"/><ellipse class="cls-6" cx="240.39" cy="143.13" rx="9.32" ry="5.81" transform="translate(-0.6 1.02) rotate(-0.24)"/><ellipse class="cls-6" cx="327.75" cy="143.13" rx="9.32" ry="5.81" transform="translate(-0.6 1.39) rotate(-0.24)"/><rect class="cls-10" x="41.78" y="261.9" width="212.61" height="177.4" rx="13.84"/><circle class="cls-11" cx="61.25" cy="276.45" r="5.17"/><circle class="cls-11" cx="86.78" cy="276.45" r="5.17"/><circle class="cls-11" cx="112.31" cy="276.45" r="5.17"/><path class="cls-8" d="M123.44,257.51a9,9,0,0,0-5.72,1.53c-3.07,2-8.93,14.24-6.14,16.47s10.74-9,10.74-9-7.67,14.4-3.9,15.13,13.67-14.48,13.67-14.48-8.09,13.52-4.88,14.51,15.63-14.09,15.63-14.09-7.68,14.31-3.77,14.06,17.58-17.83,16.75-21.46-9.91-.56-9.91-.56-5.38-4.74-9.74,0c0,0-4.92-4.19-9.1-.42Z"/><path class="cls-7" d="M121.53,267.57s3-7,5.54-8.39"/><path class="cls-7" d="M131.84,267.57s3-6.81,4.33-8"/><path class="cls-7" d="M142.84,267.56s.86-6.12,3.07-8"/><path class="cls-12" d="M258.13,132.45a6.7,6.7,0,1,1,.71-9.45A6.72,6.72,0,0,1,258.13,132.45Z"/><path class="cls-12" d="M319.52,132.45a6.7,6.7,0,1,1,.71-9.45A6.72,6.72,0,0,1,319.52,132.45Z"/><path class="cls-13" d="M272.33,156.18a87.19,87.19,0,0,0,25.29,0,13.27,13.27,0,0,1-25.29,0Z"/><circle class="cls-11" cx="90.78" cy="341.04" r="18.04"/><path class="cls-14" d="M63.36,397.73a2.19,2.19,0,0,1-2.18-2.38c1.91-21.52,10.27-37.06,18.43-40.28a31.51,31.51,0,0,1,10.6-2,31.76,31.76,0,0,1,11.16,2.58c8,3.58,16.47,18.54,18.93,39.37a2.18,2.18,0,0,1-2.15,2.45Z"/><line class="cls-15" x1="133.13" y1="327.48" x2="230.64" y2="327.48"/><line class="cls-15" x1="133.13" y1="349.11" x2="230.64" y2="349.11"/><line class="cls-15" x1="133.13" y1="370.75" x2="230.64" y2="370.75"/><line class="cls-15" x1="133.13" y1="392.38" x2="230.64" y2="392.38"/><path class="cls-2" d="M211.29,123.08C215,135.39,216.93,138,218,137.85c3.19-.52,0-25.34,6.88-52C231,62,248.36,49.41,262.7,56.17s26.34,6.32,43.17-1.82,36.65,19.79,40.57,37.05-.54,43.78,6.05,43.78,6.31-30.43,4.58-46.62A64.72,64.72,0,0,0,310,34.1c-33.63-9.61-74.12,4.1-89.6,27.05a71.11,71.11,0,0,0-9,19.72A77.68,77.68,0,0,0,211.29,123.08Z"/><path class="cls-2" d="M349.56,119.87c-2,13.71-12.2,37-26.43,36.66s-12.1-8.72-36.48-9.68-35.41,10.93-50.72,8.44-17.08-34.62-17.08-34.62l-10.21-12.35s.24,79.35,49.09,84.26,60.11.34,76.07-14.69,23.77-55.65,23.77-55.65Zm-50,53.12c-1.31,1.59-3.26,3.76-6.2,4.32-2.41.46-4.68-.36-6.79-1.29-2.93-1.3-4.6,1.26-8.17,1.7a18.49,18.49,0,0,1-3.93-.37c-5.86-1.36-12.23-10.6-10.23-17.53,3-10.61,23.87-9.14,24.73-9.07,4.57.37,12.19,1,14.86,6.4C307,163.67,300.49,171.85,299.55,173Z"/><path class="cls-16" d="M330.6,205.29S287.36,235.18,294.83,256s32.57,10.41,27.23,1.47-33.36,3.66-30.56,19,41.6,27.84,43,17-27.94-10.28-33.28,7.88,4.1,21.37,33.28,35.25S303.43,460.47,396,446.05"/><path class="cls-17" d="M374.64,111.78s22.8,14.62,21.31,26.28-10.53,41-34.68,64.68-36.14,15.33-42.89,12.93-10.18-6.3-9.93-9.49,25.91-30.38,31.89-12.84c0,0,3.65,6.29,14.41-3.67s25.42-38.34,19.76-41.88-7.3,1.44-10.32-5.18S364,113.78,374.64,111.78Z"/><path class="cls-18" d="M404.81,181.15A50.8,50.8,0,0,1,396,159.56c-1.89-12.71-1.54-19.15-6.7-16.43s-3.56,12.87-3.2,16.6-10.68-2.49-14.59-1.24-2.23,5.94-2.94,6.93-3,1.52-3.44,4.64-3.68,3.55-4.21,5.78-1.77,2.94-3.37,4.09.63,9.1,5.68,12.19,11.53,4.89,21.87,22.78c0,0,21.55-9.08,28.49-22.42Z"/><path class="cls-5" d="M405.07,180.73a446.18,446.18,0,0,1,41.61,50.57c25.78,36.5,23.64,45.25,21.82,49.11-5,10.53-22.42,15.69-35,11.78C423.11,289,415,276.48,400.91,250.25c-5.68-10.62-11.16-20.87-12.89-24.38-4.26-8.64-7.58-16-9.91-21.38a36.27,36.27,0,0,0,14.68-6.67A36.76,36.76,0,0,0,405.07,180.73Z"/><path class="cls-19" d="M397.43,243.74s14.32,41.63,38.61,46.7"/><path class="cls-19" d="M376.64,256s3,23.2.79,37.49"/><path class="cls-20" d="M61.25,150.55S34.47,166,41.78,187s43.88,13.17,39.83,1.78-48.18-1.07-37.15,17.44,102.6-21.65,125.68-11.72,0,44.46,0,44.46"/><path class="cls-9" d="M259,155.64s-2.85,5.68-.89,9.78"/><path class="cls-9" d="M251.77,160.8s-3.83,4.36-1.69,9.34"/><path class="cls-9" d="M308.43,157.6s4,2.76,2.15,7.21"/><path class="cls-9" d="M313.7,163.38s2.58,2.58,0,6.76"/><path class="cls-9" d="M285,177.72S280.42,188,286.47,193"/><path class="cls-9" d="M277.39,184.74s-.89,6,4,8.27"/><path class="cls-9" d="M249.46,46.38s-.8,5.52,10,7.21c0,0-8.82-6.85-5-14.68"/><path class="cls-9" d="M313.12,40s0,9.61-7.34,12.34c0,0,8-.4,11.21-6.17"/><path class="cls-9" d="M222.63,78.63s-5.2,7.75-5.47,14.28"/><path class="cls-9" d="M219.89,94.78s-3.13,9.61-2.73,15.48"/><path class="cls-9" d="M341.83,73s4.92,5.34,5.85,10.14"/><path class="cls-9" d="M350.64,78.1s3.59,6.27,2.85,11.34"/></g></svg>
