<svg clip-rule="evenodd" fill-rule="evenodd" stroke-linejoin="round" stroke-miterlimit="2" viewBox="0 0 96 96" xmlns="http://www.w3.org/2000/svg"><g transform="translate(-3072 -32)"><g transform="translate(240)"><path d="m2846 38c-2.12 0-4.16.843-5.66 2.343s-2.34 3.535-2.34 5.657v74c0 4.418 3.58 8 8 8h74c2.12 0 4.16-.843 5.66-2.343s2.34-3.535 2.34-5.657v-74c0-4.418-3.58-8-8-8z" fill="#c3e5db"/></g><g transform="translate(240)"><path d="m2928 120v-48.828l-56.83 56.828h48.83c2.12 0 4.16-.843 5.66-2.343s2.34-3.535 2.34-5.657z" fill="#28a851"/></g><g transform="matrix(1.067 0 0 1.067 3032.53 -3.2)"><circle cx="104.5" cy="55.5" fill="#fffef1" r="9.375"/></g><g transform="translate(240)"><path d="m2838 99.172v20.828c0 4.418 3.58 8 8 8h74c2.12 0 4.16-.843 5.66-2.343s2.34-3.535 2.34-5.657v-4.828l-44.76-44.758c-2.18-2.186-5.15-3.414-8.24-3.414s-6.06 1.228-8.24 3.414z" fill="#2abd59"/></g><g transform="matrix(1.161 0 0 1.161 2755.81 -5.484)"><circle cx="289.5" cy="49.5" fill="#15aaf7" r="17.222"/></g><path d="m3090 44.828v19.172c0 1.104.9 2 2 2s2-.896 2-2v-19.172l3.59 3.586c.78.781 2.04.781 2.82 0 .79-.78.79-2.048 0-2.828l-7-7c-.78-.781-2.04-.781-2.82 0l-7 7c-.78.78-.78 2.048 0 2.828.78.781 2.04.781 2.82 0z" fill="#fffef1"/></g></svg>