<svg id="Layer_1" enable-background="new 0 0 512.001 512.001" viewBox="0 0 512.001 512.001" xmlns="http://www.w3.org/2000/svg"><g><g clip-rule="evenodd" fill-rule="evenodd"><path d="m220.857 10-210.857 121.737v248.526l210.857 121.738 210.858-121.738v-248.526z" fill="#f7b073"/><path d="m155.945 215.998 210.857-121.737-76.3-44.052-210.856 121.738z" fill="#fde0be"/><path d="m220.857 253.474-210.857-121.737v248.526l210.857 121.738z" fill="#d46b5c"/><path d="m155.945 314.193v-98.195l-76.299-44.051v98.195l33.836-7.415z" fill="#f7b073"/><path d="m286.597 464.046 145.118-83.783v-102.697c-6.554-.974-13.258-1.484-20.082-1.484-74.847 0-135.551 60.704-135.551 135.551 0 18.581 3.745 36.288 10.515 52.413z" fill="#d46b5c"/><ellipse cx="411.633" cy="411.633" fill="#fd6050" rx="90.367" ry="90.368" transform="matrix(.999 -.045 .045 .999 -18.084 18.916)"/></g><g><path d="m441.715 315.87v-184.133c0-3.573-1.906-6.874-5-8.66l-210.858-121.737c-3.094-1.786-6.906-1.786-10 0l-210.857 121.737c-3.094 1.786-5 5.087-5 8.66v248.526c0 3.573 1.906 6.874 5 8.66l210.857 121.737c1.547.894 3.273 1.34 5 1.34 1.726 0 3.453-.447 5-1.34l95.518-55.147c16.311 33.414 50.64 56.487 90.258 56.487 55.343 0 100.367-45.025 100.367-100.368 0-44.866-29.593-82.952-70.285-95.762zm-220.858-294.323 190.857 110.19-190.857 110.19-190.857-110.19zm-200.857 127.51 190.857 110.191v225.432l-190.857-110.19zm210.857 335.623v-225.432l190.857-110.191v162.712c-3.316-.332-6.679-.503-10.082-.503-55.343 0-100.368 45.025-100.368 100.368 0 8.567 1.079 16.886 3.108 24.83zm180.776 7.321c-44.315 0-80.368-36.053-80.368-80.368s36.053-80.368 80.368-80.368c44.314 0 80.367 36.053 80.367 80.368s-36.052 80.368-80.367 80.368z" fill="#052a75"/><path d="m425.775 411.633 18.031-18.031c3.905-3.905 3.905-10.237 0-14.143-3.905-3.905-10.237-3.905-14.143 0l-18.031 18.031-18.031-18.031c-3.905-3.905-10.237-3.905-14.143 0-3.905 3.905-3.905 10.237 0 14.143l18.031 18.031-18.031 18.031c-3.905 3.905-3.905 10.237 0 14.143 1.953 1.953 4.512 2.929 7.071 2.929s5.119-.976 7.071-2.929l18.031-18.031 18.031 18.031c1.953 1.953 4.512 2.929 7.071 2.929s5.119-.976 7.071-2.929c3.905-3.905 3.905-10.237 0-14.143z" fill="#fff"/></g></g><g/><g/><g/><g/><g/><g/><g/><g/><g/><g/><g/><g/><g/><g/><g/></svg>