<?xml version="1.0" encoding="UTF-8"?>
<svg xmlns="http://www.w3.org/2000/svg" viewBox="0 0 24 24">
  <path d="M12 2C6.48 2 2 5.92 2 10.76 2 14.55 4.91 18 8.5 18H10c.55 0 1 .45 1 1 0 1.66 1.34 3 3 3h.58C18.68 22 22 18.34 22 13.84 22 7.3 17.94 2 12 2ZM6.5 11C5.67 11 5 10.33 5 9.5S5.67 8 6.5 8 8 8.67 8 9.5 7.33 11 6.5 11Zm3-4C8.67 7 8 6.33 8 5.5S8.67 4 9.5 4 11 4.67 11 5.5 10.33 7 9.5 7Zm5 0c-.83 0-1.5-.67-1.5-1.5S13.67 4 14.5 4 16 4.67 16 5.5 15.33 7 14.5 7Zm3 4c-.83 0-1.5-.67-1.5-1.5S16.67 8 17.5 8 19 8.67 19 9.5 18.33 11 17.5 11Z"/>
</svg>
