<svg height="512" viewBox="0 0 512 512" width="512" xmlns="http://www.w3.org/2000/svg"><g id="Layer_2" data-name="Layer 2"><g id="Layer_1-2" data-name="Layer 1"><g id="B"><rect fill="#4b5896" height="512" rx="86.57" width="512"/><path d="m425.43 0h-36.43v34.43a86.57 86.57 0 0 0 86.57 86.57h36.43v-34.43a86.57 86.57 0 0 0 -86.57-86.57z" fill="#656faa"/><path d="m96 57a363.32 363.32 0 0 0 -94.29 12.37 87 87 0 0 0 -1.71 17.2v338.86a86.57 86.57 0 0 0 86.57 86.57h338.86a86.61 86.61 0 0 0 22.57-3 363.73 363.73 0 0 0 11-89c0-200.48-162.52-363-363-363z" fill="#656faa"/><path d="m143.6 406v-300h104.8c67.11 0 108.8 32.65 108.8 85.2 0 23.08-7.94 42.2-23.12 56.08 22.26 15.13 34.32 38.72 34.32 67.92 0 56.85-41 90.8-109.6 90.8zm115.2-66.8c12.85 0 34.4-3.59 34.4-27.6 0-17.25-11.57-26-34.4-26h-40.8v53.6zm-10.4-116.8c34.4 0 34.4-18.6 34.4-25.6 0-5.93 0-24-34.4-24h-30.4v49.6z" fill="#fff"/><path d="m358.4 315.2c0 49.6-34.8 80.8-99.6 80.8h-105.2v-280h94.8c64 0 98.8 30.4 98.8 75.2 0 26-10.8 44.8-30.8 56.8v.8c27.2 12.4 42 35.2 42 66.4zm-150.4-152.4v69.6h40.4c25.2 0 44.4-9.6 44.4-35.6 0-25.6-20.8-34-44.4-34zm95.2 148.8c0-26-20-36-44.4-36h-50.8v73.6h50.8c26 0 44.4-12.8 44.4-37.6z" fill="#4b5896"/></g></g></g></svg>