<svg enable-background="new 0 0 512 512" height="512" viewBox="0 0 512 512" width="512" xmlns="http://www.w3.org/2000/svg"><g id="F14_x2C__Flower_x2C__nature_x2C__pot_x2C__present"><g><g><path d="m486 246c0 41.19-27.67 75.92-65.44 86.61 9.78 15.45 15.44 33.76 15.44 53.39 0 55.23-44.77 100-100 100-38.1 0-71.21-21.3-88.1-52.65-14.19 31.06-45.52 52.65-81.9 52.65-49.71 0-90-40.29-90-90 0-23.73 9.19-45.31 24.19-61.39-42.17-7.47-74.19-44.3-74.19-88.61 0-49.71 40.29-90 90-90 19.01 0 36.64 5.9 51.17 15.96-7.14-13.76-11.17-29.39-11.17-45.96 0-55.23 44.77-100 100-100s100 44.77 100 100c0 16.57-4.04 32.2-11.17 45.96 14.53-10.06 32.16-15.96 51.17-15.96 49.71 0 90 40.29 90 90z" fill="#ef727a"/><path d="m256 226c27.61 0 50 22.39 50 50s-22.39 50-50 50-50-22.39-50-50 22.39-50 50-50z" fill="#3c3b3d"/></g></g></g></svg>