<svg id="_x30_1_Flor" enable-background="new 0 0 512 512" height="512" viewBox="0 0 512 512" width="512" xmlns="http://www.w3.org/2000/svg"><switch><g><g fill="#a289ef"><path d="m411.571 452.962c-73.265 25.097-145.651-66.479-156.549-197.94 131.461 10.898 223.037 83.284 197.94 156.549-6.604 19.278-22.113 34.787-41.391 41.391z"/><path d="m59.038 100.429c-25.097 73.265 66.479 145.651 197.94 156.549-10.898-131.461-83.284-223.037-156.549-197.94-19.278 6.604-34.787 22.113-41.391 41.391z"/><path d="m100.429 452.962c73.265 25.097 145.651-66.479 156.549-197.94-131.461 10.898-223.037 83.284-197.94 156.549 6.604 19.278 22.113 34.787 41.391 41.391z"/></g><path d="m226.732 505.278c-69.552-34.06-55.983-149.999 29.268-250.662 85.251 100.663 98.82 216.602 29.268 250.662-18.302 8.963-40.234 8.963-58.536 0z" fill="#c3a4ff"/><path d="m6.722 285.268c34.06 69.552 149.999 55.983 250.662-29.268-100.663-85.251-216.602-98.82-250.662-29.268-8.963 18.302-8.963 40.234 0 58.536z" fill="#c3a4ff"/><path d="m452.962 100.429c25.097 73.265-66.479 145.651-197.94 156.549 10.898-131.461 83.284-223.037 156.549-197.94 19.278 6.604 34.787 22.113 41.391 41.391z" fill="#a289ef"/><path d="m226.732 6.722c-69.552 34.06-55.983 149.999 29.268 250.662 85.251-100.663 98.82-216.602 29.268-250.662-18.302-8.963-40.234-8.963-58.536 0z" fill="#c3a4ff"/><path d="m505.278 285.268c-34.06 69.552-149.999 55.983-250.662-29.268 100.663-85.251 216.602-98.82 250.662-29.268 8.963 18.302 8.963 40.234 0 58.536z" fill="#c3a4ff"/><circle cx="256" cy="256" fill="#ffd165" r="79.585"/><circle cx="256" cy="256" fill="#ffe888" r="54.032"/></g></switch></svg>