<svg id="svg8" height="32" viewBox="0 0 8.4666665 8.4666669" width="32" xmlns="http://www.w3.org/2000/svg" xmlns:cc="http://creativecommons.org/ns#" xmlns:dc="http://purl.org/dc/elements/1.1/" xmlns:inkscape="http://www.inkscape.org/namespaces/inkscape" xmlns:rdf="http://www.w3.org/1999/02/22-rdf-syntax-ns#" xmlns:sodipodi="http://sodipodi.sourceforge.net/DTD/sodipodi-0.dtd" xmlns:svg="http://www.w3.org/2000/svg"><g id="layer1" transform="translate(0 -288.533)"><g id="g10750" transform="matrix(.265 0 0 .265 77.796 180.161)"><path id="path10923" d="m-281.39258 411.83203a.50005.50005 0 0 0 -.082.01s-.61873.12418-1.33398.36328-1.53791.54727-2.04297 1.14844c-.4227.50308-.54113 1.17241-.62696 1.7539-.0429.29075-.0682.55821-.084.75977-.008.10078-.0131.1852-.0176.24414-.004.0589-.0264.14878.002.0351a.50005.50005 0 0 0 .56054.61524s.35667-.0536.79102-.15039c.43434-.0968.93739-.21993 1.33594-.43164.49733-.2642 1.01147-.63311 1.34765-1.18164.29503-.48139.42663-1.09989.52539-1.63672.0988-.53684.14063-.98242.14063-.98242a.50005.50005 0 0 0 -.51563-.54688zm-.58594 1.18164c-.0132.0829-.007.0753-.0234.16602-.0902.49019-.25592 1.07388-.39258 1.29687-.19636.32039-.56216.60444-.96485.81836-.20173.10717-.68402.25072-1.08398.33985-.0495.011-.043.008-.0898.0176.0131-.13197.0211-.25035.043-.39843.0758-.51391.25489-1.07999.40429-1.25782.21817-.25968.94294-.62423 1.59375-.84179.2747-.0918.30535-.0861.51367-.14063z" font-variant-ligatures="normal" font-variant-position="normal" font-variant-caps="normal" font-variant-numeric="normal" font-variant-alternates="normal" font-feature-settings="normal" text-indent="0" text-align="start" text-decoration-line="none" text-decoration-style="solid" text-decoration-color="#000000" text-transform="none" text-orientation="mixed" white-space="normal" shape-padding="0" isolation="auto" mix-blend-mode="normal" solid-color="#000000" solid-opacity="1" vector-effect="none"/><path id="path10925" d="m-289.19922 414.56055a.50005.50005 0 0 0 -.42578.26367s-.25373.47074-.49609 1.06836c-.24237.59762-.50262 1.2995-.44532 1.97265.0603.70854.46051 1.40375.82422 1.99024s.71485 1.03711.71485 1.03711l.78906-.61524s-.32185-.41314-.6543-.94922c-.33244-.53607-.65003-1.22334-.67773-1.54882-.0247-.29007.15688-.96908.37695-1.51172.089-.21945.1053-.23124.18164-.39258.0774.0689.0773.0604.16406.14258.34383.32565.72085.76253.82422.98047.0415.0874.11152.44033.13282.73047.0213.29013.0176.52929.0176.52929l1 .0137s.005-.27759-.0195-.61523c-.0248-.33764-.0546-.72345-.22656-1.08594-.23386-.49302-.66261-.91894-1.04102-1.27734-.3784-.3584-.71289-.625-.71289-.625a.50005.50005 0 0 0 -.32617-.10742z" font-variant-ligatures="normal" font-variant-position="normal" font-variant-caps="normal" font-variant-numeric="normal" font-variant-alternates="normal" font-feature-settings="normal" text-indent="0" text-align="start" text-decoration-line="none" text-decoration-style="solid" text-decoration-color="#000000" text-transform="none" text-orientation="mixed" white-space="normal" shape-padding="0" isolation="auto" mix-blend-mode="normal" solid-color="#000000" solid-opacity="1" vector-effect="none"/><path id="path10927" d="m-284.92578 419.28125c-.71431-.0618-1.54571-.10488-2.22461.16797-.5721.22993-1.02095.70675-1.39649 1.13476-.18776.21401-.34868.41807-.46874.57422-.06.0781-.11024.14508-.14649.19336-.0362.0483-.0784.0984-.0469.0625a.50005.50005 0 0 0 .21679.80469s.34307.11363.77344.22656c.43037.11294.93378.23383 1.38477.22852.56311-.007 1.18812-.0981 1.73828-.43164.48282-.29269.88302-.78294 1.21679-1.21485.33377-.4319.57618-.80859.57618-.80859a.50005.50005 0 0 0 -.32422-.75977s-.58452-.1159-1.29883-.17773zm-.0859.99609c.22133.0192.22429.0305.40234.0547-.0324.0433-.0257.0389-.0605.084-.30477.39438-.71971.83707-.94336.97265-.32134.1948-.77645.27953-1.23242.28516-.22868.003-.72277-.0913-1.11914-.19531-.01-.003-.008-.003-.0176-.006.0646-.0789.11417-.14495.1875-.22852.33538-.38224.78032-.77183 1.01758-.86719.32343-.12998 1.11022-.15634 1.76562-.0996z" font-variant-ligatures="normal" font-variant-position="normal" font-variant-caps="normal" font-variant-numeric="normal" font-variant-alternates="normal" font-feature-settings="normal" text-indent="0" text-align="start" text-decoration-line="none" text-decoration-style="solid" text-decoration-color="#000000" text-transform="none" text-orientation="mixed" white-space="normal" shape-padding="0" isolation="auto" mix-blend-mode="normal" solid-color="#000000" solid-opacity="1" vector-effect="none"/><path id="path10929" d="m-292.90625 420.92773c-.29142.001-.51997.25058-.49609.54102 0 0 .0423.53273.16406 1.16602.1218.63328.28489 1.36482.69922 1.89843.4361.56168 1.15113.92651 1.77539 1.22071.62426.29419 1.16406.48046 1.16406.48047l.32813-.94532s-.49581-.17054-1.06641-.43945-1.20982-.67167-1.41016-.92969c-.17854-.22994-.39721-.89958-.50781-1.47461-.0447-.23233-.0368-.25092-.0606-.42773.10239.0157.0974.01.21485.0312.46566.0862 1.02125.24644 1.22656.37305.0823.0508.33208.30916.50781.54101s.36133.67187.36133.67187l.78906-.77148s-.14901-.2341-.35351-.5039c-.2045-.26981-.43976-.57848-.78125-.78907-.46447-.28642-1.05586-.41103-1.56836-.50586-.5125-.0948-.9375-.13476-.9375-.13476-.0162-.001-.0325-.002-.0488-.002z" font-variant-ligatures="normal" font-variant-position="normal" font-variant-caps="normal" font-variant-numeric="normal" font-variant-alternates="normal" font-feature-settings="normal" text-indent="0" text-align="start" text-decoration-line="none" text-decoration-style="solid" text-decoration-color="#000000" text-transform="none" text-orientation="mixed" white-space="normal" shape-padding="0" isolation="auto" mix-blend-mode="normal" solid-color="#000000" solid-opacity="1" vector-effect="none"/><path id="path10931" d="m-285.83789 423.35547a.50005.50005 0 0 0 -.14063.0312s-.44489.16732-.9707.41406c-.5258.24674-1.12883.54957-1.54492.95508-.41762.407-.74054 1.00566-1.00195 1.52734-.26141.52169-.43946.96289-.43946.96289l.92774.37696s.16423-.40764.40625-.89063.58438-1.04506.80468-1.25976c.21878-.21321.78682-.53923 1.27344-.76758.11685-.0548.11147-.0466.21485-.0918-.0117.33768-.0407.72705-.0879.90039-.13247.48675-.32168.94362-.59571 1.20899-.20973.20309-.76049.49515-1.24609.68945-.2428.0971-.47154.17654-.64063.23047-.0845.027-.15516.048-.20117.0605-.023.006-.041.0104-.0469.0117-.006.001-.0405-.008.0742-.008v1c.12579 0 .11571-.0111.14453-.0176.0288-.006.0571-.0126.0898-.0215.0655-.0178.14653-.0418.24219-.0723.19132-.061.44028-.14835.70898-.25586.5374-.21502 1.14522-.48686 1.57227-.90039.49741-.48167.71375-1.11461.86328-1.66406.10509-.38616.12252-.83905.13086-1.23047.008-.39142-.004-.70898-.004-.70898a.50005.50005 0 0 0 -.5332-.48047z" font-variant-ligatures="normal" font-variant-position="normal" font-variant-caps="normal" font-variant-numeric="normal" font-variant-alternates="normal" font-feature-settings="normal" text-indent="0" text-align="start" text-decoration-line="none" text-decoration-style="solid" text-decoration-color="#000000" text-transform="none" text-orientation="mixed" white-space="normal" shape-padding="0" isolation="auto" mix-blend-mode="normal" solid-color="#000000" solid-opacity="1" vector-effect="none"/><path id="path10933" d="m-290.14648 428.83203c-.60349-.0486-1.32073.1132-1.93164.29297-.30546.0899-.57426.18471-.78516.2832-.10545.0492-.19097.0906-.29492.17578-.052.0426-.11981.0889-.18164.23243-.0618.14348-.019.45566.11132.58593.0282.0282.43653.47148.91993.89844.4834.42697 1.05761.89027 1.70312 1.07422.6347.18087 1.36188.0765 1.98633-.0312.62445-.10778 1.12891-.25 1.12891-.25l-.26954-.96289s-.46089.12845-1.02929.22656c-.56841.0981-1.2616.13487-1.54297.0547-.32627-.093-.87674-.47471-1.31445-.86133-.19465-.17192-.24953-.24174-.38868-.38086.0884-.0303.13944-.0563.24024-.0859.54082-.15914 1.24556-.27973 1.5664-.2539.11187.009.49119.1487.78125.30273.29007.15403.51563.30274.51563.30274l.55078-.83399s-.26152-.17307-.59766-.35156c-.33613-.17849-.72213-.38207-1.16796-.41797z" font-variant-ligatures="normal" font-variant-position="normal" font-variant-caps="normal" font-variant-numeric="normal" font-variant-alternates="normal" font-feature-settings="normal" text-indent="0" text-align="start" text-decoration-line="none" text-decoration-style="solid" text-decoration-color="#000000" text-transform="none" text-orientation="mixed" white-space="normal" shape-padding="0" isolation="auto" mix-blend-mode="normal" solid-color="#000000" solid-opacity="1" vector-effect="none"/><path id="path10935" d="m-284.78711 427.26758a.50005.50005 0 0 0 -.33594.13476s-.36631.34264-.77343.79883c-.40713.45619-.8647 1.00017-1.07422 1.58594-.22001.61518-.21264 1.37303-.18555 2.02344.0258.62028.0877 1.07905.0937 1.125a.50005.50005 0 0 0 .004.0547.50005.50005 0 0 0 .49609.4336.50005.50005 0 0 0 .19141-.0371.50005.50005 0 0 0 .0156-.008c.0005-.00021.0317-.015.0332-.0156a.50005.50005 0 0 0 .002 0c.0434-.0181.41979-.17514.90234-.4375.50946-.27698 1.09232-.61185 1.45117-1.11719.40585-.57155.49979-1.26616.4668-1.8789-.0285-.52901-.24649-1.08189-.44531-1.55274-.19882-.47084-.39258-.83984-.39258-.83984a.50005.50005 0 0 0 -.44922-.26953zm-.14062 1.36914c.0297.0666.0297.0577.0605.13086.18141.42962.35406.97069.36719 1.21484.0246.45696-.0688.94423-.2832 1.2461-.14305.20142-.65447.5689-1.11328.81836-.12238.0665-.12103.0582-.22852.11132-.0143-.16869-.0223-.17438-.0312-.38867-.025-.60097.0137-1.32773.12695-1.64453.10279-.28737.50473-.83854.87891-1.25781.11731-.13145.12197-.12606.22266-.23047z" font-variant-ligatures="normal" font-variant-position="normal" font-variant-caps="normal" font-variant-numeric="normal" font-variant-alternates="normal" font-feature-settings="normal" text-indent="0" text-align="start" text-decoration-line="none" text-decoration-style="solid" text-decoration-color="#000000" text-transform="none" text-orientation="mixed" white-space="normal" shape-padding="0" isolation="auto" mix-blend-mode="normal" solid-color="#000000" solid-opacity="1" vector-effect="none"/><path id="path10937" d="m-284.35547 434.25977s-.26985.002-.59765.0332c-.32781.0315-.70183.0678-1.05469.24805-.53797.27414-1.00791.77705-1.40039 1.2207-.39249.44365-.68164.83398-.68164.83398a.50005.50005 0 0 0 .20703.75782s.47329.20341 1.06836.38281 1.29173.36867 1.9414.24219c.68363-.13311 1.29972-.60041 1.81836-1.01758.51865-.41718.90821-.8086.90821-.8086l-.70704-.70507s-.357.35542-.82812.73437c-.47113.37895-1.08802.75706-1.38281.81445-.26084.0508-.92426-.0569-1.46094-.21875-.18224-.0549-.18323-.0654-.32813-.11718.0881-.10738.082-.11044.19336-.23633.36048-.40748.84279-.85638 1.10547-.99024a.50005.50005 0 0 0 0-.002c.077-.0394.4177-.1157.69727-.14258.27956-.0269.50976-.0293.50976-.0293z" font-variant-ligatures="normal" font-variant-position="normal" font-variant-caps="normal" font-variant-numeric="normal" font-variant-alternates="normal" font-feature-settings="normal" text-indent="0" text-align="start" text-decoration-line="none" text-decoration-style="solid" text-decoration-color="#000000" text-transform="none" text-orientation="mixed" white-space="normal" shape-padding="0" isolation="auto" mix-blend-mode="normal" solid-color="#000000" solid-opacity="1" vector-effect="none"/><path id="path10939" d="m-284.95703 415.51367a.50005.50005 0 0 0 -.30469.125s-.55347.47095-1.20312 1.0918c-.64966.62085-1.39457 1.37597-1.83008 2.04687-.81242 1.25152-1.38789 2.682-1.66602 4.14844-.29157 1.53732-.23614 3.1334.0312 4.64844.20654 1.17027.65676 2.2706 1.16992 3.29297.44688.89029.96983 1.80765 1.7168 2.56445 1.00265 1.01585 2.24694 1.67492 3.38672 2.33203 1.77229 1.02175 3.66914 1.69254 5.39844 2.57422.57842.29491 1.76367.96094 1.76367.96094a.50015839.50015839 0 1 0 .48828-.87305s-1.17297-.65942-1.79883-.97851c-1.80728-.92145-3.68473-1.58788-5.35156-2.54883-1.15808-.66766-2.31521-1.29608-3.17578-2.16797-.62495-.63318-1.10396-1.45538-1.5332-2.31055-.48894-.97407-.89838-1.98997-1.08008-3.01953-.25041-1.41886-.29484-2.89933-.0312-4.28906.25317-1.33482.78146-2.64908 1.52148-3.78906.3306-.50927 1.05408-1.26941 1.68164-1.86915.62757-.59973 1.16016-1.05468 1.16016-1.05468a.50005.50005 0 0 0 -.34375-.88477z" font-variant-ligatures="normal" font-variant-position="normal" font-variant-caps="normal" font-variant-numeric="normal" font-variant-alternates="normal" font-feature-settings="normal" text-indent="0" text-align="start" text-decoration-line="none" text-decoration-style="solid" text-decoration-color="#000000" text-transform="none" text-orientation="mixed" white-space="normal" shape-padding="0" isolation="auto" mix-blend-mode="normal" solid-color="#000000" solid-opacity="1" vector-effect="none"/><path id="path10941" d="m-281.68555 430.4082c-.18874-.00057-.36173.10519-.44726.27344 0 0-.26228.51092-.51172 1.1582-.24944.64729-.51463 1.40882-.44727 2.11719.0636.66848.43931 1.31201.7793 1.85742.33999.54542.66016.82422.66016.82422l.75781-.44531c-.0344.10767-.10938.37891-.10938.37891l.94532.33007s.17117-.49379.32226-1.11132c.15109-.61754.30456-1.34128.19727-1.98047-.1218-.72562-.56611-1.47388-.97071-2.10157-.4046-.62768-.78515-1.10937-.78515-1.10937-.0942-.12006-.23804-.19055-.39063-.19141zm.0996 1.50782c.10605.15035.11414.14636.23633.33593.37644.584.75964 1.32821.82617 1.72461.052.30999-.0448 1.00913-.18359 1.57617-.0792.32379-.11127.39562-.16992.58204-.0193-.0248-.28739-.37067-.58594-.84961-.30906-.4958-.60508-1.13215-.63281-1.42383-.0315-.33157.15635-1.06938.38476-1.66211.0609-.158.0672-.14933.125-.2832z" font-variant-ligatures="normal" font-variant-position="normal" font-variant-caps="normal" font-variant-numeric="normal" font-variant-alternates="normal" font-feature-settings="normal" text-indent="0" text-align="start" text-decoration-line="none" text-decoration-style="solid" text-decoration-color="#000000" text-transform="none" text-orientation="mixed" white-space="normal" shape-padding="0" isolation="auto" mix-blend-mode="normal" solid-color="#000000" solid-opacity="1" vector-effect="none"/><path id="path10955" d="m-274.69141 411.83008a.50005.50005 0 0 0 -.49804.54883s.0419.44558.14062.98242c.0988.53683.22841 1.15533.52344 1.63672.33618.54853.85228.91744 1.34961 1.18164.39855.21171.89964.33485 1.33398.43164.43435.0968.79102.15039.79102.15039a.50005.50005 0 0 0 .5625-.61524c.0284.11363.006.0238.002-.0351s-.0116-.14336-.0195-.24414c-.0158-.20156-.0391-.46902-.082-.75977-.0858-.58149-.20426-1.25082-.62695-1.7539-.50507-.60117-1.32772-.90934-2.04297-1.14844s-1.33399-.36328-1.33399-.36328a.50005.50005 0 0 0 -.0996-.0117zm.60352 1.18359c.20832.0545.23898.0488.51367.14063.65082.21756 1.37558.58211 1.59375.84179.14941.17783.3265.74391.40235 1.25782.0218.14803.0298.26649.043.39843-.0459-.01-.0394-.007-.0879-.0176-.39996-.0891-.88225-.23268-1.08398-.33985-.40269-.21392-.76849-.49797-.96485-.81836-.13666-.22299-.30239-.80668-.39257-1.29687-.0167-.0908-.0102-.0831-.0234-.16602z" font-variant-ligatures="normal" font-variant-position="normal" font-variant-caps="normal" font-variant-numeric="normal" font-variant-alternates="normal" font-feature-settings="normal" text-indent="0" text-align="start" text-decoration-line="none" text-decoration-style="solid" text-decoration-color="#000000" text-transform="none" text-orientation="mixed" white-space="normal" shape-padding="0" isolation="auto" mix-blend-mode="normal" solid-color="#000000" solid-opacity="1" vector-effect="none"/><path id="path10957" d="m-266.89258 414.56055a.50005.50005 0 0 0 -.30078.10742s-.33448.2666-.71289.625-.80715.78432-1.04102 1.27734c-.17194.36249-.20177.7483-.22656 1.08594-.0248.33764-.0195.61523-.0195.61523l.99805-.0137s-.002-.23916.0195-.52929c.0213-.29014.0913-.64307.13281-.73047.10338-.21794.48039-.65482.82422-.98047.087-.0824.0865-.0736.16406-.14258.0763.16134.0926.17313.18164.39258.22008.54264.40165 1.22165.37696 1.51172-.0277.32548-.34529 1.01275-.67774 1.54882-.33244.53608-.65429.94922-.65429.94922l.7871.61524s.35309-.45062.7168-1.03711.76391-1.2817.82422-1.99024c.0573-.67315-.2049-1.37503-.44727-1.97265-.24236-.59762-.49414-1.06836-.49414-1.06836a.50005.50005 0 0 0 -.45117-.26367z" font-variant-ligatures="normal" font-variant-position="normal" font-variant-caps="normal" font-variant-numeric="normal" font-variant-alternates="normal" font-feature-settings="normal" text-indent="0" text-align="start" text-decoration-line="none" text-decoration-style="solid" text-decoration-color="#000000" text-transform="none" text-orientation="mixed" white-space="normal" shape-padding="0" isolation="auto" mix-blend-mode="normal" solid-color="#000000" solid-opacity="1" vector-effect="none"/><path id="path10959" d="m-271.14258 419.28125c-.71431.0618-1.29687.17773-1.29687.17773a.50005.50005 0 0 0 -.32422.75977s.24045.37669.57422.80859c.33377.43191.73397.92216 1.21679 1.21485.55016.33351 1.17713.42469 1.74024.43164.45098.005.95439-.11558 1.38476-.22852.43038-.11293.77149-.22656.77149-.22656a.50005.50005 0 0 0 .21875-.80469c.0315.0359-.0126-.0142-.0488-.0625s-.0845-.11528-.14453-.19336c-.12007-.15615-.28294-.36021-.4707-.57422-.37554-.42801-.82243-.90483-1.39454-1.13476-.6789-.27285-1.51225-.2298-2.22656-.16797zm.0859.99609c.6554-.0567 1.44414-.0304 1.76758.0996.23726.0954.68024.48495 1.01562.86719.0736.0838.12275.15132.1875.23047-.009.002-.007.002-.0156.004-.39638.10401-.89046.198-1.11914.19531-.45597-.006-.91108-.0904-1.23242-.28516-.22365-.13558-.64054-.57827-.94532-.97265-.0349-.0451-.0281-.0407-.0605-.084.17805-.0242.18101-.0355.40234-.0547z" font-variant-ligatures="normal" font-variant-position="normal" font-variant-caps="normal" font-variant-numeric="normal" font-variant-alternates="normal" font-feature-settings="normal" text-indent="0" text-align="start" text-decoration-line="none" text-decoration-style="solid" text-decoration-color="#000000" text-transform="none" text-orientation="mixed" white-space="normal" shape-padding="0" isolation="auto" mix-blend-mode="normal" solid-color="#000000" solid-opacity="1" vector-effect="none"/><path id="path10961" d="m-263.18555 420.92773c-.008.00045-.017.001-.0254.002 0 0-.425.0399-.9375.13476-.51249.0948-1.10389.21944-1.56836.50586-.34148.21059-.57675.51926-.78125.78907-.2045.2698-.4289.65306-.4289.65306l.84766.5332s.20239-.3509.37812-.58275.42743-.49024.50976-.54101c.20532-.12661.75895-.28689 1.22461-.37305.11855-.0219.11368-.0155.2168-.0312-.0237.17685-.0178.19531-.0625.42773-.1106.57503-.32732 1.24467-.50586 1.47461-.20033.25802-.83956.66078-1.41016.92969-.57059.26891-1.0664.43945-1.0664.43945l.32617.94532s.54175-.18628 1.16602-.48047c.62426-.2942 1.33733-.65903 1.77343-1.22071.41433-.53361.57742-1.26515.69922-1.89843.1218-.63329.16602-1.16602.16602-1.16602.025-.30076-.22001-.555-.52149-.54102z" font-variant-ligatures="normal" font-variant-position="normal" font-variant-caps="normal" font-variant-numeric="normal" font-variant-alternates="normal" font-feature-settings="normal" text-indent="0" text-align="start" text-decoration-line="none" text-decoration-style="solid" text-decoration-color="#000000" text-transform="none" text-orientation="mixed" white-space="normal" shape-padding="0" isolation="auto" mix-blend-mode="normal" solid-color="#000000" solid-opacity="1" vector-effect="none"/><path id="path10963" d="m-270.2832 423.35547c-.26109.01-.47043.21938-.48047.48047 0 0-.0122.31756-.004.70898.008.39142.0277.84431.13281 1.23047.14954.54945.36588 1.18239.86329 1.66406.42705.41353 1.03487.68537 1.57226.90039.2687.10751.51767.19484.70899.25586.0957.0305.17672.0545.24218.0723.0327.009.061.015.0898.0215.0288.006.14258.0176.14258.0176l.0293-1.0037s-.11663-.0336-.20117-.0605c-.16908-.0539-.39782-.13332-.64062-.23047-.48561-.1943-1.03832-.48636-1.24805-.68945-.27403-.26537-.46128-.72224-.59375-1.20899-.0472-.1733-.0762-.56276-.0879-.90039.10321.0451.0982.0371.21484.0918.48662.22835 1.05466.55437 1.27344.76758.2203.2147.56071.77677.80273 1.25976s.40821.89063.40821.89063l.92773-.37696s-.18-.4412-.44141-.96289c-.2614-.52168-.58238-1.12034-1-1.52734-.41609-.40551-1.01911-.70834-1.54492-.95508-.5258-.24674-.9707-.41406-.9707-.41406-.0624-.0233-.12878-.0339-.19531-.0312z" font-variant-ligatures="normal" font-variant-position="normal" font-variant-caps="normal" font-variant-numeric="normal" font-variant-alternates="normal" font-feature-settings="normal" text-indent="0" text-align="start" text-decoration-line="none" text-decoration-style="solid" text-decoration-color="#000000" text-transform="none" text-orientation="mixed" white-space="normal" shape-padding="0" isolation="auto" mix-blend-mode="normal" solid-color="#000000" solid-opacity="1" vector-effect="none"/><path id="path10965" d="m-265.91992 428.83203c-.44584.0359-.83184.23948-1.16797.41797-.33614.17849-.59766.35156-.59766.35156l.55078.83399s.22556-.14871.51563-.30274c.29006-.15403.66744-.29373.7793-.30273.32084-.0258 1.02754.0948 1.56836.2539.10079.0297.15185.0556.24023.0859-.13915.13912-.19402.20894-.38867.38086-.43772.38662-.98818.76835-1.31446.86133-.28137.0802-.97651.0434-1.54492-.0547-.5684-.0981-1.02734-.22656-1.02734-.22656l-.27148.96289s.50445.14222 1.1289.25 1.35359.21212 1.98828.0312c.64551-.18395 1.21973-.64725 1.70313-1.07422.4834-.42696.89171-.87022.91992-.89844.13027-.13027.17316-.44245.11133-.58593-.0618-.14349-.12967-.18985-.18164-.23243-.10396-.0852-.19143-.12653-.29688-.17578-.2109-.0985-.4797-.19332-.78515-.2832-.61092-.17977-1.32621-.34154-1.92969-.29297z" font-variant-ligatures="normal" font-variant-position="normal" font-variant-caps="normal" font-variant-numeric="normal" font-variant-alternates="normal" font-feature-settings="normal" text-indent="0" text-align="start" text-decoration-line="none" text-decoration-style="solid" text-decoration-color="#000000" text-transform="none" text-orientation="mixed" white-space="normal" shape-padding="0" isolation="auto" mix-blend-mode="normal" solid-color="#000000" solid-opacity="1" vector-effect="none"/><path id="path10967" d="m-271.31055 427.26953a.50005.50005 0 0 0 -.41797.26758s-.19376.369-.39257.83984c-.19882.47085-.41686 1.02373-.44532 1.55274-.033.61274.0609 1.30735.4668 1.8789.35886.50534.94171.84021 1.45117 1.11719.4792.26053.8482.41337.89649.4336a.50005.50005 0 0 0 .0508.0254c.00003.00001.006.002.006.002a.50005.50005 0 0 0 .1914.0371.50005.50005 0 0 0 .49414-.4336.50005.50005 0 0 0 .006-.0605.50005.50005 0 0 0 0-.0195c.008-.0652.0685-.49332.0937-1.09961.0271-.65041.0345-1.40826-.18554-2.02344-.20952-.58577-.6671-1.12975-1.07422-1.58594s-.77344-.79883-.77344-.79883a.50005.50005 0 0 0 -.36719-.13281zm.17188 1.36719c.10068.10441.10534.099.22265.23047.37418.41927.77612.97044.87891 1.25781.1133.3168.15199 1.04356.12695 1.64453-.009.21429-.0169.21998-.0312.38867-.10792-.0533-.10747-.0445-.23047-.11132-.45881-.24946-.97023-.61694-1.11328-.81836-.21435-.30187-.30781-.78914-.2832-1.2461.0131-.24415.18773-.78522.36914-1.21484.0309-.0732.0308-.0643.0606-.13086z" font-variant-ligatures="normal" font-variant-position="normal" font-variant-caps="normal" font-variant-numeric="normal" font-variant-alternates="normal" font-feature-settings="normal" text-indent="0" text-align="start" text-decoration-line="none" text-decoration-style="solid" text-decoration-color="#000000" text-transform="none" text-orientation="mixed" white-space="normal" shape-padding="0" isolation="auto" mix-blend-mode="normal" solid-color="#000000" solid-opacity="1" vector-effect="none"/><path id="path10969" d="m-271.71094 434.25977-.008 1s.2302.002.50977.0293c.27956.0269.61826.10323.69531.14258v.002c.26268.13386.74694.58276 1.10742.99024.11137.12589.10527.12895.19336.23633-.14507.0519-.14556.0621-.32813.11718-.53667.1618-1.2001.26954-1.46093.21875-.2948-.0574-.91364-.4355-1.38477-.81445-.47112-.37895-.82617-.73437-.82617-.73437l-.70899.70507s.38956.39142.90821.8086c.51864.41717 1.13669.88447 1.82031 1.01758.64967.12648 1.34438-.0628 1.93945-.24219.59507-.1794 1.07032-.38281 1.07032-.38281.29791-.12616.39941-.49772.20703-.75782 0 0-.28916-.39033-.68164-.83398-.39249-.44365-.86242-.94656-1.40039-1.2207-.35286-.18021-.72689-.21654-1.05469-.24805-.19799-.0254-.39935-.0222-.59747-.0333z" font-variant-ligatures="normal" font-variant-position="normal" font-variant-caps="normal" font-variant-numeric="normal" font-variant-alternates="normal" font-feature-settings="normal" text-indent="0" text-align="start" text-decoration-line="none" text-decoration-style="solid" text-decoration-color="#000000" text-transform="none" text-orientation="mixed" white-space="normal" shape-padding="0" isolation="auto" mix-blend-mode="normal" solid-color="#000000" solid-opacity="1" vector-effect="none"/><path id="path10971" d="m-271.125 415.51367a.50005.50005 0 0 0 -.32812.88477s.53259.45495 1.16015 1.05468c.62757.59974 1.35105 1.35988 1.68164 1.86915.74002 1.13998 1.26832 2.45424 1.52149 3.78906.26358 1.38973.21916 2.8702-.0312 4.28906-.18171 1.02956-.59115 2.04546-1.08008 3.01953-.42925.85517-.90826 1.67737-1.53321 2.31055-.86057.87189-2.0177 1.50031-3.17578 2.16797-1.66682.96095-3.54623 1.62738-5.35351 2.54883-.62586.31909-1.79883.97851-1.79883.97851a.50063504.50063504 0 1 0 .49023.87305s1.18525-.66603 1.76368-.96094c1.72929-.88168 3.62614-1.55247 5.39843-2.57422 1.13979-.65711 2.38407-1.31618 3.38672-2.33203.74697-.7568 1.26993-1.67416 1.7168-2.56445.51317-1.02237.96338-2.1227 1.16992-3.29297.26739-1.51504.32087-3.11112.0293-4.64844-.27813-1.46644-.8536-2.89692-1.66602-4.14844-.43551-.6709-1.18042-1.42602-1.83008-2.04687-.64965-.62085-1.20117-1.0918-1.20117-1.0918a.50005.50005 0 0 0 -.32031-.125z" font-variant-ligatures="normal" font-variant-position="normal" font-variant-caps="normal" font-variant-numeric="normal" font-variant-alternates="normal" font-feature-settings="normal" text-indent="0" text-align="start" text-decoration-line="none" text-decoration-style="solid" text-decoration-color="#000000" text-transform="none" text-orientation="mixed" white-space="normal" shape-padding="0" isolation="auto" mix-blend-mode="normal" solid-color="#000000" solid-opacity="1" vector-effect="none"/><path id="path10973" d="m-274.38086 430.4082c-.15259.00086-.29644.0713-.39062.19141 0 0-.38056.48169-.78516 1.10937-.4046.62769-.85086 1.37595-.97266 2.10157-.10729.63919.0462 1.36293.19727 1.98047.15109.61753.32422 1.11132.32422 1.11132l.94336-.33007s-.0749-.27114-.10938-.37891l.74219.48828s.33579-.32177.67578-.86719c.33999-.54541.71769-1.18894.78125-1.85742.0674-.70837-.19783-1.4699-.44727-2.11719-.24943-.64728-.51171-1.1582-.51171-1.1582-.0855-.16826-.25852-.27401-.44727-.27344zm-.0996 1.50782c.0578.13387.0641.1252.125.2832.22841.59273.4163 1.33054.38477 1.66211-.0277.29168-.32376.92803-.63282 1.42383-.29887.47945-.56918.82554-.58789.84961-.0587-.18643-.0888-.25838-.16797-.58204-.13873-.56704-.23562-1.26618-.18359-1.57617.0665-.3964.44974-1.14061.82617-1.72461.1222-.18957.13028-.18558.23633-.33593z" font-variant-ligatures="normal" font-variant-position="normal" font-variant-caps="normal" font-variant-numeric="normal" font-variant-alternates="normal" font-feature-settings="normal" text-indent="0" text-align="start" text-decoration-line="none" text-decoration-style="solid" text-decoration-color="#000000" text-transform="none" text-orientation="mixed" white-space="normal" shape-padding="0" isolation="auto" mix-blend-mode="normal" solid-color="#000000" solid-opacity="1" vector-effect="none"/></g></g></svg>