<svg id="Capa_1" enable-background="new 0 0 512 512" height="512" viewBox="0 0 512 512" width="512" xmlns="http://www.w3.org/2000/svg"><g><path d="m367.24 232.71c19.15-24.45 30.57-55.25 30.57-88.71.026-79.666-64.866-144.044-144-144h-203.62v48l36.38 25.63v364.74l-36.38 25.63v48h267.62c79.53 0 144-64.47 144-144 .142-61.122-38.753-114.829-94.57-135.29zm-216.67-168.71h103.24c44.18 0 80 35.82 80 80 .045 43.619-35.577 80.022-80 80h-103.24zm167.24 384h-167.24v-160h167.24c44.18 0 80 35.82 80 80s-35.82 80-80 80z" fill="#534670"/><path d="m461.81 368c0 79.53-64.47 144-144 144h-64v-64h64c44.18 0 80-35.82 80-80s-35.82-80-80-80h-64v-64c43.618.037 80.03-35.576 80-80 0-44.18-35.82-80-80-80v-64c79.134-.044 144.026 64.334 144 144 0 33.46-11.42 64.26-30.57 88.71 55.817 20.461 94.712 74.168 94.57 135.29z" fill="#3e3052"/></g></svg>