<svg id="Layer_1" viewBox="0 0 64 64" xmlns="http://www.w3.org/2000/svg" data-name="Layer 1"><path d="m14.7 17.89c-.28 0-.5-.22-.5-.5v-15.39c0-.28.22-.5.5-.5s.5.22.5.5v15.4c0 .28-.22.5-.5.5z" fill="#fbb039"/><path d="m14.7 15.5c.86 0 1.56.7 1.56 1.56v2.23h-3.13v-2.23c0-.86.7-1.56 1.56-1.56z" fill="#f78d1f"/><path d="m27.2 30.33c0 .88-.09 1.75-.26 2.58-.39 1.81-1.16 3.48-2.23 4.91-2.28 3.04-5.92 5.01-10.01 5.01-4.38 0-8.24-2.26-10.47-5.68-.67-1.01-1.18-2.12-1.53-3.31-.16-.54-.28-1.1-.37-1.68-.08-.6-.13-1.21-.13-1.83 0-.38.02-.76.05-1.13.57-6.37 5.93-11.37 12.45-11.37 6.9 0 12.5 5.6 12.5 12.5z" fill="#9ed7ce"/><path d="m49.7 11.89c-.28 0-.5-.22-.5-.5v-9.39c0-.28.22-.5.5-.5s.5.22.5.5v9.4c0 .28-.22.5-.5.5z" fill="#fbb039"/><path d="m49.7 9.5c.86 0 1.56.7 1.56 1.56v2.23h-3.13v-2.23c0-.86.7-1.56 1.56-1.56z" fill="#f78d1f"/><path d="m61.94 21.75c-.48-.01-1.06.06-1.79.46-.89.48-1.42 2.48-2.85 2.87-1.06.29-2.58-1.08-3.97-.92-1.12.13-2.27 1.84-3.63 1.84s-2.51-1.71-3.63-1.84c-1.39-.16-2.91 1.21-3.97.92-1.43-.39-1.96-2.39-2.85-2.87-.73-.4-1.31-.47-1.79-.46.06-.23.11-.46.17-.68 1.44-5.32 6.3-9.24 12.07-9.24s10.63 3.92 12.07 9.24c.06.22.11.45.17.68z" fill="#f9e4c9"/><path d="m62.2 24.33c0 6.91-5.6 12.5-12.5 12.5s-12.5-5.59-12.5-12.5c0-.88.09-1.75.26-2.58.48-.01 1.06.06 1.79.46.89.48 1.42 2.48 2.85 2.87 1.06.29 2.58-1.08 3.97-.92 1.12.13 2.27 1.84 3.63 1.84s2.51-1.71 3.63-1.84c1.39-.16 2.91 1.21 3.97.92 1.43-.39 1.96-2.39 2.85-2.87.73-.4 1.31-.47 1.79-.46.17.83.26 1.7.26 2.58z" fill="#f57365"/><path d="m14.25 33.32-4.47 2.23-.71 4.94-3.5-3.57-1.34.23c-.67-1.01-1.18-2.12-1.53-3.31l.26-.49-.63-1.19c-.08-.6-.13-1.21-.13-1.83 0-.38.02-.76.05-1.13l3.31.56 3.48-3.58.73 4.94z" fill="#f9e4c9"/><path d="m26.94 32.91c-.39 1.81-1.16 3.48-2.23 4.91l-.7-.29-2.82 1.84.25-3.35-2.63-2.11 3.27-.8 1.19-3.15 1.78 2.86z" fill="#f9e4c9"/><path d="m16.39 21.86 1.73.78 1.62-.99-.2 1.89 1.44 1.23-1.86.39-.73 1.75-.94-1.64-1.89-.16 1.27-1.4z" fill="#f9e4c9"/><path d="m34.12 37.06c-.28 0-.5-.22-.5-.5v-34.56c0-.28.22-.5.5-.5s.5.22.5.5v34.56c0 .28-.22.5-.5.5z" fill="#fbb039"/><path d="m34.12 34.66c.86 0 1.56.7 1.56 1.56v2.23h-3.13v-2.23c0-.86.7-1.56 1.56-1.56z" fill="#f78d1f"/><circle cx="34.12" cy="49.5" fill="#f78d1f" r="12.5"/><path d="m46.62 49.5c0 .2 0 .4-.02.59-1.94 1.44-5.7 3.2-12.44 3.2s-10.6-1.81-12.52-3.27c-.02-.17-.02-.34-.02-.52 0-1.6.3-3.14.86-4.55 2.11 1.32 5.73 2.69 11.68 2.69s9.51-1.35 11.62-2.65c.54 1.4.84 2.92.84 4.51z" fill="#f9e4c9"/><path d="m44.44 42.44c-2.26 1.02-5.54 1.86-10.24 1.86s-8.09-.87-10.36-1.92c.2-.28.41-.56.62-.82 2.15.96 5.27 1.74 9.74 1.74s7.49-.75 9.62-1.68c.22.26.42.54.62.82z" fill="#f9e4c9"/><path d="m45.5 54.67c-.25.56-.54 1.09-.87 1.6-2.26 1.05-5.6 1.94-10.43 1.94s-8.39-.95-10.66-2.06c-.33-.51-.62-1.06-.87-1.62 2.05 1.32 5.6 2.68 11.53 2.68s9.24-1.27 11.3-2.54z" fill="#f9e4c9"/><g fill="#f78d1f"><circle cx="34.16" cy="50.55" r="1.03"/><circle cx="25.73" cy="49.22" r="1.03"/><circle cx="42.59" cy="49.22" r="1.03"/></g></svg>