<svg id="Layer_1" viewBox="0 0 64 64" xmlns="http://www.w3.org/2000/svg" data-name="Layer 1"><g><path d="m31.87 40.37c-.28 0-.5-.22-.5-.5v-37.87c0-.28.22-.5.5-.5s.5.22.5.5v37.87c0 .28-.22.5-.5.5z" fill="#fbb039"/><path d="m31.87 37.97c.86 0 1.56.7 1.56 1.56v2.23h-3.13v-2.23c0-.86.7-1.56 1.56-1.56z" fill="#f78d1f"/><circle cx="31.87" cy="50.93" fill="#ffa089" r="11.07"/><g fill="#f57365"><path d="m30.48 45.62c0 2.77-2.24 5-5 5-1.84 0-3.45-.99-4.32-2.48.25-.95.62-1.85 1.1-2.69.19-.34.4-.67.63-.98.26-.36.53-.7.83-1.02.22-.24.46-.47.7-.7.82-.74 1.75-1.36 2.76-1.83 1.92.69 3.3 2.54 3.3 4.7z"/><circle cx="36.72" cy="47.29" r="1.17"/><circle cx="27.35" cy="56.17" r="2.42"/><path d="m41.18 56.88v.02c-.7 1.1-1.61 2.07-2.65 2.87-.31.23-.63.45-.96.65-.04.03-.08.05-.13.07-1.95-.06-3.5-1.65-3.5-3.61s1.62-3.63 3.62-3.63 3.63 1.62 3.63 3.63z"/></g></g><g><path d="m22.76 8.03c-.28 0-.5-.22-.5-.5v-5.53c0-.28.22-.5.5-.5s.5.22.5.5v5.53c0 .28-.22.5-.5.5z" fill="#fbb039"/><path d="m22.76 9.9v14.04l-3.21-5.92z" fill="#f9e4c9"/><path d="m22.76 23.94-11.55-8.48 8.34 2.56z" fill="#fbba90"/><path d="m22.76 23.94-7.2-.91-4.35-7.57z" fill="#f9e4c9"/><path d="m22.76 23.94-14.39 4.01 7.19-4.92z" fill="#fbba90"/><path d="m22.76 23.94-5.78 5.33-8.61-1.32z" fill="#f9e4c9"/><path d="m22.76 23.94-6.41 14.03.63-8.7z" fill="#fbba90"/><path d="m22.76 23.94v8.11l-6.41 5.92z" fill="#f9e4c9"/><path d="m29.16 37.97-6.4-5.92v-8.11z" fill="#fbba90"/><path d="m29.16 37.97-6.4-14.03 5.77 5.33z" fill="#f9e4c9"/><path d="m37.15 27.95-8.62 1.32-5.77-5.33z" fill="#fbba90"/><path d="m37.15 27.95-14.39-4.01 7.2-.91z" fill="#f9e4c9"/><path d="m34.3 15.46-4.34 7.57-7.2.91z" fill="#fbba90"/><path d="m34.3 15.46-11.54 8.48 3.2-5.92z" fill="#f9e4c9"/><path d="m25.96 18.02-3.2 5.92v-14.04z" fill="#fbba90"/><path d="m22.76 10.4c-.93 0-1.69-.76-1.69-1.69s.76-1.69 1.69-1.69 1.69.76 1.69 1.69-.76 1.69-1.69 1.69zm0-2.37c-.38 0-.69.31-.69.69s.31.69.69.69.69-.31.69-.69-.31-.69-.69-.69z" fill="#f78d1f"/></g><g><path d="m56.03 35.53c0 .14 0 .28-.01.42 0 .34-.04.68-.08 1.01-.15 1.38-.53 2.71-1.03 3.95-.13.33-.27.65-.42.96-.67 1.45-1.48 2.74-2.26 3.82-.24.33-.48.64-.7.93-1.23 1.56-2.22 2.49-2.22 2.49s-1.67-1.56-3.33-4.02c-.01 0-.01-.01-.01-.01-.34-.49-.68-1.02-1-1.59-1.03-1.8-1.93-3.92-2.25-6.2-.07-.48-.11-.95-.12-1.43-.01-.11-.01-.22-.01-.33 0-1.64.25-3.03.64-4.2.12-.37.25-.71.4-1.02.63-1.4 1.45-2.42 2.2-3.12.06-.06.12-.12.18-.17 0 0 .5-.03.93-.26.21-.12.39-.28.49-.52 0 0 .23.78 1.88.78s1.88-.78 1.88-.78c.3.72 1.42.78 1.42.78.84.75 1.81 1.91 2.51 3.57.14.36.27.73.39 1.13.32 1.08.52 2.35.52 3.81z" fill="#fbb039"/><g fill="#faa226"><path d="m55.51 31.72c-4.58-.93-7.76-2.93-9.68-4.53.06-.06.12-.12.18-.17 0 0 .5-.03.93-.26 1.77 1.36 4.48 2.96 8.18 3.83.14.36.27.73.39 1.13z"/><path d="m56.02 35.95c0 .34-.04.68-.08 1.01-6.58-.76-10.72-3.75-12.71-5.63.12-.37.25-.71.4-1.02 1.75 1.7 5.82 4.85 12.39 5.64z"/><path d="m54.91 40.91c-.13.33-.27.65-.42.96-5.6-.57-9.47-2.77-11.77-4.58-.07-.48-.11-.95-.12-1.43 2.09 1.81 6.14 4.47 12.31 5.05z"/><path d="m52.23 45.69c-.24.33-.48.64-.7.93-2.12-.32-3.97-.87-5.55-1.53-.01 0-.01-.01-.01-.01-.34-.49-.68-1.02-1-1.59 1.92.97 4.34 1.82 7.26 2.2z"/></g><path d="m49.31 21.43c-.28 0-.5-.22-.5-.5v-18.93c0-.28.22-.5.5-.5s.5.22.5.5v18.94c0 .28-.22.5-.5.5z" fill="#fbb039"/><path d="m50.42 24.83c-.15 0-.31-.07-.4-.2-.16-.22-.11-.54.11-.7.35-.26.57-.68.57-1.11 0-.76-.62-1.38-1.38-1.38s-1.38.62-1.38 1.38c0 .44.21.85.56 1.11.22.16.27.48.11.7s-.48.27-.7.11c-.61-.45-.98-1.16-.98-1.92 0-1.31 1.07-2.38 2.38-2.38s2.38 1.07 2.38 2.38c0 .75-.36 1.47-.97 1.92-.09.07-.19.1-.29.1z" fill="#f78d1f"/><path d="m52.61 24.85v2.36s-1.12-.06-1.42-.78c0 0-.23.78-1.88.78s-1.88-.78-1.88-.78c-.3.72-1.42.78-1.42.78v-2.36c0-.55.45-1 1.01-1h4.58c.56 0 1.01.45 1.01 1z" fill="#f9e4c9"/></g></svg>