<svg id="Layer_1" viewBox="0 0 64 64" xmlns="http://www.w3.org/2000/svg" data-name="Layer 1"><g><path d="m28.92 33.48c-.28 0-.5-.22-.5-.5v-29.88c0-.28.22-.5.5-.5s.5.22.5.5v29.88c0 .28-.22.5-.5.5z" fill="#faa226"/><path d="m30.24 37.04h-2.65s-.13-.1-.13-.1c-.63-.46-1.01-1.21-1.01-1.99 0-1.36 1.11-2.47 2.47-2.47s2.47 1.11 2.47 2.47c0 .78-.38 1.53-1.01 1.99l-.13.1zm-2.31-1h1.97c.31-.28.48-.67.48-1.09 0-.81-.66-1.47-1.47-1.47s-1.47.66-1.47 1.47c0 .42.18.81.48 1.09z" fill="#f78d1f"/><path d="m35.95 47.26c0 7.67-7.03 14.23-7.03 14.23s-7.04-6.56-7.04-14.23c0-4.75 2-7.5 3.59-8.91 0 0 1.17-.06 1.48-.82 0 0 .24.82 1.97.82s1.97-.82 1.97-.82c.31.76 1.48.82 1.48.82 1.59 1.42 3.58 4.17 3.58 8.91z" fill="#9ed7ce"/><path d="m28.92 38.35c1.73 0 1.97-.82 1.97-.82.32.76 1.49.82 1.49.82v-1.42c0-.58-.47-1.05-1.05-1.05h-2.4s-2.4 0-2.4 0c-.58 0-1.05.47-1.05 1.05v1.42s1.17-.06 1.49-.82c0 0 .24.82 1.97.82z" fill="#b3b3b3"/><path d="m32.37 36.93v1.42s-1.17-.06-1.48-.82c0 0-.24.82-1.97.82s-1.97-.82-1.97-.82c-.31.76-1.48.82-1.48.82v-1.42c0-.58.47-1.05 1.05-1.05h4.8c.58 0 1.05.47 1.05 1.05z" fill="#f9e4c9"/><g fill="#3dafaf"><path d="m25.12 42.55.62 1.89-1.74-.95-1.08 1.66-.34-1.96h-.14c.37-1.21.89-2.22 1.45-3.04l.05.06 1.69-1.02-.54 1.91 1.86.69z"/><path d="m24.86 53.97.45 1.38-1.28-.7-.1.15c-.38-.72-.73-1.49-1.03-2.29h.04l.19-1.45.85 1.18 1.25-.75-.39 1.41 1.36.5z"/><path d="m32.71 56.85c-.5.76-1 1.45-1.47 2.04l-.12-.07-.67 1.03c-.11.14-.23.27-.34.39l-.3-1.69-1.81.17 1.21-1.36-1.26-1.31 1.81.09.24-1.8 1.06 1.48 1.55-.94-.49 1.75z"/><path d="m35.37 43.15-.79-.43-.69 1.06-.22-1.24-1.26.11.84-.94-.88-.91 1.26.06.13-.96c.63.85 1.21 1.92 1.61 3.25z"/><path d="m32.19 51.04-1.98-1.09-1.24 1.89-.39-2.22-2.25.21 1.5-1.69-1.57-1.63 2.26.12.3-2.24 1.31 1.83 1.94-1.16-.62 2.17 2.12.79-2.08.87z"/></g></g><g><circle cx="45.63" cy="32.73" fill="#f57365" r="12.5"/><g fill="#f9e4c9"><path d="m55.95 25.67c-2.26 1.02-5.54 1.86-10.24 1.86s-8.09-.87-10.36-1.92c.2-.28.41-.56.62-.82 2.15.96 5.27 1.74 9.74 1.74s7.49-.75 9.62-1.68c.22.26.42.54.62.82z"/><path d="m57.01 37.9c-.25.56-.54 1.09-.87 1.6-2.26 1.05-5.6 1.94-10.43 1.94s-8.39-.95-10.66-2.06c-.33-.51-.62-1.06-.87-1.62 2.05 1.32 5.6 2.68 11.53 2.68s9.24-1.27 11.3-2.54z"/></g></g><g fill="#fbba90"><path d="m12.99 42.51c-.28 0-.5-.22-.5-.5v-1.58c0-.28.22-.5.5-.5s.5.22.5.5v1.58c0 .28-.22.5-.5.5z"/><path d="m11.84 43.66h-1.58c-.28 0-.5-.22-.5-.5s.22-.5.5-.5h1.58c.28 0 .5.22.5.5s-.22.5-.5.5z"/><path d="m12.99 46.4c-.28 0-.5-.22-.5-.5v-1.58c0-.28.22-.5.5-.5s.5.22.5.5v1.58c0 .28-.22.5-.5.5z"/><path d="m15.73 43.66h-1.58c-.28 0-.5-.22-.5-.5s.22-.5.5-.5h1.58c.28 0 .5.22.5.5s-.22.5-.5.5z"/></g><g fill="#fbba90"><path d="m53.69 14.18c-.28 0-.5-.22-.5-.5v-1.58c0-.28.22-.5.5-.5s.5.22.5.5v1.58c0 .28-.22.5-.5.5z"/><path d="m52.54 15.33h-1.58c-.28 0-.5-.22-.5-.5s.22-.5.5-.5h1.58c.28 0 .5.22.5.5s-.22.5-.5.5z"/><path d="m53.69 18.07c-.28 0-.5-.22-.5-.5v-1.58c0-.28.22-.5.5-.5s.5.22.5.5v1.58c0 .28-.22.5-.5.5z"/><path d="m56.43 15.33h-1.58c-.28 0-.5-.22-.5-.5s.22-.5.5-.5h1.58c.28 0 .5.22.5.5s-.22.5-.5.5z"/></g><g><path d="m16.94 15.33c-.28 0-.5-.22-.5-.5v-11.82c0-.28.22-.5.5-.5s.5.22.5.5v11.82c0 .28-.22.5-.5.5z" fill="#faa226"/><path d="m16.94 12.94c.86 0 1.56.7 1.56 1.56v2.23h-3.13v-2.23c0-.86.7-1.56 1.56-1.56z" fill="#f78d1f"/><circle cx="16.94" cy="25.9" fill="#f9e4c9" r="11.07"/><g><path d="m16.94 19.24v7.36l-7-2.28 4.83-.69z" fill="#faa226"/><path d="m23.93 24.32-6.99 2.28v-7.36l2.16 4.39z" fill="#fbb039"/><path d="m20.43 27.73.83 4.82-4.32-5.95 6.99-2.28z" fill="#faa226"/><path d="m21.26 32.55-4.32-2.28-4.33 2.28 4.33-5.95z" fill="#f78d1f"/><path d="m12.61 32.55.83-4.82-3.5-3.41 7 2.28z" fill="#fbb039"/></g></g><path d="m46.95 20.16h-2.65s-.13-.1-.13-.1c-.63-.46-1.01-1.21-1.01-1.99 0-1.36 1.11-2.47 2.47-2.47s2.47 1.11 2.47 2.47c0 .78-.38 1.53-1.01 1.99l-.13.1zm-2.31-1h1.97c.31-.28.48-.67.48-1.09 0-.81-.66-1.47-1.47-1.47s-1.47.66-1.47 1.47c0 .42.18.81.48 1.09z" fill="#f78d1f"/><path d="m45.62 21.47c1.73 0 1.97-.82 1.97-.82.32.76 1.49.82 1.49.82v-1.42c0-.58-.47-1.05-1.05-1.05h-2.4s-2.4 0-2.4 0c-.58 0-1.05.47-1.05 1.05v1.42s1.17-.06 1.49-.82c0 0 .24.82 1.97.82z" fill="#b3b3b3"/><path d="m49.08 20.05v1.42s-1.17-.06-1.48-.82c0 0-.24.82-1.97.82s-1.97-.82-1.97-.82c-.31.76-1.48.82-1.48.82v-1.42c0-.58.47-1.05 1.05-1.05h4.8c.58 0 1.05.47 1.05 1.05z" fill="#f9e4c9"/><path d="m45.63 39.65c4.7 0 5.88-2.21 5.88-2.21-1.65-.35-2.68-1.84-2.68-1.84l1.6-1.29c-1.38-.52-2.32-1.64-2.32-1.64l.65-.68c-1.08-.33-1.76-1.48-1.76-1.48l.84-.67c-1.19-.27-2.21-1.89-2.21-1.89s-1.02 1.62-2.21 1.89l.84.67s-.68 1.14-1.76 1.48l.65.68s-.94 1.11-2.32 1.64l1.6 1.29s-1.03 1.49-2.68 1.84c0 0 1.18 2.21 5.88 2.21z" fill="#3dafaf"/><path d="m45.62 16.6c-.28 0-.5-.22-.5-.5v-13c0-.28.22-.5.5-.5s.5.22.5.5v13c0 .28-.22.5-.5.5z" fill="#faa226"/><g fill="#f9e4c9"><circle cx="10.71" cy="12.64" r=".5"/><circle cx="23.4" cy="6.02" r=".5"/><circle cx="32.16" cy="17.23" r=".5"/><circle cx="39.75" cy="9.86" r=".5"/><circle cx="50.46" cy="7.02" r=".5"/></g></svg>