<svg id="Layer_1" viewBox="0 0 64 64" xmlns="http://www.w3.org/2000/svg" data-name="Layer 1"><path d="m13.24 23.67c-.28 0-.5-.22-.5-.5v-8.07c0-.28.22-.5.5-.5s.5.22.5.5v8.07c0 .28-.22.5-.5.5z" fill="#fbb039"/><path d="m51.17 23.67c-.28 0-.5-.22-.5-.5v-8.07c0-.28.22-.5.5-.5s.5.22.5.5v8.07c0 .28-.22.5-.5.5z" fill="#fbb039"/><path d="m32.2 31.71c-.28 0-.5-.22-.5-.5v-13.96c0-.28.22-.5.5-.5s.5.22.5.5v13.96c0 .28-.22.5-.5.5z" fill="#fbb039"/><path d="m14.23 26.22h-1.99s-.13-.1-.13-.1c-.49-.36-.78-.93-.78-1.54 0-1.05.86-1.91 1.91-1.91s1.91.86 1.91 1.91c0 .61-.29 1.18-.78 1.54l-.13.1zm-1.64-1h1.29c.17-.17.26-.4.26-.64 0-.5-.41-.91-.91-.91s-.91.41-.91.91c0 .24.09.47.26.64z" fill="#f78d1f"/><path d="m18.27 33.36c0 5.49-5.03 10.18-5.03 10.18s-5.04-4.7-5.04-10.18c0-3.4 1.43-5.37 2.57-6.38 0 0 .84-.04 1.06-.59 0 0 .17.59 1.41.59s1.41-.59 1.41-.59c.22.54 1.06.59 1.06.59 1.14 1.02 2.56 2.98 2.56 6.38z" fill="#f14a3a"/><g fill="#f9e4c9"><circle cx="4.37" cy="31.21" r=".5"/><circle cx="19.66" cy="22.55" r=".5"/><circle cx="23.83" cy="35.89" r=".5"/><circle cx="8.2" cy="43.58" r=".5"/><circle cx="42.37" cy="48.39" r=".5"/><circle cx="43.87" cy="32" r=".5"/><circle cx="38.62" cy="20.55" r=".5"/><circle cx="56.2" cy="22.05" r=".5"/><circle cx="57.78" cy="43.04" r=".5"/><circle cx="57.78" cy="43.04" r=".5"/></g><path d="m32.2 17.75c-19.08 0-30.13-6-30.24-6.06-.24-.13-.33-.44-.2-.68s.44-.33.68-.2c.11.06 10.96 5.94 29.76 5.94s29.65-5.88 29.76-5.94c.24-.13.55-.05.68.2.13.24.05.55-.2.68-.11.06-11.17 6.06-30.24 6.06z" fill="#fbb039"/><path d="m52.16 26.22h-1.99s-.13-.1-.13-.1c-.49-.36-.78-.93-.78-1.54 0-1.05.86-1.91 1.91-1.91s1.91.86 1.91 1.91c0 .61-.29 1.18-.78 1.54l-.13.1zm-1.64-1h1.29c.17-.17.26-.4.26-.64 0-.5-.41-.91-.91-.91s-.91.41-.91.91c0 .24.09.47.26.64z" fill="#f78d1f"/><path d="m56.2 33.36c0 5.49-5.03 10.18-5.03 10.18s-5.04-4.7-5.04-10.18c0-3.4 1.43-5.37 2.57-6.38 0 0 .84-.04 1.06-.59 0 0 .17.59 1.41.59s1.41-.59 1.41-.59c.22.54 1.06.59 1.06.59 1.14 1.02 2.56 2.98 2.56 6.38z" fill="#3dafaf"/><path d="m51.17 26.99c1.24 0 1.41-.59 1.41-.59.23.54 1.06.59 1.06.59v-1.02c0-.41-.34-.75-.75-.75h-1.72s-1.72 0-1.72 0c-.41 0-.75.34-.75.75v1.02s.84-.05 1.06-.59c0 0 .17.59 1.41.59z" fill="#f9e4c9"/><path d="m33.2 34.25h-1.99s-.13-.1-.13-.1c-.49-.36-.78-.93-.78-1.54 0-1.05.86-1.91 1.91-1.91s1.91.86 1.91 1.91c0 .61-.29 1.18-.78 1.54l-.13.1zm-1.64-1h1.29c.17-.17.26-.39.26-.64 0-.5-.41-.91-.91-.91s-.91.41-.91.91c0 .24.09.47.26.64z" fill="#f78d1f"/><path d="m37.23 41.4c0 5.49-5.03 10.18-5.03 10.18s-5.04-4.7-5.04-10.18c0-3.4 1.43-5.37 2.57-6.38 0 0 .84-.04 1.06-.59 0 0 .17.59 1.41.59s1.41-.59 1.41-.59c.22.54 1.06.59 1.06.59 1.14 1.02 2.56 2.98 2.56 6.38z" fill="#faa226"/><path d="m32.2 35.02c1.24 0 1.41-.59 1.41-.59.23.54 1.06.59 1.06.59v-1.02c0-.41-.34-.75-.75-.75h-1.72s-1.72 0-1.72 0c-.41 0-.75.34-.75.75v1.02s.84-.05 1.06-.59c0 0 .17.59 1.41.59z" fill="#f9e4c9"/><g fill="#fbb039"><path d="m7.2 24.33h-2.83c-.28 0-.5-.22-.5-.5s.22-.5.5-.5h2.83c.28 0 .5.22.5.5s-.22.5-.5.5z"/><path d="m5.78 25.75c-.28 0-.5-.22-.5-.5v-2.83c0-.28.22-.5.5-.5s.5.22.5.5v2.83c0 .28-.22.5-.5.5z"/></g><g fill="#fbb039"><path d="m41.45 28.62h-2.83c-.28 0-.5-.22-.5-.5s.22-.5.5-.5h2.83c.28 0 .5.22.5.5s-.22.5-.5.5z"/><path d="m40.03 30.03c-.28 0-.5-.22-.5-.5v-2.83c0-.28.22-.5.5-.5s.5.22.5.5v2.83c0 .28-.22.5-.5.5z"/></g><g fill="#fbb039"><path d="m61.12 37.8h-2.83c-.28 0-.5-.22-.5-.5s.22-.5.5-.5h2.83c.28 0 .5.22.5.5s-.22.5-.5.5z"/><path d="m59.7 39.22c-.28 0-.5-.22-.5-.5v-2.83c0-.28.22-.5.5-.5s.5.22.5.5v2.83c0 .28-.22.5-.5.5z"/></g><g fill="#fbb039"><path d="m20.16 47.05h-2.83c-.28 0-.5-.22-.5-.5s.22-.5.5-.5h2.83c.28 0 .5.22.5.5s-.22.5-.5.5z"/><path d="m18.74 48.47c-.28 0-.5-.22-.5-.5v-2.83c0-.28.22-.5.5-.5s.5.22.5.5v2.83c0 .28-.22.5-.5.5z"/></g><path d="m15.71 25.97v1.02s-.84-.04-1.06-.59c0 0-.17.59-1.41.59s-1.41-.59-1.41-.59c-.22.54-1.06.59-1.06.59v-1.02c0-.42.34-.75.75-.75h3.44c.42 0 .75.34.75.75z" fill="#f9e4c9"/></svg>