<svg id="Layer_1" viewBox="0 0 64 64" xmlns="http://www.w3.org/2000/svg" data-name="Layer 1"><path d="m48.4 42.55c-.28 0-.5-.22-.5-.5v-15.96c0-.28.22-.5.5-.5s.5.22.5.5v15.96c0 .28-.22.5-.5.5z" fill="#fbb039"/><g fill="#f9e4c9"><circle cx="33.97" cy="46.87" r=".5"/><circle cx="42.33" cy="37.71" r=".5"/><circle cx="26.35" cy="23.29" r=".5"/><circle cx="60.94" cy="13.82" r=".5"/><circle cx="60.02" cy="48.73" r=".5"/><circle cx="40.84" cy="5.26" r=".5"/><circle cx="50.89" cy="18.13" r=".5"/><circle cx="5.39" cy="32.45" r=".5"/></g><g fill="#fbb039"><path d="m60.94 39.63h-2.83c-.28 0-.5-.22-.5-.5s.22-.5.5-.5h2.83c.28 0 .5.22.5.5s-.22.5-.5.5z"/><path d="m59.52 41.05c-.28 0-.5-.22-.5-.5v-2.83c0-.28.22-.5.5-.5s.5.22.5.5v2.83c0 .28-.22.5-.5.5z"/></g><g fill="#fbb039"><path d="m36.5 30.77h-2.83c-.28 0-.5-.22-.5-.5s.22-.5.5-.5h2.83c.28 0 .5.22.5.5s-.22.5-.5.5z"/><path d="m35.08 32.19c-.28 0-.5-.22-.5-.5v-2.83c0-.28.22-.5.5-.5s.5.22.5.5v2.83c0 .28-.22.5-.5.5z"/></g><g fill="#fbb039"><path d="m11.27 41.05h-2.83c-.28 0-.5-.22-.5-.5s.22-.5.5-.5h2.83c.28 0 .5.22.5.5s-.22.5-.5.5z"/><path d="m9.85 42.46c-.28 0-.5-.22-.5-.5v-2.83c0-.28.22-.5.5-.5s.5.22.5.5v2.83c0 .28-.22.5-.5.5z"/></g><g fill="#fbb039"><path d="m56.44 9.42h-2.83c-.28 0-.5-.22-.5-.5s.22-.5.5-.5h2.83c.28 0 .5.22.5.5s-.22.5-.5.5z"/><path d="m55.02 10.84c-.28 0-.5-.22-.5-.5v-2.83c0-.28.22-.5.5-.5s.5.22.5.5v2.83c0 .28-.22.5-.5.5z"/></g><g fill="#3dafaf"><path d="m56.06 33.41c-.13 0-.26-.05-.35-.15-14-14.01-32.74-23.17-52.78-25.8-.27-.04-.47-.29-.43-.56s.29-.47.56-.43c20.26 2.66 39.2 11.92 53.35 26.08.2.2.2.51 0 .71-.1.1-.23.15-.35.15z"/><path d="m9.58 8.57c-.18 0-.36-.1-.45-.28-.12-.25-.02-.55.22-.67 2.41-1.2 4.97-2.32 7.58-3.33.26-.1.55.03.65.29s-.03.55-.29.65c-2.59 1-5.11 2.11-7.5 3.29-.07.04-.15.05-.22.05z"/><path d="m14.44 14.89c-.16 0-.31-.07-.41-.21-1.51-2.17-3.13-4.28-4.83-6.28-.18-.21-.15-.53.06-.7.21-.18.53-.15.71.06 1.71 2.02 3.36 4.16 4.88 6.36.16.23.1.54-.12.7-.09.06-.19.09-.29.09z"/><path d="m18.67 10.93c-.2 0-.39-.12-.47-.32-.1-.26.03-.55.29-.64 2.55-.96 5.2-1.82 7.88-2.56.27-.07.54.08.62.35.07.27-.08.54-.35.61-2.64.73-5.26 1.58-7.79 2.53-.06.02-.12.03-.18.03z"/><path d="m22.87 17.71c-.17 0-.35-.09-.44-.26-1.27-2.28-2.67-4.54-4.18-6.73-.16-.23-.1-.54.13-.7s.54-.1.7.13c1.52 2.22 2.94 4.51 4.23 6.81.13.24.05.55-.19.68-.08.04-.16.06-.24.06z"/><path d="m27.48 14.18c-.22 0-.42-.15-.48-.37-.07-.27.09-.54.35-.61 2.68-.71 5.4-1.31 8.09-1.76.26-.04.53.14.58.41s-.14.53-.41.58c-2.66.45-5.36 1.04-8 1.74-.04.01-.09.02-.13.02z"/><path d="m30.99 21.34c-.19 0-.38-.11-.46-.3-1.02-2.36-2.19-4.76-3.48-7.11-.13-.24-.04-.55.2-.68s.54-.05.68.2c1.31 2.39 2.49 4.81 3.53 7.2.11.25 0 .55-.26.66-.06.03-.13.04-.2.04z"/><path d="m35.92 18.3c-.24 0-.45-.17-.49-.42-.04-.27.14-.53.41-.57 2.75-.44 5.52-.76 8.24-.93.28-.01.51.19.53.47s-.19.51-.47.53c-2.68.17-5.42.48-8.14.92-.03 0-.05 0-.08 0z"/><path d="m38.68 25.77c-.21 0-.41-.14-.48-.35-.76-2.43-1.68-4.93-2.74-7.43-.11-.25.01-.55.26-.66s.55.01.66.27c1.07 2.53 2 5.06 2.78 7.52.08.26-.06.54-.33.63-.05.02-.1.02-.15.02z"/><path d="m43.9 23.26c-.26 0-.48-.21-.5-.47-.02-.28.19-.51.47-.53 2.73-.16 5.52-.18 8.29-.07.28.01.49.24.48.52-.01.27-.2.5-.52.48-2.74-.11-5.5-.09-8.19.07 0 0-.02 0-.03 0z"/><path d="m45.86 30.97c-.23 0-.44-.16-.49-.4-.51-2.55-1.17-5.13-1.95-7.67-.08-.26.07-.54.33-.62s.54.07.62.33c.79 2.57 1.46 5.19 1.98 7.76.05.27-.12.53-.39.59-.03 0-.07 0-.1 0z"/><path d="m59.52 29.8s-.05 0-.07 0c-2.72-.39-5.47-.66-8.16-.79-.28-.01-.49-.25-.48-.52.01-.28.25-.48.52-.48 2.72.13 5.5.4 8.25.79.27.04.46.29.42.57-.04.25-.25.43-.49.43z"/><path d="m52.47 36.89c-.25 0-.47-.19-.5-.45-.25-2.6-.63-5.23-1.14-7.83-.05-.27.12-.53.39-.59.28-.05.53.12.59.39.52 2.63.91 5.3 1.16 7.93.03.27-.18.52-.45.54-.02 0-.03 0-.05 0z"/></g><g fill="#3dafaf"><path d="m23.44 51.24c-.26 0-.47-.2-.5-.46-1.58-17.97-8.8-33.36-20.33-43.34-.21-.18-.23-.5-.05-.71s.5-.23.71-.05c11.72 10.15 19.07 25.78 20.67 44.01.02.27-.18.52-.45.54-.01 0-.03 0-.04 0z"/><path d="m6.61 11.07c-.26 0-.48-.2-.5-.46-.02-.28.19-.52.46-.54 2.21-.17 4.46-.21 6.7-.12.28.01.49.24.48.52s-.19.5-.52.48c-2.2-.08-4.42-.04-6.59.12-.01 0-.03 0-.04 0z"/><path d="m6.39 18.63s-.02 0-.04 0c-.28-.02-.48-.26-.46-.53.18-2.54.26-5.07.23-7.52 0-.28.22-.5.49-.51.27 0 .5.22.5.49.03 2.48-.04 5.04-.23 7.6-.02.26-.24.46-.5.46z"/><path d="m17.66 17.35s-.06 0-.08 0c-2.09-.35-4.23-.58-6.36-.68-.28-.01-.49-.25-.48-.52.01-.28.26-.5.52-.48 2.17.1 4.35.33 6.48.69.27.05.46.3.41.58-.04.24-.25.42-.49.42z"/><path d="m10.35 24.39s-.05 0-.08 0c-.27-.04-.46-.3-.42-.57.39-2.55.69-5.13.89-7.69.02-.28.24-.49.54-.46.28.02.48.26.46.54-.2 2.58-.5 5.19-.9 7.76-.04.25-.25.42-.49.42z"/><path d="m21.34 24.45s-.1 0-.15-.02c-1.96-.6-4-1.1-6.08-1.47-.27-.05-.45-.31-.4-.58s.31-.45.58-.4c2.12.38 4.2.88 6.2 1.5.26.08.41.36.33.63-.07.21-.26.35-.48.35z"/><path d="m13.66 30.77s-.08 0-.12-.01c-.27-.06-.44-.33-.37-.6.6-2.52 1.12-5.13 1.54-7.77.04-.27.29-.46.57-.41.27.04.46.3.42.57-.43 2.66-.95 5.3-1.55 7.84-.05.23-.26.38-.49.38z"/><path d="m24.25 32.19c-.07 0-.15-.02-.21-.05-1.82-.86-3.74-1.62-5.73-2.26-.26-.08-.41-.37-.32-.63.08-.26.37-.41.63-.32 2.03.65 3.99 1.43 5.85 2.31.25.12.36.42.24.67-.09.18-.27.29-.45.29z"/><path d="m16.27 37.71c-.05 0-.1 0-.15-.02-.26-.08-.41-.37-.32-.63.81-2.49 1.54-5.11 2.19-7.77.07-.27.33-.43.6-.37s.43.34.37.6c-.65 2.69-1.39 5.33-2.21 7.84-.07.21-.26.35-.48.35z"/><path d="m26.35 40.5c-.1 0-.19-.03-.28-.08-1.71-1.14-3.49-2.16-5.31-3.04-.25-.12-.35-.42-.23-.67s.42-.35.67-.23c1.86.9 3.68 1.95 5.43 3.11.23.15.29.46.14.69-.1.14-.25.22-.42.22z"/><path d="m18.15 45.15c-.06 0-.13-.01-.19-.04-.26-.1-.38-.4-.27-.65 1.03-2.51 1.98-5.1 2.83-7.69.09-.26.37-.41.63-.32s.41.37.32.63c-.86 2.62-1.81 5.23-2.85 7.76-.08.19-.27.31-.46.31z"/><path d="m27.61 49.29c-.12 0-.24-.04-.33-.13-1.54-1.39-3.17-2.66-4.83-3.8-.23-.16-.29-.47-.13-.69.16-.23.47-.28.69-.13 1.7 1.16 3.36 2.47 4.94 3.88.21.18.22.5.04.71-.1.11-.24.17-.37.17z"/><path d="m19.27 53.02c-.08 0-.15-.02-.22-.05-.25-.12-.35-.42-.22-.67 1.23-2.46 2.39-5 3.44-7.53.11-.25.4-.38.65-.27s.38.4.27.65c-1.06 2.56-2.22 5.11-3.47 7.6-.09.18-.26.28-.45.28z"/></g><path d="m47.39 42.05h2.03c.55 0 1 .45 1 1v1.11h-4.03v-1.11c0-.55.45-1 1-1z" fill="#f78d1f"/><circle cx="48.4" cy="51.16" fill="#f57365" r="8.06"/></svg>