<svg id="Layer_1" viewBox="0 0 64 64" xmlns="http://www.w3.org/2000/svg" data-name="Layer 1"><g fill="#f9e4c9"><g><path d="m61.57 43.77h-3.58c-.28 0-.5-.22-.5-.5s.22-.5.5-.5h3.58c.28 0 .5.22.5.5s-.22.5-.5.5z"/><path d="m59.78 45.55c-.28 0-.5-.22-.5-.5v-3.58c0-.28.22-.5.5-.5s.5.22.5.5v3.58c0 .28-.22.5-.5.5z"/></g><g><path d="m18.81 45.83h-5c-.28 0-.5-.22-.5-.5s.22-.5.5-.5h5c.28 0 .5.22.5.5s-.22.5-.5.5z"/><path d="m16.31 48.33c-.28 0-.5-.22-.5-.5v-5c0-.28.22-.5.5-.5s.5.22.5.5v5c0 .28-.22.5-.5.5z"/></g><g><path d="m25.77 22.29h-2.83c-.28 0-.5-.22-.5-.5s.22-.5.5-.5h2.83c.28 0 .5.22.5.5s-.22.5-.5.5z"/><path d="m24.35 23.71c-.28 0-.5-.22-.5-.5v-2.83c0-.28.22-.5.5-.5s.5.22.5.5v2.83c0 .28-.22.5-.5.5z"/></g></g><g><path d="m32.2 28.33c-.28 0-.5-.22-.5-.5v-10.58c0-.28.22-.5.5-.5s.5.22.5.5v10.58c0 .28-.22.5-.5.5z" fill="#fbb039"/><path d="m31.04 27.83h2.31c.55 0 1 .45 1 1v1.64h-4.31v-1.64c0-.55.45-1 1-1z" fill="#f78d1f"/><circle cx="32.2" cy="37.63" fill="#fbb039" r="8.47"/></g><g><path d="m10.67 23.04c-.28 0-.5-.22-.5-.5v-8.1c0-.28.22-.5.5-.5s.5.22.5.5v8.1c0 .28-.22.5-.5.5z" fill="#fbb039"/><path d="m9.52 22.54h2.31c.55 0 1 .45 1 1v1.64h-4.31v-1.64c0-.55.45-1 1-1z" fill="#f78d1f"/><circle cx="10.67" cy="32.33" fill="#f57365" r="8.47"/></g><g><path d="m53.73 23.04c-.28 0-.5-.22-.5-.5v-8.1c0-.28.22-.5.5-.5s.5.22.5.5v8.1c0 .28-.22.5-.5.5z" fill="#fbb039"/><path d="m52.57 22.54h2.31c.55 0 1 .45 1 1v1.64h-4.31v-1.64c0-.55.45-1 1-1z" fill="#f78d1f"/><circle cx="53.73" cy="32.33" fill="#9ed7ce" r="8.47"/></g><path d="m32.2 17.75c-19.07 0-30.13-6-30.24-6.06-.24-.13-.33-.44-.2-.68s.43-.33.68-.2c.11.06 10.96 5.94 29.76 5.94s29.65-5.88 29.76-5.94c.25-.13.55-.04.68.2s.05.55-.2.68c-.11.06-11.17 6.06-30.24 6.06z" fill="#fbb039"/></svg>