<svg id="Layer_1" viewBox="0 0 64 64" xmlns="http://www.w3.org/2000/svg" data-name="Layer 1"><path d="m40.23 40.53c-.28 0-.5-.22-.5-.5v-17.59c0-.28.22-.5.5-.5s.5.22.5.5v17.59c0 .28-.22.5-.5.5z" fill="#fbb039"/><g><path d="m40.23 38.57v11.59l-11.02-3.59 7.61-1.09z" fill="#faa226"/><path d="m51.25 46.57-11.02 3.59v-11.59l3.41 6.91z" fill="#fbb039"/><path d="m45.74 51.95 1.3 7.59-6.81-9.38 11.02-3.59z" fill="#faa226"/><path d="m47.04 59.54-6.81-3.59-6.82 3.59 6.82-9.38z" fill="#f78d1f"/><path d="m33.41 59.54 1.31-7.59-5.51-5.38 11.02 3.59z" fill="#fbb039"/></g><g fill="#fbba90"><g><path d="m28.1 34.55h-2.83c-.28 0-.5-.22-.5-.5s.22-.5.5-.5h2.83c.28 0 .5.22.5.5s-.22.5-.5.5z"/><path d="m26.68 35.96c-.28 0-.5-.22-.5-.5v-2.83c0-.28.22-.5.5-.5s.5.22.5.5v2.83c0 .28-.22.5-.5.5z"/></g><g><path d="m53.93 17.2h-2.83c-.28 0-.5-.22-.5-.5s.22-.5.5-.5h2.83c.28 0 .5.22.5.5s-.22.5-.5.5z"/><path d="m52.51 18.61c-.28 0-.5-.22-.5-.5v-2.83c0-.28.22-.5.5-.5s.5.22.5.5v2.83c0 .28-.22.5-.5.5z"/></g><g><path d="m58.72 50.66h-4.09c-.28 0-.5-.22-.5-.5s.22-.5.5-.5h4.09c.28 0 .5.22.5.5s-.22.5-.5.5z"/><path d="m56.68 52.7c-.28 0-.5-.22-.5-.5v-4.09c0-.28.22-.5.5-.5s.5.22.5.5v4.09c0 .28-.22.5-.5.5z"/></g></g><g fill="#3dafaf"><path d="m55.26 35.01c-.13 0-.26-.05-.35-.15-13.99-14.01-32.74-23.17-52.78-25.8-.27-.04-.47-.29-.43-.56.04-.28.29-.47.56-.43 20.26 2.66 39.21 11.92 53.35 26.08.2.2.2.51 0 .71-.1.1-.23.15-.35.15z"/><path d="m8.79 10.17c-.18 0-.36-.1-.45-.28-.12-.25-.02-.55.22-.67 2.42-1.2 4.97-2.32 7.59-3.33.26-.1.55.03.65.29s-.03.55-.29.65c-2.59 1-5.11 2.11-7.5 3.29-.07.04-.15.05-.22.05z"/><path d="m13.64 16.49c-.16 0-.31-.07-.41-.21-1.51-2.17-3.13-4.28-4.83-6.28-.18-.21-.15-.53.06-.7.21-.18.53-.15.71.06 1.71 2.02 3.36 4.16 4.88 6.36.16.23.1.54-.12.7-.09.06-.19.09-.29.09z"/><path d="m17.88 12.53c-.2 0-.39-.12-.47-.32-.1-.26.03-.55.29-.64 2.55-.96 5.2-1.82 7.88-2.56.27-.07.54.08.62.35.07.27-.08.54-.35.61-2.64.73-5.26 1.58-7.79 2.53-.06.02-.12.03-.18.03z"/><path d="m22.08 19.3c-.17 0-.35-.09-.44-.26-1.26-2.27-2.67-4.54-4.18-6.73-.16-.23-.1-.54.13-.7s.54-.1.7.13c1.53 2.22 2.95 4.52 4.23 6.81.13.24.05.55-.19.68-.08.04-.16.06-.24.06z"/><path d="m26.68 15.78c-.22 0-.42-.15-.48-.37-.07-.27.09-.54.35-.61 2.67-.71 5.4-1.31 8.09-1.76.26-.04.53.14.58.41s-.14.53-.41.58c-2.67.45-5.36 1.04-8 1.74-.04.01-.09.02-.13.02z"/><path d="m30.19 22.94c-.19 0-.38-.11-.46-.3-1.02-2.36-2.19-4.76-3.48-7.11-.13-.24-.04-.55.2-.68s.55-.05.68.2c1.31 2.38 2.49 4.81 3.53 7.2.11.25 0 .55-.26.66-.06.03-.13.04-.2.04z"/><path d="m35.12 19.9c-.24 0-.45-.17-.49-.42-.04-.27.14-.53.41-.57 2.75-.44 5.52-.76 8.24-.93.3-.02.51.19.53.47s-.19.51-.47.53c-2.68.17-5.42.48-8.14.92-.03 0-.05 0-.08 0z"/><path d="m37.88 27.37c-.21 0-.41-.14-.48-.35-.76-2.43-1.68-4.93-2.74-7.43-.11-.25.01-.55.26-.66s.55.01.66.27c1.07 2.53 2 5.05 2.78 7.52.08.26-.06.54-.33.63-.05.02-.1.02-.15.02z"/><path d="m43.1 24.85c-.26 0-.48-.21-.5-.47-.02-.28.19-.51.47-.53 2.73-.16 5.52-.18 8.29-.07.28.01.49.24.48.52-.01.27-.21.5-.52.48-2.74-.11-5.49-.09-8.19.07 0 0-.02 0-.03 0z"/><path d="m45.07 32.57c-.23 0-.44-.16-.49-.4-.51-2.55-1.17-5.13-1.95-7.67-.08-.26.07-.54.33-.62s.54.07.62.33c.79 2.57 1.46 5.19 1.98 7.76.05.27-.12.53-.39.59-.03 0-.07 0-.1 0z"/><path d="m58.72 31.4s-.05 0-.07 0c-2.72-.39-5.46-.66-8.16-.79-.28-.01-.49-.25-.48-.52s.27-.49.52-.48c2.72.13 5.5.4 8.25.79.27.04.46.29.42.57-.04.25-.25.43-.49.43z"/><path d="m51.67 38.49c-.25 0-.47-.19-.5-.45-.25-2.6-.63-5.23-1.14-7.83-.05-.27.12-.53.39-.59.27-.05.53.12.59.39.52 2.63.91 5.3 1.16 7.93.03.27-.18.52-.45.54-.02 0-.03 0-.05 0z"/></g></svg>