<svg id="Layer_1" viewBox="0 0 64 64" xmlns="http://www.w3.org/2000/svg" data-name="Layer 1"><g><path d="m25.98 41.24c-.28 0-.5-.22-.5-.5v-35.74c0-.28.22-.5.5-.5s.5.22.5.5v35.74c0 .28-.22.5-.5.5z" fill="#fbb039"/><path d="m24.83 40.74h2.31c.55 0 1 .45 1 1v1.64h-4.31v-1.64c0-.55.45-1 1-1z" fill="#f78d1f"/><circle cx="25.98" cy="50.53" fill="#9ed7ce" r="8.47"/></g><g fill="#fbba90"><circle cx="46.59" cy="22.87" r=".5"/><circle cx="53.44" cy="46.22" r=".5"/><circle cx="31.79" cy="11.5" r=".5"/><circle cx="16.05" cy="8" r=".5"/><circle cx="30.32" cy="33.61" r=".5"/><circle cx="51.4" cy="7" r=".5"/><circle cx="10.96" cy="17.22" r=".5"/><g><path d="m14.54 41.24h-4.09c-.28 0-.5-.22-.5-.5s.22-.5.5-.5h4.09c.28 0 .5.22.5.5s-.22.5-.5.5z"/><path d="m12.5 43.28c-.28 0-.5-.22-.5-.5v-4.09c0-.28.22-.5.5-.5s.5.22.5.5v4.09c0 .28-.22.5-.5.5z"/></g><g><path d="m53.44 53.66h-4.09c-.28 0-.5-.22-.5-.5s.22-.5.5-.5h4.09c.28 0 .5.22.5.5s-.22.5-.5.5z"/><path d="m51.4 55.71c-.28 0-.5-.22-.5-.5v-4.09c0-.28.22-.5.5-.5s.5.22.5.5v4.09c0 .28-.22.5-.5.5z"/></g><g><path d="m38.54 22.17h-4.09c-.28 0-.5-.22-.5-.5s.22-.5.5-.5h4.09c.28 0 .5.22.5.5s-.22.5-.5.5z"/><path d="m36.5 24.21c-.28 0-.5-.22-.5-.5v-4.09c0-.28.22-.5.5-.5s.5.22.5.5v4.09c0 .28-.22.5-.5.5z"/></g></g><g><path d="m22.35 16.08c-.28 0-.5-.22-.5-.5v-10.58c0-.28.22-.5.5-.5s.5.22.5.5v10.58c0 .28-.22.5-.5.5z" fill="#fbb039"/><path d="m21.19 15.58h2.31c.55 0 1 .45 1 1v1.64h-4.31v-1.64c0-.55.45-1 1-1z" fill="#f78d1f"/><circle cx="22.35" cy="25.37" fill="#f57365" r="8.47"/></g><g><path d="m42.93 28.46c-.28 0-.5-.22-.5-.5v-22.96c0-.28.22-.5.5-.5s.5.22.5.5v22.96c0 .28-.22.5-.5.5z" fill="#fbb039"/><path d="m41.77 27.96h2.31c.55 0 1 .45 1 1v1.64h-4.31v-1.64c0-.55.45-1 1-1z" fill="#f78d1f"/><circle cx="42.93" cy="37.75" fill="#fbb039" r="8.47"/></g></svg>