<svg id="Layer_1" viewBox="0 0 64 64" xmlns="http://www.w3.org/2000/svg" data-name="Layer 1"><path d="m27.06 22.62c-.28 0-.5-.22-.5-.5v-19.37c0-.28.22-.5.5-.5s.5.22.5.5v19.37c0 .28-.22.5-.5.5z" fill="#fbb039"/><path d="m28.01 26.2 2.15 4.37c.15.31.45.53.79.58l4.82.7c.86.13 1.21 1.18.58 1.79l-3.49 3.4c-.25.24-.36.59-.3.93l.82 4.8c.15.86-.75 1.51-1.53 1.11l-4.31-2.27c-.31-.16-.67-.16-.98 0l-4.31 2.27c-.77.41-1.67-.25-1.53-1.11l.82-4.8c.06-.34-.05-.69-.3-.93l-3.49-3.4c-.62-.61-.28-1.67.58-1.79l4.82-.7c.34-.05.64-.26.79-.58l2.15-4.37c.39-.78 1.5-.78 1.89 0z" fill="#fbb039"/><path d="m27.06 26.11c-1.24 0-2.25-1.01-2.25-2.25s1.01-2.25 2.25-2.25 2.25 1.01 2.25 2.25-1.01 2.25-2.25 2.25zm0-3.49c-.69 0-1.25.56-1.25 1.25s.56 1.25 1.25 1.25 1.25-.56 1.25-1.25-.56-1.25-1.25-1.25z" fill="#f78d1f"/><g><path d="m43.45 17.01c-1.22-2.18-2.99-2.99-2.99-2.99h-2.41s-1.76.81-2.98 2.98c-.64 1.15-1.14 2.7-1.14 4.72 0 1.45.33 2.84.83 4.12 1.5 3.85 4.5 6.66 4.5 6.66s3.02-2.8 4.51-6.66c.5-1.28.83-2.67.83-4.12 0-2.02-.49-3.55-1.14-4.71z" fill="#f57365"/><path d="m39.25 11.43c-.28 0-.5-.22-.5-.5v-8.18c0-.28.22-.5.5-.5s.5.22.5.5v8.18c0 .28-.22.5-.5.5z" fill="#fbb039"/><g fill="#f78d1f"><rect height="1.67" rx=".83" width="3.88" x="37.31" y="12.47"/><path d="m40.16 13.2c-.1 0-.2-.03-.29-.09-.22-.16-.28-.47-.11-.7.08-.11.12-.23.12-.36 0-.34-.28-.62-.62-.62s-.62.28-.62.62c0 .13.04.26.12.36.16.22.11.54-.11.7-.23.16-.54.11-.7-.11-.2-.28-.3-.6-.3-.94 0-.89.73-1.62 1.62-1.62s1.62.73 1.62 1.62c0 .34-.1.67-.3.94-.1.14-.25.21-.41.21z"/></g></g><g><path d="m47.95 30.08c-.28 0-.5-.22-.5-.5v-26.83c0-.28.22-.5.5-.5s.5.22.5.5v26.83c0 .28-.22.5-.5.5z" fill="#fbb039"/><g><path d="m49.18 50.08v2.4h-2.46v-2.42z" fill="#f9e4c9"/><path d="m51.93 43.3 4.71 5.67s-2.87 1.4-8.7 1.4-8.7-1.4-8.7-1.4l4.71-5.67h7.97z" fill="#d3f9ec"/><path d="m50.36 37.67 4.17 5.11s-2.17 1.08-6.58 1.08-6.58-1.08-6.58-1.08l4.17-5.11z" fill="#9ed7ce"/><path d="m47.95 38.06c-3.22 0-4.81-.76-4.81-.76l4.81-5.69 4.81 5.69s-1.59.76-4.81.76z" fill="#3dafaf"/></g><path d="m47.95 32.1c-.83 0-1.51-.68-1.51-1.51s.68-1.51 1.51-1.51 1.51.68 1.51 1.51-.68 1.51-1.51 1.51zm0-2.02c-.28 0-.51.23-.51.51s.23.51.51.51.51-.23.51-.51-.23-.51-.51-.51z" fill="#f78d1f"/></g><path d="m15.81 44.58c-.28 0-.5-.22-.5-.5v-41.33c0-.28.22-.5.5-.5s.5.22.5.5v41.33c0 .28-.22.5-.5.5z" fill="#fbb039"/><path d="m14.8 44.08h2.03c.55 0 1 .45 1 1v1.11h-4.03v-1.11c0-.55.45-1 1-1z" fill="#f78d1f"/><circle cx="15.81" cy="53.19" fill="#ffa089" r="8.06"/></svg>