<svg id="Layer_1" viewBox="0 0 64 64" xmlns="http://www.w3.org/2000/svg" data-name="Layer 1"><path d="m51.61 25.43c-.28 0-.5-.22-.5-.5v-17.62c0-.28.22-.5.5-.5s.5.22.5.5v17.62c0 .28-.22.5-.5.5z" fill="#fbb039"/><path d="m33.92 56.69c-6.56 0-8.54-2.02-8.54-2.02 2.14-1.06 2.83-6.5 3.48-9.24s1.53-5.27 5.07-5.27 4.42 2.53 5.07 5.27 1.33 8.18 3.48 9.24c0 0-1.98 2.02-8.54 2.02z" fill="#f9e4c9"/><path d="m33.92 40.67c-.28 0-.5-.22-.5-.5v-32.86c0-.28.22-.5.5-.5s.5.22.5.5v32.86c0 .28-.22.5-.5.5z" fill="#fbb039"/><path d="m35.69 40.89c-.7 0-1.38-.09-1.91-.26-.15-.05-.27-.16-.32-.31s-.04-.31.05-.44c.2-.32 2.03-3.08 3.82-3.08h.02c.45 0 1.09.18 1.6 1.02.6.97.27 1.65.02 1.97-.61.78-1.98 1.1-3.27 1.1zm-.92-1.06c1.35.2 2.96-.08 3.4-.65.07-.09.24-.31-.08-.83-.3-.48-.58-.54-.76-.54-.77 0-1.84 1.08-2.56 2.03z" fill="#ffa089"/><path d="m32.16 40.89c-1.3 0-2.67-.32-3.27-1.1-.25-.32-.58-1 .02-1.97.51-.83 1.15-1.01 1.6-1.02h.02c1.78 0 3.61 2.76 3.82 3.08.08.13.1.29.05.44s-.17.26-.32.31c-.52.16-1.21.26-1.91.26zm-1.64-3.08c-.18 0-.46.06-.76.54-.32.52-.15.75-.08.83.45.58 2.05.85 3.4.65-.72-.95-1.79-2.03-2.56-2.03z" fill="#ffa089"/><path d="m15.98 19.53c-.28 0-.5-.22-.5-.5v-11.72c0-.28.22-.5.5-.5s.5.22.5.5v11.72c0 .28-.22.5-.5.5z" fill="#fbb039"/><path d="m50.45 24.93h2.31c.55 0 1 .45 1 1v1.64h-4.31v-1.64c0-.55.45-1 1-1z" fill="#f78d1f"/><circle cx="51.61" cy="34.72" fill="#ffa089" r="8.47"/><g fill="#fbba90"><path d="m11.98 48.3c-.28 0-.5-.22-.5-.5v-1.64c0-.28.22-.5.5-.5s.5.22.5.5v1.64c0 .28-.22.5-.5.5z"/><path d="m10.39 49.88h-1.64c-.28 0-.5-.22-.5-.5s.22-.5.5-.5h1.64c.28 0 .5.22.5.5s-.22.5-.5.5z"/><path d="m11.98 53.12c-.28 0-.5-.22-.5-.5v-1.64c0-.28.22-.5.5-.5s.5.22.5.5v1.64c0 .28-.22.5-.5.5z"/><path d="m15.21 49.89h-1.64c-.28 0-.5-.22-.5-.5s.22-.5.5-.5h1.64c.28 0 .5.22.5.5s-.22.5-.5.5z"/><path d="m43.52 15.45c-.28 0-.5-.22-.5-.5v-1.64c0-.28.22-.5.5-.5s.5.22.5.5v1.64c0 .28-.22.5-.5.5z"/><path d="m41.92 17.03h-1.64c-.28 0-.5-.22-.5-.5s.22-.5.5-.5h1.64c.28 0 .5.22.5.5s-.22.5-.5.5z"/><path d="m43.51 20.27c-.28 0-.5-.22-.5-.5v-1.64c0-.28.22-.5.5-.5s.5.22.5.5v1.64c0 .28-.22.5-.5.5z"/><path d="m46.74 17.04h-1.64c-.28 0-.5-.22-.5-.5s.22-.5.5-.5h1.64c.28 0 .5.22.5.5s-.22.5-.5.5z"/><path d="m55.72 52.37c-.28 0-.5-.22-.5-.5v-1.64c0-.28.22-.5.5-.5s.5.22.5.5v1.64c0 .28-.22.5-.5.5z"/><path d="m54.12 53.96h-1.64c-.28 0-.5-.22-.5-.5s.22-.5.5-.5h1.64c.28 0 .5.22.5.5s-.22.5-.5.5z"/><path d="m55.71 57.19c-.28 0-.5-.22-.5-.5v-1.64c0-.28.22-.5.5-.5s.5.22.5.5v1.64c0 .28-.22.5-.5.5z"/><path d="m58.94 53.97h-1.64c-.28 0-.5-.22-.5-.5s.22-.5.5-.5h1.64c.28 0 .5.22.5.5s-.22.5-.5.5z"/></g><path d="m27.51 31.36-3.54 1.53-2.68-1.55v-4.62l2.68-1.55 3.54 1.53.52-1.21-3.39-1.47.43-3.67-1.31-.15-.45 3.83-2.68 1.55-4-2.31v-3.09l3.09-2.3-.79-1.06-2.97 2.21-2.97-2.21-.79 1.06 3.09 2.3v3.09l-4 2.31-2.68-1.55-.45-3.83-1.31.15.43 3.67-3.39 1.47.52 1.21 3.54-1.53 2.68 1.55v4.62l-2.68 1.55-3.54-1.53-.52 1.21 3.39 1.47-.43 3.67 1.31.15.45-3.83 2.68-1.55 4 2.31v3.09l-3.09 2.3.79 1.06 2.97-2.21 2.97 2.21.79-1.06-3.09-2.3v-3.09l4-2.31 2.68 1.55.45 3.83 1.31-.15-.43-3.67 3.39-1.47zm-7.54-.02-4 2.31-4-2.31v-4.62l4-2.31 4 2.31z" fill="#9ed7ce"/></svg>