<svg id="Layer_1" viewBox="0 0 64 64" xmlns="http://www.w3.org/2000/svg" data-name="Layer 1"><path d="m13.71 19.07c-.28 0-.5-.22-.5-.5v-16.2c0-.28.22-.5.5-.5s.5.22.5.5v16.2c0 .28-.22.5-.5.5z" fill="#faa226"/><path d="m14.7 21.61h-1.99s-.13-.1-.13-.1c-.49-.36-.78-.93-.78-1.54 0-1.05.86-1.91 1.91-1.91s1.91.86 1.91 1.91c0 .61-.29 1.18-.78 1.54l-.13.1zm-1.64-1h1.29c.17-.17.26-.39.26-.64 0-.5-.41-.91-.91-.91s-.91.41-.91.91c0 .24.09.47.26.64z" fill="#f78d1f"/><path d="m18.76 28.43c0 5.49-5.03 10.18-5.03 10.18s-5.04-4.7-5.04-10.18c0-3.4 1.43-5.37 2.57-6.38 0 0 .84-.04 1.06-.59 0 0 .17.59 1.41.59s1.41-.59 1.41-.59c.22.54 1.06.59 1.06.59 1.14 1.02 2.56 2.98 2.56 6.38z" fill="#9ed7ce"/><path d="m13.73 22.38c1.24 0 1.41-.59 1.41-.59.23.54 1.06.59 1.06.59v-1.02c0-.41-.34-.75-.75-.75h-1.72s-1.72 0-1.72 0c-.41 0-.75.34-.75.75v1.02s.84-.05 1.06-.59c0 0 .17.59 1.41.59z" fill="#f9e4c9"/><path d="m22.85 42.44c-.28 0-.5-.22-.5-.5v-39.57c0-.28.22-.5.5-.5s.5.22.5.5v39.57c0 .28-.22.5-.5.5z" fill="#faa226"/><g><path d="m50.28 13.91c-.28 0-.5-.22-.5-.5v-11.04c0-.28.22-.5.5-.5s.5.22.5.5v11.04c0 .28-.22.5-.5.5z" fill="#faa226"/><path d="m51.27 16.45h-1.99l-.13-.1c-.49-.36-.78-.93-.78-1.54 0-1.05.86-1.91 1.91-1.91s1.91.86 1.91 1.91c0 .61-.29 1.18-.78 1.54l-.13.1zm-1.64-1h1.29c.17-.17.26-.39.26-.64 0-.5-.41-.91-.91-.91s-.91.41-.91.91c0 .24.09.47.26.64z" fill="#f78d1f"/><path d="m55.31 23.63c0 5.49-5.03 10.18-5.03 10.18s-5.04-4.69-5.04-10.18c0-3.4 1.43-5.37 2.57-6.38 0 0 .38-.02.69-.2.1-.05.19-.12.26-.21.05-.05.08-.11.11-.17 0 0 .02.08.12.18.02.03.05.06.08.08.07.05.16.11.27.16.06.03.13.05.2.07.14.04.31.07.52.08.07.01.14.01.22.01s.15 0 .22-.01c.21-.01.38-.04.52-.08.07-.02.14-.04.2-.07.11-.05.2-.11.27-.16.03-.02.06-.05.08-.08.1-.1.12-.18.12-.18.03.06.06.12.11.17.08.11.2.19.32.25.3.14.63.16.63.16 1.14 1.02 2.56 2.99 2.56 6.38z" fill="#f57365"/><path d="m52.75 16.23v1.02s-.33-.02-.63-.16c-.12-.06-.24-.14-.32-.25-.05-.05-.08-.11-.11-.17 0 0-.02.08-.12.18-.02.03-.05.06-.08.08-.07.05-.16.11-.27.16-.06.03-.13.05-.2.07-.14.04-.31.07-.52.08-.07.01-.14.01-.22.01s-.15 0-.22-.01c-.21-.01-.38-.04-.52-.08-.07-.02-.14-.04-.2-.07-.11-.05-.2-.11-.27-.16-.03-.02-.06-.05-.08-.08-.1-.1-.12-.18-.12-.18-.03.06-.06.12-.11.17-.07.09-.16.16-.26.21-.31.18-.69.2-.69.2v-1.02c0-.41.33-.75.75-.75h3.44c.41 0 .75.34.75.75z" fill="#f9e4c9"/></g><g><path d="m41.13 29.64c-.28 0-.5-.22-.5-.5v-26.77c0-.28.22-.5.5-.5s.5.22.5.5v26.78c0 .28-.22.5-.5.5z" fill="#faa226"/><path d="m42.13 32.19h-1.99s-.13-.1-.13-.1c-.49-.36-.78-.93-.78-1.54 0-1.05.86-1.91 1.91-1.91s1.91.86 1.91 1.91c0 .61-.29 1.18-.78 1.54l-.13.1zm-1.64-1h1.29c.17-.17.26-.4.26-.64 0-.5-.41-.91-.91-.91s-.91.41-.91.91c0 .24.09.47.26.64z" fill="#f78d1f"/><path d="m46.17 38.32c0 5.49-5.03 11.09-5.03 11.09s-5.04-4.7-5.04-10.18c0-3.4 1.43-5.37 2.57-6.38 0 0 .84-.04 1.06-.59 0 0 .17.59 1.41.59s1.41-.59 1.41-.59c.22.54 1.06.59 1.06.59 1.14 1.02 2.56 2.08 2.56 5.48z" fill="#3dafaf"/><path d="m41.13 32.96c1.24 0 1.41-.59 1.41-.59.23.54 1.06.59 1.06.59v-1.02c0-.41-.34-.75-.75-.75h-1.72s-1.72 0-1.72 0c-.41 0-.75.34-.75.75v1.02s.84-.05 1.06-.59c0 0 .17.59 1.41.59z" fill="#f9e4c9"/></g><rect fill="#faa226" height="4.8" rx=".5" width="1" x="31.49" y="1.87"/><path d="m32.98 9.21h-1.99l-.13-.1c-.49-.36-.78-.93-.78-1.54 0-1.05.86-1.91 1.91-1.91s1.91.86 1.91 1.91c0 .61-.29 1.18-.78 1.54l-.13.1zm-1.64-1h1.29c.17-.17.26-.4.26-.64 0-.5-.41-.91-.91-.91s-.91.41-.91.91c0 .24.09.47.26.64z" fill="#f78d1f"/><path d="m37.02 16.25c0 5.49-5.03 10.18-5.03 10.18s-5.04-4.7-5.04-10.18c0-3.4 1.43-5.37 2.57-6.38 0 0 .84-.04 1.06-.59 0 0 .17.59 1.41.59s1.41-.59 1.41-.59c.22.54 1.06.59 1.06.59 1.14 1.02 2.56 2.98 2.56 6.38z" fill="#faa226"/><path d="m31.99 10.01c1.24 0 1.41-.59 1.41-.59.23.54 1.06.59 1.06.59v-1.02c0-.41-.34-.75-.75-.75h-1.72s-1.72 0-1.72 0c-.41 0-.75.34-.75.75v1.02s.84-.05 1.06-.59c0 0 .17.59 1.41.59z" fill="#f9e4c9"/><g><path d="m23.84 44.98h-1.99l-.13-.1c-.49-.36-.78-.93-.78-1.54 0-1.05.86-1.91 1.91-1.91s1.91.86 1.91 1.91c0 .61-.29 1.18-.78 1.54l-.13.1zm-1.64-1h1.29c.17-.17.26-.39.26-.64 0-.5-.41-.91-.91-.91s-.91.41-.91.91c0 .24.1.47.26.64z" fill="#f78d1f"/><path d="m27.88 51.95c0 5.49-5.03 10.18-5.03 10.18s-5.04-4.7-5.04-10.18c0-3.4 1.43-5.37 2.57-6.38 0 0 .84-.04 1.06-.59 0 0 .17.59 1.41.59s1.41-.59 1.41-.59c.22.54 1.06.59 1.06.59 1.14 1.02 2.56 2.98 2.56 6.38z" fill="#f14a3a"/><path d="m25.32 44.74v1.02s-.84-.04-1.06-.59c0 0-.17.59-1.41.59s-1.41-.59-1.41-.59c-.22.54-1.06.59-1.06.59v-1.02c0-.42.34-.75.75-.75h3.44c.42 0 .75.34.75.75z" fill="#f9e4c9"/></g></svg>