<svg id="Layer_1" viewBox="0 0 64 64" xmlns="http://www.w3.org/2000/svg" data-name="Layer 1"><path d="m18.28 24.14c-.28 0-.5-.22-.5-.5v-15.64c0-.28.22-.5.5-.5s.5.22.5.5v15.65c0 .28-.22.5-.5.5z" fill="#fbb039"/><path d="m18.28 21.75c.86 0 1.56.7 1.56 1.56v2.23h-3.13v-2.23c0-.86.7-1.56 1.56-1.56z" fill="#f78d1f"/><circle cx="18.28" cy="36.58" fill="#ccc" r="12.5"/><path d="m30.78 36.58c0 5.24-3.22 9.72-7.78 11.58-.86.35-1.77.61-2.72.76-.43.07-.86.12-1.31.14-.23.01-.46.02-.69.02s-.46 0-.69-.02c-.45-.02-.88-.07-1.31-.14-.95-.15-1.86-.41-2.72-.76-4.57-1.86-7.78-6.34-7.78-11.58s3.22-9.73 7.8-11.59c.86-.35 1.77-.6 2.71-.76.43-.06.86-.11 1.3-.13.23-.01.46-.02.69-.02s.46.01.69.02c.44.02.88.07 1.3.14.94.15 1.85.4 2.71.75 4.57 1.86 7.8 6.35 7.8 11.59z" fill="#9ed7ce"/><path d="m27.62 36.58c0 4.94-1.86 9.25-4.62 11.58-.86.35-1.77.61-2.72.76-.43.07-.86.12-1.31.14-.23.01-.46.02-.69.02s-.46 0-.69-.02c-.45-.02-.88-.07-1.31-.14-.95-.15-1.86-.41-2.72-.76-2.76-2.33-4.62-6.64-4.62-11.58s1.86-9.27 4.64-11.59c.86-.35 1.77-.6 2.71-.76.43-.06.86-.11 1.3-.13.23-.01.46-.02.69-.02s.46.01.69.02c.44.02.88.07 1.3.14.94.15 1.85.4 2.71.75 2.78 2.32 4.64 6.64 4.64 11.59z" fill="#f9e4c9"/><path d="m23.37 36.58c0 5.53-1.27 10.28-3.09 12.34-.43.07-.86.12-1.31.14-.23.01-.46.02-.69.02s-.46 0-.69-.02c-.45-.02-.88-.07-1.31-.14-1.82-2.06-3.09-6.81-3.09-12.34s1.28-10.31 3.1-12.35c.43-.06.86-.11 1.3-.13.23-.01.46-.02.69-.02s.46.01.69.02c.44.02.88.07 1.3.14 1.83 2.05 3.1 6.8 3.1 12.34z" fill="#9ed7ce"/><path d="m20.16 36.58c0 5.66-.49 10.51-1.19 12.48-.23.01-.46.02-.69.02s-.46 0-.69-.02c-.7-1.97-1.19-6.82-1.19-12.48s.49-10.52 1.19-12.48c.23-.01.46-.02.69-.02s.46.01.69.02c.7 1.96 1.19 6.81 1.19 12.48z" fill="#f9e4c9"/><path d="m46.56 37.06c-.28 0-.5-.22-.5-.5v-28.56c0-.28.22-.5.5-.5s.5.22.5.5v28.56c0 .28-.22.5-.5.5z" fill="#fbb039"/><path d="m46.56 34.66c.86 0 1.56.7 1.56 1.56v2.23h-3.13v-2.23c0-.86.7-1.56 1.56-1.56z" fill="#f78d1f"/><circle cx="46.56" cy="49.5" fill="#ccc" r="12.5"/><path d="m59.06 49.5c0 .84-.08 1.66-.24 2.46-1.14 5.72-6.19 10.04-12.26 10.04s-11.09-4.3-12.25-10c-.16-.81-.25-1.64-.25-2.5 0-2.19.56-4.24 1.55-6.03 2.13-3.86 6.24-6.47 10.95-6.47s8.78 2.59 10.91 6.41c1.02 1.8 1.59 3.88 1.59 6.09z" fill="#f57365"/><g fill="#f9e4c9"><path d="m56.89 42.44c-2.26 1.02-5.54 1.86-10.24 1.86s-8.09-.87-10.36-1.92c.2-.28.41-.56.62-.82 2.15.96 5.27 1.74 9.74 1.74s7.49-.75 9.62-1.68c.22.26.42.54.62.82z"/><path d="m57.95 54.67c-.25.56-.54 1.09-.87 1.6-2.26 1.05-5.6 1.94-10.43 1.94s-8.39-.95-10.66-2.06c-.33-.51-.62-1.06-.87-1.62 2.05 1.32 5.6 2.68 11.53 2.68s9.24-1.27 11.3-2.54z"/><path d="m46.56 44.96 1.8 3.64 4.01.58-2.91 2.83.69 3.99-3.59-1.89-3.58 1.89.68-3.99-2.9-2.83 4.01-.58z"/><path d="m40.27 47.71-3.36 2.25-.06 4.05-2.54-2.01c-.16-.81-.25-1.64-.25-2.5 0-2.19.56-4.24 1.55-6.03l.83 2.93z"/><path d="m59.06 49.5c0 .84-.08 1.66-.24 2.46l-2.6 2.05-.06-4.05-3.37-2.25 3.84-1.31.84-2.99c1.02 1.8 1.59 3.88 1.59 6.09z"/><path d="m29.41 19.28s4.49-1.23 5.71-5.71c1.22 4.48 5.71 5.71 5.71 5.71s-4.49 1.23-5.71 5.71c-1.22-4.48-5.71-5.71-5.71-5.71z"/><path d="m5.16 53.07s2.31-.63 2.94-2.94c.63 2.3 2.94 2.94 2.94 2.94s-2.31.63-2.94 2.94c-.63-2.3-2.94-2.94-2.94-2.94z"/><path d="m52.37 33.07s2.31-.63 2.94-2.94c.63 2.3 2.94 2.94 2.94 2.94s-2.31.63-2.94 2.94c-.63-2.3-2.94-2.94-2.94-2.94z"/></g></svg>