<svg id="Layer_1" viewBox="0 0 64 64" xmlns="http://www.w3.org/2000/svg" data-name="Layer 1"><path d="m23.12 16.2c-.28 0-.5-.22-.5-.5v-11.52c0-.28.22-.5.5-.5s.5.22.5.5v11.52c0 .28-.22.5-.5.5z" fill="#fbb039"/><path d="m24.09 19.18c-.15 0-.31-.07-.4-.21-.16-.22-.11-.54.11-.7.29-.21.47-.56.47-.93 0-.63-.51-1.15-1.15-1.15s-1.15.51-1.15 1.15c0 .37.17.71.47.93.22.16.27.48.11.7s-.48.27-.7.11c-.55-.4-.88-1.05-.88-1.73 0-1.18.96-2.15 2.15-2.15s2.15.96 2.15 2.15c0 .68-.33 1.33-.88 1.73-.09.06-.19.1-.29.1z" fill="#faa226"/><path d="m35.89 43.65c-.28 0-.5-.22-.5-.5v-38.97c0-.28.22-.5.5-.5s.5.22.5.5v38.97c0 .28-.22.5-.5.5z" fill="#fbb039"/><path d="m34.87 43.15h2.03c.55 0 1 .45 1 1v1.11h-4.03v-1.11c0-.55.45-1 1-1z" fill="#faa226"/><circle cx="35.89" cy="52.26" fill="#f57365" r="8.06"/><g><path d="m50.88 29.48c-1.22-2.18-2.99-2.99-2.99-2.99h-2.41s-1.76.81-2.98 2.98c-.64 1.15-1.14 2.7-1.14 4.72 0 1.45.33 2.84.83 4.12 1.5 3.85 4.5 6.66 4.5 6.66s3.02-2.8 4.51-6.66c.5-1.28.83-2.67.83-4.12 0-2.02-.49-3.55-1.14-4.71z" fill="#fbb039"/><path d="m47.6 25.67c-.1 0-.2-.03-.29-.09-.22-.16-.28-.47-.12-.7.08-.11.12-.23.12-.36 0-.34-.28-.62-.62-.62s-.62.28-.62.62c0 .13.04.26.12.36.16.22.11.54-.12.7-.22.16-.54.11-.7-.12-.2-.28-.3-.6-.3-.94 0-.89.73-1.62 1.62-1.62s1.62.73 1.62 1.62c0 .34-.1.67-.3.94-.1.14-.25.21-.41.21z" fill="#faa226"/><path d="m46.69 23.9c-.28 0-.5-.22-.5-.5v-19.21c0-.28.22-.5.5-.5s.5.22.5.5v19.21c0 .28-.22.5-.5.5z" fill="#fbb039"/><rect fill="#faa226" height="1.67" rx=".83" width="3.88" x="44.75" y="24.94"/></g><path d="m20.23 20.52v-1.37c0-.48.39-.88.88-.88h4.02c.48 0 .88.39.88.88v1.37" fill="#faa226"/><path d="m23.12 37.44c1.18-1.9 2.1-2.31 4.31-2.77 2.2-.45 6.44-1.86 6.44-6.7s-3.69-7.64-10.75-7.64-10.75 2.8-10.75 7.64 4.24 6.25 6.44 6.7 3.13.86 4.31 2.77z" fill="#9ed7ce"/><g fill="#f9e4c9"><path d="m12.37 44.21s4-1.1 5.09-5.09c1.09 3.99 5.09 5.09 5.09 5.09s-4 1.1-5.09 5.09c-1.09-3.99-5.09-5.09-5.09-5.09z"/><path d="m46.2 50.76s2.29-.63 2.91-2.91c.62 2.29 2.91 2.91 2.91 2.91s-2.29.63-2.91 2.91c-.62-2.29-2.91-2.91-2.91-2.91z"/><path d="m37.9 17.4s2.31-.63 2.94-2.94c.63 2.3 2.94 2.94 2.94 2.94s-2.31.63-2.94 2.94c-.63-2.3-2.94-2.94-2.94-2.94z"/></g></svg>