<svg id="Layer_1" viewBox="0 0 64 64" xmlns="http://www.w3.org/2000/svg" data-name="Layer 1"><g fill="#128c7f"><path d="m32 62.01c-.28 0-.5-.22-.5-.5-.07-19.89-1.17-39.73-3.27-58.97-.03-.27.17-.52.44-.55s.52.17.55.44c2.11 19.27 3.21 39.15 3.28 59.07 0 .28-.22.5-.5.5z"/><path d="m29.96 15.58c-.05 0-.11 0-.17-.03-.26-.09-.4-.38-.31-.64 1.15-3.27 3.82-5.52 3.94-5.61.21-.18.53-.15.7.07.18.21.15.53-.07.7-.03.02-2.58 2.16-3.63 5.17-.07.21-.27.33-.47.33z"/><path d="m29.96 15.58c-.18 0-.35-.09-.44-.26-1.54-2.79-4.45-4.38-4.48-4.39-.24-.13-.33-.43-.2-.68s.43-.34.68-.2c.13.07 3.19 1.74 4.88 4.79.13.24.05.55-.2.68-.08.04-.16.06-.24.06z"/><path d="m29.26 8.01c-.05 0-.11 0-.16-.03-.26-.09-.4-.37-.32-.63.74-2.2 2.5-3.73 2.58-3.79.21-.18.53-.15.7.06.18.21.15.53-.06.7-.02.01-1.63 1.41-2.28 3.35-.07.21-.27.34-.47.34z"/><path d="m29.26 8.01c-.17 0-.34-.09-.43-.25-1.01-1.77-2.89-2.76-2.91-2.77-.24-.13-.34-.43-.21-.67s.43-.34.67-.21c.09.05 2.15 1.13 3.31 3.16.14.24.05.54-.18.68-.08.04-.16.07-.25.07z"/><path d="m30.52 22.82c-.06 0-.12 0-.17-.03-.26-.1-.39-.38-.3-.64 1.51-4.12 4.93-6.92 5.07-7.04.21-.17.53-.14.7.07s.14.53-.07.7c-.03.03-3.34 2.75-4.76 6.61-.07.2-.27.33-.47.33z"/><path d="m30.52 22.82c-.18 0-.35-.1-.44-.26-1.94-3.62-5.66-5.7-5.7-5.72-.24-.13-.33-.44-.2-.68s.44-.33.68-.2c.16.09 4.01 2.24 6.09 6.13.13.24.04.55-.2.68-.08.04-.16.06-.24.06z"/><path d="m31.05 31c-.06 0-.12-.01-.18-.03-.26-.1-.39-.39-.29-.65 2.05-5.37 6.55-8.99 6.74-9.14.21-.17.53-.14.7.08s.14.53-.08.7c-.04.04-4.48 3.61-6.43 8.72-.08.2-.27.32-.47.32z"/><path d="m31.05 31c-.18 0-.35-.1-.44-.27-2.52-4.86-7.43-7.67-7.48-7.69-.24-.14-.33-.44-.19-.68s.44-.33.68-.19c.21.12 5.22 2.98 7.88 8.1.13.25.03.55-.21.67-.07.04-.15.06-.23.06z"/><path d="m31.54 40.83c-.06 0-.12-.01-.19-.04-.26-.1-.38-.39-.28-.65 2.83-7.06 8.85-11.81 9.11-12.01.22-.17.53-.13.7.09s.13.53-.09.7c-.06.05-6.07 4.79-8.8 11.59-.08.2-.27.31-.46.31z"/><path d="m31.54 40.83c-.18 0-.36-.1-.45-.28-3.28-6.57-9.82-10.41-9.89-10.44-.24-.14-.32-.44-.18-.68s.44-.32.68-.18c.28.16 6.87 4.01 10.28 10.86.12.25.02.55-.22.67-.07.04-.15.05-.22.05z"/><path d="m31.91 53.71c-.07 0-.13-.01-.2-.04-.25-.11-.37-.4-.26-.66 1.63-3.79 4.15-7.5 7.47-11.05 2.48-2.65 4.48-4.17 4.57-4.23.22-.16.53-.12.7.1s.12.53-.1.7c-.02.01-2.02 1.54-4.44 4.12-3.25 3.46-5.7 7.08-7.28 10.76-.08.19-.27.3-.46.3z"/><path d="m31.91 53.71c-.19 0-.37-.11-.45-.29-2.11-4.51-5.42-8.02-7.83-10.17-2.6-2.32-4.71-3.59-4.73-3.6-.24-.14-.31-.45-.17-.69s.45-.32.68-.17c.09.05 2.2 1.32 4.89 3.71 2.48 2.22 5.9 5.84 8.07 10.5.12.25 0 .55-.24.67-.07.03-.14.05-.21.05z"/></g></svg>