<svg id="Layer_1" viewBox="0 0 64 64" xmlns="http://www.w3.org/2000/svg" data-name="Layer 1"><g fill="#128c7f"><path d="m33.4 53.63s6.85-10.42 19.26-8.84c0 0-10.81 9.56-19.26 8.84z"/><path d="m33.4 53.63s-4.9-9.07-14.74-10.29c0 0 4.58 8.42 14.74 10.29z"/><path d="m32.1 62.5s-.06 0-.09 0c-.27-.05-.45-.31-.4-.58 3.99-21.43-.21-48.76-1.59-56.63-.05-.27.13-.53.41-.58.27-.05.53.13.58.41 1.39 7.91 5.61 35.39 1.59 56.98-.04.24-.25.41-.49.41z"/><path d="m32.28 17.91s-.05 0-.07 0c-5.75-.85-8.72-4.78-9.49-5.96-.15-.23-.08-.54.15-.69s.54-.09.69.15c.71 1.1 3.46 4.73 8.8 5.52.27.04.46.29.42.57-.04.25-.25.43-.49.43z"/><path d="m31.67 13.17c-.17 0-.33-.08-.43-.24-.14-.24-.07-.54.16-.69 2.95-1.82 4.33-5.27 4.89-7.16.08-.26.36-.42.62-.34.27.08.42.36.34.62-.6 2.03-2.09 5.74-5.33 7.73-.08.05-.17.07-.26.07z"/><path d="m33.77 43.83c-.05 0-.11 0-.16-.03-11.84-4.06-17.02-14.48-18.7-18.77-.1-.26.03-.55.28-.65s.55.03.65.28c1.63 4.16 6.65 14.27 18.09 18.19.26.09.4.37.31.63-.07.21-.26.34-.47.34z"/><path d="m17.26 32.33c-3.96 0-7.04-1.11-8.63-1.84-.25-.11-.36-.41-.25-.66.12-.25.41-.36.66-.25 1.74.79 5.33 2.07 9.94 1.67.27-.03.52.18.54.46.02.27-.18.52-.46.54-.62.05-1.22.08-1.81.08z"/><path d="m27.21 40.56s-.04 0-.06 0c-.27-.03-.47-.28-.44-.55.57-4.97-.79-9.4-1.65-11.59-.1-.26.02-.55.28-.65s.55.02.65.28c.9 2.28 2.32 6.88 1.72 12.08-.03.25-.25.44-.5.44z"/><path d="m33.77 34.27c-.2 0-.39-.12-.47-.32-.1-.26.03-.55.28-.65 11.11-4.36 15-14.88 16.15-19.19.07-.27.34-.42.61-.35s.42.35.35.61c-1.2 4.47-5.22 15.34-16.75 19.87-.06.02-.12.03-.18.03z"/><path d="m46.08 24.03c-.15 0-.3-.07-.4-.2-2.2-2.97-3-6.67-3.29-8.61-.04-.27.15-.53.42-.57s.53.15.57.42c.27 1.85 1.04 5.37 3.11 8.16.16.22.12.54-.1.7-.09.07-.19.1-.3.1z"/><path d="m40.1 30.64c-.27 0-.49-.21-.5-.48 0-.28.21-.51.48-.52.09 0 8.79-.32 14.41-4.91.21-.17.53-.14.7.07s.14.53-.07.7c-5.89 4.8-14.64 5.12-15.01 5.13h-.01z"/></g><g fill="#f14a3a"><circle cx="22.42" cy="10.22" r="1.61"/><path d="m22.42 12.33c-1.16 0-2.11-.95-2.11-2.11s.95-2.11 2.11-2.11 2.11.95 2.11 2.11-.95 2.11-2.11 2.11zm0-3.22c-.61 0-1.11.5-1.11 1.11s.5 1.11 1.11 1.11 1.11-.5 1.11-1.11-.5-1.11-1.11-1.11z"/></g><g fill="#f14a3a"><circle cx="14.83" cy="23.33" r="1.61"/><path d="m14.83 25.44c-1.16 0-2.11-.95-2.11-2.11s.95-2.11 2.11-2.11 2.11.95 2.11 2.11-.95 2.11-2.11 2.11zm0-3.22c-.61 0-1.11.5-1.11 1.11s.5 1.11 1.11 1.11 1.11-.5 1.11-1.11-.5-1.11-1.11-1.11z"/></g><g fill="#f14a3a"><circle cx="7.42" cy="29.29" r="1.61"/><path d="m7.42 31.4c-1.16 0-2.11-.95-2.11-2.11s.95-2.11 2.11-2.11 2.11.95 2.11 2.11-.95 2.11-2.11 2.11zm0-3.22c-.61 0-1.11.5-1.11 1.11s.5 1.11 1.11 1.11 1.11-.5 1.11-1.11-.5-1.11-1.11-1.11z"/></g><g fill="#f14a3a"><circle cx="24.88" cy="26.75" r="1.61"/><path d="m24.88 28.86c-1.16 0-2.11-.95-2.11-2.11s.95-2.11 2.11-2.11 2.11.95 2.11 2.11-.95 2.11-2.11 2.11zm0-3.22c-.61 0-1.11.5-1.11 1.11s.5 1.11 1.11 1.11 1.11-.5 1.11-1.11-.5-1.11-1.11-1.11z"/></g><g fill="#f14a3a"><circle cx="42.71" cy="13.54" r="1.61"/><path d="m42.71 15.65c-1.16 0-2.11-.95-2.11-2.11s.95-2.11 2.11-2.11 2.11.95 2.11 2.11-.95 2.11-2.11 2.11zm0-3.22c-.61 0-1.11.5-1.11 1.11s.5 1.11 1.11 1.11 1.11-.5 1.11-1.11-.5-1.11-1.11-1.11z"/></g><g fill="#f14a3a"><circle cx="50.58" cy="12.67" r="1.61"/><path d="m50.58 14.78c-1.16 0-2.11-.95-2.11-2.11s.95-2.11 2.11-2.11 2.11.95 2.11 2.11-.95 2.11-2.11 2.11zm0-3.22c-.61 0-1.11.5-1.11 1.11s.5 1.11 1.11 1.11 1.11-.5 1.11-1.11-.5-1.11-1.11-1.11z"/></g><g fill="#f14a3a"><circle cx="56" cy="24.04" r="1.61"/><path d="m56 26.15c-1.16 0-2.11-.95-2.11-2.11s.95-2.11 2.11-2.11 2.11.95 2.11 2.11-.95 2.11-2.11 2.11zm0-3.22c-.61 0-1.11.5-1.11 1.11s.5 1.11 1.11 1.11 1.11-.5 1.11-1.11-.5-1.11-1.11-1.11z"/></g><g fill="#f14a3a"><circle cx="37.04" cy="3.61" r="1.61"/><path d="m37.04 5.72c-1.16 0-2.11-.95-2.11-2.11s.95-2.11 2.11-2.11 2.11.95 2.11 2.11-.95 2.11-2.11 2.11zm0-3.22c-.61 0-1.11.5-1.11 1.11s.5 1.11 1.11 1.11 1.11-.5 1.11-1.11-.5-1.11-1.11-1.11z"/></g><g fill="#f14a3a"><circle cx="30.22" cy="3.61" r="1.61"/><path d="m30.22 5.72c-1.16 0-2.11-.95-2.11-2.11s.95-2.11 2.11-2.11 2.11.95 2.11 2.11-.95 2.11-2.11 2.11zm0-3.22c-.61 0-1.11.5-1.11 1.11s.5 1.11 1.11 1.11 1.11-.5 1.11-1.11-.5-1.11-1.11-1.11z"/></g></svg>