<svg id="Layer_1" viewBox="0 0 64 64" xmlns="http://www.w3.org/2000/svg" data-name="Layer 1"><g fill="#128c7f"><path d="m25.67 61.47c-.07 0-.13-.01-.2-.04-.25-.11-.37-.4-.26-.66 9.4-21.97 8.63-53.47 8.63-53.79 0-.28.21-.51.49-.51s.51.21.51.49c0 .32.78 32.03-8.71 54.21-.08.19-.27.3-.46.3z"/><path d="m34.37 17.31-.4-.92c6.01-2.59 8.38-8.94 8.4-9l.94.34c-.1.28-2.53 6.82-8.94 9.58z"/><path d="m34.06 17.33c-5.79-1.37-7.96-5.87-8.05-6.06l.9-.43s2.07 4.26 7.37 5.52l-.23.97z"/><path d="m32.23 36.1c-13.72-4.31-18.02-12.99-18.2-13.36l.9-.43c.04.09 4.31 8.66 17.6 12.84z"/><path d="m23.03 31.13-.95-.31c1.33-4.01.44-8.14.43-8.19l.98-.22c.04.18.96 4.43-.46 8.72z"/><path d="m19.14 31.7c-4.76 0-7.45-1.39-7.58-1.46l.47-.88s3.88 2 10.46 1.12l.13.99c-1.26.17-2.42.24-3.48.24z"/><path d="m33.19 30.5-.11-.99c.12-.01 11.85-1.44 17.65-8.77l.79.62c-6.06 7.66-17.82 9.09-18.32 9.15z"/><path d="m39.81 28.25c-.25-2.97.71-6.72 1.12-8.32l.98.21v.04c-.41 1.55-1.34 5.19-1.11 7.99l-1 .08z"/><path d="m49.42 27.41c-1.34 0-2.81-.26-4.52-.79l.29-.96c2.54.79 4.48.94 6.26.5l.24.97c-.73.18-1.48.27-2.28.27z"/><path d="m28.65 52.72c-7.56-2.07-13.34-8.87-14.43-10.21l.78-.63c1.05 1.3 6.65 7.89 13.91 9.88z"/><path d="m22.2 48.82-1-.09c.32-3.42-.11-6.52-.25-7.38l.99-.16c.15.9.6 4.1.26 7.64z"/><path d="m18.27 49.67c-3.29 0-6.06-.93-6.22-.98l.32-.95s4.92 1.64 9.2.54l.25.97c-1.19.31-2.4.42-3.56.42z"/><path d="m30.67 45.51-.04-1c.08 0 7.78-.37 12.44-3.44l.55.84c-4.89 3.22-12.62 3.59-12.94 3.6z"/><path d="m36.29 44.15c-.31-3.31.53-5.41.56-5.49l.93.38s-.78 1.97-.49 5.02z"/><path d="m43.7 47.64c-4.89-.37-7.2-3.1-7.3-3.21l.77-.64s2.16 2.52 6.6 2.85z"/></g><g fill="#f14a3a"><circle cx="34.36" cy="5" r="1.97"/><path d="m34.36 7.47c-1.36 0-2.47-1.11-2.47-2.47s1.11-2.47 2.47-2.47 2.47 1.11 2.47 2.47-1.11 2.47-2.47 2.47zm0-3.95c-.81 0-1.47.66-1.47 1.47s.66 1.47 1.47 1.47 1.47-.66 1.47-1.47-.66-1.47-1.47-1.47z"/></g><g fill="#f14a3a"><circle cx="43.07" cy="5.58" r="1.97"/><path d="m43.07 8.06c-1.36 0-2.47-1.11-2.47-2.47s1.11-2.47 2.47-2.47 2.47 1.11 2.47 2.47-1.11 2.47-2.47 2.47zm0-3.95c-.81 0-1.47.66-1.47 1.47s.66 1.47 1.47 1.47 1.47-.66 1.47-1.47-.66-1.47-1.47-1.47z"/></g><g fill="#f14a3a"><circle cx="52.04" cy="19.32" r="1.97"/><path d="m52.04 21.79c-1.36 0-2.47-1.11-2.47-2.47s1.11-2.47 2.47-2.47 2.47 1.11 2.47 2.47-1.11 2.47-2.47 2.47zm0-3.95c-.81 0-1.47.66-1.47 1.47s.66 1.47 1.47 1.47 1.47-.66 1.47-1.47-.66-1.47-1.47-1.47z"/></g><g fill="#f14a3a"><circle cx="41.82" cy="18.08" r="1.97"/><path d="m41.82 20.56c-1.36 0-2.47-1.11-2.47-2.47s1.11-2.47 2.47-2.47 2.47 1.11 2.47 2.47-1.11 2.47-2.47 2.47zm0-3.95c-.81 0-1.47.66-1.47 1.47s.66 1.47 1.47 1.47 1.47-.66 1.47-1.47-.66-1.47-1.47-1.47z"/></g><g fill="#f14a3a"><circle cx="53.48" cy="26.14" r="1.97"/><path d="m53.48 28.61c-1.36 0-2.47-1.11-2.47-2.47s1.11-2.47 2.47-2.47 2.47 1.11 2.47 2.47-1.11 2.47-2.47 2.47zm0-3.95c-.81 0-1.47.66-1.47 1.47s.66 1.47 1.47 1.47 1.47-.66 1.47-1.47-.66-1.47-1.47-1.47z"/></g><g fill="#f14a3a"><circle cx="25.67" cy="9.25" r="1.97"/><path d="m25.67 11.72c-1.36 0-2.47-1.11-2.47-2.47s1.11-2.47 2.47-2.47 2.47 1.11 2.47 2.47-1.11 2.47-2.47 2.47zm0-3.95c-.81 0-1.47.66-1.47 1.47s.66 1.47 1.47 1.47 1.47-.66 1.47-1.47-.66-1.47-1.47-1.47z"/></g><g fill="#f14a3a"><circle cx="13.77" cy="20.71" r="1.97"/><path d="m13.77 23.19c-1.36 0-2.47-1.11-2.47-2.47s1.11-2.47 2.47-2.47 2.47 1.11 2.47 2.47-1.11 2.47-2.47 2.47zm0-3.95c-.81 0-1.47.66-1.47 1.47s.66 1.47 1.47 1.47 1.47-.66 1.47-1.47-.66-1.47-1.47-1.47z"/></g><g fill="#f14a3a"><circle cx="22.79" cy="20.55" r="1.97"/><path d="m22.79 23.02c-1.36 0-2.47-1.11-2.47-2.47s1.11-2.47 2.47-2.47 2.47 1.11 2.47 2.47-1.11 2.47-2.47 2.47zm0-3.95c-.81 0-1.47.66-1.47 1.47s.66 1.47 1.47 1.47 1.47-.66 1.47-1.47-.66-1.47-1.47-1.47z"/></g><g fill="#f14a3a"><circle cx="10.56" cy="28.25" r="1.97"/><path d="m10.56 30.72c-1.36 0-2.47-1.11-2.47-2.47s1.11-2.47 2.47-2.47 2.47 1.11 2.47 2.47-1.11 2.47-2.47 2.47zm0-3.95c-.81 0-1.47.66-1.47 1.47s.66 1.47 1.47 1.47 1.47-.66 1.47-1.47-.66-1.47-1.47-1.47z"/></g><g fill="#f14a3a"><circle cx="13.57" cy="40.51" r="1.97"/><path d="m13.58 42.99c-1.36 0-2.47-1.11-2.47-2.47s1.11-2.47 2.47-2.47 2.47 1.11 2.47 2.47-1.11 2.47-2.47 2.47zm0-3.95c-.81 0-1.47.66-1.47 1.47s.66 1.47 1.47 1.47 1.47-.66 1.47-1.47-.66-1.47-1.47-1.47z"/></g><g fill="#f14a3a"><circle cx="20.96" cy="39.35" r="1.97"/><path d="m20.96 41.82c-1.36 0-2.47-1.11-2.47-2.47s1.11-2.47 2.47-2.47 2.47 1.11 2.47 2.47-1.11 2.47-2.47 2.47zm0-3.95c-.81 0-1.47.66-1.47 1.47s.66 1.47 1.47 1.47 1.47-.66 1.47-1.47-.66-1.47-1.47-1.47z"/></g><g fill="#f14a3a"><circle cx="45.05" cy="40.51" r="1.97"/><path d="m45.05 42.99c-1.36 0-2.47-1.11-2.47-2.47s1.11-2.47 2.47-2.47 2.47 1.11 2.47 2.47-1.11 2.47-2.47 2.47zm0-3.95c-.81 0-1.47.66-1.47 1.47s.66 1.47 1.47 1.47 1.47-.66 1.47-1.47-.66-1.47-1.47-1.47z"/></g><g fill="#f14a3a"><circle cx="38.1" cy="37.04" r="1.97"/><path d="m38.1 39.51c-1.36 0-2.47-1.11-2.47-2.47s1.11-2.47 2.47-2.47 2.47 1.11 2.47 2.47-1.11 2.47-2.47 2.47zm0-3.95c-.81 0-1.47.66-1.47 1.47s.66 1.47 1.47 1.47 1.47-.66 1.47-1.47-.66-1.47-1.47-1.47z"/></g><g fill="#f14a3a"><circle cx="45.71" cy="47.14" r="1.97"/><path d="m45.71 49.61c-1.36 0-2.47-1.11-2.47-2.47s1.11-2.47 2.47-2.47 2.47 1.11 2.47 2.47-1.11 2.47-2.47 2.47zm0-3.95c-.81 0-1.47.66-1.47 1.47s.66 1.47 1.47 1.47 1.47-.66 1.47-1.47-.66-1.47-1.47-1.47z"/></g><g fill="#f14a3a"><circle cx="10.52" cy="47.21" r="1.97"/><path d="m10.52 49.68c-1.36 0-2.47-1.11-2.47-2.47s1.11-2.47 2.47-2.47 2.47 1.11 2.47 2.47-1.11 2.47-2.47 2.47zm0-3.95c-.81 0-1.47.66-1.47 1.47s.66 1.47 1.47 1.47 1.47-.66 1.47-1.47-.66-1.47-1.47-1.47z"/></g></svg>