<svg id="Layer_1" viewBox="0 0 64 64" xmlns="http://www.w3.org/2000/svg" data-name="Layer 1"><g fill="#128c7f"><path d="m29.47 15.07c-.16 0-.31-.08-.41-.22-3-4.34-8.08-4.5-8.13-4.5-.28 0-.5-.23-.49-.51 0-.28.26-.5.51-.49.23 0 5.63.15 8.93 4.93.16.23.1.54-.13.7-.09.06-.19.09-.28.09z"/><path d="m29.59 15.87s-.09 0-.13-.02c-.27-.07-.42-.35-.35-.61 1.32-4.88 7.92-6.78 8.2-6.86.27-.08.54.08.62.35.07.27-.08.54-.35.62-.06.02-6.33 1.83-7.5 6.16-.06.22-.26.37-.48.37z"/><path d="m32.59 35.51c-6.02-5.47-11.22-5.77-11.44-5.78l-.05 1c.05 0 5.44.32 11.42 6.08l.69-.72c-.21-.2-.41-.39-.62-.58z"/><path d="m32.8 39.96.91.42c3.5-7.49 8.37-9.69 8.42-9.71l-.4-.92c-.21.09-5.27 2.37-8.93 10.2z"/><path d="m31.03 24.4s3.05-8.65 13.39-7.34c0 0-6.35 7.94-13.39 7.34z"/><path d="m34.32 48.93s-5.99-8.1-17.28-3.46c0 0 9.5 6.31 17.28 3.46z"/></g><g fill="#f14a3a"><circle cx="32" cy="4.48" r="1.97"/><path d="m32 6.96c-1.36 0-2.47-1.11-2.47-2.47s1.11-2.47 2.47-2.47 2.47 1.11 2.47 2.47-1.11 2.47-2.47 2.47zm0-3.95c-.81 0-1.47.66-1.47 1.47s.66 1.47 1.47 1.47 1.47-.66 1.47-1.47-.66-1.47-1.47-1.47z"/></g><g fill="#f14a3a"><circle cx="18.97" cy="9.51" r="1.97"/><path d="m18.97 11.98c-1.36 0-2.47-1.11-2.47-2.47s1.11-2.47 2.47-2.47 2.47 1.11 2.47 2.47-1.11 2.47-2.47 2.47zm0-3.95c-.81 0-1.47.66-1.47 1.47s.66 1.47 1.47 1.47 1.47-.66 1.47-1.47-.66-1.47-1.47-1.47z"/></g><g fill="#f14a3a"><circle cx="19.24" cy="30.82" r="1.97"/><path d="m21.07 32.49c-.92 1.01-2.48 1.08-3.49.17s-1.08-2.48-.17-3.49c.92-1.01 2.48-1.08 3.49-.17s1.08 2.48.17 3.49zm-.74-.67c.55-.6.5-1.53-.1-2.08s-1.53-.5-2.08.1-.5 1.53.1 2.08 1.53.5 2.08-.1z"/></g><g fill="#f14a3a"><circle cx="39.23" cy="8" r="1.97"/><path d="m39.23 10.47c-1.36 0-2.47-1.11-2.47-2.47s1.11-2.47 2.47-2.47 2.47 1.11 2.47 2.47-1.11 2.47-2.47 2.47zm0-3.95c-.81 0-1.47.66-1.47 1.47s.66 1.47 1.47 1.47 1.47-.66 1.47-1.47-.66-1.47-1.47-1.47z"/></g><path d="m34.95 60.31h-.02c-.28-.01-.49-.24-.48-.52.33-8.13-2.8-28.08-4.67-40-.67-4.27-1.15-7.35-1.23-8.32-.23-3.06 1.19-5.07 1.81-5.79.18-.21.5-.23.71-.05s.23.5.05.71c-.42.49-1.78 2.3-1.57 5.06.07.93.55 4 1.22 8.24 1.88 11.95 5.02 31.96 4.69 40.19-.01.27-.23.48-.5.48z" fill="#128c7f"/><path d="m16.25 20.77s3.83.77 7.4.53 6.76 1.41 7.38 3.19c0 0-5.6 2.22-9.9.69s-4.88-4.41-4.88-4.41z" fill="#128c7f"/><g fill="#f14a3a"><ellipse cx="43.89" cy="30.1" rx="1.96" ry="1.97" transform="matrix(.449 -.894 .894 .449 -2.7 55.82)"/><path d="m41.69 28.99c.29-.59.8-1.02 1.43-1.23.62-.21 1.29-.15 1.88.14.59.3 1.03.8 1.24 1.43s.16 1.29-.13 1.88c-.61 1.21-2.09 1.7-3.31 1.09-.97-.49-1.48-1.53-1.34-2.55.04-.26.11-.51.24-.76zm1.55 2.41c.72.36 1.61.07 1.97-.65.17-.35.2-.74.08-1.11s-.39-.67-.74-.85-.75-.21-1.12-.08c-.37.12-.67.38-.85.73-.36.72-.07 1.6.66 1.96z"/></g><path d="m34.36 48.94s2.9-8.72 13.03-9.05c0 0-3.03 7.94-13.03 9.05z" fill="#128c7f"/></svg>