<svg id="Layer_1" viewBox="0 0 64 64" xmlns="http://www.w3.org/2000/svg" data-name="Layer 1"><path d="m16.23 4.08s2.96 3 8.71 2.38c0 0 .04 4.21 3.62 5.46 0 0 .25 5.62 3.71 7.38 0 0-3.28 3.28-3.53 9.09 0 0-4.31-2.26-8.1-1.76 0 0 .29-5.46-4.67-7.29 0 0 1.71-4.33-1-7 0 0 2.25-5.12 1.25-8.25z" fill="#128c7f"/><path d="m35.52 33.57s.42-3.57-1.31-7.09c0 0 3.61-3 4.19-6.31 0 0 5.28.47 9.64-1.92 0 0-1.22 3.72.97 7.47 0 0-2.81.56-3.67 5.56 0 0-7.31.1-9.83 2.29z" fill="#128c7f"/><g fill="#056967"><path d="m31.02 60.42c-.05 0-.11 0-.16-.03-.26-.09-.4-.37-.32-.63 7.33-21.92-12.04-51.19-12.24-51.48-.15-.23-.09-.54.14-.69s.54-.09.69.14c.2.3 19.85 29.96 12.36 52.35-.07.21-.27.34-.47.34z"/><path d="m32.66 47.18c-.19 0-.37-.1-.45-.28-3.35-7.02-8.07-10.43-8.98-11.04-.23-.15-.29-.46-.14-.69s.47-.29.69-.14c.95.64 5.86 4.18 9.32 11.44.12.25.01.55-.24.67-.07.03-.14.05-.22.05z"/><path d="m32.2 41.54c-.05 0-.11 0-.17-.03-.26-.09-.4-.38-.31-.64 4.75-13.61 12.57-18.6 12.9-18.8.23-.14.54-.07.69.16s.07.54-.16.69c-.08.05-7.86 5.03-12.48 18.28-.07.21-.27.33-.47.33z"/><path d="m32.5 53.79c-.16 0-.32-.08-.42-.23-.15-.23-.09-.54.14-.69 3.3-2.16 5.31-4.94 6.21-6.4.15-.24.45-.31.69-.16.23.15.31.45.16.69-.95 1.53-3.05 4.44-6.52 6.71-.08.06-.18.08-.27.08z"/><path d="m30.01 42.63c-.06 0-.13-.01-.19-.04-1.62-.67-3.87-.63-5.51-.6h-.11c-.31.03-.5-.21-.51-.49s.22-.5.49-.51h.11c1.73-.03 4.1-.07 5.91.68.26.1.38.4.27.65-.08.19-.27.31-.46.31z"/></g><g fill="#f14a3a"><circle cx="22.03" cy="34.29" r="1.87"/><path d="m22.03 36.67c-1.31 0-2.38-1.07-2.38-2.38s1.07-2.38 2.38-2.38 2.38 1.07 2.38 2.38-1.07 2.38-2.38 2.38zm0-3.75c-.76 0-1.38.62-1.38 1.38s.62 1.38 1.38 1.38 1.38-.62 1.38-1.38-.62-1.38-1.38-1.38z"/></g><g fill="#f14a3a"><circle cx="22.31" cy="41.49" r="1.87"/><path d="m22.31 43.86c-1.31 0-2.38-1.07-2.38-2.38s1.07-2.38 2.38-2.38 2.38 1.07 2.38 2.38-1.07 2.38-2.38 2.38zm0-3.75c-.76 0-1.38.62-1.38 1.38s.62 1.38 1.38 1.38 1.38-.62 1.38-1.38-.62-1.38-1.38-1.38z"/></g><g fill="#f14a3a"><circle cx="39.31" cy="44.91" r="1.87"/><path d="m39.31 47.29c-1.31 0-2.38-1.07-2.38-2.38s1.07-2.38 2.38-2.38 2.38 1.07 2.38 2.38-1.07 2.38-2.38 2.38zm0-3.75c-.76 0-1.38.62-1.38 1.38s.62 1.38 1.38 1.38 1.38-.62 1.38-1.38-.62-1.38-1.38-1.38z"/></g></svg>