<svg id="Layer_1" viewBox="0 0 64 64" xmlns="http://www.w3.org/2000/svg" data-name="Layer 1"><g fill="#128c7f"><path d="m29.06 62.5s-.04 0-.06 0c-.27-.04-.47-.29-.43-.56.07-.54 1.7-13.31 3.75-19.59 3.44-10.57 1.39-22.67 1.37-22.8-.05-.27.13-.53.41-.58.27-.05.53.13.58.41.02.12 2.12 12.47-1.4 23.28-2.02 6.19-3.69 19.28-3.71 19.41-.03.25-.25.44-.5.44z"/><path d="m26.88 13.47s1.05 2.46 3.56 4.71 4.37 8.51 4.37 8.51-2.27-3.23-4.97-5.52-3.06-7.53-2.96-7.69z"/><path d="m23.61 23.62s2.2 2.53 5.02 3.61 5.89 6.82 5.89 6.82-6.73-2.35-9.12-5.62-1.79-4.8-1.79-4.8z"/><path d="m21.98 30.91s2.22 2.77 5.23 3.8 5.42 2.96 6.34 5.03c0 0-11.24-3.26-11.58-8.83z"/><path d="m20.6 35.64s2.25 2.55 5.42 4.09c3.18 1.54 5.04 4.46 5.69 6.77 0 0-1.31-1.85-4.13-3.17-2.82-1.31-7.15-5.07-6.98-7.69z"/><path d="m19.55 41.78s2.22 2.32 5.59 3.56 5.49 6.53 5.49 6.53-11.72-5.05-11.08-10.09z"/><path d="m18.57 48.67s2.44 2.99 6.21 4.28c3.78 1.29 4.98 4.11 4.98 4.11s-9.81-1.6-11.2-8.39z"/><path d="m42.49 12.72s-.52 1.4-2.33 2.98-4.8 5.56-5.5 8.23c0 0 2.2-.84 4.05-2.94s3.19-3.58 3.78-8.26z"/><path d="m34.81 29.84s.82-2.26 4.54-3.51 6.13-4.52 6.13-4.52.38 5.81-10.67 8.03z"/><path d="m44.88 26.86s-5.63 3.44-7.64 5.2-2.92 3.58-2.92 3.58 2.8-1.79 5.28-2.47 4.38-3.51 5.28-6.31z"/><path d="m32.67 42.85s2.4-3.57 5.37-4.91c2.96-1.34 6.43-4.35 6.43-4.35s-.25 3.97-4.87 5.81-6.93 3.45-6.93 3.45z"/><path d="m42.73 39.94s-1.42 1.96-4.15 3.39-5.98 2.29-7.1 4.24c0 0 1.29.78 3.49-.15s6.33-3.35 7.77-7.48z"/><path d="m30.16 54.54s3.27-3.08 6.94-3.73 5.96-1.89 5.96-1.89.19 2.75-3.18 3.75-5.84.59-9.72 1.86z"/><path d="m30.67 4.31s3.48 4.66 4.3 8.6-.49 8.81-.49 8.81-2.53-3.86-3.55-8.27-.26-9.14-.26-9.14z"/></g></svg>