<svg id="Layer_1" viewBox="0 0 64 64" xmlns="http://www.w3.org/2000/svg" data-name="Layer 1"><path d="m45.45 2s-3.17 1.81-7.2 1.84c0 0-.69 3.78-4.48 4.52 0 0 .72 4.08-1.08 5.47 0 0 2.55 2.76 2.45 4.81 0 0 2.42-.87 5.02 0 0 0 1.14-3.65 4.3-4.13 0 0-.3-4.19 1.94-5.32 0 0-2.15-3.66-.96-7.2z" fill="#128c7f"/><path d="m14.88 14.49s3.88 1.31 7.74.57c0 0 1.14 2.83 5.08 2.77 0 0-.24 3.66 2.57 4.64 0 0-1.49 2.73-.83 4.88 0 0-2.75-.56-4.93 1.16 0 0-1.52-2.41-4.93-1.93 0 0-.15-3.63-2.99-4.82 0 0 .63-5.21-1.7-7.26z" fill="#128c7f"/><path d="m12.97 45.16s3.71-.83 5.2-3.21c0 0 2.36 1.04 5.14-.15 0 0 1.64 2.56 4.21 2.71 0 0-.06 2.72 1.57 3.9 0 0-2.61 1.12-3.06 3.2 0 0-2.65-1.13-5 0 0 0-2.05-1.93-4.44-1.9 0 0-1.28-3.21-3.62-4.55z" fill="#128c7f"/><path d="m50.76 29.81s-4.15.03-6.9-2.02c0 0-1.46 2.35-5.83 2.02 0 0-.75 3.36-3.88 3.99 0 0 .64 3.45-.22 5.06 0 0 3.11.59 4.25 2.42 0 0 1.64-1.68 5.5-1.29 0 0 1.14-3.58 4.66-3.71 0 0 .42-5.1 2.42-6.46z" fill="#128c7f"/><g fill="#056967"><path d="m34.78 62.5c-.15 0-.29-.06-.39-.19-.13-.17-3.22-4.29-3.57-23.98-.36-19.72 12.19-33.93 12.32-34.08.19-.21.5-.22.71-.04s.22.5.04.71c-.12.14-12.41 14.07-12.06 33.39.35 19.17 3.33 23.34 3.36 23.38.17.22.13.53-.09.7-.09.07-.2.11-.31.11z"/><path d="m31.72 31.78c-.19 0-.37-.11-.46-.3-3.66-8.17-13.44-14.09-13.54-14.15-.24-.14-.31-.45-.17-.69s.45-.32.69-.17c.41.25 10.15 6.13 13.94 14.6.11.25 0 .55-.25.66-.07.03-.14.04-.2.04z"/><path d="m31.97 50.53c-.11 0-.22-.03-.31-.11-4.48-3.5-15.69-4.25-15.8-4.26-.28-.02-.48-.25-.47-.53.02-.28.26-.5.53-.47.47.03 11.63.78 16.35 4.47.22.17.26.48.09.7-.1.13-.25.19-.39.19z"/><path d="m31.39 41.78c-.12 0-.25-.04-.34-.14-.2-.19-.21-.5-.02-.71 7.13-7.61 16.97-10.12 17.06-10.15.27-.07.54.1.61.36.07.27-.1.54-.36.61-.1.02-9.65 2.48-16.58 9.86-.1.11-.23.16-.36.16z"/><path d="m31.53 44.83c-.2 0-.38-.12-.46-.31-1.67-4.02-5.25-7.69-5.28-7.72-.19-.2-.19-.51 0-.71.2-.19.51-.19.71 0 .15.15 3.75 3.83 5.49 8.04.11.25-.02.55-.27.65-.06.03-.13.04-.19.04z"/><path d="m31.51 33.68c-.06 0-.11 0-.17-.03-.26-.09-.4-.38-.31-.64 1.72-4.88 5.19-7.45 5.33-7.56.22-.16.53-.11.7.11.16.22.11.54-.11.7-.03.02-3.37 2.51-4.98 7.08-.07.21-.27.33-.47.33z"/><path d="m32.84 56.49s-.04 0-.06 0c-.27-.03-.47-.28-.44-.55.49-4.33 2.78-7.79 2.88-7.93.15-.23.46-.29.69-.14s.29.46.14.69c-.02.03-2.26 3.41-2.72 7.49-.03.26-.25.44-.5.44z"/></g><g fill="#f14a3a"><circle cx="24.96" cy="34.99" r="1.87"/><path d="m24.96 37.36c-1.31 0-2.38-1.07-2.38-2.38s1.07-2.38 2.38-2.38 2.38 1.07 2.38 2.38-1.07 2.38-2.38 2.38zm0-3.75c-.76 0-1.38.62-1.38 1.38s.62 1.38 1.38 1.38 1.38-.62 1.38-1.38-.62-1.38-1.38-1.38z"/></g><g fill="#f14a3a"><circle cx="38.24" cy="24.85" r="1.87"/><path d="m38.24 27.22c-1.31 0-2.38-1.07-2.38-2.38s1.07-2.38 2.38-2.38 2.38 1.07 2.38 2.38-1.07 2.38-2.38 2.38zm0-3.75c-.76 0-1.38.62-1.38 1.38s.62 1.38 1.38 1.38 1.38-.62 1.38-1.38-.62-1.38-1.38-1.38z"/></g><g fill="#f14a3a"><circle cx="36.66" cy="46.71" r="1.87"/><path d="m36.66 49.09c-1.31 0-2.38-1.07-2.38-2.38s1.07-2.38 2.38-2.38 2.38 1.07 2.38 2.38-1.07 2.38-2.38 2.38zm0-3.75c-.76 0-1.38.62-1.38 1.38s.62 1.38 1.38 1.38 1.38-.62 1.38-1.38-.62-1.38-1.38-1.38z"/></g></svg>