<svg id="Layer_1" viewBox="0 0 64 64" xmlns="http://www.w3.org/2000/svg" data-name="Layer 1"><g fill="#128c7f"><path d="m34.12 61.31c-.17 0-.34-.09-.43-.25-.11-.19-2.7-4.76-3.26-9.88-.32-2.93.69-5.92 1.67-8.8.76-2.25 1.48-4.38 1.53-6.32.06-2.51-.48-4.69-1.04-6.99-.45-1.82-.91-3.71-1.13-5.93-.52-5.11 1.2-8.55 1.27-8.69.12-.25.43-.34.67-.22.25.12.34.43.22.67-.02.03-1.65 3.34-1.17 8.14.22 2.15.67 4 1.11 5.79.58 2.37 1.13 4.61 1.07 7.25-.05 2.1-.79 4.3-1.58 6.62-.94 2.78-1.92 5.66-1.62 8.37.54 4.9 3.11 9.45 3.14 9.49.14.24.05.54-.19.68-.08.04-.16.07-.25.07z"/><path d="m45.57 9.51c.15-.09-6.85 1.9-8.59 5.86s-1.25 7.34-1.25 7.34 3.05-1.48 4.89-5.21 2.41-6.47 4.96-7.99z"/><path d="m33.1 28.13-.67-.75c1.78-1.58 3.22-5.95 3.23-5.99l.95.31c-.06.19-1.54 4.67-3.52 6.43z"/><path d="m31.52 22.61c-2.46-2.44-3.42-5.84-3.46-5.98l.96-.27s.93 3.29 3.2 5.54l-.71.71z"/><path d="m33.54 32.03c-3.11-.77-5.77-3.32-5.88-3.43l.7-.72s2.58 2.47 5.42 3.18z"/><path d="m34.42 35.86-.6-.8c2.56-1.92 3.67-4.6 3.68-4.62l.93.37c-.05.12-1.21 2.96-4.01 5.05z"/><path d="m31.36 45.1c-1.84-3.51-5.22-6.01-5.25-6.03l.59-.81c.15.11 3.6 2.65 5.55 6.38z"/><path d="m31.31 49.68-.86-.51c2.32-3.89 5.88-5.63 6.03-5.71l.44.9s-3.44 1.7-5.6 5.32z"/><path d="m31.29 54.86c-3.79-2.5-5.02-6.05-5.07-6.2l.95-.32s1.18 3.38 4.68 5.68l-.55.83z"/><path d="m32.87 56.95-1-.02c.05-3.1 2.58-5.72 2.69-5.83l.72.7s-2.36 2.46-2.41 5.15z"/><path d="m18.61 27.16s1.37 3.42 4.41 5.51 4.78 7.2 4.78 7.2-5.96-.35-8.01-4.16-1.18-8.56-1.18-8.56z"/><path d="m19.94 15.33s-.41 5.35 2.61 9.63 6.44 4.13 6.44 4.13 1.14-2.13-2.28-5.86-6.77-7.91-6.77-7.91z"/><path d="m37.57 2.69s-5 3.16-5.43 6.73.38 7.12.38 7.12 2.36-2.33 3.52-6.16c1.17-3.83 1.52-7.7 1.52-7.7z"/><path d="m35.18 44.87s-.25-3.07 3.42-5.68c3.68-2.61 5.55-4.49 6.52-6.34 0 0 .1 6.89-3.63 9.99s-6.31 2.03-6.31 2.03z"/></g><g fill="#f14a3a"><circle cx="28.09" cy="14.67" r="1.87"/><path d="m28.09 17.04c-1.31 0-2.38-1.07-2.38-2.38s1.07-2.38 2.38-2.38 2.38 1.07 2.38 2.38-1.07 2.38-2.38 2.38zm0-3.75c-.76 0-1.38.62-1.38 1.38s.62 1.38 1.38 1.38 1.38-.62 1.38-1.38-.62-1.38-1.38-1.38z"/></g><g fill="#f14a3a"><circle cx="38.74" cy="28.92" r="1.87"/><path d="m38.74 31.29c-1.31 0-2.38-1.07-2.38-2.38s1.07-2.38 2.38-2.38 2.38 1.07 2.38 2.38-1.07 2.38-2.38 2.38zm0-3.75c-.76 0-1.38.62-1.38 1.38s.62 1.38 1.38 1.38 1.38-.62 1.38-1.38-.62-1.38-1.38-1.38z"/></g><g fill="#f14a3a"><circle cx="26.05" cy="46.75" r="1.87"/><path d="m26.05 49.12c-1.31 0-2.38-1.07-2.38-2.38s1.07-2.38 2.38-2.38 2.38 1.07 2.38 2.38-1.07 2.38-2.38 2.38zm0-3.75c-.76 0-1.38.62-1.38 1.38s.62 1.38 1.38 1.38 1.38-.62 1.38-1.38-.62-1.38-1.38-1.38z"/></g><g fill="#f14a3a"><circle cx="36.32" cy="50.2" r="1.87"/><path d="m36.32 52.58c-1.31 0-2.38-1.07-2.38-2.38s1.07-2.38 2.38-2.38 2.38 1.07 2.38 2.38-1.07 2.38-2.38 2.38zm0-3.75c-.76 0-1.38.62-1.38 1.38s.62 1.38 1.38 1.38 1.38-.62 1.38-1.38-.62-1.38-1.38-1.38z"/></g></svg>