<svg id="Layer_1" viewBox="0 0 64 64" xmlns="http://www.w3.org/2000/svg" data-name="Layer 1"><g fill="#128c7f"><path d="m36.1 62.45c-.17 0-.34-.09-.43-.25-6.06-10.21-6.13-42.92-6.13-44.31 0-.28.22-.5.5-.5s.5.22.5.5c0 .34.07 33.82 5.99 43.8.14.24.06.54-.17.68-.08.05-.17.07-.25.07z"/><path d="m32.32 4.24s-2.63 3.05-3.13 7.99.63 7.91.63 7.91 3.06-3.72 3.75-7.71-1.25-8.18-1.25-8.18z"/><path d="m29.9 29.85c-.81-3.43-3.11-8.91-3.13-8.97l.92-.39c.1.23 2.35 5.61 3.18 9.12l-.97.23z"/><path d="m24.79 8.06s2.18 2.59 2.85 6.69.4 7.89.4 7.89-3.76-2.05-3.94-5.41c-.18-3.37.7-9.17.7-9.17z"/><path d="m30.21 34.67c-.8-1.95-3.19-4.57-3.22-4.6l.74-.68c.1.11 2.54 2.78 3.41 4.9z"/><path d="m19.15 19.37s5.85 2.97 7.37 5.6c1.52 2.64 1.67 5.73 1.67 5.73s-4.13-1.18-6.24-3.65-3.02-6.57-2.8-7.68z"/><path d="m19.85 29.24s3.02.69 5.54 2.88 3.27 5.1 3.27 5.1-3.82-.17-5.88-2.36-2.94-5.63-2.94-5.63z"/><path d="m30.72 40.37c-1.34-2.14-3.29-3.56-3.3-3.58l.58-.81c.09.06 2.12 1.54 3.57 3.86z"/><path d="m18.85 35.46s5.24.42 7.79 3.41c2.55 3 2.27 5.24 2.27 5.24s-5.63-1.5-7.54-3.72-2.52-4.94-2.52-4.94z"/><path d="m31.93 49.84c-1.38-3.38-4.32-6.43-4.35-6.46l.72-.7c.13.13 3.1 3.22 4.55 6.78l-.93.38z"/><path d="m39.45 11.99s.44 4.27-1.41 7.16c-1.86 2.88-5.71 3.99-5.71 3.99s1.02-2.41 1.31-4.49 3.62-6.1 5.81-6.66z"/><path d="m38.22 21.95s-3.24 2.19-4.68 5.41-1.55 5.23-1.55 5.23 3.6-.74 4.93-3.65 1.3-6.99 1.3-6.99z"/><path d="m39.79 27.58c-1.49.19-4.51 4.32-5.81 6.9-1.3 2.59-1.16 5.08-1.16 5.08s3.88-1.53 5.4-4.41 1.57-7.57 1.57-7.57z"/><path d="m41.13 36.95s-6.07 2.75-7.1 6.6-.64 4.91-.64 4.91 3.81-.67 5.37-3.63c1.56-2.97 2.36-7.88 2.36-7.88z"/><path d="m20.9 44.11s3.82 1 6.07 3.38c2.24 2.39 3.82 5.58 3.82 5.58s-4.7-.31-6.91-2.77-2.98-6.19-2.98-6.19z"/><path d="m33.27 55.86c-1.69-1.91-4.32-3.36-4.34-3.38l.48-.88c.11.06 2.81 1.55 4.61 3.59l-.75.66z"/><path d="m32.38 52.23c-.07-2.56 1.11-5.35 1.16-5.47l.92.39s-1.14 2.71-1.08 5.05z"/><path d="m31.86 42.56-.94-.33c.8-2.26 2.13-3.85 2.19-3.92l.76.65s-1.27 1.52-2.01 3.6z"/><path d="m31.15 34.97-.91-.41c.9-2 2.41-3.53 2.48-3.59l.71.71s-1.45 1.46-2.27 3.3z"/><path d="m30.74 27.43-.94-.33c1.31-3.69 3.21-5.86 3.29-5.95l.75.66s-1.85 2.13-3.09 5.62z"/></g></svg>