<svg id="Layer_1" viewBox="0 0 64 64" xmlns="http://www.w3.org/2000/svg" data-name="Layer 1"><g><path d="m21.07 20.73c-.28 0-.5-.22-.5-.5v-18.23c0-.28.22-.5.5-.5s.5.22.5.5v18.23c0 .28-.22.5-.5.5z" fill="#fbb039"/><path d="m21.07 18.33c.86 0 1.56.7 1.56 1.56v2.23h-3.13v-2.23c0-.86.7-1.56 1.56-1.56z" fill="#f78d1f"/><g><circle cx="21.07" cy="33.17" fill="#faa226" r="12.5"/><path d="m33.03 36.83c-.74 2.41-2.19 4.51-4.1 6.06-5.64-4.03-10.05-10.41-16.34-10.41-1.52 0-2.87.31-4.02.73v-.04c0-3.56 1.48-6.76 3.86-9.03.05-.01.11-.01.16-.01 7.73 0 12.63 9.64 20.44 12.7z" fill="#fbb039"/><path d="m33.57 33.17c0 .4-.02.8-.05 1.2-7.05-2.47-11.71-10.4-18-12.4.65-.33 1.33-.59 2.04-.8 5.33 2.83 9.71 9.37 16 11.54.01.15.01.31.01.46z" fill="#fbb039"/><path d="m27.11 44.12c-.41.22-.83.43-1.26.6-4.29-3.73-8.16-7.93-13.26-7.93-1.22 0-2.33.2-3.32.5-.18-.5-.32-1.01-.43-1.53 1.09-.38 2.35-.64 3.75-.64 5.6 0 9.71 5.05 14.52 9z" fill="#fbb039"/><g fill="#f9e4c9"><circle cx="21.07" cy="32" r="1"/><circle cx="16.83" cy="29.24" r="1"/><circle cx="12.07" cy="28.24" r="1"/><circle cx="24.65" cy="35.12" r="1"/><circle cx="28.44" cy="38.31" r="1"/></g></g></g><path d="m46.23 37.06c-.28 0-.5-.22-.5-.5v-34.56c0-.28.22-.5.5-.5s.5.22.5.5v34.56c0 .28-.22.5-.5.5z" fill="#fbb039"/><path d="m46.23 34.67c.86 0 1.56.7 1.56 1.56v2.23h-3.13v-2.23c0-.86.7-1.56 1.56-1.56z" fill="#f78d1f"/><path d="m58.73 49.5c0 1.84-.4 3.59-1.12 5.17-2.06 1.27-5.58 2.54-11.3 2.54s-9.48-1.36-11.53-2.68c-.67-1.54-1.05-3.24-1.05-5.03 0-2.64.82-5.1 2.22-7.12 2.27 1.05 5.59 1.92 10.36 1.92s7.98-.84 10.24-1.86c1.37 2.01 2.18 4.44 2.18 7.06z" fill="#ffa089"/><path d="m46.31 44.3c-4.77 0-8.09-.87-10.36-1.92.2-.28.41-.56.62-.82 2.3-2.78 5.77-4.56 9.66-4.56s7.41 1.8 9.7 4.62c.22.26.42.54.62.82-2.26 1.02-5.54 1.86-10.24 1.86z" fill="#f57365"/><path d="m57.61 54.67c-.1.22-.2.43-.31.64-.17.33-.36.65-.56.96-2.23 3.45-6.1 5.73-10.51 5.73s-8.37-2.34-10.58-5.85c-.16-.25-.32-.52-.46-.79-.14-.25-.26-.5-.38-.76-.01-.02-.02-.05-.03-.07 2.05 1.32 5.6 2.68 11.53 2.68s9.24-1.27 11.3-2.54z" fill="#f57365"/><path d="m56.55 42.44c-2.26 1.02-5.54 1.86-10.24 1.86s-8.09-.87-10.36-1.92c.2-.28.41-.56.62-.82 2.15.96 5.27 1.74 9.74 1.74s7.49-.75 9.62-1.68c.22.26.42.54.62.82z" fill="#f9e4c9"/><path d="m57.61 54.67c-.1.22-.2.43-.31.64-.17.33-.36.65-.56.96-2.26 1.05-5.6 1.94-10.43 1.94s-8.39-.95-10.66-2.06c-.16-.25-.32-.52-.46-.79-.14-.25-.26-.5-.38-.76-.01-.02-.02-.05-.03-.07 2.05 1.32 5.6 2.68 11.53 2.68s9.24-1.27 11.3-2.54z" fill="#f9e4c9"/><g fill="#f57365"><path d="m46.2 47.16-2.06 3.63 2.06 3.63 2.05-3.63z"/><path d="m52.07 46.65-1.57 3.87 2.51 3.33 1.57-3.87z"/><path d="m58.73 49.5c0 .86-.09 1.71-.26 2.52l-2.58-3.1 1.38-3.94 1 1.2c.3 1.06.46 2.17.46 3.32z"/><path d="m36.53 48.85-2.51 3.33v-.02c-.19-.86-.29-1.75-.29-2.66 0-1.25.18-2.46.54-3.6l.69-.92z"/><path d="m39.22 53.85-1.38-3.94 2.67-3.21 1.38 3.94z"/></g><g fill="#f9e4c9"><path d="m11.02 51.52c-.28 0-.5-.22-.5-.5v-1.58c0-.28.22-.5.5-.5s.5.22.5.5v1.58c0 .28-.22.5-.5.5z"/><path d="m9.86 52.68h-1.58c-.28 0-.5-.22-.5-.5s.22-.5.5-.5h1.58c.28 0 .5.22.5.5s-.22.5-.5.5z"/><path d="m11.02 55.41c-.28 0-.5-.22-.5-.5v-1.58c0-.28.22-.5.5-.5s.5.22.5.5v1.58c0 .28-.22.5-.5.5z"/><path d="m13.75 52.68h-1.58c-.28 0-.5-.22-.5-.5s.22-.5.5-.5h1.58c.28 0 .5.22.5.5s-.22.5-.5.5z"/></g><g fill="#f9e4c9"><path d="m39.86 14.74c-.28 0-.5-.22-.5-.5v-1.58c0-.28.22-.5.5-.5s.5.22.5.5v1.58c0 .28-.22.5-.5.5z"/><path d="m38.71 15.89h-1.58c-.28 0-.5-.22-.5-.5s.22-.5.5-.5h1.58c.28 0 .5.22.5.5s-.22.5-.5.5z"/><path d="m39.86 18.63c-.28 0-.5-.22-.5-.5v-1.58c0-.28.22-.5.5-.5s.5.22.5.5v1.58c0 .28-.22.5-.5.5z"/><path d="m42.6 15.89h-1.58c-.28 0-.5-.22-.5-.5s.22-.5.5-.5h1.58c.28 0 .5.22.5.5s-.22.5-.5.5z"/></g><g fill="#f9e4c9"><path d="m7.19 18.63c-.28 0-.5-.22-.5-.5v-1.58c0-.28.22-.5.5-.5s.5.22.5.5v1.58c0 .28-.22.5-.5.5z"/><path d="m6.04 19.78h-1.58c-.28 0-.5-.22-.5-.5s.22-.5.5-.5h1.58c.28 0 .5.22.5.5s-.22.5-.5.5z"/><path d="m7.19 22.52c-.28 0-.5-.22-.5-.5v-1.58c0-.28.22-.5.5-.5s.5.22.5.5v1.58c0 .28-.22.5-.5.5z"/><path d="m9.93 19.78h-1.58c-.28 0-.5-.22-.5-.5s.22-.5.5-.5h1.58c.28 0 .5.22.5.5s-.22.5-.5.5z"/></g><g fill="#f9e4c9"><path d="m55.19 31.35c-.28 0-.5-.22-.5-.5v-1.58c0-.28.22-.5.5-.5s.5.22.5.5v1.58c0 .28-.22.5-.5.5z"/><path d="m54.04 32.5h-1.58c-.28 0-.5-.22-.5-.5s.22-.5.5-.5h1.58c.28 0 .5.22.5.5s-.22.5-.5.5z"/><path d="m55.19 35.23c-.28 0-.5-.22-.5-.5v-1.58c0-.28.22-.5.5-.5s.5.22.5.5v1.58c0 .28-.22.5-.5.5z"/><path d="m57.93 32.5h-1.58c-.28 0-.5-.22-.5-.5s.22-.5.5-.5h1.58c.28 0 .5.22.5.5s-.22.5-.5.5z"/></g></svg>