<svg id="Layer_1" viewBox="0 0 64 64" xmlns="http://www.w3.org/2000/svg" data-name="Layer 1"><g fill="#128c7f"><g><path d="m35.01 16.36s1.63-5.68-.72-10.42c-2.35-4.73-5.29-4.21-6.63-3.43s-.65 5.22 2.22 7.71c2.87 2.48 5.13 6.14 5.13 6.14z"/><path d="m35.01 16.86c-.17 0-.33-.09-.43-.24-.02-.04-2.25-3.62-5.03-6.02-2.2-1.9-3.2-4.91-3.03-6.78.08-.84.38-1.44.89-1.74.48-.28 1.75-.88 3.31-.41s2.92 1.83 4.02 4.04c2.41 4.85.82 10.54.75 10.78-.05.19-.22.33-.41.36-.02 0-.05 0-.07 0zm-5.46-14.36c-.77 0-1.37.29-1.63.44-.2.12-.35.48-.4.97-.15 1.64.81 4.31 2.69 5.93 2 1.72 3.68 3.97 4.56 5.25.33-1.85.7-5.66-.93-8.93-.97-1.96-2.12-3.15-3.41-3.53-.31-.09-.61-.13-.89-.13z"/></g><path d="m27.86 62.5c-.2 0-.39-.12-.47-.32-2.92-7.64 1.2-24.37 4.33-30.57 3.04-6.01 2.79-15.14 2.79-15.23 0-.28.21-.51.48-.52.27 0 .51.21.52.48.01.38.26 9.47-2.89 15.72-3.06 6.06-7.12 22.37-4.29 29.76.1.26-.03.55-.29.65-.06.02-.12.03-.18.03z"/><g><path d="m22.04 16.36c-2.24 1.8.26 5.19 4.15 8.78s4.38 5.52 4.38 5.52.39-5.81-2.02-10.32c-2.42-4.51-5-5.19-6.5-3.98z"/><path d="m30.57 31.16c-.23 0-.43-.15-.48-.38 0-.01-.55-1.87-4.23-5.27-3.58-3.31-5.21-5.7-5.15-7.55.03-.79.37-1.46 1.03-1.99.69-.56 1.53-.75 2.43-.57 1.18.24 2.97 1.25 4.82 4.71 2.46 4.58 2.1 10.34 2.08 10.59s-.21.44-.45.46c-.01 0-.03 0-.04 0zm-8.21-14.41c-.42.34-.64.75-.66 1.25-.05 1.49 1.57 3.77 4.83 6.78 1.78 1.65 2.87 2.96 3.53 3.92-.09-2.05-.48-5.36-1.96-8.12-1.76-3.28-3.35-4.04-4.14-4.2-.6-.12-1.15 0-1.6.37z"/></g><path d="m31.42 33.96c-.13 0-.25-.05-.35-.14-.84-.83-.99-2.9-1-3.13-.02-.28.19-.51.47-.53.27-.02.51.19.53.47.04.73.27 2.06.7 2.48.2.19.2.51 0 .71-.1.1-.23.15-.36.15z"/><g><path d="m36.15 25.76s2.61-2.32 3.53-7.18c.91-4.86 2.15-6.82 4.6-6.46s2.61 6.04-.85 9.57-7.28 4.08-7.28 4.08z"/><path d="m36.15 26.26c-.19 0-.37-.11-.45-.29-.09-.2-.04-.44.12-.58.03-.02 2.5-2.28 3.37-6.9.84-4.45 2.03-7.33 5.17-6.87.89.13 1.58.8 1.95 1.88.73 2.16.09 5.88-2.51 8.53-3.54 3.6-7.4 4.2-7.57 4.23-.02 0-.05 0-.07 0zm7.57-13.69c-1.5 0-2.64 1.22-3.55 6.1-.55 2.94-1.7 4.98-2.57 6.18 1.38-.49 3.5-1.5 5.48-3.52 2.24-2.28 2.92-5.61 2.28-7.51-.17-.5-.5-1.12-1.14-1.21-.17-.02-.33-.04-.49-.04z"/></g><path d="m33.9 27.42c-.21 0-.41-.14-.48-.35-.08-.26.07-.54.33-.62 1.02-.31 2.09-1.08 2.1-1.09.22-.16.53-.11.7.11.16.22.11.54-.11.7-.05.04-1.21.87-2.39 1.24-.05.01-.1.02-.15.02z"/><g><path d="m18.77 34.99c-2.36 1.71.71 5.31 2.99 7.13 2.28 1.81 3.97 4.8 3.97 4.8s.56-3.09-.78-6.88c-1.35-3.8-4.38-6.34-6.17-5.04z"/><path d="m25.73 47.42c-.18 0-.35-.1-.44-.25-.02-.03-1.67-2.93-3.84-4.65-1.88-1.5-4.07-3.96-4.02-5.97.02-.79.38-1.47 1.05-1.96.63-.45 1.4-.56 2.23-.3 1.83.57 3.72 2.81 4.71 5.58 1.38 3.88.83 7.01.8 7.14-.04.21-.2.37-.41.4-.03 0-.06 0-.08 0zm-5.88-12.27c-.29 0-.55.08-.78.25-.42.31-.63.69-.64 1.17-.03 1.53 1.87 3.74 3.65 5.16 1.38 1.1 2.54 2.59 3.27 3.65.01-1.22-.13-3.09-.87-5.17-.87-2.45-2.54-4.49-4.06-4.96-.2-.06-.39-.09-.57-.09z"/></g><path d="m27.05 52.07c-.25 0-.46-.18-.5-.43-.28-2.11-1.28-4.5-1.29-4.53-.11-.25.01-.55.27-.66.25-.1.55.01.66.27.04.1 1.07 2.55 1.36 4.79.04.27-.16.53-.43.56-.02 0-.04 0-.07 0z"/><g><path d="m31.8 40.5s2.08-.98 3.58-4.46c1.49-3.48 4.92-4.75 6.86-1.89 1.93 2.86-6 6.73-10.43 6.34z"/><path d="m32.46 41.03c-.24 0-.48 0-.71-.03-.23-.02-.41-.19-.45-.41s.07-.44.28-.54c.02 0 1.94-.97 3.33-4.2.92-2.15 2.58-3.59 4.33-3.75 1.33-.12 2.54.51 3.4 1.78.52.77.51 1.65-.01 2.54-1.39 2.36-6.48 4.61-10.17 4.61zm7.1-7.95c-.08 0-.16 0-.24.01-1.36.13-2.73 1.37-3.5 3.15-.79 1.85-1.75 3.03-2.51 3.74 3.22-.31 7.35-2.21 8.45-4.07.33-.55.34-1.03.04-1.47-.6-.89-1.38-1.36-2.25-1.36z"/></g><path d="m28.63 42.79c-.14 0-.28-.06-.38-.17-.18-.21-.16-.52.04-.71 1.22-1.07 3.24-1.85 3.32-1.88.26-.1.55.03.64.29.1.26-.03.55-.29.64-.02 0-1.94.75-3.02 1.7-.1.08-.21.12-.33.12z"/><g><path d="m29.74 54.41s1.89-1.84 3.33-4.87c1.44-3.04 5.22-3.94 6.83-2.42s-.39 5.14-3.53 6.29c-3.13 1.15-6.64 1-6.64 1z"/><path d="m30.17 54.92c-.26 0-.42 0-.45 0-.2 0-.38-.13-.45-.32s-.03-.4.12-.54c.02-.02 1.84-1.82 3.23-4.73.82-1.72 2.46-3 4.29-3.34 1.33-.25 2.54.03 3.33.77.63.59.86 1.47.66 2.47-.39 1.91-2.22 3.87-4.35 4.65-2.56.94-5.32 1.04-6.38 1.04zm7.68-8.03c-.24 0-.49.02-.75.07-1.19.23-2.76 1.08-3.58 2.79-.89 1.88-1.95 3.31-2.65 4.15 1.26-.05 3.38-.25 5.33-.96 2.05-.75 3.45-2.58 3.72-3.91.09-.46.11-1.1-.36-1.54-.41-.39-1.01-.59-1.71-.59z"/></g><path d="m26.89 56.67c-.14 0-.29-.06-.38-.18-.18-.21-.15-.53.06-.71 1.27-1.06 2.9-1.8 2.97-1.83.25-.11.55 0 .66.25s0 .55-.25.66c-.02 0-1.58.72-2.74 1.69-.09.08-.21.12-.32.12z"/></g></svg>