<svg id="Layer_1" viewBox="0 0 64 64" xmlns="http://www.w3.org/2000/svg" data-name="Layer 1"><g fill="#128c7f"><path d="m17.11 20.37s3.32 1.27 6.95 0c0 0 1.7 1.94 4.72 2.03 0 0 .41 3.01 2.68 4.23 0 0-1.36 2.28-.38 4.03 0 0-2.69.08-3.97 1.78 0 0-1.92-2.14-4.53-2.11 0 0-1.05-2.62-3.23-3.6 0 0 .43-3.02-2.24-6.37z"/><path d="m52.52 33.47s-4.15.03-6.9-2.02c0 0-1.46 2.35-5.83 2.02 0 0-.75 3.36-3.88 3.99 0 0 .64 3.45-.22 5.06 0 0 3.11.59 4.25 2.42 0 0 1.64-1.68 5.5-1.29 0 0 1.14-3.58 4.66-3.71 0 0 .42-5.1 2.42-6.46z"/><path d="m11.48 46.03s4.19-.94 5.88-3.63c0 0 2.67 1.18 5.81-.17 0 0 1.86 2.89 4.76 3.06 0 0-.07 3.08 1.77 4.41 0 0-2.95 1.27-3.46 3.62 0 0-2.99-1.28-5.65 0 0 0-2.32-2.19-5.02-2.15 0 0-1.45-3.63-4.09-5.14z"/></g><path d="m33.34 61.47c-.26 0-.48-.2-.5-.46-2.01-26.15 4.71-53.93 4.78-54.21.07-.27.33-.43.6-.37.27.07.43.34.37.6-.07.28-6.75 27.91-4.75 53.9.02.28-.18.52-.46.54-.01 0-.03 0-.04 0z" fill="#056967"/><path d="m35.63 20.18c-.23 0-.44-.17-.49-.4-.83-4.21-3.32-7.57-4.35-8.82-.18-.21-.15-.53.07-.7.21-.18.53-.15.7.07 1.08 1.31 3.69 4.83 4.57 9.26.05.27-.12.53-.39.59-.03 0-.07 0-.1 0z" fill="#056967"/><path d="m34.83 25.57c-.06 0-.12-.01-.18-.03-.26-.1-.39-.39-.29-.65 2.62-6.81 7.48-10.91 9.45-12.35.22-.16.53-.12.7.11.16.22.12.54-.11.7-1.9 1.39-6.58 5.34-9.1 11.91-.08.2-.27.32-.47.32z" fill="#056967"/><g fill="#f14a3a"><circle cx="38.57" cy="5" r="1.97"/><path d="m38.57 7.47c-1.36 0-2.47-1.11-2.47-2.47s1.11-2.47 2.47-2.47 2.47 1.11 2.47 2.47-1.11 2.47-2.47 2.47zm0-3.95c-.81 0-1.47.66-1.47 1.47s.66 1.47 1.47 1.47 1.47-.66 1.47-1.47-.66-1.47-1.47-1.47z"/></g><g fill="#f14a3a"><circle cx="30.26" cy="8.89" r="1.97"/><path d="m30.26 11.36c-1.36 0-2.47-1.11-2.47-2.47s1.11-2.47 2.47-2.47 2.47 1.11 2.47 2.47-1.11 2.47-2.47 2.47zm0-3.95c-.81 0-1.47.66-1.47 1.47s.66 1.47 1.47 1.47 1.47-.66 1.47-1.47-.66-1.47-1.47-1.47z"/></g><g fill="#f14a3a"><circle cx="45.64" cy="11.7" r="1.97"/><path d="m45.64 14.18c-1.36 0-2.47-1.11-2.47-2.47s1.11-2.47 2.47-2.47 2.47 1.11 2.47 2.47-1.11 2.47-2.47 2.47zm0-3.95c-.81 0-1.47.66-1.47 1.47s.66 1.47 1.47 1.47 1.47-.66 1.47-1.47-.66-1.47-1.47-1.47z"/></g><path d="m33.77 34.74c-.17 0-.35-.09-.44-.26-3.46-6.21-13.03-11.2-13.13-11.25-.25-.13-.34-.43-.21-.67.13-.25.43-.34.67-.21.4.21 9.94 5.18 13.54 11.66.13.24.05.55-.19.68-.08.04-.16.06-.24.06z" fill="#056967"/><path d="m33.07 45.49c-.12 0-.25-.04-.34-.14-.2-.19-.21-.5-.02-.71 7.13-7.61 17.04-10.18 17.14-10.2.27-.07.54.09.61.36s-.09.54-.36.61c-.1.02-9.73 2.53-16.66 9.92-.1.11-.23.16-.36.16z" fill="#056967"/><path d="m32.96 52.04c-.11 0-.22-.03-.31-.11-5.08-3.97-17.77-4.82-17.89-4.83-.28-.02-.49-.25-.47-.53s.24-.49.53-.47c.53.03 13.12.88 18.45 5.04.22.17.26.48.09.7-.1.13-.25.19-.39.19z" fill="#056967"/></svg>