<svg id="Layer_1" viewBox="0 0 64 64" xmlns="http://www.w3.org/2000/svg" data-name="Layer 1"><g fill="#128c7f"><path d="m43.77 2s-3.17 1.81-7.2 1.84c0 0-.69 3.78-4.48 4.52 0 0 .72 4.08-1.08 5.47 0 0 2.55 2.76 2.45 4.81 0 0 2.42-.87 5.02 0 0 0 1.14-3.65 4.3-4.13 0 0-.3-4.19 1.94-5.32 0 0-2.15-3.66-.96-7.2z"/><path d="m12.74 22.77s3.88 1.31 7.74.57c0 0 1.14 2.83 5.08 2.77 0 0-.24 3.66 2.57 4.64 0 0-1.34 2.9-.69 5.05 0 0-2.9-.74-5.08.99 0 0-1.52-2.41-4.93-1.93 0 0-.15-3.63-2.99-4.82 0 0 .63-5.21-1.7-7.26z"/><path d="m52.38 22.07s-4.08-.38-7.3-2.62c0 0-2.18 2.12-5.77.47 0 0-1.27 3.44-4.23 3.2 0 0 .12 3.23-1.35 4.92 0 0 2.88.48 4.17 2.94 0 0 2.37-1.58 5.29.23 0 0 1.61-3.26 4.69-3.19 0 0 1.54-5.01 4.5-5.94z"/><path d="m11.62 48.29s3.71-.83 5.2-3.21c0 0 2.36 1.04 5.14-.15 0 0 1.64 2.56 4.21 2.71 0 0-.06 2.79 1.57 3.97 0 0-2.61 1.05-3.06 3.14 0 0-2.65-1.13-5 0 0 0-2.05-1.93-4.44-1.9 0 0-1.28-3.21-3.62-4.55z"/><path d="m49.51 36.46s-4.15.03-6.9-2.02c0 0-1.46 2.35-5.83 2.02 0 0-.75 3.36-3.88 3.99 0 0 .59 3.51-.27 5.11 0 0 3.17.54 4.3 2.37 0 0 1.64-1.68 5.5-1.29 0 0 1.14-3.58 4.66-3.71 0 0 .42-5.1 2.42-6.46z"/></g><path d="m33.1 62.5c-.15 0-.29-.06-.39-.19-.13-.17-3.22-4.29-3.58-23.98-.36-19.72 12.19-33.93 12.32-34.08.19-.21.5-.22.71-.04s.22.5.04.71c-.12.14-12.41 14.07-12.06 33.39.35 19.17 3.33 23.34 3.36 23.38.17.22.12.53-.09.7-.09.07-.2.11-.31.11z" fill="#056967"/><path d="m29.67 40.14c-.19 0-.37-.11-.46-.3-3.67-8.18-13.52-14.18-13.62-14.24-.24-.14-.31-.45-.17-.69s.45-.31.69-.17c.42.25 10.23 6.22 14.02 14.68.11.25 0 .55-.25.66-.07.03-.14.04-.2.04z" fill="#056967"/><path d="m30.14 31.15c-.14 0-.27-.06-.37-.17-.18-.21-.17-.52.04-.71 6.9-6.2 18.21-7.7 18.69-7.77.27-.04.52.16.56.43s-.16.52-.43.56c-.11.01-11.49 1.53-18.15 7.52-.1.09-.21.13-.33.13z" fill="#056967"/><path d="m30.7 53.77c-.11 0-.22-.03-.31-.11-4.48-3.5-14.43-4.03-14.53-4.04-.28-.01-.49-.25-.47-.52.01-.28.25-.5.52-.47.42.02 10.37.55 15.1 4.25.22.17.26.48.09.7-.1.13-.25.19-.39.19z" fill="#056967"/><path d="m30.1 48.46c-.12 0-.25-.04-.34-.14-.2-.19-.21-.5-.02-.71 7.13-7.61 17-10.16 17.1-10.19.27-.07.54.09.61.36s-.09.54-.36.61c-.1.02-9.69 2.52-16.61 9.9-.1.11-.23.16-.36.16z" fill="#056967"/></svg>