<svg id="Layer_1" viewBox="0 0 64 64" xmlns="http://www.w3.org/2000/svg" data-name="Layer 1"><g fill="#128c7f"><path d="m29.5 62.5s-.07 0-.11-.01c-.27-.06-.44-.33-.38-.6.03-.12 2.81-12.51 2.7-23.34-.11-10.84-5.37-36.19-5.42-36.45-.06-.27.12-.54.39-.59.27-.06.54.12.59.39.05.25 5.33 25.7 5.44 36.64.11 10.95-2.7 23.45-2.73 23.57-.05.23-.26.39-.49.39z"/><path d="m28.61 11.89c-.19 0-.38-.11-.46-.3-1.44-3.32-4.16-5.38-4.19-5.4-.22-.17-.27-.48-.1-.7s.48-.27.7-.1c.12.09 2.96 2.24 4.51 5.8.11.25 0 .55-.26.66-.06.03-.13.04-.2.04z"/><path d="m28.49 11.23s-.02 0-.03 0c-.28-.02-.48-.26-.47-.53.21-3.28 1.5-6.83 1.56-6.98.1-.26.38-.39.64-.3.26.1.39.38.3.64-.01.04-1.3 3.56-1.5 6.7-.02.26-.24.47-.5.47z"/><path d="m29.18 15.05c-.17 0-.34-.09-.43-.25-1.38-2.42-5.82-5.14-5.86-5.17-.24-.14-.31-.45-.17-.69s.45-.31.69-.17c.19.12 4.7 2.89 6.21 5.53.14.24.05.55-.19.68-.08.04-.16.07-.25.07z"/><path d="m29.25 15.45c-.27 0-.5-.22-.5-.5-.03-3.47 2.95-7.32 3.07-7.48.17-.22.48-.26.7-.09s.26.48.09.7c-.03.04-2.89 3.74-2.86 6.86 0 .28-.22.5-.5.5z"/><path d="m29.76 18.37c-.14 0-.28-.06-.38-.17-2.34-2.73-6.36-4.26-6.4-4.27-.26-.1-.39-.39-.29-.64.1-.26.38-.39.64-.29.17.07 4.3 1.63 6.81 4.56.18.21.16.53-.05.71-.09.08-.21.12-.33.12z"/><path d="m29.83 18.84s-.06 0-.09 0c-.27-.05-.45-.31-.4-.58.71-3.91 4.82-7.88 5-8.04.2-.19.52-.18.71.02s.18.52-.02.71c-.04.04-4.06 3.91-4.71 7.5-.04.24-.25.41-.49.41z"/><path d="m30.32 21.82c-.14 0-.28-.06-.38-.17-2.09-2.43-5.83-3.98-5.87-3.99-.26-.1-.38-.4-.27-.65.1-.25.4-.38.65-.27.16.07 4 1.65 6.25 4.27.18.21.16.53-.05.71-.09.08-.21.12-.33.12z"/><path d="m30.5 22.93s-.03 0-.04 0c-.28-.02-.48-.26-.46-.54.27-3.24 3.9-7.2 4.05-7.37.19-.2.5-.21.71-.03s.22.5.03.71c-.04.04-3.55 3.88-3.79 6.77-.02.26-.24.46-.5.46z"/><path d="m31.08 26.87c-.16 0-.31-.08-.41-.21-2.19-3.15-9.13-6.92-9.2-6.96-.24-.13-.33-.43-.2-.68.13-.24.43-.33.68-.2.29.16 7.22 3.92 9.54 7.27.16.23.1.54-.13.7-.09.06-.19.09-.28.09z"/><path d="m31.27 28.28s-.03 0-.05 0c-.27-.03-.48-.27-.45-.55.64-6.3 7.32-12.37 7.6-12.63.21-.19.52-.17.71.04.18.21.17.52-.04.71-.07.06-6.67 6.07-7.27 11.99-.03.26-.24.45-.5.45z"/><path d="m31.57 30.66c-.17 0-.33-.08-.43-.24-1.51-2.44-5.52-4.84-5.56-4.87-.24-.14-.31-.45-.17-.69s.45-.32.69-.17c.17.1 4.26 2.55 5.9 5.2.15.23.07.54-.16.69-.08.05-.17.08-.26.08z"/><path d="m31.66 31.41s-.06 0-.1 0c-.27-.05-.45-.32-.39-.59.9-4.5 4.18-8.06 4.32-8.21.19-.2.5-.21.71-.02.2.19.21.5.02.71-.03.03-3.23 3.5-4.07 7.72-.05.24-.26.4-.49.4z"/><path d="m31.94 34.17c-.14 0-.29-.06-.39-.18-3.01-3.64-8.37-5.72-8.42-5.74-.26-.1-.39-.39-.29-.65s.39-.39.65-.29c.23.09 5.66 2.19 8.84 6.04.18.21.15.53-.07.7-.09.08-.21.11-.32.11z"/><path d="m31.99 34.82c-.07 0-.15-.02-.22-.05-.25-.12-.35-.42-.23-.67 3.49-7.08 8.94-10.61 9.17-10.75.23-.15.54-.08.69.15s.08.54-.15.69c-.05.03-5.45 3.53-8.81 10.35-.09.18-.26.28-.45.28z"/><path d="m32.16 37.19c-.13 0-.26-.05-.36-.15-2.93-2.97-8.34-5.04-8.4-5.06-.26-.1-.39-.39-.29-.65s.39-.38.64-.29c.23.09 5.67 2.17 8.75 5.3.19.2.19.51 0 .71-.1.1-.22.14-.35.14z"/><path d="m32.18 37.71c-.06 0-.12-.01-.18-.04-.26-.1-.38-.39-.28-.65 2.18-5.51 8.9-8.93 9.18-9.07.25-.12.55-.02.67.22.12.25.02.55-.22.67-.07.03-6.66 3.39-8.7 8.55-.08.2-.27.32-.46.32z"/><path d="m32.22 40.03c-.14 0-.27-.06-.37-.17-2.33-2.6-7.08-4.32-7.13-4.34-.26-.09-.4-.38-.3-.64.09-.26.38-.4.64-.3.2.07 5.04 1.82 7.54 4.61.18.21.17.52-.04.71-.1.09-.21.13-.33.13z"/><path d="m32.22 41.26s-.08 0-.12-.01c-.27-.07-.43-.34-.37-.6.93-3.83 5.71-7.04 5.91-7.17.23-.15.54-.09.69.14s.09.54-.14.69c-.05.03-4.65 3.13-5.49 6.57-.06.23-.26.38-.49.38z"/><path d="m32.07 44.39c-.15 0-.3-.07-.4-.2-3.31-4.41-10.23-7.01-10.29-7.03-.26-.1-.39-.38-.3-.64.1-.26.38-.39.64-.29.29.11 7.26 2.73 10.75 7.37.17.22.12.53-.1.7-.09.07-.19.1-.3.1z"/><path d="m31.99 45.45c-.07 0-.14-.01-.21-.04-.25-.11-.36-.41-.25-.66 3.19-7.06 11.62-10.55 11.97-10.7.25-.1.55.02.65.27.1.26-.02.55-.27.65-.08.03-8.42 3.49-11.44 10.18-.08.18-.27.29-.46.29z"/><path d="m31.74 48.41c-.14 0-.28-.06-.38-.17-3.88-4.46-8.51-7.19-8.56-7.21-.24-.14-.32-.45-.18-.68.14-.24.45-.32.68-.18.19.11 4.82 2.83 8.81 7.42.18.21.16.52-.05.71-.09.08-.21.12-.33.12z"/><path d="m31.6 49.68c-.06 0-.12-.01-.18-.03-.26-.1-.38-.39-.28-.65 2.4-6.12 9.46-9.76 9.76-9.92.25-.13.55-.03.67.22s.03.55-.22.67c-.07.04-7.03 3.63-9.28 9.39-.08.2-.27.32-.47.32z"/><path d="m31.38 51.52c-.2 0-.39-.12-.47-.32-1.13-2.92-4.75-5.25-4.79-5.27-.23-.15-.3-.46-.15-.69s.46-.3.69-.15c.16.1 3.94 2.52 5.19 5.75.1.26-.03.55-.29.65-.06.02-.12.03-.18.03z"/><path d="m31.27 52.35c-.08 0-.15-.02-.23-.05-.25-.13-.34-.43-.22-.67 2.8-5.48 10.63-9.17 10.96-9.32.25-.12.55 0 .66.24.12.25 0 .55-.24.66-.08.04-7.84 3.7-10.49 8.87-.09.17-.26.27-.45.27z"/><path d="m30.9 54.9c-.18 0-.35-.09-.44-.26-1.49-2.75-5.83-5.95-5.87-5.98-.22-.16-.27-.48-.11-.7s.48-.27.7-.11c.19.14 4.56 3.36 6.16 6.31.13.24.04.55-.2.68-.08.04-.16.06-.24.06z"/><path d="m30.74 55.88c-.1 0-.2-.03-.29-.09-.23-.16-.28-.47-.12-.7 3.88-5.46 9.76-7.24 10.01-7.31.27-.08.54.07.62.34s-.07.54-.34.62c-.06.02-5.8 1.76-9.47 6.93-.1.14-.25.21-.41.21z"/><path d="m30.34 58.23c-.21 0-.4-.13-.47-.34-.83-2.43-3.74-4.52-3.77-4.54-.23-.16-.28-.47-.12-.7s.47-.28.7-.12c.13.09 3.2 2.29 4.14 5.03.09.26-.05.55-.31.63-.05.02-.11.03-.16.03z"/><path d="m30.24 58.79c-.09 0-.18-.02-.26-.07-.24-.14-.31-.45-.16-.69 1.99-3.24 6.27-4.08 6.45-4.11.27-.05.53.13.58.4s-.13.53-.4.58c-.04 0-4.03.79-5.78 3.65-.09.15-.26.24-.43.24z"/></g></svg>