<svg id="Layer_1" viewBox="0 0 64 64" xmlns="http://www.w3.org/2000/svg" data-name="Layer 1"><path d="m60.17 12.15s-8.59 2.01-14.94.43c0 0-2.28 3.99-11.42 5.59 0 0-.47 5.07-6.77 7.43 0 0 2.44 4.54 1.17 7.19 0 0 6.64-.65 9.58 1.38 0 0 2.87-3.13 10.97-4.41 0 0 1.2-5.56 8.46-7.41 0 0-.77-7.34 2.94-10.2z" fill="#128c7f"/><path d="m4.67 10.65s6.25 3.16 11.45 3.14c0 0 1.01 3.5 7.76 6.46 0 0-.59 4 3.83 7 0 0-2.73 3.04-2.25 5.33 0 0-5-1.74-7.65-.73 0 0-1.62-2.96-7.64-5.47 0 0 .11-4.52-5.14-7.3 0 0 1.97-5.52-.36-8.43z" fill="#128c7f"/><path d="m28.22 33.29c-.13 0-.27-.05-.37-.16-.19-.2-.18-.52.03-.71 11.94-11.07 27.13-17.42 27.28-17.48.25-.11.55.02.65.27.11.26-.02.55-.27.65-.15.06-15.18 6.35-26.98 17.29-.1.09-.22.13-.34.13z" fill="#056967"/><path d="m25.47 33.08c-.16 0-.32-.08-.42-.22-7.04-10.65-17.46-18.31-17.56-18.39-.22-.16-.27-.48-.11-.7s.47-.27.7-.11c.11.08 10.66 7.84 17.8 18.64.15.23.09.54-.14.69-.08.06-.18.08-.28.08z" fill="#056967"/><g fill="#f14a3a"><circle cx="27.54" cy="31.9" r="6.19"/><circle cx="20.82" cy="35.53" r="5.04"/><circle cx="28.61" cy="39.15" r="4.4"/></g></svg>