<svg id="Layer_1" viewBox="0 0 64 64" xmlns="http://www.w3.org/2000/svg" data-name="Layer 1"><g fill="#128c7f"><path d="m35.89 21.87c-.08 0-.16-.02-.24-.06-5.75-3.16-9.95-9.93-10.12-10.22-.14-.24-.07-.54.17-.69s.54-.07.69.16c.04.07 4.24 6.84 9.75 9.87.24.13.33.44.2.68-.09.17-.26.26-.44.26z"/><path d="m36.06 23.44c-.16 0-.31-.07-.41-.21-.16-.22-.11-.54.12-.7 2.19-1.56 3.31-4.23 3.69-5.31.09-.26.38-.4.64-.3.26.09.4.38.3.64-.41 1.17-1.63 4.07-4.05 5.79-.09.06-.19.09-.29.09z"/><path d="m36.82 29.99c-.09 0-.19-.03-.27-.08-2.23-1.42-4.03-3.77-4.53-4.46-.16-.22-.11-.54.11-.7s.54-.11.7.11c.34.46 2.12 2.84 4.26 4.2.23.15.3.46.15.69-.1.15-.26.23-.42.23z"/><path d="m36.75 30.96c-.14 0-.27-.05-.37-.16-.19-.2-.17-.52.03-.71 4.95-4.54 8-10.04 8.03-10.09.13-.24.44-.33.68-.2s.33.44.2.68c-.03.06-3.16 5.69-8.23 10.35-.1.09-.22.13-.34.13z"/><path d="m35.27 37.67c-.1 0-.21-.03-.3-.1-4.54-3.35-8.19-8.9-8.34-9.14-.15-.23-.09-.54.15-.69.23-.15.54-.08.69.15.04.06 3.7 5.63 8.1 8.88.22.16.27.48.11.7-.1.13-.25.2-.4.2z"/><path d="m33.4 42.32c-.12 0-.25-.05-.35-.14-.2-.19-.21-.51-.02-.71 3.03-3.17 6.96-5.81 9.02-7.1.23-.15.54-.08.69.16s.07.54-.16.69c-2.03 1.27-5.87 3.85-8.83 6.95-.1.1-.23.15-.36.15z"/><path d="m32.34 44.25c-.1 0-.21-.03-.29-.1-1.15-.84-2.06-2.34-2.63-3.44-.12-.25-.03-.55.22-.67.25-.13.55-.03.67.22.51 1.01 1.33 2.36 2.32 3.09.22.16.27.48.11.7-.1.13-.25.21-.4.21z"/><path d="m30.43 50.28c-.21 0-.4-.13-.47-.34-.09-.26.06-.54.32-.63 5.23-1.74 10.08-4.91 11.67-5.95.61-.4.66-.43.8-.46.27-.05.53.14.58.41.04.24-.09.46-.31.55-.08.04-.26.16-.52.33-1.62 1.06-6.55 4.28-11.9 6.06-.05.02-.1.03-.16.03z"/><path d="m30.6 48.53c-.07 0-.15-.02-.22-.05-7.73-3.78-10.93-10.2-10.93-10.54 0-.28.22-.5.5-.5.21 0 .38.12.46.3.11.22 3.14 6.29 10.41 9.84.25.12.35.42.23.67-.09.18-.26.28-.45.28z"/><path d="m33.37 62.5c-.15 0-.29-.06-.39-.19-2.16-2.69-4.88-13.12-1.49-18.16 2.92-4.35 5.64-13.22 4.65-17.72-1-4.52-1.14-10.94-1.14-11.21-.07-4.37 1.94-9.9 2.03-10.13.1-.26.38-.39.64-.3.26.1.39.38.3.64-.02.06-2.03 5.59-1.97 9.77 0 .06.14 6.59 1.12 11.01 1.06 4.81-1.71 13.89-4.8 18.49-3.09 4.61-.53 14.53 1.44 16.98.17.21.14.53-.08.7-.09.07-.2.11-.31.11z"/><path d="m39.16 2.17c-3.45-1.42-6.95 6.15-3.62 14.17 0 0 .86-3.13 3.12-6.99s1.8-6.66.5-7.19z"/><path d="m23.45 7.99c-4.34 2.67 3.88 9.15 8.55 10.55 0 0-2.76-4.32-3.56-7.55s-3.26-4.06-4.99-2.99z"/><path d="m40.24 26.8s.08-3.7 1.61-6.93 4.16-3.66 5.16-2.96 2.54 5.17-6.77 9.89z"/><path d="m24.38 25.35c-2.81 1.53 1.09 7.29 7.62 8.92 0 0-3.26-11.3-7.62-8.92z"/><path d="m17.77 34.05c-4.78 1.84 2.41 10.3 9.7 12.14 0 0-2.73-3.77-4.01-7.79-1.27-4.02-3.15-5.33-5.69-4.35z"/><path d="m33.69 48.52s6.93-10.75 11.95-6.7-10 7.22-11.95 6.7z"/></g><g fill="#f14a3a"><circle cx="40.45" cy="15.08" r="2.37"/><path d="m40.45 17.95c-1.58 0-2.87-1.29-2.87-2.87s1.29-2.87 2.87-2.87 2.87 1.29 2.87 2.87-1.29 2.87-2.87 2.87zm0-4.74c-1.03 0-1.87.84-1.87 1.87s.84 1.87 1.87 1.87 1.87-.84 1.87-1.87-.84-1.87-1.87-1.87z"/></g><g fill="#f14a3a"><circle cx="44.39" cy="33.63" r="2.37"/><path d="m44.39 36.5c-1.58 0-2.87-1.29-2.87-2.87s1.29-2.87 2.87-2.87 2.87 1.29 2.87 2.87-1.29 2.87-2.87 2.87zm0-4.74c-1.03 0-1.87.84-1.87 1.87s.84 1.87 1.87 1.87 1.87-.84 1.87-1.87-.84-1.87-1.87-1.87z"/></g><g fill="#f14a3a"><circle cx="28.79" cy="38.38" r="2.37"/><path d="m28.79 41.25c-1.58 0-2.87-1.29-2.87-2.87s1.29-2.87 2.87-2.87 2.87 1.29 2.87 2.87-1.29 2.87-2.87 2.87zm0-4.74c-1.03 0-1.87.84-1.87 1.87s.84 1.87 1.87 1.87 1.87-.84 1.87-1.87-.84-1.87-1.87-1.87z"/></g><g fill="#f14a3a"><circle cx="31.16" cy="23.17" r="2.37"/><path d="m31.16 26.04c-1.58 0-2.87-1.29-2.87-2.87s1.29-2.87 2.87-2.87 2.87 1.29 2.87 2.87-1.29 2.87-2.87 2.87zm0-4.74c-1.03 0-1.87.84-1.87 1.87s.84 1.87 1.87 1.87 1.87-.84 1.87-1.87-.84-1.87-1.87-1.87z"/></g></svg>