<svg id="Layer_1" viewBox="0 0 64 64" xmlns="http://www.w3.org/2000/svg" data-name="Layer 1"><g fill="#128c7f"><path d="m32 62.5c-.28 0-.5-.22-.5-.5-.11-36.12 8.72-59.94 8.81-60.18.1-.26.38-.39.64-.29s.39.39.29.64c-.09.23-8.86 23.9-8.75 59.82 0 .28-.22.5-.5.5z"/><path d="m37.75 12.74c-.2 0-.4-.12-.47-.33-1.14-3.1-1.24-7.59-1.24-7.78 0-.28.21-.5.49-.51.31.02.5.21.51.49 0 .04.1 4.52 1.18 7.45.1.26-.04.55-.3.64-.06.02-.12.03-.17.03z"/><path d="m37.75 12.74c-.08 0-.17-.02-.25-.07-.24-.14-.32-.44-.19-.68 2.02-3.54 5.29-5.54 5.42-5.63.23-.14.54-.07.69.17.14.24.07.54-.17.69-.03.02-3.18 1.96-5.07 5.27-.09.16-.26.25-.43.25z"/><path d="m35.87 21.19c-.09 0-.19-.03-.27-.08-.23-.15-.3-.46-.15-.69 5.08-7.86 11.24-9.54 11.5-9.61.27-.08.54.09.61.36s-.09.54-.36.61c-.06.02-6.05 1.68-10.91 9.19-.1.15-.26.23-.42.23z"/><path d="m35.47 23.25c-.25 0-.47-.19-.5-.45-1.03-10.79-5.22-15.63-5.26-15.68-.18-.21-.16-.52.04-.71.21-.18.52-.17.71.04.18.21 4.45 5.13 5.51 16.24.03.28-.17.52-.45.55-.02 0-.03 0-.05 0z"/><path d="m34.38 29.72c-.1 0-.2-.03-.28-.09-.23-.16-.28-.47-.13-.7 4.85-7 13.69-10.22 14.06-10.35.26-.1.55.04.64.3s-.04.55-.3.64c-.09.03-8.91 3.25-13.58 9.98-.1.14-.25.22-.41.22z"/><path d="m33.91 33c-.21 0-.41-.14-.48-.35-3.46-11-8.82-14.64-8.87-14.67-.23-.15-.29-.46-.14-.69s.46-.3.69-.15 5.7 3.83 9.28 15.21c.08.26-.06.54-.33.63-.05.02-.1.02-.15.02z"/><path d="m32.73 11.9c-.05 0-.11 0-.16-.03-.26-.09-.4-.37-.31-.63.61-1.77.56-4.16.56-4.19 0-.28.21-.5.49-.51.3-.02.5.21.51.49 0 .1.05 2.59-.62 4.53-.07.21-.27.34-.47.34z"/><path d="m32.78 12.01c-.15 0-.3-.07-.4-.2-.77-1.03-3.19-1.83-4.06-2.05-.27-.07-.43-.34-.36-.61s.34-.43.61-.36c.14.04 3.47.9 4.61 2.42.17.22.12.53-.1.7-.09.07-.19.1-.3.1z"/><path d="m34.78 18.58c-.14 0-.27-.06-.37-.16-2.27-2.51-6.18-3.71-6.22-3.72-.26-.08-.41-.36-.33-.62s.35-.42.62-.33c.17.05 4.22 1.29 6.67 4 .19.21.17.52-.04.71-.1.09-.22.13-.34.13z"/><path d="m42.19 14.37c-.27 0-.5-.22-.5-.49-.04-2.36 1.77-4.8 1.85-4.9.17-.22.48-.26.7-.1.22.17.27.48.1.7-.02.02-1.69 2.27-1.65 4.28 0 .28-.22.5-.49.51z"/><path d="m48.1 14.61c-.05 0-.11 0-.16-.03-2.3-.78-5.63-.23-5.66-.23-.28.04-.53-.14-.58-.41s.14-.53.41-.58c.15-.02 3.62-.59 6.15.27.26.09.4.37.31.63-.07.21-.27.34-.47.34z"/><path d="m37.79 25.88c-.21 0-.4-.13-.47-.33-.09-.26.04-.55.3-.64.14-.05 3.51-1.22 8.02-.66.27.03.47.28.43.56-.03.27-.28.47-.56.43-4.28-.54-7.53.59-7.56.61-.06.02-.11.03-.17.03z"/><path d="m41.89 22.77c-.28 0-.5-.23-.49-.51.03-2.57 1.91-5.52 1.99-5.64.15-.23.46-.3.69-.15s.3.46.15.69c-.02.03-1.8 2.83-1.83 5.12 0 .27-.23.49-.5.49z"/><path d="m42 22.69c-.21 0-.4-.13-.47-.34-.09-.26.05-.54.32-.63.17-.05 4.1-1.34 7.29 0 .25.11.38.4.27.65s-.4.37-.65.27c-2.84-1.18-6.55.02-6.59.04-.05.02-.11.03-.16.03z"/><path d="m28.27 21.57c-.28 0-.5-.23-.49-.51.03-1.74-.52-4.33-.53-4.35-.06-.27.11-.54.38-.59s.54.11.59.38c.02.11.58 2.72.55 4.58 0 .27-.23.49-.5.49z"/><path d="m28.27 21.57c-.11 0-.23-.04-.32-.12-1.52-1.27-3.94-.6-3.96-.59-.26.08-.54-.08-.62-.34-.08-.27.08-.54.34-.62.12-.04 2.95-.82 4.88.78.21.18.24.49.06.71-.1.12-.24.18-.38.18z"/><path d="m31.56 27s-.03 0-.05 0c-.27-.03-.48-.27-.45-.55.24-2.51 0-5.55 0-5.58-.02-.28.18-.52.46-.54s.52.18.54.46c.01.13.25 3.16 0 5.76-.02.26-.24.45-.5.45z"/><path d="m31.56 27c-.12 0-.25-.05-.34-.14-1.49-1.42-5.22-2.2-5.26-2.21-.27-.06-.44-.32-.39-.59.06-.27.32-.45.59-.39.16.03 4.05.84 5.74 2.46.2.19.21.51.02.71-.1.1-.23.16-.36.16z"/><path d="m32.91 41.83c-.21 0-.41-.13-.48-.35-3.22-10.04-11.76-15.34-11.85-15.39-.24-.14-.31-.45-.17-.69s.45-.31.69-.17c.36.22 8.94 5.55 12.28 15.94.08.26-.06.54-.32.63-.05.02-.1.02-.15.02z"/><path d="m25.18 29.67c-.27 0-.5-.22-.5-.49-.03-1.9-1.47-4.64-1.49-4.67-.13-.24-.04-.55.21-.68s.55-.04.68.21c.06.12 1.57 2.98 1.6 5.12 0 .28-.21.5-.49.51z"/><path d="m20.11 29.7c-.22 0-.42-.14-.48-.36-.08-.26.07-.54.34-.62.12-.04 3.04-.88 5.39-.02.26.09.39.38.3.64-.1.26-.38.39-.64.3-2.03-.75-4.73.03-4.76.04-.05.01-.09.02-.14.02z"/><path d="m30.96 37.26c-.14 0-.27-.06-.37-.17-2.22-2.46-6.61-3.09-6.66-3.1-.27-.04-.46-.29-.43-.56.04-.27.29-.48.56-.43.19.03 4.79.68 7.27 3.42.19.21.17.52-.04.71-.1.09-.22.13-.33.13z"/><path d="m33.28 38.19c-.1 0-.2-.03-.28-.09-.23-.16-.28-.47-.13-.7 4.15-6 15.38-9.02 15.86-9.14.26-.07.54.09.61.36s-.09.54-.36.61c-.11.03-11.36 3.05-15.29 8.75-.1.14-.25.22-.41.22z"/><path d="m44.3 30.79s-.09 0-.14-.02c-.27-.08-.42-.35-.34-.62.54-1.91 1.89-3.76 1.94-3.84.16-.22.47-.27.7-.11.22.16.27.48.11.7-.01.02-1.3 1.79-1.79 3.52-.06.22-.26.36-.48.36z"/><path d="m49.3 31.98c-2.78 0-5.14-1.2-5.23-1.25-.25-.13-.34-.43-.21-.67.13-.25.43-.34.67-.21.02.01 2.24 1.14 4.78 1.14.28 0 .5.22.5.5s-.22.5-.5.5z"/><path d="m37.85 34.02s-.08 0-.12-.02c-.27-.07-.43-.34-.36-.61.86-3.35 1.94-5.49 1.99-5.58.12-.25.42-.34.67-.22s.34.43.22.67c-.01.02-1.08 2.14-1.91 5.37-.06.23-.26.38-.48.38z"/><path d="m44.05 34.77h-.01c-3.46-.08-6.19-.74-6.3-.76-.27-.07-.43-.34-.37-.6.06-.27.34-.43.6-.37.03 0 2.75.66 6.09.74.28 0 .49.24.49.51s-.23.49-.5.49z"/><path d="m32.29 50.45c-.21 0-.41-.14-.48-.35-1.82-5.8-8.81-10.18-8.88-10.23-.23-.14-.31-.45-.16-.69s.45-.31.69-.16c.3.19 7.38 4.62 9.31 10.78.08.26-.06.54-.33.63-.05.02-.1.02-.15.02z"/><path d="m27.03 42.92c-.24 0-.46-.18-.49-.43-.21-1.44-1.17-3.66-1.18-3.68-.11-.25 0-.55.26-.66.25-.11.55 0 .66.26.04.1 1.03 2.37 1.26 3.94.04.27-.15.53-.42.57-.02 0-.05 0-.07 0z"/><path d="m27.03 42.92c-.05 0-.11 0-.16-.03-2.07-.69-3.59-.49-3.6-.49-.28.03-.53-.15-.57-.42s.15-.53.42-.57c.07 0 1.77-.24 4.06.53.26.09.4.37.32.63-.07.21-.27.34-.47.34z"/><path d="m30.02 46.18c-.26 0-.48-.2-.5-.46-.15-1.77-.64-4.27-.65-4.29-.05-.27.12-.53.39-.59s.53.12.59.39c.02.1.51 2.58.66 4.41.02.28-.18.52-.46.54-.01 0-.03 0-.04 0z"/><path d="m30.02 46.18c-.1 0-.21-.03-.29-.1-1.52-1.11-3.87-1.56-3.9-1.57-.27-.05-.45-.31-.4-.58s.31-.45.58-.4c.11.02 2.6.5 4.3 1.74.22.16.27.48.11.7-.1.13-.25.2-.4.2z"/><path d="m32.59 45.76c-.13 0-.25-.05-.35-.14-.2-.19-.2-.51-.01-.71 4.73-4.88 10.69-6.53 10.95-6.6.27-.07.54.08.61.35s-.08.54-.35.61c-.06.02-5.96 1.66-10.49 6.33-.1.1-.23.15-.36.15z"/><path d="m43.65 41.47c-.06 0-.12-.01-.18-.04-1.26-.5-3.84-.31-4.73-.2-.27.04-.52-.16-.56-.43-.03-.27.16-.52.43-.56.14-.02 3.47-.43 5.22.26.26.1.38.39.28.65-.08.2-.27.32-.47.32z"/><path d="m38.67 41.23c-.26 0-.48-.2-.5-.46-.1-1.35.29-3.35.3-3.43.05-.27.31-.45.59-.4.27.05.45.32.4.59 0 .02-.38 1.95-.29 3.17.02.28-.19.52-.46.54-.01 0-.02 0-.04 0z"/><path d="m34.99 43.61c-.22 0-.43-.15-.48-.38-.07-.27.1-.54.36-.61.11-.03 2.79-.69 4.67-.25.27.06.44.33.37.6s-.33.43-.6.37c-1.65-.38-4.18.24-4.2.24-.04 0-.08.01-.12.01z"/></g></svg>