<svg id="Layer_1" viewBox="0 0 64 64" xmlns="http://www.w3.org/2000/svg" data-name="Layer 1"><g fill="#128c7f"><g><path d="m24.79 62.5c-.27 0-.49-.21-.5-.48-1.46-44.23 17.38-60.25 17.57-60.41.21-.18.53-.14.7.07.18.21.14.53-.07.7-.19.15-18.65 15.91-17.21 59.6 0 .28-.21.51-.48.52h-.02z"/><path d="m36.98 8.7c-.28 0-.5-.23-.5-.5.02-1.65.44-4.33.46-4.44.04-.27.29-.45.57-.42.27.04.46.3.42.57 0 .03-.43 2.71-.45 4.29 0 .27-.23.5-.5.5z"/><path d="m36.98 8.7c-.15 0-.29-.06-.39-.19-.17-.22-.14-.53.08-.7 1.05-.84 4.23-2.19 4.37-2.25.25-.11.55.01.66.26s0 .55-.26.66c-.88.38-3.35 1.49-4.13 2.11-.09.07-.2.11-.31.11z"/><path d="m34.88 12.09c-.25 0-.46-.18-.49-.43-.22-1.63-.27-4.26-.28-4.37 0-.28.21-.5.49-.51.27-.04.5.21.51.49 0 .03.06 2.68.27 4.25.04.27-.16.53-.43.56-.02 0-.04 0-.07 0z"/><path d="m34.88 12.09c-.2 0-.39-.12-.47-.32-.1-.26.03-.55.28-.65 2.31-.91 5-2.79 5.02-2.81.23-.16.54-.1.7.12.16.23.1.54-.12.7-.11.08-2.81 1.97-5.23 2.92-.06.02-.12.03-.18.03z"/><path d="m33.13 15.41c-.24 0-.46-.18-.49-.43-.26-1.84-.35-4.18-.35-4.28 0-.28.21-.51.48-.52.27 0 .51.21.52.48 0 .02.08 2.39.34 4.17.04.27-.15.53-.42.57-.02 0-.05 0-.07 0z"/><path d="m33.13 15.41c-.2 0-.39-.12-.47-.33-.1-.26.04-.55.29-.64 2.59-.97 5.3-3.04 5.33-3.06.22-.17.53-.13.7.09s.13.53-.09.7c-.12.09-2.86 2.18-5.59 3.2-.06.02-.12.03-.17.03z"/><path d="m31.68 18.6c-.19 0-.36-.1-.45-.28-.79-1.62-1.04-4.67-1.05-4.8-.02-.28.18-.52.46-.54.27-.02.52.18.54.46 0 .03.25 2.99.95 4.44.12.25.02.55-.23.67-.07.03-.14.05-.22.05z"/><path d="m31.68 18.6c-.2 0-.39-.12-.47-.32-.1-.26.03-.55.29-.64 2.08-.78 4.99-3.09 5.02-3.12.21-.17.53-.14.7.08s.14.53-.08.7c-.12.1-3.06 2.43-5.29 3.27-.06.02-.12.03-.18.03z"/><path d="m30.54 21.43c-.16 0-.31-.08-.41-.21-1.19-1.72-1.85-4.48-1.88-4.6-.06-.27.1-.54.37-.6.27-.07.54.1.6.37 0 .03.64 2.69 1.73 4.26.16.23.1.54-.13.7-.09.06-.19.09-.29.09z"/><path d="m30.54 21.43c-.14 0-.28-.06-.38-.18-.18-.21-.15-.53.06-.71 2.54-2.15 5.85-3.6 5.99-3.66.26-.11.55 0 .66.26.11.25 0 .55-.26.66-.03.01-3.31 1.45-5.74 3.5-.09.08-.21.12-.32.12z"/><path d="m29.2 25.32c-.18 0-.35-.1-.44-.27-.97-1.84-1.46-3.59-1.48-3.66-.07-.27.08-.54.35-.61.26-.08.54.08.62.35 0 .02.48 1.72 1.4 3.46.13.24.04.55-.21.68-.07.04-.15.06-.23.06z"/><path d="m29.2 25.32c-.17 0-.34-.09-.43-.25-.14-.24-.05-.55.18-.68 1.73-.99 2.69-2.49 2.7-2.5.15-.23.45-.3.69-.16.23.15.3.45.16.69-.04.07-1.09 1.72-3.05 2.84-.08.04-.16.07-.25.07z"/><path d="m28.48 27.73c-.15 0-.29-.07-.39-.19-.67-.86-1.24-2.31-1.26-2.37-.1-.26.03-.55.29-.65s.55.03.65.29c0 .01.53 1.37 1.11 2.11.17.22.13.53-.08.7-.09.07-.2.11-.31.11z"/><path d="m28.48 27.73c-.22 0-.42-.15-.48-.37-.07-.27.09-.54.35-.61.53-.14 1.47-.87 1.95-1.3.2-.18.52-.17.71.03.19.21.17.52-.03.71-.14.13-1.43 1.28-2.36 1.53-.04.01-.09.02-.13.02z"/><path d="m26.85 34.53c-.11 0-.21-.03-.3-.1-.22-.17-.26-.48-.09-.7 8.12-10.63 21.5-16.36 21.63-16.41.25-.11.55.01.66.27.11.25-.01.55-.27.66-.13.06-13.27 5.69-21.23 16.1-.1.13-.25.2-.4.2z"/><path d="m42.62 21.2s-.08 0-.12-.01c-.27-.07-.43-.34-.36-.61.58-2.33 1.69-3.91 1.73-3.98.16-.23.47-.28.7-.12s.28.47.12.7c0 .01-1.05 1.5-1.58 3.64-.06.23-.26.38-.49.38z"/><path d="m43.11 21.2c-.3 0-.48 0-.5 0-.28 0-.49-.24-.48-.52 0-.28.26-.49.52-.48.02 0 2 .07 4.5-.28.27-.03.53.15.56.43s-.15.53-.43.56c-1.86.26-3.41.29-4.17.29z"/><path d="m38.89 23.54h-.01c-.28 0-.49-.24-.49-.51.06-2.3.86-4.33.89-4.42.1-.26.39-.38.65-.28s.38.39.28.65c0 .02-.77 1.96-.82 4.08 0 .27-.23.49-.5.49z"/><path d="m39.73 23.55c-.51 0-.83-.01-.86-.01-.28-.01-.49-.24-.48-.52s.25-.47.52-.48c.02 0 2.19.08 4.48-.2.27-.04.52.16.56.44.03.27-.16.52-.44.56-1.5.18-2.92.22-3.78.22z"/><path d="m35.47 26.01s-.03 0-.04 0c-.28-.02-.48-.26-.46-.54.14-1.76.64-3.56.86-4.33.04-.14.07-.24.08-.29.02-.28.24-.47.52-.45s.48.28.47.55c0 .08-.02.15-.11.45-.21.74-.7 2.48-.83 4.14-.02.26-.24.46-.5.46z"/><path d="m36.14 26.02c-.41 0-.66 0-.69-.01-.28-.01-.49-.25-.48-.52s.2-.51.52-.48c.02 0 2.32.09 5.03-.34.27-.04.53.14.57.42.04.27-.14.53-.42.57-1.94.31-3.64.36-4.55.36z"/><path d="m32.74 28.28c-.23 0-.43-.16-.49-.39-.31-1.34.12-3.23.14-3.31.06-.27.33-.44.6-.38s.44.33.38.6c0 .02-.39 1.74-.14 2.86.06.27-.11.54-.38.6-.04 0-.08.01-.11.01z"/><path d="m34.65 28.61c-1.37 0-2.06-.34-2.14-.39-.24-.13-.34-.43-.21-.68.13-.24.43-.33.67-.21.02.01.81.39 2.4.24.27-.01.52.18.54.45.02.28-.18.52-.45.54-.29.03-.56.04-.81.04z"/><path d="m27.58 31.2c-.12 0-.25-.04-.34-.14-1.04-.98-1.4-2.79-1.42-2.86-.05-.27.12-.53.4-.58.28-.06.53.12.59.39 0 .02.31 1.57 1.12 2.32.2.19.21.51.02.71-.1.1-.23.16-.36.16z"/><path d="m30.14 30.74c-.18 0-.35-.1-.44-.27-.34-.66-.2-2.05-.16-2.33.03-.27.3-.47.55-.44.27.03.47.28.44.55-.08.64-.07 1.49.06 1.75.13.25.03.55-.21.67-.07.04-.15.06-.23.06z"/><path d="m30.71 30.76c-.35 0-.59-.02-.61-.02-.27-.02-.48-.27-.46-.54s.27-.47.54-.46c.01 0 1.22.1 2.33-.19.27-.07.54.09.61.36s-.09.54-.36.61c-.76.19-1.54.24-2.05.24z"/><path d="m24.71 56.02c-.21 0-.41-.14-.48-.35-7.13-23.27-7.05-42.68-7.05-42.88 0-.28.25-.45.5-.5.28 0 .5.23.5.5 0 .19-.08 19.46 7.01 42.58.08.26-.07.54-.33.62-.05.01-.1.02-.15.02z"/><path d="m18.33 24.26c-.11 0-.23-.04-.32-.12-1.38-1.15-2.49-4.5-2.54-4.64-.09-.26.06-.54.32-.63s.55.06.63.32c.29.89 1.27 3.39 2.23 4.19.21.18.24.49.06.7-.1.12-.24.18-.38.18z"/><path d="m18.33 24.26s-.06 0-.09 0c-.27-.05-.45-.31-.4-.58.5-2.76 2.25-4.91 2.32-5 .17-.21.49-.24.7-.07s.25.49.07.7c-.02.02-1.66 2.05-2.11 4.55-.04.24-.25.41-.49.41z"/><path d="m18.74 27.93c-.1 0-.2-.03-.28-.09-1.26-.87-3.21-3.53-3.29-3.65-.16-.22-.11-.54.11-.7s.54-.11.7.11c.02.03 1.93 2.64 3.05 3.41.23.16.29.47.13.7-.1.14-.25.22-.41.22z"/><path d="m18.74 27.93c-.09 0-.18-.03-.27-.08-.23-.15-.3-.46-.16-.69 1.41-2.22 1.96-4.82 1.96-4.85.05-.27.33-.45.59-.39.27.06.44.32.39.59-.02.11-.59 2.8-2.09 5.18-.1.15-.26.23-.42.23z"/><path d="m19.21 31.47c-.1 0-.19-.03-.28-.08-1.69-1.14-3.03-3.25-3.08-3.34-.15-.23-.08-.54.16-.69.23-.15.54-.08.69.16.01.02 1.29 2.03 2.79 3.04.23.15.29.47.14.69-.1.14-.25.22-.42.22z"/><path d="m19.21 31.47c-.12 0-.23-.04-.33-.12-.21-.18-.23-.5-.05-.71 1.5-1.73 2.43-5.55 2.44-5.59.07-.27.33-.43.6-.37.27.07.43.33.37.6-.04.17-1 4.1-2.66 6.01-.1.11-.24.17-.38.17z"/><path d="m19.89 35.7c-.07 0-.13-.01-.2-.04-2.46-1.07-3.8-3.67-3.86-3.79-.12-.25-.03-.55.22-.67s.55-.03.67.22c.01.02 1.24 2.4 3.36 3.32.25.11.37.4.26.66-.08.19-.27.3-.46.3z"/><path d="m19.89 35.7c-.09 0-.18-.02-.27-.08-.23-.15-.3-.46-.16-.69 1.18-1.88 2.2-4.9 2.21-4.94.09-.26.37-.41.63-.31.26.09.4.37.32.63-.04.13-1.07 3.17-2.32 5.15-.09.15-.26.23-.42.23z"/><path d="m20.49 39.01s-.05 0-.07 0c-1.87-.27-3.32-2.19-3.38-2.27-.16-.22-.12-.53.1-.7s.53-.12.7.1c.01.02 1.26 1.67 2.72 1.87.27.04.46.29.42.57-.04.25-.25.43-.49.43z"/><path d="m20.49 39.01c-.1 0-.19-.03-.28-.09-.23-.15-.29-.47-.13-.69 1.48-2.19 2.53-5.67 2.54-5.7.08-.26.35-.42.62-.33.26.08.42.36.33.62-.04.15-1.1 3.66-2.67 5.98-.1.14-.25.22-.41.22z"/><path d="m21.26 42.76c-.07 0-.14-.01-.2-.04-1.79-.8-3.14-2.46-3.2-2.53-.17-.21-.14-.53.07-.7s.53-.14.7.07c.01.02 1.27 1.54 2.83 2.24.25.11.37.41.25.66-.08.19-.27.3-.46.3z"/><path d="m21.26 42.76c-.09 0-.18-.02-.26-.07-.24-.14-.31-.45-.17-.69 1.71-2.85 2.38-5.03 2.38-5.05.08-.26.36-.42.62-.33.26.08.41.36.34.62-.03.09-.7 2.32-2.49 5.28-.09.16-.26.24-.43.24z"/><path d="m26.33 37.33c-.09 0-.18-.02-.26-.08-.89-.55-1.47-2.18-1.53-2.36-.09-.26.05-.54.31-.63s.54.05.63.31c.19.56.67 1.56 1.11 1.84.23.15.31.45.16.69-.09.15-.26.24-.42.24z"/><path d="m26.24 37.88c-.2 0-.38-.12-.46-.31-.11-.25.01-.55.27-.65.57-.24 1.24-1.03 1.45-1.31.17-.22.48-.27.7-.11s.27.48.11.7c-.09.13-.94 1.25-1.87 1.64-.06.03-.13.04-.19.04z"/><path d="m25.73 41.29c-.1 0-.19-.03-.28-.08-1.03-.68-1.41-2.21-1.42-2.27-.06-.27.1-.54.37-.6.27-.07.54.1.6.37.08.33.42 1.29 1 1.68.23.15.29.46.14.69-.1.15-.25.22-.42.22z"/><path d="m22.15 46.67c-.09 0-.19-.03-.27-.08-.23-.15-.29-.46-.14-.69 1.09-1.67 1.46-3.58 1.47-3.6.05-.27.32-.45.58-.4.27.05.45.31.4.58-.02.09-.41 2.13-1.61 3.97-.1.15-.26.23-.42.23z"/><path d="m22.15 46.67c-.05 0-.1 0-.15-.02-1.74-.56-3.16-2.32-3.22-2.39-.17-.21-.14-.53.08-.7.21-.17.53-.14.7.08.01.02 1.3 1.6 2.75 2.07.26.08.41.37.32.63-.07.21-.26.35-.48.35z"/><path d="m25.73 41.29c-.16 0-.32-.08-.42-.22-.15-.23-.09-.54.14-.69 1.32-.89 1.62-1.6 1.62-1.61.1-.25.4-.38.64-.28.25.1.38.38.29.63-.04.1-.41 1.01-2 2.08-.09.06-.18.08-.28.08z"/><path d="m25.33 44.78c-.17 0-.34-.09-.43-.25-.14-.24-.06-.54.18-.68.98-.57 1.53-1.78 1.54-1.79.11-.25.41-.36.66-.25s.37.41.25.66c-.03.06-.68 1.51-1.95 2.25-.08.05-.17.07-.25.07z"/><path d="m17.81 17.58c-.09 0-.19-.03-.28-.08-1.41-.93-2.14-2.45-2.17-2.51-.12-.25-.01-.55.24-.67s.55-.01.67.24c0 .01.65 1.33 1.82 2.11.23.15.29.46.14.69-.1.15-.25.22-.42.22z"/><path d="m17.81 17.58c-.07 0-.13-.01-.2-.04-.25-.11-.37-.4-.26-.66.68-1.59 2-2.85 2.06-2.9.2-.19.52-.18.71.02s.18.52-.02.71c-.01.01-1.23 1.17-1.83 2.56-.08.19-.27.3-.46.3z"/><path d="m28.25 32.81c-.21 0-.41-.13-.48-.34-.09-.26.06-.54.32-.63.05-.02 1.36-.44 3.1-.34.28.02.49.25.47.53s-.27.49-.53.47c-1.54-.1-2.71.28-2.72.29-.05.02-.1.03-.16.03z"/><path d="m26.98 33.87c-.12 0-.24-.04-.34-.13-1.29-1.17-1.77-2.45-1.79-2.51-.1-.26.04-.54.29-.64.26-.09.55.04.64.29 0 .01.43 1.12 1.52 2.11.21.19.22.5.03.71-.1.11-.23.16-.37.16z"/><path d="m23.34 51.32s-.07 0-.11-.01c-1.84-.4-3.21-1.87-3.26-1.94-.19-.2-.17-.52.03-.71.2-.18.52-.17.71.03.01.01 1.21 1.3 2.74 1.63.27.06.44.33.38.59-.05.23-.26.39-.49.39z"/><path d="m24.98 48.93c-.19 0-.37-.1-.45-.28-.12-.25-.01-.55.24-.67 1.27-.61 2.06-2.03 2.07-2.05.13-.24.43-.33.68-.2.24.13.33.43.2.68-.04.07-.95 1.72-2.52 2.47-.07.03-.14.05-.22.05z"/><path d="m24.98 48.93c-.06 0-.12 0-.17-.03-1.31-.49-1.59-2.37-1.61-2.58-.03-.27.16-.52.43-.56s.52.16.56.43c.05.38.33 1.53.97 1.77.26.1.39.38.29.64-.08.2-.27.33-.47.33z"/></g><path d="m24.8 52.37c-.24 0-.46-.18-.49-.43-.04-.27.15-.53.42-.57.25-.04.88-.51 1.31-.92.2-.19.52-.18.71.01s.19.51-.01.71c-.19.18-1.15 1.08-1.86 1.19-.03 0-.05 0-.08 0z"/><path d="m24.05 53.83s-.02 0-.03 0c-.89-.06-1.86-.6-1.91-.63-.24-.14-.32-.44-.19-.68.14-.24.44-.33.68-.19.23.13.93.47 1.47.5.28.02.49.25.47.53-.02.26-.24.47-.5.47z"/><path d="m24.71 56.67c-.2 0-.39-.12-.46-.32-.1-.26.02-.55.28-.65.7-.28 1.17-1.05 1.18-1.06.14-.24.45-.31.68-.17.24.14.31.45.17.68-.03.04-.64 1.07-1.67 1.47-.06.02-.12.04-.18.04z"/><path d="m24.71 58.44c-.06 0-.11 0-.17-.03-1.31-.47-1.84-1.77-1.86-1.83-.1-.26.02-.55.28-.65.25-.1.54.02.65.28s.4.94 1.28 1.26c.26.09.39.38.3.64-.07.2-.27.33-.47.33z"/></g></svg>