<svg id="Layer_1" viewBox="0 0 64 64" xmlns="http://www.w3.org/2000/svg" data-name="Layer 1"><g fill="#128c7f"><path d="m31.28 34.03s-.08 0-.12-.01c-16.22-3.87-18.55-19.81-18.57-19.97-.04-.27.15-.52.43-.56s.52.15.56.43c.02.15 2.27 15.43 17.82 19.13.27.06.43.33.37.6-.05.23-.26.38-.49.38z"/><path d="m31.28 61.56s-.09 0-.13-.02c-.27-.08-.42-.35-.35-.62.02-.07 1.88-6.77 2.09-15.54.21-8.25-3.34-15.12-6.47-21.18l-.64-1.25c-3.36-6.55-3.12-11.18-3.11-11.37.02-.28.28-.47.53-.47.28.02.49.25.47.53 0 .04-.22 4.57 3 10.85l.64 1.25c3.18 6.17 6.79 13.16 6.58 21.66-.22 8.9-2.11 15.72-2.13 15.79-.06.22-.26.36-.48.36z"/><path d="m31.29 34.03s-.03 0-.04 0c-.28-.02-.48-.26-.46-.54.26-3.41-.36-7.82-.9-11.71-.39-2.8-.73-5.22-.68-6.8.13-3.79 1.87-6.79 1.94-6.92.14-.24.44-.32.68-.18s.32.45.18.68c-.02.03-1.68 2.92-1.8 6.44-.05 1.5.28 3.87.67 6.63.55 3.94 1.18 8.41.91 11.93-.02.26-.24.46-.5.46z"/><path d="m31.29 34.03c-.16 0-.31-.08-.41-.21-.16-.23-.1-.54.12-.7.07-.05 7.42-5.24 8.13-11.6.53-4.68.72-13.04.72-13.12 0-.27.23-.49.5-.49h.01c.28 0 .5.24.49.51 0 .08-.19 8.49-.73 13.21-.77 6.81-8.23 12.08-8.55 12.3-.09.06-.19.09-.28.09z"/><path d="m30.85 33.65c-.26 0-.48-.2-.5-.47-.02-.28.19-.51.47-.53 17.12-1.11 21.81-24.33 21.86-24.57.05-.27.32-.45.59-.4s.45.32.4.59c-.05.24-4.89 24.22-22.77 25.38-.01 0-.02 0-.03 0z"/><path d="m33.4 47.56s5.25-4.15 6.97-8.99c1.72-4.85 12.05-10.52 12.05-10.52s-3.01 17.35-19.02 19.51z"/><path d="m32.59 54.5s-4.95-4.12-6.67-8.97-12.05-10.52-12.05-10.52 2.72 17.32 18.72 19.49z"/></g><g fill="#f14a3a"><circle cx="13.08" cy="11.61" r="2.37"/><path d="m13.08 14.48c-1.58 0-2.87-1.29-2.87-2.87s1.29-2.87 2.87-2.87 2.87 1.29 2.87 2.87-1.29 2.87-2.87 2.87zm0-4.74c-1.03 0-1.87.84-1.87 1.87s.84 1.87 1.87 1.87 1.87-.84 1.87-1.87-.84-1.87-1.87-1.87z"/></g><g fill="#f14a3a"><circle cx="23.17" cy="9.24" r="2.37"/><path d="m23.17 12.11c-1.58 0-2.87-1.29-2.87-2.87s1.29-2.87 2.87-2.87 2.87 1.29 2.87 2.87-1.29 2.87-2.87 2.87zm0-4.74c-1.03 0-1.87.84-1.87 1.87s.84 1.87 1.87 1.87 1.87-.84 1.87-1.87-.84-1.87-1.87-1.87z"/></g><g fill="#f14a3a"><circle cx="33.22" cy="6.61" r="2.37"/><path d="m33.22 9.49c-1.58 0-2.87-1.29-2.87-2.87s1.29-2.87 2.87-2.87 2.87 1.29 2.87 2.87-1.29 2.87-2.87 2.87zm0-4.74c-1.03 0-1.87.84-1.87 1.87s.84 1.87 1.87 1.87 1.87-.84 1.87-1.87-.84-1.87-1.87-1.87z"/></g><g fill="#f14a3a"><circle cx="40.35" cy="5.95" r="2.37"/><path d="m40.35 8.82c-1.58 0-2.87-1.29-2.87-2.87s1.29-2.87 2.87-2.87 2.87 1.29 2.87 2.87-1.29 2.87-2.87 2.87zm0-4.74c-1.03 0-1.87.84-1.87 1.87s.84 1.87 1.87 1.87 1.87-.84 1.87-1.87-.84-1.87-1.87-1.87z"/></g><g fill="#f14a3a"><circle cx="53.97" cy="5.95" r="2.37"/><path d="m53.97 8.82c-1.58 0-2.87-1.29-2.87-2.87s1.29-2.87 2.87-2.87 2.87 1.29 2.87 2.87-1.29 2.87-2.87 2.87zm0-4.74c-1.03 0-1.87.84-1.87 1.87s.84 1.87 1.87 1.87 1.87-.84 1.87-1.87-.84-1.87-1.87-1.87z"/></g></svg>