<svg id="Layer_1" viewBox="0 0 64 64" xmlns="http://www.w3.org/2000/svg" data-name="Layer 1"><g fill="#128c7f"><path d="m26.67 62.56c-.09 0-.18-.02-.26-.07-.24-.14-.31-.45-.17-.69 12.05-19.82 5.24-38.37 5.17-38.55-.1-.26.03-.55.29-.65s.55.03.65.29c.07.19 7.06 19.17-5.25 39.43-.09.16-.26.24-.43.24z"/><path d="m18.83 6.32s9 1 12.62 8.12 1.22 9.34.67 9.61-6.21-1.46-7.96-6.96-5.33-10.78-5.33-10.78z"/><path d="m33.8 33.53c-.07 0-.14-.01-.2-.04-2.27-1-3.73-2.98-3.79-3.07-.16-.22-.11-.54.11-.7s.53-.12.7.11c.01.02 1.37 1.85 3.39 2.74.25.11.37.41.25.66-.08.19-.27.3-.46.3z"/><path d="m17.5 17.25s3.83 2.92 7 4.36 6.11 6.36 6.47 9.31c0 0-4.75-.17-8.58-3.94-3.83-3.78-4.89-9.72-4.89-9.72z"/><path d="m33.95 31.26-.72-.7s1.98-2.05 3.09-3.93l.86.51c-1.17 1.99-3.15 4.04-3.23 4.12z"/><path d="m45.36 11.44s-6 3.33-7.72 7.5-1.47 8.89-1.47 8.89 3.97-1.28 6.17-6.17c2.19-4.89 1.92-8.17 3.03-10.22z"/><path d="m20.75 29.38s2.06 2.18 4.92 3.65 4.47 6.05 4.06 9.3c0 0-3.69.25-6.06-4.47-2.36-4.72-2.92-8.49-2.92-8.49z"/><path d="m33.03 45.09c-2.66-1.27-4.85-3.36-4.94-3.45l.69-.72s2.17 2.07 4.68 3.27z"/><path d="m34.12 41.63-.88-.48c.07-.12 1.64-2.94 4.61-4.71l.51.86c-2.73 1.63-4.23 4.31-4.25 4.33z"/><path d="m51.83 27.14s-7.25.81-10.64 4.67-3.86 5.58-3.86 5.58 2.5 1.31 7.53-2.69 5-6.22 6.97-7.56z"/><path d="m32.54 49.11-.32-.95s1.99-.68 3.78-2.17l.64.77c-1.94 1.61-4.01 2.32-4.1 2.35z"/><path d="m48.39 37.59s-4.72 1.05-7.83 3.3-5.19 6.17-5.19 6.17 1.72 1.14 5.14-.5 5.69-7.79 7.89-8.96z"/></g></svg>