<svg id="Layer_1" viewBox="0 0 64 64" xmlns="http://www.w3.org/2000/svg" data-name="Layer 1"><g><path d="m14.52 15.48c-.28 0-.5-.22-.5-.5v-12.73c0-.28.22-.5.5-.5s.5.22.5.5v12.73c0 .28-.22.5-.5.5z" fill="#fbb039"/><path d="m14.52 13.08c.86 0 1.56.7 1.56 1.56v2.23h-3.13v-2.23c0-.86.7-1.56 1.56-1.56z" fill="#f78d1f"/><circle cx="14.52" cy="27.92" fill="#f14a3a" r="12.5"/><path d="m24.62 35.29c-2.28 3.11-5.95 5.13-10.1 5.13s-7.82-2.02-10.1-5.13c.33.13.72.22 1.23.22 2.22 0 2.22-1.6 4.43-1.6s2.22 1.6 4.43 1.6 2.22-1.6 4.43-1.6 2.22 1.6 4.44 1.6c.51 0 .91-.09 1.24-.22z" fill="#f9e4c9"/><g><path d="m13.81 30.15h1.42v2.43h-1.42z" fill="#f9e4c9"/><path d="m18.08 25.76c.71.97 1.55 1.9 2.54 2.73 0 0 .14 1.66-2.42 1.66 0 0-.65.97-2.06.97s-1.62-.69-1.62-.69-.22.69-1.62.69c-1.41 0-2.06-.97-2.06-.97-2.56 0-2.42-1.66-2.42-1.66.98-.82 1.83-1.76 2.54-2.73z" fill="#d3f9ec"/><path d="m16.32 22.56c.55.86 1.25 1.73 2.12 2.47 0 0 .09 1.07-1.55 1.07 0 0-.42.63-1.32.63-.5 0-.76-.13-.9-.25-.08-.07-.2-.07-.28 0-.14.12-.4.25-.9.25-.9 0-1.32-.63-1.32-.63-1.64 0-1.55-1.07-1.55-1.07.86-.72 1.55-1.58 2.1-2.43l3.61-.04z" fill="#9ed7ce"/><path d="m14.64 22.9c-.07-.05-.17-.05-.24 0-.09.06-.24.12-.48.12-.52 0-.76-.36-.76-.36-.95 0-.9-.62-.9-.62 1.73-1.45 2.26-3.83 2.26-3.83s.54 2.39 2.26 3.83c0 0 .05.62-.9.62 0 0-.24.36-.76.36-.24 0-.39-.06-.48-.12z" fill="#3dafaf"/></g></g><path d="m31.98 37.31c-.28 0-.5-.22-.5-.5v-34.56c0-.28.22-.5.5-.5s.5.22.5.5v34.56c0 .28-.22.5-.5.5z" fill="#fbb039"/><path d="m31.98 34.92c.86 0 1.56.7 1.56 1.56v2.23h-3.13v-2.23c0-.86.7-1.56 1.56-1.56z" fill="#f78d1f"/><circle cx="31.98" cy="49.75" fill="#faa226" r="12.5"/><g fill="#fbb039"><path d="m39.62 39.85c-.81.4-1.73.83-2.81.9-.07 0-.14.01-.22.01-.72 0-1.44-.23-2.21-.47-.78-.25-1.59-.51-2.4-.51s-1.62.26-2.4.51c-.85.26-1.65.51-2.44.46-1.08-.07-1.99-.5-2.8-.9.3-.23.61-.45.94-.65.6.27 1.23.5 1.93.55.6.04 1.32-.18 2.06-.42.82-.26 1.74-.55 2.71-.55s1.89.29 2.7.55c.75.24 1.46.46 2.06.42.7-.05 1.33-.28 1.94-.55.33.2.64.42.94.65z"/><path d="m42.4 42.84c-.27.02-.58.05-.94.11-.46.08-1.01.35-1.58.64-.88.45-1.88.95-3.07 1.03-.07.01-.14.01-.22.01-.72 0-1.44-.23-2.21-.47-.78-.25-1.59-.51-2.4-.51s-1.62.26-2.4.51c-.85.26-1.64.51-2.44.46-1.19-.08-2.18-.58-3.06-1.03-.58-.29-1.12-.56-1.58-.64-.36-.06-.67-.09-.94-.11.22-.32.44-.63.68-.93.14.01.28.03.43.06.61.1 1.22.41 1.86.73.83.42 1.69.86 2.68.92.6.05 1.32-.18 2.07-.42.81-.25 1.73-.55 2.7-.55s1.89.3 2.7.55c.75.24 1.46.46 2.07.42.98-.06 1.85-.5 2.68-.92.64-.32 1.25-.63 1.86-.73.15-.03.29-.05.43-.06.24.3.46.61.68.93z"/><path d="m44.16 46.95s-.08-.03-.12-.04c-.54-.15-1.15-.33-2.58-.08-.46.07-1.01.35-1.58.63-.88.45-1.88.95-3.07 1.03-.07.01-.14.01-.22.01-.72 0-1.44-.23-2.21-.47-.78-.25-1.59-.5-2.4-.5s-1.62.25-2.4.5c-.85.27-1.65.52-2.44.46-1.19-.08-2.18-.58-3.06-1.03-.58-.28-1.12-.56-1.58-.63-1.44-.25-2.04-.07-2.58.08-.04.01-.08.02-.12.04.08-.38.19-.75.31-1.12.54-.13 1.29-.2 2.56.01.61.1 1.22.41 1.86.73.83.42 1.69.86 2.68.93.6.04 1.32-.19 2.06-.42.82-.26 1.74-.55 2.71-.55s1.89.29 2.7.55c.75.23 1.46.46 2.06.42.99-.07 1.86-.51 2.69-.93.64-.32 1.25-.63 1.86-.73 1.26-.21 2.02-.13 2.56 0 .13.36.23.73.31 1.11z"/><path d="m44.48 49.87c0 .34-.02.68-.05 1.01-.13-.02-.26-.06-.39-.1-.54-.15-1.14-.33-2.58-.08-.46.08-1.01.35-1.58.64-.88.44-1.88.94-3.07 1.03h-.22c-.72 0-1.44-.23-2.21-.47-.78-.25-1.59-.5-2.4-.5s-1.62.25-2.4.5c-.85.27-1.64.52-2.44.47-1.19-.09-2.18-.59-3.06-1.03-.58-.29-1.12-.56-1.58-.64-1.44-.25-2.04-.07-2.58.08-.13.04-.26.08-.39.1-.03-.33-.05-.67-.05-1.01.05-.02.11-.03.17-.05.57-.16 1.36-.39 3.02-.11.61.1 1.22.41 1.86.73.83.42 1.69.86 2.68.93.6.04 1.32-.19 2.07-.42.81-.26 1.73-.55 2.7-.55s1.89.29 2.7.55c.75.24 1.46.45 2.07.42.98-.07 1.85-.51 2.68-.93.64-.32 1.25-.63 1.86-.73 1.66-.28 2.45-.05 3.02.11.06.02.12.03.17.05z"/><path d="m43.88 53.58c-.1.33-.22.64-.35.95-.45-.09-1.06-.13-2.07.04-.46.08-1.01.35-1.58.64-.88.44-1.88.94-3.07 1.03h-.22c-.72 0-1.44-.22-2.21-.47-.78-.24-1.59-.5-2.4-.5s-1.62.26-2.4.5c-.85.27-1.65.52-2.44.47-1.19-.09-2.18-.59-3.06-1.03-.58-.29-1.12-.56-1.58-.64-1.02-.17-1.62-.13-2.07-.04-.13-.31-.25-.62-.35-.95.54-.13 1.3-.22 2.59 0 .61.11 1.22.41 1.86.74.83.42 1.69.85 2.68.92.6.04 1.32-.18 2.06-.42.82-.26 1.74-.55 2.71-.55s1.89.29 2.7.55c.75.24 1.46.46 2.06.42.99-.07 1.86-.5 2.69-.92.64-.33 1.25-.63 1.86-.74 1.29-.22 2.05-.13 2.59 0z"/><path d="m41.89 57.37c-.36.46-.74.89-1.15 1.3-.27.11-.56.26-.86.41-.88.44-1.88.95-3.07 1.03-.07 0-.14.01-.22.01-.72 0-1.44-.23-2.21-.48-.78-.24-1.59-.5-2.4-.5s-1.62.26-2.4.5c-.85.27-1.64.52-2.44.47-1.19-.08-2.18-.59-3.06-1.03-.29-.14-.57-.28-.84-.4h-.01c-.41-.41-.8-.85-1.16-1.31.19.02.39.05.6.09.61.1 1.22.4 1.86.73.83.42 1.69.85 2.68.92.6.04 1.32-.18 2.07-.42.81-.26 1.73-.55 2.7-.55s1.89.29 2.7.55c.75.24 1.46.47 2.07.42.98-.07 1.85-.5 2.68-.92.64-.33 1.25-.63 1.86-.73.21-.04.41-.07.6-.09z"/></g><g><path d="m49.48 26.04c-.28 0-.5-.22-.5-.5v-23.29c0-.28.22-.5.5-.5s.5.22.5.5v23.29c0 .28-.22.5-.5.5z" fill="#fbb039"/><path d="m49.48 23.65c.86 0 1.56.7 1.56 1.56v2.23h-3.13v-2.23c0-.86.7-1.56 1.56-1.56z" fill="#f78d1f"/><circle cx="49.48" cy="38.48" fill="#9ed7ce" r="12.5"/><path d="m55.35 27.44c-.72.54-1.44 1.44-2.4 1.6-1.05.18-2.29-.88-3.47-.88s-2.42 1.06-3.47.88c-.96-.16-1.68-1.07-2.4-1.6 1.75-.93 3.75-1.46 5.87-1.46s4.12.53 5.87 1.46z" fill="#3dafaf"/><path d="m55.34 49.52c-1.75.93-3.74 1.46-5.86 1.46s-4.12-.53-5.87-1.46c.72-.53 1.44-1.44 2.4-1.6 1.05-.17 2.29.88 3.47.88s2.42-1.05 3.47-.88c.96.16 1.68 1.06 2.39 1.6z" fill="#3dafaf"/><path d="m56.53 39.51-2.53 1-3.52-2.03 3.52-2.03 2.53 1c.06.02.12.03.18.03.2 0 .39-.12.47-.32.1-.26-.02-.55-.28-.65l-2.39-.94.38-2.54c.04-.27-.15-.53-.42-.57-.27-.03-.53.15-.57.42l-.4 2.69-3.52 2.03v-4.06l2.13-1.69c.22-.17.25-.49.08-.7-.17-.22-.49-.25-.7-.08l-2.01 1.6-2.01-1.6c-.22-.17-.53-.14-.7.08s-.14.53.08.7l2.13 1.69v4.06l-3.52-2.03-.4-2.69c-.04-.27-.29-.45-.57-.42-.27.04-.46.3-.42.57l.38 2.54-2.39.94c-.26.1-.38.39-.28.65.08.2.27.32.47.32.06 0 .12-.01.18-.03l2.53-1 3.52 2.03-3.52 2.03-2.53-1c-.26-.1-.55.03-.65.28-.1.26.02.55.28.65l2.39.94-.38 2.54c-.04.27.15.53.42.57h.07c.24 0 .46-.18.49-.43l.4-2.69 3.52-2.03v4.06l-2.13 1.69c-.22.17-.25.49-.08.7.17.22.49.25.7.08l2.01-1.6 2.01 1.6c.09.07.2.11.31.11.15 0 .29-.06.39-.19.17-.22.14-.53-.08-.7l-2.13-1.69v-4.06l3.52 2.03.4 2.69c.04.25.25.43.49.43h.07c.27-.04.46-.3.42-.57l-.38-2.54 2.39-.94c.26-.1.38-.39.28-.65s-.39-.38-.65-.28z" fill="#d3f9ec"/></g></svg>