<svg id="Layer_1" viewBox="0 0 64 64" xmlns="http://www.w3.org/2000/svg" data-name="Layer 1"><g fill="#128c7f"><g><path d="m27.27 9.57c-1.58 1.41 1.2 4.11 3.62 6.42s3.29 3.84 3.29 3.84-.22-5.02-2.15-8.06-3.79-3.06-4.75-2.2z"/><path d="m34.18 20.33c-.18 0-.34-.09-.43-.25 0-.01-.87-1.51-3.2-3.73-2.42-2.31-4.27-4.2-4.24-5.8 0-.53.22-.98.63-1.35.54-.48 1.25-.69 1.98-.59.85.12 2.15.72 3.53 2.9 1.98 3.12 2.22 8.1 2.23 8.31 0 .23-.14.44-.36.5-.04.01-.09.02-.14.02zm-6.57-10.39c-.2.18-.29.37-.3.62-.02 1.29 2.26 3.47 3.93 5.07.99.95 1.73 1.76 2.26 2.41-.24-1.69-.76-4.22-1.89-6-.92-1.45-1.92-2.32-2.83-2.44-.56-.09-.95.14-1.17.35z"/></g><g><path d="m35.45 14.37s2.97-10.83 7.93-9.33-7.93 9.33-7.93 9.33z"/><path d="m35.45 14.87c-.11 0-.21-.03-.3-.1-.16-.12-.24-.33-.18-.53.08-.3 2.06-7.38 5.59-9.33.96-.53 1.96-.65 2.96-.34 1.11.34 1.42.97 1.48 1.44.35 2.79-7.67 7.82-9.29 8.8-.08.05-.17.07-.26.07zm6.98-9.47c-.46 0-.92.13-1.39.38-2.33 1.29-3.98 5.34-4.71 7.44 3.61-2.33 7.85-5.68 7.67-7.1-.01-.1-.05-.39-.78-.61-.27-.08-.53-.12-.8-.12z"/></g><path d="m38.16 62.5c-.11 0-.23-.04-.32-.12-.13-.11-3.19-2.85-5.5-16.56-2.17-12.88 2.13-29.7 2.63-31.58.07-.27.34-.43.61-.36s.43.34.36.61c-.49 1.85-4.75 18.48-2.61 31.16 2.23 13.2 5.14 15.94 5.17 15.97.2.18.22.5.04.7-.1.11-.24.17-.38.17z"/><g><path d="m45.57 14.74c-.95-2.39-8.05-.07-11.39 5.09 0 0 3.15-1.68 7.21-2.1 4.06-.41 4.77-1.51 4.18-2.99z"/><path d="m34.18 20.33c-.14 0-.27-.06-.37-.16-.15-.17-.18-.42-.05-.61 2.59-4.01 7.53-6.51 10.34-6.24.97.09 1.65.53 1.94 1.24.3.75.29 1.41-.04 1.95-.55.92-2 1.46-4.55 1.72-3.9.4-7 2.02-7.03 2.04-.07.04-.16.06-.24.06zm9.49-6.03c-1.99 0-5.45 1.52-7.92 4.29 1.34-.51 3.32-1.12 5.59-1.36 2.68-.27 3.55-.83 3.8-1.25.1-.17.21-.46-.04-1.06-.14-.35-.51-.55-1.1-.61-.1 0-.21-.01-.33-.01z"/></g><g><path d="m24.5 19.32c-2.87 1.64.4 5.73 3.2 6.89s5.25.98 5.25.98-2.48-1.69-4.19-5.62-4.27-2.24-4.27-2.24z"/><path d="m32.55 27.7c-.85 0-2.84-.11-5.04-1.02-2.07-.86-4.48-3.27-4.61-5.37-.07-1.03.4-1.86 1.34-2.41.15-.09 1.15-.67 2.36-.32 1.07.32 1.95 1.26 2.62 2.79 1.62 3.74 3.99 5.39 4.01 5.41.17.12.26.34.2.54s-.23.35-.45.37c-.02 0-.18.01-.44.01zm-6.76-8.23c-.58 0-1 .27-1.02.28 0 0-.02.01-.02.01-.62.35-.9.84-.86 1.48.11 1.66 2.24 3.78 4 4.51 1.41.58 2.74.81 3.68.9-.91-.91-2.22-2.49-3.26-4.88-.54-1.24-1.21-1.99-1.98-2.22-.19-.06-.37-.08-.53-.08z"/></g><g><path d="m32.95 27.19s3.28-2.98 6.19-4.53c2.91-1.56 5.43-.74 5.75.76.44 2.01-8.62 2.02-11.94 3.78z"/><path d="m32.95 27.69c-.16 0-.31-.08-.41-.21-.14-.21-.11-.49.07-.66.14-.12 3.36-3.04 6.29-4.6 1.81-.97 3.7-1.17 5.06-.54.76.35 1.27.93 1.42 1.63.07.31 0 .61-.17.88-.63.94-2.67 1.34-5.93 1.91-2.33.41-4.74.83-6.1 1.54-.07.04-.15.06-.23.06zm9.23-5.37c-.79 0-1.75.21-2.81.78-1.39.74-2.88 1.83-4.04 2.74 1.17-.29 2.48-.51 3.77-.74 2.16-.38 4.85-.84 5.27-1.48.03-.05.03-.07.02-.1-.08-.38-.39-.71-.86-.93-.34-.16-.81-.26-1.36-.26z"/></g><g><path d="m20.59 33.72c.44-2.73 4.49-2.33 7.2-.33s4.43 5.09 4.43 5.09-1.84-1.02-5.82-1.84c-3.97-.82-6.04-1.53-5.82-2.91z"/><path d="m32.22 38.97c-.08 0-.17-.02-.24-.06-.02 0-1.84-1-5.68-1.79-3.71-.77-6.52-1.51-6.21-3.48.16-.99.73-1.71 1.64-2.08 1.64-.67 4.31-.07 6.34 1.43 2.77 2.04 4.5 5.12 4.57 5.25.11.19.08.44-.08.6-.1.1-.22.15-.36.15zm-8.92-6.7c-.44 0-.85.07-1.19.2-.59.24-.93.67-1.04 1.32-.16.98 2.05 1.64 5.42 2.34 1.96.41 3.41.86 4.39 1.22-.75-1.04-1.93-2.48-3.41-3.57-1.29-.96-2.9-1.51-4.19-1.51z"/></g><g><path d="m32.22 38.48s1.65-4.33 4.97-6.7c3.31-2.37 6.23-2.28 7.72-.81 1.5 1.47-8.38 7.06-12.69 7.51z"/><path d="m32.22 38.97c-.15 0-.3-.07-.4-.2-.11-.14-.13-.32-.07-.48.07-.18 1.75-4.5 5.14-6.92 3.9-2.79 6.95-2.15 8.37-.76.17.17.43.54.23 1.14-.83 2.38-9.49 6.83-13.21 7.22-.02 0-.03 0-.05 0zm9.86-8.56c-1.24 0-2.8.48-4.6 1.77-2.29 1.64-3.78 4.3-4.42 5.64 3.71-.81 9.9-4.23 11.28-6.06.24-.32.23-.45.23-.45-.54-.53-1.39-.9-2.49-.9z"/></g><g><path d="m33.62 49.92s-3.46-4.36-8.93-4.49-7.51 2.58-6.93 4.49 6.09 1.02 9.46 0c3.38-1.02 6.39 0 6.39 0z"/><path d="m20.68 51.54c-1.96 0-3.1-.5-3.39-1.48-.27-.9-.06-1.91.59-2.76 1.21-1.58 3.67-2.45 6.83-2.37 5.63.14 9.16 4.49 9.3 4.68.14.17.14.42.02.6-.13.18-.36.26-.57.19-.03 0-2.92-.96-6.09 0-1.98.6-4.19 1.02-5.9 1.12-.28.02-.55.02-.8.02zm3.64-5.62c-2.63 0-4.68.71-5.64 1.98-.45.59-.61 1.27-.43 1.87.17.57 1.35.85 3.17.75 1.64-.1 3.76-.5 5.67-1.08 1.94-.59 3.76-.53 5.01-.36-1.4-1.25-4.02-3.07-7.41-3.15-.12 0-.25 0-.37 0z"/></g><g><path d="m33.62 49.92s.89-4.06 3.71-7.94c2.81-3.88 7.52-3.02 8.83-.5 1.3 2.52-5.35 3.78-8.22 5.01-3.1 1.33-4.32 3.44-4.32 3.44z"/><path d="m33.62 50.42c-.06 0-.12-.01-.18-.03-.23-.09-.36-.33-.31-.57.04-.17.95-4.21 3.79-8.13 1.43-1.97 3.5-3 5.68-2.84 1.77.13 3.3 1.05 4 2.4.26.5.29 1.02.09 1.5-.62 1.52-3.38 2.43-6.05 3.3-.95.31-1.84.6-2.5.89-2.89 1.24-4.07 3.21-4.08 3.23-.09.16-.26.25-.43.25zm8.54-10.59c-1.69 0-3.29.88-4.43 2.45-1.46 2.01-2.39 4.09-2.95 5.59.71-.62 1.68-1.29 2.96-1.84.71-.3 1.62-.6 2.59-.92 2.11-.69 4.99-1.64 5.44-2.73.05-.13.11-.35-.06-.67-.54-1.04-1.76-1.76-3.18-1.87-.12 0-.25-.01-.37-.01z"/></g></g></svg>