<svg id="Layer_1" viewBox="0 0 64 64" xmlns="http://www.w3.org/2000/svg" data-name="Layer 1"><path d="m31.11 16.67c-.28 0-.5-.22-.5-.5v-11.96c0-.28.22-.5.5-.5s.5.22.5.5v11.96c0 .28-.22.5-.5.5z" fill="#fbb039"/><path d="m31.11 14.28c.86 0 1.56.7 1.56 1.56v2.23h-3.13v-2.23c0-.86.7-1.56 1.56-1.56z" fill="#f78d1f"/><circle cx="31.11" cy="29.11" fill="#f14a3a" r="12.5"/><path d="m14.7 28.01c-.28 0-.5-.22-.5-.5v-23.3c0-.28.22-.5.5-.5s.5.22.5.5v23.29c0 .28-.22.5-.5.5z" fill="#fbb039"/><path d="m14.7 25.61c.86 0 1.56.7 1.56 1.56v2.23h-3.13v-2.23c0-.86.7-1.56 1.56-1.56z" fill="#f78d1f"/><circle cx="14.7" cy="40.44" fill="#d3f9ec" r="12.5"/><path d="m26.97 38.05c-2.17 1.28-5.95 2.6-12.27 2.6s-10.1-1.32-12.27-2.6c.07-.35.15-.7.25-1.03 1.97 1.23 5.63 2.63 12.02 2.63s10.05-1.4 12.02-2.63c.1.33.18.68.25 1.03z" fill="#9ed7ce"/><path d="m27.2 40.44c0 6.9-5.6 12.5-12.5 12.5s-12.5-5.6-12.5-12.5c0-.39.02-.77.05-1.15 2.01 1.18 5.78 2.53 12.45 2.53s10.44-1.35 12.45-2.53c.03.38.05.76.05 1.15z" fill="#9ed7ce"/><path d="m49.7 34.85c-.28 0-.5-.22-.5-.5v-30.14c0-.28.22-.5.5-.5s.5.22.5.5v30.13c0 .28-.22.5-.5.5z" fill="#fbb039"/><path d="m49.7 32.45c.86 0 1.56.7 1.56 1.56v2.23h-3.13v-2.23c0-.86.7-1.56 1.56-1.56z" fill="#f78d1f"/><path d="m41.42 22.03-2.64 2.49-4.01-1.52-3.66 2.24-3.66-2.24-4.01 1.52-2.64-2.49c2.26-3.28 6.04-5.42 10.31-5.42s8.05 2.14 10.31 5.42z" fill="#ffa089"/><circle cx="49.7" cy="47.28" fill="#fbba90" r="12.5"/><g fill="#f9e4c9"><path d="m49.96 57.28c-.06 0-2.62 0-5.09 1.54-2.51-1.06-4.6-2.9-5.96-5.24 1.8-.36 4.68-1.4 6.46-4.39-.02 5.35 4.59 8.09 4.59 8.09z"/><path d="m61.66 50.94c-.15.47-.32.94-.52 1.39-.01 0-.01.01-.01.01-.7.68-1.45 1.65-1.83 2.95-.23.27-.46.53-.71.78-1.9-2.77-5.23-2.97-5.23-2.97s3.47-1.78 3.7-5.66c1.18 2.32 3.32 3.18 4.6 3.5z"/><path d="m42.29 45.67s-2.8-.91-5.07.97c.09-1.78.55-3.45 1.31-4.96.85-.13 1.8-.47 2.67-1.24-.95 2.92 1.09 5.23 1.09 5.23z"/><path d="m60.3 40.66c-.18.66-.27 1.39-.22 2.18-2.25-3.31-6.24-3.05-6.24-3.05s1.6-1.09 2.48-3.11c1.61 1.01 2.97 2.37 3.98 3.98z"/><path d="m48.14 45.73s2.2-.76 2.66-3.03c.76 2.19 3.03 2.66 3.03 2.66s-2.2.76-2.66 3.03c-.76-2.19-3.03-2.66-3.03-2.66z"/><path d="m49.18 36.34s-2.51.1-3.69 2.31c-.05-1.18-.57-2.07-1.11-2.68 1.02-.49 2.13-.84 3.28-1.03.66.95 1.51 1.4 1.51 1.4z"/><circle cx="3.2" cy="25.24" r="1"/><circle cx="21.75" cy="14.28" r="1"/><circle cx="46.43" cy="20.93" r="1"/><circle cx="39.75" cy="6.71" r="1"/><circle cx="8.2" cy="7.21" r="1"/><circle cx="61.2" cy="30.64" r="1"/><circle cx="57.51" cy="13.28" r="1"/></g></svg>