<svg id="Layer_1" viewBox="0 0 64 64" xmlns="http://www.w3.org/2000/svg" data-name="Layer 1"><g><path d="m45.86 24.16c-.28 0-.5-.22-.5-.5v-18.51c0-.28.22-.5.5-.5s.5.22.5.5v18.51c0 .28-.22.5-.5.5z" fill="#fbb039"/><path d="m45.86 21.76c.86 0 1.56.7 1.56 1.56v2.23h-3.13v-2.23c0-.86.7-1.56 1.56-1.56z" fill="#f78d1f"/><path d="m56.62 42.05s-2.49 2.53-10.76 2.53-10.77-2.53-10.77-2.53c2.71-1.33 3.57-8.15 4.38-11.59.18-.77.38-1.52.63-2.23.13-.38.28-.75.45-1.1.9-1.91 2.39-3.27 5.31-3.27s4.4 1.36 5.31 3.26c.16.35.31.72.44 1.11.25.71.45 1.46.63 2.23.82 3.44 1.68 10.26 4.38 11.59z" fill="#fbba90"/><path d="m51.61 28.23-.34.47c-.15.21-.44.27-.66.14l-2.37-1.39-2.04 1.88c-.1.09-.22.13-.34.13s-.24-.04-.34-.13l-2.05-1.88-2.37 1.39c-.22.13-.51.07-.66-.14l-.34-.47c.13-.38.28-.75.45-1.1l.44.61 2.29-1.34c.19-.11.43-.09.59.06l1.99 1.82 1.98-1.82c.16-.15.4-.17.59-.06l2.29 1.34.45-.62c.16.35.31.72.44 1.11z" fill="#f9e4c9"/></g><g><path d="m28.71 34.41c-.28 0-.5-.22-.5-.5v-28.76c0-.28.22-.5.5-.5s.5.22.5.5v28.76c0 .28-.22.5-.5.5z" fill="#fbb039"/><path d="m28.71 32.02c.86 0 1.56.7 1.56 1.56v2.23h-3.13v-2.23c0-.86.7-1.56 1.56-1.56z" fill="#f78d1f"/><circle cx="28.71" cy="46.85" fill="#9ed7ce" r="12.5"/><path d="m41.21 46.85c0 1.46-.25 2.86-.71 4.17-2.33.64-6.53 1.56-11.79 1.56s-9.45-.91-11.78-1.56c-.47-1.31-.72-2.71-.72-4.17 0-2.47.71-4.76 1.94-6.69 2.48.59 6.14 1.2 10.56 1.2s8.08-.61 10.56-1.2c1.23 1.93 1.94 4.22 1.94 6.69z" fill="#3dafaf"/><g fill="#d3f9ec"><path d="m39.27 40.16c-2.48.59-6.14 1.2-10.56 1.2s-8.08-.61-10.56-1.2c.19-.31.4-.61.62-.89 2.43.54 5.87 1.09 9.94 1.09s7.52-.55 9.94-1.1c.22.29.43.59.62.9z"/><path d="m40.5 51.02c-.14.4-.3.79-.48 1.17-2.48.64-6.43 1.39-11.31 1.39s-8.84-.75-11.31-1.39c-.18-.38-.34-.77-.47-1.17 2.33.65 6.53 1.56 11.78 1.56s9.46-.92 11.79-1.56z"/></g></g><g><path d="m15.35 13.81c-.1 0-.2-.03-.29-.09-.22-.16-.28-.47-.12-.7.11-.16.17-.35.17-.54 0-.51-.42-.93-.93-.93s-.93.42-.93.93c0 .2.06.38.17.54.16.22.11.54-.12.7-.22.16-.54.11-.7-.11-.24-.33-.36-.72-.36-1.12 0-1.06.87-1.93 1.93-1.93s1.93.87 1.93 1.93c0 .41-.12.79-.36 1.12-.1.14-.25.21-.41.21z" fill="#fbb039"/><path d="m19.94 30.06c-1.91 4.91-5.76 8.49-5.76 8.49s-3.83-3.58-5.75-8.49l.48-.06 2.19 1.67 3.07-1.19 3.1 1.19 2.18-1.67.48.06z" fill="#f57365"/><path d="m19.53 18.8-.6-.09-1.98 2.08-2.79-1.49-2.81 1.49-1.97-2.08-.53.07c1.56-2.77 3.8-3.8 3.8-3.8h3.07s2.25 1.03 3.81 3.81z" fill="#f57365"/><path d="m20.99 24.81c0 1.85-.42 3.63-1.05 5.26l-.48-.06-2.18 1.67-3.1-1.19-3.07 1.19-2.19-1.67-.48.06c-.64-1.63-1.05-3.41-1.05-5.26 0-2.57.64-4.55 1.46-6.02h.01l.53-.07 1.97 2.08 2.81-1.49 2.79 1.49 1.98-2.08.6.09c.83 1.47 1.46 3.43 1.46 6z" fill="#ffa089"/><rect fill="#f78d1f" height="2.12" rx=".87" width="4.95" x="11.71" y="13.01"/><path d="m14.18 11.55c-.28 0-.5-.22-.5-.5v-5.9c0-.28.22-.5.5-.5s.5.22.5.5v5.9c0 .28-.22.5-.5.5z" fill="#fbb039"/><g fill="#f9e4c9"><circle cx="11.06" cy="18.44" r=".5"/><circle cx="14.15" cy="21.66" r=".5"/><circle cx="17.22" cy="18.44" r=".5"/><circle cx="17.27" cy="29.31" r=".5"/><circle cx="14.18" cy="32.84" r=".5"/><circle cx="11.1" cy="29.31" r=".5"/></g></g></svg>