<svg id="Layer_1" viewBox="0 0 64 64" xmlns="http://www.w3.org/2000/svg" data-name="Layer 1"><path d="m30.09 30.16c-.28 0-.5-.22-.5-.5v-26.13c0-.28.22-.5.5-.5s.5.22.5.5v26.14c0 .28-.22.5-.5.5z" fill="#fbb039"/><g><path d="m47.7 22.1c-.28 0-.5-.22-.5-.5v-18.07c0-.28.22-.5.5-.5s.5.22.5.5v18.07c0 .28-.22.5-.5.5z" fill="#fbb039"/><path d="m47.7 19.7c.86 0 1.56.7 1.56 1.56v2.23h-3.13v-2.23c0-.86.7-1.56 1.56-1.56z" fill="#f78d1f"/><circle cx="47.7" cy="34.54" fill="#f57365" r="12.5"/><path d="m47.7 27.17 2.16 4.39 4.84.7-3.5 3.41.83 4.83-4.33-2.28-4.33 2.28.82-4.83-3.5-3.41 4.84-.7z" fill="#f9e4c9"/></g><g><path d="m30.08 32.34v15.83l-15.05-4.9 10.39-1.5z" fill="#faa226"/><path d="m45.12 43.27-15.04 4.9v-15.83l4.65 9.43z" fill="#fbb039"/><path d="m37.6 50.61 1.78 10.36-9.3-12.8 15.04-4.9z" fill="#faa226"/><path d="m39.38 60.97-9.3-4.89-9.31 4.89 9.31-12.8z" fill="#f78d1f"/><path d="m20.77 60.97 1.78-10.36-7.52-7.34 15.05 4.9z" fill="#fbb039"/></g><path d="m30.09 32.84c-1.01 0-1.84-.82-1.84-1.84s.82-1.84 1.84-1.84 1.84.82 1.84 1.84-.82 1.84-1.84 1.84zm0-2.67c-.46 0-.84.38-.84.84s.38.84.84.84.84-.38.84-.84-.38-.84-.84-.84z" fill="#f78d1f"/><path d="m15.03 12.2c-.28 0-.5-.22-.5-.5v-8.17c0-.28.22-.5.5-.5s.5.22.5.5v8.18c0 .28-.22.5-.5.5z" fill="#fbb039"/><path d="m26.26 22.96-.36-1.11-1.6.52.72-1.42-1.04-.52-1.25 2.45-1.87.61 1.22-2.39-1.04-.53-1.74 3.43-3.69 1.2v-3.88l2.72-2.72-.82-.82-1.9 1.89v-1.97l1.95-1.94-.82-.82-1.13 1.12v-1.68h-1.16v1.68l-1.13-1.12-.82.82 1.95 1.94v1.97l-1.9-1.89-.82.82 2.72 2.72v3.88l-3.69-1.2-1.75-3.43-1.03.53 1.22 2.39-1.88-.61-1.25-2.45-1.03.52.72 1.42-1.6-.52-.36 1.11 1.6.52-1.42.72.53 1.04 2.46-1.25 1.87.6-2.39 1.22.53 1.04 3.42-1.75 3.69 1.2-2.28 3.14-3.8.6.18 1.15 2.65-.42-1.15 1.59-2.72.43.18 1.15 1.57-.25-.99 1.36.94.68.99-1.36.25 1.58 1.15-.19-.43-2.72 1.15-1.59.42 2.65 1.15-.18-.6-3.8 2.28-3.14 2.28 3.14-.6 3.8 1.15.18.42-2.65 1.15 1.59-.43 2.72 1.15.19.25-1.58.99 1.36.94-.68-.99-1.36 1.57.25.18-1.15-2.72-.43-1.15-1.59 2.64.42.19-1.15-3.8-.6-2.28-3.14 3.69-1.2 3.42 1.75.53-1.04-2.39-1.22 1.87-.6 2.46 1.25.52-1.04-1.42-.72z" fill="#9ed7ce"/><path d="m15.03 14.88c-1.01 0-1.84-.82-1.84-1.84s.82-1.84 1.84-1.84 1.84.82 1.84 1.84-.82 1.84-1.84 1.84zm0-2.67c-.46 0-.84.38-.84.84s.38.84.84.84.84-.38.84-.84-.38-.84-.84-.84z" fill="#f78d1f"/></svg>