<svg id="Layer_1" viewBox="0 0 64 64" xmlns="http://www.w3.org/2000/svg" data-name="Layer 1"><path d="m21.3 11.7c-.28 0-.5-.22-.5-.5v-9.2c0-.28.22-.5.5-.5s.5.22.5.5v9.2c0 .28-.22.5-.5.5z" fill="#fbb039"/><path d="m21.3 17.22c-1.36 0-2.42-1.43-2.42-3.26s1.06-3.26 2.42-3.26 2.42 1.43 2.42 3.26-1.06 3.26-2.42 3.26zm0-5.52c-.77 0-1.42 1.04-1.42 2.26s.65 2.26 1.42 2.26 1.42-1.04 1.42-2.26-.65-2.26-1.42-2.26z" fill="#f78d1f"/><path d="m21.3 45.13c1.88-3.38 6.67-5.35 9.97-6.58s6.09-2.86 6.09-8.41c0-5.54-4.57-7.72-9.24-8.59-4.68-.87-4.91-2.99-4.91-3.71s-.2-1.61-1.9-1.61-1.9.89-1.9 1.61-.24 2.84-4.91 3.71c-4.68.87-9.24 3.04-9.24 8.59s2.79 7.18 6.09 8.41 8.08 3.2 9.97 6.58z" fill="#f57365"/><path d="m16.21 23.29c0 2.19-1.77 3.96-3.96 3.96-1.97 0-3.6-1.43-3.9-3.32 1.7-1.25 3.9-1.97 6.14-2.38.43-.08.82-.17 1.17-.26.35.59.55 1.27.55 2z" fill="#f14a3a"/><path d="m30.18 38.41c0 .19-.01.38-.03.56-2.13.84-4.62 1.97-6.54 3.53-1.51-.74-2.56-2.29-2.56-4.09 0-2.52 2.05-4.56 4.57-4.56s4.56 2.04 4.56 4.56z" fill="#f14a3a"/><path d="m35.57 25.11c-.07 1.82-1.57 3.26-3.4 3.26s-3.42-1.52-3.42-3.41c0-1.21.63-2.27 1.58-2.88 2.06.6 3.94 1.55 5.24 3.03z" fill="#f14a3a"/><circle cx="23.46" cy="29.41" fill="#f14a3a" r="2.16"/><path d="m10.22 33.85c0 1.41-.92 2.6-2.19 3-1.48-1.11-2.53-2.77-2.74-5.6.5-.35 1.12-.55 1.78-.55 1.74 0 3.15 1.41 3.15 3.15z" fill="#f14a3a"/><g><path d="m45.85 30.36c-.28 0-.5-.22-.5-.5v-27.86c0-.28.22-.5.5-.5s.5.22.5.5v27.86c0 .28-.22.5-.5.5z" fill="#fbb039"/><g><path d="m47.48 56.97v3.17h-3.25v-3.2z" fill="#f9e4c9"/><path d="m51.13 48.01 6.23 7.5s-3.8 1.86-11.5 1.86-11.5-1.86-11.5-1.86l6.23-7.5z" fill="#d3f9ec"/><path d="m49.04 40.56 5.51 6.76s-2.87 1.43-8.7 1.43-8.7-1.43-8.7-1.43l5.51-6.76h6.37z" fill="#9ed7ce"/><path d="m45.85 41.07c-4.26 0-6.36-1.01-6.36-1.01l6.36-7.53 6.36 7.53s-2.1 1.01-6.36 1.01z" fill="#3dafaf"/></g><path d="m45.85 33.03c-1.01 0-1.84-.82-1.84-1.84s.82-1.84 1.84-1.84 1.84.82 1.84 1.84-.82 1.84-1.84 1.84zm0-2.67c-.46 0-.84.38-.84.84s.38.84.84.84.84-.38.84-.84-.38-.84-.84-.84z" fill="#f78d1f"/></g><g fill="#fbb039"><path d="m7.64 15.69c-.13 0-.26-.05-.35-.15l-1.19-1.19c-.2-.2-.2-.51 0-.71s.51-.2.71 0l1.19 1.19c.2.2.2.51 0 .71-.1.1-.23.15-.35.15z"/><path d="m6.45 18.3c-.13 0-.26-.05-.35-.15-.2-.2-.2-.51 0-.71l1.19-1.19c.2-.2.51-.2.71 0s.2.51 0 .71l-1.19 1.19c-.1.1-.23.15-.35.15z"/><path d="m10.25 18.3c-.13 0-.26-.05-.35-.15l-1.19-1.19c-.2-.2-.2-.51 0-.71s.51-.2.71 0l1.19 1.19c.2.2.2.51 0 .71-.1.1-.23.15-.35.15z"/><path d="m9.05 15.69c-.13 0-.26-.05-.35-.15-.2-.2-.2-.51 0-.71l1.19-1.19c.2-.2.51-.2.71 0s.2.51 0 .71l-1.19 1.19c-.1.1-.23.15-.35.15z"/><path d="m55.49 30.56c-.13 0-.26-.05-.35-.15l-1.19-1.19c-.2-.2-.2-.51 0-.71s.51-.2.71 0l1.19 1.19c.2.2.2.51 0 .71-.1.1-.23.15-.35.15z"/><path d="m54.3 33.17c-.13 0-.26-.05-.35-.15-.2-.2-.2-.51 0-.71l1.19-1.19c.2-.2.51-.2.71 0s.2.51 0 .71l-1.19 1.19c-.1.1-.23.15-.35.15z"/><path d="m58.1 33.17c-.13 0-.26-.05-.35-.15l-1.19-1.19c-.2-.2-.2-.51 0-.71s.51-.2.71 0l1.19 1.19c.2.2.2.51 0 .71-.1.1-.23.15-.35.15z"/><path d="m56.91 30.56c-.13 0-.26-.05-.35-.15-.2-.2-.2-.51 0-.71l1.19-1.19c.2-.2.51-.2.71 0s.2.51 0 .71l-1.19 1.19c-.1.1-.23.15-.35.15z"/><path d="m36.65 7.79c-.13 0-.26-.05-.35-.15l-1.19-1.19c-.2-.19-.2-.51 0-.71s.51-.2.71 0l1.19 1.19c.2.19.2.51 0 .71-.1.1-.23.15-.35.15z"/><path d="m35.46 10.4c-.13 0-.26-.05-.35-.15-.2-.2-.2-.51 0-.71l1.19-1.19c.2-.2.51-.2.71 0s.2.51 0 .71l-1.19 1.19c-.1.1-.23.15-.35.15z"/><path d="m39.26 10.4c-.13 0-.26-.05-.35-.15l-1.19-1.19c-.2-.2-.2-.51 0-.71s.51-.2.71 0l1.19 1.19c.2.2.2.51 0 .71-.1.1-.23.15-.35.15z"/><path d="m38.06 7.79c-.13 0-.26-.05-.35-.15-.2-.2-.2-.51 0-.71l1.19-1.19c.2-.2.51-.2.71 0s.2.51 0 .71l-1.19 1.19c-.1.1-.23.15-.35.15z"/></g><circle cx="30.98" cy="18.22" fill="#fbba90" r=".5"/><circle cx="49.24" cy="14.96" fill="#fbba90" r=".5"/><circle cx="55.7" cy="24.27" fill="#fbba90" r=".5"/><circle cx="52.71" cy="4.39" fill="#fbba90" r=".5"/><circle cx="24.84" cy="4.39" fill="#fbba90" r=".5"/><circle cx="5.75" cy="9.78" fill="#fbba90" r=".5"/></svg>