<svg id="Layer_1" viewBox="0 0 64 64" xmlns="http://www.w3.org/2000/svg" data-name="Layer 1"><path d="m15.83 15.96c-.28 0-.5-.22-.5-.5v-13.46c0-.28.22-.5.5-.5s.5.22.5.5v13.46c0 .28-.22.5-.5.5z" fill="#fbb039"/><path d="m15.83 18.25c-.91 0-1.64-.74-1.64-1.64s.74-1.64 1.64-1.64 1.64.74 1.64 1.64-.74 1.64-1.64 1.64zm0-2.29c-.35 0-.64.29-.64.64s.29.64.64.64.64-.29.64-.64-.29-.64-.64-.64z" fill="#f78d1f"/><path d="m13.6 17.25h4.47c1.1 0 2 .9 2 2v1.06h-8.47v-1.06c0-1.1.9-2 2-2z" fill="#fbba90"/><path d="m20.62 32.04s-3.76 1.03-4.79 4.78c-1.02-3.75-4.78-4.78-4.78-4.78s3.76-1.03 4.78-4.78c1.03 3.75 4.79 4.78 4.79 4.78z"/><g fill="#f9e4c9"><path d="m8.27 32.05s-2.06.57-3.58 2.38c-.1-.24-.2-.48-.28-.74-.28-.82-.44-1.73-.44-2.75 0-.41.03-.82.09-1.21.04-.24.08-.48.14-.72 1.51 2.34 4.07 3.04 4.07 3.04z"/><path d="m20.62 32.04s-3.76 1.03-4.79 4.78c-1.02-3.75-4.78-4.78-4.78-4.78s3.76-1.03 4.78-4.78c1.03 3.75 4.79 4.78 4.79 4.78z"/><path d="m27.69 30.94c0 1.01-.15 1.9-.42 2.71s-.01.02-.01.02c-.08.26-.18.51-.29.75-1.52-1.8-3.58-2.37-3.58-2.37s2.56-.7 4.07-3.04c.06.24.11.45.14.7v.05c.06.38.09.78.09 1.18z"/><path d="m21.69 39.83c-.99.7-1.89 1.35-2.49 2.03-2.21 2.53-2.35 2.53-3.37 2.53-.51 0-.8 0-1.24-.32-.43-.31-1.02-.95-2.13-2.21-.6-.68-1.5-1.33-2.49-2.03.47-.28.96-.54 1.91-.54s1.45.27 1.92.54c.51.3 1.01.61 2.03.61s1.52-.31 2.03-.61c.47-.27.97-.54 1.92-.54s1.43.26 1.91.54z"/><path d="m25.1 24.53c-.35.15-.77.26-1.36.26s-1.03-.11-1.38-.26c-.79-.34-1.21-.89-2.58-.89s-1.79.55-2.58.89c-.35.15-.77.26-1.37.26s-1.02-.11-1.37-.26c-.79-.33-1.21-.89-2.58-.89s-1.79.55-2.58.89c-.35.15-.77.26-1.37.26s-1.02-.11-1.36-.26c2.2-2.67 5.03-4.22 5.03-4.22h8.47s2.82 1.55 5.03 4.22z"/></g><path d="m23.39 32.05s2.56-.7 4.07-3.04c-.41-1.71-1.31-3.22-2.35-4.48h-.01c-.35.15-.77.26-1.36.26s-1.03-.11-1.38-.26c-.79-.34-1.21-.89-2.58-.89s-1.79.55-2.58.89c-.35.15-.77.26-1.37.26s-1.02-.11-1.37-.26c-.79-.33-1.21-.89-2.58-.89s-1.79.55-2.58.89c-.35.15-.77.26-1.37.26s-1.02-.11-1.36-.26c-1.04 1.26-1.95 2.77-2.36 4.48 1.51 2.34 4.07 3.04 4.07 3.04s-2.06.57-3.58 2.38c1.13 2.49 3.38 4.05 5.28 5.4.47-.28.96-.54 1.91-.54s1.45.27 1.92.54c.51.3 1.01.61 2.03.61s1.52-.31 2.03-.61c.47-.27.97-.54 1.92-.54s1.43.26 1.91.54h.01c1.91-1.36 4.14-2.92 5.27-5.4-1.52-1.81-3.58-2.38-3.58-2.38zm-7.56 4.77c-1.02-3.75-4.78-4.78-4.78-4.78s3.76-1.03 4.78-4.78c1.03 3.75 4.79 4.78 4.79 4.78s-3.76 1.03-4.79 4.78z" fill="#9ed7ce"/><g><path d="m47.41 29.69c-6.56 0-8.54-2.02-8.54-2.02 2.14-1.06 2.83-6.5 3.48-9.24s1.53-5.27 5.07-5.27 4.42 2.53 5.07 5.27 1.33 8.18 3.48 9.24c0 0-1.98 2.02-8.54 2.02z" fill="#f9e4c9"/><path d="m47.41 13.67c-.28 0-.5-.22-.5-.5v-11.17c0-.28.22-.5.5-.5s.5.22.5.5v11.17c0 .28-.22.5-.5.5z" fill="#fbb039"/><path d="m49.18 13.89c-.7 0-1.38-.09-1.91-.26-.15-.05-.27-.16-.32-.31s-.04-.31.05-.44c.2-.32 2.03-3.08 3.82-3.08h.02c.45 0 1.09.18 1.6 1.02.6.97.27 1.65.02 1.97-.61.78-1.98 1.1-3.27 1.1zm-.92-1.06c1.35.2 2.96-.08 3.4-.65.07-.09.24-.31-.08-.83-.3-.48-.58-.54-.76-.54-.77 0-1.84 1.08-2.56 2.03z" fill="#ffa089"/><path d="m45.65 13.89c-1.29 0-2.67-.32-3.27-1.1-.25-.32-.58-1 .02-1.97.51-.83 1.15-1.01 1.6-1.02h.02c1.78 0 3.61 2.76 3.82 3.08.08.13.1.29.05.44s-.17.26-.32.31c-.52.16-1.21.26-1.91.26zm-1.64-3.08c-.18 0-.46.06-.76.54-.32.52-.15.75-.08.83.45.58 2.06.85 3.4.65-.72-.95-1.79-2.03-2.56-2.03z" fill="#ffa089"/><path d="m54.63 26.22c-1.29.36-3.73 1.18-7.21 1.18s-5.94-.83-7.22-1.18c.24-.44.45-.95.65-1.5 1.38.32 3.6 1.01 6.57 1.01s5.18-.69 6.56-1.01c.2.55.41 1.06.65 1.5z" fill="#fbba90"/></g><g><path d="m35.13 37.17c-.28 0-.5-.22-.5-.5v-34.67c0-.28.22-.5.5-.5s.5.22.5.5v34.67c0 .28-.22.5-.5.5z" fill="#fbb039"/><path d="m35.13 34.78c.86 0 1.56.7 1.56 1.56v2.23h-3.13v-2.23c0-.86.7-1.56 1.56-1.56z" fill="#f78d1f"/><circle cx="35.13" cy="47.74" fill="#ccc" r="11.07"/><path d="m46.2 47.74c0 .18 0 .37-.01.55-.02.33-.05.66-.1.98-.41 2.98-2 5.57-4.29 7.3-.31.23-.63.45-.96.65-1.66 1-3.61 1.58-5.7 1.58-6.11 0-11.07-4.95-11.07-11.06 0-2 .53-3.87 1.46-5.49.19-.34.4-.67.63-.98.26-.36.53-.7.83-1.02.22-.24.46-.47.7-.7 1.97-1.79 4.58-2.88 7.45-2.88 6.11 0 11.06 4.96 11.06 11.07z" fill="#ffa089"/><g fill="#f14a3a"><path d="m46.19 48.29c-.02.33-.05.66-.1.98-10.23-.6-16.17-5.57-19.1-9.02.22-.24.46-.47.7-.7 2.78 3.31 8.52 8.15 18.5 8.74z"/><path d="m41.8 56.57c-.31.23-.63.45-.96.65-8.69-4.28-13.13-10.54-15.31-14.97.19-.34.4-.67.63-.98 2.04 4.37 6.47 10.95 15.64 15.3z"/></g></g></svg>