<?xml version="1.0" encoding="UTF-8"?>
<!-- Generator: Adobe Illustrator 25.1.0, SVG Export Plug-In . SVG Version: 6.00 Build 0)  -->
<svg xmlns="http://www.w3.org/2000/svg" xmlns:xlink="http://www.w3.org/1999/xlink" version="1.1" id="Capa_1" x="0px" y="0px" viewBox="0 0 500 500" style="enable-background:new 0 0 500 500;" xml:space="preserve" width="512" height="512">
<g>
	<path style="fill:#827189;" d="M274.328,57.565c0,0,52.096-26.892-3.647-52.207c-47.104-21.391-21.269,28.168-64.138,28.168   S189.468,82.49,189.468,82.49L274.328,57.565z"/>
	<path style="fill:#251426;" d="M364.996,468.046l-2.827,31.465l8.48,0.489l-2.138-9.536c0,0,2.964,13.311,24.73,6.552   c0,0-29.207-10.672-12.576-29.103L364.996,468.046z"/>
	<path style="fill:#251426;" d="M162.142,449.415l-31.461,2.866l1.041,8.43l8.998-3.815c0,0-12.563,5.305-2.006,25.504   c0,0,5.256-30.648,26.373-17.596L162.142,449.415z"/>
	<polygon style="fill:#3D9C91;" points="267.106,351.116 285.107,454.498 157.892,477.451 157.507,438.256 258.665,438.285    226.817,356.245  "/>
	<polygon style="fill:#3D9C91;" points="296.577,339.831 384.057,348.038 389.186,477.451 350.716,476.02 352.98,372.252    289.44,365.213  "/>
	<polygon style="fill:#3D9C91;" points="254.642,370.608 300.96,363.427 296.344,343.561 249.467,351.116  "/>
	<path style="fill:#251626;" d="M389.186,468.782h-38.293c-0.481,0-0.869-0.389-0.869-0.869s0.389-0.869,0.869-0.869h38.293   c0.481,0,0.869,0.389,0.869,0.869S389.667,468.782,389.186,468.782z"/>
	<path style="fill:#251626;" d="M173.317,475.537c-0.427,0-0.799-0.314-0.86-0.749l-5.111-36.411   c-0.067-0.475,0.265-0.915,0.74-0.982c0.471-0.066,0.914,0.265,0.982,0.74l5.111,36.411c0.067,0.475-0.265,0.915-0.74,0.982   C173.398,475.534,173.357,475.537,173.317,475.537z"/>
	<path style="fill:#251626;" d="M272.458,453.035c-0.179,0-0.361-0.056-0.516-0.17c-7.093-5.242-15.414-11.995-14.768-14.397   c0.075-0.277,0.36-0.934,1.395-1.049c4.548-0.467,16.508,5.122,17.016,5.361c0.434,0.205,0.62,0.723,0.415,1.158   c-0.205,0.435-0.723,0.618-1.157,0.414c-3.273-1.544-12.372-5.407-15.889-5.222c0.868,1.866,7.719,7.677,14.022,12.335   c0.385,0.285,0.468,0.83,0.183,1.216C272.987,452.913,272.724,453.035,272.458,453.035z"/>
	<path style="fill:#251626;" d="M353.82,373.165c-0.414,0-0.747-0.017-0.979-0.054c-1.201-0.194-1.502-0.881-1.574-1.274   c-0.485-2.629,9.136-8.637,14.914-11.984c0.415-0.24,0.948-0.099,1.188,0.317c0.241,0.415,0.099,0.948-0.317,1.188   c-6.315,3.659-13.229,8.39-14.004,10.023c0.021,0.004,0.045,0.008,0.07,0.013c1.635,0.26,10.943-0.841,16.802-1.647   c0.485-0.076,0.914,0.267,0.98,0.742c0.066,0.476-0.267,0.914-0.742,0.98C368.785,371.658,357.717,373.165,353.82,373.165z"/>
	<path style="fill:#251626;" d="M285.025,366.766c-0.814,0-1.702-1.427-7.465-20.009c-0.143-0.458,0.115-0.945,0.573-1.088   c0.459-0.138,0.946,0.115,1.088,0.573c2.212,7.132,4.783,14.976,5.952,17.909c1.679-3.306,5.656-13.002,5.049-18.631   c-0.153-1.411-0.593-2.402-1.308-2.945c-0.383-0.29-0.458-0.836-0.167-1.218c0.292-0.382,0.836-0.456,1.218-0.167   c2.302,1.747,2.672,5.791,1.1,12.016c-0.991,3.922-4.378,13.313-5.824,13.538C285.167,366.755,285.097,366.766,285.025,366.766z"/>
	<path style="fill:#C083AF;" d="M226.817,356.245c0,0-21.966-60.463-35.928-107.412c-11.201-37.664,144.749-88.143,136.672-3.765   c-7.236,75.592,4.556,97.963,4.556,97.963L226.817,356.245z"/>
	<path style="fill:#EA8060;" d="M260.385,178.967l3.632,20.353l14.373-0.218c0,0-4.231,22.387-18.006,22.142   c-22.559-0.402-30.397-13.602-30.397-13.602l16.075-5.339l-8.839-20.612L260.385,178.967z"/>
	<path style="fill:#EA8060;" d="M188.589,75.124c0,0,38.336-42.924,81.914-21.588c32.604,15.963,25.37,129.309-28.429,125.554   C203.94,176.427,172.745,99.597,188.589,75.124z"/>
	<path style="fill:#84556C;" d="M188.589,75.124c0,0,7.424,73.323,25.748,79.368c32.886,10.85-12.28-29.408,32.677-28.901   c28.827,0.325,4.287,25.644,28.52,18.389c18.225-5.457,0.569-84.307-2.019-88.568c-2.588-4.261,31.64,13.805,18.574,64.333   c-4.382,16.947,37.455,25.887,7.254,52.923c-53.615,47.996-133.043,10.487-114.611-15.643   C210.088,121.077,141.889,121.243,188.589,75.124z"/>
	<path style="fill:#251626;" d="M258.167,124.855c-0.049,0-0.1-0.003-0.152-0.007c-3.766-0.356-16.074-2.794-16.595-2.898   c-0.471-0.093-0.778-0.551-0.683-1.021c0.093-0.471,0.548-0.779,1.021-0.683c0.123,0.024,11.925,2.363,16.029,2.83   c-0.231-2.668-6.78-14.58-13.349-25.165c-0.253-0.408-0.127-0.944,0.28-1.197c0.409-0.253,0.944-0.127,1.197,0.28   c5.655,9.111,14.91,24.768,13.369,27.256C259.042,124.639,258.641,124.855,258.167,124.855z"/>
	<path style="fill:#251626;" d="M242.321,155.247c-0.481,0-0.948-0.15-1.381-0.448c-3.949-2.729-4.42-19.665-4.461-21.587   c-0.01-0.481,0.371-0.878,0.851-0.888c0.539,0.052,0.878,0.371,0.888,0.851c0.147,6.918,1.284,18.518,3.71,20.194   c0.218,0.15,0.407,0.176,0.652,0.091c3.841-1.36,9.999-13.944,12.048-18.678c0.191-0.439,0.7-0.643,1.144-0.453   c0.441,0.191,0.643,0.703,0.453,1.144c-0.785,1.813-7.819,17.769-13.064,19.626C242.88,155.198,242.598,155.247,242.321,155.247z"/>
	<path style="fill:#251626;" d="M223.5,106.94c-3.871,0.001-6.62-11.019-7.375-14.415c-0.104-0.469,0.192-0.933,0.661-1.038   c0.47-0.096,0.934,0.192,1.038,0.661c1.412,6.355,4.113,13.09,5.688,13.053c1.558-0.06,2.534-7.022,2.434-13.232   c-0.008-0.48,0.375-0.875,0.856-0.883c0.484-0.039,0.875,0.376,0.883,0.856c0.055,3.479-0.077,14.841-4.105,14.996   C223.553,106.939,223.525,106.94,223.5,106.94z"/>
	<path style="fill:#251626;" d="M264.42,104.57c-3.793,0-8.51-10.837-9.873-14.177c-0.182-0.445,0.032-0.952,0.476-1.133   c0.443-0.184,0.952,0.031,1.133,0.476c2.579,6.319,6.453,13.095,8.245,13.095c0.008,0,0.018,0,0.026,0   c1.557-0.06,2.533-7.022,2.433-13.232c-0.008-0.48,0.375-0.875,0.856-0.883c0.486-0.059,0.875,0.375,0.883,0.856   c0.055,3.479-0.077,14.841-4.104,14.996C264.471,104.569,264.446,104.57,264.42,104.57z"/>
	<circle style="fill:#EA8060;" cx="175.573" cy="116.189" r="10.8"/>
	<circle style="fill:#EA8060;" cx="298.714" cy="97.337" r="10.073"/>
	<path style="fill:#251626;" d="M179.632,122.236c-0.477,0-0.866-0.385-0.869-0.863c-0.02-2.711-0.757-4.599-2.187-5.612   c-2.497-1.768-6.422-0.449-6.462-0.436c-0.453,0.155-0.949-0.085-1.105-0.538c-0.157-0.453,0.082-0.948,0.536-1.105   c0.194-0.068,4.795-1.625,8.028,0.654c1.919,1.354,2.904,3.717,2.929,7.023c0.003,0.481-0.383,0.873-0.863,0.876   C179.636,122.236,179.633,122.236,179.632,122.236z"/>
	<path style="fill:#251626;" d="M297.656,105.503c-0.35,0-0.679-0.212-0.812-0.558c-1.604-4.181-1.669-7.356-0.195-9.437   c1.691-2.388,4.715-2.317,4.846-2.328c0.48,0.014,0.858,0.413,0.845,0.894c-0.014,0.479-0.441,0.835-0.891,0.845   c-0.058,0.001-2.256-0.008-3.389,1.606c-1.092,1.557-0.951,4.254,0.408,7.798c0.172,0.448-0.052,0.952-0.5,1.123   C297.865,105.484,297.76,105.503,297.656,105.503z"/>
	<circle style="fill:#E45442;" cx="210.832" cy="122.043" r="10.296"/>
	<circle style="fill:#E45442;" cx="270.682" cy="114.812" r="10.296"/>
	<path style="fill:#251626;" d="M233.791,191.811c-7.535,0-11.731-4.32-13.759-8.653c-2.124,1.342-5.424,2.407-10.635,2.35   c-10.286-0.125-14.967-7.642-15.918-14.635c-0.001-0.003-0.001-0.005-0.001-0.008c-1.546,0.196-3.226-0.102-4.94-0.906   c-3.632-1.702-5.261-5.53-4.586-10.778c0.34-2.641,1.229-5.402,2.414-7.867c-3.183-1.1-4.167-3.44-4.382-5.42   c-0.318-2.938,0.942-6.559,2.685-9.68c-1.121-0.545-1.931-1.365-2.418-2.453c-1.785-3.98,1.663-10.083,1.811-10.342   c0.239-0.416,0.768-0.559,1.186-0.323c0.417,0.239,0.561,0.769,0.324,1.186c-0.883,1.547-2.916,6.136-1.734,8.768   c0.335,0.745,0.905,1.295,1.729,1.662c1.835-2.866,3.957-5.065,5.333-5.482c1.104-0.335,2.101-0.055,2.727,0.769   c0.856,1.126,0.787,2.966-0.168,4.476c-0.638,1.007-2.604,3.25-7.088,2.303c-0.004-0.001-0.009-0.002-0.014-0.003   c-1.647,2.87-2.933,6.264-2.644,8.928c0.224,2.064,1.363,3.401,3.464,4.047c1.926-3.433,4.376-6.021,6.523-6.416   c2.076-0.382,4.232,0.444,5.38,2.055c0.856,1.201,0.971,2.617,0.31,3.787c-0.71,1.254-2.964,3.275-10.062,2.716   c-0.431-0.034-0.838-0.083-1.223-0.147c-1.169,2.344-2.092,5.043-2.428,7.655c-0.403,3.139-0.107,7.245,3.6,8.982   c1.583,0.742,2.928,0.9,4.039,0.745c-0.233-4.628,1.201-8.399,3.6-9.094c1.274-0.371,2.352-0.032,2.962,0.927   c1.097,1.727,0.331,5.015-1.707,7.331c-0.875,0.996-1.888,1.713-2.995,2.143c0.008,0.067,0.017,0.134,0.026,0.201   c0.853,6.275,5.036,13.019,14.216,13.131c5.083,0.054,8.117-0.993,9.948-2.245c-0.391-1.112-0.644-2.188-0.78-3.152   c-0.487-3.427,0.262-5.866,1.908-6.216c0.902-0.19,1.799,0.196,2.467,1.059c1.032,1.333,1.555,3.948,0.266,6.539   c-0.34,0.683-0.891,1.51-1.771,2.321c1.858,4.201,6.005,8.515,13.728,7.945c4.379-0.319,7.867-2.169,10.432-4.547   c-0.665-0.408-1.193-0.835-1.606-1.229c-2.146-2.045-3.023-4.93-2.347-7.718c0.667-2.752,2.712-4.878,5.47-5.688   c2.383-0.7,3.717,0.075,4.419,0.847c1.431,1.572,1.482,4.648,0.133,8.026c-0.68,1.703-1.737,3.524-3.166,5.224   c2.876,1.007,7.48,1.35,14.692-0.768c7.443-2.188,11.093-5.042,12.867-7.47c-2.777-0.827-4.849-2.456-5.512-4.44   c-0.576-1.725-0.025-3.525,1.554-5.07c1.15-1.124,2.697-1.392,4.138-0.724c2.077,0.967,3.383,3.559,3.178,6.304   c-0.051,0.675-0.218,1.611-0.677,2.697c2.448,0.263,9.501,0.216,14.622-7.571c1.254-1.905,2.205-3.609,2.904-5.119   c-1.737-0.779-3.251-1.876-4.301-3.061c-2.01-2.268-2.203-4.645-0.504-6.206c2.082-1.913,4.85-2.23,6.584-0.754   c0.831,0.707,2.753,3.108,0.532,9.01c2.637,0.745,5.559,0.567,7.788-1.338c2.862-2.449,3.049-8.371,0.454-14.403   c-1.338-3.11-3.616-6.457-6.562-8.425c-0.289,1.167-0.887,2.099-1.896,2.635c-2.734,1.453-5.701,0.706-7.3-0.604   c-1.117-0.915-1.597-2.086-1.284-3.132c0.266-0.886,1.185-2.007,4.061-2.309c1.732-0.185,3.367,0.076,4.875,0.656   c-0.138-1.793-0.727-4.041-1.752-6.444c-0.602-1.413-1.29-2.712-2.01-3.839c-1.132,0.7-2.5,0.914-3.958,0.575   c-2.228-0.518-4.03-2.196-4.102-3.82c-0.025-0.561,0.145-1.943,2.257-2.635c2.011-0.661,4.168,0.799,6.062,3.209   c0.054-0.087,0.108-0.177,0.16-0.272c2.862-5.227-4.245-11.367-4.317-11.428c-0.365-0.312-0.409-0.86-0.099-1.226   c0.312-0.367,0.861-0.409,1.226-0.098c0.339,0.289,8.249,7.134,4.715,13.588c-0.185,0.339-0.393,0.649-0.62,0.93   c0.858,1.32,1.635,2.81,2.286,4.336c1.086,2.547,1.919,5.515,1.91,7.973c3.628,2.107,6.385,6.019,7.945,9.645   c2.445,5.684,3.109,12.963-0.92,16.411c-2.849,2.436-6.443,2.602-9.596,1.64c-0.728,1.594-1.731,3.406-3.084,5.462   c-3.971,6.037-10.17,9.143-16.574,8.307c-0.125-0.016-0.248-0.034-0.371-0.053c-1.84,2.857-5.79,6.263-14.186,8.731   c-8.143,2.393-13.288,1.775-16.445,0.47c-2.861,2.829-6.856,5.078-11.947,5.449C234.79,191.792,234.284,191.811,233.791,191.811z    M248.859,172.304c-0.364,0-0.777,0.068-1.235,0.202c-2.156,0.633-3.753,2.29-4.272,4.43c-0.528,2.177,0.166,4.439,1.857,6.05   c0.409,0.39,0.951,0.813,1.657,1.209c1.465-1.651,2.536-3.453,3.205-5.128c1.066-2.672,1.145-5.168,0.195-6.212   C249.932,172.489,249.461,172.304,248.859,172.304z M220.938,173.849c-0.028,0-0.056,0.003-0.085,0.009   c-0.308,0.065-0.943,1.477-0.547,4.27c0.094,0.667,0.252,1.395,0.481,2.151c0.405-0.46,0.686-0.908,0.881-1.3   c0.913-1.834,0.649-3.752-0.084-4.699C221.455,174.112,221.208,173.849,220.938,173.849z M274.665,167.838   c-0.414,0-0.875,0.149-1.33,0.593c-1.107,1.083-1.484,2.185-1.12,3.276c0.509,1.523,2.358,2.821,4.79,3.443   c0.482-1.02,0.65-1.894,0.696-2.512c0.17-2.274-0.967-4.034-2.178-4.598C275.282,167.928,274.988,167.838,274.665,167.838z    M197.881,161.627c-0.127,0-0.284,0.022-0.481,0.079c-1.319,0.383-2.444,3.168-2.362,6.88c0.805-0.411,1.41-0.965,1.828-1.44   c1.73-1.966,2.069-4.422,1.544-5.25C198.353,161.806,198.239,161.627,197.881,161.627z M295.442,153.563   c-0.898,0-1.913,0.423-2.787,1.225c-1.351,1.24-0.01,3.051,0.629,3.772c0.908,1.025,2.204,1.952,3.677,2.61   c1.457-3.839,1.073-6.156-0.026-7.091C296.528,153.731,296.008,153.563,295.442,153.563z M188.992,150.116   c0.154,0.018,0.312,0.032,0.472,0.045c6.559,0.52,8.095-1.278,8.412-1.839c0.446-0.787,0.059-1.542-0.212-1.921   c-0.635-0.892-2.011-1.652-3.648-1.353C192.563,145.315,190.639,147.327,188.992,150.116z M294.944,135.87   c-0.299,0-0.6,0.016-0.906,0.048c-1.716,0.181-2.456,0.676-2.577,1.078c-0.102,0.34,0.181,0.847,0.72,1.289   c1.167,0.956,3.349,1.495,5.381,0.413c0.601-0.32,0.974-1.016,1.124-1.99C297.519,136.176,296.267,135.87,294.944,135.87z    M187.34,135.187c2.123,0.297,3.794-0.287,4.649-1.64c0.603-0.953,0.601-2.037,0.254-2.494c-0.069-0.091-0.252-0.334-0.839-0.158   C190.499,131.17,188.87,132.883,187.34,135.187z M290.142,120.266c-0.151,0-0.295,0.022-0.433,0.067   c-0.495,0.162-1.082,0.452-1.061,0.907c0.032,0.745,1.219,1.845,2.759,2.202c0.64,0.149,1.633,0.23,2.568-0.307   C292.602,121.353,291.206,120.266,290.142,120.266z"/>
	<g>
		<polygon style="fill:#E9546A;" points="350.784,153.097 416.959,147.175 418.041,163.285 354.194,170.482   "/>
		<path style="fill:#E9546A;" d="M365.843,157.594c0,0-4.358-33.302-17.37-26.221c-13.012,7.081-2.64,61.834,9.293,57.32    C369.699,184.179,365.843,157.594,365.843,157.594z"/>
		<path style="fill:#E9546A;" d="M429.483,151.606c0,0-4.358-33.302-17.37-26.221c-13.012,7.081-2.64,61.834,9.293,57.32    C433.339,178.19,429.483,151.606,429.483,151.606z"/>
		<path style="fill:#251626;" d="M409.585,168.589c-0.222,0-0.444-0.085-0.614-0.254c-4.025-4.011-4.435-19.449-4.451-20.104    c-0.011-0.48,0.368-0.878,0.849-0.89c0.455-0.02,0.878,0.368,0.89,0.849c0.101,4.27,1.007,15.991,3.94,18.914    c0.34,0.339,0.341,0.889,0.002,1.229C410.031,168.504,409.808,168.589,409.585,168.589z"/>
		<path style="fill:#251626;" d="M356.477,183.818c-1.803,0-2.827-2.568-3.449-4.547c-2.968-9.451-4.994-39.455-0.334-41.791    c0.8-0.4,1.692-0.426,2.581-0.076c4.205,1.663,8.063,11.849,8.489,13.006c0.166,0.45-0.065,0.95-0.515,1.117    c-0.452,0.166-0.95-0.065-1.117-0.515c-1.083-2.939-4.543-10.822-7.497-11.99c-0.431-0.171-0.803-0.166-1.161,0.013    c-2.641,1.325-2.348,28.377,1.213,39.716c1.062,3.381,1.845,3.328,1.826,3.327c3.662-0.532,3.409-9.194,3.031-12.187    c-0.06-0.476,0.278-0.911,0.754-0.971c0.475-0.051,0.911,0.278,0.971,0.754c0.171,1.353,1.495,13.253-4.507,14.124    C356.666,183.812,356.57,183.818,356.477,183.818z"/>
		<path style="fill:#251626;" d="M418.811,178.52c-0.201,0-0.386-0.033-0.553-0.083c-4.215-1.26-5.7-19.178-5.759-27.657    c-0.044-6.417,0.447-17.361,4.243-18.553c2.067-0.65,3.873-0.48,5.369,0.503c3.04,2,3.555,6.657,3.575,6.854    c0.049,0.477-0.297,0.903-0.774,0.953c-0.487,0.058-0.905-0.297-0.955-0.773c-0.004-0.041-0.455-4.042-2.806-5.584    c-1.051-0.689-2.326-0.785-3.888-0.295c-1.51,0.475-3.101,5.96-3.025,16.882c0.095,13.684,2.55,25.415,4.519,26.003    c0.165,0.058,0.478-0.178,0.877-0.777c6.022-9.033,4.033-18.312,4.013-18.404c-0.105-0.469,0.189-0.933,0.658-1.038    c0.47-0.104,0.934,0.189,1.038,0.658c0.092,0.408,2.168,10.103-4.262,19.749C420.266,178.18,419.458,178.52,418.811,178.52z"/>
		<path style="fill:#EA8060;" d="M397.756,165.572c0,0,2.234-16.181-0.634-18.336c-2.868-2.155-7.125-7.795-12.568-6.456    s-8.754,5.31-8.754,5.31s-7.062,1.324-7.595,4.146c-0.533,2.822-0.771,18.232,3.468,20.451S396.274,173.68,397.756,165.572z"/>
		<path style="fill:#251626;" d="M376.23,158.182c-0.109,0-0.219-0.02-0.326-0.064c-0.445-0.18-0.66-0.687-0.48-1.132    c1.085-2.681-1.144-8.202-2.094-10.103c-0.215-0.43-0.041-0.952,0.389-1.167c0.43-0.215,0.951-0.042,1.167,0.389    c0.154,0.307,3.751,7.576,2.15,11.533C376.899,157.977,376.574,158.182,376.23,158.182z"/>
		<path style="fill:#251626;" d="M385.607,155.786c-0.474,0-0.862-0.38-0.869-0.856c-0.053-3.328-2.583-9.204-2.608-9.263    c-0.19-0.441,0.012-0.953,0.453-1.144c0.439-0.19,0.953,0.013,1.144,0.453c0.11,0.254,2.692,6.257,2.751,9.927    c0.008,0.48-0.375,0.875-0.856,0.883C385.616,155.786,385.611,155.786,385.607,155.786z"/>
		<path style="fill:#251626;" d="M394.421,155.529c-0.474,0-0.862-0.38-0.869-0.856c-0.053-3.328-2.583-9.204-2.608-9.263    c-0.19-0.441,0.012-0.953,0.453-1.144c0.441-0.19,0.953,0.014,1.144,0.453c0.11,0.254,2.692,6.257,2.751,9.927    c0.008,0.48-0.375,0.875-0.856,0.883C394.43,155.529,394.425,155.529,394.421,155.529z"/>
	</g>
	<g>
		<polygon style="fill:#F7C67C;" points="149.64,184.836 83.909,175.164 81.913,191.186 145.248,201.999   "/>
		<path style="fill:#F7C67C;" d="M134.35,188.47c0,0,6.243-33.001,18.832-25.192s-0.877,61.884-12.534,56.699    C128.99,214.792,134.35,188.47,134.35,188.47z"/>
		<path style="fill:#F7C67C;" d="M71.153,178.875c0,0,6.243-33.001,18.832-25.192s-0.877,61.884-12.534,56.699    C65.793,205.198,71.153,178.875,71.153,178.875z"/>
		<path style="fill:#251626;" d="M90.104,196.963c-0.239,0-0.478-0.098-0.65-0.292c-0.319-0.358-0.287-0.908,0.072-1.227    c3.095-2.752,4.664-14.403,5.007-18.659c0.04-0.478,0.447-0.822,0.937-0.797c0.479,0.039,0.835,0.458,0.797,0.937    c-0.053,0.654-1.34,16.044-5.586,19.819C90.515,196.891,90.309,196.963,90.104,196.963z"/>
		<path style="fill:#251626;" d="M142.318,215.187c-0.127,0-0.257-0.014-0.391-0.041c-5.943-1.211-3.945-13.015-3.698-14.358    c0.087-0.47,0.542-0.777,1.012-0.697c0.472,0.087,0.785,0.54,0.698,1.012c-0.584,3.181-1.304,11.597,2.335,12.339    c0.004-0.007,0.796-0.002,2.01-3.215c4.201-11.118,6.032-38.112,3.469-39.584c-0.349-0.2-0.718-0.226-1.16-0.079    c-3.018,0.999-6.917,8.672-8.165,11.545c-0.191,0.439-0.706,0.644-1.144,0.451c-0.441-0.191-0.643-0.703-0.451-1.144    c0.491-1.13,4.92-11.081,9.213-12.502c0.907-0.301,1.798-0.223,2.573,0.222c4.521,2.598,0.793,32.439-2.708,41.707    C145.193,212.743,144.057,215.187,142.318,215.187z"/>
		<path style="fill:#251626;" d="M80.384,206.356c-0.665,0-1.498-0.356-2.282-1.69c-5.872-9.996-3.248-19.558-3.134-19.961    c0.131-0.462,0.615-0.73,1.073-0.598c0.462,0.132,0.73,0.612,0.599,1.073c-0.025,0.092-2.522,9.273,2.961,18.604    c0.364,0.62,0.678,0.865,0.831,0.826c2-0.476,5.117-12.052,5.988-25.713c0.695-10.895-0.582-16.459-2.062-17.018    c-1.535-0.581-2.809-0.556-3.898,0.073c-2.435,1.405-3.113,5.375-3.119,5.415c-0.078,0.474-0.523,0.796-0.998,0.718    c-0.474-0.077-0.796-0.522-0.719-0.996c0.031-0.196,0.81-4.816,3.96-6.64c1.549-0.898,3.362-0.964,5.388-0.198    c3.534,1.335,3.681,10.936,3.182,18.755c-0.54,8.465-3.04,26.275-7.321,27.294C80.697,206.335,80.546,206.356,80.384,206.356z"/>
		<path style="fill:#EA8060;" d="M102.035,194.621c0,0-1.311-16.282,1.675-18.27s7.556-7.378,12.914-5.731    c5.358,1.646,8.439,5.799,8.439,5.799s6.975,1.723,7.348,4.571s-0.266,18.246-4.624,20.221    C123.428,203.186,103.054,202.801,102.035,194.621z"/>
		<path style="fill:#251626;" d="M123.995,188.468c-0.363,0-0.7-0.228-0.823-0.589c-1.375-4.042,2.63-11.095,2.802-11.394    c0.238-0.415,0.77-0.561,1.186-0.321c0.417,0.239,0.56,0.77,0.322,1.186c-1.056,1.844-3.595,7.231-2.664,9.968    c0.155,0.455-0.088,0.948-0.543,1.103C124.182,188.454,124.088,188.468,123.995,188.468z"/>
		<path style="fill:#251626;" d="M114.771,185.544c-0.021,0-0.042-0.001-0.064-0.003c-0.479-0.035-0.839-0.451-0.804-0.93    c0.267-3.662,3.187-9.509,3.31-9.756c0.216-0.429,0.734-0.602,1.167-0.386c0.429,0.216,0.602,0.738,0.386,1.167    c-0.029,0.057-2.889,5.784-3.13,9.1C115.604,185.195,115.223,185.544,114.771,185.544z"/>
		<path style="fill:#251626;" d="M105.986,184.786c-0.021,0-0.042-0.001-0.064-0.003c-0.479-0.035-0.839-0.451-0.804-0.93    c0.267-3.662,3.187-9.509,3.31-9.756c0.216-0.43,0.735-0.602,1.167-0.386c0.429,0.216,0.602,0.738,0.386,1.167    c-0.029,0.057-2.888,5.784-3.13,9.1C106.819,184.437,106.438,184.786,105.986,184.786z"/>
	</g>
	<path style="fill:#EA8060;" d="M397.756,165.572c0,0,37.402,85.377,28.234,97.173c-9.168,11.796-94.612-0.787-94.612-0.787   l10.194-57.18c0,0,60.124,27.897,55.399,33.701c-4.912,6.035-20.036-67.997-20.036-67.997L397.756,165.572z"/>
	<path style="fill:#EA8060;" d="M127.786,201.211c0,0,3.819,91.524-13.611,81.961c-8.689-4.767,75.916-56.737,75.916-56.737   l2.217,62.231c0,0-82.655,27.544-95.176,23.197c-12.52-4.347,13.97-113.649,13.97-113.649L127.786,201.211z"/>
	<path style="fill:#C083AF;" d="M319.939,263.863l50.209,1.639l1.016-54.46c0,0-52.792-13.993-82.523-10.752L319.939,263.863z"/>
	<path style="fill:#C083AF;" d="M157.507,236.222l12.322,64.338l91.385-30.162l-31.226-62.757   C229.988,207.642,180.845,218.833,157.507,236.222z"/>
	<path style="fill:#251626;" d="M207.022,60.844c-0.412,0-0.778-0.294-0.854-0.713c-0.103-0.562-2.435-13.833,3.864-20.437   c2.795-2.93,6.831-4.068,11.979-3.378c14.467,1.935,28.74-3.247,32.51-9.107c1.267-1.968,1.324-3.9,0.169-5.74   c-0.255-0.407-0.132-0.943,0.275-1.199c0.406-0.256,0.942-0.132,1.199,0.275c1.522,2.427,1.46,5.057-0.181,7.605   c-4.138,6.432-18.869,11.941-34.203,9.89c-4.57-0.611-8.101,0.349-10.49,2.854c-5.695,5.971-3.435,18.796-3.412,18.925   c0.087,0.473-0.227,0.925-0.699,1.011C207.127,60.84,207.074,60.844,207.022,60.844z"/>
	<path style="fill:#251626;" d="M246.388,47.989c-0.363,0-0.701-0.228-0.824-0.591c-0.154-0.455,0.09-0.948,0.545-1.102   c0.129-0.044,13.074-4.402,24.402-6.657c4.312-0.858,7.119-4.67,7.512-10.195c0.403-5.678-2.088-12.446-7.631-14.397   c-0.453-0.16-0.691-0.655-0.532-1.109c0.159-0.454,0.656-0.693,1.109-0.532c6.365,2.24,9.239,9.825,8.789,16.16   c-0.445,6.26-3.858,10.773-8.907,11.777c-11.219,2.233-24.056,6.556-24.185,6.599C246.574,47.974,246.481,47.989,246.388,47.989z"/>
	<path style="fill:#251626;" d="M270.681,51.089c-0.411,0-0.776-0.293-0.854-0.712c-0.087-0.471,0.225-0.925,0.697-1.013   c0.785-0.146,19.204-3.743,17.255-18.578c-0.063-0.475,0.273-0.913,0.749-0.975c0.472-0.073,0.913,0.273,0.975,0.749   c2.164,16.473-18.454,20.476-18.663,20.514C270.786,51.084,270.733,51.089,270.681,51.089z"/>
	<path style="fill:#251626;" d="M398.82,209.713c-0.107,0-0.216-0.02-0.321-0.061c-0.447-0.177-0.664-0.684-0.487-1.129   c0.374-0.94-0.634-3.445-1.47-4.923c-0.236-0.418-0.089-0.948,0.329-1.184c0.418-0.236,0.948-0.089,1.184,0.328   c0.405,0.715,2.382,4.385,1.573,6.421C399.492,209.506,399.165,209.713,398.82,209.713z"/>
	<path style="fill:#251626;" d="M397.965,199.057c-0.107,0-0.217-0.02-0.322-0.062c-0.446-0.177-0.664-0.683-0.486-1.129   c0.37-0.931-0.658-3.487-1.471-4.921c-0.237-0.419-0.09-0.948,0.328-1.185c0.419-0.235,0.948-0.088,1.185,0.328   c0.405,0.716,2.384,4.385,1.572,6.422C398.638,198.85,398.311,199.057,397.965,199.057z"/>
	<path style="fill:#251626;" d="M406.706,209.39c-0.107,0-0.216-0.02-0.322-0.062c-0.446-0.177-0.664-0.683-0.486-1.129   c0.374-0.939-0.634-3.444-1.47-4.922c-0.236-0.418-0.089-0.948,0.329-1.184c0.417-0.236,0.949-0.089,1.184,0.328   c0.405,0.715,2.383,4.385,1.572,6.422C407.378,209.183,407.051,209.39,406.706,209.39z"/>
	<path style="fill:#251626;" d="M413.26,223.73c-0.107,0-0.216-0.02-0.322-0.062c-0.446-0.177-0.664-0.683-0.486-1.129   c0.374-0.939-0.635-3.444-1.471-4.922c-0.236-0.418-0.089-0.948,0.329-1.184c0.417-0.235,0.948-0.088,1.184,0.328   c0.405,0.715,2.384,4.385,1.572,6.422C413.933,223.523,413.606,223.73,413.26,223.73z"/>
	<path style="fill:#251626;" d="M399.647,188.934c-0.107,0-0.216-0.02-0.322-0.062c-0.446-0.177-0.664-0.683-0.486-1.129   c0.374-0.939-0.634-3.444-1.47-4.922c-0.236-0.418-0.089-0.948,0.329-1.184c0.418-0.236,0.948-0.089,1.184,0.328   c0.405,0.715,2.383,4.385,1.572,6.422C400.32,188.727,399.993,188.934,399.647,188.934z"/>
	<path style="fill:#251626;" d="M405.845,196.248c-0.107,0-0.217-0.02-0.322-0.062c-0.446-0.177-0.664-0.683-0.486-1.129   c0.37-0.931-0.658-3.487-1.471-4.921c-0.237-0.419-0.09-0.948,0.328-1.185c0.419-0.236,0.949-0.089,1.185,0.328   c0.405,0.716,2.384,4.385,1.572,6.422C406.517,196.041,406.19,196.248,405.845,196.248z"/>
	<path style="fill:#251626;" d="M406.746,222.619c-0.107,0-0.217-0.02-0.322-0.062c-0.446-0.177-0.664-0.683-0.486-1.129   c0.374-0.938-0.635-3.443-1.47-4.922c-0.236-0.418-0.089-0.948,0.329-1.184c0.419-0.238,0.948-0.089,1.184,0.329   c0.405,0.715,2.383,4.385,1.572,6.421C407.419,222.412,407.092,222.619,406.746,222.619z"/>
	<path style="fill:#251626;" d="M117.437,237.952c-0.301,0-0.593-0.156-0.755-0.436c-1.093-1.901,0.341-5.815,0.64-6.58   c0.175-0.447,0.683-0.669,1.126-0.494c0.447,0.174,0.668,0.678,0.494,1.126c-0.616,1.583-1.257,4.205-0.752,5.081   c0.239,0.417,0.096,0.948-0.32,1.188C117.734,237.915,117.584,237.952,117.437,237.952z"/>
	<path style="fill:#251626;" d="M116.762,227.284c-0.301,0-0.593-0.156-0.755-0.436c-1.093-1.901,0.341-5.815,0.64-6.58   c0.175-0.447,0.682-0.669,1.126-0.494c0.447,0.174,0.668,0.678,0.494,1.126c-0.616,1.583-1.257,4.205-0.752,5.081   c0.239,0.417,0.096,0.948-0.32,1.188C117.059,227.246,116.909,227.284,116.762,227.284z"/>
	<path style="fill:#251626;" d="M109.585,238.758c-0.301,0-0.593-0.156-0.755-0.436c-1.093-1.901,0.341-5.815,0.64-6.58   c0.174-0.448,0.681-0.668,1.126-0.494c0.447,0.174,0.668,0.678,0.494,1.126c-0.616,1.583-1.257,4.205-0.752,5.081   c0.239,0.417,0.096,0.948-0.32,1.188C109.882,238.72,109.732,238.758,109.585,238.758z"/>
	<path style="fill:#251626;" d="M105.145,253.886c-0.301,0-0.593-0.156-0.755-0.436c-1.093-1.901,0.341-5.815,0.64-6.58   c0.175-0.448,0.679-0.67,1.126-0.494c0.447,0.174,0.668,0.678,0.494,1.126c-0.616,1.583-1.257,4.205-0.752,5.081   c0.239,0.417,0.096,0.948-0.32,1.188C105.441,253.849,105.292,253.886,105.145,253.886z"/>
	<path style="fill:#251626;" d="M113.652,217.504c-0.301,0-0.593-0.156-0.755-0.436c-1.093-1.901,0.341-5.815,0.64-6.58   c0.175-0.448,0.679-0.67,1.126-0.494c0.447,0.174,0.668,0.678,0.494,1.126c-0.616,1.583-1.257,4.205-0.752,5.081   c0.239,0.417,0.096,0.948-0.32,1.188C113.949,217.467,113.799,217.504,113.652,217.504z"/>
	<path style="fill:#251626;" d="M108.563,225.628c-0.301,0-0.593-0.156-0.755-0.436c-1.094-1.901,0.341-5.816,0.64-6.581   c0.174-0.447,0.681-0.669,1.126-0.494c0.447,0.175,0.668,0.678,0.494,1.126c-0.616,1.583-1.257,4.205-0.752,5.082   c0.239,0.416,0.096,0.948-0.32,1.188C108.859,225.59,108.71,225.628,108.563,225.628z"/>
	<path style="fill:#251626;" d="M111.433,251.857c-0.301,0-0.593-0.156-0.755-0.436c-1.093-1.901,0.341-5.815,0.64-6.58   c0.175-0.448,0.679-0.67,1.126-0.494c0.447,0.174,0.668,0.678,0.494,1.126c-0.616,1.583-1.257,4.205-0.752,5.081   c0.239,0.417,0.096,0.948-0.32,1.188C111.729,251.82,111.58,251.857,111.433,251.857z"/>
	<path style="fill:#251626;" d="M312.692,275.283c-0.2,0-0.4-0.068-0.564-0.208c-0.366-0.311-0.409-0.86-0.098-1.225   c1.133-1.33,0.852-5.611,0.408-7.996c-0.087-0.472,0.224-0.925,0.696-1.014c0.472-0.086,0.925,0.223,1.014,0.695   c0.133,0.715,1.242,7.051-0.796,9.442C313.182,275.18,312.937,275.283,312.692,275.283z"/>
	<path style="fill:#251626;" d="M340.767,211.094c-0.221,0-0.441-0.084-0.611-0.251c-1.241-1.228-5.529-1.263-7.944-1.002   c-0.475,0.055-0.907-0.292-0.959-0.769s0.292-0.907,0.769-0.959c0.72-0.081,7.122-0.715,9.357,1.494   c0.341,0.338,0.345,0.888,0.007,1.229C341.215,211.008,340.991,211.094,340.767,211.094z"/>
	<path style="fill:#251626;" d="M335.702,218.749c-0.221,0-0.442-0.084-0.611-0.251c-1.24-1.228-5.528-1.265-7.944-1.002   c-0.478,0.051-0.907-0.292-0.959-0.769s0.292-0.907,0.769-0.959c0.72-0.081,7.122-0.715,9.357,1.494   c0.341,0.338,0.345,0.888,0.007,1.229C336.151,218.663,335.926,218.749,335.702,218.749z"/>
	<path style="fill:#251626;" d="M326.107,210.403c-0.221,0-0.442-0.084-0.611-0.251c-1.246-1.231-5.535-1.27-7.944-1.003   c-0.487,0.045-0.907-0.293-0.959-0.769c-0.053-0.477,0.292-0.907,0.769-0.959c0.722-0.08,7.124-0.714,9.357,1.495   c0.341,0.338,0.345,0.888,0.007,1.229C326.555,210.318,326.331,210.403,326.107,210.403z"/>
	<path style="fill:#251626;" d="M205.079,221.828c-0.323,0-0.632-0.18-0.783-0.489c-0.21-0.431-0.031-0.952,0.402-1.162   c0.655-0.317,6.473-3.068,9.313-1.742c0.436,0.203,0.623,0.721,0.42,1.156c-0.202,0.435-0.72,0.623-1.156,0.42   c-1.593-0.74-5.637,0.668-7.817,1.73C205.336,221.8,205.206,221.828,205.079,221.828z"/>
	<path style="fill:#251626;" d="M198.187,231.12c-0.323,0-0.632-0.18-0.783-0.489c-0.21-0.431-0.031-0.952,0.402-1.162   c0.653-0.317,6.466-3.07,9.313-1.742c0.435,0.203,0.623,0.72,0.42,1.156c-0.203,0.436-0.718,0.623-1.156,0.42   c-1.586-0.736-5.636,0.669-7.817,1.73C198.444,231.092,198.314,231.12,198.187,231.12z"/>
	<path style="fill:#251626;" d="M186.031,228.295c-0.323,0-0.632-0.18-0.783-0.489c-0.21-0.431-0.031-0.952,0.402-1.162   c0.654-0.317,6.474-3.071,9.313-1.742c0.436,0.203,0.623,0.721,0.42,1.156c-0.202,0.436-0.72,0.624-1.156,0.42   c-1.591-0.744-5.638,0.668-7.817,1.73C186.288,228.267,186.158,228.295,186.031,228.295z"/>
	<path style="fill:#251626;" d="M182.605,236.047c-0.323,0-0.632-0.18-0.783-0.489c-0.21-0.431-0.031-0.952,0.402-1.162   c0.654-0.318,6.474-3.071,9.313-1.742c0.436,0.203,0.623,0.721,0.42,1.156c-0.203,0.435-0.717,0.623-1.156,0.42   c-1.591-0.741-5.638,0.669-7.817,1.73C182.862,236.019,182.732,236.047,182.605,236.047z"/>
	<path style="fill:#251626;" d="M169.822,236.853c-0.323,0-0.632-0.18-0.783-0.489c-0.21-0.431-0.031-0.952,0.402-1.162   c0.655-0.317,6.471-3.068,9.313-1.742c0.436,0.203,0.623,0.721,0.42,1.156c-0.202,0.435-0.719,0.622-1.156,0.42   c-1.592-0.741-5.637,0.668-7.817,1.73C170.079,236.825,169.949,236.853,169.822,236.853z"/>
	<path style="fill:#251626;" d="M351.097,218.644c-0.221,0-0.442-0.084-0.611-0.251c-1.243-1.23-5.532-1.269-7.944-1.003   c-0.49,0.053-0.907-0.292-0.959-0.769c-0.053-0.477,0.292-0.907,0.769-0.959c0.72-0.08,7.124-0.715,9.357,1.495   c0.341,0.338,0.345,0.888,0.007,1.229C351.545,218.559,351.321,218.644,351.097,218.644z"/>
	<path style="fill:#251626;" d="M372.954,413.87c-0.2,0-0.4-0.068-0.564-0.207c-0.365-0.312-0.409-0.861-0.098-1.226   c1.135-1.332,0.853-5.611,0.408-7.996c-0.087-0.472,0.223-0.926,0.695-1.015c0.478-0.082,0.926,0.224,1.015,0.695   c0.133,0.715,1.242,7.051-0.794,9.442C373.444,413.767,373.199,413.87,372.954,413.87z"/>
	<path style="fill:#251626;" d="M380.946,405.151c-0.2,0-0.4-0.068-0.564-0.207c-0.365-0.312-0.409-0.86-0.098-1.226   c1.135-1.332,0.853-5.611,0.408-7.996c-0.087-0.472,0.223-0.926,0.695-1.015c0.479-0.082,0.926,0.224,1.015,0.695   c0.133,0.715,1.242,7.051-0.794,9.442C381.436,405.048,381.191,405.151,380.946,405.151z"/>
	<path style="fill:#251626;" d="M372.452,398.075c-0.2,0-0.4-0.068-0.564-0.207c-0.365-0.312-0.409-0.86-0.098-1.226   c1.135-1.332,0.853-5.611,0.408-7.996c-0.087-0.472,0.223-0.926,0.695-1.015c0.479-0.087,0.926,0.223,1.015,0.695   c0.133,0.715,1.242,7.051-0.794,9.442C372.942,397.971,372.697,398.075,372.452,398.075z"/>
	<path style="fill:#251626;" d="M377.705,387.754c-0.2,0-0.4-0.068-0.564-0.207c-0.365-0.312-0.409-0.86-0.099-1.226   c1.135-1.332,0.853-5.611,0.408-7.996c-0.087-0.472,0.223-0.926,0.695-1.015c0.475-0.084,0.926,0.224,1.015,0.695   c0.133,0.715,1.242,7.051-0.794,9.442C378.195,387.65,377.951,387.754,377.705,387.754z"/>
	<path style="fill:#251626;" d="M381.448,420.452c-0.2,0-0.4-0.068-0.564-0.207c-0.365-0.312-0.409-0.861-0.098-1.226   c1.135-1.333,0.853-5.612,0.408-7.996c-0.087-0.472,0.223-0.926,0.695-1.015c0.478-0.084,0.926,0.224,1.015,0.695   c0.133,0.715,1.242,7.052-0.794,9.443C381.938,420.348,381.693,420.452,381.448,420.452z"/>
	<path style="fill:#251626;" d="M373.455,431.167c-0.199,0-0.399-0.068-0.563-0.207c-0.365-0.312-0.409-0.861-0.098-1.226   c1.135-1.333,0.853-5.612,0.408-7.996c-0.087-0.472,0.223-0.927,0.695-1.014c0.477-0.092,0.926,0.224,1.015,0.695   c0.133,0.715,1.242,7.052-0.794,9.443C373.946,431.064,373.701,431.167,373.455,431.167z"/>
	<path style="fill:#251626;" d="M380.444,438.627c-0.2,0-0.4-0.068-0.564-0.207c-0.365-0.312-0.409-0.861-0.098-1.226   c1.135-1.333,0.853-5.612,0.408-7.996c-0.087-0.472,0.223-0.927,0.695-1.014c0.48-0.09,0.927,0.222,1.015,0.695   c0.133,0.715,1.242,7.052-0.794,9.443C380.934,438.523,380.69,438.627,380.444,438.627z"/>
	<path style="fill:#251626;" d="M220.657,452.001c-1.005,0-1.938-0.156-2.644-0.569c-0.414-0.243-0.554-0.774-0.312-1.189   c0.243-0.414,0.774-0.557,1.19-0.312c1.512,0.883,5.674-0.148,7.944-1.002c0.451-0.165,0.95,0.058,1.12,0.506   c0.17,0.45-0.057,0.951-0.507,1.121C226.945,450.746,223.509,452.001,220.657,452.001z"/>
	<path style="fill:#251626;" d="M230.643,458.339c-1.004,0-1.936-0.156-2.642-0.569c-0.414-0.243-0.554-0.774-0.312-1.189   c0.243-0.413,0.773-0.555,1.19-0.312c1.509,0.881,5.674-0.146,7.944-1.004c0.449-0.168,0.951,0.058,1.12,0.506   c0.17,0.45-0.057,0.951-0.506,1.121C236.933,457.082,233.496,458.339,230.643,458.339z"/>
	<path style="fill:#251626;" d="M236.118,448.734c-1.004,0-1.936-0.156-2.642-0.569c-0.414-0.243-0.554-0.774-0.312-1.189   c0.242-0.414,0.773-0.557,1.19-0.312c1.507,0.88,5.675-0.146,7.944-1.004c0.449-0.168,0.949,0.058,1.12,0.506   c0.17,0.45-0.057,0.951-0.506,1.121C242.408,447.478,238.971,448.734,236.118,448.734z"/>
	<path style="fill:#251626;" d="M247.201,452.093c-1.004,0-1.936-0.156-2.642-0.569c-0.414-0.243-0.554-0.774-0.312-1.189   c0.242-0.414,0.774-0.557,1.19-0.312c1.513,0.886,5.674-0.148,7.943-1.004c0.449-0.168,0.951,0.058,1.121,0.506   c0.17,0.45-0.057,0.951-0.506,1.121C253.49,450.836,250.053,452.093,247.201,452.093z"/>
	<path style="fill:#251626;" d="M215.669,461.519c-1.004,0-1.936-0.156-2.642-0.569c-0.414-0.243-0.554-0.774-0.312-1.189   c0.242-0.414,0.774-0.559,1.19-0.312c1.51,0.885,5.674-0.146,7.942-1.004c0.447-0.166,0.951,0.058,1.121,0.506   c0.17,0.45-0.057,0.951-0.506,1.121C221.958,460.263,218.521,461.519,215.669,461.519z"/>
	<path style="fill:#251626;" d="M203.719,455.532c-1.005,0-1.938-0.156-2.644-0.569c-0.414-0.243-0.554-0.776-0.312-1.19   c0.244-0.414,0.776-0.552,1.19-0.311c1.507,0.885,5.673-0.148,7.943-1.002c0.448-0.166,0.95,0.056,1.12,0.506   c0.17,0.45-0.057,0.951-0.506,1.121C210.006,454.277,206.571,455.532,203.719,455.532z"/>
	<path style="fill:#251626;" d="M197.602,463.722c-1.005,0-1.938-0.156-2.645-0.569c-0.414-0.243-0.554-0.774-0.312-1.19   c0.243-0.413,0.775-0.55,1.19-0.311c1.506,0.881,5.673-0.148,7.944-1.002c0.448-0.165,0.95,0.058,1.12,0.506   c0.17,0.45-0.057,0.951-0.506,1.121C203.889,462.467,200.455,463.722,197.602,463.722z"/>
	<path style="fill:#251626;" d="M359.747,215.184c-0.221,0-0.442-0.084-0.611-0.251c-1.245-1.232-5.532-1.27-7.944-1.002   c-0.485,0.048-0.908-0.293-0.959-0.769c-0.053-0.477,0.292-0.907,0.769-0.959c0.723-0.08,7.124-0.715,9.357,1.494   c0.341,0.338,0.345,0.888,0.007,1.229C360.195,215.098,359.971,215.184,359.747,215.184z"/>
	<path style="fill:#251626;" d="M304.264,287.258c-0.2,0-0.4-0.068-0.564-0.208c-0.366-0.311-0.409-0.86-0.098-1.225   c1.133-1.33,0.852-5.611,0.408-7.996c-0.087-0.472,0.224-0.925,0.696-1.014c0.473-0.082,0.925,0.224,1.014,0.695   c0.133,0.715,1.242,7.052-0.796,9.442C304.754,287.155,304.51,287.258,304.264,287.258z"/>
	<path style="fill:#251626;" d="M316.453,289.547c-0.2,0-0.4-0.068-0.564-0.207c-0.366-0.312-0.409-0.861-0.098-1.226   c1.133-1.33,0.852-5.611,0.409-7.996c-0.087-0.472,0.224-0.925,0.696-1.014c0.471-0.082,0.926,0.224,1.014,0.696   c0.132,0.714,1.241,7.051-0.795,9.442C316.943,289.443,316.699,289.547,316.453,289.547z"/>
	<path style="fill:#251626;" d="M308.476,301.43c-0.2,0-0.4-0.068-0.564-0.208c-0.366-0.311-0.409-0.86-0.098-1.225   c1.135-1.333,0.853-5.611,0.409-7.996c-0.087-0.472,0.224-0.925,0.696-1.014c0.47-0.085,0.925,0.224,1.014,0.696   c0.132,0.714,1.241,7.051-0.796,9.442C308.966,301.327,308.722,301.43,308.476,301.43z"/>
	<path style="fill:#251626;" d="M303.762,313.316c-0.2,0-0.4-0.068-0.564-0.208c-0.366-0.311-0.409-0.86-0.099-1.225   c1.133-1.33,0.852-5.611,0.409-7.996c-0.087-0.472,0.224-0.925,0.696-1.014c0.474-0.082,0.925,0.224,1.014,0.696   c0.132,0.714,1.241,7.051-0.796,9.442C304.252,313.212,304.008,313.316,303.762,313.316z"/>
	<path style="fill:#251626;" d="M316.955,308.957c-0.2,0-0.4-0.068-0.564-0.207c-0.365-0.312-0.409-0.86-0.098-1.226   c1.135-1.332,0.853-5.611,0.409-7.996c-0.087-0.472,0.224-0.925,0.696-1.014c0.47-0.082,0.925,0.224,1.014,0.696   c0.132,0.714,1.241,7.051-0.795,9.442C317.445,308.853,317.2,308.957,316.955,308.957z"/>
	<path style="fill:#251626;" d="M314.16,321.994c-0.136,0-0.274-0.032-0.403-0.099c-0.425-0.224-0.589-0.75-0.366-1.174   c0.814-1.55-0.402-5.661-1.36-7.89c-0.189-0.441,0.014-0.952,0.456-1.142c0.439-0.187,0.952,0.014,1.142,0.456   c0.287,0.667,2.763,6.605,1.302,9.385C314.775,321.825,314.472,321.994,314.16,321.994z"/>
	<path style="fill:#251626;" d="M325.998,265.912c-0.011,0-0.021,0-0.031-0.001c-0.48-0.017-0.855-0.419-0.838-0.899   c0.756-21.491-10.6-50.089-10.714-50.375c-0.179-0.446,0.037-0.952,0.483-1.13c0.445-0.181,0.952,0.037,1.13,0.483   c0.116,0.29,11.607,29.221,10.838,51.083C326.849,265.543,326.464,265.912,325.998,265.912z"/>
	<path style="fill:#251626;" d="M205.834,289.547c-0.315,0-0.619-0.172-0.773-0.47c-0.087-0.171-8.756-17.257-6.42-37.744   c0.053-0.476,0.471-0.829,0.962-0.765c0.477,0.054,0.819,0.485,0.765,0.962c-2.276,19.968,6.152,36.583,6.238,36.749   c0.22,0.427,0.053,0.952-0.374,1.172C206.104,289.515,205.968,289.547,205.834,289.547z"/>
	<path style="fill:#251626;" d="M265.94,347.43c-3.866,0-7.829-0.252-11.871-0.816c-0.475-0.066-0.807-0.505-0.741-0.981   c0.065-0.476,0.5-0.814,0.981-0.741c31.909,4.442,57.974-10.427,65.468-15.87c-14.726,3.538-81.679,11.32-84.711,11.672   c-0.477,0.059-0.909-0.286-0.964-0.763c-0.055-0.477,0.286-0.909,0.763-0.964c0.791-0.092,79.195-9.205,86.5-12.215   c0.504-0.209,1.442-0.594,2.001,0.021c0.111,0.123,0.449,0.576,0.1,1.237C322.088,330.623,297.439,347.429,265.94,347.43z"/>
	<path style="fill:#251626;" d="M262.095,229.554c-0.31,0-0.62-0.01-0.936-0.03c-15.115-0.956-34.275-13.94-35.083-14.493   c-0.396-0.271-0.498-0.812-0.228-1.208c0.272-0.396,0.813-0.498,1.209-0.228c0.194,0.133,19.577,13.267,34.212,14.193   c14.187,0.916,22.599-22.357,22.682-22.593c0.16-0.452,0.656-0.689,1.11-0.531c0.453,0.16,0.69,0.656,0.531,1.11   C285.243,206.763,277.03,229.554,262.095,229.554z"/>
	<path style="fill:#251626;" d="M399.782,254.898c-0.197,0-0.395-0.067-0.558-0.204c-7.323-6.145-7.535-24.664-7.54-25.45   c-0.003-0.48,0.383-0.872,0.863-0.875c0.002,0,0.004,0,0.006,0c0.477,0,0.866,0.385,0.869,0.863   c0.002,0.184,0.21,18.499,6.918,24.13c0.368,0.308,0.416,0.857,0.107,1.224C400.277,254.793,400.031,254.898,399.782,254.898z"/>
	<path style="fill:#251626;" d="M121.831,293.297c-0.115,0-0.231-0.022-0.343-0.07c-0.441-0.189-0.645-0.7-0.456-1.142   c1.186-2.765,3.126-20.709,3.774-27.391c0.047-0.477,0.467-0.829,0.949-0.781c0.478,0.046,0.828,0.471,0.781,0.949   c-0.096,0.992-2.371,24.33-3.907,27.909C122.489,293.1,122.168,293.297,121.831,293.297z"/>
</g>















</svg>
