<?xml version="1.0" encoding="UTF-8"?>
<!-- Generator: Adobe Illustrator 25.1.0, SVG Export Plug-In . SVG Version: 6.00 Build 0)  -->
<svg xmlns="http://www.w3.org/2000/svg" xmlns:xlink="http://www.w3.org/1999/xlink" version="1.1" id="Capa_1" x="0px" y="0px" viewBox="0 0 500 500" style="enable-background:new 0 0 500 500;" xml:space="preserve" width="512" height="512">
<g>
	<g>
		<path style="fill:#E9546A;" d="M154.68,78.317c0,0-21.011-10.991-13.518-24.432c7.493-13.441,21.71-3.035,13.518,0    c-8.192,3.035-13.883-29.918,1.103-30.785s18.197,11.273,9.437,9.973c-8.76-1.301,2.778-30.785,24.174-26.015    c11.877,2.648,13.041,21.246,5.229,16.043s2.73-27.032,25.276-21.246s17.732,24.715,9.484,19.945S231.939,0.12,248.832,6.19    s18.882,28.549,9.216,24.247c-9.666-4.302,7.837-18.177,19.464-7.337c11.627,10.84,10.114,27.718,3.933,25.999    c-6.181-1.718,6.472-15.593,13.153-4.754s0.177,34.253-8.494,29.918c-8.672-4.336,6.149-6.504,8.494,0.867    c2.345,7.371,0.175,19.982-17.086,19.621"/>
		<path style="fill:#251626;" d="M278.22,95.662c-0.24,0-0.482-0.002-0.729-0.007c-0.498-0.011-0.894-0.423-0.884-0.923    c0.011-0.492,0.413-0.884,0.903-0.884c0.005,0,0.012,0,0.019,0c6.648,0.132,11.653-1.752,14.432-5.471    c3.056-4.088,2.865-9.543,1.775-12.973c-0.228-0.713-0.595-1.321-1.055-1.837c-2.122,2.161-4.587,2.699-6.983,1.505    c-2.357-1.179-3.419-2.41-3.158-3.657c0.247-1.173,1.586-1.905,3.675-2.013c1.768-0.092,4.24,0.348,6.228,1.625    c4.231-5.974,5.729-19.16,1.385-26.207c-2.152-3.491-4.753-3.937-6.752-3.566c0.088,2.653-0.356,4.94-1.24,6.517    c-1.073,1.915-2.754,2.715-4.633,2.198c-1.468-0.408-2.311-1.45-2.316-2.86c-0.009-2.646,2.906-5.905,6.295-7.19    c-0.549-5.051-3.105-11.329-8.287-16.159c-4.767-4.444-9.972-4.117-13.056-3.331c0.332,1.026,0.575,2.038,0.727,3.016    c0.549,3.537-0.127,6.324-1.856,7.646c-0.905,0.696-2.512,1.291-5.03,0.172c-2.922-1.3-3.347-3.293-3.342-4.365    c0.016-2.723,2.675-5.695,6.616-7.396c0.176-0.077,0.355-0.15,0.533-0.22c-2.094-4.932-6.426-9.894-12.96-12.242    c-6.39-2.296-11.584-1.169-15.201,1.084c2.646,2.876,3.432,5.644,3.657,6.883c0.588,3.198-0.342,6.186-2.368,7.614    c-1.611,1.134-3.682,1.119-5.685-0.041c-3.276-1.894-4.188-5.715-2.322-9.734c0.852-1.836,2.177-3.539,3.881-4.951    c-2.313-1.96-5.741-3.865-10.815-5.167c-11.016-2.827-19.441,1.254-23.707,6.969c2.341,2.318,3.797,5.358,4.314,8.175    c0.566,3.091-0.018,5.545-1.565,6.564c-0.856,0.562-2.345,0.916-4.596-0.586c-3.232-2.152-3.892-6.746-1.681-11.703    c0.323-0.727,0.704-1.447,1.14-2.149c-1.244-0.957-2.706-1.688-4.382-2.062c-10.056-2.241-16.851,3.499-20.016,7.119    c-2.329,2.661-3.973,5.571-4.945,8.226c3.056,1.115,5.037,2.888,5.977,4.556c0.917,1.629,0.965,3.329,0.127,4.547    c-0.55,0.801-1.967,2.069-5.252,1.58c-1.572-0.234-2.712-1.194-3.294-2.78c-0.644-1.749-0.536-4.128,0.175-6.713    c-1.72-0.413-3.761-0.605-6.133-0.472c-3.363,0.195-5.789,2.167-7.207,5.862c-1.858,4.837-1.514,11.636,0.019,16.665    c1.914-0.425,3.5-0.198,4.273-0.025c2.879,0.646,4.984,2.518,5.12,4.551c0.051,0.747-0.146,2.601-3.049,3.677    c-1.133,0.422-2.872,0.533-4.714-1.331c-1.044-1.057-1.978-2.668-2.733-4.611c-1.826,0.79-3.844,2.397-5.595,5.535    c-1.554,2.788-1.9,5.685-1.029,8.611c2.5,8.382,14.058,14.52,14.174,14.58c0.443,0.233,0.614,0.778,0.383,1.219    c-0.233,0.445-0.78,0.61-1.219,0.383c-0.503-0.263-12.347-6.546-15.067-15.662c-1.018-3.411-0.621-6.78,1.18-10.011    c2.022-3.627,4.404-5.477,6.576-6.378c-1.66-5.401-2.034-12.573-0.007-17.851c1.673-4.355,4.712-6.782,8.788-7.017    c2.611-0.151,4.864,0.081,6.787,0.561c1.101-3.02,2.941-6.192,5.303-8.892c3.432-3.92,10.829-10.139,21.768-7.691    c1.916,0.427,3.59,1.254,5.014,2.335c4.675-6.172,13.747-10.553,25.52-7.532c5.591,1.434,9.34,3.596,11.852,5.823    c4.3-2.799,10.388-3.896,17.161-1.463c7.108,2.555,11.807,7.983,14.063,13.37c5.314-1.471,10.764-0.152,14.926,3.73    c5.466,5.094,8.176,11.593,8.813,17.006c2.292-0.368,5.72,0.034,8.428,4.427c4.776,7.75,3.16,21.775-1.519,28.296    c0.702,0.725,1.269,1.614,1.611,2.689c1.279,4.021,1.413,9.97-2.05,14.601C291.276,92.313,286.918,95.662,278.22,95.662z     M284.307,71.794c0.007,0,0.154,0.639,2.2,1.662c1.632,0.815,3.236,0.468,4.767-1.037c-1.249-0.753-2.736-1.124-4.019-1.205    C285.401,71.096,284.409,71.576,284.307,71.794L284.307,71.794z M149.25,48.255c0.649,1.637,1.436,2.987,2.315,3.875    c0.944,0.957,1.854,1.256,2.8,0.908c0.729-0.27,1.941-0.871,1.875-1.862c-0.071-1.036-1.478-2.407-3.714-2.909    C151.925,48.132,150.725,47.959,149.25,48.255z M285.295,41.83c-2.581,1.188-4.607,3.676-4.601,5.274    c0.002,0.396,0.116,0.881,0.993,1.125c1.043,0.288,1.909-0.159,2.574-1.34C284.947,45.664,285.309,43.901,285.295,41.83z     M163.691,24.99c-0.616,2.287-0.679,4.271-0.201,5.573c0.349,0.953,0.96,1.481,1.863,1.615c1.694,0.252,2.969-0.045,3.5-0.817    c0.438-0.636,0.356-1.621-0.215-2.636C167.874,27.368,166.239,25.928,163.691,24.99z M262.121,20.977    c-0.171,0.066-0.321,0.128-0.45,0.183c-3.19,1.377-5.513,3.794-5.526,5.747c-0.005,1.122,0.757,2.032,2.269,2.704    c1.369,0.61,2.444,0.625,3.199,0.045c1.152-0.881,1.598-3.155,1.168-5.934C262.643,22.833,262.422,21.911,262.121,20.977z     M194.947,11.229c-0.323,0.543-0.609,1.097-0.857,1.656c-1.805,4.046-1.389,7.849,1.034,9.464c0.646,0.431,1.845,1.082,2.601,0.58    c0.866-0.57,1.187-2.515,0.782-4.728C198.066,15.807,196.867,13.234,194.947,11.229z M231.845,9.176    c-1.697,1.366-2.916,2.963-3.599,4.432c-1.149,2.474-1.334,5.72,1.588,7.41c1.411,0.814,2.703,0.858,3.74,0.127    c1.452-1.023,2.092-3.304,1.632-5.812C235.005,14.23,234.294,11.759,231.845,9.176z"/>
	</g>
	<g>
		<path style="fill:#251626;" d="M119.84,480.974c-0.09,0-0.182-0.014-0.272-0.042c-0.476-0.15-0.739-0.658-0.589-1.133    l40.198-127.214c0.15-0.476,0.662-0.737,1.133-0.589c0.476,0.15,0.739,0.658,0.589,1.133L120.7,480.342    C120.579,480.729,120.224,480.974,119.84,480.974z"/>
		<path style="fill:#251626;" d="M189.393,500c-0.002,0-0.004,0-0.005,0c-0.499-0.004-0.902-0.409-0.898-0.909l0.734-127.729    c0.004-0.498,0.408-0.898,0.903-0.898c0.002,0,0.004,0,0.005,0c0.499,0.004,0.902,0.409,0.898,0.909l-0.734,127.729    C190.293,499.6,189.889,500,189.393,500z"/>
		<path style="fill:#251626;" d="M257.274,475.792c-0.37,0-0.716-0.229-0.85-0.596l-41.53-114.989    c-0.169-0.469,0.074-0.988,0.543-1.157c0.473-0.162,0.986,0.076,1.157,0.543l41.53,114.989c0.169,0.469-0.074,0.988-0.543,1.157    C257.479,475.775,257.377,475.792,257.274,475.792z"/>
		<path style="fill:#3D9C91;" d="M129.736,333.865c0,0,143.061-11.079,151.643,6.716c8.582,17.795-54.756,64.869-88.456,69.235    C159.223,414.181,95.276,335.894,129.736,333.865z"/>
	</g>
	<path style="fill:#EFA880;" d="M89.384,232.992c0,0-6.789,85.179,1.606,88.667c20.08,8.342,64.794-69.499,64.794-69.499   l-18.33-12.76c0,0-38.127,63.91-30.433,58.517c2.052-1.438-3.922-60.745-3.922-60.745L89.384,232.992z"/>
	<path style="fill:#DD7C2E;" d="M124.874,250.52l44.076,24.999l27.551-68.104C196.5,207.414,154.803,198.493,124.874,250.52z"/>
	<path style="fill:#DD7C2E;" d="M155.783,330.874l104.82,9.142c0,0,17.614-132.899,1.052-135.247   c-8.024-1.138-80.651-2.537-86.551,12.477S155.783,330.874,155.783,330.874z"/>
	<path style="fill:#F2BA9B;" d="M220.833,172.932l3.28,30.068l16.771,1.118c0,0-6.708,27.323-24.635,26.482   c-17.927-0.841-19.749-23.186-19.749-23.186l12.095-2.645l-0.177-28.459L220.833,172.932z"/>
	<path style="fill:#251426;" d="M371.563,419.133l17.771,27.595l7.263-5.013l-7.841-6.451c0,0,10.928,9.019,24.453-10.418   c0,0-30.753,9.899-28.888-15.825L371.563,419.133z"/>
	<path style="fill:#251426;" d="M298.575,446.763l0.444,32.819l8.816-0.402l-3.23-9.627c0,0,4.487,13.44,26.258,4.125   c0,0-31.325-7.904-16.11-28.731L298.575,446.763z"/>
	<path style="fill:#EFA880;" d="M263.987,68.293c0,0-39.83-44.597-85.106-22.43c-33.875,16.585-26.358,134.348,29.537,130.446   C248.039,173.544,280.45,93.72,263.987,68.293z"/>
	<path style="fill:#E9546A;" d="M263.987,68.293c0,0-7.713,76.18-26.751,82.461c-34.168,11.272,12.305-26.494-34.404-25.967   c-29.95,0.338-4.001,22.584-29.178,15.046c-18.936-5.669-0.591-87.592,2.097-92.019s-32.873,14.343-19.297,66.84   c4.553,17.607-38.914,26.896-7.536,54.986c55.704,49.867,138.227,10.896,119.078-16.252   C241.651,116.038,312.508,116.21,263.987,68.293z"/>
	<path style="fill:#251626;" d="M227.717,101.35c-0.028,0-0.055-0.002-0.083-0.002c-4.185-0.162-4.323-11.967-4.264-15.58   c0.009-0.499,0.478-0.886,0.917-0.889c0.499,0.009,0.896,0.418,0.889,0.917c-0.102,6.452,0.912,13.684,2.528,13.746   c0.007,0.002,0.016,0.002,0.025,0.002c1.718,0,4.425-6.99,5.884-13.562c0.108-0.487,0.589-0.789,1.078-0.686   c0.487,0.108,0.794,0.591,0.686,1.078C234.594,89.901,231.738,101.348,227.717,101.35z"/>
	<path style="fill:#251626;" d="M185.201,98.887c-0.026,0-0.053,0-0.079,0c-4.185-0.164-4.323-11.969-4.264-15.582   c0.009-0.499,0.369-0.91,0.917-0.889c0.499,0.009,0.896,0.418,0.889,0.917c-0.102,6.452,0.912,13.686,2.528,13.747   c0.009,0.002,0.018,0.002,0.028,0.002c1.863,0,5.887-7.041,8.566-13.606c0.189-0.464,0.718-0.686,1.177-0.496   c0.462,0.189,0.685,0.716,0.496,1.177C194.044,87.627,189.143,98.887,185.201,98.887z"/>
	<circle style="fill:#EFA880;" cx="277.511" cy="110.959" r="11.221"/>
	<circle style="fill:#EFA880;" cx="149.572" cy="91.372" r="10.465"/>
	<path style="fill:#251626;" d="M273.294,117.241c-0.002,0-0.005,0-0.007,0c-0.499-0.004-0.9-0.411-0.896-0.91   c0.026-3.435,1.05-5.891,3.043-7.297c3.361-2.369,8.139-0.748,8.342-0.679c0.471,0.164,0.72,0.677,0.557,1.149   c-0.164,0.471-0.676,0.722-1.149,0.559c-0.042-0.016-4.121-1.387-6.715,0.452c-1.487,1.053-2.251,3.015-2.272,5.831   C274.194,116.84,273.79,117.241,273.294,117.241z"/>
	<path style="fill:#251626;" d="M150.67,99.857c-0.108,0-0.217-0.019-0.323-0.06c-0.466-0.178-0.699-0.7-0.52-1.166   c1.417-3.693,1.56-6.5,0.416-8.114c-1.205-1.699-3.484-1.665-3.511-1.657c-0.007,0-0.016,0-0.025,0   c-0.487,0-0.889-0.388-0.903-0.879c-0.014-0.498,0.379-0.914,0.879-0.928c0.12,0.007,3.282-0.056,5.034,2.419   c1.531,2.161,1.464,5.46-0.203,9.804C151.376,99.637,151.034,99.857,150.67,99.857z"/>
	<circle style="fill:#EA7C71;" cx="240.878" cy="117.041" r="10.698"/>
	<circle style="fill:#EA7C71;" cx="178.696" cy="109.528" r="10.698"/>
	<path style="fill:#251626;" d="M217.022,189.527c-0.51,0-1.036-0.019-1.576-0.058c-5.289-0.386-9.441-2.724-12.412-5.662   c-3.282,1.35-8.627,1.997-17.085-0.489c-8.724-2.564-12.828-6.103-14.741-9.072c-0.127,0.021-0.256,0.039-0.385,0.056   c-6.664,0.857-13.095-2.359-17.223-8.633c-1.404-2.137-2.445-4.019-3.202-5.674c-3.278,0.999-7.01,0.827-9.97-1.704   c-4.187-3.581-3.497-11.145-0.956-17.05c1.62-3.767,4.487-7.832,8.255-10.021c-0.009-2.555,0.856-5.637,1.983-8.283   c0.676-1.586,1.484-3.132,2.375-4.504c-0.236-0.293-0.452-0.614-0.644-0.967c-3.671-6.706,4.548-13.818,4.899-14.118   c0.378-0.319,0.949-0.281,1.272,0.102c0.325,0.379,0.279,0.949-0.101,1.274c-0.074,0.064-7.452,6.457-4.487,11.874   c0.055,0.099,0.109,0.192,0.166,0.282c1.967-2.5,4.204-4.03,6.3-3.333c2.193,0.72,2.369,2.154,2.345,2.738   c-0.076,1.687-1.948,3.43-4.264,3.968c-1.514,0.356-2.938,0.131-4.111-0.596c-0.748,1.171-1.463,2.521-2.089,3.987   c-1.064,2.498-1.676,4.832-1.819,6.695c1.567-0.602,3.259-0.873,5.065-0.681c2.987,0.314,3.943,1.478,4.218,2.399   c0.326,1.087-0.173,2.302-1.334,3.253c-1.662,1.36-4.748,2.137-7.583,0.628c-1.05-0.558-1.671-1.526-1.971-2.74   c-3.061,2.045-5.429,5.524-6.819,8.754c-2.696,6.267-2.502,12.421,0.473,14.965c2.311,1.978,5.349,2.165,8.091,1.39   c-2.306-6.133-0.311-8.627,0.554-9.361c1.803-1.533,4.679-1.2,6.838,0.783c1.766,1.621,1.565,4.091-0.524,6.448   c-1.09,1.23-2.664,2.369-4.469,3.179c0.727,1.568,1.715,3.34,3.017,5.319c5.323,8.091,12.657,8.137,15.192,7.865   c-0.476-1.129-0.649-2.101-0.702-2.802c-0.213-2.853,1.143-5.547,3.303-6.551c1.5-0.697,3.109-0.413,4.298,0.753   c1.639,1.604,2.212,3.476,1.614,5.268c-0.688,2.061-2.84,3.753-5.727,4.612c1.844,2.523,5.637,5.487,13.368,7.761   c7.498,2.204,12.279,1.845,15.265,0.797c-1.484-1.764-2.583-3.657-3.289-5.427c-1.403-3.511-1.35-6.706,0.138-8.34   c0.732-0.801,2.128-1.605,4.591-0.879c2.867,0.842,4.993,3.052,5.685,5.91c0.702,2.897-0.208,5.894-2.438,8.019   c-0.429,0.409-0.979,0.85-1.669,1.276c2.666,2.47,6.29,4.391,10.838,4.723c8.036,0.586,12.332-3.889,14.264-8.253   c-0.916-0.842-1.486-1.701-1.84-2.41c-1.339-2.692-0.796-5.409,0.277-6.794c0.693-0.896,1.623-1.3,2.562-1.101   c1.711,0.363,2.489,2.899,1.983,6.461c-0.143,1-0.406,2.117-0.812,3.271c1.902,1.302,5.064,2.391,10.337,2.332   c9.538-0.115,13.883-7.122,14.769-13.641c0.011-0.069,0.019-0.139,0.028-0.208c-1.152-0.448-2.204-1.194-3.114-2.228   c-2.117-2.405-2.911-5.822-1.773-7.616c0.633-0.995,1.757-1.343,3.079-0.963c2.491,0.723,3.982,4.64,3.74,9.448   c1.163,0.166,2.555-0.004,4.197-0.775c3.85-1.803,4.158-6.069,3.739-9.33c-0.349-2.715-1.309-5.52-2.523-7.955   c-0.399,0.065-0.822,0.118-1.27,0.152c-7.371,0.591-9.714-1.517-10.453-2.819c-0.688-1.216-0.568-2.687,0.321-3.936   c1.193-1.674,3.449-2.526,5.589-2.135c2.23,0.413,4.778,3.1,6.778,6.667c2.182-0.672,3.366-2.061,3.599-4.206   c0.3-2.768-1.036-6.293-2.747-9.275c-0.005,0.002-0.011,0.002-0.014,0.004c-4.674,0.977-6.704-1.348-7.364-2.394   c-0.993-1.57-1.064-3.483-0.175-4.651c0.653-0.856,1.687-1.149,2.832-0.799c1.431,0.434,3.636,2.719,5.542,5.695   c0.857-0.381,1.448-0.953,1.796-1.727c1.23-2.735-0.882-7.504-1.8-9.111c-0.249-0.432-0.097-0.984,0.335-1.231   c0.432-0.249,0.984-0.099,1.231,0.335c0.153,0.266,3.737,6.609,1.882,10.745c-0.506,1.129-1.348,1.983-2.512,2.549   c1.81,3.243,3.119,7.004,2.789,10.055c-0.224,2.059-1.246,4.488-4.554,5.633c1.231,2.562,2.156,5.43,2.509,8.174   c0.7,5.452-0.992,9.428-4.765,11.198c-1.777,0.831-3.516,1.149-5.131,0.94c-0.002,0.004-0.002,0.005-0.002,0.009   c-0.988,7.265-5.85,15.076-16.538,15.205c-5.392,0.086-8.843-1.046-11.052-2.44C229.211,185.039,224.852,189.527,217.022,189.527z    M201.369,169.261c-0.626,0-1.115,0.191-1.463,0.573c-0.986,1.083-0.905,3.677,0.205,6.452c0.693,1.741,1.807,3.613,3.329,5.33   c0.734-0.411,1.297-0.852,1.722-1.258c1.755-1.673,2.477-4.023,1.928-6.284c-0.538-2.223-2.198-3.945-4.437-4.603   C202.175,169.331,201.748,169.261,201.369,169.261z M230.378,170.866c-0.281,0-0.536,0.273-0.672,0.448   c-0.76,0.983-1.036,2.976-0.086,4.882c0.203,0.408,0.496,0.872,0.916,1.35c0.238-0.785,0.4-1.54,0.499-2.232   c0.413-2.902-0.249-4.372-0.568-4.439C230.436,170.868,230.408,170.866,230.378,170.866z M174.557,164.619   c-0.335,0-0.64,0.094-0.891,0.212c-1.26,0.586-2.44,2.414-2.264,4.776c0.048,0.642,0.222,1.551,0.723,2.611   c2.526-0.647,4.448-1.995,4.977-3.578c0.378-1.133-0.014-2.278-1.164-3.403C175.468,164.774,174.988,164.619,174.557,164.619z    M254.333,158.167c-0.372,0-0.49,0.185-0.549,0.279c-0.547,0.861-0.194,3.412,1.604,5.455c0.432,0.492,1.064,1.069,1.9,1.496   c0.085-3.857-1.085-6.75-2.456-7.147C254.63,158.19,254.465,158.167,254.333,158.167z M152.971,149.79   c-0.589,0-1.129,0.173-1.553,0.535c-1.143,0.972-1.542,3.38-0.028,7.368c1.531-0.685,2.878-1.646,3.821-2.712   c0.663-0.748,2.057-2.631,0.655-3.918C154.958,150.228,153.903,149.79,152.971,149.79z M257.595,140.872   c-1.364,0-2.475,0.69-3.036,1.477c-0.281,0.393-0.683,1.179-0.221,1.995c0.33,0.584,1.939,2.442,8.74,1.911   c0.168-0.014,0.33-0.03,0.49-0.048c-1.711-2.897-3.71-4.988-5.221-5.265C258.091,140.895,257.839,140.872,257.595,140.872z    M149.6,132.276c0.157,1.013,0.543,1.738,1.168,2.07c2.114,1.122,4.379,0.566,5.591-0.43c0.561-0.459,0.854-0.984,0.748-1.339   c-0.125-0.418-0.895-0.933-2.678-1.12C152.712,131.276,151.087,131.6,149.6,132.276z M260.676,126.173   c-0.309,0-0.431,0.159-0.483,0.229c-0.362,0.475-0.363,1.6,0.263,2.59c0.889,1.408,2.629,2.011,4.831,1.704   c-1.59-2.392-3.283-4.174-4.222-4.458C260.909,126.191,260.782,126.173,260.676,126.173z M154.497,118.176   c0.972,0.558,2.001,0.475,2.666,0.319c1.6-0.372,2.833-1.516,2.869-2.29c0.021-0.471-0.589-0.773-1.104-0.942   C157.793,114.892,156.126,116.062,154.497,118.176z"/>
	<polygon style="fill:#F7C67C;" points="200.911,341.327 300.294,316.704 324.422,453.002 282.366,467.521 276.618,367.069    190.127,371.366  "/>
	<polygon style="fill:#F7C67C;" points="229.435,358.2 294.598,330.001 364.269,442.335 398.149,410.98 296.575,294.479    167.998,334.226  "/>
	<path style="fill:#F7C67C;" d="M155.783,330.874c0,0-4.761,33.683,7.494,43.02c26.117,19.898,113.341-21.875,113.341-21.875v-29.45   L155.783,330.874z"/>
	<path style="fill:#251626;" d="M182.886,380.598c-8.391,0-15.125-1.997-20.171-5.997c-0.392-0.309-0.457-0.877-0.146-1.269   c0.309-0.393,0.879-0.457,1.269-0.146c31.731,25.152,129.259-43.229,130.238-43.922c0.203-0.143,0.453-0.194,0.693-0.15   c0.242,0.048,0.453,0.189,0.587,0.395l11.071,17.07c0.27,0.42,0.152,0.979-0.266,1.251c-0.416,0.266-0.977,0.154-1.251-0.266   l-10.563-16.286c-4.409,3.052-27.098,18.495-52.772,31.182C217.124,374.541,197.495,380.598,182.886,380.598z"/>
	<path style="fill:#EFA880;" d="M167.768,262.383l73.116,17.184c0,0,22.325-81.185,29.433-73.12   c30.607,34.728-16.8,101.343-16.8,101.343l-94.047-29.357L167.768,262.383z"/>
	<path style="fill:#EFA880;" d="M179.442,264.092c0,0-5.023,12.815-19.974,14.341c-14.951,1.526-44.009-1.651-37.061-5.247   c6.949-3.596,25.771,0,25.771,0s-28.659,0.258-25.771-4.265c2.887-4.523,27.989-3.303,27.989-3.303s-28.153-1.831-23.881-5.492   C130.788,256.465,180.804,255.854,179.442,264.092z"/>
	<path style="fill:#9CD1C3;" d="M118.52,197.374h56.584c0,0,0.47,49.028-27.065,48.927   C128.941,246.232,118.52,197.374,118.52,197.374z"/>
	<path style="fill:#9CD1C3;" d="M130.755,204.333l3.141,10.12c0,0-20.516-2.355-19.781,16.148c0.33,8.316,27.047,0,27.047,0v6.459   c0,0-27.771,9.254-32.295-1.697C99.178,211.913,130.755,204.333,130.755,204.333z"/>
	<path style="fill:#EFA880;" d="M106.996,217.278c0,0,6.292-6.822,10.329,2.956c0.308,0.747,7.894,9.478,4.317,16.486   c-3.577,7.008-13.728,4.347-22.383,8.364C91.99,248.458,77.673,226.563,106.996,217.278z"/>
	<path style="fill:#DD7C2E;" d="M232.272,255.375l46.069,19.514c0,0,38.391-77.515-29.357-70.721L232.272,255.375z"/>
	<path style="fill:#251626;" d="M191.697,119.961c-0.492,0-0.909-0.224-1.159-0.628c-1.602-2.585,8.015-18.851,13.89-28.319   c0.265-0.423,0.824-0.552,1.244-0.291c0.423,0.263,0.554,0.82,0.291,1.244c-6.826,10.997-13.629,23.373-13.871,26.145   c4.264-0.483,16.526-2.915,16.653-2.939c0.482-0.104,0.965,0.219,1.062,0.709s-0.221,0.965-0.709,1.062   c-0.543,0.108-13.331,2.643-17.242,3.01C191.801,119.959,191.75,119.961,191.697,119.961z"/>
	<path style="fill:#251626;" d="M206.041,151.641c-0.291,0-0.586-0.051-0.877-0.153c-5.501-1.95-10.886-18.682-11.482-20.584   c-0.148-0.476,0.116-0.983,0.593-1.133c0.478-0.148,0.983,0.116,1.133,0.593c1.544,4.928,6.417,18.024,10.36,19.42   c0.266,0.094,0.492,0.062,0.762-0.111c2.795-1.754,5.102-13.901,5.9-21.145c0.055-0.498,0.501-0.854,0.997-0.799   c0.496,0.055,0.854,0.501,0.799,0.997c-0.221,2.006-2.287,19.688-6.736,22.479C207.025,151.494,206.535,151.641,206.041,151.641z"/>
	<path style="fill:#E9546A;" d="M176.839,33.506c0,0-22.601,17.798-5.013,28.844s121.215,32.409,101.469-7.164   C260.555,29.654,198.283,18.468,176.839,33.506z"/>
	<path style="fill:#251626;" d="M257.945,79.058c-1.207,0-2.433-0.134-3.663-0.42c-3.929-0.917-7.186-2.929-9.587-5.296   c-4.065,2.655-9.972,4.263-16.72,3.003c-4.377-0.819-7.883-2.93-10.079-5.937c-3.55,1.413-7.904,2.163-12.466,1.725   c-4.471-0.434-7.592-2.454-9.49-5.101c-3.343,0.91-8.042,1.284-14.654,0.468c-8.64-1.067-13.742-3.793-15.166-8.103   c-2.405-7.28,6.731-16.089,7.121-16.46c0.36-0.342,0.932-0.328,1.277,0.032c0.344,0.361,0.33,0.932-0.032,1.276   c-0.086,0.084-8.7,8.391-6.65,14.587c1.186,3.588,5.785,5.902,13.671,6.875c5.37,0.662,9.945,0.545,13.454-0.3   c-0.833-1.671-1.254-3.491-1.293-5.27c-0.092-4.298,1.974-7.598,5.025-8.025c1.743-0.247,3.481,0.636,4.6,2.363   c1.491,2.3,1.47,5.358-0.055,7.793c-0.822,1.313-2.421,2.987-5.503,4.176c1.6,1.988,4.134,3.529,7.867,3.888   c4.077,0.399,8.058-0.254,11.32-1.477c-0.607-1.138-1.05-2.376-1.309-3.696c-0.752-3.836,0.305-7.534,2.572-8.994   c0.91-0.59,2.825-1.305,5.367,0.511c2.616,1.867,3.527,4.308,2.567,6.876c-0.842,2.246-3.227,4.467-6.537,6.104   c1.59,2.064,4.255,4.076,8.724,4.912c6.06,1.131,11.436-0.273,15.143-2.578c-2.599-3.095-3.807-6.533-3.269-8.878   c0.208-0.909,1.249-3.792,5.926-2.734c3.206,0.724,4.829,2.967,4.233,5.851c-0.418,2.029-1.898,4.203-4.18,6.046   c2.126,2.025,5.002,3.776,8.532,4.6c7.408,1.733,15.138-2.999,17.11-8.375c1.452-3.957-0.353-7.475-5.086-9.906   c-0.443-0.228-0.619-0.773-0.39-1.216c0.226-0.444,0.773-0.618,1.216-0.391c5.566,2.859,7.738,7.282,5.956,12.136   C271.583,74.344,265.12,79.056,257.945,79.058z M244.204,61.952c-1.265,0-2.024,0.524-2.264,1.566   c-0.409,1.784,0.647,4.732,2.975,7.451c2.006-1.576,3.305-3.409,3.654-5.102c0.397-1.923-0.593-3.212-2.862-3.724   C245.146,62.016,244.645,61.952,244.204,61.952z M220.36,57.331c-0.4,0-0.806,0.102-1.196,0.355   c-1.634,1.052-2.382,4.05-1.778,7.128c0.161,0.82,0.501,2.031,1.212,3.333c2.964-1.406,5.108-3.301,5.829-5.227   c0.665-1.779,0.019-3.385-1.923-4.771C221.918,57.731,221.152,57.331,220.36,57.331z M199.263,53.88   c-0.106,0-0.213,0.007-0.319,0.022c-2.08,0.291-3.539,2.898-3.469,6.198c0.034,1.559,0.413,3.245,1.239,4.796   c2.309-0.813,4.01-2.016,4.993-3.585c1.401-2.239,0.914-4.551,0.071-5.851C201.124,54.452,200.203,53.88,199.263,53.88z"/>
	<path style="fill:#251626;" d="M346.44,359.559c-0.014,0-0.028,0-0.042-0.002c-0.499-0.023-0.884-0.446-0.859-0.944   c0.086-1.817-2.863-5.159-4.742-6.837c-0.372-0.333-0.404-0.903-0.072-1.276c0.333-0.371,0.903-0.404,1.276-0.072   c0.563,0.503,5.498,5.011,5.342,8.269C347.318,359.183,346.92,359.559,346.44,359.559z"/>
	<path style="fill:#251626;" d="M344.282,371.055c-0.014,0-0.028,0-0.042-0.002c-0.499-0.023-0.884-0.446-0.859-0.944   c0.086-1.817-2.863-5.157-4.742-6.835c-0.372-0.332-0.404-0.903-0.072-1.276c0.332-0.371,0.903-0.402,1.276-0.072   c0.563,0.503,5.498,5.009,5.342,8.267C345.161,370.679,344.762,371.055,344.282,371.055z"/>
	<path style="fill:#251626;" d="M357.165,374.769c-0.014,0-0.028,0-0.044-0.002c-0.498-0.023-0.882-0.446-0.857-0.946   c0.086-1.812-2.863-5.154-4.742-6.835c-0.372-0.333-0.404-0.903-0.072-1.276c0.335-0.372,0.907-0.401,1.276-0.072   c0.563,0.503,5.501,5.011,5.342,8.271C358.043,374.393,357.645,374.769,357.165,374.769z"/>
	<path style="fill:#251626;" d="M354.07,382.941c-0.014,0-0.028,0-0.042-0.002c-0.499-0.023-0.884-0.446-0.859-0.944   c0.086-1.817-2.863-5.157-4.742-6.835c-0.372-0.332-0.404-0.903-0.072-1.276c0.332-0.372,0.903-0.402,1.276-0.072   c0.563,0.503,5.498,5.009,5.342,8.267C354.949,382.565,354.55,382.941,354.07,382.941z"/>
	<path style="fill:#251626;" d="M364.229,387.304c-0.014,0-0.028,0-0.044-0.002c-0.498-0.023-0.882-0.446-0.857-0.946   c0.086-1.815-2.862-5.155-4.741-6.833c-0.372-0.332-0.404-0.903-0.072-1.276c0.333-0.372,0.903-0.404,1.276-0.072   c0.563,0.503,5.499,5.009,5.34,8.269C365.108,386.928,364.709,387.304,364.229,387.304z"/>
	<path style="fill:#251626;" d="M363.763,397.038c-0.014,0-0.028,0-0.042-0.002c-0.499-0.023-0.884-0.446-0.859-0.944   c0.086-1.817-2.863-5.159-4.742-6.837c-0.372-0.333-0.404-0.903-0.072-1.276c0.333-0.372,0.903-0.402,1.276-0.072   c0.563,0.503,5.498,5.011,5.342,8.269C364.642,396.662,364.243,397.038,363.763,397.038z"/>
	<path style="fill:#251626;" d="M335.79,352.77c-0.014,0-0.028,0-0.042-0.002c-0.499-0.023-0.884-0.446-0.859-0.944   c0.086-1.817-2.863-5.157-4.742-6.835c-0.372-0.332-0.404-0.903-0.072-1.276c0.332-0.372,0.903-0.404,1.276-0.072   c0.563,0.503,5.498,5.009,5.342,8.267C336.669,352.394,336.27,352.77,335.79,352.77z"/>
	<path style="fill:#251626;" d="M279.053,244.76c-0.192,0-0.386-0.062-0.55-0.187c-0.395-0.303-0.469-0.872-0.166-1.267   c1.106-1.44,0.593-5.866,0.011-8.319c-0.115-0.487,0.184-0.974,0.669-1.089c0.492-0.122,0.974,0.183,1.089,0.669   c0.175,0.736,1.653,7.253-0.335,9.839C279.591,244.638,279.323,244.76,279.053,244.76z"/>
	<path style="fill:#251626;" d="M272.696,232.505c-0.192,0-0.386-0.062-0.55-0.187c-0.395-0.305-0.469-0.872-0.166-1.267   c1.108-1.44,0.595-5.866,0.011-8.319c-0.115-0.485,0.183-0.972,0.669-1.089c0.485-0.115,0.974,0.183,1.089,0.669   c0.175,0.736,1.655,7.253-0.335,9.839C273.234,232.384,272.966,232.505,272.696,232.505z"/>
	<path style="fill:#251626;" d="M281.75,232.505c-0.192,0-0.386-0.062-0.55-0.187c-0.395-0.303-0.469-0.872-0.166-1.267   c1.106-1.44,0.593-5.866,0.011-8.319c-0.115-0.487,0.184-0.974,0.669-1.089c0.49-0.127,0.974,0.183,1.089,0.669   c0.175,0.736,1.653,7.253-0.335,9.839C282.288,232.384,282.02,232.505,281.75,232.505z"/>
	<path style="fill:#251626;" d="M276.828,220.303c-0.124,0-0.251-0.025-0.371-0.079c-0.455-0.205-0.658-0.739-0.453-1.194   c0.746-1.658-0.776-5.845-1.911-8.095c-0.224-0.446-0.046-0.99,0.399-1.214c0.441-0.224,0.988-0.048,1.214,0.399   c0.341,0.676,3.283,6.674,1.946,9.651C277.502,220.106,277.172,220.303,276.828,220.303z"/>
	<path style="fill:#251626;" d="M307.86,390.942c-0.169,0-0.339-0.048-0.49-0.145c-0.42-0.272-0.538-0.831-0.268-1.249   c0.988-1.524,0.12-5.896-0.658-8.294c-0.154-0.475,0.106-0.984,0.58-1.138c0.473-0.152,0.986,0.106,1.138,0.58   c0.233,0.718,2.23,7.094,0.457,9.832C308.446,390.797,308.155,390.942,307.86,390.942z"/>
	<path style="fill:#251626;" d="M300.21,399.792c-0.169,0-0.341-0.048-0.492-0.145c-0.418-0.272-0.536-0.831-0.266-1.251   c0.988-1.523,0.122-5.895-0.658-8.292c-0.154-0.475,0.106-0.983,0.58-1.138c0.476-0.155,0.983,0.106,1.138,0.58   c0.233,0.718,2.232,7.096,0.457,9.834C300.794,399.647,300.505,399.792,300.21,399.792z"/>
	<path style="fill:#251626;" d="M309.474,409.485c-0.169,0-0.34-0.048-0.492-0.145c-0.418-0.272-0.536-0.831-0.266-1.251   c0.992-1.526,0.124-5.894-0.656-8.292c-0.154-0.475,0.106-0.983,0.58-1.138c0.475-0.155,0.984,0.106,1.138,0.58   c0.233,0.718,2.23,7.096,0.455,9.834C310.058,409.34,309.769,409.485,309.474,409.485z"/>
	<path style="fill:#251626;" d="M302.689,414.989c-0.169,0-0.339-0.048-0.49-0.145c-0.42-0.272-0.538-0.831-0.268-1.249   c0.988-1.524,0.12-5.896-0.658-8.294c-0.154-0.475,0.106-0.984,0.58-1.138c0.475-0.154,0.984,0.106,1.138,0.58   c0.233,0.718,2.23,7.094,0.457,9.832C303.275,414.845,302.983,414.989,302.689,414.989z"/>
	<path style="fill:#251626;" d="M309.273,423.873c-0.169,0-0.339-0.048-0.49-0.145c-0.42-0.272-0.538-0.831-0.268-1.249   c0.988-1.524,0.12-5.896-0.658-8.294c-0.153-0.475,0.106-0.984,0.58-1.138c0.473-0.154,0.984,0.106,1.138,0.58   c0.233,0.718,2.23,7.094,0.457,9.832C309.859,423.728,309.568,423.873,309.273,423.873z"/>
	<path style="fill:#251626;" d="M303.971,432.048c-0.169,0-0.339-0.048-0.49-0.145c-0.42-0.272-0.538-0.831-0.268-1.249   c0.988-1.524,0.12-5.896-0.658-8.294c-0.154-0.475,0.106-0.984,0.58-1.138c0.475-0.155,0.984,0.106,1.138,0.58   c0.233,0.718,2.23,7.094,0.457,9.832C304.557,431.904,304.266,432.048,303.971,432.048z"/>
	<path style="fill:#251626;" d="M302.073,379.718c-0.169,0-0.339-0.048-0.49-0.145c-0.42-0.272-0.538-0.831-0.268-1.249   c0.988-1.524,0.12-5.896-0.658-8.294c-0.154-0.475,0.106-0.984,0.58-1.138c0.473-0.154,0.986,0.106,1.138,0.58   c0.233,0.718,2.23,7.094,0.457,9.832C302.659,379.573,302.368,379.718,302.073,379.718z"/>
	<path style="fill:#251626;" d="M150.035,206.978c-12.669,0-23.41-5.912-23.573-6.004c-0.434-0.243-0.589-0.794-0.344-1.23   c0.243-0.432,0.787-0.595,1.23-0.344c0.229,0.129,23.479,12.906,41.212,0.055c0.399-0.288,0.965-0.205,1.261,0.203   c0.293,0.404,0.201,0.969-0.203,1.261C163.347,205.464,156.443,206.978,150.035,206.978z"/>
	<path style="fill:#251626;" d="M107.779,222.742c-0.303,0-0.6-0.153-0.771-0.43c-0.261-0.425-0.129-0.981,0.296-1.242   c0.21-0.131,5.203-3.155,10.27-1.703c0.48,0.136,0.757,0.637,0.619,1.117c-0.138,0.478-0.633,0.76-1.117,0.619   c-4.294-1.224-8.781,1.478-8.827,1.505C108.102,222.698,107.939,222.742,107.779,222.742z"/>
	<path style="fill:#251626;" d="M108.973,229.564c-0.303,0-0.6-0.154-0.771-0.43c-0.261-0.425-0.129-0.981,0.296-1.242   c0.21-0.129,5.203-3.153,10.27-1.703c0.48,0.136,0.757,0.637,0.619,1.117c-0.136,0.478-0.637,0.762-1.117,0.619   c-4.293-1.223-8.783,1.478-8.827,1.505C109.296,229.52,109.134,229.564,108.973,229.564z"/>
	<path style="fill:#251626;" d="M110.914,235.854c-0.303,0-0.6-0.153-0.771-0.43c-0.261-0.425-0.129-0.981,0.296-1.242   c0.208-0.131,5.199-3.153,10.27-1.703c0.48,0.136,0.757,0.637,0.619,1.117c-0.136,0.478-0.633,0.76-1.117,0.619   c-4.294-1.223-8.783,1.48-8.827,1.505C111.237,235.81,111.075,235.854,110.914,235.854z"/>
	<path style="fill:#9CD1C3;" d="M126.849,260.512c0,0,66.707-10.795,61.418-1.09C172.687,288.007,76.125,270.003,126.849,260.512z"/>
	<path style="fill:#251626;" d="M143.911,272.973c-0.168,0-0.332,0-0.499-0.002c-11.971-0.088-18.463-1.673-19.852-4.839   c-0.676-1.542,0.088-2.992,0.646-3.606c0.337-0.369,0.909-0.395,1.276-0.062c0.369,0.333,0.397,0.902,0.067,1.27   c-0.042,0.049-0.709,0.838-0.328,1.685c0.49,1.09,3.245,3.634,18.206,3.746c17.414,0.085,32.301-6.339,34.301-9.764   c0.159-0.272,0.203-0.475,0.131-0.602c-0.062-0.106-0.729-1.044-5.205-1.044c-0.499,0-0.903-0.404-0.903-0.903   c0-0.499,0.404-0.903,0.903-0.903c3.802,0,6.018,0.639,6.771,1.951c0.288,0.501,0.498,1.327-0.138,2.414   C176.756,266.65,160.852,272.973,143.911,272.973z"/>
	<path style="fill:#251626;" d="M220.24,238.149c-0.535,0-1.078-0.025-1.634-0.078c-19.254-1.824-27.287-20.688-27.366-20.879   c-0.191-0.46,0.028-0.988,0.489-1.18c0.457-0.185,0.988,0.026,1.18,0.489c0.074,0.18,7.713,18.05,25.866,19.771   c17.93,1.724,23.843-29.289,23.901-29.603c0.09-0.492,0.563-0.819,1.052-0.723c0.49,0.09,0.815,0.561,0.723,1.052   C244.211,208.305,238.479,238.149,220.24,238.149z"/>
	<path style="fill:#251626;" d="M249.591,263.613c-0.118,0-0.236-0.023-0.353-0.072l-12.17-5.154   c-0.432-0.184-0.653-0.669-0.505-1.115l14.155-42.594c0.157-0.473,0.667-0.734,1.141-0.573c0.475,0.157,0.73,0.669,0.573,1.141   l-13.892,41.803l11.403,4.829c0.459,0.194,0.674,0.723,0.478,1.184C250.277,263.407,249.942,263.613,249.591,263.613z"/>
	<path style="fill:#251626;" d="M167.031,256.277c-0.028,0-0.055-0.002-0.083-0.004c-0.496-0.044-0.863-0.483-0.819-0.981   c1.104-12.281,4.171-22.463,4.201-22.564c0.145-0.476,0.644-0.745,1.127-0.602c0.476,0.145,0.746,0.649,0.602,1.127   c-0.03,0.099-3.043,10.113-4.13,22.2C167.886,255.924,167.493,256.277,167.031,256.277z"/>
	<path style="fill:#251626;" d="M295.505,327.272c-0.363,0-0.697-0.221-0.836-0.563l-6.329-15.517   c-0.189-0.46,0.034-0.988,0.496-1.177c0.455-0.189,0.988,0.032,1.177,0.496l5.168,12.669l2.507-13.458   c0.092-0.492,0.57-0.812,1.053-0.722c0.49,0.09,0.813,0.563,0.722,1.053l-3.07,16.48c-0.072,0.393-0.397,0.692-0.796,0.732   C295.565,327.271,295.535,327.272,295.505,327.272z"/>
	<path style="fill:#251626;" d="M276.618,367.973c-0.155,0-0.312-0.041-0.453-0.122c-0.344-0.201-0.517-0.603-0.425-0.992   l3.843-16.15c0.115-0.485,0.593-0.79,1.089-0.669c0.485,0.115,0.785,0.602,0.669,1.089l-3.147,13.227l9.624-9.017   c0.365-0.339,0.937-0.323,1.277,0.042c0.341,0.363,0.321,0.935-0.042,1.277l-11.815,11.071   C277.064,367.89,276.842,367.973,276.618,367.973z"/>
	<path style="fill:#251626;" d="M282.168,447.632c-0.446,0-0.835-0.332-0.895-0.787c-0.064-0.496,0.286-0.947,0.78-1.013   l40.221-5.203c0.51-0.074,0.947,0.286,1.013,0.78c0.064,0.496-0.286,0.947-0.78,1.013l-40.221,5.203   C282.246,447.631,282.207,447.632,282.168,447.632z"/>
	<path style="fill:#251626;" d="M356.459,430.647c-0.243,0-0.487-0.099-0.665-0.291c-0.337-0.367-0.314-0.939,0.053-1.277   l32.197-29.651c0.371-0.335,0.94-0.312,1.277,0.053c0.337,0.367,0.314,0.939-0.053,1.277l-32.197,29.651   C356.897,430.568,356.678,430.647,356.459,430.647z"/>
	<path style="fill:#251626;" d="M171.194,337.354c-0.346,0-0.676-0.199-0.826-0.535c-0.203-0.455,0.002-0.99,0.457-1.194   c0.958-0.427,23.511-10.485,29.912-12.465c0.476-0.15,0.981,0.12,1.129,0.596c0.148,0.476-0.12,0.983-0.596,1.129   c-6.297,1.948-29.474,12.285-29.707,12.391C171.443,337.329,171.318,337.354,171.194,337.354z"/>
	<path style="fill:#251626;" d="M200.432,322.089c-20.081,0-37.212-5.078-37.417-5.139c-0.476-0.143-0.748-0.647-0.603-1.126   c0.143-0.476,0.644-0.746,1.126-0.603c0.24,0.072,24.289,7.189,48.627,4.423c0.489-0.055,0.942,0.298,1,0.796   c0.056,0.496-0.3,0.944-0.796,1C208.349,321.897,204.333,322.089,200.432,322.089z"/>
	<path style="fill:#251626;" d="M188.885,283.582c-2.842,0-5.499-2.556-5.626-2.68c-0.356-0.348-0.363-0.917-0.016-1.276   c0.351-0.356,0.923-0.363,1.277-0.018c0.771,0.746,3.183,2.586,5.025,2.084c0.49-0.132,0.979,0.161,1.106,0.64   c0.127,0.483-0.159,0.977-0.64,1.106C189.635,283.537,189.259,283.582,188.885,283.582z"/>
	<path style="fill:#251626;" d="M95.73,262.849c-0.247,0-0.494-0.101-0.672-0.3c-2.23-2.479-0.875-6.974-0.817-7.165   c0.146-0.475,0.642-0.741,1.127-0.596c0.476,0.146,0.745,0.651,0.598,1.127c-0.314,1.027-0.847,4.001,0.436,5.427   c0.333,0.37,0.303,0.942-0.069,1.276C96.163,262.773,95.946,262.849,95.73,262.849z"/>
	<path style="fill:#251626;" d="M92.946,272.657c-0.247,0-0.492-0.101-0.67-0.298c-2.232-2.479-0.877-6.974-0.819-7.165   c0.146-0.476,0.642-0.741,1.127-0.596c0.476,0.146,0.745,0.651,0.598,1.127c-0.314,1.027-0.847,4.001,0.434,5.423   c0.335,0.372,0.305,0.942-0.065,1.276C93.379,272.581,93.162,272.657,92.946,272.657z"/>
	<path style="fill:#251626;" d="M98.289,276.867c-0.247,0-0.492-0.101-0.67-0.298c-2.232-2.479-0.877-6.976-0.819-7.167   c0.146-0.475,0.646-0.743,1.127-0.596c0.476,0.146,0.745,0.651,0.598,1.127c-0.314,1.027-0.847,4.001,0.434,5.425   c0.335,0.372,0.305,0.942-0.065,1.276C98.721,276.791,98.504,276.867,98.289,276.867z"/>
	<path style="fill:#251626;" d="M92.946,286.295c-0.247,0-0.494-0.101-0.672-0.3c-2.23-2.479-0.875-6.974-0.817-7.165   c0.146-0.475,0.642-0.743,1.127-0.596c0.476,0.146,0.745,0.651,0.598,1.127c-0.314,1.027-0.847,4.001,0.436,5.427   c0.333,0.37,0.303,0.942-0.069,1.276C93.379,286.219,93.162,286.295,92.946,286.295z"/>
	<path style="fill:#251626;" d="M93.472,253.499c-0.247,0-0.492-0.101-0.67-0.298c-2.232-2.479-0.877-6.974-0.819-7.165   c0.146-0.475,0.642-0.743,1.127-0.596c0.476,0.146,0.745,0.651,0.598,1.127c-0.314,1.027-0.847,4,0.434,5.423   c0.335,0.372,0.305,0.942-0.065,1.276C93.904,253.423,93.687,253.499,93.472,253.499z"/>
	<path style="fill:#251626;" d="M203.29,282.018c-2.842,0-5.501-2.558-5.628-2.682c-0.356-0.348-0.363-0.917-0.016-1.276   c0.353-0.356,0.924-0.365,1.277-0.018c0.771,0.746,3.186,2.588,5.026,2.085c0.485-0.131,0.977,0.161,1.106,0.64   c0.127,0.483-0.159,0.977-0.64,1.106C204.04,281.974,203.664,282.018,203.29,282.018z"/>
	<path style="fill:#251626;" d="M198.945,285.873c-2.842,0-5.501-2.556-5.626-2.678c-0.358-0.349-0.365-0.919-0.018-1.277   s0.919-0.365,1.277-0.018c0.771,0.746,3.186,2.588,5.026,2.084c0.489-0.131,0.977,0.161,1.106,0.64   c0.127,0.483-0.159,0.977-0.64,1.106C199.695,285.829,199.319,285.873,198.945,285.873z"/>
	<path style="fill:#251626;" d="M211.42,289.12c-2.842,0-5.501-2.556-5.626-2.678c-0.358-0.349-0.365-0.919-0.018-1.277   s0.919-0.363,1.277-0.018c0.769,0.746,3.181,2.59,5.026,2.084c0.487-0.131,0.977,0.161,1.106,0.64   c0.127,0.483-0.159,0.977-0.64,1.106C212.17,289.076,211.794,289.12,211.42,289.12z"/>
	<path style="fill:#251626;" d="M223.091,293.192c-2.842,0-5.499-2.558-5.626-2.682c-0.356-0.348-0.363-0.917-0.016-1.276   c0.351-0.356,0.923-0.36,1.277-0.018c0.771,0.748,3.177,2.59,5.025,2.085c0.487-0.132,0.977,0.159,1.106,0.64   c0.127,0.483-0.159,0.977-0.64,1.106C223.841,293.147,223.465,293.192,223.091,293.192z"/>
	<path style="fill:#251626;" d="M217.31,284.795c-2.842,0-5.501-2.558-5.626-2.68c-0.358-0.349-0.365-0.919-0.018-1.277   c0.348-0.356,0.919-0.365,1.277-0.018c0.771,0.746,3.169,2.571,5.026,2.085c0.487-0.132,0.977,0.159,1.104,0.642   c0.127,0.482-0.159,0.976-0.642,1.104C218.059,284.751,217.684,284.795,217.31,284.795z"/>
</g>















</svg>
