<?xml version="1.0" encoding="UTF-8"?>
<!-- Generator: Adobe Illustrator 25.1.0, SVG Export Plug-In . SVG Version: 6.00 Build 0)  -->
<svg xmlns="http://www.w3.org/2000/svg" xmlns:xlink="http://www.w3.org/1999/xlink" version="1.1" id="Capa_1" x="0px" y="0px" viewBox="0 0 500 500" style="enable-background:new 0 0 500 500;" xml:space="preserve" width="512" height="512">
<g>
	<path style="fill:#251426;" d="M440.28,411.463l35.934,23.873l6.106-9.862l-12.841-3.64c0,0,17.91,5.105,23.961-25.425   c0,0-31.821,28.118-43.124-3.844L440.28,411.463z"/>
	<polygon style="fill:#E08392;" points="182.883,408.104 308.503,281.84 474.414,379.3 439.755,433.846 312.654,332.81    236.213,433.846  "/>
	<path style="fill:#251626;" d="M410.336,356.356c0.264,0,0.529-0.087,0.747-0.266c0.51-0.413,0.589-1.16,0.176-1.67   c-0.626-0.771-6.231-7.536-10.521-7.536c-0.656,0-1.187,0.531-1.187,1.187s0.531,1.187,1.187,1.187   c2.386,0,6.588,4.083,8.675,6.657C409.649,356.206,409.99,356.356,410.336,356.356z"/>
	<path style="fill:#251626;" d="M395.104,358.464c0.264,0,0.526-0.087,0.747-0.264c0.51-0.413,0.589-1.161,0.176-1.671   c-0.626-0.771-6.229-7.536-10.519-7.536c-0.656,0-1.187,0.531-1.187,1.187c0,0.656,0.531,1.187,1.187,1.187   c2.391,0,6.588,4.083,8.673,6.657C394.416,358.314,394.759,358.464,395.104,358.464z"/>
	<path style="fill:#251626;" d="M391.042,341.316c0.264,0,0.526-0.087,0.747-0.264c0.51-0.413,0.589-1.161,0.176-1.671   c-0.626-0.771-6.229-7.536-10.519-7.536c-0.656,0-1.187,0.531-1.187,1.187s0.531,1.187,1.187,1.187   c2.391,0,6.588,4.083,8.673,6.657C390.353,341.165,390.696,341.316,391.042,341.316z"/>
	<path style="fill:#251626;" d="M380.117,344.864c0.264,0,0.526-0.087,0.747-0.264c0.51-0.413,0.589-1.161,0.176-1.671   c-0.626-0.771-6.229-7.536-10.519-7.536c-0.656,0-1.187,0.531-1.187,1.187s0.531,1.187,1.187,1.187   c2.391,0,6.588,4.083,8.673,6.657C379.428,344.713,379.771,344.864,380.117,344.864z"/>
	<path style="fill:#251626;" d="M365.115,331.25c0.264,0,0.529-0.087,0.747-0.266c0.51-0.413,0.589-1.159,0.176-1.67   c-0.626-0.771-6.231-7.536-10.521-7.536c-0.656,0-1.187,0.531-1.187,1.187c0,0.656,0.531,1.187,1.187,1.187   c2.386,0,6.588,4.083,8.675,6.657C364.429,331.099,364.77,331.25,365.115,331.25z"/>
	<path style="fill:#251626;" d="M418.577,370.766c0.264,0,0.529-0.087,0.747-0.266c0.51-0.413,0.589-1.161,0.176-1.67   c-0.626-0.771-6.231-7.534-10.521-7.534c-0.656,0-1.187,0.531-1.187,1.187c0,0.656,0.531,1.187,1.187,1.187   c2.386,0,6.588,4.083,8.675,6.655C417.891,370.615,418.232,370.766,418.577,370.766z"/>
	<path style="fill:#251626;" d="M422.564,421.367c0.404,0,0.798-0.206,1.018-0.579l31.557-52.801   c0.339-0.562,0.153-1.292-0.408-1.628c-0.564-0.336-1.294-0.154-1.628,0.41l-31.557,52.801c-0.339,0.562-0.153,1.292,0.408,1.628   C422.146,421.313,422.355,421.367,422.564,421.367z"/>
	<path style="fill:#DD7C2E;" d="M418.576,306.747c0,0-16.816-24.274-41.204-8.102c-19.953,13.232-25.48,114.29-60.308,72.852   l-9.499,9.399c0,0,19.041,30.199,40.369,13.557c21.328-16.642,28.083-86.789,43.664-84.622S432.631,331.512,418.576,306.747z"/>
	<g>
		<path style="fill:#D43F16;" d="M121.462,183.551c0,0,2.465,29.817-22.865,26.421c-25.33-3.396-16.346-27.042-6.986-24.717    s6.791,35.237-21.211,24.717s-21.328-35.061-8.834-30.31c12.494,4.751,8.536,26.07-18.377,22.534    c-26.913-3.535-36.411-36.822-17.414-36.01s11.752,32.362-9.955,22.92s6.8-27.36,10.747-59.958"/>
		<path style="fill:#251626;" d="M69.982,211.085c-6.213-2.335-10.528-5.225-13.527-8.127c-3.622,0.874-8.065,1.119-13.422,0.416    c-9.202-1.208-16.444-5.83-21.312-11.434c-2.05-0.216-4.193-0.795-6.375-1.745c-4.485-1.951-7.187-4.39-8.256-7.458    c-1.925-5.525,1.649-12.229,6.175-20.718c4.682-8.782,10.51-19.713,12.121-33.013c0.079-0.653,0.684-1.124,1.322-1.037    c0.649,0.079,1.113,0.671,1.034,1.322c-1.663,13.741-7.606,24.889-12.381,33.844c-4.253,7.976-7.613,14.276-6.029,18.82    c0.839,2.407,3.117,4.39,6.959,6.062c1.108,0.482,2.194,0.858,3.251,1.131c-3.527-5.058-5.236-10.554-4.856-14.923    c0.524-6.051,4.661-9.502,11.138-9.225c5.459,0.233,9.566,2.973,11.266,7.515c1.967,5.25,0.376,11.731-3.868,15.759    c-2.296,2.181-5.141,3.423-8.309,3.701c4.464,4.465,10.702,8.029,18.429,9.045c4.408,0.579,8.13,0.484,11.224-0.086    c-3.335-3.975-4.411-7.728-4.756-9.828c-0.763-4.64,0.584-9.01,3.513-11.405c2.393-1.958,5.475-2.363,8.664-1.149    c5.688,2.164,8.65,7.685,7.2,13.428c-0.993,3.941-4.176,8.001-10.097,10.182c2.725,2.384,6.5,4.735,11.725,6.698    c7.5,2.816,13.752,2.633,18.183-0.511c-4.578-2.407-6.498-5.648-7.298-7.817c-1.943-5.261-0.114-10.629,2.562-13.616    c2.191-2.448,4.979-3.47,7.632-2.813c2.495,0.619,4.422,2.993,5.29,6.511c1.234,5.006,0.209,12.084-3.901,16.981    c1.568,0.509,3.376,0.921,5.468,1.201c6.412,0.863,11.498-0.439,15.104-3.865c7.483-7.104,6.433-21.142,6.421-21.283    c-0.053-0.654,0.431-1.227,1.085-1.28c0.638-0.061,1.227,0.432,1.28,1.085c0.051,0.62,1.162,15.297-7.145,23.193    c-4.153,3.948-9.904,5.465-17.061,4.502c-2.741-0.368-5.046-0.962-6.989-1.702c-2.314,1.976-5.828,3.786-10.922,3.786    C77.57,213.232,74.08,212.623,69.982,211.085z M86.032,188.5c-2.198,2.457-3.703,6.876-2.103,11.21    c0.849,2.302,2.764,5.03,6.994,6.97c4.058-4.27,5.095-10.883,3.959-15.498c-0.649-2.634-1.946-4.374-3.555-4.774    c-0.332-0.082-0.668-0.123-1.006-0.123C88.842,186.285,87.323,187.059,86.032,188.5z M54.827,181.539    c-2.275,1.859-3.298,5.377-2.671,9.182c0.329,2.009,1.424,5.716,5.018,9.583c5.784-1.766,8.826-5.384,9.714-8.905    c1.143-4.536-1.22-8.906-5.744-10.628c-0.916-0.348-1.813-0.521-2.667-0.521C57.121,180.251,55.873,180.685,54.827,181.539z     M17.053,174.431c-0.387,4.454,1.653,10.198,5.77,15.233c3.407,0.188,6.405-0.871,8.766-3.112    c3.516-3.337,4.895-8.89,3.279-13.204c-1.368-3.659-4.617-5.781-9.144-5.975c-0.211-0.009-0.417-0.014-0.621-0.014    C20.302,167.359,17.45,169.853,17.053,174.431z"/>
	</g>
	<path style="fill:#DD7C2E;" d="M272.328,241.812c0,0-45.441-2.581-51.878,29.297s32.57-13.831,47.797-10.021   C283.475,264.898,272.328,241.812,272.328,241.812z"/>
	<polygon style="fill:#F2BA9B;" points="179.645,254.271 212.822,289.69 278.618,246.178 292.24,274.268 197.692,341.818    165.885,268.9  "/>
	<path style="fill:#F2BA9B;" d="M119.251,174.392l-10.21,49.452l-29.711-4.946c0,0,24.161,51.649,50.874,42.023   s23.48-36.913,23.48-36.913l-25.218,2.836l13.461-42.627L119.251,174.392z"/>
	<path style="fill:#9CD1C3;" d="M138.021,224.926c0,0,1.935,25.347-7.817,26.279c-9.752,0.932-31.231-29.036-31.231-29.036   s-27.099-11.93-32.202,4.787S48.184,367.571,135.212,420.18l83.284-78.363c0,0-38.863-77.148-38.85-95.605   C179.659,227.757,152.979,217.741,138.021,224.926z"/>
	<path style="fill:#F2BA9B;" d="M258.122,289.69l-120.1,41.822c0,0-62.208-114.966-67.621-109.25   c-36.314,38.342,51.062,138.189,51.062,138.189l141.087-51.562L258.122,289.69z"/>
	<path style="fill:#251426;" d="M391.599,473.952l34.467,25.947l6.676-9.486l-12.604-4.389c0,0,17.579,6.151,25.416-23.97   c0,0-33.421,26.196-42.823-6.375L391.599,473.952z"/>
	<path style="fill:#F2BA9B;" d="M88.927,75.462c0,0,50.331-60.363,110.797-33.266c45.24,20.274,40.626,175.308-32.975,172.679   C114.578,213.013,53.614,118.132,88.927,75.462z"/>
	<path style="fill:#251626;" d="M186.124,140.11c0.677,0,1.245-0.315,1.568-0.879c1.99-3.468-11.37-24.407-19.51-36.58   c-0.364-0.545-1.099-0.691-1.649-0.327c-0.545,0.364-0.691,1.102-0.327,1.646c9.457,14.142,18.948,30.096,19.389,33.726   c-5.624-0.448-21.84-3.091-22.007-3.119c-0.64-0.106-1.257,0.333-1.364,0.981c-0.107,0.647,0.332,1.257,0.979,1.364   c0.719,0.117,17.629,2.873,22.784,3.183C186.034,140.108,186.078,140.11,186.124,140.11z"/>
	<path style="fill:#251626;" d="M137.956,117.267c0.067,0,0.135-0.002,0.202-0.008c5.489-0.398,5.144-15.912,4.905-20.658   c-0.03-0.654-0.503-1.187-1.245-1.127c-0.654,0.034-1.157,0.59-1.125,1.245c0.422,8.471-0.587,18.017-2.706,18.172   c-0.021,0.001-0.042,0.002-0.06,0.002c-2.266,0-6.108-9.021-8.309-17.554c-0.165-0.634-0.809-1.019-1.447-0.853   c-0.635,0.165-1.016,0.812-0.853,1.447C128.497,102.507,132.718,117.267,137.956,117.267z"/>
	<path style="fill:#251626;" d="M193.696,112.134c0.067,0,0.132-0.002,0.197-0.007c5.489-0.4,5.144-15.913,4.907-20.658   c-0.03-0.653-0.598-1.15-1.243-1.127c-0.656,0.032-1.159,0.59-1.127,1.245c0.42,8.471-0.589,18.016-2.709,18.172   c-2.405,0.158-8.068-8.943-11.899-17.49c-0.267-0.599-0.972-0.864-1.568-0.597c-0.598,0.268-0.867,0.97-0.598,1.569   C181.66,97.71,188.531,112.133,193.696,112.134z"/>
	<circle style="fill:#F2BA9B;" cx="240.259" cy="100.67" r="13.756"/>
	<path style="fill:#251626;" d="M239.155,111.865c0.155,0,0.311-0.03,0.464-0.094c0.603-0.255,0.886-0.952,0.631-1.556   c-2.027-4.786-2.342-8.465-0.909-10.641c1.507-2.289,4.506-2.333,4.536-2.333c0.656-0.003,1.185-0.539,1.18-1.194   c-0.005-0.654-0.536-1.18-1.187-1.18c-0.153,0.036-4.286,0.02-6.514,3.402c-1.915,2.909-1.677,7.24,0.705,12.872   C238.253,111.594,238.693,111.865,239.155,111.865z"/>
	<circle style="fill:#EA7C71;" cx="121.462" cy="138.468" r="14.061"/>
	<circle style="fill:#EA7C71;" cx="206.399" cy="131.791" r="14.061"/>
	<path style="fill:#D43F16;" d="M226.82,105.233c0,0-15.103-73.726-67.861-61.11c-139.481,33.353-52.396,133.045-52.396,133.045   s-61.87,3.016-79.997-48.019C13.19,91.489,24.429,13.75,121.462,0.856C194.867-8.899,255.565,67.177,226.82,105.233z"/>
	<circle style="fill:#F2BA9B;" cx="78.317" cy="132.075" r="14.749"/>
	<path style="fill:#251626;" d="M84.095,140.141c0.016,0,0.032,0,0.049-0.001c0.656-0.027,1.164-0.58,1.139-1.235   c-0.188-4.513-1.642-7.692-4.323-9.45c-4.513-2.96-10.728-0.624-10.987-0.521c-0.612,0.235-0.916,0.921-0.682,1.533   c0.237,0.612,0.911,0.917,1.535,0.683c0.051-0.021,5.35-2.004,8.838,0.296c2.001,1.316,3.091,3.858,3.244,7.556   C82.936,139.641,83.462,140.141,84.095,140.141z"/>
	<path style="fill:#DD7C2E;" d="M300.227,240.573c0,0,79.226,48.379,39.965,115.223s-97.669,3.836-91.777-13.561   c5.891-17.397,38.651-74.419,14.35-104.615S300.227,240.573,300.227,240.573z"/>
	<path style="fill:#F2BA9B;" d="M263.928,285.704c0,0,37.407-17.115,38.499-12.627s-23.985,15.096-23.985,15.096   s32.195-2.734,36.81,0.236c4.615,2.97-31.718,6.849-31.718,6.849s41.235,0.128,40.018,3.814   c-1.217,3.685-36.477,6.598-36.477,6.598s34.401,6.926,26.386,10.253c-8.015,3.327-50.015-1.688-55.696-10.301   C252.084,297.009,261.097,287.767,263.928,285.704z"/>
	<polygon style="fill:#E08392;" points="135.212,420.18 227.387,308.889 426.262,440.965 391.055,500 234.081,366.04    182.933,433.846  "/>
	<path style="fill:#DD7C2E;" d="M278.618,259.239c0,0-44.991,6.886-44.685,39.406c0.306,32.519,27.222-15.828,44.685-19.703V259.239   z"/>
	<path style="fill:#DD7C2E;" d="M335.625,163.948c0,0-0.596,83.527-46.383,83.514c-93.425-0.026-29.389-103.921-29.389-103.921   l17.117,39.8l27.095,2.945L335.625,163.948z"/>
	<path style="fill:#F7C67C;" d="M299.557,242.788c0,0-5.077-37.182-33.699-32.816c0,0-13.912-23.568-27.357-4.367   c0,0-4.57,36.159,29.039,39.743C296.249,248.411,299.557,242.788,299.557,242.788z"/>
	<path style="fill:#251626;" d="M326.059,194.623c0.443,0,0.867-0.249,1.071-0.676l7.268-15.213c0.218-0.458,0.123-1.005-0.241-1.36   c-0.366-0.357-0.916-0.439-1.366-0.211l-20.277,10.238c-0.584,0.296-0.819,1.01-0.524,1.595c0.297,0.583,1.013,0.817,1.595,0.524   l17.17-8.67l-5.767,12.073c-0.283,0.591-0.032,1.3,0.559,1.583C325.711,194.586,325.887,194.623,326.059,194.623z"/>
	<path style="fill:#251626;" d="M290.952,214.009c3.571,0.001,9.301-6.928,11.736-10.098c0.399-0.521,0.301-1.266-0.218-1.665   c-0.519-0.401-1.262-0.303-1.665,0.218c-4.313,5.617-8.805,9.554-9.839,9.18c-0.615-0.94,1.259-6.926,4.091-12.75   c0.285-0.59,0.039-1.301-0.55-1.587c-0.591-0.284-1.301-0.041-1.589,0.548c-0.911,1.876-5.392,11.401-4.105,14.671   c0.322,0.813,0.884,1.175,1.299,1.335C290.374,213.961,290.657,214.009,290.952,214.009z"/>
	<path style="fill:#251626;" d="M254.961,206.787c3.425,0,7.147-7.407,8.671-10.793c0.269-0.598,0.002-1.301-0.596-1.57   c-0.594-0.271-1.301-0.001-1.57,0.596c-2.646,5.882-5.753,9.724-6.489,9.394c-0.939-0.464-1.113-6.274,0.072-13.066   c0.114-0.646-0.318-1.26-0.965-1.374c-0.631-0.108-1.262,0.318-1.373,0.966c-0.747,4.267-2.099,14.338,1.412,15.691   C254.4,206.738,254.678,206.787,254.961,206.787z"/>
	<path style="fill:#251626;" d="M262.549,219.442c0.248,0,0.494-0.078,0.7-0.228l7.27-5.308c0.529-0.386,0.645-1.129,0.26-1.659   c-0.392-0.529-1.134-0.642-1.66-0.259l-5.962,4.353l-2.273-6.747c-0.209-0.618-0.881-0.958-1.503-0.746   c-0.621,0.209-0.955,0.882-0.747,1.504l2.79,8.282c0.121,0.358,0.404,0.638,0.765,0.753   C262.307,219.424,262.428,219.442,262.549,219.442z"/>
	<path style="fill:#251626;" d="M260.568,234.796c6.164,0,9.48-6.152,10.396-9.562c0.172-0.633-0.204-1.282-0.835-1.454   c-0.642-0.167-1.285,0.205-1.456,0.836c-0.093,0.342-2.328,8.39-8.801,7.772c-5.338-0.516-7.031-10.423-7.233-14.196   c-0.035-0.654-0.601-1.15-1.248-1.122c-0.654,0.035-1.157,0.593-1.122,1.248c0.032,0.637,0.916,15.617,9.376,16.434   C259.958,234.781,260.267,234.796,260.568,234.796z"/>
	<path style="fill:#251626;" d="M259.761,234.757c0.561,0,1.062-0.401,1.166-0.974l2.79-15.315c0.116-0.646-0.311-1.264-0.955-1.381   c-0.633-0.126-1.264,0.307-1.382,0.954l-2.79,15.315c-0.116,0.646,0.311,1.264,0.955,1.381   C259.617,234.751,259.689,234.757,259.761,234.757z"/>
	<path style="fill:#251626;" d="M264.789,180.85c0.102,0,0.209-0.014,0.313-0.042c0.633-0.174,1.006-0.827,0.833-1.459l-5.03-18.365   c-0.128-0.467-0.529-0.809-1.009-0.865c-0.487-0.064-0.951,0.188-1.18,0.613l-8.304,15.304c-0.313,0.576-0.1,1.296,0.478,1.609   c0.568,0.31,1.296,0.101,1.609-0.478l6.897-12.708l4.248,15.516C263.787,180.503,264.267,180.85,264.789,180.85z"/>
	<path style="fill:#9CD1C3;" d="M130.204,301.77l-61.691,18.79c0,0-41.225-93.348,10.817-101.662   C79.329,218.898,99.869,224.392,130.204,301.77z"/>
	<path style="fill:#9CD1C3;" d="M204.434,268.9l-21.501,20.79l-37.403-64.764C145.53,224.926,170.873,209.913,204.434,268.9z"/>
	<path style="fill:#251626;" d="M204.435,307.462c0.097,0,0.197-0.012,0.297-0.038l29.498-7.629   c0.635-0.163,1.016-0.812,0.853-1.446c-0.165-0.635-0.802-1.025-1.447-0.852l-29.498,7.629c-0.635,0.163-1.016,0.812-0.853,1.446   C203.424,307.107,203.906,307.462,204.435,307.462z"/>
	<path style="fill:#E08392;" d="M256.274,394.452c0,0-22.012,83.886-81.292,47.626l65.664-81.628L256.274,394.452z"/>
	<path style="fill:#E08392;" d="M218.495,415.756c0,0-22.377,57.536-83.284,4.424l92.176-111.291L218.495,415.756z"/>
	<path style="fill:#251626;" d="M185.419,444.182c1.7,0,3.402-0.1,5.102-0.313c25.152-3.157,46.714-59.847,50.515-70.395   l27.144,21.903c0.51,0.412,1.257,0.335,1.67-0.179c0.413-0.51,0.334-1.258-0.176-1.67l-28.449-22.956   c-0.304-0.242-0.703-0.327-1.074-0.217c-0.373,0.107-0.67,0.388-0.795,0.754c-0.232,0.671-23.44,67.178-49.13,70.403   c-25.882,3.273-53.935-21.957-54.213-22.211c-0.492-0.442-1.238-0.406-1.679,0.079c-0.441,0.485-0.406,1.236,0.079,1.678   C135.514,422.062,160.144,444.182,185.419,444.182z"/>
	<path style="fill:#251626;" d="M194.111,290.876c0.16,0,0.325-0.032,0.48-0.101c0.601-0.266,0.872-0.967,0.605-1.566   c-16.769-37.917-27.937-51.303-28.403-51.854c-0.429-0.5-1.173-0.561-1.674-0.138c-0.499,0.423-0.561,1.172-0.139,1.673   c0.114,0.132,11.447,13.746,28.046,51.279C193.22,290.613,193.656,290.876,194.111,290.876z"/>
	<path style="fill:#251626;" d="M68.512,321.747c0.114,0,0.232-0.016,0.346-0.051l61.692-18.79c0.327-0.1,0.596-0.335,0.735-0.646   c0.141-0.311,0.141-0.668,0.002-0.979l-19.709-43.661c-0.271-0.599-0.974-0.862-1.572-0.594c-0.596,0.269-0.863,0.973-0.594,1.57   l19.155,42.431L69.196,319.11c-3.142-7.663-22.956-57.891-11.273-77.939c0.332-0.567,0.139-1.294-0.427-1.624   c-0.561-0.329-1.292-0.14-1.623,0.428c-13.202,22.651,10.531,78.679,11.546,81.052C67.612,321.473,68.048,321.747,68.512,321.747z"/>
	<g>
		<path style="fill:#D43F16;" d="M186.784,30.167c0,0,36.086,19.612,5.553,39.86c-20.844,13.823-39.902-14.775-26.452-14.706    c13.45,0.069,13.863,23.864-7.715,26.215c-21.579,2.35-33.046-17.057-22.959-20.81s13.864,21.297-13.75,26.186    S88.771,67.56,101.6,69.391s15.735,31.291-6.694,33.975S49.326,76.787,70.4,66.869"/>
		<path style="fill:#251626;" d="M61.594,83.031c-2.143-7.464,0.884-13.746,8.3-17.237c0.589-0.276,1.301-0.024,1.579,0.569    c0.281,0.594,0.026,1.301-0.568,1.58c-6.347,2.987-8.842,8.112-7.029,14.432c3.017,10.511,17.163,21.456,30.889,19.811    c9.594-1.148,14.028-7.34,15.22-13.71c-8.907-1.231-12.979-6.069-14.236-7.934c-2.24-3.322-2.658-7.111-1.064-9.654    c1.347-2.149,3.924-3.123,7.082-2.674c6.331,0.903,11.031,8.132,10.932,16.813c-0.005,0.435-0.023,0.875-0.056,1.321    c2.495,0.128,5.348-0.027,8.613-0.604c8.631-1.528,13.566-4.923,16.381-8.157c-3.838-2.834-6.305-6.382-7.057-9.562    c-0.932-3.938,0.645-7.081,4.216-8.411c2.391-0.885,4.673-0.481,6.426,1.154c2.602,2.431,3.407,6.958,2.052,11.532    c-0.35,1.182-1.013,2.879-2.247,4.743c4.313,2.52,10.118,4.062,17.017,3.313c6.799-0.741,11.287-3.69,13.752-7.323    c-1.563-0.722-3.08-1.646-4.534-2.77c-5.15-3.985-8.001-9.449-6.781-12.991c0.404-1.175,1.637-3.138,5.357-3.138    c0.019,0,0.037,0,0.056,0c5.904,0.03,10.257,4.447,10.582,10.738c0.118,2.275-0.295,4.661-1.28,6.924    c4.306,1.355,10.062,1.5,16.486-2.758c8.038-5.33,11.982-11.034,11.725-16.953c-0.508-11.662-17.021-20.784-17.188-20.874    c-0.575-0.314-0.788-1.035-0.475-1.611c0.313-0.574,1.032-0.79,1.609-0.477c0.73,0.397,17.856,9.85,18.427,22.854    c0.299,6.81-4.003,13.216-12.785,19.039c-6.039,4.004-12.745,4.965-18.928,2.915c-2.743,4.363-7.88,7.926-15.767,8.785    c-7.544,0.822-13.919-0.94-18.673-3.802c-3.082,3.652-8.492,7.492-17.958,9.167c-3.523,0.623-6.616,0.787-9.325,0.625    c-1.308,7.131-6.329,14.526-17.295,15.839c-1.048,0.125-2.094,0.186-3.138,0.186C77.927,104.73,64.704,93.868,61.594,83.031z     M96.697,72.149c-1.095,1.749-0.696,4.522,1.02,7.066c1.097,1.627,4.643,5.808,12.564,6.908c0.023-0.376,0.039-0.75,0.042-1.122    c0.086-7.494-3.738-13.699-8.891-14.435c-0.404-0.058-0.788-0.086-1.155-0.086C98.633,70.481,97.383,71.056,96.697,72.149z     M135.626,61.84c-3.254,1.211-3.11,4.052-2.736,5.639c0.652,2.748,2.797,5.801,6.152,8.264c1.074-1.62,1.651-3.089,1.955-4.117    c1.252-4.23,0.202-7.629-1.396-9.122c-0.689-0.644-1.503-0.968-2.4-0.968C136.699,61.535,136.173,61.636,135.626,61.84z     M162.725,58.045c-0.747,2.166,1.331,6.736,5.99,10.339c0.972,0.751,2.419,1.729,4.248,2.558c0.874-1.946,1.241-3.994,1.141-5.947    c-0.218-4.204-2.845-8.459-8.225-8.486c-0.014,0-0.028,0-0.044,0C164.124,56.509,163.078,57.026,162.725,58.045z"/>
	</g>
	<path style="fill:#251626;" d="M140.674,206.793c0.494,0,0.955-0.31,1.122-0.802c0.213-0.62-0.118-1.296-0.737-1.509   c-0.16-0.054-15.906-5.528-19.994-13.861c-0.29-0.59-1.002-0.831-1.591-0.543c-0.587,0.289-0.83,0.999-0.543,1.589   c4.522,9.216,20.674,14.828,21.358,15.062C140.417,206.772,140.547,206.793,140.674,206.793z"/>
	<path style="fill:#EA7C71;" d="M153.807,164.517c0,0,7.841-12.142,12.079-10.274c4.238,1.868,4.666,10.274,4.666,10.274   s0.883-9.652,4.431-8.095c3.547,1.557,7.283,4.144,9.774,14.059C187.247,180.395,156.482,207.482,153.807,164.517z"/>
	<path style="fill:#251626;" d="M168.456,180.395c0.461,0,0.904-0.079,1.331-0.247c7.122-2.798,13.571-23.226,14.28-25.546   c0.192-0.626-0.158-1.291-0.786-1.483c-0.624-0.194-1.292,0.16-1.482,0.787c-1.844,6-7.745,22.015-12.88,24.032   c-3.998,1.565-14.016-13.346-19.851-24.443c-0.304-0.584-1.027-0.801-1.602-0.499c-0.58,0.305-0.805,1.023-0.499,1.602   C149.333,159.101,160.928,180.395,168.456,180.395z"/>
	<path style="fill:#251626;" d="M372.309,478.977c0.329,0,0.656-0.136,0.891-0.402l40.406-45.821   c0.434-0.492,0.387-1.242-0.104-1.675c-0.496-0.436-1.245-0.386-1.677,0.105l-40.406,45.821c-0.434,0.492-0.387,1.242,0.104,1.675   C371.75,478.879,372.031,478.977,372.309,478.977z"/>
	<path style="fill:#251626;" d="M240.477,368.566c0.002,0,0.005,0,0.007,0c0.515-0.003,0.969-0.339,1.125-0.83l7.938-25.142   c0.197-0.625-0.148-1.292-0.775-1.489c-0.628-0.199-1.292,0.151-1.489,0.775l-6.829,21.628l-5.394-16.406   c-0.202-0.623-0.879-0.964-1.498-0.757c-0.624,0.205-0.962,0.877-0.756,1.499l6.544,19.906   C239.51,368.237,239.964,368.566,240.477,368.566z"/>
	<path style="fill:#251626;" d="M238.292,311.018c0.543,0,1.03-0.372,1.157-0.921c1.148-4.987,8.07-10.463,8.14-10.518   c0.515-0.405,0.605-1.15,0.202-1.666c-0.404-0.519-1.15-0.608-1.667-0.203c-0.311,0.243-7.653,6.047-8.988,11.854   c-0.146,0.64,0.253,1.277,0.891,1.424C238.116,311.009,238.204,311.018,238.292,311.018z"/>
	<path style="fill:#251626;" d="M234.125,303.647c0.111,0,0.223-0.015,0.336-0.049c0.628-0.186,0.988-0.845,0.802-1.475   c-1.463-4.959,6.435-9.801,6.516-9.849c0.564-0.334,0.751-1.062,0.415-1.627c-0.332-0.566-1.064-0.75-1.626-0.416   c-0.392,0.233-9.587,5.772-7.583,12.564C233.139,303.312,233.612,303.647,234.125,303.647z"/>
	<path style="fill:#251626;" d="M221.363,283.027c0.448,0,0.877-0.255,1.076-0.688c1.41-3.038,5.867-9.257,5.913-9.32   c0.383-0.532,0.26-1.274-0.271-1.657c-0.533-0.383-1.273-0.264-1.658,0.272c-0.188,0.262-4.636,6.465-6.136,9.705   c-0.276,0.595-0.019,1.301,0.577,1.577C221.025,282.992,221.196,283.027,221.363,283.027z"/>
	<path style="fill:#251626;" d="M219.877,275.945c0.016,0,0.035,0,0.053-0.001c0.654-0.029,1.162-0.583,1.134-1.238   c-0.188-4.225,5.285-6.514,5.341-6.536c0.605-0.248,0.897-0.94,0.652-1.548c-0.248-0.608-0.937-0.899-1.544-0.653   c-0.29,0.117-7.082,2.935-6.82,8.841C218.72,275.448,219.244,275.945,219.877,275.945z"/>
	<path style="fill:#251626;" d="M311.816,276.126c3.901,0,10.96-0.205,23.867-0.839c0.656-0.032,1.16-0.589,1.127-1.244   c-0.032-0.654-0.594-1.178-1.243-1.128c-8.323,0.409-21.184,0.914-25.901,0.849c2.389-2.631,8.487-8.45,14.19-13.646   c0.485-0.442,0.519-1.193,0.077-1.678c-0.443-0.481-1.194-0.517-1.677-0.078c-15.929,14.515-15.913,15.748-15.906,16.342   c0.005,0.339,0.181,0.73,0.438,0.952C307.02,275.855,307.335,276.126,311.816,276.126z"/>
	<path style="fill:#251626;" d="M351.113,318.146c0.482,0,0.937-0.296,1.113-0.775c0.227-0.616-0.086-1.299-0.7-1.526   c-11.333-4.199-23.63-9.143-26.534-10.881c2.277-1.9,12.664-6.413,21.887-9.856c0.615-0.228,0.928-0.913,0.698-1.527   c-0.23-0.616-0.914-0.924-1.528-0.697c-10.477,3.909-23.097,9.139-23.728,11.854c-0.125,0.536,0.019,1.07,0.394,1.468   c2.082,2.197,23.677,10.27,27.986,11.865C350.837,318.123,350.976,318.146,351.113,318.146z"/>
	<path style="fill:#251626;" d="M335.625,364.043c0.232,0,0.464-0.067,0.67-0.206c0.54-0.37,0.679-1.108,0.311-1.65   c-8.404-12.312-17.086-26.155-18.107-29.552c0.039-0.001,0.081-0.002,0.123-0.002c3.439,0,16.741,3.829,28.665,7.879   c0.624,0.21,1.294-0.121,1.507-0.743c0.211-0.62-0.123-1.295-0.742-1.506c-30.207-10.255-31.355-7.939-31.851-6.953   c-0.995,1.99,5.211,12.829,18.443,32.217C334.873,363.862,335.247,364.043,335.625,364.043z"/>
	<path style="fill:#251626;" d="M162.058,28.37c0.262,0,0.526-0.086,0.744-0.263c0.51-0.412,0.591-1.158,0.181-1.67   c-0.264-0.326-6.544-8.055-16.24-14.511c-12.982-8.645-25.822-10.689-37.129-5.913c-0.605,0.255-0.888,0.951-0.633,1.555   c0.257,0.606,0.958,0.884,1.556,0.632c25.585-10.802,50.35,19.422,50.596,19.729C161.369,28.219,161.712,28.37,162.058,28.37z"/>
	<path style="fill:#251626;" d="M125.513,53.412c0.582,0,1.09-0.43,1.173-1.024c0.049-0.352,4.592-35.352-22.953-39.782   c-0.626-0.112-1.257,0.336-1.359,0.983c-0.104,0.648,0.336,1.257,0.983,1.361c10.54,1.695,17.274,8.383,20.02,19.876   c2.089,8.759,0.969,17.151,0.958,17.235c-0.09,0.649,0.364,1.249,1.013,1.339C125.404,53.408,125.457,53.412,125.513,53.412z"/>
	<path style="fill:#251626;" d="M91.611,53.412c0.489,0,0.946-0.304,1.12-0.792c0.343-0.975,8.346-24.032-0.118-37.337   c-0.355-0.55-1.09-0.712-1.64-0.364c-0.552,0.352-0.717,1.085-0.364,1.64c7.843,12.327-0.037,35.042-0.118,35.271   c-0.218,0.618,0.107,1.296,0.724,1.514C91.347,53.39,91.479,53.412,91.611,53.412z"/>
	<path style="fill:#251626;" d="M62.851,56.509c0.097,0,0.199-0.013,0.299-0.038c0.635-0.166,1.016-0.814,0.849-1.448   c-4.805-18.445,13.77-32.576,13.958-32.716c0.526-0.393,0.633-1.136,0.241-1.662c-0.39-0.522-1.132-0.635-1.66-0.242   c-0.202,0.15-20.048,15.214-14.835,35.218C61.842,56.155,62.322,56.509,62.851,56.509z"/>
	<path style="fill:#251626;" d="M347.67,405.632c0.264,0,0.529-0.087,0.747-0.266c0.51-0.413,0.589-1.16,0.176-1.67   c-0.626-0.771-6.229-7.534-10.519-7.534c-0.656,0-1.187,0.531-1.187,1.187s0.531,1.187,1.187,1.187   c2.386,0,6.586,4.083,8.673,6.656C346.981,405.481,347.324,405.632,347.67,405.632z"/>
	<path style="fill:#251626;" d="M332.441,407.74c0.264,0,0.529-0.087,0.747-0.266c0.51-0.413,0.589-1.159,0.176-1.67   c-0.626-0.771-6.231-7.536-10.521-7.536c-0.656,0-1.187,0.531-1.187,1.187c0,0.656,0.531,1.187,1.187,1.187   c2.386,0,6.588,4.083,8.675,6.657C331.754,407.589,332.095,407.74,332.441,407.74z"/>
	<path style="fill:#251626;" d="M328.378,390.591c0.264,0,0.529-0.087,0.747-0.266c0.51-0.413,0.589-1.161,0.176-1.67   c-0.626-0.771-6.231-7.534-10.521-7.534c-0.656,0-1.187,0.531-1.187,1.187c0,0.656,0.531,1.187,1.187,1.187   c2.386,0,6.588,4.083,8.675,6.655C327.691,390.44,328.032,390.591,328.378,390.591z"/>
	<path style="fill:#251626;" d="M317.453,394.139c0.264,0,0.529-0.087,0.747-0.266c0.51-0.413,0.589-1.161,0.176-1.67   c-0.626-0.771-6.231-7.534-10.521-7.534c-0.656,0-1.187,0.531-1.187,1.187s0.531,1.187,1.187,1.187   c2.386,0,6.588,4.083,8.675,6.656C316.767,393.988,317.108,394.139,317.453,394.139z"/>
	<path style="fill:#251626;" d="M312.365,380.525c0.264,0,0.529-0.087,0.747-0.266c0.51-0.413,0.589-1.161,0.176-1.67   c-0.626-0.771-6.231-7.534-10.521-7.534c-0.656,0-1.187,0.531-1.187,1.187c0,0.656,0.531,1.187,1.187,1.187   c2.386,0,6.588,4.083,8.675,6.655C311.679,380.374,312.02,380.525,312.365,380.525z"/>
	<path style="fill:#251626;" d="M299.557,380.525c0.264,0,0.529-0.087,0.747-0.266c0.51-0.413,0.589-1.161,0.176-1.67   c-0.626-0.771-6.231-7.534-10.521-7.534c-0.656,0-1.187,0.531-1.187,1.187c0,0.656,0.531,1.187,1.187,1.187   c2.386,0,6.588,4.083,8.675,6.655C298.871,380.374,299.212,380.525,299.557,380.525z"/>
	<path style="fill:#251626;" d="M68.166,269.249c0.281,0,0.561-0.097,0.786-0.297c0.492-0.435,0.538-1.185,0.104-1.677   c-1.582-1.791-1.301-7.641-0.751-10.907c0.109-0.647-0.327-1.259-0.974-1.368c-0.638-0.094-1.259,0.326-1.368,0.974   c-0.165,0.98-1.526,9.659,1.313,12.874C67.51,269.114,67.837,269.249,68.166,269.249z"/>
	<path style="fill:#251626;" d="M120.339,391.669c0.531,0,1.013-0.356,1.15-0.893c0.162-0.635-0.22-1.282-0.856-1.445   c-2.317-0.592-5.373-5.588-6.758-8.598c-0.271-0.597-0.983-0.855-1.575-0.582c-0.596,0.274-0.856,0.979-0.582,1.575   c0.415,0.902,4.17,8.843,8.325,9.906C120.144,391.657,120.242,391.669,120.339,391.669z"/>
	<path style="fill:#251626;" d="M123.769,378.055c0.531,0,1.013-0.357,1.15-0.893c0.162-0.635-0.22-1.282-0.856-1.445   c-2.317-0.592-5.375-5.588-6.758-8.596c-0.274-0.598-0.974-0.856-1.575-0.584c-0.596,0.275-0.856,0.98-0.582,1.575   c0.413,0.902,4.167,8.845,8.325,9.907C123.574,378.044,123.671,378.055,123.769,378.055z"/>
	<path style="fill:#251626;" d="M105.827,378.055c0.531,0,1.013-0.356,1.15-0.893c0.162-0.635-0.22-1.282-0.856-1.445   c-2.317-0.592-5.373-5.588-6.758-8.598c-0.274-0.595-0.986-0.855-1.575-0.582c-0.596,0.274-0.856,0.979-0.582,1.575   c0.415,0.902,4.17,8.843,8.325,9.906C105.632,378.044,105.729,378.055,105.827,378.055z"/>
	<path style="fill:#251626;" d="M109.597,366.263c0.531,0,1.013-0.357,1.15-0.894c0.162-0.635-0.22-1.281-0.856-1.444   c-2.317-0.591-5.373-5.586-6.758-8.596c-0.274-0.596-0.981-0.857-1.575-0.582c-0.596,0.274-0.856,0.979-0.582,1.575   c0.415,0.902,4.17,8.843,8.325,9.904C109.403,366.252,109.5,366.263,109.597,366.263z"/>
	<path style="fill:#251626;" d="M95.417,363.09c0.531,0,1.013-0.356,1.15-0.893c0.162-0.635-0.22-1.282-0.856-1.445   c-2.317-0.592-5.373-5.588-6.758-8.598c-0.271-0.596-0.983-0.856-1.575-0.582c-0.596,0.274-0.856,0.979-0.582,1.575   c0.415,0.902,4.17,8.843,8.325,9.906C95.222,363.078,95.319,363.09,95.417,363.09z"/>
	<path style="fill:#251626;" d="M133.975,395.217c0.531,0,1.013-0.356,1.15-0.893c0.162-0.635-0.22-1.282-0.856-1.445   c-2.317-0.592-5.373-5.588-6.758-8.598c-0.274-0.596-0.986-0.856-1.575-0.582c-0.596,0.274-0.856,0.979-0.582,1.575   c0.415,0.902,4.17,8.843,8.325,9.906C133.78,395.205,133.877,395.217,133.975,395.217z"/>
	<path style="fill:#251626;" d="M75.921,258.336c0.281,0,0.561-0.097,0.786-0.297c0.492-0.435,0.538-1.185,0.104-1.677   c-1.582-1.791-1.301-7.641-0.751-10.907c0.109-0.647-0.327-1.259-0.974-1.368c-0.638-0.093-1.259,0.326-1.368,0.974   c-0.165,0.98-1.526,9.659,1.313,12.874C75.265,258.201,75.592,258.336,75.921,258.336z"/>
	<path style="fill:#251626;" d="M68.166,248.894c0.281,0,0.561-0.097,0.786-0.297c0.492-0.435,0.538-1.185,0.104-1.677   c-1.582-1.791-1.301-7.641-0.751-10.907c0.109-0.647-0.327-1.259-0.974-1.368c-0.638-0.094-1.259,0.327-1.368,0.974   c-0.165,0.98-1.526,9.659,1.313,12.874C67.51,248.759,67.837,248.894,68.166,248.894z"/>
	<path style="fill:#251626;" d="M69.115,286.788c0.397,0,0.784-0.198,1.009-0.561c0.346-0.557,0.174-1.288-0.383-1.635   c-2.029-1.262-3.444-6.945-3.856-10.231c-0.083-0.654-0.689-1.099-1.326-1.03c-0.652,0.082-1.111,0.676-1.03,1.326   c0.123,0.984,1.317,9.689,4.96,11.952C68.683,286.73,68.899,286.788,69.115,286.788z"/>
	<path style="fill:#251626;" d="M355.911,420.041c0.264,0,0.529-0.087,0.747-0.266c0.51-0.413,0.589-1.161,0.176-1.67   c-0.626-0.771-6.231-7.534-10.519-7.534c-0.656,0-1.187,0.531-1.187,1.187c0,0.656,0.531,1.187,1.187,1.187   c2.384,0,6.586,4.083,8.673,6.655C355.225,419.89,355.566,420.041,355.911,420.041z"/>
	<path style="fill:#251626;" d="M280.737,295.83c0.093,0,0.188-0.01,0.283-0.034c1.366-0.336,7.43-0.413,11.215-0.395   c0.002,0,0.005,0,0.007,0c0.652,0,1.183-0.526,1.187-1.179c0.005-0.656-0.524-1.191-1.18-1.195   c-0.986-0.005-9.703-0.048-11.794,0.463c-0.635,0.157-1.027,0.799-0.87,1.435C279.716,295.467,280.201,295.83,280.737,295.83z"/>
	<path style="fill:#251626;" d="M284.189,307.462c0.051,0,0.1-0.003,0.151-0.009l10.568-1.337c0.652-0.082,1.111-0.676,1.03-1.328   c-0.083-0.652-0.675-1.11-1.326-1.028l-10.568,1.337c-0.652,0.082-1.111,0.676-1.03,1.328   C283.09,307.023,283.6,307.462,284.189,307.462z"/>
</g>















</svg>
