<?xml version="1.0" encoding="UTF-8"?>
<!-- Generator: Adobe Illustrator 25.1.0, SVG Export Plug-In . SVG Version: 6.00 Build 0)  -->
<svg xmlns="http://www.w3.org/2000/svg" xmlns:xlink="http://www.w3.org/1999/xlink" version="1.1" id="Capa_1" x="0px" y="0px" viewBox="0 0 500 500" style="enable-background:new 0 0 500 500;" xml:space="preserve" width="512" height="512">
<g>
	<g>
		<path style="fill:#F7C67C;" d="M77.402,249.706c0,0,24.882-78.777,110.297-94.71s115.788,102.552,149.374,115.71    c49.219,19.282,121.495,192.151-108.458,203.308C-1.337,485.171,77.402,249.706,77.402,249.706z"/>
		<path style="fill:#251626;" d="M122.887,437.92c-0.071,0-0.143-0.008-0.215-0.023c-5.868-1.308-12.684-8.859-12.972-9.179    c-0.361-0.405-0.327-1.026,0.077-1.386c0.403-0.362,1.024-0.328,1.386,0.075c0.066,0.075,6.684,7.404,11.937,8.573    c0.529,0.119,0.862,0.642,0.744,1.172C123.742,437.61,123.336,437.92,122.887,437.92z"/>
		<path style="fill:#251626;" d="M122.168,420.767c-0.071,0-0.143-0.008-0.215-0.024c-5.867-1.308-12.684-8.859-12.972-9.18    c-0.361-0.404-0.327-1.024,0.077-1.386c0.403-0.361,1.023-0.328,1.386,0.077c0.066,0.074,6.684,7.403,11.937,8.574    c0.529,0.118,0.863,0.642,0.744,1.172C123.023,420.456,122.617,420.767,122.168,420.767z"/>
		<path style="fill:#251626;" d="M100.507,401.762c-0.15,0-0.301-0.034-0.443-0.106c-5.361-2.72-10.099-11.723-10.297-12.105    c-0.25-0.48-0.064-1.073,0.417-1.324s1.074-0.063,1.324,0.417c0.046,0.087,4.645,8.826,9.444,11.262    c0.484,0.245,0.677,0.836,0.431,1.319C101.211,401.565,100.866,401.762,100.507,401.762z"/>
		<path style="fill:#251626;" d="M144.321,436.823c-5.958,0-14.04-4.995-14.393-5.216c-0.46-0.286-0.6-0.892-0.314-1.352    c0.287-0.458,0.891-0.598,1.353-0.314c0.085,0.054,8.525,5.277,13.855,4.903c0.519-0.056,1.009,0.376,1.042,0.919    c0.035,0.541-0.377,1.007-0.918,1.041C144.741,436.818,144.532,436.823,144.321,436.823z"/>
		<path style="fill:#251626;" d="M148.591,449.851c-5.957,0-14.039-4.997-14.392-5.218c-0.46-0.286-0.6-0.892-0.314-1.352    c0.288-0.458,0.892-0.602,1.353-0.313c0.084,0.052,8.499,5.267,13.854,4.903c0.528-0.048,1.008,0.376,1.042,0.918    c0.035,0.541-0.377,1.007-0.918,1.041C149.011,449.845,148.803,449.851,148.591,449.851z"/>
		<path style="fill:#251626;" d="M169.877,463.274c-5.956,0-14.036-4.995-14.389-5.216c-0.46-0.286-0.6-0.892-0.314-1.352    c0.288-0.458,0.892-0.602,1.353-0.313c0.084,0.052,8.491,5.269,13.854,4.901c0.517-0.048,1.007,0.376,1.042,0.917    c0.035,0.543-0.377,1.009-0.918,1.043C170.3,463.268,170.09,463.274,169.877,463.274z"/>
		<path style="fill:#251626;" d="M169.88,447.439c-5.957,0-14.039-4.995-14.392-5.216c-0.46-0.286-0.6-0.892-0.314-1.352    c0.288-0.456,0.892-0.6,1.353-0.314c0.084,0.054,8.506,5.266,13.854,4.903c0.517-0.067,1.008,0.374,1.042,0.919    c0.035,0.541-0.377,1.007-0.918,1.041C170.3,447.433,170.091,447.439,169.88,447.439z"/>
		<path style="fill:#251626;" d="M191.511,462.102c-5.87,0-13.57-4.067-13.922-4.253c-0.478-0.255-0.66-0.849-0.405-1.329    c0.255-0.477,0.848-0.662,1.328-0.405c0.087,0.048,8.832,4.683,14.156,3.95c0.535-0.071,1.031,0.307,1.102,0.846    c0.071,0.537-0.307,1.032-0.845,1.103C192.47,462.073,191.996,462.102,191.511,462.102z"/>
		<path style="fill:#251626;" d="M105.412,421.052c-0.131,0-0.265-0.026-0.393-0.082c-5.506-2.411-10.746-11.131-10.966-11.501    c-0.277-0.466-0.125-1.068,0.341-1.346c0.467-0.274,1.069-0.125,1.346,0.341c0.051,0.085,5.138,8.549,10.067,10.707    c0.497,0.218,0.723,0.797,0.505,1.293C106.151,420.832,105.791,421.052,105.412,421.052z"/>
	</g>
	<g>
		<path style="fill:#251426;" d="M390.335,437.88l26.639,23.727l6.147-7.363l-10.088-4.474c0,0,14.068,6.264,22.575-18.025    c0,0-29.323,19.315-34.856-8.166L390.335,437.88z"/>
		<polygon style="fill:#3D9C91;" points="262.211,331.161 299.544,298.984 415.213,415.534 379.093,460.983 303.142,347.327     236.474,421.391 202.708,411.306   "/>
		<path style="fill:#E9546A;" d="M238.371,289.988l36.653-22.485c0,0-26.151-47.155-74.617-42.239L238.371,289.988z"/>
		<path style="fill:#E9546A;" d="M172.191,406.265c0,0-80.216-134.74-51.227-156.562s91.045-33.286,102.677-16.186    c11.632,17.1,44.696,110.454,44.696,110.454L172.191,406.265z"/>
		<path style="fill:#F2BA9B;" d="M186.108,196.847l-1.381,28.417h12.738c0,0,9.377,25.782-13.483,29.312    c-22.86,3.53-33.713-20.674-33.713-20.674l19.472-6.137l-2.582-27.389L186.108,196.847z"/>
		<path style="fill:#F2BA9B;" d="M152.109,70.188c0,0,51.113-40.134,95.338-7.791c33.088,24.198,2.616,148.777-56.45,133.956    C149.128,185.848,129.651,94.26,152.109,70.188z"/>
		<path style="fill:#84556C;" d="M152.109,70.188c0,0-6.256,82.984,12.919,93.331c34.414,18.569-7.832-35.123,42.047-25.664    c31.983,6.066-0.308,29.358,28.067,26.087c21.342-2.46,17.315-93.614,15.282-98.863c-2.034-5.249,32.443,21.608,7.919,75.196    c-8.225,17.973,36.517,36.191-2.409,60.272c-69.103,42.75-149.983-14.668-124.321-40.07    C166.916,125.531,91.064,112.22,152.109,70.188z"/>
		<path style="fill:#251626;" d="M219.91,139.27c-0.149,0-0.303-0.021-0.458-0.064c-4.117-1.139-17.316-6.286-17.876-6.504    c-0.505-0.198-0.755-0.766-0.558-1.271c0.198-0.506,0.77-0.755,1.271-0.558c0.132,0.052,12.79,4.987,17.26,6.318    c0.271-3.011-4.653-17.55-9.861-30.618c-0.201-0.503,0.045-1.075,0.548-1.275c0.503-0.203,1.075,0.044,1.275,0.548    c4.483,11.248,11.676,30.486,9.47,32.947C220.7,139.106,220.324,139.27,219.91,139.27z"/>
		<path style="fill:#251626;" d="M196.463,169.937c-0.721,0-1.378-0.276-1.919-0.813c-3.851-3.816-1.023-22.737-0.688-24.882    c0.083-0.535,0.577-0.9,1.122-0.819c0.536,0.084,0.902,0.586,0.819,1.122c-1.206,7.719-2.237,20.84,0.129,23.184    c0.213,0.21,0.413,0.275,0.708,0.23c4.537-0.752,13.874-13.523,17.09-18.38c0.298-0.453,0.908-0.577,1.36-0.277    c0.453,0.299,0.576,0.909,0.277,1.36c-1.231,1.861-12.209,18.207-18.407,19.234C196.787,169.924,196.623,169.937,196.463,169.937z    "/>
		<path style="fill:#251626;" d="M185.033,112.504c-0.106,0-0.213-0.008-0.321-0.023c-4.38-0.606-5.266-13.547-5.434-17.499    c-0.023-0.542,0.398-0.999,0.94-1.022c0.508-0.015,1,0.397,1.022,0.94c0.313,7.345,1.891,15.381,3.741,15.637    c1.767,0.273,4.205-7.304,5.324-14.228c0.086-0.535,0.591-0.899,1.126-0.813c0.536,0.086,0.899,0.591,0.813,1.126    C191.632,100.406,189.334,112.504,185.033,112.504z"/>
		<path style="fill:#251626;" d="M230.992,117.966c-0.106,0-0.213-0.008-0.321-0.023c-4.26-0.589-7.396-13.718-8.256-17.727    c-0.114-0.53,0.223-1.053,0.754-1.166c0.534-0.115,1.053,0.224,1.166,0.754c1.625,7.574,4.613,15.919,6.605,16.195    c1.769,0.221,4.204-7.304,5.324-14.229c0.087-0.534,0.575-0.902,1.127-0.812c0.535,0.086,0.898,0.591,0.812,1.126    C237.59,105.868,235.292,117.966,230.992,117.966z"/>
		<circle style="fill:#F2BA9B;" cx="129.512" cy="113.266" r="12.196"/>
		<circle style="fill:#F2BA9B;" cx="270.142" cy="116.675" r="11.374"/>
		<path style="fill:#251626;" d="M133.001,120.807c-0.055,0-0.11-0.005-0.166-0.014c-0.534-0.09-0.894-0.597-0.802-1.132    c0.513-3.017,0.069-5.262-1.321-6.671c-2.428-2.46-7.053-1.771-7.098-1.764c-0.534,0.09-1.038-0.281-1.123-0.817    c-0.084-0.535,0.28-1.036,0.815-1.122c0.231-0.038,5.654-0.86,8.796,2.316c1.865,1.884,2.493,4.706,1.866,8.387    C133.886,120.468,133.47,120.807,133.001,120.807z"/>
		<path style="fill:#251626;" d="M267.52,125.559c-0.461,0-0.872-0.326-0.964-0.797c-0.955-4.964-0.4-8.508,1.652-10.53    c2.353-2.322,5.705-1.658,5.847-1.629c0.53,0.11,0.872,0.63,0.762,1.161c-0.11,0.529-0.631,0.871-1.158,0.762    c-0.075-0.012-2.506-0.453-4.085,1.115c-1.522,1.515-1.899,4.541-1.089,8.751c0.102,0.532-0.246,1.047-0.779,1.15    C267.644,125.553,267.582,125.559,267.52,125.559z"/>
		<circle style="fill:#EA7C71;" cx="167.552" cy="126.752" r="11.627"/>
		<circle style="fill:#EA7C71;" cx="235.52" cy="130.555" r="11.627"/>
		<path style="fill:#251626;" d="M183.24,209.214c-0.741,0-1.497-0.038-2.269-0.118c-9.569-0.993-13.796-7.022-15.284-12.58    c-2.626,1.071-6.53,1.605-12.289,0.507c-11.409-2.174-15.125-11.457-14.799-19.42c0-0.003,0-0.006,0-0.009    c-1.761-0.092-3.567-0.754-5.311-1.985c-3.702-2.612-4.755-7.189-2.966-12.89c0.9-2.869,2.435-5.762,4.24-8.269    c-3.32-1.853-3.952-4.65-3.799-6.893c0.226-3.329,2.345-7.104,4.9-10.23c-1.138-0.827-1.876-1.9-2.203-3.205    c-1.197-4.777,3.846-10.882,4.06-11.14c0.349-0.416,0.968-0.47,1.383-0.124c0.416,0.347,0.472,0.966,0.125,1.383    c-1.288,1.545-4.456,6.245-3.662,9.406c0.225,0.894,0.75,1.617,1.592,2.19c2.607-2.824,5.402-4.848,7.013-5.039    c1.299-0.152,2.346,0.355,2.88,1.395c0.729,1.42,0.288,3.452-1.073,4.942c-0.909,0.993-3.543,3.094-8.335,1.159    c-0.005-0.002-0.01-0.004-0.014-0.006c-2.4,2.864-4.5,6.382-4.707,9.402c-0.16,2.339,0.842,4.051,3.051,5.186    c2.82-3.435,6.056-5.827,8.522-5.843c0.012,0,0.025,0,0.038,0c2.362,0,4.583,1.342,5.535,3.349    c0.713,1.504,0.562,3.101-0.406,4.27c-1.036,1.254-3.94,3.052-11.724,1.029c-0.473-0.123-0.915-0.259-1.329-0.406    c-1.764,2.376-3.324,5.194-4.215,8.032c-1.07,3.409-1.552,8.032,2.224,10.697c1.613,1.138,3.074,1.581,4.343,1.628    c0.657-5.192,2.998-9.099,5.801-9.398c1.487-0.165,2.622,0.43,3.109,1.617c0.877,2.136-0.624,5.641-3.348,7.812    c-1.171,0.934-2.438,1.53-3.755,1.79c-0.004,0.077-0.007,0.152-0.011,0.229c-0.292,7.145,3.023,15.471,13.206,17.41    c5.624,1.071,9.221,0.5,11.503-0.526c-0.215-1.314-0.283-2.563-0.244-3.661c0.138-3.904,1.454-6.468,3.353-6.529    c0.993-0.039,1.961,0.572,2.532,1.664c0.884,1.686,0.949,4.696-0.998,7.321c-0.514,0.693-1.289,1.503-2.43,2.231    c1.235,5.037,4.967,10.644,13.692,11.548c4.93,0.513,9.175-0.854,12.497-2.99c-0.658-0.586-1.161-1.164-1.544-1.684    c-1.98-2.698-2.384-6.079-1.081-9.045c1.286-2.927,3.98-4.886,7.208-5.242c2.784-0.302,4.117,0.818,4.745,1.816    c1.28,2.031,0.728,5.46-1.44,8.95c-1.092,1.758-2.629,3.574-4.553,5.18c2.999,1.69,8.046,2.983,16.485,2.053    c8.707-0.959,13.33-3.409,15.783-5.757c-2.925-1.469-4.906-3.69-5.249-6.027c-0.299-2.032,0.67-3.924,2.73-5.328    c1.499-1.024,3.272-1.018,4.744,0.013c2.118,1.485,3.057,4.626,2.286,7.637c-0.19,0.739-0.561,1.747-1.286,2.864    c2.673,0.772,10.519,2.122,17.754-5.523c1.771-1.871,3.165-3.576,4.241-5.117c-1.779-1.209-3.243-2.729-4.176-4.253    c-1.786-2.918-1.53-5.601,0.667-7c2.693-1.713,5.833-1.516,7.469,0.465c0.784,0.95,2.445,4.001-1.191,10.123    c2.783,1.349,6.067,1.732,8.922,0.053c3.666-2.156,5.046-8.704,3.355-15.922c-0.872-3.723-2.742-7.894-5.628-10.665    c-0.552,1.241-1.402,2.158-2.629,2.554c-3.332,1.079-6.477-0.343-7.996-2.115c-1.06-1.239-1.362-2.636-0.807-3.736    c0.47-0.933,1.705-1.997,4.971-1.763c1.965,0.14,3.728,0.752,5.289,1.694c0.202-2.02-0.008-4.634-0.671-7.508    c-0.389-1.69-0.897-3.272-1.475-4.669c-1.395,0.554-2.96,0.522-4.514-0.144c-2.375-1.016-4.047-3.239-3.805-5.058    c0.083-0.629,0.546-2.131,3.031-2.484c2.363-0.337,4.476,1.713,6.104,4.767c0.078-0.085,0.154-0.175,0.231-0.27    c4.217-5.244-2.469-13.477-2.537-13.56c-0.345-0.418-0.286-1.037,0.133-1.382c0.421-0.345,1.038-0.286,1.382,0.133    c0.319,0.387,7.759,9.563,2.552,16.039c-0.273,0.339-0.565,0.643-0.873,0.911c0.693,1.639,1.264,3.45,1.685,5.276    c0.703,3.045,1.04,6.508,0.545,9.238c3.616,3.061,5.908,7.956,6.924,12.295c1.593,6.803,0.891,15.027-4.271,18.063    c-3.646,2.146-7.677,1.619-10.993-0.076c-1.125,1.628-2.597,3.444-4.507,5.462c-5.612,5.926-13.115,8.151-20.073,5.956    c-0.135-0.043-0.268-0.087-0.401-0.132c-2.612,2.812-7.677,5.817-17.5,6.899c-9.525,1.045-15.123-0.659-18.375-2.732    C192.094,207.632,187.999,209.214,183.24,209.214z M199.153,190.093c-0.215,0-0.443,0.013-0.685,0.04    c-2.523,0.277-4.625,1.802-5.625,4.08c-1.017,2.315-0.693,4.967,0.867,7.093c0.378,0.515,0.897,1.093,1.603,1.672    c1.956-1.546,3.502-3.336,4.577-5.067c1.715-2.759,2.296-5.52,1.447-6.868C200.939,190.412,200.206,190.093,199.153,190.093z     M229.122,190.264c-0.382,0-0.806,0.116-1.262,0.427c-1.446,0.986-2.082,2.136-1.894,3.42c0.264,1.794,2.063,3.602,4.644,4.776    c0.738-1.038,1.097-1.977,1.27-2.655c0.639-2.494-0.276-4.676-1.511-5.542C230.05,190.464,229.623,190.264,229.122,190.264z     M168.455,186.339c-0.005,0-0.01,0-0.014,0c-0.357,0.012-1.342,1.455-1.454,4.638c-0.027,0.76,0.004,1.601,0.109,2.488    c0.542-0.432,0.943-0.874,1.238-1.271c1.379-1.858,1.464-4.042,0.836-5.24C169.049,186.722,168.797,186.339,168.455,186.339z     M254.761,178.483c-0.859,0-1.817,0.288-2.723,0.864c-1.747,1.112-0.615,3.39-0.047,4.318c0.807,1.318,2.064,2.605,3.572,3.629    c2.38-3.979,2.411-6.632,1.374-7.89C256.431,178.791,255.65,178.483,254.761,178.483z M145.044,168.172    c-0.082,0-0.173,0.005-0.273,0.015c-1.542,0.165-3.344,3.038-3.987,7.181c0.975-0.298,1.758-0.795,2.315-1.239    c2.313-1.843,3.176-4.507,2.756-5.532C145.801,168.465,145.681,168.172,145.044,168.172z M256.567,158.612    c-1.44,0-2.151,0.351-2.337,0.717c-0.18,0.359,0.034,0.977,0.546,1.575c1.107,1.292,3.428,2.32,5.9,1.524    c0.732-0.237,1.284-0.938,1.643-1.99c-1.462-1.008-3.132-1.663-5.011-1.799C257.043,158.622,256.796,158.612,256.567,158.612z     M137.717,153.639c0.168,0.049,0.339,0.097,0.516,0.143c7.174,1.864,9.25,0.18,9.716-0.38c0.651-0.787,0.37-1.703,0.145-2.178    c-0.53-1.116-1.855-2.266-3.788-2.226C142.637,149.009,140.1,150.865,137.717,153.639z M255.788,140.443    c-0.07,0-0.139,0.005-0.207,0.014c-0.584,0.082-1.293,0.289-1.36,0.798c-0.11,0.835,0.991,2.293,2.632,2.995    c0.681,0.293,1.77,0.576,2.915,0.168C258.499,141.981,257.04,140.443,255.788,140.443z M138.836,136.714    c2.294,0.749,4.271,0.43,5.492-0.902c0.859-0.941,1.071-2.146,0.776-2.722c-0.059-0.116-0.217-0.428-0.902-0.341    C143.141,132.875,140.992,134.457,138.836,136.714z"/>
		<path style="fill:#251426;" d="M304.857,470.021L324.191,500l7.89-5.454l-8.527-7.006c0,0,11.884,9.794,26.569-11.341    c0,0-33.417,10.782-31.409-17.179L304.857,470.021z"/>
		<path style="fill:#827189;" d="M192.837,51.564c0,0,7.883-57.228,43.272-51.106s23.087,51.286,37.728,49.83    c14.64-1.456-0.022-15.69-0.022-15.69s3.702-3.875,9.709,3.021s11.71,28.834-6.46,26.906c0,0,3.965,8.24,12.627,5.653    c0,0,0.73,16.443-18.454,17.303S226.082,49.076,192.837,51.564z"/>
		<path style="fill:#827189;" d="M204.919,52.42c0,0-15.424-53.183-50.899-41.888s-32.556,40.02-23.983,57.208    c9.291,18.63-19.982,1.774-19.982,1.774s3.852,24.646,26.609,24.156S183.335,45.696,204.919,52.42z"/>
		<path style="fill:#251626;" d="M264.508,65.194c-7.669,0.002-14.132-10.668-19.947-20.266    c-4.589-7.573-9.334-15.404-13.839-16.653c-10.994-3.045-21.606,15.574-21.712,15.762c-0.266,0.473-0.869,0.64-1.337,0.376    c-0.473-0.266-0.641-0.864-0.376-1.337c0.462-0.824,11.468-20.148,23.948-16.694c5.258,1.456,9.987,9.263,14.994,17.527    c6.804,11.232,13.842,22.852,21.941,18.264c0.473-0.267,1.071-0.101,1.338,0.37c0.268,0.472,0.102,1.071-0.37,1.338    C267.554,64.785,266.007,65.194,264.508,65.194z"/>
		<path style="fill:#251626;" d="M262.909,80.595c-3.713,0-7.841-2.173-12.3-6.481c-2.061-1.99-3.958-3.938-5.767-5.795    c-10.179-10.451-17.53-18.002-36.428-14.117c-0.531,0.11-1.05-0.233-1.159-0.764c-0.109-0.531,0.233-1.05,0.764-1.159    c19.946-4.103,27.615,3.773,38.23,14.67c1.796,1.844,3.679,3.777,5.724,5.754c4.681,4.522,8.822,6.469,12.302,5.8    c3.881-0.749,5.645-4.595,5.663-4.635c0.221-0.495,0.802-0.716,1.297-0.494c0.495,0.221,0.716,0.802,0.494,1.297    c-0.087,0.197-2.21,4.819-7.082,5.759C264.077,80.541,263.498,80.595,262.909,80.595z"/>
		<path style="fill:#251626;" d="M271.494,57.451c-0.582,0-1.151-0.07-1.709-0.209c-5.324-1.33-8.58-8.871-12.349-17.603    c-4.447-10.298-9.981-23.116-20.535-28.976c-4.67-2.591-9.236-3-13.573-1.205c-13.918,5.754-21.598,31.981-21.674,32.246    c-0.15,0.52-0.69,0.821-1.215,0.672c-0.521-0.15-0.822-0.693-0.672-1.215c0.32-1.115,8.015-27.398,22.808-33.517    c4.92-2.033,10.06-1.596,15.279,1.303c11.139,6.184,16.82,19.342,21.384,29.913c3.563,8.254,6.64,15.381,11.023,16.476    c2.126,0.533,4.613-0.36,7.586-2.735c0.426-0.339,1.041-0.269,1.38,0.154c0.338,0.424,0.269,1.041-0.154,1.38    C276.292,56.356,273.795,57.451,271.494,57.451z"/>
		<path style="fill:#251626;" d="M131.893,93.281c-2.436,0-4.89-1.017-7.317-3.038c-0.417-0.347-0.474-0.965-0.127-1.383    c0.345-0.416,0.965-0.473,1.383-0.127c2.599,2.163,5.063,2.958,7.52,2.427c7.437-1.606,13.903-14.948,20.155-27.851    c5.078-10.477,9.873-20.374,15.355-24.722c3.661-2.905,7.536-3.962,11.506-3.146c9.712,1.998,16.538,14.475,16.823,15.006    c0.258,0.477,0.08,1.073-0.398,1.33c-0.475,0.255-1.073,0.079-1.33-0.398c-0.066-0.122-6.684-12.206-15.495-14.014    c-3.38-0.695-6.704,0.235-9.887,2.76c-5.129,4.07-10.049,14.222-14.807,24.04c-6.457,13.327-13.135,27.106-21.507,28.914    C133.143,93.214,132.519,93.281,131.893,93.281z"/>
		<path style="fill:#251626;" d="M138.664,69.59c-0.097,0-0.195-0.002-0.293-0.007c-0.542-0.026-0.96-0.486-0.934-1.028    c0.026-0.542,0.516-0.94,1.028-0.934c0.863,0.052,1.515-0.173,2.039-0.673c2.033-1.938,2.031-8.022,2.028-14.464    c-0.004-12.437-0.01-29.469,14.034-34.815c23.693-9.027,39.018,23.433,39.17,23.763c0.227,0.492,0.012,1.075-0.48,1.302    c-0.494,0.232-1.077,0.014-1.303-0.479c-0.143-0.312-14.682-31.12-36.689-22.75c-12.777,4.864-12.773,20.453-12.769,32.98    c0.003,7.468,0.005,13.367-2.636,15.886C141.009,69.18,139.935,69.59,138.664,69.59z"/>
		<g>
			<g>
				<path style="fill:#251626;" d="M253.832,271.367c-0.368,0-0.714-0.208-0.882-0.55c-5.545-11.333-12.704-17.841-21.277-19.345      c-15.386-2.688-30.434,11.654-30.583,11.799c-0.389,0.378-1.01,0.367-1.388-0.023c-0.377-0.39-0.366-1.011,0.023-1.388      c0.64-0.621,15.912-15.207,32.279-12.323c8.305,1.453,15.323,7.159,20.899,16.977c0.269-6.1,1.591-17.727,7.576-23.323      c2.578-2.41,5.748-3.45,9.405-3.083c17.259,1.714,21.098,8.552,21.252,8.843c0.256,0.478,0.075,1.073-0.404,1.328      c-0.475,0.255-1.073,0.075-1.328-0.404c-0.031-0.054-3.656-6.219-19.714-7.813c-3.118-0.309-5.693,0.527-7.869,2.563      c-7.503,7.011-7.014,25.543-7.008,25.73c0.014,0.462-0.296,0.872-0.745,0.984C253.989,271.358,253.91,271.367,253.832,271.367z"/>
				<path style="fill:#251626;" d="M254.32,274.238c-0.316,0-0.616-0.152-0.802-0.415c-0.129-0.182-13.064-18.211-24.898-14.903      c-11.969,3.33-15.496,14.441-15.53,14.552c-0.158,0.518-0.705,0.807-1.225,0.653c-0.519-0.158-0.811-0.705-0.654-1.223      c0.151-0.499,3.848-12.247,16.883-15.874c11.167-3.115,22.422,9.738,25.931,14.206c1.939-5.08,7.568-18.823,12.366-20.612      c5.749-2.144,14.218,4.258,14.576,4.53c0.43,0.33,0.513,0.945,0.184,1.376c-0.33,0.431-0.945,0.514-1.376,0.185      c-0.079-0.059-7.966-6.01-12.698-4.252c-3.998,1.491-9.898,15.758-11.834,21.129c-0.124,0.344-0.429,0.591-0.791,0.64      C254.408,274.235,254.364,274.238,254.32,274.238z"/>
				<polygon style="fill:#757A91;" points="195.667,255.623 248.873,271.23 257.918,269.153 292.06,241.524 307.925,307.8       270.144,329.336 258.566,331.308 199.962,327.339     "/>
				<path style="fill:#251626;" d="M258.565,332.29c-0.474,0-0.891-0.343-0.968-0.826l-9.693-60.078      c-0.086-0.535,0.278-1.039,0.813-1.126c0.536-0.088,1.039,0.277,1.126,0.813l9.693,60.078c0.086,0.535-0.278,1.039-0.813,1.126      C258.67,332.286,258.617,332.29,258.565,332.29z"/>
				<path style="fill:#251626;" d="M269.003,330.512c-0.456,0-0.866-0.32-0.961-0.784l-12.331-60.092      c-0.109-0.531,0.233-1.05,0.764-1.159c0.541-0.107,1.05,0.233,1.159,0.764l12.331,60.092c0.109,0.531-0.233,1.05-0.764,1.159      C269.135,330.506,269.069,330.512,269.003,330.512z"/>
			</g>
			<path style="fill:#F2BA9B;" d="M200.846,312.373c0,0,13.439-18.152,14.403-15.138c1.181,3.693-9.04,20.142-9.04,20.142     s14.59-15.161,18.441-12.954s-12.376,20.916-12.376,20.916s18.552-17.06,19.791-13.387c1.239,3.673-15.859,24.944-29.356,24.856     C191.351,336.733,191.904,322.098,200.846,312.373z"/>
			<path style="fill:#F2BA9B;" d="M296.122,311.516c0,0-17.238-11.07-17.188-15.393c0.045-3.877,20.561,8.042,20.561,8.042     s-15.858-13.829-13.842-17.784c2.016-3.955,21.497,11.336,21.497,11.336s-17.949-17.693-14.341-19.111     c3.608-1.417,25.184,13.077,27.242,24.247C322.109,314.023,302.655,317.945,296.122,311.516z"/>
		</g>
		<polygon style="fill:#3D9C91;" points="176.489,392.207 250.699,304.545 338.951,461.607 282.082,498.531 251.796,353.873     202.708,411.306   "/>
		<path style="fill:#3D9C91;" d="M245.941,407.812c0,0-16.266,32.477-43.231,28.901c-21.139-2.803-35.989-39.4-35.989-39.4    l26.886-25.327L245.941,407.812z"/>
		<path style="fill:#F2BA9B;" d="M203.813,335.935c0,0-87.205,55.949-95.818,46.743c-2.092-2.236-2.174-100.989-2.174-100.989    l34.231-14.187l-1.979,69.305l59.719-16.319L203.813,335.935z"/>
		<path style="fill:#E9546A;" d="M150.27,324.677l-56.488,4.853c0,0-3.305-83.023,56.488-95.628    C150.27,233.902,154.742,278.083,150.27,324.677z"/>
		<path style="fill:#251626;" d="M196.66,435.217c-0.588,0-1.175-0.029-1.768-0.084c-0.54-0.052-0.935-0.531-0.883-1.072    c0.051-0.541,0.535-0.917,1.071-0.884c0.526,0.052,1.057,0.077,1.579,0.077c29.55,0,53.95-78.855,54.198-79.666    c0.129-0.425,0.544-0.738,0.972-0.694c0.445,0.015,0.823,0.327,0.923,0.759l9.287,40.18c0.122,0.528-0.207,1.056-0.735,1.178    c-0.532,0.128-1.055-0.208-1.178-0.735l-8.481-36.698C246.509,373.182,224.352,435.217,196.66,435.217z"/>
		<path style="fill:#251626;" d="M293.089,380.965c-0.343,0-0.677-0.18-0.857-0.5l-27.351-48.675    c-0.266-0.473-0.098-1.072,0.375-1.337c0.473-0.266,1.071-0.098,1.337,0.375l27.351,48.675c0.266,0.473,0.098,1.072-0.375,1.337    C293.416,380.925,293.251,380.965,293.089,380.965z"/>
		<path style="fill:#251626;" d="M281.518,480.491c-0.303,0-0.602-0.14-0.795-0.403c-0.319-0.439-0.222-1.053,0.216-1.373    l45.973-33.505c0.438-0.318,1.052-0.222,1.372,0.215c0.319,0.439,0.222,1.053-0.216,1.373l-45.973,33.505    C281.921,480.43,281.719,480.491,281.518,480.491z"/>
		<path style="fill:#251626;" d="M372.717,445.955c-0.198,0-0.397-0.059-0.57-0.184c-0.441-0.314-0.543-0.928-0.227-1.369    l30.029-41.999c0.314-0.44,0.927-0.543,1.37-0.227c0.441,0.315,0.543,0.929,0.227,1.37l-30.029,41.999    C373.325,445.813,373.023,445.955,372.717,445.955z"/>
		<path style="fill:#251626;" d="M93.781,330.512c-0.5,0-0.928-0.381-0.976-0.889c-0.052-0.54,0.344-1.019,0.884-1.07    c8.424-0.802,47.933-4.534,55.543-4.843l-2.884-50.399c-0.032-0.541,0.383-1.005,0.924-1.035c0.501-0.024,1.005,0.383,1.035,0.924    l2.942,51.42c0.017,0.299-0.103,0.589-0.325,0.788c-0.222,0.199-0.526,0.284-0.819,0.237c-1.819-0.197-34.624,2.808-56.231,4.862    C93.843,330.511,93.811,330.512,93.781,330.512z"/>
		<path style="fill:#251626;" d="M182.298,261.27c-24.105,0-36.607-20.904-36.733-21.118c-0.273-0.468-0.116-1.069,0.352-1.342    c0.466-0.277,1.068-0.119,1.343,0.351c0.122,0.207,12.389,20.754,36.106,20.131c5.939-0.158,10.784-2.22,14.402-6.127    c8.285-8.947,7.591-24.754,7.583-24.912c-0.027-0.542,0.39-1.003,0.931-1.03c0.511-0.055,1.003,0.387,1.031,0.93    c0.035,0.681,0.75,16.777-8.098,26.34c-3.991,4.314-9.306,6.59-15.797,6.763C183.042,261.265,182.668,261.27,182.298,261.27z"/>
		<path style="fill:#251626;" d="M117.099,266.909c-0.063,0-0.128-0.006-0.193-0.019c-0.532-0.105-0.877-0.623-0.771-1.154    c1.175-5.897,4.417-9.124,4.554-9.258c0.387-0.38,1.006-0.372,1.385,0.014c0.38,0.385,0.374,1.007-0.011,1.387    c-0.03,0.029-2.953,2.968-4.004,8.24C117.967,266.586,117.557,266.909,117.099,266.909z"/>
		<path style="fill:#251626;" d="M119.238,280.959c-0.063,0-0.128-0.006-0.193-0.019c-0.532-0.105-0.877-0.623-0.771-1.154    c1.175-5.897,4.417-9.123,4.554-9.257c0.387-0.379,1.008-0.371,1.385,0.014c0.38,0.386,0.374,1.007-0.011,1.387    c-0.03,0.03-2.953,2.967-4.004,8.239C120.106,280.636,119.696,280.959,119.238,280.959z"/>
		<path style="fill:#251626;" d="M168.309,339.344c-0.295,0-0.586-0.132-0.779-0.384c-0.331-0.43-0.249-1.047,0.18-1.377    c3.98-3.057,7.802-3.302,7.962-3.311c0.578-0.047,1.002,0.382,1.034,0.922c0.032,0.541-0.382,1.004-0.921,1.037    c-0.034,0.002-3.405,0.239-6.878,2.908C168.728,339.278,168.517,339.344,168.309,339.344z"/>
		<path style="fill:#251626;" d="M176.49,340.773c-0.294,0-0.586-0.132-0.779-0.384c-0.331-0.43-0.249-1.046,0.18-1.377    c3.98-3.058,7.801-3.303,7.962-3.312c0.576-0.041,1.002,0.383,1.034,0.922c0.032,0.54-0.382,1.004-0.921,1.037    c-0.034,0.002-3.403,0.239-6.877,2.909C176.909,340.707,176.698,340.773,176.49,340.773z"/>
		<path style="fill:#251626;" d="M143.669,342.327c-0.295,0-0.586-0.132-0.779-0.384c-0.331-0.43-0.249-1.047,0.18-1.377    c3.98-3.057,7.801-3.302,7.962-3.311c0.57-0.051,1.003,0.383,1.034,0.922c0.032,0.54-0.382,1.004-0.921,1.037    c-0.034,0.002-3.404,0.239-6.877,2.908C144.088,342.261,143.877,342.327,143.669,342.327z"/>
		<path style="fill:#251626;" d="M175.151,332.067c-0.295,0-0.586-0.132-0.779-0.383c-0.331-0.43-0.249-1.047,0.18-1.377    c3.98-3.057,7.8-3.303,7.962-3.312c0.538-0.021,1.002,0.383,1.034,0.922c0.032,0.54-0.382,1.004-0.921,1.037    c-0.034,0.002-3.403,0.24-6.877,2.909C175.57,332.001,175.359,332.067,175.151,332.067z"/>
		<path style="fill:#251626;" d="M157.772,337.79c-0.295,0-0.586-0.132-0.779-0.383c-0.331-0.43-0.249-1.047,0.18-1.377    c3.98-3.057,7.801-3.303,7.962-3.312c0.546-0.01,1.002,0.383,1.034,0.922c0.032,0.54-0.382,1.004-0.921,1.037    c-0.034,0.002-3.404,0.24-6.878,2.909C158.191,337.724,157.98,337.79,157.772,337.79z"/>
		<path style="fill:#251626;" d="M154.064,345.995c-0.295,0-0.586-0.132-0.779-0.384c-0.331-0.43-0.249-1.047,0.18-1.377    c3.98-3.057,7.801-3.302,7.962-3.311c0.573-0.037,1.002,0.383,1.034,0.922c0.032,0.54-0.382,1.004-0.921,1.037    c-0.034,0.002-3.404,0.239-6.877,2.908C154.483,345.929,154.272,345.995,154.064,345.995z"/>
		<path style="fill:#251626;" d="M108.964,280.959c-0.063,0-0.128-0.006-0.193-0.019c-0.532-0.105-0.877-0.623-0.771-1.154    c1.175-5.897,4.417-9.123,4.554-9.257c0.386-0.379,1.007-0.371,1.385,0.014c0.38,0.386,0.374,1.007-0.011,1.387    c-0.03,0.03-2.953,2.967-4.004,8.239C109.833,280.636,109.423,280.959,108.964,280.959z"/>
		<path style="fill:#251626;" d="M112.51,295.343c-0.063,0-0.128-0.006-0.193-0.019c-0.532-0.105-0.877-0.623-0.771-1.154    c1.176-5.897,4.418-9.124,4.555-9.258c0.387-0.38,1.006-0.37,1.385,0.014c0.38,0.385,0.374,1.007-0.011,1.387    c-0.03,0.029-2.953,2.968-4.005,8.24C113.379,295.02,112.968,295.343,112.51,295.343z"/>
		<path style="fill:#251626;" d="M290.269,406.662c-0.451,0-0.857-0.314-0.959-0.772c-0.009-0.04-0.935-4.082-4.832-7.782    c-0.393-0.374-0.409-0.995-0.036-1.388c0.375-0.392,0.995-0.409,1.388-0.036c4.36,4.141,5.359,8.604,5.4,8.792    c0.114,0.529-0.222,1.049-0.752,1.164C290.408,406.654,290.338,406.662,290.269,406.662z"/>
		<path style="fill:#251626;" d="M293.087,397.251c-0.451,0-0.857-0.314-0.959-0.772c-0.009-0.04-0.935-4.082-4.832-7.782    c-0.393-0.374-0.409-0.995-0.036-1.388c0.375-0.393,0.995-0.409,1.388-0.036c4.36,4.141,5.359,8.604,5.4,8.792    c0.114,0.529-0.222,1.049-0.752,1.164C293.226,397.243,293.156,397.251,293.087,397.251z"/>
		<path style="fill:#251626;" d="M281.97,390.426c-0.451,0-0.857-0.314-0.959-0.772c-0.009-0.04-0.936-4.082-4.832-7.784    c-0.393-0.373-0.409-0.994-0.035-1.387c0.373-0.392,0.994-0.41,1.387-0.035c4.359,4.141,5.359,8.604,5.4,8.792    c0.114,0.529-0.222,1.049-0.751,1.164C282.109,390.419,282.039,390.426,281.97,390.426z"/>
		<path style="fill:#251626;" d="M284.074,380.964c-0.451,0-0.857-0.314-0.959-0.772c-0.009-0.04-0.935-4.082-4.832-7.782    c-0.393-0.374-0.409-0.995-0.036-1.388c0.375-0.392,0.996-0.409,1.388-0.036c4.36,4.141,5.359,8.604,5.4,8.792    c0.114,0.529-0.222,1.049-0.752,1.164C284.213,380.957,284.143,380.964,284.074,380.964z"/>
		<path style="fill:#251626;" d="M304.503,411.389c-0.451,0-0.857-0.314-0.959-0.772c-0.009-0.04-0.935-4.082-4.831-7.784    c-0.393-0.373-0.409-0.994-0.035-1.387c0.373-0.393,0.995-0.411,1.387-0.035c4.359,4.141,5.359,8.604,5.399,8.792    c0.114,0.529-0.222,1.049-0.752,1.164C304.642,411.381,304.572,411.389,304.503,411.389z"/>
		<path style="fill:#251626;" d="M298.203,423.077c-0.451,0-0.857-0.313-0.959-0.771c-0.009-0.04-0.935-4.082-4.832-7.783    c-0.393-0.374-0.409-0.995-0.036-1.388s0.994-0.41,1.388-0.036c4.36,4.142,5.359,8.605,5.4,8.793    c0.114,0.528-0.222,1.05-0.752,1.165C298.342,423.071,298.272,423.077,298.203,423.077z"/>
		<path style="fill:#251626;" d="M307.414,424.559c-0.451,0-0.857-0.313-0.959-0.771c-0.009-0.04-0.936-4.082-4.832-7.784    c-0.393-0.373-0.409-0.994-0.035-1.387c0.372-0.392,0.993-0.411,1.387-0.035c4.359,4.141,5.359,8.603,5.4,8.791    c0.114,0.529-0.222,1.051-0.751,1.166C307.553,424.553,307.483,424.559,307.414,424.559z"/>
		<path style="fill:#251626;" d="M341.925,368.495c-0.415,0-0.801-0.266-0.935-0.682c-0.013-0.039-1.319-3.974-5.552-7.288    c-0.427-0.334-0.502-0.951-0.168-1.378c0.332-0.427,0.949-0.505,1.378-0.168c4.736,3.706,6.155,8.055,6.213,8.238    c0.164,0.516-0.122,1.065-0.638,1.23C342.124,368.479,342.024,368.495,341.925,368.495z"/>
		<path style="fill:#251626;" d="M343.833,358.857c-0.415,0-0.801-0.266-0.935-0.682c-0.013-0.039-1.319-3.973-5.552-7.287    c-0.427-0.334-0.502-0.951-0.168-1.378c0.333-0.427,0.95-0.505,1.378-0.168c4.736,3.706,6.155,8.053,6.213,8.237    c0.164,0.516-0.122,1.065-0.637,1.23C344.032,358.842,343.932,358.857,343.833,358.857z"/>
		<path style="fill:#251626;" d="M332.117,353.123c-0.415,0-0.801-0.266-0.935-0.682c-0.013-0.039-1.32-3.973-5.552-7.287    c-0.428-0.334-0.502-0.951-0.168-1.378c0.334-0.427,0.949-0.505,1.378-0.168c4.735,3.706,6.154,8.053,6.213,8.236    c0.164,0.516-0.122,1.066-0.637,1.231C332.316,353.107,332.215,353.123,332.117,353.123z"/>
		<path style="fill:#251626;" d="M333.31,343.504c-0.415,0-0.801-0.266-0.935-0.682c-0.013-0.039-1.319-3.973-5.552-7.288    c-0.428-0.334-0.502-0.951-0.168-1.378c0.333-0.429,0.95-0.505,1.378-0.168c4.736,3.707,6.155,8.054,6.213,8.238    c0.164,0.516-0.122,1.065-0.637,1.23C333.51,343.488,333.409,343.504,333.31,343.504z"/>
		<path style="fill:#251626;" d="M356.545,371.844c-0.415,0-0.801-0.266-0.935-0.682c-0.013-0.039-1.32-3.974-5.552-7.288    c-0.428-0.334-0.502-0.951-0.168-1.378c0.334-0.427,0.949-0.503,1.378-0.168c4.735,3.706,6.154,8.054,6.213,8.237    c0.164,0.517-0.122,1.066-0.637,1.231C356.744,371.828,356.644,371.844,356.545,371.844z"/>
		<path style="fill:#251626;" d="M351.386,384.079c-0.415,0-0.801-0.266-0.935-0.682c-0.013-0.039-1.319-3.974-5.552-7.288    c-0.427-0.334-0.502-0.951-0.168-1.378c0.334-0.426,0.949-0.504,1.378-0.168c4.736,3.706,6.155,8.054,6.213,8.238    c0.164,0.516-0.122,1.065-0.638,1.23C351.585,384.064,351.485,384.079,351.386,384.079z"/>
		<path style="fill:#251626;" d="M360.697,384.677c-0.415,0-0.801-0.266-0.935-0.682c-0.013-0.039-1.32-3.973-5.552-7.287    c-0.428-0.334-0.502-0.951-0.168-1.378c0.333-0.426,0.95-0.504,1.378-0.168c4.735,3.706,6.154,8.053,6.213,8.236    c0.164,0.516-0.122,1.066-0.637,1.231C360.897,384.661,360.796,384.677,360.697,384.677z"/>
		<path style="fill:#251626;" d="M104.372,299.991c-0.014,0-0.03,0-0.044-0.001c-0.542-0.024-0.962-0.482-0.938-1.024    c0.266-6.007,2.979-9.688,3.094-9.843c0.326-0.431,0.937-0.518,1.372-0.197c0.433,0.324,0.523,0.939,0.2,1.373    c-0.025,0.034-2.468,3.383-2.705,8.753C105.329,299.58,104.894,299.991,104.372,299.991z"/>
		<path style="fill:#251626;" d="M202.707,321.011c-0.203,0-0.409-0.063-0.586-0.195c-0.434-0.323-0.524-0.939-0.2-1.374    c1.864-2.502,4.376-5.526,5.762-5.717c0.529-0.084,1.032,0.301,1.106,0.838s-0.301,1.033-0.838,1.106    c-0.613,0.225-2.815,2.742-4.456,4.946C203.303,320.875,203.007,321.011,202.707,321.011z"/>
		<path style="fill:#251626;" d="M210.407,327.307c-0.304,0-0.603-0.14-0.795-0.405c-0.319-0.438-0.222-1.053,0.217-1.371    c0.039-0.029,3.945-2.871,4.982-3.772c0.408-0.354,1.03-0.314,1.385,0.097c0.356,0.409,0.313,1.03-0.097,1.385    c-1.102,0.957-4.952,3.758-5.116,3.877C210.809,327.246,210.607,327.307,210.407,327.307z"/>
		<path style="fill:#251626;" d="M310.569,302.251c-0.248,0-0.497-0.094-0.688-0.281c-1.208-1.187-4.519-4.398-5.322-4.996    c-0.434-0.323-0.524-0.939-0.2-1.374c0.325-0.431,0.939-0.523,1.374-0.2c1.056,0.786,5.071,4.723,5.525,5.169    c0.386,0.381,0.392,1.002,0.012,1.389C311.077,302.153,310.823,302.251,310.569,302.251z"/>
		<path style="fill:#251626;" d="M303.625,307.807c-0.216,0-0.433-0.071-0.616-0.218c-1.138-0.918-4.448-3.384-6.062-3.779    c-0.527-0.129-0.849-0.661-0.721-1.187c0.129-0.528,0.659-0.852,1.187-0.721c2.33,0.569,6.375,3.793,6.829,4.159    c0.422,0.34,0.488,0.958,0.148,1.381C304.197,307.682,303.912,307.807,303.625,307.807z"/>
	</g>
</g>















</svg>
