<?xml version="1.0" encoding="UTF-8"?>
<!-- Generator: Adobe Illustrator 25.1.0, SVG Export Plug-In . SVG Version: 6.00 Build 0)  -->
<svg xmlns="http://www.w3.org/2000/svg" xmlns:xlink="http://www.w3.org/1999/xlink" version="1.1" id="Capa_1" x="0px" y="0px" viewBox="0 0 500 500" style="enable-background:new 0 0 500 500;" xml:space="preserve" width="512" height="512">
<g>
	<g>
		<path style="fill:#9CD1C3;" d="M118.065,279.121c0,0,48.119-35.749,84.817,31.038C202.883,310.159,148.734,335.35,118.065,279.121    z"/>
		<path style="fill:#9CD1C3;" d="M274.336,318.412c0,0-1.6,86.94-23.807,98.277s-278.991-15.956-175.665-121.67l50.175-20.097    C125.038,274.922,216.783,316.783,274.336,318.412z"/>
		<path style="fill:#F7C67C;" d="M170.144,169.832c0,0,19.906-36.542-12.121-78.115s-99.752-34.028-130.4-7.558    C2.03,106.264-21.986,201.021,34.759,221.402S170.144,169.832,170.144,169.832z"/>
		<path style="fill:#251426;" d="M433.58,238.63l40.806-2.147l-1.23-10.845l-11.713,4.45c0,0,16.354-6.185,2.96-32.559    c0,0-7.243,38.988-34.421,21.253L433.58,238.63z"/>
		<path style="fill:#251426;" d="M448.773,341.349l30.655,26.408l6.833-8.466l-11.525-4.885c0,0,16.071,6.84,25.264-20.865    c0,0-32.893,22.454-39.683-8.607L448.773,341.349z"/>
		<polygon style="fill:#C083AF;" points="252.64,388.98 253.304,226.072 435.925,201.404 443.174,261.428 287.085,248.578     326.098,383.375   "/>
		<polygon style="fill:#C083AF;" points="273.536,377.691 331.829,248.75 483.395,313.146 452.184,366.503 350.873,282.2     327.292,398.736   "/>
		<path style="fill:#251626;" d="M287.085,249.692c0.331,0,0.655-0.148,0.872-0.42c0.32-0.402,0.322-0.974,0.004-1.379    l-12.373-15.836c-0.378-0.487-1.081-0.574-1.562-0.191c-0.485,0.378-0.572,1.077-0.191,1.562l9.509,12.173l-13.726-6.42    c-0.555-0.261-1.22-0.022-1.481,0.537c-0.261,0.557-0.02,1.22,0.537,1.481l17.939,8.389    C286.765,249.658,286.926,249.692,287.085,249.692z"/>
		<path style="fill:#251626;" d="M350.873,283.314c0.115,0,0.233-0.017,0.348-0.054c0.422-0.139,0.722-0.518,0.761-0.961    l1.227-14.011c0.054-0.613-0.4-1.153-1.011-1.207c-0.629-0.041-1.153,0.4-1.207,1.011l-1,11.418l-7.547-8.587    c-0.411-0.463-1.111-0.507-1.572-0.102c-0.461,0.407-0.507,1.111-0.102,1.572l9.267,10.542    C350.251,283.182,350.557,283.314,350.873,283.314z"/>
		<path style="fill:#251626;" d="M422.14,260.556c0.063,0,0.126-0.004,0.189-0.015c0.605-0.104,1.014-0.679,0.911-1.285    l-8.917-52.513c-0.104-0.605-0.698-1.011-1.285-0.911c-0.605,0.104-1.014,0.679-0.911,1.285l8.917,52.513    C421.138,260.171,421.607,260.556,422.14,260.556z"/>
		<path style="fill:#251626;" d="M435.925,355.657c0.339,0,0.674-0.154,0.892-0.448l32.519-43.516    c0.368-0.492,0.268-1.19-0.226-1.557c-0.485-0.37-1.188-0.27-1.557,0.226l-32.519,43.516c-0.368,0.492-0.268,1.19,0.226,1.557    C435.457,355.585,435.692,355.657,435.925,355.657z"/>
		<path style="fill:#251626;" d="M430.322,301.603c0.339,0,0.674-0.154,0.892-0.448c0.368-0.492,0.268-1.19-0.226-1.557    c-3.164-2.364-8.043-3.262-8.247-3.299c-0.613-0.102-1.183,0.294-1.294,0.898c-0.109,0.605,0.294,1.185,0.898,1.294    c0.046,0.009,4.572,0.846,7.312,2.89C429.857,301.532,430.09,301.603,430.322,301.603z"/>
		<path style="fill:#251626;" d="M416.416,302.578c0.339,0,0.674-0.154,0.892-0.446c0.368-0.494,0.268-1.192-0.224-1.559    c-3.164-2.364-8.045-3.262-8.249-3.299c-0.611-0.096-1.183,0.294-1.294,0.898c-0.109,0.605,0.294,1.185,0.898,1.294    c0.046,0.009,4.574,0.846,7.31,2.89C415.948,302.506,416.183,302.578,416.416,302.578z"/>
		<path style="fill:#251626;" d="M411.862,293.293c0.339,0,0.674-0.154,0.892-0.448c0.368-0.492,0.267-1.19-0.226-1.557    c-3.165-2.364-8.043-3.262-8.247-3.299c-0.609-0.104-1.185,0.296-1.294,0.898c-0.109,0.605,0.294,1.185,0.898,1.294    c0.046,0.009,4.572,0.846,7.312,2.89C411.396,293.221,411.629,293.293,411.862,293.293z"/>
		<path style="fill:#251626;" d="M400.504,286.166c0.339,0,0.674-0.154,0.892-0.446c0.368-0.494,0.268-1.192-0.224-1.559    c-3.164-2.364-8.041-3.265-8.247-3.302c-0.589-0.096-1.183,0.289-1.294,0.898c-0.109,0.605,0.294,1.183,0.898,1.294    c0.046,0.009,4.572,0.848,7.308,2.893C400.037,286.094,400.271,286.166,400.504,286.166z"/>
		<path style="fill:#251626;" d="M386.332,283.33c0.339,0,0.674-0.154,0.892-0.446c0.368-0.494,0.268-1.192-0.224-1.559    c-3.164-2.364-8.043-3.262-8.247-3.299c-0.613-0.096-1.183,0.296-1.294,0.898c-0.109,0.605,0.294,1.185,0.898,1.294    c0.046,0.009,4.572,0.846,7.308,2.89C385.865,283.258,386.1,283.33,386.332,283.33z"/>
		<path style="fill:#251626;" d="M433.515,310.834c0.339,0,0.674-0.154,0.892-0.446c0.368-0.494,0.268-1.192-0.224-1.559    c-3.164-2.364-8.043-3.262-8.247-3.299c-0.613-0.098-1.183,0.294-1.294,0.898c-0.109,0.605,0.294,1.185,0.898,1.294    c0.046,0.009,4.572,0.846,7.308,2.89C433.047,310.762,433.282,310.834,433.515,310.834z"/>
		<path style="fill:#251626;" d="M398.131,296.094c0.339,0,0.674-0.154,0.892-0.448c0.368-0.492,0.268-1.19-0.226-1.557    c-3.164-2.364-8.043-3.262-8.247-3.299c-0.613-0.104-1.183,0.296-1.294,0.898c-0.109,0.605,0.294,1.185,0.898,1.294    c0.046,0.009,4.572,0.846,7.312,2.89C397.666,296.023,397.899,296.094,398.131,296.094z"/>
		<path style="fill:#251626;" d="M371.106,222.884c0.137,0,0.276-0.026,0.411-0.078c0.041-0.017,4.298-1.69,7.734-1.398    c0.613,0.026,1.153-0.4,1.205-1.014c0.052-0.613-0.4-1.153-1.014-1.205c-3.932-0.361-8.552,1.47-8.747,1.546    c-0.572,0.226-0.85,0.874-0.624,1.444C370.245,222.617,370.662,222.884,371.106,222.884z"/>
		<path style="fill:#251626;" d="M359.805,231.045c0.137,0,0.276-0.026,0.409-0.078c0.044-0.017,4.337-1.701,7.736-1.398    c0.609,0.037,1.153-0.4,1.205-1.014c0.052-0.613-0.4-1.153-1.014-1.205c-3.945-0.322-8.552,1.47-8.748,1.546    c-0.57,0.226-0.85,0.872-0.624,1.444C358.944,230.777,359.361,231.045,359.805,231.045z"/>
		<path style="fill:#251626;" d="M351.038,225.557c0.137,0,0.276-0.026,0.409-0.078c0.041-0.017,4.332-1.701,7.736-1.398    c0.609,0.022,1.153-0.4,1.205-1.014c0.052-0.613-0.4-1.153-1.014-1.205c-3.945-0.324-8.552,1.47-8.747,1.546    c-0.57,0.226-0.85,0.872-0.624,1.444C350.177,225.29,350.594,225.557,351.038,225.557z"/>
		<path style="fill:#251626;" d="M337.63,225.49c0.137,0,0.276-0.024,0.409-0.078c0.043-0.017,4.328-1.699,7.738-1.396    c0.611,0.028,1.153-0.4,1.205-1.014s-0.4-1.153-1.014-1.205c-3.917-0.355-8.554,1.468-8.747,1.544    c-0.572,0.226-0.853,0.872-0.626,1.444C336.768,225.223,337.186,225.49,337.63,225.49z"/>
		<path style="fill:#251626;" d="M324.093,230.555c0.137,0,0.276-0.024,0.409-0.078c0.043-0.017,4.335-1.699,7.738-1.398    c0.605,0.022,1.153-0.4,1.205-1.014c0.052-0.613-0.4-1.153-1.013-1.205c-3.939-0.328-8.554,1.47-8.748,1.546    c-0.572,0.226-0.853,0.872-0.626,1.444C323.232,230.288,323.649,230.555,324.093,230.555z"/>
		<path style="fill:#251626;" d="M378.688,229.042c0.137,0,0.276-0.026,0.411-0.078c0.043-0.017,4.309-1.701,7.734-1.398    c0.602,0.035,1.153-0.4,1.205-1.014c0.052-0.613-0.4-1.153-1.014-1.205c-3.934-0.359-8.552,1.47-8.747,1.546    c-0.572,0.226-0.85,0.874-0.624,1.444C377.826,228.774,378.244,229.042,378.688,229.042z"/>
		<path style="fill:#251626;" d="M340.848,235.179c0.137,0,0.276-0.024,0.409-0.078c0.043-0.017,4.328-1.699,7.738-1.398    c0.618,0.035,1.153-0.4,1.205-1.014c0.052-0.613-0.4-1.153-1.014-1.205c-3.947-0.328-8.554,1.47-8.747,1.546    c-0.572,0.226-0.853,0.872-0.626,1.444C339.987,234.912,340.405,235.179,340.848,235.179z"/>
		<path style="fill:#EFA880;" d="M28.195,163.954c0,0,23.817-69.756,85.867-66.32c46.424,2.571,95.025,141.749,29.079,162.293    C71.089,282.372,21.708,200.726,28.195,163.954z"/>
		<path style="fill:#251626;" d="M113.644,192.871c0.076,0,0.152-0.007,0.228-0.024c0.668-0.137,16.403-3.399,21.021-4.859    c0.663-0.209,1.1-0.696,1.201-1.338c0.576-3.706-18.15-17.56-29.364-25.488c-0.5-0.357-1.196-0.239-1.553,0.265    c-0.355,0.502-0.235,1.198,0.265,1.553c13.03,9.213,26.697,19.998,28.298,23.03c-5.072,1.496-20.164,4.624-20.32,4.656    c-0.602,0.124-0.99,0.713-0.863,1.316C112.665,192.51,113.128,192.871,113.644,192.871z"/>
		<path style="fill:#251626;" d="M130.382,231.91c0.77,0,1.477-0.281,2.075-0.829c5.261-4.807,5.603-27.136,5.624-29.668    c0.004-0.613-0.489-1.118-1.105-1.122c-0.002,0-0.007,0-0.009,0c-0.611,0-1.109,0.492-1.114,1.105    c-0.057,6.605-1.048,24.524-4.898,28.041c-0.246,0.226-0.492,0.287-0.813,0.217c-3.7-0.766-10.827-13.882-14.45-21.969    c-0.25-0.561-0.909-0.818-1.47-0.561c-0.561,0.25-0.813,0.909-0.561,1.47c1.007,2.249,10.009,21.993,16.029,23.241    C129.925,231.884,130.156,231.91,130.382,231.91z"/>
		<path style="fill:#251626;" d="M84.141,184.291c0.424,0,0.824-0.08,1.196-0.254c4.676-2.194-0.835-15.664-2.636-19.74    c-0.246-0.561-0.909-0.818-1.468-0.568c-0.561,0.248-0.818,0.905-0.568,1.468c3.212,7.277,5.533,15.975,3.728,16.821    c-1.951,0.922-8.389-5.768-13.221-12.56c-0.359-0.5-1.055-0.613-1.553-0.261c-0.5,0.357-0.618,1.05-0.261,1.553    C71.746,174.105,79.391,184.291,84.141,184.291z"/>
		<path style="fill:#251626;" d="M131.113,161.099c0.485,0,0.924-0.083,1.314-0.265c4.674-2.194-0.837-15.664-2.638-19.74    c-0.248-0.561-0.911-0.82-1.468-0.568c-0.561,0.248-0.818,0.905-0.568,1.468c3.212,7.277,5.533,15.975,3.728,16.823    c-2.075,0.948-10.068-5.128-16.29-11.325c-0.435-0.431-1.14-0.435-1.575,0.004c-0.433,0.435-0.433,1.14,0.004,1.575    C116.626,152.065,126.117,161.099,131.113,161.099z"/>
		<circle style="fill:#EFA880;" cx="33.32" cy="218.89" r="13.833"/>
		<circle style="fill:#EFA880;" cx="162.895" cy="122.555" r="12.901"/>
		<path style="fill:#251626;" d="M40.691,224.087c0.148,0,0.298-0.028,0.442-0.091c0.565-0.244,0.824-0.898,0.581-1.464    c-1.679-3.889-4.021-6.185-6.96-6.825c-4.959-1.083-9.6,3.056-9.796,3.232c-0.457,0.411-0.492,1.114-0.08,1.57    c0.411,0.457,1.116,0.492,1.57,0.085c0.041-0.037,4.013-3.571,7.841-2.708c2.194,0.481,4.004,2.34,5.381,5.529    C39.851,223.835,40.26,224.087,40.691,224.087z"/>
		<path style="fill:#251626;" d="M164.537,131.782c0.278,0,0.557-0.102,0.772-0.311c0.444-0.426,0.457-1.131,0.03-1.575    c-3.371-3.504-4.883-6.614-4.369-8.995c0.535-2.495,3.171-3.576,3.197-3.586c0.57-0.228,0.85-0.874,0.624-1.444    c-0.224-0.568-0.861-0.855-1.438-0.629c-0.152,0.059-3.752,1.501-4.556,5.161c-0.7,3.193,0.961,6.905,4.937,11.038    C163.954,131.666,164.245,131.782,164.537,131.782z"/>
		<circle style="fill:#EA7C71;" cx="77.834" cy="208.211" r="13.187"/>
		<circle style="fill:#EA7C71;" cx="144.832" cy="169.832" r="13.187"/>
		<polygon style="fill:#E9546A;" points="233.262,305.848 195.123,232.681 149.991,249.03 191.626,328.656   "/>
		<path style="fill:#EFA880;" d="M223.769,274.56c0,0-11.464-16.831-15.628-16.905c-4.164-0.074-37.362,17.286-31.616,16.905    c5.746-0.38,27.849-2.944,27.849-2.944s-21.465,10.224-20.188,13.417s23.622-4.192,23.622-4.192s-25.537,14.144-19.153,15.872    c6.384,1.728,39.258-1.125,40.823,1.876S228.157,280.598,223.769,274.56z"/>
		<path style="fill:#251626;" d="M143.29,131.814c-2.988-1.988-5.035-5.546-6.131-9.511c-1.731,0.594-3.554,0.994-5.431,1.14    c-7.018,0.548-12.134-3.997-14.859-9.683c-3.634,1.944-8.665,3.278-15.507,2.688c-9.426-0.811-16.281-3.828-20.375-8.969    c-4.83-6.064-3.947-12.799-3.908-13.082c0.087-0.609,0.644-1.033,1.255-0.948c0.609,0.085,1.033,0.646,0.95,1.255    c-0.009,0.061-0.772,6.12,3.469,11.418c3.702,4.626,10.026,7.353,18.8,8.108c6.457,0.559,11.125-0.718,14.444-2.536    c-0.442-1.207-0.783-2.442-1.02-3.671c-1.166-6.057,0-12.902,5.235-14.535c2.066-0.644,3.882-0.202,5.096,1.248    c1.966,2.351,1.823,6.903-0.346,11.068c-0.731,1.405-2.584,4.354-6.205,6.814c2.34,5.118,6.692,9.085,12.797,8.606    c1.746-0.137,3.462-0.531,5.1-1.118c-0.629-3.434-0.583-7.005,0.146-10.02c1.201-4.954,4.082-8.045,7.908-8.476    c3.987-0.452,5.798,0.826,6.627,1.975c1.179,1.636,1.129,4.045-0.141,6.786c-1.905,4.106-6.329,8.584-11.951,11.109    c0.94,3.567,2.708,6.766,5.283,8.478c3.439,2.288,7.88,1.566,12.839-2.079c0.492-0.368,1.19-0.259,1.555,0.237    c0.365,0.494,0.259,1.192-0.237,1.555c-3.88,2.856-7.138,3.843-9.787,3.843C146.557,133.515,144.693,132.747,143.29,131.814z     M144.956,103.825c-3.889,0.437-5.422,4.439-5.99,6.786c-0.622,2.564-0.685,5.635-0.2,8.615c4.82-2.297,8.728-6.172,10.407-9.791    c0.903-1.949,1.033-3.606,0.355-4.548c-0.544-0.755-1.649-1.142-3.23-1.142C145.885,103.745,145.437,103.771,144.956,103.825z     M120.873,95.615c-3.9,1.216-4.656,7.066-3.708,11.988c0.187,0.97,0.437,1.936,0.753,2.882c2.934-2.11,4.452-4.524,5.07-5.709    c1.947-3.739,1.768-7.227,0.611-8.61c-0.409-0.492-0.953-0.737-1.622-0.737C121.639,95.428,121.271,95.491,120.873,95.615z"/>
		<path style="fill:#251626;" d="M27.487,180.274c-0.074-0.611,0.361-1.166,0.972-1.238c6.114-0.737,9.841-3.251,10.783-7.273    c0.702-3.012-0.2-6.553-1.957-9.798c-5.827,2.014-12.119,1.777-16.318,0.085c-2.801-1.127-4.487-2.849-4.748-4.848    c-0.183-1.401,0.272-3.576,3.478-5.974c3.082-2.303,7.297-2.027,11.568,0.763c2.595,1.696,5.074,4.267,6.964,7.201    c1.596-0.694,3.117-1.583,4.485-2.677c4.778-3.832,5.233-9.702,3.436-15.033c-4.324,0.685-7.695-0.194-9.189-0.718    c-4.435-1.551-7.654-4.772-7.83-7.83c-0.109-1.89,0.907-3.452,2.86-4.4c4.937-2.386,10.47,1.796,13.767,7.012    c0.668,1.057,1.266,2.19,1.768,3.371c3.663-0.946,7.938-3.215,12.264-8.041c5.877-6.557,8.619-12.876,8.152-18.78    c-0.537-6.766-5.242-10.657-5.289-10.696c-0.476-0.387-0.55-1.087-0.165-1.564c0.383-0.478,1.079-0.555,1.564-0.17    c0.222,0.178,5.476,4.483,6.107,12.21c0.535,6.549-2.395,13.443-8.711,20.488c-4.583,5.113-9.161,7.584-13.141,8.656    c1.905,6.007,1.314,12.808-4.202,17.23c-1.468,1.179-3.071,2.136-4.737,2.888c1.916,3.639,2.86,7.634,2.042,11.131    c-0.818,3.497-3.682,7.893-12.686,8.976c-0.046,0.007-0.089,0.009-0.135,0.009C28.035,181.254,27.554,180.839,27.487,180.274z     M30.046,153.855c-2.02-1.32-5.881-3.193-9.015-0.844c-1.857,1.388-2.758,2.738-2.606,3.904c0.15,1.148,1.379,2.268,3.371,3.069    c3.704,1.49,9.211,1.638,14.291,0.011C34.401,157.493,32.252,155.299,30.046,153.855z M43.877,136.736    c-2.679-4.235-7.234-7.986-10.912-6.196c-1.124,0.544-1.666,1.307-1.612,2.266c0.104,1.799,2.362,4.463,6.342,5.855    c1.261,0.442,4.024,1.164,7.604,0.692C44.882,138.448,44.403,137.571,43.877,136.736z"/>
		<path style="fill:#EFA880;" d="M87.43,239.052l8.736,43.32l-18.331,5.197c0,0,31.607,22.998,47.987,20.779    c16.381-2.219,1.021-34.066,1.021-34.066l-12.166,4.363l0-31.907L87.43,239.052z"/>
		<path style="fill:#C083AF;" d="M305.772,313.146c0,0,34.387,85.662,16.224,100.325c-18.163,14.663-94.302,5.6-94.302,5.6    l27.081-88.168L305.772,313.146z"/>
		<path style="fill:#251626;" d="M321.996,414.586c0.344,0,0.683-0.159,0.9-0.459c17.299-23.761-14.733-98.265-16.103-101.425    c-0.244-0.563-0.894-0.82-1.466-0.579c-0.563,0.246-0.822,0.903-0.579,1.466c0.333,0.761,32.9,76.49,16.347,99.228    c-0.361,0.496-0.252,1.192,0.246,1.555C321.54,414.516,321.768,414.586,321.996,414.586z"/>
		<path style="fill:#EFA880;" d="M64.643,419.859c0,0-17.629-69.033-13.956-82.562c3.673-13.529,48.463,6.843,48.463,6.843    l-4.2,43.073L64.643,419.859z"/>
		<path style="fill:#9CD1C3;" d="M96.351,372.556l-45.894,9.007c0,0-32.07-73.858,27.378-93.994    C77.834,287.569,140.541,319.283,96.351,372.556z"/>
		<path style="fill:#EFA880;" d="M64.643,419.859c0,0,63.535-131.16,67.368-135.839c3.833-4.679,33.66-5.001,34.577-3.246    c0.917,1.754-19.885,8.31-19.885,8.31s18.984,27.378,14.58,30.924c-4.404,3.546-24.707,8.649-24.707,8.649    s-13.41,108.921-26.818,108.921S64.643,419.859,64.643,419.859z"/>
		<path style="fill:#251626;" d="M113.402,321.302c0.435,0,0.848-0.257,1.027-0.683c5.366-12.808,15.035-33.807,18.147-35.64    c0.529-0.311,0.707-0.994,0.394-1.525c-0.311-0.531-0.996-0.702-1.525-0.394c-4.772,2.81-17.621,33.237-19.07,36.697    c-0.237,0.568,0.028,1.22,0.596,1.457C113.113,321.273,113.259,321.302,113.402,321.302z"/>
		<path style="fill:#251626;" d="M139.016,302.663c0.3,0,0.6-0.122,0.82-0.361c2.171-2.366,8.241-4.13,10.396-4.609    c0.6-0.135,0.979-0.729,0.846-1.329s-0.729-0.979-1.329-0.846c-0.344,0.076-8.467,1.912-11.553,5.279    c-0.415,0.452-0.385,1.157,0.067,1.572C138.477,302.565,138.747,302.663,139.016,302.663z"/>
		<path style="fill:#251626;" d="M146.361,311.319c0.248,0,0.496-0.083,0.702-0.25c3.889-3.16,10.274-3.78,10.337-3.787    c0.613-0.057,1.064-0.598,1.007-1.211c-0.059-0.613-0.616-1.048-1.211-1.007c-0.289,0.026-7.127,0.694-11.538,4.278    c-0.476,0.387-0.55,1.087-0.161,1.566C145.717,311.177,146.037,311.319,146.361,311.319z"/>
		<path style="fill:#251626;" d="M114.679,263.842c0.526,0,0.994-0.374,1.092-0.911c0.113-0.605-0.287-1.185-0.892-1.296    c-6.249-1.157-23.248-4.696-26.817-7.166c-0.505-0.35-1.201-0.226-1.549,0.283c-0.35,0.505-0.224,1.198,0.283,1.549    c4.689,3.245,26.741,7.351,27.678,7.523C114.542,263.836,114.612,263.842,114.679,263.842z"/>
		<path style="fill:#251626;" d="M202.883,272.901c0.248,0,0.498-0.083,0.707-0.252c1.135-0.931,5.42-2.505,7.854-3.278    c0.585-0.187,0.911-0.811,0.724-1.398c-0.185-0.585-0.805-0.907-1.398-0.724c-0.685,0.217-6.755,2.173-8.593,3.678    c-0.474,0.389-0.544,1.092-0.154,1.568C202.241,272.762,202.561,272.901,202.883,272.901z"/>
		<path style="fill:#251626;" d="M207.807,281.955c0.191,0,0.383-0.048,0.559-0.15c4.535-2.634,6.288-1.603,6.307-1.594    c0.485,0.383,1.164,0.276,1.54-0.207c0.381-0.485,0.272-1.201-0.213-1.579c-0.272-0.213-2.836-1.981-8.752,1.453    c-0.533,0.309-0.713,0.992-0.405,1.522C207.05,281.757,207.424,281.955,207.807,281.955z"/>
		<path style="fill:#251626;" d="M204.314,408.372c0.157,0,0.313-0.033,0.465-0.102c18.785-8.624,41.336-74.848,42.287-77.662    c0.198-0.583-0.115-1.216-0.698-1.412c-0.585-0.194-1.216,0.117-1.412,0.698c-0.231,0.681-23.189,68.125-41.108,76.353    c-0.559,0.257-0.803,0.918-0.546,1.477C203.489,408.131,203.892,408.372,204.314,408.372z"/>
		<path style="fill:#251626;" d="M149.991,397.11c0.616,0,1.114-0.498,1.114-1.114s-0.498-1.114-1.114-1.114    c-3.195,0-8.791-0.498-10.213-1.831c-0.45-0.415-1.155-0.398-1.575,0.052c-0.42,0.448-0.396,1.153,0.052,1.575    C140.778,397.043,149.056,397.11,149.991,397.11z"/>
		<path style="fill:#251626;" d="M167.882,405.575c0.616,0,1.114-0.498,1.114-1.114s-0.498-1.114-1.114-1.114    c-3.193,0-8.789-0.498-10.211-1.831c-0.45-0.415-1.153-0.398-1.575,0.052c-0.42,0.448-0.396,1.153,0.052,1.575    C158.671,405.508,166.947,405.575,167.882,405.575z"/>
		<path style="fill:#251626;" d="M162.397,392.223c0.616,0,1.114-0.498,1.114-1.114s-0.498-1.114-1.114-1.114    c-3.195,0-8.793-0.498-10.213-1.829c-0.452-0.42-1.155-0.398-1.575,0.052c-0.42,0.45-0.396,1.155,0.052,1.575    C153.184,392.156,161.461,392.223,162.397,392.223z"/>
		<path style="fill:#251626;" d="M54.19,321.852c0.481,0,0.922-0.311,1.068-0.794c0.913-3.062,2.991-8.284,4.672-9.265    c0.531-0.309,0.711-0.992,0.4-1.522c-0.309-0.533-0.992-0.716-1.522-0.4c-2.984,1.742-5.418,9.652-5.685,10.551    c-0.174,0.587,0.161,1.209,0.75,1.385C53.977,321.837,54.086,321.852,54.19,321.852z"/>
		<path style="fill:#251626;" d="M51.202,346.254c0.07,0,0.139-0.007,0.211-0.02c0.605-0.115,1-0.698,0.885-1.303    c-0.598-3.138-1.157-8.73-0.113-10.374c0.328-0.52,0.174-1.207-0.346-1.538c-0.515-0.322-1.205-0.176-1.538,0.346    c-1.849,2.921-0.365,11.064-0.191,11.984C50.212,345.882,50.68,346.254,51.202,346.254z"/>
		<path style="fill:#251626;" d="M68.023,324.734c0.481,0,0.922-0.311,1.068-0.794c0.913-3.062,2.993-8.284,4.674-9.265    c0.531-0.309,0.711-0.992,0.4-1.522c-0.309-0.533-0.994-0.713-1.522-0.4c-2.986,1.742-5.42,9.652-5.687,10.551    c-0.174,0.587,0.161,1.209,0.75,1.385C67.81,324.718,67.918,324.734,68.023,324.734z"/>
		<path style="fill:#251626;" d="M68.023,308.169c0.481,0,0.922-0.311,1.068-0.794c0.913-3.06,2.993-8.282,4.674-9.263    c0.531-0.309,0.711-0.992,0.4-1.522c-0.309-0.533-0.994-0.716-1.522-0.4c-2.986,1.742-5.42,9.65-5.687,10.548    c-0.174,0.587,0.161,1.209,0.748,1.385C67.81,308.154,67.918,308.169,68.023,308.169z"/>
		<path style="fill:#251626;" d="M56.778,338.725c0.481,0,0.922-0.311,1.068-0.794c0.913-3.06,2.993-8.282,4.674-9.263    c0.531-0.309,0.711-0.992,0.4-1.522c-0.309-0.533-0.992-0.716-1.522-0.4c-2.986,1.742-5.42,9.65-5.687,10.548    c-0.174,0.587,0.161,1.209,0.748,1.385C56.565,338.71,56.674,338.725,56.778,338.725z"/>
		<path style="fill:#251626;" d="M184.572,400.914c0.615,0,1.114-0.498,1.114-1.114c0-0.615-0.498-1.114-1.114-1.114    c-3.193,0-8.791-0.498-10.211-1.829c-0.452-0.42-1.155-0.396-1.575,0.052c-0.42,0.45-0.396,1.155,0.052,1.575    C175.361,400.847,183.637,400.914,184.572,400.914z"/>
		<path style="fill:#251626;" d="M70.637,408.618c0.072,0,0.144-0.007,0.213-0.02c0.605-0.117,0.998-0.703,0.883-1.305    c-0.439-2.258,7.775-18.193,15.97-32.293c0.309-0.531,0.128-1.214-0.405-1.522c-0.526-0.307-1.211-0.13-1.522,0.405    c-2.853,4.911-17.047,29.62-16.231,33.833C69.65,408.248,70.115,408.618,70.637,408.618z"/>
		<path style="fill:#251626;" d="M64.643,89.147c0.348,0,0.689-0.163,0.907-0.468c0.357-0.5,0.239-1.196-0.261-1.553    c-0.818-0.585-20.19-14.274-28.633-10.866c-0.57,0.231-0.846,0.881-0.616,1.451c0.233,0.57,0.881,0.84,1.451,0.616    c6.079-2.455,21.192,6.829,26.506,10.614C64.193,89.079,64.419,89.147,64.643,89.147z"/>
		<path style="fill:#251626;" d="M88.128,77.924c0.37,0,0.729-0.183,0.942-0.515c0.331-0.52,0.176-1.207-0.341-1.538    c-0.809-0.518-20.068-12.569-38.222-6.531c-0.583,0.196-0.898,0.824-0.705,1.409c0.196,0.585,0.824,0.9,1.409,0.705    c17.132-5.703,36.134,6.175,36.321,6.296C87.717,77.868,87.923,77.924,88.128,77.924z"/>
		<path style="fill:#251626;" d="M41.904,108.912c0.396,0,0.781-0.211,0.981-0.585c0.294-0.539,0.091-1.216-0.448-1.507    c-0.115-0.063-11.41-6.259-13.524-14.661c-0.783-3.101-0.194-6.172,1.746-9.126c0.337-0.513,0.194-1.205-0.32-1.542    c-0.511-0.337-1.203-0.198-1.542,0.32c-2.299,3.499-2.986,7.166-2.044,10.899c2.36,9.352,14.124,15.799,14.624,16.068    C41.545,108.869,41.726,108.912,41.904,108.912z"/>
		<path style="fill:#251626;" d="M22.141,130.864c0.217,0,0.435-0.063,0.629-0.194c0.507-0.348,0.637-1.04,0.291-1.549    c-0.146-0.211-14.361-21.377-2.756-34.055c0.415-0.455,0.383-1.159-0.07-1.575c-0.455-0.418-1.159-0.385-1.575,0.07    c-12.797,13.983,1.927,35.89,2.56,36.817C21.438,130.694,21.786,130.864,22.141,130.864z"/>
	</g>
	<g>
		<path style="fill:#E9546A;" d="M246.997,72.766c45.68-20.773,88.375,32.917,88.375,32.917c22.921,31.901,3.01,98.99-75.162,84.373    c-4.167-0.78-8.041-1.761-11.666-2.903l-23.673,15.777l3.48-25.602C189.392,149.261,209.113,89.994,246.997,72.766z"/>
		<g>
			<path style="fill:#251626;" d="M240.992,127.382c0.461,0,0.892-0.289,1.053-0.748c0.2-0.583-0.107-1.216-0.687-1.418     c-7.325-2.538-15.329-5.692-17.465-7.075c1.975-1.44,9.831-4.452,16.756-6.677c0.585-0.187,0.907-0.813,0.718-1.401     c-0.187-0.585-0.816-0.907-1.401-0.718c-6.557,2.105-17.686,5.992-18.535,8.336c-0.163,0.452-0.115,0.916,0.135,1.309     c1.27,1.994,13.754,6.49,19.061,8.33C240.748,127.362,240.87,127.382,240.992,127.382z"/>
			<path style="fill:#9CD1C3;" d="M315.84,136.375c0,0-12.994,36.579-47.665,31.269c-34.671-5.31-35.98-71.091-26.821-70.91     c9.158,0.182,19.625,24.479,19.625,24.479l22.366-33.18c0,0,27.352,31.543,7.726,51.994L315.84,136.375z"/>
			<path style="fill:#251626;" d="M244.415,117.453c3.467,0,4.476-6.655,4.702-8.693c0.067-0.611-0.372-1.161-0.983-1.231     c-0.629-0.074-1.164,0.374-1.231,0.983c-0.361,3.23-1.442,6.292-2.31,6.675c-0.6-0.685-1.731-3.428-2.532-6.177     c-0.174-0.592-0.779-0.924-1.381-0.759c-0.592,0.172-0.931,0.792-0.759,1.381c2.277,7.817,3.887,7.821,4.491,7.821H244.415z"/>
			<path style="fill:#251626;" d="M277.624,136.282c0.133,0,0.268-0.024,0.398-0.074c10.986-4.211,6.379-34.501,6.179-35.788     c-0.074-0.47-0.437-0.84-0.905-0.924c-0.457-0.076-0.935,0.137-1.168,0.552l-14.378,25.677c-0.3,0.537-0.109,1.216,0.428,1.516     c0.533,0.296,1.214,0.111,1.516-0.428l12.745-22.76c1.109,9.744,1.644,27.447-5.213,30.077c-0.574,0.22-0.861,0.863-0.642,1.438     C276.754,136.01,277.176,136.282,277.624,136.282z"/>
		</g>
	</g>
</g>















</svg>
