<?xml version="1.0" encoding="UTF-8"?>
<!-- Generator: Adobe Illustrator 25.1.0, SVG Export Plug-In . SVG Version: 6.00 Build 0)  -->
<svg xmlns="http://www.w3.org/2000/svg" xmlns:xlink="http://www.w3.org/1999/xlink" version="1.1" id="Capa_1" x="0px" y="0px" viewBox="0 0 500 500" style="enable-background:new 0 0 500 500;" xml:space="preserve" width="512" height="512">
<g>
	<g>
		<path style="fill:#251626;" d="M393.344,329.952l-54.201-48.6c-0.282-0.251-0.397-0.64-0.297-1.005    c0.098-0.365,0.391-0.642,0.761-0.72l42.401-8.853l17.026-50.268c0.09-0.262,0.284-0.476,0.536-0.591    c0.252-0.111,0.538-0.116,0.796-0.013c18.724,7.761,79.922,33.397,81.281,37.404c0.092,0.273,0.055,0.758-0.09,1.007    c-1.277,2.213-17.175,39.289-25.402,58.585c-0.129,0.301-0.397,0.521-0.718,0.588l-61.22,12.701    c-0.068,0.014-0.135,0.021-0.203,0.021C393.768,330.209,393.529,330.119,393.344,329.952z M479.569,257.802    c-4.111-3.789-49.762-23.509-78.984-35.639l-16.866,49.796c-0.113,0.335-0.397,0.586-0.743,0.658l-41.024,8.566l52.351,46.941    l60.213-12.492C456.911,310.018,476.696,263.661,479.569,257.802z"/>
		<path style="fill:#E9546A;" d="M466.19,259.904c0,0-15.575,38.292-17.855,43.351c-0.563,1.249-55.084-31.302-55.084-33.148    s14.436-38.315,14.436-38.315L466.19,259.904z"/>
		<path style="fill:#251626;" d="M358.03,284.875c-0.288-0.256-0.401-0.654-0.295-1.024c0.106-0.37,0.415-0.645,0.794-0.71    c2.456-0.42,24.057-4.105,25.985-4.105c3.505,0,38.658,25.194,49.347,32.916c0.319,0.231,0.473,0.627,0.395,1.013    c-0.08,0.385-0.377,0.689-0.763,0.775c-11.937,2.685-30.162,6.89-31.435,7.46c-0.139,0.069-0.352,0.117-0.507,0.117    C399.219,321.318,373.282,298.486,358.03,284.875z M384.514,281.039c-1.24,0-14.096,2.113-23.597,3.727    c14.871,13.237,37.506,32.946,40.633,34.497c3.178-1.043,21.9-5.306,29.337-6.987    C413.642,299.862,387.211,281.402,384.514,281.039z"/>
		<path style="fill:#251626;" d="M390.973,338.021c1.629,0,29.153-5.087,58.652-10.584c4.995-0.93,8.282-1.543,8.533-1.582    c0.647-0.017,0.673,0.016,13.447-31.074c4.654-11.331,12.612-30.781,12.913-31.802c0.612-2.075-2.245-5.031-3.135-5.888    c-0.397-0.381-1.033-0.371-1.416,0.027s-0.372,1.032,0.027,1.415c1.5,1.446,2.763,3.331,2.603,3.88    c-0.536,1.729-22.883,56.153-25.265,61.556c-0.87,0.156-2.949,0.544-8.075,1.499c-15.166,2.826-55.064,10.26-58.171,10.542    c-4.105-1.887-47.54-41.595-49.052-44.871c-0.46-2.473-1.218-10.546-1.226-10.627c-0.053-0.551-0.559-0.958-1.091-0.904    c-0.55,0.052-0.954,0.541-0.904,1.091c0.031,0.335,0.776,8.248,1.285,10.921C340.676,294.658,388.222,338.021,390.973,338.021z"/>
		<path style="fill:#251626;" d="M458.018,325.865c0.106,0,0.211-0.017,0.317-0.052c0.524-0.174,0.808-0.741,0.634-1.266    l-2.785-8.358c-0.176-0.524-0.743-0.808-1.267-0.633c-0.524,0.174-0.808,0.741-0.634,1.266l2.785,8.358    C457.208,325.6,457.599,325.865,458.018,325.865z"/>
		<path style="fill:#FFFFFF;" d="M436.583,260.734c0,0-9.926,18.071-11.199,16.544c-1.273-1.527-9.417-16.544-9.417-16.544H436.583z    "/>
		<path style="fill:#251626;" d="M455.233,317.508c0.334,0,0.661-0.168,0.851-0.474c0.291-0.47,0.147-1.087-0.323-1.379    l-72.461-44.869c-0.469-0.29-1.087-0.146-1.379,0.325c-0.291,0.47-0.147,1.087,0.323,1.379l72.461,44.869    C454.869,317.46,455.053,317.508,455.233,317.508z"/>
		<path style="fill:#251626;" d="M410.262,319.069c0.28,0,0.559-0.117,0.757-0.346c0.362-0.419,0.317-1.051-0.102-1.413    l-41.251-35.674c-0.418-0.36-1.05-0.317-1.412,0.103c-0.362,0.419-0.317,1.051,0.102,1.413l41.251,35.674    C409.797,318.989,410.029,319.069,410.262,319.069z"/>
		<path style="fill:#251626;" d="M370.169,295.278c0.1,0,0.203-0.015,0.305-0.047l25.122-8.014c0.526-0.168,0.817-0.731,0.649-1.258    c-0.17-0.526-0.722-0.818-1.259-0.65l-25.122,8.014c-0.526,0.168-0.817,0.731-0.649,1.258    C369.352,295.008,369.745,295.278,370.169,295.278z"/>
		<path style="fill:#251626;" d="M393.252,315.141c0.127,0,0.254-0.023,0.377-0.074l26.701-10.885    c0.512-0.208,0.759-0.793,0.55-1.305c-0.209-0.513-0.796-0.76-1.304-0.549l-26.701,10.885c-0.512,0.208-0.759,0.793-0.55,1.305    C392.483,314.906,392.857,315.141,393.252,315.141z"/>
		<path style="fill:#251626;" d="M392.493,302.204c0.117,0,0.237-0.021,0.354-0.065l15.948-6.016    c0.516-0.195,0.778-0.772,0.583-1.29c-0.194-0.518-0.767-0.781-1.291-0.584l-15.948,6.016c-0.516,0.195-0.778,0.772-0.583,1.29    C391.707,301.958,392.088,302.204,392.493,302.204z"/>
		<path style="fill:#251626;" d="M419.952,315.694c0.295,0,0.587-0.13,0.784-0.379c0.344-0.433,0.272-1.063-0.162-1.406    l-42.471-33.674c-0.432-0.345-1.06-0.272-1.406,0.162c-0.344,0.433-0.272,1.063,0.162,1.406l42.471,33.674    C419.514,315.623,419.733,315.694,419.952,315.694z"/>
		<path style="fill:#251626;" d="M390.973,338.021c0.401,0,0.778-0.242,0.933-0.639l3.039-7.813    c0.201-0.515-0.055-1.095-0.569-1.296c-0.516-0.201-1.095,0.055-1.297,0.57l-3.039,7.813c-0.201,0.515,0.055,1.095,0.569,1.296    C390.729,338,390.852,338.021,390.973,338.021z"/>
	</g>
	<g>
		<g>
			<path style="fill:#DD7C2E;" d="M123.814,23.967c0,0-14.278-33.719-42.833-19.442s-6.828,44.695-7.449,22.968     C72.91,5.767,45.597,14.161,37.527,35.726s9.312,50.686,9.312,35.815s-9.312-18.651-19.865,0s-4.345,65.959,6.208,53.168     s-14.752-17.006-16.377,0s0.86,42.639,19.598,40.222c15.392-1.986,12.919-24.951-5.704-10.116s-14.278,55.958,9.932,55.572     s36.625-24.242,22.968-25.661c-13.657-1.419-11.174,33.762,9.932,20.517s14.898-61.044,0.621-54.216s6.208,29.052,15.519,13.595     s10.12-40.2-2.917-34.459c-13.036,5.741,1.054,21.48,12.849,4.344s-7.883-41.84-17.382-34.51s17.382,0.36,22.348-11.861     c4.966-12.222-8.07-31.425-20.485-23.97c-12.415,7.454,24.21,16.327,9.932-16.681c-7.296-16.867,20.34-8.817,20.34-8.817"/>
			<path style="fill:#251626;" d="M20.396,195.674c-3.604-10.047-3.008-23.782,3.01-33.901c-9.438-9.454-8.206-30.804-7.6-37.16     c0.442-4.603,2.625-8.244,6.039-10.307c-2.464-13.259-1.574-32.952,4.256-43.258c3.205-5.663,6.454-9.582,9.536-11.583     c-1.68-7.346-2.04-16.091,0.952-24.09c5.503-14.701,19.056-22.925,28.259-21.404c1.105,0.184,2.126,0.503,3.057,0.95     c2.267-4.062,6.201-8.078,12.628-11.292c8.014-4.005,15.702-4.7,22.854-2.062c14.093,5.197,21.059,21.326,21.348,22.01     c0.217,0.508-0.022,1.096-0.53,1.312c-0.507,0.215-1.097-0.022-1.312-0.531c-0.068-0.16-6.933-16.027-20.21-20.917     c-6.606-2.435-13.758-1.769-21.254,1.979c-6.045,3.022-9.71,6.778-11.799,10.549c3.018,2.276,4.752,6.248,4.903,11.496     c0.188,6.601-1.604,8.308-3.141,8.578c-2.01,0.346-4.134-1.812-5.314-5.382c-1.113-3.375-1.432-8.603,0.933-13.948     c-0.759-0.36-1.59-0.618-2.492-0.768c-8.245-1.38-20.976,6.56-26.053,20.131c-2.707,7.232-2.478,15.418-0.99,22.413     c1.463-0.596,2.879-0.726,4.222-0.375c3.845,1.013,6.141,6.031,6.141,13.426c0,2.783-0.589,4.389-1.801,4.907     c-0.663,0.286-1.75,0.331-3.184-1.039c-2.098-2.004-4.895-7.219-6.696-13.858c-2.625,1.928-5.505,5.521-8.314,10.483     c-5.777,10.209-6.377,28.899-4.179,41.37c0.598-0.238,1.224-0.433,1.875-0.587c4.332-1.011,8.593,0.268,10.363,3.118     c0.933,1.502,1.919,4.722-1.95,9.412c-2.873,3.48-5.319,2.613-6.528,1.782c-2.208-1.519-3.962-5.471-5.145-10.7     c-2.525,1.803-4.132,4.735-4.48,8.376c-1.189,12.433-0.02,28.055,6.714,35.235c1.551-2.253,3.399-4.286,5.56-6.008     c8.227-6.553,12.735-5.491,14.695-4.275c2.224,1.382,3.186,4.159,2.515,7.249c-0.776,3.574-4.058,8.054-10.754,8.919     c-4.537,0.581-8.427-0.363-11.605-2.811c-5.538,9.537-6.039,22.422-2.646,31.885c3.286,9.161,9.845,14.39,18.027,14.39     c0.102,0,0.205-0.001,0.309-0.003c6.27-0.1,11.795-1.857,16.222-4.397c-3.151-4.441-3.448-11.291-1.494-15.837     c1.643-3.825,4.678-5.796,8.359-5.421c4.269,0.444,6.714,3.046,6.544,6.962c-0.203,4.618-3.96,10.462-10.302,14.762     c3.153,2.691,7.666,2.321,13.056-1.059c10.533-6.61,13.832-22.131,12.97-34.599c-2.605,1.446-5.169,1.298-6.819,0.943     c-5.364-1.159-10.23-6.366-10.844-11.609c-0.46-3.918,1.463-7.118,5.413-9.007c3.992-1.907,7.844-0.168,10.566,4.776     c1.52,2.76,2.671,6.582,3.309,10.934c0.417-0.501,0.825-1.074,1.218-1.728c4.34-7.202,6.823-16.659,6.804-23.756     c-3.182,2.512-6.581,3.474-9.722,2.632c-2.982-0.805-5.128-3.228-5.341-6.03c-0.113-1.498,0.225-5.25,5.799-7.704     c4.469-1.969,7.091-0.466,8.503,1.138c1.171,1.331,1.96,3.255,2.39,5.577c0.522-0.623,1.036-1.298,1.533-2.022     c7.42-10.78,1.658-24.245-4.801-30.365c-0.919-0.87-1.956-1.683-3.043-2.338c-4.06,1.843-7.868,2.815-9.606,2.75     c-1.4-0.054-1.889-0.674-2.053-1.185c-0.323-1.009,0.375-2.086,2.335-3.597c2.56-1.974,5.935-2.002,9.415-0.221     c5.294-2.572,10.707-6.521,12.618-11.224c2.945-7.253-0.923-16.613-6.196-21.127c-0.066-0.057-0.135-0.114-0.203-0.172     c-1.205,2.637-3.125,3.974-4.445,4.615c-4.602,2.236-10.404,0.728-11.928-2.078c-0.501-0.923-1.24-3.327,2.697-5.691     c4.021-2.414,8.48-2.395,12.591-0.037c0.677-3.835-0.336-9.09-3.061-15.386c-1.784-4.123-1.743-7.284,0.121-9.395     c4.872-5.52,20.744-0.976,21.417-0.781c0.532,0.155,0.837,0.71,0.683,1.241c-0.156,0.53-0.702,0.836-1.242,0.682     c-4.248-1.238-16.001-3.616-19.355,0.184c-1.306,1.479-1.234,3.927,0.215,7.274c3.544,8.194,3.917,13.695,3.002,17.367     c0.274,0.208,0.544,0.426,0.812,0.656c5.928,5.075,10.074,15.216,6.747,23.402c-2.026,4.99-7.265,9.01-12.454,11.701     c0.774,0.549,1.549,1.185,2.312,1.908c6.978,6.608,13.164,21.201,5.075,32.955c-0.909,1.319-1.868,2.492-2.861,3.508     c0.53,7.671-2.032,18.241-7.038,26.554c-0.827,1.372-1.715,2.44-2.626,3.263c1.275,13.315-2.114,30.331-13.84,37.69     c-8.263,5.188-13.212,2.776-15.43,0.877c-0.153-0.13-0.301-0.265-0.444-0.404c-4.741,2.794-10.698,4.714-17.542,4.824     c-0.115,0.002-0.231,0.003-0.346,0.003C31.226,211.391,23.983,205.68,20.396,195.674z M57.184,189.941     c-1.703,3.966-1.428,10.168,1.363,13.993c5.941-3.931,9.518-9.242,9.698-13.329c0.125-2.859-1.518-4.547-4.75-4.882     c-0.235-0.024-0.46-0.036-0.679-0.036C59.527,185.687,57.886,188.307,57.184,189.941z M82.531,155.866     c-1.537-2.796-4.169-5.744-7.948-3.935c-3.995,1.911-4.537,4.843-4.289,6.967c0.514,4.383,4.762,8.909,9.278,9.884     c1.752,0.378,4.007,0.337,6.194-1.226C85.234,162.843,84.096,158.706,82.531,155.866z M31.322,155.599     c-2.081,1.656-3.851,3.624-5.327,5.807c2.781,2.203,6.237,3.058,10.277,2.532c5.664-0.73,8.417-4.419,9.057-7.356     c0.485-2.239-0.133-4.202-1.615-5.123c-0.651-0.405-1.441-0.602-2.345-0.602C38.76,150.856,35.204,152.506,31.322,155.599z      M93.354,131.708c-1.435-1.628-3.458-1.832-6.196-0.629c-3.1,1.366-4.78,3.451-4.608,5.721c0.149,1.957,1.701,3.663,3.866,4.247     c2.849,0.776,6.074-0.412,9.076-3.225C95.228,135.187,94.529,133.044,93.354,131.708z M25.999,114.768     c-0.683,0.159-1.332,0.376-1.942,0.648c1.072,5.037,2.636,8.778,4.504,10.063c0.469,0.323,1.715,1.179,3.849-1.407     c2.278-2.76,2.914-5.274,1.793-7.08c-0.988-1.592-3.211-2.514-5.734-2.514C27.665,114.479,26.832,114.573,25.999,114.768z      M82.834,100.79c-0.71,0.548-1.115,0.94-1.344,1.202c0.01,0,0.018,0,0.025,0c0.962,0,3.07-0.349,6.319-1.614     c0.227-0.088,0.456-0.18,0.686-0.275C86.533,99.444,84.516,99.489,82.834,100.79z M37.94,60.48     c1.453,5.711,3.69,10.42,5.693,12.826c0.962,1.153,1.547,1.32,1.617,1.301c0.006-0.003,0.587-0.41,0.587-3.066     c0-6.331-1.782-10.734-4.649-11.489c-0.313-0.083-0.64-0.124-0.974-0.124C39.497,59.928,38.736,60.115,37.94,60.48z M84.6,65.024     c-1.017,0.61-2.623,1.813-1.969,3.02c0.95,1.755,5.591,3.031,9.291,1.232c1.733-0.842,2.959-2.197,3.677-4.003     C92.959,63.625,89.018,62.371,84.6,65.024z M67.981,30.034c0.931,2.823,2.349,4.163,3.065,4.037     c0.669-0.117,1.615-1.959,1.484-6.549c-0.127-4.448-1.445-7.762-3.8-9.713C66.728,22.523,67.003,27.074,67.981,30.034z"/>
		</g>
		<path style="fill:#EA8060;" d="M390.616,65.724c0,0,16.12-37.376,21.585-36.186c5.466,1.19-4.552,18.836-6.249,19.964    c-1.697,1.129,18.558-17.239,19.03-13.68c0.473,3.559-14.951,23.175-14.951,23.175s24.765-22.881,22.839-15.527    c-1.926,7.354-19.263,25.69-19.263,25.69s28.248-4.197,25.254-0.283c-2.994,3.914-38.003,14.444-43.861,12.953    C389.142,80.339,390.616,65.724,390.616,65.724z"/>
		<polygon style="fill:#EA8060;" points="266.491,182.964 392.267,64.166 400.945,77.104 294.72,218.589   "/>
		<polygon style="fill:#EA8060;" points="296.369,257.559 300.496,313.619 238.674,320.358 245.411,257.559   "/>
		<path style="fill:#251426;" d="M349.421,462.804l-6.079,35.871l9.692,1.325l-1.597-11.142c0,0,2.205,15.55,27.803,9.749    c0,0-32.573-14.882-11.819-34.546L349.421,462.804z"/>
		<path style="fill:#251626;" d="M131.779,48.383l-17.867-8.817c-0.254-0.126-0.444-0.355-0.52-0.631    c-0.076-0.275-0.033-0.569,0.121-0.809l9.458-14.701c0.17-0.263,0.454-0.432,0.767-0.457c0.315-0.032,0.616,0.1,0.825,0.333    l15.258,17.183c0.362,0.408,0.331,1.03-0.068,1.4l-6.849,6.334c-0.19,0.175-0.434,0.266-0.681,0.266    C132.072,48.487,131.92,48.453,131.779,48.383z M123.941,25.619l-8.136,12.647l16.244,8.016l5.623-5.2L123.941,25.619z"/>
		<path style="fill:#DD7C2E;" d="M248.165,66.056c0,0-16.677-88.481-99.521-42.089c-59.992,33.596-31.963,99.212-2.945,105.687    C174.717,136.129,253.998,85.969,248.165,66.056z"/>
		<path style="fill:#FFFFFF;" d="M77.473,67.844"/>
		<path style="fill:#251426;" d="M110.008,462.622L82.84,486.82l-6.269-7.509l10.289-4.563c0,0-14.348,6.389-23.024-18.383    c0,0,29.907,19.699,35.549-8.329L110.008,462.622z"/>
		<path style="fill:#EA8060;" d="M134.464,94.711c0,0,21.417-62.724,77.211-59.635c41.744,2.312,84.9,125.79,26.148,145.933    C196.177,195.287,128.631,127.777,134.464,94.711z"/>
		<path style="fill:#251626;" d="M211.3,120.713c0.068,0,0.137-0.007,0.205-0.021c0.6-0.124,14.748-3.057,18.902-4.37    c0.596-0.188,0.988-0.626,1.078-1.203c0.52-3.33-16.32-15.788-26.403-22.917c-0.45-0.316-1.076-0.214-1.396,0.24    c-0.319,0.452-0.211,1.077,0.239,1.395c11.716,8.283,24.006,17.982,25.447,20.709c-4.565,1.345-18.131,4.156-18.272,4.185    c-0.542,0.112-0.89,0.642-0.776,1.183C210.42,120.387,210.837,120.713,211.3,120.713z"/>
		<path style="fill:#251626;" d="M184.772,112.997c0.381,0,0.741-0.072,1.076-0.23c4.203-1.97-0.753-14.083-2.372-17.749    c-0.221-0.506-0.816-0.732-1.32-0.511c-0.505,0.224-0.735,0.815-0.51,1.321c2.889,6.544,4.975,14.365,3.354,15.126    c-1.756,0.816-7.543-5.186-11.89-11.295c-0.323-0.449-0.949-0.551-1.396-0.235c-0.45,0.321-0.555,0.946-0.235,1.396    C173.624,103.838,180.501,112.997,184.772,112.997z"/>
		<path style="fill:#251626;" d="M227.008,92.146c0.434,0,0.829-0.076,1.179-0.241c4.205-1.971-0.751-14.084-2.37-17.75    c-0.221-0.505-0.816-0.734-1.32-0.511c-0.505,0.224-0.735,0.815-0.51,1.321c2.889,6.544,4.975,14.365,3.352,15.127    c-1.872,0.86-9.049-4.606-14.648-10.182c-0.391-0.389-1.025-0.388-1.416,0.003c-0.389,0.392-0.389,1.026,0.004,1.417    C213.98,84.021,222.514,92.144,227.008,92.146z"/>
		<circle style="fill:#EA8060;" cx="141.905" cy="141.377" r="12.438"/>
		<circle style="fill:#EA8060;" cx="261.243" cy="68.889" r="11.601"/>
		<path style="fill:#251626;" d="M148.531,146.05c0.133,0,0.268-0.026,0.397-0.082c0.508-0.219,0.741-0.809,0.522-1.316    c-1.51-3.496-3.614-5.561-6.256-6.136c-4.461-0.969-8.632,2.748-8.808,2.906c-0.411,0.37-0.442,1.001-0.072,1.412    c0.368,0.413,1.003,0.447,1.412,0.075c0.037-0.032,3.602-3.191,7.05-2.436c1.971,0.433,3.598,2.106,4.836,4.972    C147.774,145.824,148.144,146.05,148.531,146.05z"/>
		<path style="fill:#251626;" d="M263.391,78.105c0.25,0,0.501-0.093,0.694-0.28c0.399-0.383,0.411-1.018,0.027-1.416    c-3.039-3.158-4.396-5.961-3.925-8.105c0.495-2.257,2.844-3.198,2.867-3.206c0.516-0.201,0.771-0.781,0.569-1.297    c-0.201-0.516-0.782-0.771-1.297-0.569c-0.137,0.054-3.374,1.35-4.097,4.643c-0.63,2.869,0.864,6.207,4.439,9.923    C262.867,78.003,263.129,78.105,263.391,78.105z"/>
		<circle style="fill:#E66357;" cx="179.1" cy="134.507" r="11.858"/>
		<circle style="fill:#E66357;" cx="243.349" cy="102" r="11.858"/>
		<polygon style="fill:#E9546A;" points="300.496,313.619 401.668,360.523 379.241,484.338 333.431,476.268 362.077,377.098     294.245,348.16   "/>
		<polygon style="fill:#E9546A;" points="267.55,328.781 110.88,486.976 86.922,448.593 238.674,318.532   "/>
		<path style="fill:#EA8060;" d="M204.503,168.615l26,36.628l-18.518,15.519c0,0,55.32,55.422,78.866,16.32    c6.824-11.332-24.36-54.119-24.36-54.119l-24.404,14.569l-9.816-32.911L204.503,168.615z"/>
		<polygon style="fill:#EA8060;" points="216.074,220.953 74.71,331.304 86.38,344.002 232.176,251.46   "/>
		<polygon style="fill:#E9546A;" points="300.496,313.619 238.674,318.532 247.059,349.472 296.369,348.101   "/>
		<path style="fill:#F7C67C;" d="M256.214,188.781c0,0,24.274,41.078,10.277,43.01s-43.086-21.243-42.126-21.404    c0.96-0.161-12.381,9.327-12.381,9.327s2.693,55.13,37.939,61.371c35.246,6.242,81.874-23.16,66.454-53.802    c-15.42-30.642-49.886-44.319-49.886-44.319L256.214,188.781z"/>
		<polygon style="fill:#F7C67C;" points="234.137,264.196 227.161,295.037 312.339,292.1 292.038,257.559   "/>
		<path style="fill:#EA8060;" d="M83.256,324.633c0,0-34.673-18.796-38.274-14.515c-3.601,4.28,15.108,12.135,17.141,11.993    c2.033-0.142-25.223-2.318-23.424,0.789c1.799,3.107,25.992,9.22,25.992,9.22s-33.584-2.994-27.568,1.653    c6.016,4.647,30.943,8.579,30.943,8.579s-24.932,13.928-20.17,15.199s38.914-11.77,42.642-16.529S83.256,324.633,83.256,324.633z"/>
		<path style="fill:#251626;" d="M249.731,279.728c14.64,0,29.163-8.864,29.382-9c0.469-0.291,0.614-0.909,0.323-1.379    c-0.289-0.469-0.907-0.616-1.379-0.323c-0.317,0.196-31.672,19.314-47.292,0.291c-0.354-0.426-0.986-0.489-1.41-0.138    c-0.426,0.351-0.489,0.982-0.139,1.409C234.849,277.446,242.305,279.728,249.731,279.728z"/>
		<path style="fill:#251626;" d="M262.261,237.638c4.967,0,9.248-1.475,12.718-4.429c3.98-3.388,6.096-7.617,6.289-12.571    c0.548-13.96-14.235-28.861-14.865-29.488c-0.387-0.389-1.021-0.391-1.416,0.002c-0.389,0.391-0.389,1.026,0.002,1.416    c0.149,0.148,14.795,14.915,14.278,27.994c-0.174,4.37-2.053,8.112-5.587,11.121c-16.457,14.011-47.45-13.559-47.761-13.839    c-0.407-0.371-1.04-0.338-1.414,0.074c-0.37,0.411-0.336,1.044,0.076,1.414c0.08,0.072,8.153,7.294,18.254,12.597    C250.077,235.732,256.613,237.637,262.261,237.638z"/>
		<path style="fill:#251626;" d="M293.055,270.879c0.074,0,0.149-0.008,0.225-0.025c0.814-0.188,20.001-4.765,24.469-19.515    c0.16-0.529-0.139-1.088-0.669-1.249c-0.524-0.161-1.087,0.139-1.248,0.668c-4.136,13.652-22.815,18.101-23.003,18.144    c-0.538,0.124-0.874,0.662-0.751,1.201C292.187,270.566,292.597,270.879,293.055,270.879z"/>
		<path style="fill:#251626;" d="M238.674,323.781c0.012,0,0.023,0,0.035-0.001l69.522-2.421c0.551-0.019,0.986-0.482,0.966-1.036    c-0.02-0.552-0.514-1.008-1.036-0.965l-69.522,2.421c-0.551,0.019-0.986,0.482-0.966,1.036    C237.692,323.356,238.136,323.781,238.674,323.781z"/>
		<path style="fill:#251626;" d="M369.891,378.251c6.465,0,14.175-0.142,14.662-0.151c0.551-0.011,0.992-0.467,0.982-1.02    c-0.01-0.547-0.456-0.983-1.001-0.983c-0.006,0-0.012,0-0.02,0c-0.162,0.003-15.006,0.279-20.898,0.076    c2.769-1.742,9.639-5.012,16.021-7.755c0.508-0.219,0.743-0.808,0.524-1.315c-0.217-0.51-0.808-0.74-1.314-0.525    c-18.735,8.052-18.479,9.588-18.342,10.412c0.063,0.375,0.34,1.018,1.498,1.107C363.502,378.212,366.528,378.251,369.891,378.251z    "/>
		<path style="fill:#251626;" d="M379.243,475.552c0.481,0,0.905-0.348,0.986-0.839c0.09-0.546-0.28-1.06-0.825-1.15l-43.257-7.123    c-0.534-0.094-1.062,0.278-1.15,0.825c-0.09,0.546,0.28,1.06,0.825,1.15l43.257,7.123    C379.134,475.548,379.189,475.552,379.243,475.552z"/>
		<path style="fill:#251626;" d="M120.172,478.593c0.19,0,0.379-0.053,0.548-0.162c0.463-0.303,0.593-0.923,0.291-1.387    l-24.088-36.852c-0.305-0.465-0.929-0.592-1.387-0.29c-0.463,0.302-0.593,0.923-0.291,1.386l24.088,36.852    C119.527,478.433,119.845,478.593,120.172,478.593z"/>
		<path style="fill:#251626;" d="M166.437,390.833c0.274,0,0.548-0.111,0.745-0.332c1.443-1.607,5.912-5.088,5.957-5.123    c0.438-0.339,0.516-0.968,0.176-1.405c-0.34-0.438-0.97-0.516-1.404-0.175c-0.19,0.147-4.654,3.626-6.219,5.363    c-0.37,0.412-0.336,1.044,0.076,1.414C165.958,390.748,166.199,390.833,166.437,390.833z"/>
		<path style="fill:#251626;" d="M178.531,387.221c0.274,0,0.548-0.111,0.745-0.331c1.445-1.607,5.912-5.087,5.957-5.122    c0.438-0.339,0.516-0.968,0.176-1.405c-0.338-0.438-0.97-0.515-1.404-0.175c-0.19,0.147-4.654,3.625-6.219,5.362    c-0.37,0.412-0.336,1.044,0.076,1.414C178.052,387.136,178.293,387.221,178.531,387.221z"/>
		<path style="fill:#251626;" d="M177.237,378.683c0.274,0,0.546-0.111,0.745-0.331c1.443-1.606,5.912-5.087,5.957-5.122    c0.438-0.339,0.516-0.968,0.176-1.405c-0.338-0.437-0.97-0.515-1.404-0.175c-0.19,0.147-4.654,3.626-6.219,5.362    c-0.37,0.411-0.336,1.044,0.076,1.414C176.757,378.598,176.998,378.683,177.237,378.683z"/>
		<path style="fill:#251626;" d="M189.628,377.597c0.274,0,0.546-0.111,0.743-0.331c1.447-1.607,5.914-5.088,5.959-5.123    c0.438-0.339,0.516-0.968,0.176-1.405c-0.34-0.438-0.97-0.516-1.404-0.175c-0.19,0.147-4.653,3.626-6.217,5.363    c-0.372,0.411-0.338,1.043,0.072,1.414C189.148,377.512,189.389,377.597,189.628,377.597z"/>
		<path style="fill:#251626;" d="M190.643,368.973c0.274,0,0.548-0.111,0.745-0.331c1.443-1.607,5.912-5.088,5.957-5.123    c0.438-0.339,0.516-0.968,0.176-1.405c-0.338-0.436-0.97-0.516-1.404-0.175c-0.19,0.147-4.654,3.626-6.219,5.363    c-0.37,0.412-0.336,1.044,0.076,1.414C190.163,368.888,190.404,368.973,190.643,368.973z"/>
		<path style="fill:#251626;" d="M165.446,399.581c0.274,0,0.546-0.111,0.745-0.331c1.443-1.606,5.912-5.087,5.957-5.122    c0.438-0.339,0.516-0.968,0.176-1.405s-0.968-0.515-1.404-0.175c-0.19,0.147-4.654,3.626-6.219,5.362    c-0.37,0.411-0.336,1.044,0.076,1.414C164.967,399.496,165.207,399.581,165.446,399.581z"/>
		<path style="fill:#251626;" d="M154.961,400.934c0.274,0,0.548-0.111,0.745-0.331c1.443-1.607,5.912-5.088,5.957-5.123    c0.438-0.339,0.516-0.968,0.176-1.405c-0.338-0.438-0.97-0.516-1.404-0.175c-0.19,0.147-4.654,3.626-6.219,5.363    c-0.37,0.412-0.336,1.044,0.076,1.414C154.482,400.849,154.723,400.934,154.961,400.934z"/>
		<path style="fill:#251626;" d="M382.173,419.514c0.417,0,0.804-0.26,0.947-0.676c0.078-0.226,1.917-5.579,2.278-7.888    c0.086-0.546-0.287-1.058-0.835-1.144c-0.53-0.083-1.056,0.286-1.144,0.835c-0.334,2.135-2.175,7.492-2.192,7.546    c-0.18,0.522,0.098,1.092,0.62,1.272C381.956,419.497,382.065,419.514,382.173,419.514z"/>
		<path style="fill:#251626;" d="M374.018,429.148c0.415,0,0.804-0.26,0.947-0.675c0.078-0.227,1.919-5.58,2.278-7.889    c0.084-0.547-0.289-1.059-0.835-1.144c-0.544-0.073-1.06,0.288-1.144,0.835c-0.332,2.136-2.175,7.491-2.192,7.545    c-0.18,0.523,0.098,1.093,0.62,1.273C373.799,429.13,373.91,429.148,374.018,429.148z"/>
		<path style="fill:#251626;" d="M379.769,435.591c0.417,0,0.804-0.26,0.947-0.676c0.078-0.226,1.917-5.58,2.276-7.888    c0.084-0.547-0.289-1.059-0.835-1.144c-0.548-0.072-1.06,0.288-1.144,0.835c-0.332,2.136-2.173,7.492-2.19,7.546    c-0.18,0.522,0.098,1.092,0.62,1.272C379.552,435.573,379.662,435.591,379.769,435.591z"/>
		<path style="fill:#251626;" d="M369.983,443.272c0.417,0,0.804-0.26,0.947-0.676c0.078-0.226,1.917-5.58,2.276-7.888    c0.084-0.547-0.289-1.059-0.835-1.144c-0.542-0.074-1.06,0.288-1.144,0.835c-0.332,2.136-2.173,7.492-2.19,7.546    c-0.18,0.522,0.098,1.092,0.62,1.272C369.766,443.254,369.876,443.272,369.983,443.272z"/>
		<path style="fill:#251626;" d="M373.846,451.049c0.417,0,0.804-0.26,0.947-0.676c0.078-0.226,1.917-5.579,2.278-7.888    c0.086-0.546-0.287-1.058-0.835-1.144c-0.538-0.083-1.058,0.286-1.144,0.835c-0.334,2.135-2.175,7.492-2.192,7.546    c-0.18,0.522,0.098,1.092,0.62,1.272C373.629,451.032,373.738,451.049,373.846,451.049z"/>
		<path style="fill:#251626;" d="M378.224,411.646c0.417,0,0.804-0.26,0.947-0.676c0.078-0.226,1.917-5.58,2.276-7.888    c0.084-0.547-0.289-1.059-0.835-1.144c-0.546-0.079-1.06,0.287-1.144,0.835c-0.332,2.136-2.173,7.492-2.19,7.546    c-0.18,0.522,0.098,1.092,0.62,1.272C378.007,411.628,378.117,411.646,378.224,411.646z"/>
		<path style="fill:#251626;" d="M386.266,404.784c0.417,0,0.804-0.26,0.947-0.676c0.078-0.227,1.917-5.581,2.276-7.889    c0.084-0.547-0.289-1.059-0.835-1.144c-0.54-0.079-1.06,0.288-1.144,0.835c-0.332,2.136-2.173,7.493-2.19,7.547    c-0.18,0.522,0.098,1.092,0.62,1.272C386.049,404.766,386.159,404.784,386.266,404.784z"/>
		<path style="fill:#251626;" d="M69.16,326.205c0.368,0,0.724-0.204,0.898-0.557c0.244-0.496,0.043-1.096-0.454-1.342    c-0.673-0.332-6.651-3.26-9.215-3.462c-0.505-0.035-1.033,0.368-1.076,0.92c-0.045,0.551,0.368,1.033,0.919,1.077    c1.848,0.146,6.751,2.404,8.484,3.261C68.859,326.172,69.01,326.205,69.16,326.205z"/>
		<path style="fill:#251626;" d="M69.162,334.148c0.485,0,0.913-0.355,0.988-0.851c0.084-0.547-0.293-1.058-0.839-1.14    c-0.947-0.144-9.272-1.405-10.345-1.475c-0.538-0.021-1.027,0.383-1.064,0.935c-0.035,0.552,0.383,1.029,0.935,1.064    c0.747,0.048,6.493,0.897,10.173,1.455C69.061,334.144,69.112,334.148,69.162,334.148z"/>
		<path style="fill:#251626;" d="M407.364,63.882c0.45,0,0.857-0.303,0.972-0.758c0.336-1.347,2.773-3.829,4.23-5.077    c0.42-0.36,0.469-0.992,0.11-1.412c-0.36-0.42-0.992-0.467-1.412-0.11c-0.434,0.373-4.269,3.708-4.872,6.111    c-0.133,0.537,0.192,1.081,0.729,1.214C407.202,63.872,407.284,63.882,407.364,63.882z"/>
		<path style="fill:#251626;" d="M402.316,58.288c0.033,0,0.066-0.002,0.102-0.005c0.55-0.055,0.95-0.546,0.896-1.095    c-0.086-0.876,1.731-4.402,3.483-7.146c0.297-0.466,0.16-1.085-0.305-1.383c-0.465-0.295-1.083-0.164-1.385,0.305    c-0.937,1.47-3.984,6.421-3.784,8.421C401.374,57.902,401.808,58.288,402.316,58.288z"/>
		<path style="fill:#251626;" d="M223.038,184.363c7.273,0,16.834-3.082,17.366-3.255c0.526-0.172,0.812-0.737,0.641-1.262    c-0.172-0.527-0.735-0.811-1.263-0.642c-4.578,1.492-17.417,4.797-21.769,2.215c-0.475-0.282-1.089-0.126-1.371,0.351    c-0.284,0.475-0.125,1.089,0.35,1.372C218.487,184.026,220.639,184.363,223.038,184.363z"/>
		<path style="fill:#E66357;" d="M216.13,146.369c0,0,3.452-10.902,6.069-11.861c2.617-0.959,4.673,6.87,4.673,6.87    s-0.446-7.829,1.927-8.016s5.996,5.233,5.996,5.233s14.665,16.618,5.299,23.02C230.728,168.017,211.27,162.658,216.13,146.369z"/>
		<path style="fill:#251626;" d="M226.68,155.487c0.42,0,0.827-0.069,1.216-0.217c9.07-3.436,7.879-25.983,7.825-26.941    c-0.033-0.549-0.471-0.953-1.056-0.942c-0.553,0.031-0.974,0.505-0.943,1.057c0.35,6.119-0.141,22.53-6.534,24.952    c-3.42,1.288-11.46-9.696-16.079-17.909c-0.27-0.482-0.882-0.654-1.363-0.382s-0.653,0.882-0.381,1.364    C211.238,139.802,220.396,155.487,226.68,155.487z"/>
		<path style="fill:#251626;" d="M133.592,114.717c-0.473-0.286-0.624-0.903-0.338-1.376c0.286-0.473,0.902-0.62,1.375-0.337    c3.082,1.871,5.824,1.854,8.151-0.032c3.7-3.001,5.656-10.364,4.78-16.628c-0.342,0.044-0.692,0.071-1.054,0.081    c-7.25,0.161-14.11-2.975-15.948-6.052c-0.645-1.08-0.71-2.182-0.182-3.105c0.99-1.731,3.921-2.637,8.705-2.555    c4.467,0.033,7.864,2.726,9.565,7.582c0.18,0.511,0.336,1.037,0.471,1.573c4.035-1.683,5.812-6.881,6.084-11.405    c0.084-1.402,0.035-2.844-0.149-4.24c-6.211,0.151-10.121-1.827-11.806-4.16c-1.187-1.641-1.361-3.505-0.463-4.983    c1.066-1.755,3.413-2.55,6.305-2.127c4.091,0.602,6.62,4.479,7.639,9.175c1.617-0.134,3.397-0.411,5.341-0.86    c5.22-1.205,8.429-3.555,9.282-6.798c0.25-0.952,0.291-1.94,0.168-2.929c-8.558,0.958-15.395-3.434-16.635-7.477    c-0.759-2.473,0.512-4.57,3.401-5.609c2.832-1.027,6.522,0.195,9.864,3.254c1.995,1.826,4.015,4.541,4.934,7.56    c0.325-0.066,0.651-0.14,0.98-0.223c4.973-1.266,7.111-5.627,8.028-9.063c0.147-0.553,0.272-1.112,0.374-1.669    c-4.392-2.695-7.076-6.675-7.59-9.96c-0.44-2.798,0.722-4.893,3.11-5.604c1.322-0.396,2.642-0.029,3.726,1.025    c2.421,2.352,3.563,8.02,2.934,13.441c2.654,1.382,5.908,2.254,9.606,2.181c4.606-0.1,6.929-2.361,8.091-4.818    c-6.579-4.188-9.557-10.489-9.004-14.373c0.342-2.404,1.993-3.839,4.42-3.839c4.535,0,7.653,6.511,7.719,12.594    c0.018,1.597-0.184,3.227-0.649,4.76c1.453,0.785,3.082,1.466,4.895,1.992c3.933,1.14,7.226,0.596,9.544-1.571    c-0.864-0.906-1.617-1.977-2.237-3.198c-1.907-3.758-2.083-8.205-0.409-10.345c0.866-1.107,2.134-1.536,3.579-1.203    c1.782,0.411,3.119,1.875,3.763,4.125c0.839,2.936,0.389,7.198-1.893,10.432c1.439,1.045,3.329,1.798,5.861,1.715    c2.274-0.073,3.839-0.824,4.782-2.296c3.098-4.83-1.338-15.507-1.383-15.614c-0.215-0.51,0.025-1.097,0.534-1.312    c0.512-0.215,1.097,0.025,1.312,0.534c0.201,0.477,4.887,11.756,1.224,17.472c-1.308,2.041-3.463,3.123-6.407,3.217    c-2.687,0.099-5.183-0.684-7.222-2.194c-2.024,1.965-5.658,3.892-11.607,2.161c-1.854-0.538-3.546-1.232-5.073-2.039    c-1.59,3.242-4.664,5.691-9.796,5.803c-3.819,0.075-7.181-0.74-9.988-2.084c-0.082,0.4-0.176,0.795-0.28,1.184    c-1.492,5.588-4.854,9.312-9.469,10.486c-0.35,0.09-0.7,0.17-1.046,0.241c0.158,1.235,0.108,2.498-0.223,3.753    c-0.733,2.795-3.199,6.493-10.768,8.24c-1.967,0.454-3.784,0.742-5.454,0.889c0.182,1.47,0.227,2.983,0.139,4.473    c-0.321,5.322-2.552,11.451-7.686,13.295c1.046,7.001-1.183,15.17-5.474,18.65c-1.525,1.237-3.246,1.856-5.069,1.856    C137.245,116.384,135.424,115.828,133.592,114.717z M146.755,92.958c-0.992-2.829-3.131-6.207-7.692-6.242    c-4.516-0.028-6.51,0.778-6.952,1.548c-0.057,0.102-0.237,0.414,0.164,1.082c1.308,2.193,7.033,5.298,14.179,5.076    c0.246-0.006,0.487-0.023,0.724-0.051C147.057,93.889,146.916,93.416,146.755,92.958z M148.793,68.935    c-2.059-0.299-3.667,0.14-4.301,1.185c-0.465,0.768-0.325,1.803,0.374,2.77c1.275,1.762,4.412,3.337,9.553,3.337    c0.09,0,0.18-0.001,0.27-0.002C153.802,72.457,151.84,69.384,148.793,68.935z M166.795,57.188    c-2.744-2.508-5.746-3.599-7.836-2.847c-1.868,0.673-2.595,1.729-2.163,3.138c0.884,2.887,6.71,6.829,14.265,6.094    C170.253,61.142,168.602,58.842,166.795,57.188z M178.553,38.67c-1.762,0.526-1.899,2.126-1.703,3.375    c0.403,2.566,2.499,5.712,5.904,8.041c0.391-4.793-0.749-9.229-2.441-10.874c-0.499-0.484-0.935-0.617-1.287-0.617    C178.844,38.596,178.686,38.631,178.553,38.67z M195.317,34.489c-0.409,2.874,1.969,8.331,7.715,12.157    c0.389-1.499,0.446-2.875,0.438-3.663c-0.059-5.454-2.838-10.612-5.716-10.612C196.336,32.371,195.516,33.084,195.317,34.489z     M218.192,35.834c-1.033,1.323-1.091,4.835,0.618,8.205c0.383,0.754,0.95,1.68,1.752,2.563c1.784-2.676,2.138-6.192,1.469-8.528    c-0.25-0.879-0.882-2.402-2.286-2.724c-0.168-0.039-0.327-0.059-0.473-0.059C218.828,35.291,218.478,35.469,218.192,35.834z"/>
		<path style="fill:#251626;" d="M120.919,42.908c0.307,0,0.61-0.141,0.806-0.407l8.544-11.577c0.329-0.445,0.235-1.072-0.211-1.4    c-0.442-0.327-1.074-0.235-1.4,0.211l-8.544,11.577c-0.329,0.445-0.235,1.072,0.211,1.4    C120.503,42.845,120.712,42.908,120.919,42.908z"/>
		<path style="fill:#251626;" d="M159.745,32.371c0.395,0,0.771-0.237,0.929-0.627c0.207-0.512-0.041-1.096-0.553-1.303    c-0.649-0.261-15.97-6.341-23.349,0.178c-0.415,0.367-0.454,0.999-0.088,1.414c0.366,0.416,1.001,0.454,1.414,0.088    c6.454-5.701,21.125,0.118,21.272,0.178C159.493,32.348,159.62,32.371,159.745,32.371z"/>
		<path style="fill:#251626;" d="M148.645,24.969c0.239,0,0.477-0.084,0.669-0.255c9.323-8.353,29.257-1.508,29.456-1.439    c0.52,0.186,1.091-0.091,1.275-0.613c0.184-0.522-0.092-1.093-0.614-1.276c-0.86-0.303-21.25-7.304-31.455,1.836    c-0.411,0.37-0.446,1.002-0.076,1.414C148.097,24.856,148.371,24.969,148.645,24.969z"/>
		<path style="fill:#251626;" d="M145.16,53.27c0.368,0,0.722-0.203,0.896-0.555c0.246-0.496,0.045-1.096-0.45-1.343    c-0.141-0.07-14.108-7.104-13.586-14.329c0.039-0.551-0.375-1.032-0.927-1.071c-0.54-0.05-1.031,0.373-1.072,0.926    c-0.618,8.56,14.067,15.956,14.693,16.267C144.857,53.237,145.009,53.27,145.16,53.27z"/>
		<path style="fill:#251626;" d="M128.527,71.372c0.229,0,0.458-0.078,0.647-0.238c0.42-0.357,0.473-0.989,0.117-1.411    c-0.092-0.108-9.053-10.926-4.531-24.04c0.18-0.523-0.098-1.093-0.62-1.273c-0.522-0.179-1.093,0.098-1.273,0.62    c-4.901,14.215,4.494,25.515,4.897,25.989C127.961,71.252,128.243,71.372,128.527,71.372z"/>
	</g>
</g>















</svg>
