<?xml version="1.0" encoding="UTF-8"?>
<!-- Generator: Adobe Illustrator 25.1.0, SVG Export Plug-In . SVG Version: 6.00 Build 0)  -->
<svg xmlns="http://www.w3.org/2000/svg" xmlns:xlink="http://www.w3.org/1999/xlink" version="1.1" id="Capa_1" x="0px" y="0px" viewBox="0 0 500 500" style="enable-background:new 0 0 500 500;" xml:space="preserve" width="512" height="512">
<g>
	<g>
		<g>
			<path style="fill:#3D9C91;" d="M420.226,351.121c0,0,23.028,12.077,28.504-18.166     C448.73,332.955,419.118,324.765,420.226,351.121z"/>
			<path style="fill:#757A91;" d="M407.562,367.265c0,0,10.621,23.735,33.633,3.362     C441.195,370.627,422.997,345.873,407.562,367.265z"/>
			<path style="fill:#3D9C91;" d="M405.938,366.57c0,0,18.638-18.132-8.403-32.739C397.535,333.831,380.544,359.429,405.938,366.57z     "/>
			<path style="fill:#251426;" d="M394.837,408.05c0.514,0,0.944-0.401,0.972-0.919c0.027-0.449,2.932-45.055,35.2-61.289     c0.48-0.242,0.675-0.828,0.433-1.308c-0.241-0.482-0.827-0.676-1.308-0.433c-33.284,16.746-36.245,62.46-36.269,62.919     c-0.03,0.538,0.381,0.997,0.917,1.028C394.801,408.049,394.82,408.05,394.837,408.05z"/>
			<path style="fill:#251426;" d="M421.197,368.98c1.821,0,3.229-0.091,3.751-0.335c0.488-0.227,0.698-0.808,0.471-1.295     c-0.227-0.485-0.801-0.694-1.287-0.475c-1.057,0.399-8.767,0.049-15.856-0.53l-6.323-18.218c-0.179-0.509-0.733-0.776-1.241-0.6     c-0.508,0.176-0.776,0.732-0.601,1.24l6.533,18.818c0.128,0.363,0.457,0.619,0.839,0.651     C410.058,368.451,416.82,368.98,421.197,368.98z"/>
			<path style="fill:#3D9C91;" d="M397.5,394.415c0,0,18.002,18.764,32.797-8.175C430.297,386.24,404.818,369.072,397.5,394.415z"/>
			<path style="fill:#757A91;" d="M395.736,394.309c0,0,11.433-23.355-18.95-27.989C376.786,366.32,369.422,396.148,395.736,394.309     z"/>
			<path style="fill:#251426;" d="M397.501,395.389c0.084,0,0.167-0.01,0.251-0.032c3.538-0.943,15.188-4.124,16.581-5.504     c0.382-0.379,0.384-0.995,0.006-1.378c-0.377-0.381-0.989-0.384-1.372-0.011c-0.859,0.73-8.237,3-15.104,4.846l-12.097-15.018     c-0.339-0.421-0.955-0.485-1.37-0.147c-0.419,0.337-0.485,0.951-0.148,1.369l12.494,15.512     C396.93,395.259,397.21,395.389,397.501,395.389z"/>
		</g>
		<g>
			<path style="fill:#757A91;" d="M358.522,351.826c0,0-25.377,5.672-22.799-24.954     C335.723,326.872,366.446,326.666,358.522,351.826z"/>
			<path style="fill:#3D9C91;" d="M366.551,370.709c0,0-16.428,20.156-33.35-5.501C333.201,365.208,357.211,346.039,366.551,370.709     z"/>
			<path style="fill:#3D9C91;" d="M368.3,370.46c0,0-13.281-22.355,16.629-29.427C384.929,341.033,394.677,370.169,368.3,370.46z"/>
			<path style="fill:#251426;" d="M368.487,413.433c0.451,0,0.856-0.315,0.951-0.774c0.095-0.451,9.124-45.362-18.658-70.188     c-0.403-0.357-1.016-0.324-1.376,0.078c-0.358,0.401-0.324,1.017,0.078,1.376c26.934,24.067,18.14,67.895,18.049,68.334     c-0.11,0.527,0.226,1.043,0.754,1.153C368.352,413.427,368.421,413.433,368.487,413.433z"/>
			<path style="fill:#251426;" d="M366.55,371.683c0.32,0,0.622-0.157,0.805-0.426l11.2-16.471c0.303-0.445,0.188-1.051-0.257-1.354     c-0.441-0.3-1.05-0.188-1.353,0.258l-10.845,15.947c-7.001-1.287-14.546-2.956-15.45-3.614c-0.421-0.31-1.037-0.243-1.362,0.169     c-0.323,0.413-0.285,0.99,0.116,1.328c1.499,1.264,13.37,3.494,16.972,4.147C366.434,371.678,366.493,371.683,366.55,371.683z"/>
			<path style="fill:#757A91;" d="M369.205,399.541c0,0-22.263,13.436-29.542-16.424     C339.663,383.118,368.731,373.167,369.205,399.541z"/>
			<path style="fill:#3D9C91;" d="M370.936,399.898c0,0-4.965-25.524,25.577-22.097     C396.513,377.801,395.867,408.517,370.936,399.898z"/>
			<path style="fill:#251426;" d="M369.205,400.515c0.202,0,0.403-0.063,0.575-0.186l16.099-11.729     c0.434-0.317,0.529-0.927,0.213-1.362c-0.318-0.437-0.929-0.53-1.362-0.214l-15.585,11.357     c-6.158-3.574-12.698-7.689-13.328-8.612c-0.295-0.434-0.896-0.579-1.34-0.301c-0.443,0.28-0.601,0.836-0.339,1.29     c0.988,1.695,11.41,7.797,14.58,9.627C368.87,400.473,369.037,400.515,369.205,400.515z"/>
		</g>
		<polygon style="fill:#DD7C2E;" points="388.546,476.093 408.99,404.604 348.233,396.565 347.426,471.414   "/>
		<path style="fill:#251426;" d="M392.439,437.039c0.032,0,0.065-0.002,0.097-0.005c0.537-0.052,0.927-0.53,0.875-1.066    c-0.245-2.473,1.97-5.99,2.843-7.137c0.327-0.428,0.244-1.04-0.185-1.366c-0.421-0.324-1.035-0.244-1.364,0.185    c-0.148,0.194-3.602,4.776-3.235,8.511C391.522,436.663,391.944,437.039,392.439,437.039z"/>
		<path style="fill:#251426;" d="M393.008,422.285c0.032,0,0.065-0.002,0.097-0.005c0.537-0.052,0.927-0.53,0.875-1.066    c-0.244-2.464,1.97-5.989,2.843-7.139c0.323-0.428,0.242-1.04-0.186-1.365c-0.43-0.325-1.041-0.245-1.364,0.186    c-0.148,0.193-3.6,4.776-3.233,8.511C392.091,421.909,392.513,422.285,393.008,422.285z"/>
		<path style="fill:#251426;" d="M384.633,436.005c0.032,0,0.065-0.002,0.099-0.005c0.535-0.053,0.925-0.53,0.873-1.066    c-0.245-2.464,1.968-5.988,2.841-7.138c0.325-0.428,0.244-1.039-0.185-1.365c-0.428-0.325-1.041-0.243-1.364,0.185    c-0.148,0.194-3.602,4.776-3.231,8.511C383.716,435.63,384.139,436.005,384.633,436.005z"/>
		<path style="fill:#251426;" d="M381.176,424.832c0.032,0,0.065-0.002,0.097-0.005c0.537-0.052,0.927-0.53,0.875-1.066    c-0.245-2.473,1.97-5.99,2.843-7.137c0.327-0.428,0.244-1.04-0.185-1.366c-0.422-0.323-1.037-0.245-1.364,0.185    c-0.148,0.194-3.602,4.776-3.235,8.511C380.259,424.456,380.681,424.832,381.176,424.832z"/>
		<path style="fill:#251426;" d="M386.007,452.236c0.032,0,0.065-0.002,0.097-0.005c0.537-0.052,0.927-0.53,0.875-1.066    c-0.245-2.473,1.968-5.99,2.841-7.138c0.327-0.428,0.244-1.039-0.185-1.365c-0.422-0.324-1.039-0.245-1.364,0.186    c-0.148,0.193-3.6,4.775-3.233,8.51C385.09,451.86,385.513,452.236,386.007,452.236z"/>
		<path style="fill:#251426;" d="M375.043,445.075c0.032,0,0.065-0.002,0.097-0.005c0.537-0.052,0.927-0.53,0.875-1.066    c-0.245-2.473,1.97-5.99,2.843-7.137c0.327-0.428,0.244-1.04-0.185-1.366c-0.422-0.323-1.035-0.245-1.364,0.185    c-0.148,0.194-3.602,4.776-3.235,8.511C374.126,444.699,374.548,445.075,375.043,445.075z"/>
		<path style="fill:#251426;" d="M378.213,455.318c0.032,0,0.065-0.002,0.097-0.005c0.537-0.052,0.927-0.53,0.875-1.066    c-0.245-2.473,1.969-5.99,2.843-7.137c0.327-0.428,0.244-1.04-0.185-1.366c-0.422-0.323-1.037-0.245-1.364,0.185    c-0.148,0.194-3.602,4.776-3.235,8.511C377.296,454.942,377.718,455.318,378.213,455.318z"/>
		<path style="fill:#251426;" d="M382.534,470.39c0.032,0,0.065-0.002,0.097-0.004c0.537-0.053,0.927-0.531,0.875-1.066    c-0.245-2.474,1.968-5.991,2.841-7.139c0.327-0.428,0.244-1.039-0.185-1.365c-0.422-0.323-1.039-0.245-1.364,0.186    c-0.148,0.193-3.6,4.775-3.233,8.509C381.617,470.015,382.04,470.39,382.534,470.39z"/>
		<path style="fill:#251426;" d="M373.928,467.7c0.032,0,0.065-0.002,0.097-0.005c0.537-0.052,0.927-0.53,0.875-1.066    c-0.245-2.473,1.969-5.99,2.843-7.137c0.327-0.428,0.244-1.04-0.185-1.366c-0.422-0.324-1.035-0.244-1.364,0.185    c-0.148,0.194-3.602,4.776-3.235,8.511C373.01,467.324,373.433,467.7,373.928,467.7z"/>
	</g>
	<g>
		<g>
			<path style="fill:#D43F16;" d="M209.778,85.815c0,0,25.803-5.824,13.638-30.189c-12.164-24.365-26.171-12.201-21.748-7.409     c4.423,4.792,10.411-18.696-8.757-27.543s-27.078,6.163-14.505,9.481c12.573,3.317,8.309-24.922-14.704-28.608     s-39.621,11.284-27.367,18.656s-2.122-18.799-21.658-11.795s-24.205,35.386-7.311,32.806c16.894-2.58-9.201-26.54-24.683-12.901     s-13.346,29.857-2.656,32.437s4.967-19.298-14.938-7.134s-3.492,43.994,6.46,37.728c9.952-6.266,1.344-18.799-11.492-8.109     s-9.15,38.313,5.963,37.587s14.744-22.287,5.898-16.114c-8.847,6.173-7.148,30.584,4.792,32.562s10.69-16.437,2.58-13.857     s0.492,24.785,20.335,17.553"/>
			<path style="fill:#251626;" d="M80.831,139.313c-0.371-0.321-0.729-0.657-1.068-1.006c-0.936,0.132-2.002,0.126-3.214-0.077     c-5.056-0.837-8.873-5.374-10.474-12.446c-0.285-1.265-0.489-2.604-0.605-3.974c-0.008,0-0.015,0-0.025,0     c-5.473-0.001-9.967-3.528-12.395-9.767c-3.284-8.436-2.232-20.843,4.879-28.165c-1.867-3.697-3.069-8.08-3.195-12.341     c-0.236-8.068,3.26-14.727,9.846-18.753c2.207-1.348,4.213-2.272,6.028-2.874c-0.341-6.085,2.474-14.438,11.431-22.329     c4.807-4.236,10.55-5.012,15.752-4.019c2.761-6.715,8.595-13.218,16.555-16.072c7.014-2.514,13.501-0.919,18.411,2.005     c4.264-6.389,16.721-11.215,31.097-8.91c11.579,1.854,18.418,9.63,21.105,16.577c2.381,0.353,5.159,1.15,8.359,2.627     c9.861,4.552,13.562,13.11,13.809,20.158c3.528-0.122,10.434,1.773,17.158,15.244c3.789,7.589,4.38,14.239,1.758,19.767     c-4.297,9.06-15.575,11.698-16.053,11.807c-0.529,0.115-1.048-0.212-1.165-0.736c-0.12-0.524,0.209-1.046,0.735-1.165     c0.108-0.024,10.827-2.529,14.723-10.74c2.352-4.96,1.766-11.037-1.741-18.063c-6.321-12.662-12.571-14.169-15.179-14.169     c-0.089-0.001-0.171,0.004-0.257,0.005c-0.226,4.004-1.583,7.112-3.42,7.789c-0.561,0.206-1.652,0.37-2.736-0.808     c-1.144-1.238-1.406-2.982-0.702-4.663c0.689-1.651,2.424-3.349,4.936-3.997c-0.16-6.481-3.534-14.435-12.685-18.659     c-2.5-1.154-4.788-1.883-6.841-2.28c1.203,4.362,0.761,8.275-1.227,10.416c-1.043,1.122-2.98,2.269-6.276,1.401     c-3.699-0.976-6.141-3.051-6.696-5.694c-0.459-2.185,0.474-4.451,2.495-6.063c1.01-0.805,3.874-2.61,8.809-2.39     c-2.715-6.183-8.961-12.798-19.217-14.441c-14.51-2.321-25.579,2.889-29.139,8.057c2.651,1.869,4.725,4.08,6.011,6.078     c1.538,2.383,1.846,4.252,0.868,5.261c-1.479,1.526-4.47-0.275-5.454-0.867c-3.962-2.382-5.477-5.823-4.156-9.439     c0.049-0.13,0.099-0.261,0.154-0.391c-4.548-2.723-10.493-4.152-16.825-1.882c-7.733,2.772-12.835,8.748-15.303,14.688     c2.038,0.568,3.958,1.391,5.665,2.358c5.577,3.158,9.024,7.799,8.38,11.288c-0.306,1.675-1.638,3.816-6.236,4.518     c-5.737,0.876-9.787-1.548-11.079-6.658c-0.759-2.994-0.487-6.531,0.674-10.098c-4.609-0.8-9.604-0.054-13.781,3.622     c-8.234,7.255-10.961,14.799-10.795,20.329c6.373-1.443,9.988,1.234,11.162,2.35c2.445,2.325,3.302,5.698,2.036,8.02     c-0.489,0.899-2.044,2.892-5.929,1.955c-4.432-1.069-7.631-4.338-8.778-8.966c-0.067-0.268-0.126-0.544-0.177-0.826     c-1.68,0.591-3.442,1.44-5.248,2.543c-7.644,4.671-9.065,11.841-8.913,17.033c0.118,3.996,1.195,7.818,2.744,11.01     c0.002-0.001,0.004-0.003,0.006-0.005c4.753-3.956,9.619-5.33,13.341-3.768c2.341,0.981,3.859,3.023,4.061,5.463     c0.247,3.011-1.49,5.923-4.767,7.987c-2.048,1.288-4.422,1.284-6.862-0.016c-2.356-1.256-4.531-3.576-6.283-6.477     c-6.106,6.764-6.98,18.155-4.057,25.662c1.25,3.215,4.257,8.495,10.504,8.525c-0.131-6.329,1.652-12.926,5.99-15.953     c2.847-1.987,4.725-1.231,5.593-0.607c2.032,1.466,2.668,5.126,1.547,8.901c-0.601,2.03-3.128,8.446-11.082,9.474     c0.105,1.264,0.293,2.502,0.559,3.678c1.416,6.26,4.656,10.252,8.892,10.954c0.466,0.077,0.904,0.12,1.317,0.133     c-2.266-3.101-3.357-6.774-2.742-9.777c0.43-2.104,1.692-3.588,3.551-4.18c2.232-0.711,4.339-0.097,5.762,1.687     c2.141,2.677,2.346,7.284,0.466,10.488c-0.561,0.957-1.581,2.239-3.294,3.025c0.057,0.051,0.116,0.102,0.175,0.153     c2.58,2.225,8.247,5.473,17.189,2.213c0.508-0.181,1.064,0.077,1.248,0.581c0.185,0.506-0.076,1.065-0.582,1.249     c-2.963,1.08-5.608,1.506-7.937,1.506C86.586,143.387,82.864,141.065,80.831,139.313z M79.585,124.342     c-1.482,0.471-2.03,1.735-2.232,2.714c-0.485,2.377,0.462,6.02,3.088,9.109c1.578-0.484,2.533-1.519,3.102-2.491     c1.448-2.47,1.307-6.264-0.306-8.286c-0.666-0.832-1.48-1.25-2.434-1.25C80.42,124.137,80.013,124.206,79.585,124.342z      M72.476,105.507c-3.642,2.54-5.252,8.435-5.157,14.215c6.677-0.955,8.805-6.355,9.315-8.074c0.86-2.898,0.508-5.807-0.82-6.766     c-0.304-0.219-0.645-0.309-0.997-0.309C74.019,104.572,73.151,105.035,72.476,105.507z M60.682,83.983     c-0.107,0.088-0.211,0.178-0.316,0.268c1.705,2.919,3.783,5.128,5.756,6.181c1.813,0.969,3.465,0.997,4.908,0.087     c2.641-1.663,4.049-3.914,3.863-6.178c-0.141-1.701-1.214-3.131-2.871-3.826c-0.518-0.218-1.37-0.47-2.525-0.47     C67.456,80.045,64.465,80.832,60.682,83.983z M72.723,51.342c0.053,0.316,0.118,0.622,0.19,0.92     c0.967,3.899,3.642,6.648,7.343,7.541c1.834,0.446,3.17,0.09,3.762-0.994c0.721-1.323,0.295-3.809-1.669-5.675     c-1.576-1.5-3.675-2.244-6.122-2.244C75.125,50.89,73.951,51.041,72.723,51.342z M202.046,44.966     c-0.238,0.572-0.512,1.669,0.337,2.59c0.369,0.398,0.552,0.33,0.632,0.301c0.725-0.267,1.838-2.211,2.114-5.59     C203.561,42.821,202.49,43.908,202.046,44.966z M98.321,35.039c1.031,4.08,4.198,5.926,8.898,5.211     c1.911-0.292,4.263-1.04,4.613-2.945c0.48-2.6-2.714-6.573-7.423-9.24c-1.621-0.917-3.448-1.695-5.385-2.219     C97.916,29.24,97.682,32.511,98.321,35.039z M175.172,20.864c-1.456,1.16-2.112,2.668-1.804,4.137     c0.4,1.895,2.327,3.431,5.288,4.212c1.897,0.498,3.364,0.217,4.348-0.844c1.621-1.745,1.821-5.403,0.533-9.394     C179.691,18.621,176.856,19.522,175.172,20.864z M139.873,20.566c0.177-0.363-0.329-2.272-2.637-4.89     c-1.039-1.177-2.299-2.335-3.741-3.375c-0.974,2.721,0.181,5.164,3.343,7.066c2.175,1.309,2.934,1.201,3.026,1.196     C139.869,20.564,139.873,20.564,139.873,20.566z"/>
		</g>
		<polygon style="fill:#DE8389;" points="215.766,312.733 264.908,343.866 315.169,327.291 308.701,321.284 275.3,327.291     237.426,282.805   "/>
		<path style="fill:#F7C67C;" d="M196.612,249.336c0,0,18.901-4.552,47.854,36.525l-28.463,30.562l-28.937-27.031L196.612,249.336z"/>
		<path style="fill:#757A91;" d="M116.739,366.586c0,0-0.683,44.188,25.272,39.034L116.739,366.586z"/>
		<path style="fill:#251426;" d="M257.484,463.096l-7.401,34.619l9.367,1.691l-1.089-10.898c0,0,1.497,15.209,26.623,10.633    c0,0-31.046-15.822-10.053-34.075L257.484,463.096z"/>
		<path style="fill:#251426;" d="M93.237,459.975l-32.57-13.872l-3.448,8.872l10.905,1.011c0,0-15.215-1.434-15.519,24.104    c0,0,21.456-27.456,35.367-3.365L93.237,459.975z"/>
		<path style="fill:#757A91;" d="M250.08,282.803"/>
		<g>
			<path style="fill:#C083AF;" d="M277.805,279.629c0,0-13.51-2.933-16.001-3.343c-31.624-5.207-34.092,45.377,0.365,45.271     l1.247-5.995c0,0-16.418-7.014-12.277-23.72c4.141-16.707,23.809,2.39,23.809,2.39L277.805,279.629z"/>
			<polygon style="fill:#C083AF;" points="280.166,253.071 252.737,346.903 318.463,348.459 314.483,258.926    "/>
			<polygon style="fill:#C083AF;" points="309.595,294.284 349.235,275.421 363.26,285.499 305.53,314.543    "/>
		</g>
		<polygon style="fill:#757A91;" points="172.36,361.688 180.846,491.677 78.342,475.925 84.013,438.859 155.155,460.605     116.739,366.586   "/>
		<polygon style="fill:#757A91;" points="172.36,361.688 307.88,369.207 284.945,480.01 242.991,474.452 278.727,389.896     166.971,403.062   "/>
		<path style="fill:#F7C67C;" d="M212.363,363.668l-95.625,2.919c0,0-0.626-113.53,6.936-114.421    c76.293-8.989,96.699,7.534,96.699,7.534L212.363,363.668z"/>
		<path style="fill:#EFA880;" d="M180.422,212.206v33.628l16.19,3.503c0,0,4.072,23.82-18.614,27.323    c-22.685,3.503-33.141-32.227-33.141-32.227l21.665,0.121l-4.904-28.845L180.422,212.206z"/>
		<path style="fill:#EFA880;" d="M101.671,101.528c0,0,33.995-54.804,86.227-39.699c39.079,11.301,53.056,137.805-7.05,144.084    C138.242,210.364,88.924,131.609,101.671,101.528z"/>
		<path style="fill:#D43F16;" d="M101.671,101.528c0,0,22.401,79.489,43.797,82.611c38.399,5.603-19.251-30.078,30.466-38.23    c31.88-5.227,9.701,27.473,35.041,14.77c19.058-9.554-15.708-93.161-19.389-97.363c-3.682-4.202,37.596,9.106,32.965,67.406    c-1.553,19.554,46.355,21.315,18.26,57.007c-49.876,63.363-144.809,37.354-129.529,4.942    C134.303,148.082,59.063,161.48,101.671,101.528z"/>
		<path style="fill:#251626;" d="M180.816,143.115c2.913,0,5.625-0.039,7.115-0.158c0.605-0.049,1.073-0.379,1.284-0.906    c1.22-3.046-12.03-18.532-20.036-27.493c-0.358-0.404-0.974-0.436-1.376-0.078c-0.402,0.359-0.436,0.975-0.078,1.376    c9.301,10.411,18.839,22.29,19.609,25.189c-4.618,0.282-18.1-0.015-18.239-0.018c-0.565-0.011-0.984,0.416-0.995,0.952    c-0.011,0.539,0.415,0.984,0.953,0.996C169.44,142.983,175.467,143.115,180.816,143.115z"/>
		<path style="fill:#251626;" d="M176.058,179.59c0.457,0,0.91-0.123,1.342-0.366c5.429-3.067,10.099-22.041,10.614-24.194    c0.126-0.523-0.198-1.048-0.721-1.174c-0.529-0.126-1.05,0.199-1.174,0.721c-1.345,5.622-5.703,20.706-9.678,22.95    c-0.247,0.14-0.464,0.15-0.736,0.027c-3.005-1.382-6.508-13.963-8.011-21.569c-0.103-0.529-0.622-0.874-1.144-0.768    c-0.529,0.105-0.872,0.617-0.767,1.145c0.417,2.114,4.219,20.715,9.107,22.962C175.276,179.5,175.67,179.59,176.058,179.59z"/>
		<path style="fill:#251626;" d="M145.966,129.913c0.164,0,0.325-0.016,0.487-0.051c4.417-0.951,2.36-13.518,1.625-17.347    c-0.101-0.529-0.603-0.874-1.142-0.774c-0.527,0.102-0.873,0.613-0.773,1.141c1.311,6.835,1.585,14.708-0.122,15.075    c-1.813,0.372-6.017-6.559-8.807-13.304c-0.206-0.498-0.774-0.735-1.273-0.528c-0.497,0.206-0.733,0.775-0.527,1.272    C136.88,118.888,141.776,129.913,145.966,129.913z"/>
		<path style="fill:#251626;" d="M190.661,119.37c0.169,0,0.335-0.017,0.495-0.051c4.415-0.952,2.36-13.518,1.625-17.347    c-0.101-0.528-0.622-0.877-1.14-0.774c-0.529,0.102-0.875,0.613-0.774,1.141c1.311,6.835,1.583,14.707-0.122,15.075    c-1.95,0.406-7.577-6.342-11.669-12.85c-0.287-0.457-0.894-0.589-1.342-0.306c-0.457,0.286-0.594,0.888-0.306,1.343    C179.51,108.914,186.423,119.37,190.661,119.37z"/>
		<circle style="fill:#EFA880;" cx="95.261" cy="149.375" r="12.103"/>
		<circle style="fill:#EFA880;" cx="227.521" cy="104.707" r="11.288"/>
		<path style="fill:#251626;" d="M100.742,155.277c0.059,0,0.118-0.005,0.177-0.016c0.531-0.097,0.881-0.604,0.784-1.134    c-0.67-3.645-2.215-6.062-4.596-7.184c-4.006-1.891-8.784,0.722-8.985,0.833c-0.47,0.262-0.637,0.853-0.377,1.323    c0.259,0.471,0.856,0.641,1.323,0.38c0.04-0.022,4.122-2.233,7.216-0.771c1.775,0.84,2.953,2.782,3.501,5.771    C99.872,154.949,100.281,155.277,100.742,155.277z"/>
		<path style="fill:#251626;" d="M227.766,113.94c0.171,0,0.344-0.045,0.5-0.139c0.462-0.276,0.613-0.874,0.335-1.336    c-2.192-3.658-2.868-6.613-1.954-8.543c0.963-2.032,3.395-2.411,3.42-2.415c0.533-0.078,0.902-0.573,0.824-1.106    c-0.08-0.533-0.582-0.905-1.106-0.822c-0.143,0.021-3.494,0.544-4.898,3.508c-1.224,2.583-0.537,6.075,2.044,10.378    C227.113,113.772,227.435,113.94,227.766,113.94z"/>
		<circle style="fill:#EA7C71;" cx="135.311" cy="149.004" r="11.538"/>
		<circle style="fill:#EA7C71;" cx="199.967" cy="129.426" r="11.538"/>
		<path style="fill:#251626;" d="M157.307,214.675c-2.086,1.892-5.545,3.717-11.284,4.654c-11.37,1.857-17.998-5.534-20.403-13.069    c-0.002-0.003-0.002-0.005-0.002-0.008c-1.675,0.512-3.579,0.512-5.629-0.044c-4.339-1.174-6.877-5.083-7.149-11.005    c-0.137-2.981,0.31-6.201,1.14-9.152c-3.726-0.598-5.265-2.99-5.888-5.134c-0.919-3.18-0.23-7.421,1.088-11.203    c-1.342-0.384-2.396-1.133-3.145-2.24c-2.74-4.047-0.116-11.451-0.004-11.765c0.185-0.506,0.748-0.767,1.246-0.585    c0.506,0.182,0.769,0.74,0.588,1.246c-0.676,1.877-2.03,7.337-0.215,10.013c0.514,0.757,1.248,1.254,2.23,1.5    c1.469-3.518,3.385-6.357,4.824-7.084c1.155-0.583,2.304-0.467,3.159,0.321c1.163,1.075,1.442,3.12,0.681,4.972    c-0.508,1.235-2.243,4.099-7.376,3.916c-0.006,0-0.011,0-0.015,0c-1.264,3.487-2.025,7.48-1.189,10.366    c0.647,2.234,2.164,3.489,4.607,3.796c1.461-4.162,3.663-7.493,5.956-8.346c2.213-0.823,4.757-0.331,6.337,1.225    c1.178,1.16,1.579,2.699,1.075,4.12c-0.54,1.52-2.632,4.185-10.578,4.947c-0.483,0.047-0.942,0.07-1.378,0.075    c-0.837,2.813-1.332,5.972-1.197,8.921c0.162,3.542,1.286,8.016,5.713,9.215c1.893,0.51,3.404,0.427,4.603,0.04    c-1.153-5.063-0.301-9.502,2.211-10.734c1.34-0.656,2.594-0.492,3.448,0.449c1.545,1.694,1.338,5.471-0.462,8.422    c-0.774,1.268-1.753,2.255-2.891,2.946c0.021,0.072,0.044,0.145,0.069,0.217c2.158,6.76,8.082,13.399,18.234,11.737    c5.606-0.914,8.765-2.669,10.544-4.404c-0.647-1.152-1.134-2.29-1.473-3.327c-1.201-3.688-0.845-6.526,0.904-7.23    c0.951-0.382,2.021-0.133,2.929,0.691c1.397,1.271,2.481,4.055,1.558,7.164c-0.244,0.821-0.689,1.84-1.505,2.906    c2.864,4.277,8.259,8.232,16.692,6.108c4.771-1.201,8.262-3.918,10.633-7.04c-0.813-0.323-1.479-0.69-2.011-1.045    c-2.765-1.841-4.291-4.855-4.086-8.064c0.202-3.165,2.048-5.909,4.936-7.339c2.493-1.231,4.116-0.638,5.041,0.078    c1.884,1.459,2.537,4.843,1.703,8.833c-0.421,2.01-1.235,4.226-2.483,6.379c3.374,0.554,8.519,0.044,16.068-3.695    c7.79-3.856,11.267-7.713,12.753-10.737c-3.225-0.375-5.827-1.772-6.944-3.831c-0.97-1.793-0.71-3.888,0.733-5.897    c1.052-1.464,2.704-2.068,4.426-1.601c2.479,0.664,4.424,3.272,4.731,6.342c0.074,0.755,0.07,1.819-0.225,3.107    c2.752-0.19,10.527-1.603,14.671-11.189c1.014-2.346,1.734-4.412,2.213-6.213c-2.068-0.523-3.952-1.441-5.34-2.544    c-2.658-2.113-3.334-4.7-1.76-6.752c1.928-2.514,4.929-3.4,7.119-2.107c1.056,0.619,3.642,2.897,2.335,9.841    c3.058,0.312,6.249-0.451,8.337-2.986c2.683-3.258,1.741-9.831-2.291-15.985c-2.08-3.173-5.242-6.426-8.875-8.027    c-0.091,1.345-0.573,2.489-1.581,3.276c-2.738,2.135-6.156,1.886-8.173,0.748c-1.41-0.794-2.167-1.992-2.025-3.207    c0.122-1.03,0.919-2.444,4.034-3.336c1.882-0.538,3.73-0.567,5.509-0.219c-0.5-1.953-1.587-4.32-3.184-6.774    c-0.938-1.441-1.949-2.743-2.961-3.848c-1.111,0.99-2.578,1.478-4.257,1.401c-2.561-0.14-4.875-1.642-5.269-3.42    c-0.137-0.616-0.217-2.173,1.981-3.346c2.091-1.12,4.757,0.073,7.313,2.367c0.044-0.107,0.086-0.217,0.124-0.332    c2.141-6.308-6.889-11.723-6.98-11.777c-0.462-0.273-0.617-0.87-0.344-1.333c0.272-0.463,0.87-0.62,1.332-0.346    c0.43,0.253,10.489,6.274,7.838,14.082c-0.139,0.41-0.308,0.794-0.504,1.148c1.201,1.29,2.348,2.783,3.362,4.341    c1.692,2.601,3.185,5.715,3.652,8.43c4.413,1.623,8.215,5.406,10.637,9.105c3.802,5.8,5.945,13.705,2.165,18.292    c-2.672,3.241-6.595,4.115-10.274,3.671c-0.495,1.899-1.25,4.094-2.344,6.625c-3.214,7.434-9.452,12.062-16.685,12.381    c-0.141,0.006-0.28,0.01-0.419,0.013c-1.479,3.51-5.178,8.035-13.967,12.386c-8.517,4.217-14.314,4.531-18.06,3.704    c-2.609,3.676-6.582,6.933-12.129,8.33c-1.823,0.459-3.517,0.665-5.09,0.665C164.325,221.866,159.941,218.43,157.307,214.675z     M156.413,204.251c-0.327,0.132-0.755,1.813,0.223,4.819c0.234,0.718,0.548,1.491,0.948,2.281    c0.358-0.587,0.582-1.136,0.721-1.606c0.653-2.202-0.01-4.267-1.003-5.169c-0.158-0.146-0.44-0.358-0.712-0.358    C156.531,204.218,156.47,204.228,156.413,204.251z M185.697,197.573c-2.257,1.117-3.697,3.254-3.855,5.716    c-0.162,2.505,1.043,4.867,3.222,6.318c0.527,0.351,1.206,0.714,2.063,1.013c1.296-2.106,2.129-4.302,2.542-6.281    c0.66-3.156,0.263-5.926-0.988-6.893c-0.327-0.253-0.717-0.38-1.172-0.38C186.985,197.066,186.38,197.234,185.697,197.573z     M128.174,195.383c-1.383,0.678-2.086,3.969-1.275,8.05c0.807-0.61,1.368-1.34,1.737-1.943c1.528-2.504,1.427-5.282,0.687-6.094    c-0.069-0.074-0.192-0.209-0.464-0.209C128.691,195.187,128.471,195.237,128.174,195.383z M213.287,188.092    c-1.012,1.411-1.214,2.7-0.601,3.833c0.856,1.582,3.149,2.656,5.954,2.871c0.335-1.22,0.35-2.217,0.282-2.908    c-0.253-2.542-1.85-4.265-3.296-4.653c-0.192-0.051-0.407-0.088-0.636-0.088C214.436,187.149,213.81,187.363,213.287,188.092z     M121.209,177.652c-1.553,0.578-3.286,3.17-4.563,6.568c0.173-0.011,0.35-0.025,0.529-0.042c7.328-0.702,8.687-2.979,8.928-3.66    c0.341-0.955-0.234-1.713-0.605-2.079c-0.613-0.603-1.614-1.068-2.759-1.068C122.25,177.372,121.732,177.457,121.209,177.652z     M231.966,169.291c-1.25,1.631,0.582,3.37,1.427,4.042c1.201,0.954,2.811,1.726,4.563,2.167c0.866-4.518-0.008-7.003-1.402-7.823    c-0.375-0.22-0.795-0.324-1.235-0.324C234.184,167.353,232.917,168.051,231.966,169.291z M115.584,162.54    c-0.946,0.478-2.411,2.684-3.654,5.523c2.396-0.084,4.131-1.052,4.812-2.711c0.481-1.169,0.268-2.364-0.204-2.801    c-0.059-0.055-0.179-0.167-0.411-0.167C115.989,162.384,115.813,162.424,115.584,162.54z M229.836,148.195    c-1.859,0.531-2.58,1.221-2.636,1.689c-0.046,0.396,0.363,0.899,1.045,1.283c1.471,0.828,3.985,0.999,6.019-0.586    c0.601-0.47,0.877-1.311,0.854-2.414C233.414,147.725,231.633,147.68,229.836,148.195z M222.036,131.832    c-0.514,0.276-1.106,0.708-0.995,1.205c0.181,0.816,1.705,1.801,3.473,1.897c0.742,0.047,1.846-0.064,2.774-0.835    C225.163,132.157,223.189,131.22,222.036,131.832z"/>
		<path style="fill:#251626;" d="M187.303,401.954c13.2,0,19.493-14.069,19.558-14.218c0.215-0.493-0.01-1.067-0.502-1.282    c-0.491-0.211-1.068,0.009-1.283,0.502c-0.065,0.144-6.392,14.297-19.52,12.959c-0.529-0.049-1.014,0.334-1.068,0.871    c-0.055,0.536,0.335,1.013,0.87,1.068C186.022,401.922,186.671,401.954,187.303,401.954z"/>
		<path style="fill:#251626;" d="M162.664,480.985c0.478,0,0.896-0.352,0.963-0.841c0.074-0.533-0.299-1.024-0.832-1.098    c-1.418-0.898-6.828-14.254-6.734-17.814c1.994,0.715,8.289,6.262,13.417,11.424c0.379,0.383,0.995,0.383,1.378,0.004    c0.381-0.379,0.382-0.995,0.004-1.378c-4.763-4.794-13.098-12.715-15.629-12.013c-0.525,0.152-0.9,0.56-1.026,1.121    c-0.689,3.052,4.042,15.503,6.546,19.12c0.657,0.946,1.187,1.383,1.777,1.465C162.574,480.981,162.618,480.985,162.664,480.985z"/>
		<path style="fill:#251626;" d="M280.252,390.989c5.062,0,15.703-2.292,17.05-2.587c0.527-0.114,0.86-0.634,0.744-1.16    c-0.114-0.525-0.643-0.855-1.159-0.743c-3.796,0.83-13.815,2.793-17.318,2.529c1.629-2.32,10.085-8.983,18.087-14.637    c0.44-0.31,0.544-0.918,0.234-1.358c-0.314-0.441-0.925-0.539-1.357-0.233c-9.012,6.368-19.649,14.481-19.147,16.965    c0.11,0.546,0.533,0.951,1.132,1.082C278.965,390.946,279.555,390.989,280.252,390.989z"/>
		<path style="fill:#251626;" d="M190.286,401.399c0.386,0,0.754-0.202,0.997-0.561c1.648-2.449,8.108-25.174,0.881-34.835    c-0.325-0.431-0.936-0.519-1.364-0.197c-0.43,0.323-0.518,0.933-0.196,1.363c5.865,7.842,1.713,25.842-0.316,31.221    c-1.25-4.119-3.393-16.833-5.007-28.587c-0.072-0.535-0.575-0.912-1.098-0.833c-0.533,0.072-0.906,0.564-0.832,1.097    c4.217,30.731,5.939,31.131,6.673,31.303C190.113,401.39,190.201,401.399,190.286,401.399z"/>
		<path style="fill:#251626;" d="M131.749,400.207c0.122,0,0.244-0.022,0.363-0.07c6.938-2.781,10.696-9.406,10.866-19.158    c0.127-7.199-1.713-13.489-1.791-13.753c-0.152-0.516-0.7-0.804-1.21-0.657c-0.516,0.153-0.811,0.695-0.658,1.211    c0.072,0.245,7.064,24.538-7.933,30.55c-0.499,0.2-0.74,0.767-0.54,1.266C130.998,399.976,131.363,400.207,131.749,400.207z"/>
		<path style="fill:#251626;" d="M219.621,372.749c0.228,0,0.459-0.007,0.689-0.02c4.377-0.26,8.241-3,11.484-8.144    c0.287-0.455,0.15-1.057-0.304-1.343c-0.451-0.286-1.056-0.153-1.343,0.304c-2.889,4.579-6.234,7.015-9.946,7.238    c-7.06,0.421-13.412-7.255-13.476-7.332c-0.339-0.419-0.953-0.481-1.37-0.143c-0.417,0.34-0.481,0.952-0.143,1.37    C205.487,365.018,211.846,372.749,219.621,372.749z"/>
		<path style="fill:#EFA880;" d="M240.155,287.755c0.751-0.357,26.083-1.112,24.207,4.612c-1.875,5.724-2.96,22.903-5.98,20.049    c-3.02-2.854-24.127,0.317-24.127,0.317S223.713,295.564,240.155,287.755z"/>
		<path style="fill:#EFA880;" d="M325.732,304.379c0,0-12.225-13.566-16.137-10.095c-1.668,1.48,9.616,14.201,9.616,14.201    s-20.82-13.891-18.218-7.72c2.602,6.171,14.08,15.544,14.08,15.544s-14.351-3.681-18.223-3.576    c-6.226,0.169,8.384,10.025,18.192,12.51C321.753,326.943,334.339,315.352,325.732,304.379z"/>
		<path style="fill:#251626;" d="M261.738,306.901c0.226,0,0.453-0.078,0.637-0.237c0.407-0.352,0.451-0.968,0.099-1.375    c-0.068-0.077-6.845-7.775-14.675-3.008c-0.461,0.28-0.605,0.879-0.325,1.339c0.28,0.461,0.881,0.603,1.338,0.326    c6.441-3.918,11.958,2.348,12.19,2.617C261.194,306.787,261.466,306.901,261.738,306.901z"/>
		<path style="fill:#251626;" d="M261.738,297.794c0.422,0,0.811-0.275,0.934-0.7c0.152-0.516-0.143-1.057-0.66-1.209    c-13.273-3.893-15.866,0.007-16.118,0.464c-0.261,0.471-0.089,1.064,0.381,1.323c0.459,0.255,1.031,0.099,1.303-0.345    c0.093-0.121,2.422-2.937,13.885,0.428C261.556,297.782,261.647,297.794,261.738,297.794z"/>
		<path style="fill:#EFA880;" d="M237.426,305.693l-70.687,25.635l-19.888-53.537l-23.079,11.601c0,0,31.508,67.723,41.714,74.673    c10.206,6.95,77.864-52.622,77.864-52.622L237.426,305.693z"/>
		<path style="fill:#F7C67C;" d="M170.876,307.807l-38.544,19.483c0,0-28.159-48.19-28.556-62.089    c-0.734-25.668,41.081-20.769,41.081-20.769L170.876,307.807z"/>
		<path style="fill:#251626;" d="M322.907,312.803c0.166,0,0.331-0.041,0.483-0.128c0.466-0.266,0.63-0.862,0.363-1.329    c-0.915-1.601-3.692-3.466-4.006-3.674c-0.447-0.299-1.052-0.171-1.349,0.275c-0.297,0.448-0.173,1.053,0.274,1.35    c1.037,0.686,2.871,2.11,3.387,3.015C322.241,312.627,322.57,312.803,322.907,312.803z"/>
		<path style="fill:#251626;" d="M316.919,318.999c0.303,0,0.603-0.142,0.794-0.408c0.312-0.438,0.211-1.047-0.226-1.359    c-2.734-1.952-4.698-4.467-4.717-4.493c-0.331-0.425-0.944-0.501-1.366-0.173c-0.426,0.329-0.504,0.94-0.175,1.365    c0.086,0.112,2.15,2.761,5.125,4.886C316.525,318.94,316.723,318.999,316.919,318.999z"/>
		<path style="fill:#251626;" d="M132.332,328.265c0.148,0,0.299-0.034,0.44-0.105l38.545-19.484    c0.232-0.117,0.407-0.322,0.487-0.569c0.08-0.246,0.059-0.515-0.061-0.746l-20.696-40.297c-0.245-0.48-0.835-0.667-1.311-0.422    c-0.478,0.245-0.668,0.833-0.421,1.312l20.247,39.424l-36.924,18.665c-2.221-3.144-11.629-16.831-17.55-31.277    c-0.204-0.5-0.78-0.738-1.271-0.532c-0.499,0.204-0.736,0.773-0.533,1.27c6.81,16.61,18.148,32.205,18.262,32.36    C131.734,328.124,132.029,328.265,132.332,328.265z"/>
		<path style="fill:#251626;" d="M215.766,313.707c0.447,0,0.851-0.309,0.951-0.764c4.455-20.12-2.044-48.196-2.11-48.476    c-0.122-0.522-0.645-0.849-1.17-0.726c-0.523,0.124-0.849,0.648-0.725,1.171c0.065,0.278,6.46,27.928,2.103,47.611    c-0.116,0.525,0.215,1.046,0.74,1.162C215.627,313.699,215.698,313.707,215.766,313.707z"/>
		<path style="fill:#251626;" d="M194.56,328.265c0.413,0,0.797-0.264,0.929-0.679c0.369-1.159,3.473-1.576,5.433-1.494    c0.561,0.033,0.993-0.396,1.014-0.931c0.023-0.538-0.392-0.991-0.931-1.015c-1.068-0.047-6.426-0.127-7.374,2.851    c-0.164,0.513,0.12,1.06,0.634,1.224C194.362,328.251,194.463,328.265,194.56,328.265z"/>
		<path style="fill:#251626;" d="M188.912,337.45c0.413,0,0.797-0.264,0.929-0.679c0.369-1.159,3.446-1.577,5.433-1.493    c0.539,0.019,0.993-0.395,1.014-0.931c0.023-0.538-0.392-0.991-0.931-1.015c-1.066-0.05-6.426-0.127-7.374,2.85    c-0.164,0.513,0.12,1.06,0.634,1.224C188.715,337.436,188.815,337.45,188.912,337.45z"/>
		<path style="fill:#251626;" d="M184.61,332.457c0.413,0,0.797-0.264,0.929-0.679c0.369-1.159,3.442-1.578,5.433-1.493    c0.54,0.027,0.993-0.395,1.014-0.931c0.023-0.538-0.392-0.991-0.931-1.015c-1.069-0.053-6.426-0.127-7.374,2.85    c-0.164,0.513,0.12,1.06,0.634,1.224C184.412,332.443,184.513,332.457,184.61,332.457z"/>
		<path style="fill:#251626;" d="M212.288,319.576c0.413,0,0.797-0.265,0.929-0.679c0.369-1.159,3.446-1.579,5.431-1.493    c0.533,0.006,0.993-0.395,1.014-0.931c0.023-0.538-0.392-0.991-0.931-1.015c-1.066-0.049-6.428-0.127-7.372,2.85    c-0.164,0.513,0.122,1.061,0.634,1.224C212.092,319.562,212.191,319.576,212.288,319.576z"/>
		<path style="fill:#251626;" d="M219.49,321.755c0.413,0,0.797-0.264,0.929-0.679c0.369-1.159,3.439-1.57,5.431-1.493    c0.561,0.034,0.993-0.396,1.014-0.931c0.023-0.538-0.392-0.991-0.931-1.015c-1.069-0.047-6.426-0.127-7.372,2.85    c-0.164,0.513,0.122,1.061,0.634,1.224C219.294,321.741,219.393,321.755,219.49,321.755z"/>
		<path style="fill:#251626;" d="M202.767,332.457c0.413,0,0.797-0.264,0.929-0.679c0.369-1.159,3.442-1.578,5.433-1.493    c0.537,0.027,0.993-0.395,1.014-0.931c0.023-0.538-0.392-0.991-0.931-1.015c-1.064-0.053-6.426-0.127-7.374,2.85    c-0.164,0.513,0.12,1.06,0.634,1.224C202.57,332.443,202.67,332.457,202.767,332.457z"/>
		<path style="fill:#251626;" d="M205.968,326.086c0.413,0,0.797-0.264,0.929-0.679c0.369-1.159,3.471-1.573,5.433-1.494    c0.533,0.005,0.993-0.395,1.014-0.931c0.023-0.538-0.392-0.991-0.931-1.015c-1.066-0.048-6.428-0.127-7.374,2.851    c-0.164,0.513,0.12,1.06,0.634,1.224C205.77,326.072,205.871,326.086,205.968,326.086z"/>
		<path style="fill:#251626;" d="M114.452,280.853c0.127,0,0.257-0.025,0.381-0.078c0.495-0.21,0.727-0.782,0.516-1.277    c-1.033-2.433,0.004-5.2,0.013-5.227c0.192-0.502-0.059-1.066-0.561-1.258c-0.499-0.192-1.066,0.058-1.258,0.561    c-0.055,0.143-1.324,3.537,0.013,6.685C113.714,280.631,114.073,280.853,114.452,280.853z"/>
		<path style="fill:#251626;" d="M116.992,269.128c0.127,0,0.257-0.025,0.381-0.078c0.495-0.21,0.727-0.782,0.516-1.277    c-1.024-2.412,0.004-5.202,0.015-5.23c0.188-0.502-0.065-1.065-0.567-1.255c-0.491-0.189-1.062,0.059-1.254,0.561    c-0.055,0.144-1.324,3.538,0.013,6.685C116.254,268.905,116.614,269.128,116.992,269.128z"/>
		<path style="fill:#251626;" d="M109.504,269.128c0.127,0,0.257-0.025,0.381-0.078c0.495-0.21,0.727-0.782,0.516-1.277    c-1.024-2.412,0.004-5.202,0.015-5.23c0.188-0.502-0.065-1.065-0.567-1.255c-0.491-0.189-1.062,0.059-1.254,0.561    c-0.055,0.144-1.324,3.538,0.013,6.685C108.766,268.905,109.126,269.128,109.504,269.128z"/>
		<path style="fill:#251626;" d="M123.506,277.875c0.127,0,0.257-0.025,0.381-0.078c0.495-0.21,0.727-0.782,0.516-1.277    c-1.033-2.433,0.004-5.2,0.013-5.227c0.192-0.502-0.059-1.066-0.561-1.258c-0.499-0.191-1.064,0.058-1.258,0.561    c-0.055,0.143-1.324,3.538,0.013,6.685C122.768,277.653,123.127,277.875,123.506,277.875z"/>
		<path style="fill:#251626;" d="M118.811,292.566c0.209,0,0.419-0.067,0.596-0.204c0.426-0.329,0.504-0.941,0.175-1.367    c-1.604-2.071-1.317-5.031-1.313-5.061c0.055-0.535-0.331-1.014-0.866-1.071c-0.523-0.059-1.012,0.327-1.071,0.862    c-0.017,0.152-0.384,3.758,1.709,6.463C118.233,292.435,118.52,292.566,118.811,292.566z"/>
		<path style="fill:#251626;" d="M125.578,292.566c0.209,0,0.419-0.067,0.596-0.204c0.426-0.329,0.504-0.941,0.175-1.367    c-1.604-2.071-1.317-5.031-1.313-5.061c0.055-0.535-0.331-1.014-0.866-1.071c-0.521-0.059-1.012,0.327-1.071,0.862    c-0.017,0.152-0.384,3.758,1.709,6.463C125,292.435,125.287,292.566,125.578,292.566z"/>
		<path style="fill:#9CD1C3;" d="M363.26,279.879c0,0,24.258-4.158,28.48,16.941C395.962,317.92,367.905,279.834,363.26,279.879z"/>
		<path style="fill:#9CD1C3;" d="M358.772,273.923c0,0,25.815-20.123,35.237-6.412S365.874,270.674,358.772,273.923z"/>
		<path style="fill:#251626;" d="M95.12,87.256c-2.491-0.365-4.175-1.942-4.744-4.439c-1.319-5.776,3.547-15.605,9.821-19.843    c2.415-1.629,5.046-1.875,7.583-0.747c0.757-4.677,2.679-9.496,5.808-11.921c3.585-2.774,8.613-2.148,12.121-0.637    c0.554,0.238,1.077,0.499,1.564,0.776c1.566-3.229,4.401-6.738,8.611-8.937c5.126-2.676,11.115-1.646,15.179,0.74    c1.678-2.056,4.124-3.753,7.3-4.414c16.69-3.483,23.946,17.271,24.017,17.48c0.173,0.51-0.101,1.062-0.611,1.235    c-0.508,0.167-1.062-0.101-1.235-0.611c-0.268-0.79-6.74-19.312-21.775-16.197c-2.626,0.548-4.662,1.926-6.08,3.602    c1.052,0.826,1.89,1.746,2.436,2.693c1.317,2.287,0.797,4.479-1.391,5.864c-1.987,1.258-3.273,0.915-4.004,0.416    c-1.187-0.817-1.629-2.63-1.182-4.85c0.24-1.194,0.714-2.44,1.416-3.629c-3.53-2.01-8.776-2.9-13.168-0.601    c-3.998,2.087-6.538,5.43-7.876,8.312c1.423,1.136,2.312,2.427,2.434,3.642c0.112,1.124-0.405,2.143-1.458,2.871    c-1.351,0.936-2.299,0.79-2.847,0.5c-0.567-0.298-1.243-1.011-1.241-2.722c0.002-0.99,0.236-2.229,0.715-3.583    c-0.47-0.28-0.995-0.549-1.574-0.797c-3.003-1.29-7.248-1.867-10.158,0.389c-2.87,2.222-4.626,6.963-5.227,11.415    c3.248,2.354,5.541,6.872,4.814,9.499c-0.329,1.186-1.239,1.927-2.495,2.03c-0.919,0.084-2.651-0.186-3.686-2.845    c-0.717-1.847-0.946-4.647-0.67-7.672c-1.616-0.879-3.81-1.321-6.23,0.315c-6.101,4.12-10.055,13.228-9.014,17.795    c0.396,1.731,1.418,2.694,3.126,2.945c0.533,0.078,0.902,0.573,0.824,1.106c-0.072,0.484-0.487,0.833-0.963,0.833    C95.216,87.267,95.168,87.264,95.12,87.256z M110.007,71.239c0.438,1.126,1.001,1.649,1.709,1.611    c0.447-0.038,0.664-0.208,0.776-0.61c0.367-1.33-0.801-4.451-3.149-6.634C109.246,67.834,109.464,69.845,110.007,71.239z     M127.78,55.274c-0.114,1.088,0.107,1.512,0.154,1.557c0.053,0.008,0.339-0.023,0.845-0.373c0.615-0.426,0.653-0.817,0.626-1.075    c-0.051-0.523-0.474-1.209-1.237-1.915C127.963,54.138,127.833,54.751,127.78,55.274z M150.447,47.85    c-0.316,1.57-0.027,2.582,0.377,2.859c0.343,0.238,1.037,0.063,1.857-0.456c1.29-0.816,1.534-1.877,0.746-3.244    c-0.419-0.725-1.056-1.433-1.859-2.081C151.016,45.889,150.641,46.89,150.447,47.85z"/>
		<path style="fill:#251626;" d="M287.566,468.328c0.474,0,0.891-0.347,0.961-0.831c0.08-0.533-0.287-1.029-0.82-1.107    l-39.114-5.821c-0.525-0.069-1.028,0.289-1.106,0.82c-0.08,0.533,0.287,1.029,0.82,1.107l39.114,5.821    C287.469,468.324,287.519,468.328,287.566,468.328z"/>
		<path style="fill:#251626;" d="M95.263,476.346c0.487,0,0.91-0.365,0.967-0.864l3.598-31.296c0.061-0.535-0.323-1.018-0.858-1.079    c-0.495-0.068-1.016,0.32-1.079,0.856l-3.598,31.298c-0.061,0.533,0.323,1.016,0.858,1.079    C95.187,476.344,95.225,476.346,95.263,476.346z"/>
	</g>
</g>















</svg>
