<?xml version="1.0" encoding="UTF-8"?>
<!-- Generator: Adobe Illustrator 25.1.0, SVG Export Plug-In . SVG Version: 6.00 Build 0)  -->
<svg xmlns="http://www.w3.org/2000/svg" xmlns:xlink="http://www.w3.org/1999/xlink" version="1.1" id="Capa_1" x="0px" y="0px" viewBox="0 0 500 500" style="enable-background:new 0 0 500 500;" xml:space="preserve" width="512" height="512">
<g>
	<path style="fill:#F7C67C;" d="M225.902,26.54c0,0-13.964-40.261-74.214-11.052S95.466,132.581,118.36,164.614   s24.871,29.286,10.931,41.127c-36.151,30.71,7.827,42.473,9.645,41.84c1.817-0.634-21.365,3.002-16.629,24.299   c2.505,11.264,46.795,33.434,63.119,41.281s103.419-12.057,127.102-26.883c23.683-14.826,0-38.212,0-38.212   s22.328,2.862,19.373-18.987s-9.673-27.312-8.884-33.392c0.789-6.08,50.908-30.911,37.303-92.563   C342.031,20.243,274.891-35.628,225.902,26.54z"/>
	<path style="fill:#251626;" d="M288.629,279.189c-0.391-0.877-9.499-21.569-3.953-30.779c0.546-0.907,1.21-1.677,1.989-2.304   c-2.165-3.872-3.564-8.141-3.428-12.218c0.171-5.146,2.845-12.024,14.598-15.581c0.509-0.155,1.008-0.296,1.496-0.423   c-0.68-2.852-0.92-5.807-0.555-8.726c0.865-6.915,5.463-16.594,22.462-23.431c0.611-0.243,1.297,0.049,1.54,0.657   c0.245,0.606-0.051,1.297-0.657,1.54c-12.609,5.072-19.869,12.514-20.995,21.527c-0.34,2.729-0.12,5.398,0.479,7.921   c11.187-2.109,15.681,3.335,17.159,5.983c2.412,4.32,2.028,10.114-0.84,12.651c-0.909,0.803-3.414,2.389-7.035-0.264   c-4.45-3.249-8.782-9.031-10.912-15.577c-0.479,0.123-0.964,0.259-1.457,0.407c-8.358,2.53-12.704,7.036-12.915,13.393   c-0.12,3.576,1.138,7.41,3.085,10.928c1.096-0.467,2.338-0.749,3.724-0.844c8.303-0.562,13.181,3.217,14.973,6.941   c1.323,2.75,1.14,5.659-0.465,7.412c-1.513,1.651-4.01,1.987-6.86,0.914c-3.791-1.429-8.638-5.757-12.156-11.157   c-0.46,0.416-0.86,0.904-1.2,1.471c-4.915,8.157,3.996,28.392,4.087,28.595c0.266,0.597-0.002,1.297-0.601,1.563   c-0.155,0.069-0.319,0.102-0.481,0.102C289.258,279.892,288.825,279.631,288.629,279.189z M292.576,246.414   c-0.988,0.067-1.869,0.245-2.646,0.537c3.185,4.885,7.537,8.858,10.97,10.151c1.917,0.719,3.439,0.62,4.276-0.298   c0.932-1.018,0.964-2.942,0.076-4.785c-0.664-1.381-3.358-5.657-11.136-5.657C293.624,246.361,293.111,246.377,292.576,246.414z    M302.265,219.667c2.176,6.455,6.649,11.7,10.021,14.166c1.644,1.203,3.018,1.337,4.068,0.4c1.825-1.612,2.357-6.115,0.342-9.723   c-1.922-3.446-5.541-5.225-10.345-5.225C305.07,219.285,303.706,219.413,302.265,219.667z"/>
	<path style="fill:#EA7C71;" d="M44.867,339.299l46.061-38.936c0,0,40.492,35.76,43.495,38.936   c3.003,3.175-42.811,27.543-56.932,31.705C63.369,375.165,44.867,339.299,44.867,339.299z"/>
	<path style="fill:#E9546A;" d="M157.766,261.172c0,0-37.288,10.707-75.103,46.177c0,0,35.364,29.797,51.759,46.378   c7.6,7.687,47.346-59.524,47.346-59.524L157.766,261.172z"/>
	<path style="fill:#EFA880;" d="M450.607,176.173l-54.958,93.635l-120.758-5.051l22.312,71.378c0,0,126.596-0.446,133.92-7.907   c7.324-7.461,38.052-163.198,38.052-163.198L450.607,176.173z"/>
	<path style="fill:#E9546A;" d="M305.413,428.957c0,0-11.966-161.936-28.471-162.701c-16.505-0.764-113.516-11.889-123.782-3.248   c-10.267,8.641-25.362,161.288-25.362,161.288L305.413,428.957z"/>
	<path style="fill:#EFA880;" d="M224.819,212.289l-9.149,46.98l-30.244,0.556c0,0,5.47,48.004,40.802,46.384   c35.333-1.62,33.274-42.256,33.274-42.256l-26.282-2.779l14.943-38.779L224.819,212.289z"/>
	<path style="fill:#EFA880;" d="M171.328,86.712c0,0,73.005-60.471,111.541-29.494s52.19,166.68-38.58,171.032   C181.809,231.246,149.775,120.061,171.328,86.712z"/>
	<path style="fill:#251626;" d="M266.144,154.368c0.648,0,1.193-0.294,1.522-0.826c2.098-3.391-10.525-24.705-18.236-37.109   c-0.347-0.557-1.08-0.722-1.631-0.382c-0.555,0.345-0.726,1.075-0.382,1.631c8.96,14.411,17.892,30.628,18.209,34.262   c-5.588-0.634-21.664-3.805-21.833-3.837c-0.627-0.13-1.263,0.291-1.39,0.932c-0.127,0.641,0.289,1.263,0.932,1.39   c0.71,0.141,17.475,3.448,22.603,3.929C266.007,154.365,266.077,154.368,266.144,154.368z"/>
	<path style="fill:#251626;" d="M218.91,130.007c0.037,0,0.072-0.002,0.109-0.002c5.486-0.217,5.652-15.692,5.574-20.431   c-0.012-0.652-0.509-1.18-1.205-1.163c-0.652,0.012-1.175,0.55-1.163,1.205c0.141,8.456-1.18,17.938-3.298,18.021   c-0.012,0.002-0.023,0.002-0.032,0.002c-2.255,0-5.81-9.161-7.729-17.771c-0.141-0.636-0.775-1.038-1.413-0.9   c-0.638,0.143-1.041,0.775-0.9,1.413C209.883,115.006,213.639,130.005,218.91,130.007z"/>
	<path style="fill:#251626;" d="M274.636,126.732c0.037,0.002,0.072,0,0.106,0c5.486-0.22,5.655-15.692,5.576-20.431   c-0.012-0.645-0.539-1.163-1.184-1.163c-0.007,0-0.014,0-0.018,0c-0.655,0.012-1.177,0.55-1.166,1.203   c0.139,8.458-1.182,17.94-3.3,18.024c-0.014,0.002-0.025,0.002-0.039,0.002c-2.44,0-7.72-9.226-11.24-17.829   c-0.247-0.606-0.937-0.897-1.545-0.648c-0.606,0.247-0.895,0.939-0.648,1.545C263.038,111.981,269.474,126.732,274.636,126.732z"/>
	<circle style="fill:#EFA880;" cx="153.645" cy="142.656" r="14.71"/>
	<circle style="fill:#EFA880;" cx="321.339" cy="116.844" r="13.719"/>
	<path style="fill:#251626;" d="M159.18,150.887c0.002,0,0.007,0,0.009,0c0.655-0.005,1.18-0.541,1.175-1.193   c-0.037-4.505-1.383-7.722-3.996-9.563c-4.41-3.101-10.676-0.971-10.935-0.883c-0.618,0.215-0.944,0.89-0.729,1.506   c0.213,0.618,0.872,0.946,1.506,0.733c0.051-0.021,5.4-1.82,8.8,0.587c1.95,1.376,2.956,3.948,2.986,7.639   C158,150.364,158.53,150.887,159.18,150.887z"/>
	<path style="fill:#251626;" d="M319.907,127.967c0.141,0,0.284-0.025,0.426-0.079c0.611-0.236,0.914-0.92,0.68-1.531   c-1.857-4.824-2.051-8.497-0.564-10.62c1.552-2.218,4.626-2.174,4.614-2.19c0.636,0.009,1.193-0.507,1.21-1.156   c0.014-0.652-0.497-1.193-1.149-1.212c-0.178-0.009-4.293-0.083-6.596,3.175c-2.008,2.838-1.913,7.16,0.275,12.854   C318.982,127.678,319.43,127.967,319.907,127.967z"/>
	<circle style="fill:#EA7C71;" cx="201.674" cy="150.59" r="14.023"/>
	<circle style="fill:#EA7C71;" cx="285.548" cy="145.412" r="14.023"/>
	<path style="fill:#EFA880;" d="M465.992,148.615c0,0-11.98-47.889-15.385-45.552c-3.405,2.336,7.692,39.916,7.692,39.916   s-18.613-33.821-19.866-28.811c-1.253,5.011,12.173,34.448,12.173,34.448s-20.316-24.427-19.689-20.042   c0.626,4.384,10.647,23.174,10.647,23.174s-18.79-1.253-21.921,8.769c-3.132,10.021,18.163-13.779,23.174,0   c5.011,13.779-17.537,1.253-17.537,6.89s23.094,8.142,25.326,8.769C452.839,176.799,479.08,174.493,465.992,148.615z"/>
	<path style="fill:#ACAAA7;" d="M400.854,195.589c0,0,27.073-9.338,24.184-34.732c0,0-22.729,6.548-27.841,24.711   c0,0,4.909-31.316-22.649-33.195c0,0,8.768,33.483,18.79,39.915c0,0-30.355,15.433-36.647,27.727   c-20.834,40.708,25.916,93.146,25.916,93.146s26.367-27.762,35.685-45.781C438.462,228.379,400.854,195.589,400.854,195.589z"/>
	<path style="fill:#EFA880;" d="M168.355,343.535l-123.489-4.236c0,0-32.624,46.847,0,61.167   c32.624,14.32,130.601-44.613,130.601-44.613L168.355,343.535z"/>
	<path style="fill:#E9546A;" d="M259.503,263.951h77.786l4.017,75.347h-70.6C257.321,331.842,259.503,263.951,259.503,263.951z"/>
	<path style="fill:#251626;" d="M143.231,343.857c0.014,0,0.028,0,0.044,0c0.652-0.025,1.163-0.574,1.14-1.228   c-0.012-0.301-0.969-30.212,10.965-42.507c0.456-0.469,0.446-1.219-0.023-1.674c-0.472-0.456-1.221-0.444-1.674,0.023   c-12.642,13.026-11.682,42.976-11.636,44.246C142.072,343.355,142.597,343.857,143.231,343.857z"/>
	<g>
		<path style="fill:#F7C67C;" d="M266.801,33.645c0,0,68.257,29.012,20.497,56.05c-25.897,14.661-46.074-24.472-32.116-25.262    c13.959-0.789,22.48,22.416-5.069,27.391s-43.22-24.154-26.701-23.405s7.982,32.309-13.406,30.739s-30.87-21.258-18.234-22.861    s10.774,28.493-10.005,30.023s-36.198-41.829-22.589-46.625"/>
		<path style="fill:#251626;" d="M153.617,76.785c-1.998-9.556-0.065-16.361,5.169-18.206c0.62-0.222,1.293,0.106,1.51,0.724    c0.217,0.618-0.106,1.293-0.724,1.51c-4.72,1.663-4.975,9.092-3.636,15.486c2.583,12.357,12.533,28.877,24.749,28.877    c0.331,0,0.664-0.012,0.995-0.037c7.861-0.578,12.04-5.303,14.108-8.918c-6.955-3.925-10.761-9.802-10.877-14.154    c-0.099-3.802,2.41-6.399,6.714-6.945c2.838-0.358,5.343,0.696,7.012,2.972c2.891,3.948,3.009,10.902,0.328,17.068    c3.171,1.466,6.913,2.507,11.127,2.815c6.899,0.497,13.162-2.683,17.221-8.747c-3.774-2.202-6.733-4.982-8.726-7.732    c-3.007-4.142-3.899-8.287-2.391-11.085c0.842-1.561,2.803-3.391,7.269-3.175c4.993,0.224,7.387,2.93,8.516,5.158    c2.139,4.223,1.561,10.377-1.362,15.91c5.162,2.461,11.703,3.721,19.284,2.352c3.839-0.694,6.927-1.744,9.362-3.025    c-6.876-5.985-11.168-15.195-9.445-20.496c0.766-2.357,2.646-3.735,5.296-3.885c6.959-0.386,13.391,4.989,14.221,12.006    c0.493,4.186-1.069,8.923-5.932,12.579c4.922,3.335,13.227,6.541,23.311,0.828c11.256-6.372,16.754-13.312,16.34-20.628    c-1.013-17.915-36.362-33.149-36.718-33.302c-0.604-0.254-0.883-0.951-0.627-1.552s0.957-0.883,1.552-0.627    c1.513,0.643,37.058,15.967,38.156,35.344c0.469,8.291-5.43,15.972-17.538,22.827c-11.737,6.64-21.298,2.375-26.602-1.489    c-2.792,1.617-6.397,2.928-10.956,3.751c-8.231,1.48-15.32,0.074-20.91-2.639c-0.032,0.049-0.065,0.097-0.097,0.146    c-4.547,6.827-11.61,10.419-19.395,9.846c-4.6-0.338-8.624-1.455-12.024-3.034c-3.391,6.004-9.147,9.688-16.041,10.197    c-0.407,0.03-0.807,0.044-1.207,0.044C166.606,107.545,156.265,89.45,153.617,76.785z M191.922,77.472    c-2.165,0.275-4.727,1.284-4.642,4.533c0.099,3.749,3.573,8.668,9.573,12.073c2.264-5.315,2.232-11.365-0.125-14.582    c-1.011-1.381-2.352-2.077-3.999-2.077C192.467,77.419,192.199,77.438,191.922,77.472z M218.281,71.535    c-1.05,1.95-0.199,5.234,2.223,8.574c1.832,2.521,4.547,5.072,8.021,7.091c2.537-4.829,3.118-10.234,1.344-13.733    c-1.226-2.424-3.416-3.724-6.508-3.865c-0.18-0.007-0.365-0.012-0.555-0.012C221.107,69.59,219.127,69.965,218.281,71.535z     M255.25,65.615c-1.677,0.095-2.715,0.833-3.178,2.255c-1.314,4.04,2.197,12.602,9.332,18.47    c4.528-3.148,6.002-7.225,5.581-10.803c-0.661-5.597-5.59-9.938-11.136-9.938C255.651,65.598,255.449,65.603,255.25,65.615z"/>
	</g>
	<path style="fill:#251626;" d="M148.636,262.609c-0.13-0.641,0.282-1.267,0.923-1.399c13.449-2.752,20.644-7.706,21.391-14.719   c0.504-4.737-2.086-10.037-5.824-14.776c-11.58,5.722-17.626,1.022-19.747-1.369c-3.286-3.7-4.156-9.441-1.901-12.538   c0.712-0.978,2.815-3.062,6.927-1.256c3.867,1.7,10.241,6.339,15.294,12.184c0.016-0.009,0.032-0.019,0.049-0.028   c7.618-4.267,10.893-9.603,9.732-15.859c-0.652-3.515-2.706-6.992-5.366-10.007c-0.969,0.694-2.121,1.237-3.455,1.626   c-7.995,2.343-13.562-0.308-16.113-3.557c-1.885-2.401-2.334-5.282-1.143-7.338c1.122-1.943,3.492-2.801,6.501-2.371   c4.013,0.583,9.677,3.765,14.272,8.282c0.363-0.504,0.648-1.069,0.858-1.693c3.044-9.024-10.01-26.868-10.142-27.048   c-0.389-0.525-0.278-1.267,0.25-1.656c0.52-0.384,1.267-0.278,1.656,0.25c0.569,0.772,13.916,19.02,10.479,29.211   c-0.338,1.001-0.821,1.894-1.445,2.676c2.946,3.314,5.232,7.184,5.976,11.196c0.93,5.009-0.169,12.207-10.581,18.174   c3.911,5.012,6.654,10.722,6.076,16.148c-0.867,8.157-8.696,13.805-23.269,16.791c-0.081,0.016-0.16,0.023-0.241,0.023   C149.244,263.555,148.751,263.168,148.636,262.609z M149.452,218.721c-1.866-0.821-3.229-0.659-4.061,0.481   c-1.432,1.968-0.985,6.48,1.76,9.573c3.536,3.985,9.438,4.336,16.412,1.062C159.059,224.707,153.439,220.474,149.452,218.721z    M155.567,193.546c-2.038-0.291-3.492,0.136-4.114,1.212c-0.692,1.196-0.308,3.081,0.955,4.69   c1.008,1.284,4.956,5.264,13.585,2.748c0.951-0.28,1.774-0.643,2.47-1.094C164.302,197.016,159.196,194.071,155.567,193.546z"/>
	<path style="fill:#251626;" d="M138.244,162.264c-12.947-9.304-21.222-26.421-18.838-38.968c0.345-1.811,0.964-3.8,2.047-5.745   c-4.848-6.809-4.138-17.279-0.109-24.703c1.385-2.551,3.044-4.616,4.901-6.157c-1.473-3.469-2.491-8.317-2.491-15.093   c0-37.495,35.987-39.123,36.35-39.137c0.747,0.032,1.198,0.493,1.223,1.145c0.021,0.652-0.49,1.2-1.145,1.223   c-1.39,0.049-34.06,1.589-34.06,36.769c0,6.171,0.856,10.567,2.093,13.699c3.335-1.984,7.156-2.449,11.078-1.205   c6.108,1.933,5.898,5.389,5.687,6.402c-0.631,3.048-4.612,5.252-8.659,4.855c-1.767-0.183-5.928-1.189-8.978-6.448   c-1.469,1.304-2.794,3.007-3.918,5.077c-3.504,6.457-4.302,15.401-0.564,21.433c2.271-2.94,5.84-5.555,11.414-6.961   c8.414-2.128,11.293-0.34,12.221,1.536c1.422,2.877-1.196,6.746-4.422,9.307c-4.54,3.603-11.95,6.078-17.887,1.198   c-0.377-0.31-0.735-0.636-1.075-0.976c-0.627,1.293-1.087,2.701-1.378,4.225c-2.19,11.52,5.837,27.941,17.894,36.602   c0.53,0.382,0.652,1.122,0.271,1.654c-0.231,0.321-0.594,0.493-0.962,0.493C138.695,162.486,138.455,162.414,138.244,162.264z    M134.854,110.742c-4.674,1.182-8.215,3.441-10.491,6.654c0.407,0.446,0.851,0.87,1.328,1.263c4.85,3.98,11.062,1.834,14.913-1.223   c3.118-2.475,4.364-5.199,3.77-6.402c-0.335-0.678-1.434-1.193-3.518-1.193C139.377,109.84,137.402,110.099,134.854,110.742z    M129.243,87.48c2.523,4.512,5.879,5.363,7.32,5.511c3.069,0.333,5.752-1.311,6.099-2.979c0.289-1.392-1.237-2.761-4.082-3.663   c-1.186-0.375-2.364-0.56-3.518-0.56C133.02,85.789,131.051,86.367,129.243,87.48z"/>
	<path style="fill:#EA7C71;" d="M256.545,181.682c0,0-0.851-13.175-4.367-11.694s-9.624,8.143-9.624,8.143   s5.182-14.066-1.481-14.436c-6.663-0.37-9.796,5.549-9.796,5.549s-22.962,23.323,1.653,27.025S256.545,181.682,256.545,181.682z"/>
	<path style="fill:#251626;" d="M246.917,187.563c8.162,0,17.237-8.856,20.847-13.928c0.379-0.534,0.254-1.272-0.278-1.651   c-0.53-0.377-1.27-0.254-1.651,0.278c-3.68,5.169-14.293,15.442-21.826,12.385c-5.153-2.1-11.689-15.503-13.775-20.489   c-0.252-0.606-0.948-0.888-1.547-0.636c-0.604,0.252-0.888,0.944-0.636,1.547c0.319,0.77,7.949,18.87,15.065,21.77   C244.343,187.339,245.62,187.563,246.917,187.563z"/>
	<path style="fill:#251626;" d="M237.109,228.671c3.816,0,6.402-0.465,6.672-0.516c0.643-0.12,1.066-0.738,0.946-1.381   c-0.118-0.643-0.729-1.071-1.381-0.946c-0.167,0.03-16.601,2.946-28.672-6.682c-0.511-0.405-1.256-0.324-1.663,0.187   c-0.409,0.511-0.324,1.256,0.187,1.663C221.243,227.415,230.834,228.671,237.109,228.671z"/>
	<g>
		<polygon style="fill:#DD7C2E;" points="427.995,426.268 47.608,422.439 47.608,498.816 427.995,498.816   "/>
		<path style="fill:#251626;" d="M390.891,453.122c15.1,0,23.695-3.391,28.558-6.964c6.332-4.651,6.959-9.92,6.982-10.142    c0.069-0.65-0.402-1.233-1.052-1.302c-0.643-0.062-1.23,0.4-1.302,1.048c-0.025,0.213-0.622,4.568-6.14,8.569    c-7.133,5.167-22.834,9.883-57.158,2.997c-6.099-1.223-12.63-2.586-19.504-4.022c-61.837-12.91-155.285-32.425-207.277-4.114    c-35.628,19.402-85.377-4.128-85.876-4.367c-0.583-0.284-1.297-0.035-1.58,0.553c-0.284,0.59-0.037,1.295,0.553,1.58    c0.127,0.062,12.917,6.173,30.025,9.737c15.854,3.305,38.783,5.042,58.012-5.421c51.226-27.899,144.163-8.486,205.66,4.35    c6.878,1.439,13.416,2.803,19.52,4.027C372.689,452.132,382.738,453.122,390.891,453.122z"/>
		<path style="fill:#251626;" d="M80.152,467.438c27.108,0,60.172-11.582,78.006-17.832c21.909-7.672,76.805-0.185,129.898,7.059    c23.644,3.226,48.094,6.561,69.633,8.573c52.121,4.873,66.257-0.238,70.043-3.721c1.355-1.247,1.45-2.301,1.448-2.595    c-0.007-0.655-0.613-1.133-1.196-1.173c-0.622,0.007-1.126,0.49-1.17,1.099c-0.113,0.391-3.717,10.123-68.903,4.031    c-21.49-2.008-45.916-5.34-69.536-8.562c-55.826-7.616-108.555-14.811-130.999-6.945c-27.52,9.642-91.966,32.217-111.967,4.2    c-0.379-0.534-1.122-0.655-1.651-0.278c-0.534,0.382-0.657,1.119-0.278,1.654C51.128,463.659,64.667,467.438,80.152,467.438z"/>
		<path style="fill:#251626;" d="M340.824,487.86c1.055,0.002,2.056-0.012,3.007-0.037c36.572-1.001,80.954-0.009,81.396,0    c0.65,0.028,1.198-0.504,1.212-1.156c0.014-0.655-0.504-1.196-1.156-1.212c-0.446-0.012-44.889-0.999-81.517,0    c-15.371,0.428-45.129-2.729-76.623-6.06c-43.86-4.642-93.564-9.908-115.63-6.61l-2.438,0.363    c-37.236,5.558-79.444,11.855-98.726,5.53c-0.62-0.213-1.291,0.132-1.494,0.754c-0.206,0.622,0.134,1.291,0.754,1.494    c19.823,6.513,62.318,0.164,99.815-5.435l2.44-0.365c21.756-3.24,71.312,1.998,115.029,6.624    C296.538,484.886,324.639,487.86,340.824,487.86z"/>
		<path style="fill:#251626;" d="M268.005,500c0.52,0,0.997-0.345,1.143-0.87c0.173-0.631-0.199-1.284-0.828-1.457    c-64.358-17.691-135.682-0.183-136.394-0.007c-0.634,0.16-1.018,0.803-0.86,1.439c0.16,0.631,0.798,1.013,1.439,0.86    c0.705-0.178,71.444-17.531,135.187-0.007C267.797,499.986,267.901,500,268.005,500z"/>
		<path style="fill:#251626;" d="M95.421,433.373c9.517,0,20.646-2.047,32.895-8.014c0.587-0.287,0.833-0.994,0.546-1.582    c-0.287-0.59-1.004-0.826-1.582-0.546c-37.601,18.313-64.11-1.385-64.374-1.587c-0.52-0.395-1.26-0.298-1.661,0.222    c-0.398,0.52-0.296,1.263,0.222,1.661C61.656,423.671,74.712,433.373,95.421,433.373z"/>
		<path style="fill:#251626;" d="M364.749,437.832c5.729,0,11.851-0.604,18.329-1.82c16.488-3.097,29.636-9.126,29.768-9.186    c0.594-0.275,0.851-0.978,0.578-1.573c-0.278-0.594-0.976-0.851-1.573-0.578c-0.509,0.236-51.483,23.387-79.208,1.031    c-0.504-0.414-1.251-0.335-1.663,0.178c-0.412,0.509-0.333,1.254,0.178,1.663C339.609,434.368,351.037,437.832,364.749,437.832z"/>
		<g>
			<path style="fill:#ACAAA7;" d="M286.943,453.654c0,0-62.829-89.955-129.177,0c0,0,69.105,62.417,129.177,9.505     c0,0,3.157,23.422,30.602,27.496c0,0,17.797-24.441-17.604-31.569c0,0,27.62,5.259,22.078-30.976     C322.018,428.108,309.347,412.58,286.943,453.654z"/>
			<path style="fill:#F2A797;" d="M274.891,452.164c0,0-19.021-24.405-58.286-25.537l-0.908,46.73     C215.698,473.357,268.602,479.537,274.891,452.164z"/>
			<path style="fill:#251626;" d="M268.008,456.515c0.581,0,1.087-0.428,1.17-1.02c0.09-0.648-0.361-1.247-1.008-1.337     l-48.601-6.841c-0.636-0.086-1.244,0.358-1.337,1.008c-0.09,0.648,0.361,1.247,1.008,1.337l48.601,6.841     C267.897,456.51,267.952,456.515,268.008,456.515z"/>
			<path style="fill:#251626;" d="M232.146,467.367c0.231,0,0.465-0.067,0.668-0.206c14.085-9.637,5.06-31.422,4.667-32.344     c-0.254-0.604-0.946-0.881-1.552-0.627c-0.601,0.254-0.883,0.948-0.627,1.552c0.088,0.208,8.659,20.921-3.825,29.463     c-0.539,0.37-0.678,1.108-0.31,1.647C231.399,467.186,231.769,467.367,232.146,467.367z"/>
			<path style="fill:#251626;" d="M249.131,465.243c0.194,0,0.391-0.046,0.571-0.148c12.297-6.774,6.235-24.504,5.972-25.256     c-0.217-0.615-0.89-0.944-1.508-0.724c-0.618,0.217-0.941,0.893-0.726,1.508c0.058,0.167,5.659,16.592-4.88,22.399     c-0.574,0.315-0.782,1.034-0.465,1.607C248.31,465.021,248.714,465.243,249.131,465.243z"/>
			<path style="fill:#251626;" d="M185.668,449.674c0.317,0,0.634-0.127,0.867-0.379l12.269-13.211     c0.446-0.479,0.419-1.228-0.062-1.672c-0.476-0.446-1.223-0.419-1.672,0.062l-12.269,13.211     c-0.446,0.479-0.419,1.228,0.062,1.672C185.09,449.57,185.379,449.674,185.668,449.674z"/>
			<path style="fill:#251626;" d="M195.578,449.674c0.178,0,0.361-0.039,0.53-0.125c0.585-0.294,0.821-1.004,0.53-1.589     l-6.608-13.211c-0.294-0.583-1.011-0.819-1.589-0.53c-0.585,0.294-0.821,1.004-0.53,1.589l6.608,13.211     C194.727,449.433,195.146,449.674,195.578,449.674z"/>
			<path style="fill:#251626;" d="M183.073,463.12c0.215,0,0.43-0.058,0.627-0.178c0.555-0.347,0.724-1.075,0.379-1.633     c-2.713-4.355-5.643-6.564-8.715-6.564c-0.044,0-0.086,0-0.127,0c-4.57,0.09-7.463,5.083-7.584,5.296     c-0.324,0.567-0.125,1.288,0.442,1.612c0.569,0.326,1.293,0.127,1.617-0.439c0.023-0.039,2.357-4.043,5.581-4.101     c2.25,0.016,4.501,1.795,6.774,5.449C182.291,462.921,182.677,463.12,183.073,463.12z"/>
		</g>
	</g>
	<path style="fill:#251626;" d="M376.952,279.948c0.173,0,0.347-0.037,0.511-0.116l18.697-8.955c0.59-0.282,0.84-0.99,0.557-1.58   c-0.282-0.594-0.997-0.84-1.58-0.557l-18.697,8.955c-0.59,0.282-0.84,0.99-0.557,1.58   C376.087,279.7,376.51,279.948,376.952,279.948z"/>
	<path style="fill:#251626;" d="M390.319,282.739c0.187,0,0.377-0.044,0.553-0.136c0.578-0.305,0.8-1.022,0.495-1.6l-9.277-17.603   c-0.308-0.581-1.029-0.798-1.6-0.495c-0.578,0.305-0.8,1.022-0.495,1.6l9.277,17.603   C389.485,282.51,389.896,282.739,390.319,282.739z"/>
	<path style="fill:#251626;" d="M364.15,287.462c0.261,0,0.527-0.088,0.747-0.266c0.099-0.083,9.926-8.277,4.038-18   c-0.34-0.56-1.071-0.733-1.626-0.4c-0.56,0.34-0.738,1.066-0.4,1.626c4.818,7.954-3.171,14.658-3.513,14.941   c-0.504,0.414-0.578,1.161-0.164,1.665C363.468,287.314,363.808,287.462,364.15,287.462z"/>
	<path style="fill:#251626;" d="M323.905,159.451c-0.009-0.655,0.513-1.191,1.168-1.2c15.089-0.201,18.717-18.586,19.469-24.215   c0.317-2.364,0.453-4.653,0.446-6.797c-0.872-0.086-1.617-0.368-2.193-0.671c-4.374-2.301-7.019-9.841-5.585-13.412   c0.719-1.795,2.366-2.514,4.422-1.931c3.402,0.976,5.232,6.517,5.639,13.169c1.022-0.571,2.054-1.635,3.085-3.187   c5.828-8.765,1.753-27.147-5.787-37.726c-1.67-2.345-4.443-5.585-7.912-7.248c-0.016,1.24-0.157,2.519-0.444,3.844   c-1.328,6.164-3.432,9.249-6.087,9.057c-2.845-0.162-4.929-4.14-5.301-7.894c-0.412-4.165,1.277-7.26,4.408-8.074   c1.559-0.405,3.134-0.481,4.697-0.247c-3.118-14.471-26.398-21.934-26.666-22.018c-0.624-0.197-0.971-0.86-0.777-1.485   c0.194-0.622,0.851-0.969,1.485-0.777c1.193,0.372,26.246,8.402,28.521,24.95c3.504,1.304,6.918,4.184,10.005,8.516   c8.002,11.231,12.364,30.589,5.828,40.414c-1.732,2.609-3.441,3.895-4.97,4.429c0.018,2.433-0.139,4.952-0.467,7.403   c-0.816,6.103-4.799,26.04-21.784,26.269c-0.005,0-0.012,0-0.016,0C324.442,160.619,323.915,160.099,323.905,159.451z    M339.408,114.04c-0.93,2.315,1.122,8.659,4.491,10.433c0.338,0.176,0.675,0.296,1.015,0.361   c-0.358-6.24-1.994-10.775-3.934-11.333c-0.28-0.081-0.507-0.116-0.692-0.116C339.73,113.385,339.542,113.702,339.408,114.04z    M329.831,75.46c-2.812,0.731-2.789,4.121-2.648,5.546c0.31,3.113,1.936,5.696,3.078,5.763c0.014,0,0.028,0,0.042,0   c0.953,0,2.452-1.873,3.599-7.193c0.312-1.45,0.421-2.847,0.354-4.188C332.858,75.076,331.374,75.06,329.831,75.46z"/>
	<path style="fill:#251626;" d="M286.852,363.289c0.294,0,0.587-0.109,0.816-0.326c17.647-16.779,5.289-57.607,4.755-59.337   c-0.192-0.627-0.856-0.981-1.48-0.782c-0.624,0.192-0.976,0.856-0.782,1.48c0.127,0.409,12.459,41.154-4.126,56.922   c-0.474,0.451-0.493,1.2-0.042,1.674C286.228,363.166,286.54,363.289,286.852,363.289z"/>
	<g>
		<g>
			<path style="fill:#FFFFFF;" d="M189.174,331.947l136.649-60.067c0,0-3.178,78.79-117.666,95.977L189.174,331.947z"/>
			<polygon style="fill:#251426;" points="189.174,331.947 134.422,353.728 145.064,375.622 195.072,343.105    "/>
			<path style="fill:#EFA880;" d="M147.147,344.954c0,0,28.453-9.09,30.251-9.064c1.798,0.026,14.869,19.541,14.869,19.541     s-22.749,16.908-29.993,20.148C155.031,378.817,138.046,347.83,147.147,344.954z"/>
			<path style="fill:#251626;" d="M199.952,353.515c0.557,0,1.055-0.395,1.161-0.964c0.273-1.443,5.905-1.649,9.63-1.783     c5.567-0.201,11.321-0.412,13.655-3.097c0.819-0.944,1.163-2.105,1.022-3.446c-0.227-2.176,0.15-3.668,1.159-4.556     c2.778-2.449,10.879-0.983,18.447,0.784c14.201,3.307,17.987-5.68,22.776-17.066c0.416-0.992,0.844-2.012,1.291-3.051     c2.574-5.988,8.911-5.969,15.038-5.958c4.163,0.002,8.104,0.019,10.285-2.156c1.071-1.069,1.614-2.572,1.614-4.466     c0-12.982,14.492-15.648,18.932-16.155c10.623-1.214,11.99-18.886,12.043-19.638c0.046-0.652-0.446-1.219-1.099-1.265     c-0.604,0.005-1.217,0.444-1.265,1.099c-0.012,0.164-1.274,16.46-9.947,17.45c-13.169,1.506-21.032,8.425-21.032,18.509     c0,1.26-0.301,2.172-0.918,2.789c-1.483,1.478-4.915,1.459-8.608,1.464c-6.21-0.016-14.025-0.035-17.216,7.392     c-0.451,1.043-0.881,2.068-1.3,3.067c-4.861,11.559-7.794,18.528-20.056,15.676c-9.901-2.304-17.177-3.229-20.551-0.252     c-1.624,1.434-2.26,3.585-1.945,6.578c0.072,0.685-0.074,1.207-0.458,1.649c-1.658,1.908-7.126,2.107-11.95,2.283     c-6.034,0.217-11.247,0.407-11.872,3.71c-0.123,0.643,0.301,1.26,0.944,1.383C199.804,353.508,199.878,353.515,199.952,353.515z"/>
		</g>
		<path style="fill:#251626;" d="M183.073,363.289c0.234,0,0.467-0.067,0.673-0.21c0.539-0.372,0.673-1.11,0.301-1.647    c-0.053-0.076-5.336-7.722-7.836-11.999c-0.328-0.564-1.05-0.749-1.621-0.423c-0.564,0.331-0.754,1.055-0.423,1.621    c2.546,4.353,7.713,11.83,7.933,12.147C182.328,363.111,182.698,363.289,183.073,363.289z"/>
		<path style="fill:#251626;" d="M172.041,369.041c0.294,0,0.587-0.109,0.816-0.326c0.474-0.451,0.493-1.2,0.042-1.674    c-3.67-3.862-7.389-9.05-7.001-10.699c0.15-0.636-0.243-1.274-0.879-1.425c-0.643-0.162-1.277,0.243-1.425,0.879    c-0.883,3.73,6.166,11.381,7.588,12.878C171.416,368.918,171.729,369.041,172.041,369.041z"/>
	</g>
	<path style="fill:#251426;" d="M452.936,154.886c0.141,0,0.284-0.025,0.423-0.079c0.611-0.234,0.916-0.918,0.682-1.529   c-0.069-0.183-1.744-4.528-4.175-7.387c-0.423-0.5-1.17-0.557-1.67-0.134c-0.497,0.423-0.557,1.17-0.134,1.67   c2.162,2.544,3.751,6.656,3.768,6.698C452.011,154.597,452.459,154.886,452.936,154.886z"/>
	<path style="fill:#251426;" d="M460.358,151.366c0.655,0,1.184-0.53,1.184-1.184c0-1.57-1.772-6.61-2.128-7.602   c-0.22-0.618-0.895-0.93-1.513-0.717c-0.618,0.22-0.937,0.897-0.717,1.513c0.978,2.736,1.989,6.032,1.989,6.807   C459.173,150.836,459.703,151.366,460.358,151.366z"/>
</g>















</svg>
