<?xml version="1.0" encoding="UTF-8"?>
<!-- Generator: Adobe Illustrator 25.1.0, SVG Export Plug-In . SVG Version: 6.00 Build 0)  -->
<svg xmlns="http://www.w3.org/2000/svg" xmlns:xlink="http://www.w3.org/1999/xlink" version="1.1" id="Capa_1" x="0px" y="0px" viewBox="0 0 481.391 481.391" style="enable-background:new 0 0 481.391 481.391;" xml:space="preserve" width="512" height="512">
<g>
	<g>
		<path style="fill:#757A91;" d="M320.677,130.437c0,0,37.173,0.017,43.026,36.801s-68.134,38.13-68.134,38.13l9.353-12.205    c0,0-21.303,1.185-21.94-27.366S305.248,130.271,320.677,130.437z"/>
		<path style="fill:#FFFFFF;" d="M325.543,185.557c0,0-27.852-22.58-23.249-28.11c4.603-5.53,21.764,7.214,21.764,7.214    s7.237-22.401,12.68-14.814C342.181,157.434,325.543,185.557,325.543,185.557z"/>
	</g>
	<g>
		<g>
			<path style="fill:#251626;" d="M164.302,481.391c-0.056,0-0.112-0.005-0.17-0.016c-0.504-0.092-0.837-0.577-0.743-1.081     l19.436-104.926c0.092-0.504,0.566-0.842,1.082-0.743c0.504,0.093,0.837,0.577,0.743,1.082l-19.436,104.924     C165.131,481.079,164.741,481.391,164.302,481.391z"/>
			<g>
				<path style="fill:#251626;" d="M243.225,450.48c-0.024,0-0.048-0.002-0.073-0.004l-72.156-5.626      c-0.468-0.036-0.835-0.415-0.855-0.885c-0.02-0.47,0.313-0.879,0.776-0.956l43.414-7.18l68.309-0.013      c0.457,0,0.846,0.332,0.917,0.783c0.072,0.451-0.196,0.887-0.63,1.028l-39.415,12.806      C243.419,450.466,243.322,450.48,243.225,450.48z M178.752,443.594l64.361,5.019l33.665-10.939h-62.296L178.752,443.594z"/>
				<path style="fill:#251626;" d="M250.147,481.391c-0.425,0-0.809-0.294-0.905-0.725L226.094,377.31      c-0.112-0.5,0.202-0.997,0.703-1.109c0.51-0.109,0.998,0.203,1.109,0.703l23.148,103.355c0.112,0.5-0.202,0.997-0.703,1.11      C250.282,481.384,250.214,481.391,250.147,481.391z"/>
				<path style="fill:#251626;" d="M295.856,481.391c-0.389,0-0.751-0.247-0.88-0.635l-37.403-112.175      c-0.162-0.487,0.101-1.013,0.587-1.174c0.49-0.165,1.013,0.102,1.174,0.587l37.403,112.175c0.162,0.486-0.101,1.012-0.587,1.175      C296.052,481.377,295.953,481.391,295.856,481.391z"/>
				<path style="fill:#251626;" d="M214.482,472.965c-0.006,0-0.013,0-0.019,0c-0.512-0.011-0.919-0.435-0.909-0.946l2.115-105.274      c0.01-0.512,0.451-0.865,0.947-0.909c0.512,0.011,0.919,0.434,0.909,0.947l-2.115,105.272      C215.401,472.561,214.986,472.965,214.482,472.965z"/>
				<path style="fill:#FDE3A4;" d="M83.989,249.731c0,0-29.872-88.756,105.47-81.396s76.366,136.422,82.954,138.527      s64.099,0.435,52.637,29.104c-11.462,28.669-21.71,66.824-117.507,66.527S83.989,249.731,83.989,249.731z"/>
			</g>
		</g>
		<path style="fill:#84556C;" d="M135.644,7.499c0,0,22.021-24.746,70.439,15.669s30.094,128.363-55.127,136.917    C65.736,168.639,9.449,21.654,135.644,7.499z"/>
		<polygon style="fill:#EA7C71;" points="276.977,236.272 240.149,279.966 223.709,251.518 280.154,221.893   "/>
		<path style="fill:#251426;" d="M376.73,352.766l21.798,26.18l6.628-6.233l-8.817-5.601c0,0,12.291,7.835,23.221-14.272    c0,0-29.651,14.62-31.37-12.38L376.73,352.766z"/>
		<path style="fill:#251426;" d="M323.574,410.815l-2.337,33.651l9.063,0.338l-2.489-10.134c0,0,3.452,14.146,26.542,6.459    c0,0-31.41-10.76-14.055-30.796L323.574,410.815z"/>
		<polygon style="fill:#9CD1C3;" points="234.758,310.845 303.723,234.754 399.932,335.797 370.893,374.566 305.551,268.545     261.879,344.183   "/>
		<polygon style="fill:#9CD1C3;" points="254.126,326.999 327.765,298.511 357.15,426.951 308.497,429.807 314.931,327.922     263.609,354.782   "/>
		<path style="fill:#648392;" d="M200.145,351.36c0,0-103.66-56.369-59.956-152.532l70.174,0.457l19.804,54.718l28.669,30.276    L200.145,351.36z"/>
		<polygon style="fill:#E9546A;" points="206.159,190.174 254.175,190.174 254.175,254.699 210.422,255.48   "/>
		<path style="fill:#EFA880;" d="M206.159,235.844c0,0-50.903,86.516-64.77,86.372c-18.141-0.188-34.46-67.247-34.46-67.247    l33.26-29.216l4.363,58.332l49.023-50.995L206.159,235.844z"/>
		<path style="fill:#648392;" d="M153.182,272.903L105.4,287.149c0,0-18.079-88.322,34.79-88.322L153.182,272.903z"/>
		<path style="fill:#EFA880;" d="M197.933,220.249c0,0,12.485-12.12,15.983-8.571c1.491,1.513-10.046,12.889-10.046,12.889    s20.677-11.883,17.811-6.181c-2.866,5.702-14.375,13.883-14.375,13.883s13.878-2.587,17.552-2.241    c5.908,0.557-8.609,8.998-18.092,10.737C200.281,241.954,182.806,236.044,197.933,220.249z"/>
		<path style="fill:#251626;" d="M200.144,228.439c-0.177,0-0.354-0.05-0.512-0.155c-0.428-0.284-0.544-0.859-0.26-1.286    c0.972-1.464,3.73-3.06,4.041-3.237c0.442-0.256,1.012-0.099,1.266,0.347c0.254,0.446,0.098,1.013-0.347,1.267    c-1.029,0.586-2.865,1.824-3.413,2.65C200.739,228.293,200.445,228.439,200.144,228.439z"/>
		<path style="fill:#251626;" d="M205.445,234.711c-0.311,0-0.615-0.156-0.791-0.441c-0.269-0.436-0.134-1.008,0.302-1.277    c2.722-1.682,4.75-3.949,4.77-3.972c0.338-0.383,0.926-0.419,1.31-0.078c0.383,0.34,0.419,0.927,0.079,1.31    c-0.089,0.101-2.22,2.489-5.183,4.319C205.781,234.666,205.612,234.711,205.445,234.711z"/>
		<path style="fill:#9CD1C3;" d="M280.154,322.107c0,0-16.968,84.207-80.009,29.253l46.239-52.849L280.154,322.107z"/>
		<path style="fill:#EFA880;" d="M178.356,164.096l-1.569,33.552l16.78,1.179c0,0,2.463,30.544-15.817,26.925    s-37.561-26.925-37.561-26.925l20.188-1.592l-7.061-29.159L178.356,164.096z"/>
		<path style="fill:#EFA880;" d="M101.502,71.058c0,0,48.221-56.551,82.161-37.828s50.472,130.561-6.718,137.29    C109.649,178.439,89.357,99.721,101.502,71.058z"/>
		<path style="fill:#FFFFFF;" d="M147.699,27.32"/>
		<path style="fill:#251626;" d="M179.474,119.251c-5.093,0-10.825-0.125-11.193-0.133c-0.512-0.012-0.918-0.436-0.907-0.949    c0.012-0.511,0.367-0.914,0.949-0.907c0.133,0.004,12.977,0.283,17.378,0.016c-0.734-2.761-9.821-14.08-18.685-24    c-0.341-0.382-0.308-0.969,0.074-1.311c0.381-0.34,0.967-0.309,1.311,0.074c7.628,8.537,20.253,23.294,19.091,26.196    c-0.201,0.502-0.647,0.817-1.224,0.863C184.846,119.213,182.255,119.251,179.474,119.251z"/>
		<path style="fill:#251626;" d="M146.283,106.672c-3.993,0.002-8.659-10.506-10.035-13.832c-0.196-0.473,0.029-1.016,0.502-1.212    c0.477-0.195,1.017,0.029,1.213,0.502c2.658,6.424,6.69,13.066,8.392,12.678c1.626-0.351,1.367-7.852,0.116-14.364    c-0.096-0.503,0.234-0.99,0.737-1.087c0.496-0.098,0.989,0.233,1.087,0.737c0.7,3.648,2.659,15.621-1.548,16.529    C146.594,106.655,146.438,106.672,146.283,106.672z"/>
		<path style="fill:#251626;" d="M188.869,96.625c-4.036,0.001-10.623-9.963-12.608-13.12c-0.273-0.434-0.142-1.007,0.292-1.28    c0.435-0.271,1.006-0.141,1.28,0.292c3.898,6.201,9.258,12.626,11.117,12.244c1.626-0.351,1.367-7.852,0.116-14.364    c-0.096-0.503,0.233-0.99,0.737-1.087c0.501-0.095,0.99,0.233,1.087,0.737c0.7,3.648,2.659,15.621-1.548,16.529    C189.188,96.609,189.03,96.625,188.869,96.625z"/>
		<circle style="fill:#EFA880;" cx="95.395" cy="116.649" r="11.532"/>
		<circle style="fill:#EFA880;" cx="221.418" cy="84.845" r="10.755"/>
		<path style="fill:#251626;" d="M100.618,122.272c-0.44,0-0.83-0.313-0.912-0.761c-0.523-2.851-1.648-4.702-3.343-5.501    c-2.965-1.395-6.829,0.717-6.868,0.738c-0.451,0.247-1.013,0.088-1.263-0.36c-0.249-0.448-0.088-1.014,0.36-1.263    c0.192-0.105,4.744-2.595,8.563-0.794c2.267,1.069,3.74,3.372,4.377,6.845c0.092,0.504-0.241,0.988-0.745,1.081    C100.729,122.268,100.673,122.272,100.618,122.272z"/>
		<path style="fill:#251626;" d="M221.653,93.642c-0.315,0-0.623-0.16-0.797-0.451c-2.459-4.101-3.114-7.429-1.947-9.889    c1.338-2.824,4.53-3.323,4.665-3.343c0.517-0.083,0.978,0.277,1.053,0.783c0.074,0.507-0.275,0.977-0.781,1.053    c-0.054,0.008-2.371,0.402-3.267,2.315c-0.861,1.839-0.216,4.649,1.868,8.125c0.264,0.441,0.121,1.01-0.318,1.274    C221.981,93.6,221.816,93.642,221.653,93.642z"/>
		<circle style="fill:#EA7C71;" cx="136.13" cy="124.862" r="10.994"/>
		<circle style="fill:#EA7C71;" cx="199.226" cy="110.792" r="10.994"/>
		<path style="fill:#E9546A;" d="M244.421,209.971c0,0,21.923-12.722,28.318,8.732c4.699,15.763-24.518,29.115-24.518,29.115    l-1.532-7.38c0,0,25.453-10.193,18.899-21.735c-2.918-5.139-21.167,0-21.167,0V209.971z"/>
		<path style="fill:#EFA880;" d="M275.261,211.172c0,0-7.897-5.224-10.706-3.47c-2.809,1.754-8.602,10.979-7.958,13.982    c0.644,3.003-1.098,10.941,2.24,13.301c3.338,2.36,12.349,3.647,18.141,1.287C282.769,233.912,281.482,219.288,275.261,211.172z"/>
		<path style="fill:#251626;" d="M256.899,231.924c-0.392,0-0.756-0.25-0.883-0.643c-0.158-0.488,0.11-1.011,0.597-1.169    c4.431-1.432,14.708-2.241,15.144-2.275c0.524-0.037,0.957,0.344,0.997,0.854c0.04,0.511-0.343,0.957-0.854,0.997    c-0.104,0.008-10.493,0.825-14.716,2.189C257.089,231.909,256.993,231.924,256.899,231.924z"/>
		<path style="fill:#251626;" d="M256.9,225.616c-0.351,0-0.686-0.199-0.843-0.538c-0.216-0.465-0.014-1.017,0.452-1.233    c1.12-0.519,11.057-5.042,15.546-3.919c0.497,0.124,0.8,0.628,0.674,1.126c-0.124,0.497-0.629,0.801-1.125,0.674    c-3.258-0.81-11.438,2.469-14.314,3.803C257.163,225.589,257.03,225.616,256.9,225.616z"/>
		<path style="fill:#251626;" d="M256.899,220.216c-0.228,0-0.455-0.082-0.634-0.25c-0.374-0.35-0.394-0.937-0.044-1.312    c3.402-3.643,9.655-5.197,12.66-5.945c0.561-0.14,0.982-0.241,1.205-0.321c0.479-0.17,1.013,0.08,1.186,0.564    c0.171,0.482-0.081,1.014-0.564,1.186c-0.254,0.091-0.735,0.213-1.379,0.373c-2.61,0.65-8.723,2.171-11.751,5.411    C257.395,220.117,257.147,220.216,256.899,220.216z"/>
		<path style="fill:#251626;" d="M251.933,367.818c-0.268,0-0.535-0.116-0.718-0.339c-0.325-0.396-0.268-0.982,0.128-1.306    c13.115-10.768,22.07-47.924,22.159-48.298c0.12-0.498,0.622-0.804,1.118-0.688c0.499,0.119,0.807,0.619,0.688,1.118    c-0.369,1.552-9.189,38.139-22.786,49.303C252.348,367.75,252.139,367.818,251.933,367.818z"/>
		<path style="fill:#251626;" d="M305.552,269.473c-0.009,0-0.019,0-0.028,0c-0.43-0.014-0.793-0.319-0.881-0.74l-3.353-16.166    c-0.104-0.502,0.218-0.994,0.721-1.098c0.498-0.106,0.993,0.218,1.098,0.721l2.565,12.371l3.382-12.427    c0.135-0.495,0.648-0.789,1.14-0.652c0.495,0.134,0.787,0.645,0.652,1.14l-4.399,16.166    C306.337,269.194,305.97,269.473,305.552,269.473z"/>
		<path style="fill:#251626;" d="M314.931,328.85c-0.187,0-0.374-0.056-0.533-0.169c-0.305-0.213-0.452-0.587-0.375-0.951    l2.413-11.45c0.106-0.502,0.599-0.821,1.1-0.717c0.502,0.106,0.823,0.598,0.717,1.1l-1.965,9.327l8.123-5.031    c0.436-0.27,1.007-0.135,1.278,0.301c0.269,0.436,0.135,1.008-0.301,1.278l-9.968,6.173    C315.27,328.803,315.101,328.85,314.931,328.85z"/>
		<path style="fill:#251626;" d="M365.696,365.087c-0.23,0-0.461-0.085-0.64-0.256c-0.372-0.354-0.386-0.941-0.033-1.313    l30.619-32.16c0.356-0.37,0.943-0.383,1.313-0.033c0.372,0.354,0.386,0.941,0.033,1.313l-30.619,32.16    C366.185,364.99,365.94,365.087,365.696,365.087z"/>
		<path style="fill:#251626;" d="M354.353,421.75h-45.289c-0.513,0-0.928-0.415-0.928-0.928s0.415-0.928,0.928-0.928h45.289    c0.513,0,0.928,0.415,0.928,0.928S354.866,421.75,354.353,421.75z"/>
		<path style="fill:#251626;" d="M342.365,391.034c-0.513,0-0.928-0.415-0.928-0.928c0-2.858-1.7-6.291-1.717-6.325    c-0.229-0.459-0.044-1.016,0.415-1.246c0.46-0.227,1.015-0.044,1.246,0.415c0.078,0.156,1.913,3.864,1.913,7.156    C343.294,390.619,342.879,391.034,342.365,391.034z"/>
		<path style="fill:#251626;" d="M334.775,382.234c-0.513,0-0.928-0.415-0.928-0.928c0-2.858-1.7-6.29-1.717-6.324    c-0.229-0.459-0.044-1.016,0.415-1.246c0.46-0.229,1.015-0.043,1.246,0.415c0.078,0.156,1.913,3.863,1.913,7.155    C335.703,381.819,335.288,382.234,334.775,382.234z"/>
		<path style="fill:#251626;" d="M338.702,374.558c-0.513,0-0.928-0.415-0.928-0.928c0-2.849-1.699-6.291-1.716-6.325    c-0.228-0.459-0.043-1.015,0.416-1.245c0.458-0.226,1.017-0.044,1.245,0.415c0.078,0.156,1.912,3.863,1.912,7.155    C339.63,374.143,339.215,374.558,338.702,374.558z"/>
		<path style="fill:#251626;" d="M337.795,363.418c-0.513,0-0.928-0.415-0.928-0.928c0-2.858-1.7-6.29-1.717-6.324    c-0.229-0.459-0.044-1.016,0.415-1.246c0.459-0.227,1.015-0.044,1.246,0.415c0.078,0.156,1.913,3.863,1.913,7.155    C338.724,363.003,338.308,363.418,337.795,363.418z"/>
		<path style="fill:#251626;" d="M332.616,352.539c-0.513,0-0.928-0.415-0.928-0.928c0-2.858-1.7-6.29-1.717-6.324    c-0.229-0.459-0.044-1.016,0.415-1.246c0.459-0.228,1.015-0.044,1.246,0.415c0.078,0.156,1.913,3.863,1.913,7.155    C333.544,352.124,333.129,352.539,332.616,352.539z"/>
		<path style="fill:#251626;" d="M337.795,397.774c-0.513,0-0.928-0.415-0.928-0.928c0-2.858-1.7-6.29-1.717-6.324    c-0.229-0.459-0.044-1.016,0.415-1.246c0.459-0.228,1.015-0.044,1.246,0.415c0.078,0.156,1.913,3.863,1.913,7.155    C338.724,397.359,338.308,397.774,337.795,397.774z"/>
		<path style="fill:#251626;" d="M329.979,366.788c-0.513,0-0.928-0.415-0.928-0.928c0-2.858-1.7-6.29-1.717-6.324    c-0.229-0.459-0.044-1.016,0.415-1.246c0.46-0.228,1.015-0.044,1.246,0.415c0.078,0.156,1.913,3.863,1.913,7.155    C330.907,366.372,330.492,366.788,329.979,366.788z"/>
		<path style="fill:#251626;" d="M370.481,316.973c-0.31,0-0.614-0.156-0.79-0.439c-1.503-2.421-4.761-4.449-4.794-4.469    c-0.436-0.269-0.572-0.841-0.303-1.277c0.268-0.436,0.838-0.575,1.276-0.304c0.149,0.092,3.662,2.274,5.398,5.071    c0.27,0.435,0.137,1.008-0.299,1.278C370.817,316.928,370.647,316.973,370.481,316.973z"/>
		<path style="fill:#251626;" d="M359.39,313.5c-0.311,0-0.614-0.156-0.79-0.439c-1.507-2.43-4.76-4.449-4.794-4.469    c-0.436-0.268-0.573-0.84-0.304-1.277c0.267-0.437,0.839-0.575,1.277-0.304c0.149,0.092,3.663,2.273,5.398,5.071    c0.27,0.436,0.136,1.008-0.299,1.278C359.727,313.455,359.557,313.5,359.39,313.5z"/>
		<path style="fill:#251626;" d="M358.679,304.907c-0.311,0-0.614-0.156-0.79-0.439c-1.502-2.421-4.761-4.449-4.794-4.469    c-0.436-0.269-0.572-0.841-0.304-1.277c0.27-0.437,0.838-0.573,1.277-0.304c0.149,0.092,3.663,2.274,5.398,5.071    c0.27,0.436,0.136,1.008-0.299,1.278C359.016,304.861,358.846,304.907,358.679,304.907z"/>
		<path style="fill:#251626;" d="M352.034,295.92c-0.311,0-0.614-0.156-0.79-0.439c-1.503-2.421-4.762-4.449-4.795-4.469    c-0.436-0.269-0.572-0.841-0.304-1.277c0.269-0.437,0.839-0.574,1.277-0.304c0.149,0.092,3.663,2.273,5.399,5.071    c0.27,0.435,0.137,1.008-0.299,1.278C352.371,295.874,352.201,295.92,352.034,295.92z"/>
		<path style="fill:#251626;" d="M341.896,289.408c-0.311,0-0.614-0.156-0.79-0.439c-1.502-2.421-4.761-4.449-4.794-4.469    c-0.436-0.269-0.572-0.841-0.304-1.277c0.268-0.437,0.837-0.573,1.277-0.304c0.149,0.092,3.663,2.274,5.398,5.071    c0.27,0.436,0.136,1.008-0.299,1.278C342.232,289.362,342.063,289.408,341.896,289.408z"/>
		<path style="fill:#251626;" d="M115.857,238.302c-0.414,0-0.791-0.279-0.898-0.698c-0.044-0.17-1.052-4.18-0.355-7.399    c0.109-0.5,0.604-0.818,1.104-0.711c0.5,0.109,0.819,0.603,0.711,1.104c-0.603,2.784,0.33,6.508,0.339,6.546    c0.127,0.497-0.173,1.002-0.67,1.129C116.011,238.293,115.934,238.302,115.857,238.302z"/>
		<path style="fill:#251626;" d="M115.572,224.175c-0.414,0-0.791-0.279-0.898-0.698c-0.044-0.17-1.052-4.18-0.354-7.399    c0.109-0.501,0.607-0.816,1.104-0.711c0.501,0.109,0.82,0.603,0.711,1.104c-0.604,2.784,0.329,6.508,0.338,6.546    c0.127,0.497-0.173,1.002-0.67,1.129C115.725,224.166,115.648,224.175,115.572,224.175z"/>
		<path style="fill:#251626;" d="M109.648,263.38c-0.414,0-0.791-0.279-0.898-0.698c-0.044-0.17-1.052-4.18-0.355-7.398    c0.11-0.5,0.607-0.82,1.104-0.711c0.5,0.109,0.819,0.603,0.711,1.104c-0.603,2.783,0.33,6.507,0.339,6.545    c0.127,0.497-0.173,1.002-0.67,1.129C109.801,263.371,109.724,263.38,109.648,263.38z"/>
		<path style="fill:#251626;" d="M116.143,254.748c-0.414,0-0.791-0.279-0.898-0.698c-0.044-0.17-1.052-4.18-0.355-7.399    c0.109-0.5,0.607-0.818,1.104-0.711c0.5,0.109,0.819,0.603,0.711,1.104c-0.603,2.784,0.33,6.508,0.339,6.546    c0.127,0.497-0.173,1.002-0.67,1.129C116.296,254.739,116.219,254.748,116.143,254.748z"/>
		<path style="fill:#251626;" d="M107.499,248.747c-0.414,0-0.791-0.279-0.898-0.698c-0.044-0.17-1.052-4.18-0.355-7.399    c0.11-0.5,0.606-0.818,1.104-0.711c0.5,0.109,0.819,0.603,0.711,1.104c-0.603,2.784,0.33,6.508,0.339,6.546    c0.127,0.497-0.173,1.002-0.67,1.129C107.652,248.738,107.575,248.747,107.499,248.747z"/>
		<path style="fill:#251626;" d="M370.151,325.11c-0.311,0-0.614-0.156-0.79-0.439c-1.502-2.421-4.761-4.449-4.794-4.469    c-0.436-0.269-0.572-0.841-0.304-1.277c0.269-0.437,0.839-0.573,1.277-0.304c0.149,0.092,3.663,2.274,5.398,5.071    c0.27,0.436,0.136,1.008-0.299,1.278C370.488,325.065,370.318,325.11,370.151,325.11z"/>
		<path style="fill:#251626;" d="M347.17,302.905c-0.311,0-0.614-0.156-0.79-0.439c-1.503-2.421-4.762-4.449-4.795-4.469    c-0.436-0.269-0.572-0.841-0.304-1.277c0.268-0.438,0.838-0.572,1.277-0.304c0.149,0.092,3.663,2.273,5.399,5.071    c0.27,0.435,0.137,1.008-0.299,1.278C347.507,302.86,347.337,302.905,347.17,302.905z"/>
		<path style="fill:#251626;" d="M153.181,273.832c-0.442,0-0.834-0.317-0.914-0.768l-7.917-45.139    c-0.088-0.505,0.249-0.986,0.754-1.075c0.501-0.086,0.985,0.249,1.075,0.754l7.917,45.139c0.088,0.505-0.249,0.986-0.754,1.075    C153.288,273.827,153.234,273.832,153.181,273.832z"/>
		<path style="fill:#251626;" d="M188.701,330.688c-0.39,0-0.752-0.247-0.881-0.636c-0.161-0.487,0.102-1.012,0.589-1.173    c0.501-0.166,50.268-17.073,59.779-55.119c0.123-0.5,0.627-0.804,1.125-0.675c0.498,0.124,0.801,0.628,0.675,1.125    c-9.758,39.044-60.484,56.262-60.995,56.431C188.896,330.673,188.798,330.688,188.701,330.688z"/>
		<path style="fill:#84556C;" d="M177.192,20.976c0,0,25.113,22.438,24.816,34.12s-32.576,26.25-38.437,17.741    S151.26,48.073,151.242,51.56s4.764,20.834,1.609,26.007c-2.476,4.057-47.909,23.774-57.456,10.395S102.247-14.62,177.192,20.976z    "/>
		<path style="fill:#EA7C71;" d="M166.934,135.857c0,0,3.654-7.782,5.344-5.47s1.032,6.898,1.032,6.898s4.037-7.519,5.244-6.898    s5.013,5.47,5.013,5.47s6.947,21.22-10.256,21.22S166.934,135.857,166.934,135.857z"/>
		<path style="fill:#251626;" d="M172.404,148.595c-0.059,0-0.116-0.002-0.174-0.005c-6.164-0.312-11.368-16.12-11.941-17.922    c-0.155-0.489,0.115-1.01,0.604-1.166c0.487-0.159,1.009,0.115,1.166,0.604c2.014,6.331,6.584,16.444,10.265,16.63    c3.347,0.173,9.36-8.924,12.292-14.699c0.232-0.458,0.788-0.639,1.248-0.407c0.457,0.232,0.639,0.791,0.407,1.248    C185.449,134.499,178.126,148.595,172.404,148.595z"/>
		<path style="fill:#251626;" d="M232.004,207.722c-6.226,0-12.33-3.537-18.142-10.511c-0.23-0.277-0.28-0.663-0.127-0.988    c0.152-0.326,0.48-0.535,0.84-0.535h34.512c0.344,0,0.658,0.189,0.82,0.492c0.161,0.303,0.142,0.67-0.05,0.955    C249.566,197.567,242.601,207.722,232.004,207.722z M216.614,197.544c5.029,5.524,10.199,8.321,15.39,8.321    c7.321,0,12.91-5.601,15.192-8.321H216.614z"/>
		<path style="fill:#251626;" d="M172.511,172.401c-7.951,0-14.442-2.915-14.848-3.101c-0.466-0.214-0.67-0.764-0.457-1.23    c0.212-0.468,0.766-0.672,1.23-0.458c0.143,0.064,14.418,6.459,26.068,0.031c0.45-0.247,1.014-0.083,1.262,0.364    c0.247,0.45,0.084,1.014-0.364,1.262C181.143,171.619,176.631,172.401,172.511,172.401z"/>
		<path style="fill:#251626;" d="M226.233,184.188c-0.299,0-0.593-0.144-0.772-0.412c-0.443-0.663-10.818-16.354-7.435-27.935    c1.229-4.207,4.123-7.334,8.602-9.294c2.743-1.2,5.286-1.748,7.603-1.829c-0.733-2.199-0.944-4.455-0.403-6.629    c0.893-3.58,4.246-8.121,15.151-9.424c4.91-0.587,7.925-2.402,8.962-5.397c1.578-4.562-1.739-11.091-5.832-15.184    c-2.77-2.769-5.67-4.178-7.382-3.584c-0.487,0.167-1.014-0.089-1.181-0.574c-0.168-0.484,0.09-1.014,0.574-1.181    c2.459-0.849,5.932,0.657,9.302,4.026c4.363,4.362,8.187,11.574,6.274,17.104c-0.886,2.559-3.426,5.789-10.496,6.633    c-7.8,0.932-12.492,3.708-13.569,8.029c-0.494,1.981-0.211,4.117,0.607,6.228c6.002,0.499,10.235,4.121,12.183,6.992    c1.729,2.549,2.11,4.925,0.969,6.053c-0.748,0.741-2.31,1.158-5.497-1.057c-3.581-2.49-7.051-6.187-8.93-10.207    c-2.305-0.014-4.846,0.5-7.59,1.701c-3.95,1.729-6.495,4.458-7.563,8.111c-3.142,10.747,7.091,26.229,7.195,26.384    c0.285,0.426,0.17,1.003-0.256,1.287C226.589,184.137,226.41,184.188,226.233,184.188z M237.139,146.706    c1.773,3.277,4.692,6.353,7.813,8.523c2.144,1.491,3.016,1.375,3.13,1.261c0.229-0.227,0.21-1.611-1.2-3.69    C244.954,149.958,241.591,147.365,237.139,146.706z"/>
		<path style="fill:#251626;" d="M238.572,182.135c-0.476,0-0.881-0.362-0.923-0.845c-0.042-0.477-0.793-11.719,19.095-15.09    c6.054-1.026,8.283-6.797,9.071-10.146c0.763-3.237,0.806-6.766,0.275-9.758c-1.325,0.735-2.513,0.989-3.191,1.076    c-3.333,0.42-6.607-1.14-7.451-3.57c-0.33-0.952-0.707-3.4,2.911-5.571c1.994-1.195,4.015-1.179,5.692,0.046    c1.332,0.974,2.396,2.709,3.125,4.872c2.045-2.182,3.368-5.739,3.728-10.3c0.663-8.386-3.599-14.481-7.72-20.375    c-6.289-8.993-12.792-18.293,0.46-34.68c0.322-0.398,0.906-0.463,1.305-0.138c0.399,0.322,0.461,0.907,0.138,1.305    c-12.372,15.3-6.816,23.247-0.382,32.449c4.309,6.162,8.765,12.534,8.051,21.585c-0.525,6.642-2.758,10.226-5.024,12.159    c0.758,3.426,0.787,7.531-0.107,11.325c-1.545,6.555-5.298,10.657-10.569,11.551c-18.101,3.068-17.585,12.694-17.554,13.103    c0.038,0.509-0.342,0.956-0.85,0.997C238.623,182.134,238.598,182.135,238.572,182.135z M261.277,139.195    c-0.615,0-1.266,0.209-1.963,0.627c-1.014,0.608-2.637,1.856-2.112,3.37c0.485,1.398,2.71,2.689,5.461,2.338    c1.089-0.141,2.094-0.515,3-1.104c-0.599-2.108-1.525-3.786-2.708-4.65C262.424,139.389,261.868,139.195,261.277,139.195z"/>
		<path style="fill:#251626;" d="M173.309,67.035c-0.466,0-0.868-0.35-0.921-0.824c-4.202-37.121-42.817-48.69-43.207-48.802    c-0.492-0.142-0.777-0.657-0.635-1.15c0.142-0.493,0.655-0.772,1.15-0.635c0.402,0.116,40.197,12.039,44.537,50.378    c0.057,0.509-0.309,0.969-0.819,1.027C173.379,67.033,173.343,67.035,173.309,67.035z"/>
		<path style="fill:#251626;" d="M188.231,60.68c-0.044,0-0.088-0.003-0.133-0.009c-0.508-0.073-0.859-0.544-0.787-1.052    c1.489-10.349-0.704-19.359-6.517-26.781c-13.77-17.582-43.482-20.727-43.78-20.757c-0.51-0.051-0.883-0.506-0.832-1.015    c0.052-0.511,0.517-0.868,1.015-0.832c1.251,0.124,30.804,3.259,45.059,21.46c6.137,7.837,8.457,17.321,6.894,28.191    C189.083,60.346,188.685,60.68,188.231,60.68z"/>
		<path style="fill:#251626;" d="M214.575,67.035c-0.434,0-0.822-0.306-0.91-0.749c-0.122-0.624-12.855-62.328-60.405-58.324    c-0.489,0.065-0.959-0.336-1.003-0.847s0.335-0.96,0.847-1.003c49.18-4.178,62.257,59.174,62.383,59.815    c0.099,0.503-0.228,0.991-0.732,1.091C214.694,67.029,214.635,67.035,214.575,67.035z"/>
		<path style="fill:#251626;" d="M140.188,77.36c-0.43,0-0.815-0.3-0.908-0.737c-0.054-0.258-5.615-26.218-19.337-56.836    c-0.21-0.468-0.001-1.017,0.467-1.227c0.468-0.209,1.018-0.001,1.227,0.467c13.809,30.809,19.405,56.952,19.461,57.213    c0.106,0.501-0.215,0.994-0.717,1.1C140.316,77.354,140.252,77.36,140.188,77.36z"/>
		<path style="fill:#251626;" d="M127.8,81.807c-0.225,0-0.451-0.082-0.629-0.246c-0.373-0.343-37.032-34.62-20.465-61.956    c0.266-0.438,0.838-0.578,1.276-0.313s0.578,0.837,0.313,1.276c-15.782,26.039,19.774,59.295,20.135,59.628    c0.377,0.347,0.401,0.935,0.053,1.312C128.299,81.706,128.05,81.807,127.8,81.807z"/>
		<path style="fill:#251626;" d="M95.396,88.89c-0.335,0-0.657-0.18-0.823-0.497c-0.056-0.109-5.725-10.986-8.841-23.896    c-4.176-17.298-1.897-30.393,6.589-37.874c0.385-0.337,0.972-0.303,1.31,0.083c0.339,0.384,0.302,0.971-0.082,1.31    c-19.312,17.023,2.447,59.09,2.669,59.514c0.238,0.454,0.063,1.015-0.391,1.254C95.689,88.855,95.541,88.89,95.396,88.89z"/>
		<path style="fill:#251626;" d="M81.188,104.364c-0.285,0-0.566-0.131-0.748-0.377c-0.259-0.352-25.639-35.413-3.796-61.487    c0.33-0.391,0.916-0.445,1.308-0.115c0.393,0.329,0.444,0.915,0.115,1.308c-20.917,24.967,3.616,58.853,3.867,59.192    c0.305,0.412,0.217,0.995-0.196,1.298C81.572,104.305,81.379,104.364,81.188,104.364z"/>
	</g>
</g>















</svg>
