<?xml version="1.0" encoding="UTF-8"?>
<!-- Generator: Adobe Illustrator 25.1.0, SVG Export Plug-In . SVG Version: 6.00 Build 0)  -->
<svg xmlns="http://www.w3.org/2000/svg" xmlns:xlink="http://www.w3.org/1999/xlink" version="1.1" id="Capa_1" x="0px" y="0px" viewBox="0 0 500 500" style="enable-background:new 0 0 500 500;" xml:space="preserve" width="512" height="512">
<g>
	<g>
		<path style="fill:#251426;" d="M410.725,404.699l26.193,22.076l5.748-7.181l-9.816-4.047c0,0,13.688,5.668,21.319-17.751    c0,0-27.786,19.138-33.745-7.011L410.725,404.699z"/>
		<polygon style="fill:#757A91;" points="412.593,427.338 439.395,392.287 348.536,312.72 218.039,346.52 214.246,370.933     344.617,352.484   "/>
		<path style="fill:#757A91;" d="M184.232,351.569c0,0-20.949,48.315,34.397,37.016l17.816-30.675L184.232,351.569z"/>
		<path style="fill:#E08392;" d="M258.811,265.059l27.565,12.811c0,0,24.352-64.745-23.103-56.475L258.811,265.059z"/>
		<path style="fill:#F2BA9B;" d="M339.765,290.398c0,0-50.838,50.635-57.29,41.844c-6.453-8.791-8.005-33.87-8.005-33.87    l48.05-8.955L339.765,290.398z"/>
		<path style="fill:#F2BA9B;" d="M81.251,274.032c0,0,62.925-44.605,86.345-39.757c23.421,4.848,10.315,30.71,5.05,31.015    c-5.266,0.306-72.126,20.965-72.126,20.965L81.251,274.032z"/>
		<path style="fill:#E08392;" d="M150.882,265.059l-11.339-28.292c0,0,32.886-13.864,68.18-9.063l-4.185,27.936L150.882,265.059z"/>
		<path style="fill:#D43F16;" d="M263.738,63.838c0,0,5.713-55.964-33.914-63.281c-39.627-7.318-53.864,60.516-87.129,22.937    c0,0-14.636,20.127,2.972,34.328c0,0-8.249,5.081-20.047-12.434c0,0-12.566,33.737,4.326,44.084    C146.837,99.818,232.943,44.651,263.738,63.838z"/>
		<path style="fill:#F2BA9B;" d="M231.962,189.409v37.735l15.081-3.59c0,0-7.994,30.836-20.794,34.231    c-12.8,3.395-27.894-31.391-27.894-31.391l17.463,3.272l-5.373-40.257H231.962z"/>
		<path style="fill:#F2BA9B;" d="M165.432,75.47c0,0,43.868-44.634,90.095-19.198c34.586,19.031,20.845,141.771-37.396,134.9    C176.848,186.302,146.952,101.23,165.432,75.47z"/>
		<path style="fill:#D43F16;" d="M165.432,75.47c0,0,4.258,80.028,23.848,87.546c35.158,13.491-11.812-32.58,36.993-29.696    c31.295,1.849,3.326,28.077,30.024,21.454c20.08-4.981,4.994-91.544,2.404-96.307c-2.589-4.763,33.65,16.637,16.836,70.842    c-5.64,18.18,39.339,30.063,5.132,57.862c-60.727,49.351-145.055,4.486-123.678-22.94    C186.399,126.5,112.313,123.141,165.432,75.47z"/>
		<path style="fill:#251626;" d="M238.507,133.1c-0.08,0-0.163-0.005-0.246-0.017c-4.073-0.581-17.314-3.869-17.875-4.008    c-0.507-0.126-0.815-0.639-0.69-1.146c0.126-0.508,0.634-0.816,1.146-0.69c0.132,0.033,12.83,3.186,17.263,3.907    c-0.112-2.909-6.607-16.188-13.193-28.027c-0.254-0.456-0.089-1.032,0.367-1.286c0.46-0.255,1.033-0.088,1.286,0.366    c5.669,10.19,14.909,27.677,13.106,30.3C239.403,132.888,238.988,133.1,238.507,133.1z"/>
		<path style="fill:#251626;" d="M219.758,165.291c-0.567,0-1.109-0.188-1.597-0.561c-4.148-3.17-3.781-21.59-3.725-23.68    c0.014-0.522,0.487-0.898,0.97-0.92c0.522,0.014,0.934,0.449,0.92,0.97c-0.199,7.521,0.434,20.18,2.983,22.127    c0.228,0.175,0.432,0.212,0.704,0.133c4.24-1.278,11.584-14.628,14.055-19.663c0.23-0.467,0.798-0.659,1.265-0.432    c0.469,0.23,0.662,0.796,0.432,1.265c-0.946,1.929-9.414,18.895-15.208,20.64C220.288,165.251,220.02,165.291,219.758,165.291z"/>
		<path style="fill:#251626;" d="M201.808,111.842c-0.007,0-0.015,0-0.021,0c-4.258-0.038-6.7-12.289-7.348-16.043    c-0.089-0.514,0.257-1.004,0.771-1.092c0.511-0.089,1.004,0.257,1.092,0.771c1.204,6.976,3.702,14.458,5.501,14.474    c0.002,0,0.004,0,0.005,0c1.693,0,3.11-7.502,3.325-14.246c0.017-0.522,0.409-0.986,0.975-0.914    c0.522,0.017,0.931,0.452,0.914,0.975C206.903,99.541,206.172,111.842,201.808,111.842z"/>
		<path style="fill:#251626;" d="M246.375,111.392c-0.007,0-0.015,0-0.021,0c-4.14-0.037-8.755-12.19-10.07-15.914    c-0.175-0.492,0.084-1.032,0.576-1.206c0.497-0.175,1.033,0.083,1.206,0.576c2.486,7.034,6.369,14.635,8.305,14.653    c0.002,0,0.004,0,0.005,0c1.692,0,3.111-7.502,3.326-14.246c0.016-0.522,0.387-0.959,0.975-0.914    c0.522,0.017,0.931,0.452,0.914,0.975C251.47,99.091,250.739,111.392,246.375,111.392z"/>
		
			<ellipse transform="matrix(0.7589 -0.6512 0.6512 0.7589 -41.7906 125.918)" style="fill:#F2BA9B;" cx="149.162" cy="119.399" rx="11.745" ry="11.745"/>
		<path style="fill:#F2BA9B;" d="M294.849,105.413c-0.055,6.049-5.004,10.908-11.053,10.853    c-6.049-0.055-10.908-5.004-10.853-11.053c0.055-6.049,5.004-10.909,11.053-10.853C290.045,94.415,294.904,99.364,294.849,105.413    z"/>
		<path style="fill:#251626;" d="M153.303,126.179c-0.013,0-0.026,0-0.039-0.001c-0.522-0.021-0.928-0.461-0.907-0.982    c0.118-2.95-0.585-5.04-2.09-6.214c-2.636-2.054-6.946-0.816-6.989-0.805c-0.501,0.152-1.027-0.139-1.173-0.64    c-0.148-0.501,0.139-1.026,0.64-1.174c0.212-0.064,5.292-1.52,8.686,1.127c2.014,1.569,2.961,4.187,2.817,7.781    C154.226,125.78,153.807,126.179,153.303,126.179z"/>
		<path style="fill:#251626;" d="M282.368,114.129c-0.397,0-0.767-0.252-0.898-0.649c-1.524-4.625-1.43-8.077,0.279-10.262    c1.962-2.507,5.244-2.287,5.385-2.277c0.52,0.04,0.91,0.494,0.871,1.015c-0.04,0.519-0.506,0.9-1.01,0.871l0,0    c-0.025,0.003-2.439-0.142-3.765,1.57c-1.269,1.634-1.255,4.57,0.038,8.491c0.163,0.496-0.106,1.03-0.602,1.195    C282.565,114.115,282.465,114.129,282.368,114.129z"/>
		<path style="fill:#EA7C71;" d="M198.322,128.436c-0.468,6.166-5.846,10.785-12.012,10.317    c-6.166-0.468-10.785-5.846-10.317-12.012c0.468-6.166,5.846-10.785,12.012-10.317C194.171,116.892,198.79,122.27,198.322,128.436    z"/>
		<path style="fill:#EA7C71;" d="M263.705,123.687c-0.468,6.166-5.846,10.785-12.012,10.317    c-6.166-0.468-10.785-5.846-10.317-12.012c0.468-6.166,5.846-10.785,12.012-10.317    C259.554,112.143,264.173,117.521,263.705,123.687z"/>
		<path style="fill:#251626;" d="M209.535,204.585c-8.875,0-13.496-5.122-15.557-10.137c-2.376,1.347-6.039,2.337-11.674,1.999    c-11.166-0.668-15.861-9.077-16.531-16.723c0-0.003-0.001-0.005-0.001-0.007c-1.689,0.129-3.497-0.28-5.317-1.241    c-3.858-2.037-5.427-6.279-4.423-11.944c0.506-2.851,1.616-5.804,3.03-8.42c-3.4-1.361-4.349-3.954-4.479-6.117    c-0.193-3.207,1.365-7.074,3.419-10.374c-1.188-0.65-2.026-1.583-2.499-2.789c-1.732-4.415,2.33-10.867,2.505-11.14    c0.281-0.439,0.863-0.567,1.305-0.288c0.44,0.28,0.57,0.864,0.29,1.305c-1.04,1.634-3.486,6.514-2.339,9.434    c0.325,0.826,0.916,1.453,1.791,1.896c2.141-3.018,4.561-5.296,6.077-5.677c1.22-0.307,2.284,0.05,2.922,0.977    c0.872,1.267,0.701,3.262-0.415,4.853c-0.744,1.062-2.997,3.395-7.819,2.135c-0.005-0.002-0.009-0.003-0.014-0.004    c-1.938,3.031-3.51,6.65-3.335,9.56c0.136,2.254,1.304,3.766,3.553,4.577c2.269-3.629,5.066-6.312,7.419-6.631    c2.266-0.3,4.573,0.702,5.736,2.511c0.867,1.349,0.92,2.893,0.139,4.129c-0.835,1.325-3.38,3.4-11.07,2.428    c-0.466-0.059-0.906-0.134-1.319-0.223c-1.391,2.486-2.534,5.37-3.035,8.19c-0.601,3.388-0.492,7.863,3.443,9.942    c1.681,0.887,3.131,1.132,4.349,1.018c-0.012-5.039,1.741-9.059,4.383-9.691c1.405-0.333,2.558,0.089,3.169,1.161    c1.101,1.932,0.099,5.465-2.234,7.875c-1.003,1.036-2.14,1.762-3.364,2.172c0.006,0.073,0.011,0.146,0.018,0.219    c0.601,6.86,4.794,14.403,14.76,15.001c5.507,0.327,8.868-0.657,10.922-1.921c-0.367-1.228-0.586-2.41-0.684-3.462    c-0.351-3.749,0.589-6.36,2.395-6.654c0.991-0.155,1.944,0.307,2.625,1.279c1.053,1.501,1.485,4.369-0.051,7.116    c-0.405,0.725-1.045,1.595-2.045,2.429c1.801,4.659,6.081,9.587,14.5,9.341c4.773-0.119,8.657-1.947,11.568-4.397    c-0.701-0.478-1.253-0.969-1.681-1.417c-2.225-2.332-3.028-5.512-2.149-8.505c0.867-2.954,3.199-5.158,6.238-5.895    c2.619-0.641,4.032,0.272,4.757,1.149c1.473,1.782,1.368,5.125-0.272,8.725c-0.826,1.814-2.069,3.737-3.71,5.509    c3.073,1.245,8.055,1.854,15.998-0.072c8.198-1.99,12.31-4.9,14.364-7.445c-2.974-1.042-5.14-2.92-5.757-5.108    c-0.536-1.905,0.156-3.832,1.951-5.426c1.306-1.162,3-1.376,4.533-0.573c2.206,1.158,3.491,4.041,3.124,7.012    c-0.089,0.73-0.319,1.739-0.874,2.895c2.642,0.404,10.307,0.728,16.275-7.465c1.461-2.004,2.581-3.807,3.419-5.41    c-1.847-0.935-3.433-2.206-4.512-3.546c-2.066-2.568-2.153-5.161-0.226-6.768c2.361-1.969,5.383-2.168,7.19-0.478    c0.866,0.812,2.828,3.52,0.112,9.816c2.82,0.945,6.009,0.906,8.528-1.05c3.235-2.51,3.746-8.934,1.241-15.619    c-1.292-3.448-3.593-7.203-6.69-9.493c-0.374,1.254-1.073,2.234-2.196,2.764c-3.047,1.437-6.228,0.471-7.898-1.036    c-1.166-1.052-1.626-2.349-1.232-3.469c0.334-0.949,1.392-2.118,4.531-2.296c1.893-0.113,3.654,0.258,5.262,0.967    c-0.056-1.955-0.58-4.426-1.568-7.09c-0.581-1.566-1.26-3.014-1.984-4.276c-1.266,0.702-2.763,0.861-4.328,0.419    c-2.394-0.679-4.265-2.595-4.258-4.362c0.002-0.611,0.258-2.103,2.588-2.746c2.221-0.611,4.487,1.086,6.418,3.798    c0.064-0.091,0.126-0.186,0.187-0.286c3.373-5.515-4.021-12.567-4.096-12.637c-0.38-0.358-0.399-0.957-0.042-1.337    c0.356-0.379,0.957-0.399,1.335-0.043c0.353,0.331,8.591,8.176,4.416,15.003c-0.22,0.358-0.461,0.685-0.722,0.979    c0.864,1.479,1.631,3.137,2.258,4.83c1.047,2.823,1.798,6.088,1.66,8.758c3.831,2.478,6.624,6.87,8.13,10.89    c2.361,6.3,2.703,14.241-1.852,17.776c-3.221,2.501-7.133,2.494-10.508,1.283c-0.874,1.693-2.057,3.61-3.632,5.773    c-4.628,6.352-11.527,9.401-18.435,8.163c-0.135-0.024-0.268-0.05-0.4-0.077c-2.147,3.008-6.614,6.503-15.862,8.747    c-8.967,2.175-14.527,1.238-17.888-0.343c-3.254,2.924-7.71,5.16-13.258,5.3C209.928,204.583,209.73,204.585,209.535,204.585z     M225.691,184.151c-0.355,0-0.752,0.053-1.191,0.159c-2.375,0.576-4.194,2.293-4.869,4.591c-0.686,2.337-0.049,4.83,1.703,6.667    c0.424,0.445,0.991,0.933,1.737,1.4c1.678-1.717,2.934-3.619,3.748-5.404c1.297-2.847,1.512-5.555,0.535-6.737    C226.981,184.376,226.424,184.151,225.691,184.151z M195.425,184.384c-0.024,0-0.047,0.002-0.071,0.006    c-0.338,0.054-1.102,1.557-0.816,4.611c0.068,0.73,0.201,1.527,0.411,2.36c0.464-0.479,0.793-0.951,1.025-1.367    c1.088-1.944,0.9-4.041,0.153-5.108C195.991,184.692,195.727,184.384,195.425,184.384z M254.027,180.64    c-0.428,0-0.904,0.15-1.387,0.578c-1.258,1.12-1.726,2.297-1.387,3.5c0.474,1.68,2.415,3.186,5.025,3.989    c0.577-1.083,0.803-2.024,0.886-2.692c0.303-2.46-0.841-4.432-2.127-5.108C254.76,180.761,254.413,180.64,254.027,180.64z     M170.977,169.909c-0.127,0-0.281,0.018-0.467,0.063c-1.453,0.347-2.821,3.314-2.923,7.349c0.896-0.404,1.582-0.976,2.06-1.469    c1.98-2.045,2.477-4.696,1.949-5.623C171.535,170.124,171.413,169.909,170.977,169.909z M277.273,166.212    c-0.939,0-1.999,0.406-2.939,1.19c-1.532,1.278-0.169,3.315,0.488,4.131c0.933,1.16,2.293,2.233,3.859,3.025    c1.782-4.094,1.485-6.631,0.339-7.705C278.56,166.422,277.948,166.212,277.273,166.212z M161.977,156.947    c0.166,0.027,0.336,0.051,0.511,0.073c7.09,0.898,8.859-0.968,9.233-1.56c0.524-0.833,0.143-1.672-0.131-2.099    c-0.644-1.002-2.1-1.906-3.892-1.659C166.106,151.918,163.912,154.003,161.977,156.947z M277.354,146.961    c-0.178,0-0.358,0.005-0.54,0.015c-1.873,0.107-2.702,0.607-2.855,1.038c-0.128,0.365,0.152,0.929,0.716,1.437    c1.219,1.101,3.561,1.799,5.824,0.73c0.669-0.316,1.111-1.054,1.324-2.103C280.455,147.372,278.96,146.961,277.354,146.961z     M160.959,140.645c2.28,0.436,4.134-0.114,5.134-1.539c0.704-1.004,0.759-2.181,0.404-2.695c-0.07-0.103-0.254-0.373-0.902-0.215    C164.598,136.446,162.74,138.222,160.959,140.645z M273.315,129.772c-0.136,0-0.267,0.017-0.393,0.052    c-0.548,0.15-1.199,0.435-1.2,0.93c-0.003,0.811,1.229,2.067,2.882,2.536c0.686,0.195,1.759,0.334,2.804-0.199    C275.977,131.036,274.483,129.772,273.315,129.772z"/>
		<path style="fill:#E08392;" d="M207.723,227.704c0,0,8.827,16.839,16.388,16.02c7.561-0.819,17.233-18.814,17.233-18.814    s23.103-7.91,28.776,0c5.673,7.91,11.021,110.894,11.021,110.894l-84.616,17.297c0,0-24.591-116.6-20.565-122.853    S207.723,227.704,207.723,227.704z"/>
		<path style="fill:#251426;" d="M343.153,467.679L354.082,500l8.654-3.229l-6.294-8.485c0,0,8.764,11.853,27.475-4.352    c0,0-33.73,2.241-25.228-23.245L343.153,467.679z"/>
		<polygon style="fill:#757A91;" points="325.668,485.358 384.079,465.978 323.276,339.999 200.815,365.26 200.815,390.815     302.918,378.031   "/>
		<g>
			<path style="fill:#DD7C2E;" d="M107.832,360.891c0,0-36.821-88.31,27.167-107.609c56.325-16.988,67.565,29.783,78.136,19.299     c10.571-10.484,22.959-39.906,50.319-23.996c32.519,18.909,46.821,78.671,12.554,93.749     c-34.267,15.078-44.698-20.235-49.578-6.529c-4.88,13.707-27.212,55.899-60.092,61.369     C133.458,402.643,112.193,374.091,107.832,360.891z"/>
			<polygon style="fill:#D43F16;" points="167.596,310.985 356.614,248.112 361.341,268.912 172.646,327.083    "/>
			<circle style="fill:#FFFFFF;" cx="172.646" cy="317.088" r="18.717"/>
			<polygon style="fill:#251426;" points="134.196,305.785 147.715,345.77 132.336,351.569 122.142,310.985    "/>
			<path style="fill:#251626;" d="M134.999,321.815c-0.407,0-0.783-0.264-0.906-0.674c-0.15-0.5,0.134-1.027,0.634-1.177     l217.361-65.23c0.498-0.149,1.027,0.134,1.177,0.634c0.15,0.499-0.134,1.027-0.634,1.177l-217.361,65.23     C135.18,321.802,135.088,321.815,134.999,321.815z"/>
			<path style="fill:#251626;" d="M137.269,330.84c-0.401,0-0.773-0.257-0.901-0.658c-0.158-0.498,0.116-1.029,0.614-1.188     l215.091-68.545c0.496-0.158,1.029,0.117,1.188,0.614c0.158,0.498-0.116,1.03-0.614,1.188l-215.091,68.545     C137.461,330.826,137.364,330.84,137.269,330.84z"/>
			<path style="fill:#251626;" d="M139.543,339.909c-0.395,0-0.763-0.248-0.896-0.644c-0.167-0.495,0.099-1.031,0.594-1.198     l216.126-72.888c0.493-0.172,1.031,0.099,1.198,0.594c0.167,0.495-0.099,1.031-0.594,1.198l-216.126,72.888     C139.745,339.893,139.643,339.909,139.543,339.909z"/>
			<polygon style="fill:#DD7C2E;" points="346.147,244.847 354.769,277.87 396.796,263.712 386.396,233.41    "/>
			<path style="fill:#251626;" d="M368.432,284.04c-0.369,0-0.72-0.218-0.872-0.581l-19.382-46.327     c-0.201-0.482,0.026-1.035,0.508-1.237c0.48-0.2,1.035,0.026,1.237,0.508l19.382,46.327c0.201,0.482-0.026,1.035-0.508,1.237     C368.678,284.017,368.554,284.04,368.432,284.04z"/>
			<path style="fill:#251626;" d="M378.985,278.816c-0.376,0-0.731-0.226-0.879-0.597l-17.643-44.46     c-0.192-0.486,0.045-1.035,0.53-1.228c0.483-0.192,1.034,0.045,1.228,0.53l17.643,44.46c0.192,0.486-0.045,1.035-0.53,1.228     C379.219,278.794,379.101,278.816,378.985,278.816z"/>
			<path style="fill:#251626;" d="M389.633,274.977c-0.411,0-0.789-0.271-0.908-0.686l-12.693-44.477     c-0.143-0.502,0.148-1.025,0.65-1.169c0.504-0.14,1.026,0.148,1.169,0.65l12.693,44.477c0.143,0.502-0.148,1.025-0.65,1.169     C389.807,274.965,389.719,274.977,389.633,274.977z"/>
			<path style="fill:#251626;" d="M346.867,237.517c-2.265,0-4.108-1.842-4.108-4.107c0-2.265,1.843-4.107,4.108-4.107     c2.265,0,4.107,1.842,4.107,4.107C350.974,235.675,349.132,237.517,346.867,237.517z M346.867,231.194     c-1.222,0-2.217,0.994-2.217,2.216s0.994,2.216,2.217,2.216c1.222,0,2.216-0.994,2.216-2.216S348.089,231.194,346.867,231.194z"/>
			<path style="fill:#251626;" d="M360.173,234.355c-2.265,0-4.108-1.842-4.108-4.107c0-2.265,1.843-4.107,4.108-4.107     c2.265,0,4.107,1.842,4.107,4.107C364.279,232.513,362.437,234.355,360.173,234.355z M360.173,228.032     c-1.222,0-2.217,0.994-2.217,2.216s0.994,2.216,2.217,2.216c1.222,0,2.216-0.994,2.216-2.216S361.394,228.032,360.173,228.032z"/>
			<path style="fill:#251626;" d="M376.941,230.5c-2.265,0-4.107-1.842-4.107-4.107c0-2.265,1.842-4.108,4.107-4.108     c2.265,0,4.107,1.843,4.107,4.108C381.048,228.658,379.206,230.5,376.941,230.5z M376.941,224.177     c-1.222,0-2.216,0.994-2.216,2.217c0,1.222,0.994,2.216,2.216,2.216s2.216-0.994,2.216-2.216     C379.157,225.171,378.163,224.177,376.941,224.177z"/>
			<path style="fill:#251626;" d="M390.382,281.301c-2.265,0-4.108-1.842-4.108-4.107c0-2.265,1.843-4.108,4.108-4.108     c2.265,0,4.107,1.843,4.107,4.108C394.489,279.459,392.647,281.301,390.382,281.301z M390.382,274.977     c-1.222,0-2.217,0.994-2.217,2.217c0,1.222,0.994,2.216,2.217,2.216c1.222,0,2.216-0.994,2.216-2.216     C392.598,275.972,391.603,274.977,390.382,274.977z"/>
			<path style="fill:#251626;" d="M380.917,284.462c-2.265,0-4.107-1.842-4.107-4.107c0-2.265,1.842-4.107,4.107-4.107     c2.265,0,4.108,1.842,4.108,4.107C385.025,282.62,383.182,284.462,380.917,284.462z M380.917,278.14     c-1.222,0-2.216,0.994-2.216,2.216s0.994,2.216,2.216,2.216c1.222,0,2.217-0.994,2.217-2.216S382.14,278.14,380.917,278.14z"/>
			<path style="fill:#251626;" d="M369.112,290.362c-2.265,0-4.107-1.842-4.107-4.107c0-2.265,1.842-4.107,4.107-4.107     c2.265,0,4.107,1.842,4.107,4.107C373.219,288.52,371.377,290.362,369.112,290.362z M369.112,284.04     c-1.222,0-2.216,0.994-2.216,2.216c0,1.222,0.994,2.216,2.216,2.216s2.216-0.994,2.216-2.216     C371.328,285.034,370.333,284.04,369.112,284.04z"/>
		</g>
		<path style="fill:#F2BA9B;" d="M342.795,279.685c0,0-3.619-32.788-14.392-34.948c-3.711-0.744,3.152,17.964,3.152,17.964    s-5.214-11.095-18.279-3.085c-13.065,8.01,4.758,12.149,4.523,26.426C317.564,300.319,344.212,298.893,342.795,279.685z"/>
		<path style="fill:#251626;" d="M325.641,266.005c-0.292,0-0.579-0.134-0.764-0.387c-2.577-3.52-5.587-6.637-6.442-6.671    c-0.516-0.02-0.935-0.451-0.923-0.967c0.012-0.514,0.416-0.924,0.93-0.924c0,0,0.004,0,0.005,0    c2.274,0.015,6.321,5.211,7.955,7.444c0.308,0.422,0.217,1.013-0.204,1.321C326.03,265.946,325.835,266.005,325.641,266.005z"/>
		<path style="fill:#251626;" d="M319.729,270.178c-0.315,0-0.622-0.157-0.802-0.444c-1.153-1.841-4.717-6.773-7.32-7.472    c-0.504-0.136-0.803-0.655-0.668-1.159c0.137-0.503,0.66-0.799,1.159-0.667c3.786,1.017,7.967,7.553,8.432,8.296    c0.277,0.442,0.143,1.026-0.3,1.303C320.073,270.132,319.9,270.178,319.729,270.178z"/>
		<path style="fill:#F2BA9B;" d="M100.793,274.032l81.164,30.35c0,0,22.405-2.891,24.935-0.723    c2.53,2.168-16.121,3.614-16.121,3.614s18.635,12.028,16.829,13.597c-1.807,1.568-16.294-5.155-16.294-5.155    s15.814,11.825,12.381,12.072c-3.433,0.247-16.37-6.067-16.37-6.067s11.868,8.848,10.422,10.293    c-1.446,1.445-22.117-4.026-25.093-14.925c0,0-72.905-18.868-81.936-21.467C71.557,290.108,68.857,266.177,100.793,274.032z"/>
		<path style="fill:#251626;" d="M192.297,317.413c-0.2,0-0.404-0.064-0.575-0.196c-0.646-0.497-4.71-3.031-6.221-3.966    c-0.444-0.275-0.581-0.858-0.307-1.302c0.275-0.444,0.857-0.583,1.302-0.307c0.564,0.349,5.538,3.429,6.378,4.074    c0.414,0.318,0.492,0.911,0.173,1.326C192.862,317.285,192.582,317.413,192.297,317.413z"/>
		<path style="fill:#251626;" d="M189.143,323.534c-0.131,0-0.265-0.028-0.393-0.088c-0.379-0.176-4.91-2.916-6.841-4.085    c-0.446-0.271-0.589-0.852-0.319-1.299c0.271-0.446,0.852-0.586,1.299-0.318c2.39,1.449,6.315,3.814,6.67,3.995    c0.46,0.234,0.656,0.797,0.43,1.261C189.826,323.336,189.492,323.534,189.143,323.534z"/>
		<path style="fill:#251626;" d="M339.765,379.05c-0.365,0-0.714-0.213-0.868-0.57l-16.2-37.441l-77.219,11.465    c-0.511,0.078-0.995-0.28-1.074-0.797c-0.077-0.516,0.28-0.997,0.797-1.074l77.936-11.571c0.418-0.059,0.837,0.167,1.006,0.56    l16.489,38.106c0.207,0.479-0.013,1.036-0.492,1.244C340.018,379.025,339.891,379.05,339.765,379.05z"/>
		<path style="fill:#251626;" d="M321.035,464.454c-0.421,0-0.804-0.283-0.915-0.709c-0.13-0.506,0.174-1.021,0.68-1.152l55-14.197    c0.509-0.124,1.021,0.174,1.152,0.68c0.13,0.506-0.174,1.021-0.68,1.152l-55,14.197    C321.193,464.445,321.114,464.454,321.035,464.454z"/>
		<path style="fill:#251626;" d="M402.205,416.214c-0.204,0-0.41-0.066-0.583-0.201c-0.411-0.323-0.483-0.917-0.161-1.328    l24.238-30.882c0.322-0.411,0.917-0.484,1.328-0.161c0.411,0.323,0.483,0.917,0.161,1.328l-24.238,30.882    C402.763,416.09,402.485,416.214,402.205,416.214z"/>
		<path style="fill:#251626;" d="M222.676,252.739c-8.545,0-16.792-14.884-17.139-15.518c-0.251-0.458-0.083-1.032,0.375-1.283    c0.457-0.248,1.032-0.083,1.283,0.375c0.079,0.146,8.052,14.536,15.48,14.536c0.006,0,0.013,0,0.02,0    c6.199-0.022,16.664-15.228,20.174-21.085c0.268-0.449,0.848-0.595,1.296-0.325c0.448,0.268,0.594,0.848,0.325,1.296    c-0.537,0.898-13.263,21.974-21.788,22.005C222.693,252.739,222.684,252.739,222.676,252.739z"/>
		<path style="fill:#251626;" d="M263.456,249.531c-0.055,0-0.111-0.005-0.167-0.015c-0.514-0.092-0.856-0.583-0.764-1.097    c0.015-0.083,1.481-8.365,1.008-11.716c-0.073-0.517,0.287-0.995,0.804-1.068c0.521-0.07,0.995,0.287,1.068,0.804    c0.514,3.649-0.957,11.96-1.019,12.312C264.303,249.209,263.905,249.531,263.456,249.531z"/>
		<path style="fill:#251626;" d="M177.603,253.883c-0.045,0-0.091-0.003-0.138-0.01c-0.517-0.076-0.874-0.556-0.799-1.072    c0.044-0.302,1.102-7.421,2.844-10.67c0.246-0.46,0.819-0.633,1.28-0.386c0.46,0.247,0.633,0.82,0.386,1.28    c-1.587,2.96-2.629,9.979-2.639,10.049C178.469,253.545,178.065,253.883,177.603,253.883z"/>
		<path style="fill:#251626;" d="M169.359,263.357c-0.288,0-0.572-0.13-0.757-0.379c-1.142-1.522-5.896-2.097-8.624-2.102    c-0.522-0.001-0.945-0.425-0.944-0.947c0.001-0.522,0.424-0.944,0.945-0.944h0.001c0.819,0.001,8.058,0.09,10.134,2.859    c0.314,0.417,0.229,1.01-0.189,1.323C169.755,263.295,169.557,263.357,169.359,263.357z"/>
		<path style="fill:#251626;" d="M142.707,266.526c-0.408,0-0.785-0.266-0.907-0.678c-0.148-0.501,0.137-1.027,0.639-1.174    c0.784-0.233,7.747-2.21,10.528-0.147c0.419,0.31,0.507,0.903,0.196,1.322c-0.307,0.42-0.902,0.508-1.322,0.196    c-1.531-1.134-6.25-0.33-8.866,0.442C142.885,266.514,142.796,266.526,142.707,266.526z"/>
		<path style="fill:#251626;" d="M177.25,272.081c-0.307,0-0.609-0.15-0.791-0.427c-1.047-1.593-5.755-2.461-8.477-2.634    c-0.521-0.033-0.917-0.483-0.884-1.004c0.033-0.522,0.478-0.912,1.004-0.883c0.817,0.052,8.036,0.592,9.937,3.483    c0.286,0.436,0.165,1.022-0.271,1.309C177.609,272.031,177.429,272.081,177.25,272.081z"/>
		<path style="fill:#251626;" d="M185.681,264.887c-0.307,0-0.609-0.15-0.791-0.427c-1.044-1.59-5.753-2.46-8.476-2.634    c-0.522-0.033-0.917-0.483-0.884-1.004c0.033-0.522,0.477-0.907,1.004-0.884c0.817,0.052,8.036,0.591,9.936,3.484    c0.286,0.436,0.165,1.022-0.271,1.309C186.039,264.837,185.859,264.887,185.681,264.887z"/>
		<path style="fill:#251626;" d="M190.603,272.628c-0.307,0-0.609-0.15-0.791-0.427c-1.044-1.59-5.753-2.46-8.476-2.634    c-0.522-0.033-0.917-0.483-0.884-1.004c0.033-0.521,0.473-0.92,1.004-0.884c0.817,0.052,8.036,0.591,9.937,3.484    c0.286,0.436,0.165,1.022-0.272,1.309C190.961,272.578,190.781,272.628,190.603,272.628z"/>
		<path style="fill:#251626;" d="M266.352,259.955c-0.307,0-0.609-0.15-0.791-0.427c-1.047-1.593-5.754-2.461-8.476-2.634    c-0.521-0.033-0.917-0.483-0.884-1.004c0.034-0.521,0.481-0.917,1.004-0.883c0.817,0.052,8.036,0.592,9.937,3.483    c0.286,0.436,0.165,1.022-0.271,1.309C266.71,259.906,266.53,259.955,266.352,259.955z"/>
		<path style="fill:#251626;" d="M333.124,401.821c-0.095,0-0.193-0.015-0.289-0.045c-0.497-0.16-0.771-0.691-0.611-1.189    c0.583-1.815-1.698-6.024-3.271-8.251c-0.302-0.427-0.2-1.017,0.226-1.318c0.428-0.302,1.017-0.199,1.318,0.226    c0.473,0.668,4.585,6.626,3.528,9.921C333.896,401.565,333.524,401.821,333.124,401.821z"/>
		<path style="fill:#251626;" d="M344.482,406.364c-0.096,0-0.193-0.015-0.289-0.045c-0.498-0.16-0.771-0.692-0.611-1.189    c0.582-1.811-1.697-6.024-3.27-8.253c-0.301-0.427-0.199-1.017,0.226-1.318c0.428-0.304,1.017-0.2,1.317,0.226    c0.473,0.668,4.585,6.627,3.527,9.922C345.253,406.108,344.882,406.364,344.482,406.364z"/>
		<path style="fill:#251626;" d="M341.397,420.756c-0.096,0-0.193-0.015-0.289-0.045c-0.498-0.16-0.771-0.692-0.611-1.189    c0.582-1.811-1.698-6.023-3.271-8.252c-0.301-0.427-0.2-1.017,0.226-1.318c0.428-0.303,1.017-0.198,1.318,0.226    c0.473,0.668,4.586,6.626,3.528,9.921C342.168,420.502,341.797,420.756,341.397,420.756z"/>
		<path style="fill:#251626;" d="M352.236,420.756c-0.096,0-0.193-0.015-0.289-0.045c-0.498-0.16-0.771-0.692-0.611-1.189    c0.582-1.811-1.697-6.023-3.27-8.252c-0.301-0.427-0.199-1.017,0.226-1.318c0.428-0.303,1.018-0.198,1.318,0.226    c0.473,0.668,4.585,6.627,3.527,9.921C353.007,420.502,352.636,420.756,352.236,420.756z"/>
		<path style="fill:#251626;" d="M360.374,435.174c-0.096,0-0.193-0.015-0.289-0.045c-0.498-0.16-0.771-0.692-0.611-1.189    c0.582-1.811-1.698-6.023-3.271-8.252c-0.301-0.427-0.2-1.017,0.226-1.318c0.427-0.302,1.017-0.199,1.317,0.226    c0.473,0.668,4.586,6.626,3.528,9.921C361.145,434.919,360.774,435.174,360.374,435.174z"/>
		<path style="fill:#251626;" d="M350.47,432.827c-0.095,0-0.193-0.015-0.289-0.045c-0.497-0.16-0.771-0.692-0.611-1.189    c0.583-1.815-1.698-6.024-3.271-8.252c-0.302-0.427-0.2-1.017,0.226-1.318c0.428-0.302,1.017-0.199,1.318,0.226    c0.473,0.668,4.585,6.626,3.528,9.921C351.242,432.571,350.869,432.827,350.47,432.827z"/>
		<path style="fill:#251626;" d="M374.246,356.456c-0.522,0-0.945-0.422-0.945-0.944c-0.004-1.903-3.467-5.209-5.649-6.847    c-0.418-0.313-0.502-0.906-0.189-1.323c0.313-0.419,0.907-0.501,1.323-0.189c0.656,0.49,6.399,4.895,6.406,8.356    c0.001,0.522-0.422,0.946-0.944,0.947C374.248,356.456,374.247,356.456,374.246,356.456z"/>
		<path style="fill:#251626;" d="M386.452,357.287c-0.522,0-0.945-0.422-0.945-0.944c-0.004-1.907-3.467-5.211-5.65-6.847    c-0.418-0.313-0.503-0.905-0.189-1.323c0.312-0.417,0.904-0.503,1.323-0.189c0.656,0.49,6.4,4.895,6.407,8.356    c0.001,0.523-0.422,0.946-0.944,0.947C386.454,357.287,386.453,357.287,386.452,357.287z"/>
		<path style="fill:#251626;" d="M387.942,371.932c-0.522,0-0.944-0.422-0.945-0.944c-0.004-1.907-3.467-5.211-5.65-6.845    c-0.418-0.314-0.503-0.906-0.19-1.324c0.314-0.415,0.906-0.502,1.324-0.19c0.655,0.491,6.4,4.895,6.407,8.356    C388.888,371.509,388.399,371.903,387.942,371.932z"/>
		<path style="fill:#251626;" d="M398.255,368.6c-0.522,0-0.945-0.422-0.945-0.944c-0.004-1.903-3.467-5.209-5.649-6.847    c-0.418-0.313-0.502-0.906-0.189-1.323c0.314-0.418,0.906-0.502,1.323-0.189c0.656,0.49,6.399,4.895,6.406,8.356    c0.001,0.523-0.422,0.946-0.944,0.947C398.256,368.6,398.256,368.6,398.255,368.6z"/>
		<path style="fill:#251626;" d="M410.431,379.818c-0.522,0-0.945-0.422-0.945-0.944c-0.004-1.907-3.467-5.212-5.649-6.846    c-0.418-0.314-0.503-0.906-0.19-1.324c0.313-0.416,0.905-0.503,1.324-0.19c0.655,0.491,6.4,4.895,6.407,8.357    c0.001,0.523-0.422,0.946-0.944,0.947C410.433,379.818,410.432,379.818,410.431,379.818z"/>
		<path style="fill:#251626;" d="M400.284,380.629c-0.522,0-0.945-0.422-0.945-0.944c-0.004-1.907-3.467-5.211-5.65-6.847    c-0.418-0.313-0.503-0.905-0.189-1.323c0.312-0.416,0.904-0.503,1.323-0.189c0.655,0.49,6.4,4.895,6.407,8.356    c0.001,0.522-0.422,0.946-0.944,0.947C400.286,380.629,400.285,380.629,400.284,380.629z"/>
		<path style="fill:#251626;" d="M242.811,260.681c-0.366,0-0.715-0.213-0.869-0.57c-0.207-0.48,0.014-1.036,0.493-1.243    c0.753-0.325,7.431-3.12,10.436-1.403c0.453,0.258,0.611,0.836,0.352,1.29c-0.259,0.453-0.835,0.611-1.29,0.352    c-1.655-0.942-6.244,0.417-8.748,1.498C243.062,260.656,242.936,260.681,242.811,260.681z"/>
		<path style="fill:#251626;" d="M242.248,253.683c-0.367,0-0.715-0.213-0.869-0.571c-0.207-0.48,0.014-1.036,0.493-1.243    c0.752-0.325,7.429-3.121,10.436-1.403c0.453,0.258,0.611,0.836,0.352,1.29c-0.26,0.452-0.835,0.612-1.29,0.352    c-1.655-0.943-6.244,0.417-8.748,1.498C242.499,253.658,242.372,253.683,242.248,253.683z"/>
		<path style="fill:#251626;" d="M228.93,263.336c-0.243,0-0.485-0.093-0.669-0.279c-0.368-0.369-0.367-0.968,0.002-1.336    c0.581-0.578,5.786-5.625,9.19-5.141c0.517,0.074,0.876,0.553,0.802,1.07c-0.074,0.517-0.549,0.883-1.07,0.802    c-1.89-0.28-5.652,2.683-7.587,4.608C229.413,263.244,229.171,263.336,228.93,263.336z"/>
		<path style="fill:#251626;" d="M145.666,259.469c-0.408,0-0.785-0.266-0.907-0.678c-0.148-0.5,0.138-1.027,0.639-1.174    c0.784-0.232,7.749-2.208,10.528-0.147c0.419,0.31,0.507,0.903,0.196,1.322c-0.309,0.42-0.903,0.509-1.322,0.196    c-1.531-1.134-6.25-0.33-8.866,0.442C145.845,259.457,145.755,259.469,145.666,259.469z"/>
		<path style="fill:#251626;" d="M144.126,298.53c-0.319,0-0.631-0.162-0.808-0.453c-1.435-2.352-5.808-2.171-5.844-2.163    c-0.527,0.015-0.966-0.376-0.992-0.897c-0.026-0.522,0.374-0.965,0.895-0.993c0.223-0.008,5.535-0.249,7.555,3.068    c0.272,0.446,0.131,1.028-0.315,1.299C144.463,298.485,144.294,298.53,144.126,298.53z"/>
		<path style="fill:#251626;" d="M133.296,298.53c-0.318,0-0.631-0.162-0.808-0.453c-1.434-2.352-5.808-2.171-5.844-2.163    c-0.535,0.015-0.966-0.376-0.992-0.897c-0.026-0.522,0.374-0.965,0.895-0.993c0.224-0.008,5.535-0.249,7.555,3.068    c0.272,0.446,0.131,1.028-0.315,1.299C133.633,298.485,133.464,298.53,133.296,298.53z"/>
		<path style="fill:#251626;" d="M131.165,291.673c-0.32,0-0.631-0.162-0.809-0.453c-1.418-2.328-5.797-2.169-5.843-2.163    c-0.525,0.005-0.967-0.375-0.993-0.896c-0.027-0.521,0.374-0.966,0.896-0.993c0.217-0.012,5.535-0.251,7.557,3.068    c0.272,0.446,0.13,1.028-0.316,1.3C131.502,291.629,131.332,291.673,131.165,291.673z"/>
		<path style="fill:#251626;" d="M152.367,306.087c-0.32,0-0.631-0.161-0.809-0.454c-1.432-2.352-5.798-2.172-5.844-2.162    c-0.539,0.017-0.965-0.376-0.992-0.897s0.373-0.965,0.895-0.993c0.215-0.01,5.536-0.25,7.556,3.069    c0.271,0.446,0.13,1.028-0.317,1.299C152.704,306.043,152.534,306.087,152.367,306.087z"/>
		<path style="fill:#251626;" d="M160.63,303.298c-0.319,0-0.631-0.161-0.808-0.453c-1.419-2.328-5.802-2.169-5.844-2.163    c-0.514,0.02-0.966-0.374-0.993-0.896c-0.027-0.522,0.374-0.966,0.896-0.993c0.226-0.003,5.537-0.247,7.556,3.068    c0.272,0.446,0.131,1.027-0.315,1.299C160.967,303.254,160.798,303.298,160.63,303.298z"/>
		<path style="fill:#251626;" d="M308.249,313.664c-0.461,0-0.928-0.059-1.395-0.194c-0.501-0.146-0.79-0.67-0.645-1.172    c0.146-0.501,0.671-0.788,1.172-0.645c2.612,0.758,5.739-2.321,5.77-2.353c0.365-0.373,0.963-0.378,1.337-0.011    c0.372,0.366,0.378,0.965,0.011,1.337C314.36,310.767,311.469,313.664,308.249,313.664z"/>
		<path style="fill:#251626;" d="M299.007,319.411c-0.461,0-0.928-0.059-1.395-0.194c-0.501-0.146-0.79-0.67-0.645-1.172    c0.145-0.501,0.669-0.79,1.172-0.645c2.613,0.76,5.739-2.321,5.77-2.353c0.366-0.375,0.965-0.378,1.337-0.011    c0.372,0.366,0.378,0.965,0.011,1.337C305.117,316.514,302.227,319.411,299.007,319.411z"/>
		<path style="fill:#251626;" d="M302.361,309.485c-0.462,0-0.929-0.059-1.396-0.194c-0.501-0.146-0.79-0.67-0.645-1.172    c0.145-0.5,0.668-0.79,1.172-0.645c2.621,0.76,5.739-2.319,5.77-2.352c0.364-0.374,0.964-0.379,1.337-0.011    c0.372,0.367,0.378,0.965,0.011,1.337C308.471,306.588,305.58,309.485,302.361,309.485z"/>
		<path style="fill:#251626;" d="M313.569,307.464c-0.461,0-0.929-0.059-1.396-0.194c-0.501-0.146-0.79-0.67-0.645-1.172    c0.145-0.5,0.667-0.787,1.172-0.645c2.622,0.764,5.739-2.321,5.77-2.352c0.364-0.374,0.962-0.379,1.337-0.011    c0.372,0.366,0.378,0.965,0.011,1.337C319.68,304.566,316.789,307.464,313.569,307.464z"/>
		<path style="fill:#251626;" d="M158.34,51.569c-2.099,0-3.98-0.323-5.6-1.04c-2.704-1.197-4.55-3.432-5.484-6.644    c-0.146-0.501,0.142-1.026,0.644-1.172c0.501-0.148,1.026,0.142,1.172,0.643c0.783,2.689,2.234,4.47,4.435,5.443    c8.425,3.729,26.598-5.154,42.634-12.99c15.8-7.721,30.722-15.006,37.323-11.326c14.969,8.355,14.531,23.834,14.524,23.99    c-0.02,0.522-0.488,0.932-0.98,0.907c-0.522-0.02-0.928-0.46-0.909-0.98c0.005-0.144,0.373-14.49-13.557-22.265    c-5.737-3.199-20.905,4.208-35.572,11.374C182.782,44.441,168.195,51.568,158.34,51.569z"/>
		<path style="fill:#251626;" d="M149.324,70.606c-12.728,0-20.06-9.91-20.144-10.026c-0.306-0.423-0.21-1.013,0.211-1.319    c0.424-0.305,1.014-0.211,1.32,0.211c0.369,0.507,9.189,12.356,24.572,8.483c7.138-1.795,12.796-6.707,17.788-11.041    c6.098-5.295,11.366-9.864,16.633-5.44c0.4,0.336,0.452,0.932,0.115,1.332c-0.333,0.4-0.93,0.453-1.332,0.115    c-3.847-3.234-7.699-0.204-14.176,5.42c-5.152,4.472-10.991,9.542-18.567,11.447C153.476,70.359,151.331,70.606,149.324,70.606z"/>
		<path style="fill:#251626;" d="M146.293,88.723c-1.05,0-2.079-0.139-3.086-0.418c-10.099-2.795-14.019-18.543-14.181-19.211    c-0.123-0.508,0.188-1.018,0.696-1.141c0.507-0.129,1.017,0.187,1.141,0.696c0.037,0.153,3.822,15.339,12.851,17.834    c4.803,1.327,10.362-1.169,16.518-7.421c0.366-0.373,0.964-0.379,1.337-0.011c0.372,0.366,0.377,0.965,0.011,1.337    C156.125,85.931,150.997,88.723,146.293,88.723z"/>
		<path style="fill:#251626;" d="M206.079,46.334c-0.22,0-0.44-0.076-0.62-0.231c-0.394-0.342-0.437-0.94-0.095-1.334    c4.062-4.683,8.686-7.132,13.746-7.278c9.124-0.271,16.186,6.931,16.483,7.238c0.365,0.374,0.356,0.972-0.016,1.336    c-0.373,0.367-0.97,0.36-1.337-0.016c-0.067-0.068-6.855-6.942-15.088-6.667c-4.504,0.134-8.662,2.364-12.359,6.626    C206.606,46.223,206.343,46.334,206.079,46.334z"/>
		<path style="fill:#251626;" d="M255.127,53.143c-0.013,0-0.026,0-0.038-0.001c-0.522-0.02-0.928-0.46-0.908-0.981    c0.017-0.42,1.331-41.965-25.989-43.266c-12.672-0.569-24.336,8.69-35.591,17.676c-13.348,10.657-25.957,20.726-37.708,10.505    c-0.394-0.342-0.436-0.94-0.093-1.334c0.344-0.395,0.941-0.434,1.334-0.093c10.562,9.191,22.02,0.04,35.287-10.555    c10.992-8.778,23.443-18.722,36.862-18.088c29.189,1.39,27.805,44.791,27.787,45.229C256.05,52.744,255.632,53.143,255.127,53.143    z"/>
		<path style="fill:#251626;" d="M302.918,378.976c-0.167,0-0.335-0.044-0.486-0.134c-0.356-0.214-0.532-0.636-0.432-1.04    l4.199-16.893c0.127-0.508,0.636-0.816,1.146-0.69c0.507,0.126,0.815,0.639,0.69,1.146l-3.449,13.877l8.603-7.801    c0.386-0.348,0.985-0.322,1.336,0.066c0.35,0.387,0.321,0.985-0.065,1.336l-10.906,9.888    C303.375,378.893,303.147,378.976,302.918,378.976z"/>
		<path style="fill:#251626;" d="M343.834,354.103c-0.059,0-0.12-0.005-0.18-0.018c-0.399-0.077-0.704-0.401-0.757-0.804    l-1.756-13.274c-0.068-0.517,0.296-0.993,0.813-1.061c0.513-0.071,0.993,0.296,1.061,0.813l1.386,10.472l4.991-8.839    c0.258-0.455,0.832-0.611,1.289-0.358c0.454,0.258,0.615,0.834,0.358,1.289l-6.382,11.299    C344.488,353.923,344.17,354.103,343.834,354.103z"/>
	</g>
	<g>
		<path style="fill:#C083AF;" d="M85.111,162.622c0,0-37.793,5.585-39.222,34.589c-2.213,44.909,58.978,43.335,58.978,43.335    L91.7,227.156c0,0,39.749-6.496,40.422-31.207C132.794,171.238,101.483,157.178,85.111,162.622z"/>
		<path style="fill:#251426;" d="M109.57,198.054L109.57,198.054c-3.189,0-5.954-2.163-6.723-5.261    c-0.447-1.797-0.167-3.661,0.788-5.248c0.955-1.587,2.47-2.707,4.267-3.155c0.55-0.137,1.115-0.206,1.679-0.206    c3.188,0,5.954,2.163,6.724,5.261c0.922,3.71-1.346,7.48-5.056,8.403C110.699,197.985,110.133,198.054,109.57,198.054z     M109.58,186.075c-0.409,0-0.821,0.05-1.222,0.151c-1.307,0.325-2.409,1.14-3.103,2.294c-0.694,1.154-0.898,2.51-0.572,3.817    c0.56,2.253,2.57,3.826,4.888,3.826c0,0,0,0,0.001,0c0.409,0,0.82-0.05,1.222-0.151c2.698-0.671,4.348-3.412,3.676-6.111    C113.909,187.649,111.899,186.075,109.58,186.075z"/>
		<path style="fill:#251426;" d="M68.62,208.241L68.62,208.241c-3.189,0-5.953-2.163-6.723-5.261    c-0.447-1.797-0.167-3.661,0.788-5.248c0.955-1.587,2.47-2.707,4.267-3.155c0.55-0.137,1.115-0.206,1.679-0.206    c3.188,0,5.953,2.163,6.724,5.261c0.922,3.71-1.346,7.48-5.056,8.403C69.749,208.171,69.184,208.241,68.62,208.241z     M68.63,196.262c-0.409,0-0.821,0.05-1.222,0.151c-1.307,0.325-2.409,1.14-3.103,2.294c-0.694,1.154-0.898,2.51-0.572,3.817    c0.56,2.253,2.569,3.826,4.888,3.826h0.001c0.409,0,0.82-0.05,1.222-0.151c2.698-0.671,4.348-3.412,3.676-6.111    C72.959,197.835,70.949,196.262,68.63,196.262z"/>
		<path style="fill:#251426;" d="M88.213,203.367L88.213,203.367c-3.189,0-5.953-2.163-6.723-5.261    c-0.447-1.797-0.167-3.661,0.788-5.248c0.955-1.587,2.47-2.707,4.267-3.155c0.55-0.137,1.115-0.206,1.679-0.206    c3.188,0,5.953,2.163,6.724,5.261c0.922,3.71-1.346,7.479-5.056,8.403C89.342,203.297,88.777,203.367,88.213,203.367z     M88.224,191.388c-0.409,0-0.821,0.05-1.222,0.151c-1.306,0.325-2.409,1.14-3.103,2.294c-0.694,1.154-0.898,2.51-0.572,3.817    c0.56,2.253,2.57,3.826,4.888,3.826h0.001c0.409,0,0.82-0.05,1.222-0.151c2.698-0.671,4.348-3.413,3.677-6.111    C92.552,192.961,90.542,191.388,88.224,191.388z"/>
	</g>
</g>















</svg>
