<?xml version="1.0" encoding="UTF-8"?>
<!-- Generator: Adobe Illustrator 25.1.0, SVG Export Plug-In . SVG Version: 6.00 Build 0)  -->
<svg xmlns="http://www.w3.org/2000/svg" xmlns:xlink="http://www.w3.org/1999/xlink" version="1.1" id="Capa_1" x="0px" y="0px" viewBox="0 0 500 500" style="enable-background:new 0 0 500 500;" xml:space="preserve" width="512" height="512">
<g>
	<g>
		<path style="fill:#251626;" d="M250.424,112.395c-2.375,0.013-3.798,0.714-3.796,1.832c0.005,1.959,3.977,5.458,11.869,5.458    h0.003c0.988,0,2.01-0.056,3.051-0.167C260.84,115.578,255.991,112.395,250.424,112.395z"/>
		<path style="fill:#EA7C71;" d="M355.809,380.695c0,0-50.565-40.39-50.993-48.095c-0.428-7.705,3.361-34.243,3.361-34.243    l18.738,15.294l42.471,42.491L355.809,380.695z"/>
		<path style="fill:#3D9C91;" d="M314.299,348.437l27.043-30.809c0,0-21.091-23.976-27.043-27.832    C308.347,285.94,279.07,327.464,314.299,348.437z"/>
		<path style="fill:#3D9C91;" d="M183.082,317.969l40.864-6.035c0,0,5.043-30.964,24.733-30.964s58.045-0.591,65.62,8.826    c7.575,9.417-8.941,82.967-44.057,87.014c-10.709,1.234-87.16,3.885-87.16,3.885V317.969z"/>
		<path style="fill:#EFA880;" d="M298.159,249.891l-9.976,32.145l12.398,1.724c0,0,1.924,30.538-12.094,29.891    c-14.018-0.647-23.535-32.639-23.535-32.639l9.766,0.22l0.844-31.341H298.159z"/>
		<path style="fill:#251426;" d="M112.151,205.287l5.742-33.312l-9.002-1.256l1.454,10.356c0,0-2.008-14.454-25.807-9.13    c0,0,30.224,13.912,10.891,32.128L112.151,205.287z"/>
		<path style="fill:#251426;" d="M37.936,224.971l-6.906-33.091l-8.833,2.141l5.159,9.096c0,0-7.18-12.704-27.356,0.996    c0,0,33.222,1.828,21.938,25.875L37.936,224.971z"/>
		<path style="fill:#EFA880;" d="M242.462,157.28c0,0,48.324-56.671,82.335-37.908s50.662,131.585-6.732,137.582    C277.383,261.204,230.291,186.004,242.462,157.28z"/>
		<path style="fill:#FFFFFF;" d="M288.757,113.449"/>
		<path style="fill:#DE8651;" d="M239.837,162.838c0,0,23.794,70.429,44.224,73.409c36.666,5.35-18.383-28.721,29.091-36.504    c30.441-4.991,9.263,26.233,33.46,14.104c18.198-9.123-13.511-87.113-17.026-91.125c-3.516-4.012,34.411,6.851,29.99,62.52    c-1.483,18.671,44.263,20.353,17.436,54.434c-47.625,60.504-138.274,35.668-123.684,4.719    C273.401,201.817,190.053,197.426,239.837,162.838z"/>
		<path style="fill:#251626;" d="M318.035,196.99c-5.108,0-10.862-0.125-11.231-0.133c-0.513-0.011-0.92-0.438-0.909-0.95    c0.012-0.512,0.361-0.923,0.951-0.91c0.134,0.004,13.005,0.285,17.415,0.018c-0.735-2.769-9.842-14.113-18.724-24.054    c-0.342-0.383-0.309-0.97,0.074-1.314c0.382-0.34,0.969-0.307,1.314,0.074c7.644,8.556,20.296,23.345,19.131,26.252    c-0.202,0.503-0.649,0.819-1.226,0.865C323.407,196.953,320.816,196.99,318.035,196.99z"/>
		<path style="fill:#251626;" d="M313.493,231.817c-0.372,0-0.746-0.084-1.116-0.254c-4.668-2.146-8.297-19.906-8.696-21.924    c-0.099-0.503,0.229-0.994,0.733-1.092c0.502-0.105,0.992,0.227,1.093,0.732c1.435,7.263,4.78,19.275,7.647,20.594    c0.261,0.12,0.462,0.111,0.704-0.025c3.797-2.144,7.959-16.546,9.241-21.913c0.12-0.5,0.627-0.814,1.121-0.689    c0.5,0.12,0.808,0.621,0.689,1.121c-0.492,2.057-4.952,20.174-10.135,23.102C314.36,231.7,313.929,231.817,313.493,231.817z"/>
		<path style="fill:#251626;" d="M284.758,184.385c-4,0-8.676-10.528-10.055-13.86c-0.196-0.476,0.029-1.019,0.503-1.216    c0.479-0.2,1.02,0.029,1.216,0.503c2.664,6.436,6.683,13.037,8.41,12.705c1.63-0.353,1.37-7.868,0.116-14.394    c-0.096-0.505,0.234-0.992,0.739-1.09c0.502-0.096,0.992,0.233,1.089,0.738c0.701,3.658,2.665,15.657-1.553,16.566    C285.07,184.369,284.914,184.385,284.758,184.385z"/>
		<path style="fill:#251626;" d="M327.435,174.317c-4.045,0-10.646-9.985-12.635-13.15c-0.273-0.434-0.143-1.008,0.293-1.281    c0.436-0.276,1.01-0.142,1.283,0.291c3.907,6.216,9.276,12.608,11.14,12.272c1.63-0.353,1.37-7.868,0.116-14.394    c-0.096-0.505,0.234-0.994,0.739-1.09c0.5-0.093,0.992,0.233,1.089,0.738c0.701,3.658,2.665,15.657-1.553,16.566    C327.755,174.301,327.597,174.317,327.435,174.317z"/>
		<circle style="fill:#EFA880;" cx="236.342" cy="202.967" r="11.557"/>
		<circle style="fill:#EFA880;" cx="362.633" cy="160.316" r="10.778"/>
		<path style="fill:#251626;" d="M241.577,208.602c-0.441,0-0.832-0.314-0.914-0.763c-0.524-2.856-1.651-4.71-3.35-5.511    c-2.977-1.408-6.846,0.716-6.884,0.738c-0.452,0.251-1.015,0.089-1.266-0.36c-0.25-0.449-0.088-1.016,0.361-1.265    c0.193-0.107,4.755-2.604,8.582-0.796c2.272,1.07,3.749,3.378,4.386,6.859c0.093,0.505-0.242,0.99-0.747,1.083    C241.688,208.597,241.632,208.602,241.577,208.602z"/>
		<path style="fill:#251626;" d="M362.868,169.131c-0.316,0-0.624-0.162-0.799-0.452c-2.464-4.108-3.121-7.443-1.951-9.908    c1.34-2.829,4.54-3.331,4.675-3.351c0.523-0.062,0.981,0.278,1.056,0.787c0.075,0.507-0.275,0.979-0.782,1.054    c-0.061,0.011-2.378,0.405-3.274,2.32c-0.863,1.842-0.215,4.659,1.872,8.142c0.264,0.44,0.122,1.012-0.319,1.276    C363.196,169.089,363.031,169.131,362.868,169.131z"/>
		<circle style="fill:#EA7C71;" cx="274.585" cy="202.613" r="11.017"/>
		<circle style="fill:#EA7C71;" cx="336.323" cy="183.919" r="11.017"/>
		<path style="fill:#251626;" d="M308.42,272.189c-6.132,0-10.317-3.283-12.832-6.868c-1.991,1.808-5.295,3.55-10.774,4.443    c-10.87,1.784-17.187-5.282-19.483-12.476c-0.001-0.004-0.002-0.005-0.003-0.009c-1.6,0.491-3.42,0.487-5.374-0.042    c-4.142-1.121-6.567-4.853-6.827-10.508c-0.131-2.847,0.296-5.922,1.088-8.74c-3.56-0.571-5.03-2.855-5.622-4.902    c-0.879-3.036-0.22-7.086,1.038-10.699c-1.281-0.367-2.288-1.081-3.003-2.137c-2.617-3.865-0.112-10.937-0.004-11.236    c0.174-0.482,0.704-0.729,1.19-0.56c0.483,0.174,0.734,0.707,0.56,1.19c-0.644,1.793-1.938,7.008-0.204,9.563    c0.491,0.723,1.193,1.197,2.13,1.434c1.403-3.361,3.232-6.071,4.606-6.765c1.104-0.558,2.204-0.447,3.015,0.305    c1.111,1.028,1.379,2.98,0.651,4.748c-0.485,1.181-2.15,3.861-7.044,3.741c-0.005,0-0.009,0-0.015-0.002    c-1.205,3.331-1.932,7.145-1.135,9.899c0.618,2.135,2.066,3.332,4.4,3.625c1.395-3.974,3.499-7.154,5.688-7.969    c2.11-0.783,4.54-0.318,6.049,1.17c1.125,1.107,1.508,2.578,1.028,3.934c-0.516,1.452-2.514,3.997-10.102,4.724    c-0.461,0.044-0.899,0.067-1.315,0.071c-0.799,2.687-1.273,5.704-1.143,8.52c0.155,3.381,1.227,7.653,5.455,8.798    c1.806,0.489,3.25,0.407,4.395,0.038c-1.102-4.835-0.288-9.074,2.111-10.252c1.274-0.627,2.473-0.467,3.292,0.429    c1.475,1.617,1.276,5.226-0.442,8.044c-0.739,1.21-1.673,2.153-2.76,2.813c0.021,0.069,0.043,0.138,0.065,0.207    c2.06,6.454,7.719,12.783,17.411,11.207c5.354-0.874,8.371-2.549,10.069-4.206c-0.617-1.098-1.083-2.184-1.405-3.174    c-1.147-3.523-0.809-6.232,0.86-6.907c0.917-0.369,1.932-0.127,2.797,0.66c1.334,1.216,2.369,3.874,1.489,6.843    c-0.233,0.783-0.66,1.755-1.438,2.773c2.735,4.085,7.882,7.868,15.94,5.833c4.556-1.147,7.889-3.741,10.154-6.723    c-0.777-0.307-1.412-0.658-1.922-0.998c-2.639-1.757-4.097-4.635-3.901-7.699c0.194-3.024,1.955-5.644,4.713-7.008    c2.377-1.174,3.929-0.609,4.814,0.076c1.799,1.392,2.422,4.624,1.625,8.435c-0.402,1.921-1.178,4.036-2.369,6.091    c3.218,0.529,8.133,0.04,15.341-3.529c7.439-3.683,10.758-7.364,12.179-10.252c-3.081-0.358-5.566-1.692-6.63-3.659    c-0.927-1.712-0.679-3.71,0.699-5.631c1.004-1.397,2.587-1.968,4.227-1.528c2.368,0.634,4.225,3.123,4.516,6.054    c0.071,0.721,0.068,1.739-0.214,2.969c2.628-0.182,10.053-1.532,14.009-10.684c0.968-2.24,1.655-4.214,2.112-5.934    c-1.974-0.498-3.772-1.375-5.098-2.429c-2.538-2.017-3.183-4.488-1.681-6.447c1.84-2.4,4.701-3.243,6.797-2.013    c1.008,0.592,3.477,2.767,2.229,9.398c2.922,0.302,5.965-0.429,7.96-2.851c2.563-3.109,1.663-9.387-2.187-15.263    c-1.985-3.031-5.006-6.136-8.475-7.666c-0.088,1.285-0.546,2.377-1.51,3.129c-2.613,2.039-5.877,1.797-7.806,0.714    c-1.346-0.76-2.069-1.904-1.932-3.064c0.115-0.985,0.878-2.335,3.852-3.185c1.796-0.516,3.563-0.54,5.26-0.211    c-0.477-1.862-1.513-4.121-3.036-6.463c-0.897-1.379-1.862-2.622-2.831-3.678c-1.061,0.945-2.468,1.43-4.064,1.337    c-2.445-0.133-4.654-1.568-5.031-3.267c-0.13-0.587-0.206-2.073,1.891-3.196c1.997-1.065,4.542,0.074,6.983,2.26    c0.042-0.1,0.081-0.205,0.118-0.316c2.05-6.036-6.577-11.193-6.664-11.246c-0.443-0.26-0.591-0.83-0.331-1.274    c0.261-0.442,0.831-0.591,1.274-0.329c0.41,0.24,10.015,5.991,7.483,13.448c-0.134,0.391-0.294,0.756-0.482,1.096    c1.15,1.234,2.246,2.66,3.214,4.15c1.614,2.482,3.04,5.453,3.485,8.044c4.214,1.552,7.844,5.164,10.158,8.696    c3.629,5.538,5.675,13.086,2.066,17.467c-2.55,3.094-6.305,3.936-9.81,3.503c-0.472,1.813-1.193,3.908-2.239,6.327    c-3.068,7.097-9.024,11.516-15.932,11.822c-0.134,0.005-0.268,0.011-0.4,0.013c-1.411,3.352-4.944,7.671-13.337,11.827    c-8.134,4.025-13.677,4.324-17.244,3.538c-2.492,3.51-6.286,6.621-11.583,7.955C311.541,271.991,309.922,272.189,308.42,272.189z     M294.903,255.336c-0.057,0-0.114,0.009-0.169,0.031c-0.313,0.125-0.721,1.733,0.214,4.604c0.223,0.685,0.524,1.421,0.905,2.175    c0.342-0.56,0.556-1.083,0.689-1.532c0.623-2.102-0.01-4.076-0.958-4.937C295.431,255.538,295.163,255.336,294.903,255.336z     M324.426,248.504c-0.5,0-1.077,0.162-1.73,0.485c-2.155,1.067-3.531,3.107-3.682,5.458c-0.153,2.393,0.998,4.648,3.077,6.033    c0.503,0.336,1.153,0.683,1.971,0.968c1.238-2.011,2.033-4.106,2.428-5.996c0.63-3.014,0.251-5.66-0.943-6.585    C325.233,248.626,324.859,248.504,324.426,248.504z M268.423,246.711c-0.159,0-0.371,0.049-0.655,0.189    c-1.319,0.647-1.991,3.79-1.217,7.686c0.772-0.581,1.308-1.277,1.66-1.855c1.459-2.391,1.363-5.044,0.656-5.818    C268.802,246.842,268.683,246.711,268.423,246.711z M350.668,239.037c-0.531,0-1.127,0.205-1.627,0.901    c-0.967,1.346-1.16,2.577-0.574,3.658c0.818,1.512,3.006,2.537,5.685,2.742c0.32-1.163,0.334-2.115,0.269-2.775    c-0.242-2.428-1.765-4.072-3.146-4.443C351.091,239.072,350.885,239.037,350.668,239.037z M262.58,229.702    c-0.468,0-0.961,0.08-1.462,0.267c-1.482,0.551-3.137,3.027-4.357,6.271c0.165-0.009,0.333-0.024,0.505-0.04    c6.998-0.669,8.295-2.844,8.526-3.494c0.323-0.912-0.224-1.635-0.58-1.986C264.629,230.143,263.673,229.702,262.58,229.702z     M370.077,220.133c-1.083,0-2.292,0.667-3.199,1.852c-1.195,1.557,0.554,3.218,1.361,3.859c1.147,0.91,2.684,1.648,4.358,2.07    c0.825-4.315-0.008-6.687-1.341-7.47C370.9,220.235,370.498,220.133,370.077,220.133z M256.267,215.391    c-0.132,0-0.302,0.036-0.52,0.147c-0.903,0.456-2.302,2.562-3.489,5.273c2.288-0.08,3.944-1.003,4.595-2.587    c0.46-1.117,0.257-2.259-0.194-2.675C256.603,215.496,256.489,215.391,256.267,215.391z M367.378,201.485    c-0.837,0-1.684,0.111-2.536,0.354c-1.774,0.509-2.463,1.167-2.516,1.614c-0.045,0.378,0.347,0.859,0.998,1.225    c1.406,0.792,3.807,0.959,5.748-0.56c0.574-0.447,0.839-1.25,0.816-2.304C369.068,201.6,368.228,201.485,367.378,201.485z     M358.164,186.039c-0.286,0-0.543,0.058-0.767,0.178c-0.492,0.262-1.057,0.676-0.951,1.152c0.173,0.778,1.627,1.719,3.315,1.812    c0.71,0.035,1.762-0.06,2.649-0.799C360.798,186.907,359.272,186.039,358.164,186.039z"/>
		<path style="fill:#EFA880;" d="M224.254,320.364c0,0,0.785-39.393,19.298-33.62c14.293,4.457-10.754,85.99-10.754,85.99    s109.943-38.072,116.393-37.139c6.45,0.933,32.42,29.38,26.223,28.734c-6.196-0.647-6.196-0.647-6.196-0.647l-20.027-17.457    c0,0,1.078,24.76-4.347,24.976c-5.425,0.216-19.008-13.339-19.008-13.339s-116.314,46.551-119.546,42.672    C203.057,396.655,224.254,320.364,224.254,320.364z"/>
		<path style="fill:#EFA880;" d="M388.074,368.159l-32.974-104.255c0,0,12.732-9.347,14.254-19.494s-5.396-29.904-5.166-23.715    c0.231,6.189-0.922,21.639-0.922,21.639s-4.381-23.678-6.687-21.639s0.692,27.866,0.692,27.866s-5.304-25.135-8.302-20.754    c-2.998,4.381,1.013,23.04,0,28.133s-14.344,12.31-3.228,12.914l18.967,111.841L388.074,368.159z"/>
		<polygon style="fill:#757A91;" points="486.215,387.581 500,283.415 396.838,280.97 384.534,369.621 339.419,371.417     342.192,387.581   "/>
		<polygon style="fill:#E08392;" points="185.856,322.095 92.131,315.399 125.416,199.021 68.566,183.694 64.975,348.332     182.89,378.442   "/>
		<polygon style="fill:#E08392;" points="157.632,322.616 50.384,345.445 50.384,219.269 0,220.572 18.481,378.929 183.817,378.929       "/>
		<path style="fill:#3D9C91;" d="M214.865,334.276l30.872,7.073c0,0,26.887-54.608,19.215-60.337    C219.657,247.184,217.433,285.871,214.865,334.276z"/>
		<path style="fill:#E08392;" d="M185.856,322.095c0,0-14.41-30.931-55.66-2.585l14.531,36.659L185.856,322.095z"/>
		<path style="fill:#251626;" d="M50.384,346.376c-0.43,0-0.816-0.3-0.909-0.736c-0.106-0.503,0.214-0.998,0.717-1.105    l74.315-15.819c-0.452-2.446,1.498-6.218,5.268-9.945c8.43-8.331,28.425-18.19,49.895-2.288c0.413,0.305,0.5,0.887,0.194,1.301    c-0.305,0.412-0.888,0.5-1.301,0.193c-20.464-15.152-39.475-5.798-47.481,2.117c-3.975,3.928-5.437,7.539-4.556,8.758    c0.184,0.254,0.227,0.585,0.114,0.879c-0.114,0.294-0.367,0.511-0.675,0.576l-75.387,16.048    C50.513,346.369,50.448,346.376,50.384,346.376z"/>
		<path style="fill:#251626;" d="M262.634,344.396c-0.055,0-0.11-0.005-0.165-0.015l-42.565-7.671    c-0.505-0.091-0.841-0.576-0.75-1.081s0.569-0.83,1.081-0.75l41.576,7.493l3.62-35.172c0.054-0.512,0.503-0.889,1.021-0.83    c0.511,0.053,0.883,0.509,0.83,1.019l-3.723,36.171c-0.027,0.258-0.16,0.492-0.366,0.649    C263.031,344.33,262.834,344.396,262.634,344.396z"/>
		<path style="fill:#251626;" d="M305.357,342.279c-0.169,0-0.34-0.045-0.494-0.142c-0.435-0.274-0.566-0.849-0.293-1.283    c7.837-12.474,10.048-38.83,10.069-39.093c0.043-0.512,0.482-0.878,1.003-0.852c0.512,0.04,0.893,0.489,0.852,1.001    c-0.089,1.099-2.269,27.074-10.349,39.933C305.969,342.124,305.667,342.279,305.357,342.279z"/>
		<path style="fill:#DE8651;" d="M336.323,131.592c0,0-2.699-32.356-47.566-32.356c-60.549,0-96.961,79.121-40.92,83.964    c0,0-12.06-27.311,15.729-37.451c16.236-5.924,25.511,11.082,38.591,5.003s-6.196-27.421,10.327-28.453    C329.006,121.266,336.323,131.592,336.323,131.592z"/>
		<path style="fill:#251626;" d="M296.18,146.68c-0.074,0-0.151-0.009-0.226-0.027c-0.498-0.125-0.801-0.629-0.678-1.128    c0.26-1.041,0.514-2.028,0.754-2.96c1.489-5.787,2.474-9.61,0.927-11.798c-1.571-2.22-6.003-3.421-15.807-4.283    c-21.498-1.89-25.676-12.265-25.844-12.705c-0.183-0.482,0.059-1.018,0.54-1.201c0.477-0.174,1.014,0.06,1.197,0.536l0,0    c0.038,0.096,4.048,9.739,24.27,11.516c10.693,0.939,15.184,2.264,17.163,5.062c2.044,2.891,0.975,7.045-0.644,13.335    c-0.239,0.928-0.492,1.91-0.75,2.947C296.977,146.398,296.597,146.68,296.18,146.68z"/>
		<path style="fill:#251626;" d="M304.595,124.162c-0.016,0-0.033,0-0.049-0.002c-0.513-0.025-0.908-0.463-0.881-0.978    c0.155-2.971-0.348-4.962-1.539-6.085c-1.951-1.841-5.918-1.405-10.118-0.939c-3.033,0.331-6.17,0.678-9.192,0.331    c-10.181-1.177-17.649-7.868-17.961-8.151c-0.381-0.345-0.409-0.934-0.064-1.314c0.347-0.38,0.935-0.407,1.314-0.064    c0.073,0.065,7.354,6.574,16.926,7.679c2.814,0.327,5.845-0.009,8.774-0.331c4.642-0.511,9.023-0.996,11.599,1.435    c1.612,1.521,2.306,3.987,2.12,7.537C305.497,123.776,305.086,124.162,304.595,124.162z"/>
		<path style="fill:#251626;" d="M247.901,155.56c-0.106,0-0.214-0.018-0.319-0.056c-3.588-1.308-9.87-5.607-7.969-12.517    c0.684-2.488,1.832-5.16,2.943-7.744c2.35-5.469,4.57-10.635,1.862-12.505c-0.422-0.291-0.529-0.87-0.237-1.294    c0.291-0.425,0.871-0.532,1.295-0.236c3.961,2.733,1.449,8.58-1.21,14.771c-1.086,2.526-2.209,5.139-2.859,7.503    c-1.92,6.977,6.457,10.144,6.814,10.275c0.482,0.178,0.73,0.712,0.553,1.194C248.636,155.325,248.28,155.56,247.901,155.56z"/>
		<path style="fill:#251626;" d="M243.641,181.143c-0.046,0-0.094-0.004-0.142-0.011c-0.165-0.025-16.547-2.718-14.445-18.981    c0.483-3.73,1.033-7.09,1.518-10.052c1.559-9.525,2.175-14.138-0.836-14.945c-0.497-0.134-0.791-0.645-0.658-1.141    c0.134-0.494,0.644-0.778,1.139-0.658c4.771,1.281,3.799,7.214,2.19,17.044c-0.483,2.949-1.03,6.291-1.508,9.992    c-1.872,14.48,12.278,16.809,12.881,16.902c0.508,0.078,0.857,0.552,0.779,1.059C244.489,180.815,244.093,181.143,243.641,181.143    z"/>
		<path style="fill:#251626;" d="M322.588,119.205c-0.275,0-0.548-0.122-0.731-0.354c-0.129-0.164-13.307-16.324-46.248-14.692    c-0.507,0.044-0.949-0.371-0.976-0.881c-0.025-0.514,0.37-0.95,0.883-0.976c33.963-1.732,47.254,14.7,47.802,15.399    c0.317,0.403,0.247,0.987-0.156,1.305C322.992,119.139,322.788,119.205,322.588,119.205z"/>
		<path style="fill:#251626;" d="M278.182,146.68c-0.063,0-0.126-0.005-0.19-0.02c-0.501-0.104-0.823-0.591-0.723-1.092    c0.015-0.08,0.292-1.695-0.982-3.54c-1.6-2.317-4.991-3.997-9.809-4.857c-5.847-1.045-10.885-4.384-14.186-9.405    c-2.96-4.503-4.256-10.035-3.302-14.098c0.117-0.502,0.621-0.821,1.118-0.692c0.501,0.116,0.81,0.618,0.693,1.117    c-0.843,3.589,0.352,8.555,3.044,12.65c2.135,3.247,6.116,7.373,12.959,8.596c5.437,0.97,9.157,2.887,11.057,5.695    c1.7,2.513,1.25,4.808,1.23,4.904C279.002,146.378,278.614,146.68,278.182,146.68z"/>
		<path style="fill:#251626;" d="M2.512,238.225c-0.456,0-0.854-0.334-0.92-0.799c-0.073-0.509,0.281-0.979,0.789-1.052    l44.869-6.409c0.509-0.065,0.98,0.28,1.053,0.79c0.073,0.509-0.281,0.979-0.789,1.052l-44.869,6.409    C2.6,238.222,2.555,238.225,2.512,238.225z"/>
		<path style="fill:#251626;" d="M121.429,213.893c-0.06,0-0.121-0.005-0.182-0.018l-52.212-10.35    c-0.504-0.1-0.831-0.589-0.731-1.094c0.1-0.503,0.59-0.839,1.093-0.73l52.212,10.35c0.504,0.1,0.831,0.589,0.731,1.094    C122.254,213.586,121.865,213.893,121.429,213.893z"/>
		<path style="fill:#251626;" d="M482.946,372.064h-89.015c-0.514,0-0.93-0.416-0.93-0.93c0-0.514,0.416-0.93,0.93-0.93h89.015    c0.514,0,0.93,0.416,0.93,0.93C483.877,371.647,483.461,372.064,482.946,372.064z"/>
		<polygon style="fill:#FFFFFF;" points="434.426,323.146 441.094,310.952 445.255,323.527 459.5,325.539 446.709,331.918     449.095,347.712 439.79,334.194 426.215,344.481 431.377,330.708 418.879,324.665   "/>
		<path style="fill:#251626;" d="M291.159,358.847c-0.319,0-0.63-0.164-0.803-0.46c-0.26-0.443-0.112-1.012,0.332-1.274    c0.537-0.314,5.267-3.042,8.134-3.042c0.045,0,0.091,0,0.135,0.002c0.513,0.016,0.917,0.445,0.9,0.959    c-0.015,0.512-0.463,0.928-0.958,0.901c-1.989-0.134-5.914,1.99-7.27,2.785C291.48,358.805,291.319,358.847,291.159,358.847z"/>
		<path style="fill:#251626;" d="M296.786,362.72c-0.319,0-0.63-0.164-0.803-0.46c-0.26-0.443-0.112-1.012,0.332-1.274    c0.546-0.32,5.455-3.136,8.27-3.04c0.513,0.016,0.917,0.445,0.9,0.959c-0.015,0.512-0.439,0.854-0.958,0.901    c-1.95-0.06-5.914,1.99-7.271,2.785C297.108,362.679,296.946,362.72,296.786,362.72z"/>
		<path style="fill:#251626;" d="M361.111,296.87c-0.014,0-0.026,0-0.039,0c-0.513-0.022-0.912-0.456-0.891-0.968    c0.081-1.962-1.931-5.933-2.712-7.297c-0.256-0.447-0.102-1.016,0.344-1.27c0.444-0.256,1.015-0.102,1.269,0.343    c0.315,0.551,3.075,5.451,2.957,8.3C362.019,296.477,361.607,296.87,361.111,296.87z"/>
		<path style="fill:#251626;" d="M359.692,309.616c-0.014,0-0.026,0-0.04,0c-0.513-0.022-0.912-0.456-0.89-0.968    c0.082-1.966-1.93-5.933-2.712-7.295c-0.256-0.445-0.102-1.014,0.343-1.27c0.447-0.254,1.015-0.104,1.27,0.343    c0.315,0.549,3.076,5.449,2.957,8.298C360.6,309.225,360.188,309.616,359.692,309.616z"/>
		<path style="fill:#251626;" d="M366.124,310.565c-0.014,0-0.026,0-0.04,0c-0.513-0.022-0.912-0.456-0.89-0.968    c0.082-1.966-1.93-5.934-2.712-7.297c-0.256-0.447-0.102-1.014,0.344-1.27c0.444-0.256,1.015-0.104,1.269,0.343    c0.315,0.551,3.076,5.451,2.957,8.3C367.032,310.174,366.621,310.565,366.124,310.565z"/>
		<path style="fill:#251626;" d="M364.706,326.422c-0.014,0-0.026,0-0.039,0c-0.513-0.022-0.912-0.456-0.891-0.968    c0.081-1.962-1.931-5.933-2.712-7.297c-0.256-0.447-0.102-1.016,0.344-1.27c0.442-0.256,1.014-0.102,1.269,0.343    c0.315,0.551,3.075,5.451,2.957,8.3C365.614,326.029,365.202,326.422,364.706,326.422z"/>
		<path style="fill:#251626;" d="M370.802,330.208c-0.014,0-0.026,0-0.04,0c-0.513-0.022-0.912-0.456-0.89-0.968    c0.082-1.966-1.93-5.934-2.712-7.297c-0.256-0.447-0.102-1.014,0.344-1.27c0.444-0.254,1.015-0.104,1.269,0.343    c0.315,0.551,3.076,5.451,2.957,8.3C371.71,329.818,371.298,330.208,370.802,330.208z"/>
		<path style="fill:#251626;" d="M283.196,369.532c-0.319,0-0.63-0.164-0.803-0.46c-0.26-0.443-0.112-1.012,0.332-1.274    c0.545-0.32,5.407-3.185,8.269-3.04c0.513,0.016,0.917,0.445,0.9,0.959c-0.015,0.514-0.471,0.899-0.958,0.901    c-1.99-0.076-5.914,1.988-7.27,2.786C283.518,369.491,283.356,369.532,283.196,369.532z"/>
		<path style="fill:#251626;" d="M275.043,365.669c-0.319,0-0.63-0.164-0.803-0.46c-0.26-0.443-0.112-1.012,0.332-1.274    c0.545-0.32,5.426-3.105,8.27-3.038c0.513,0.016,0.917,0.447,0.899,0.959c-0.015,0.514-0.481,0.956-0.959,0.901    c-1.903-0.073-5.912,1.986-7.269,2.784C275.364,365.628,275.202,365.669,275.043,365.669z"/>
		<path style="fill:#251626;" d="M266.358,373.521c-0.319,0-0.63-0.164-0.803-0.46c-0.26-0.443-0.112-1.012,0.332-1.274    c0.546-0.32,5.424-3.185,8.27-3.038c0.513,0.016,0.917,0.447,0.899,0.959c-0.016,0.514-0.452,0.894-0.959,0.901    c-1.9-0.076-5.912,1.986-7.269,2.784C266.68,373.479,266.518,373.521,266.358,373.521z"/>
		<path style="fill:#251626;" d="M261.068,369.532c-0.319,0-0.63-0.164-0.803-0.46c-0.26-0.443-0.112-1.012,0.332-1.274    c0.546-0.318,5.452-3.187,8.27-3.04c0.513,0.016,0.917,0.445,0.9,0.959c-0.016,0.514-0.444,0.899-0.958,0.901    c-1.928-0.136-5.914,1.99-7.271,2.786C261.389,369.491,261.228,369.532,261.068,369.532z"/>
		<path style="fill:#251626;" d="M355.807,253.227c-0.186,0-0.373-0.056-0.537-0.171c-0.418-0.296-0.518-0.874-0.224-1.292    c0.071-0.105,1.55-2.335,0.6-6.189c-0.124-0.5,0.182-1.003,0.68-1.127c0.501-0.12,1.003,0.182,1.126,0.68    c1.168,4.737-0.8,7.588-0.885,7.706C356.386,253.09,356.099,253.227,355.807,253.227z"/>
		<path style="fill:#251626;" d="M361.568,252.158c-0.146,0-0.294-0.035-0.433-0.107c-0.454-0.24-0.629-0.801-0.39-1.256    c0.024-0.045,2.349-4.533,1.609-8.28c-0.099-0.503,0.229-0.994,0.733-1.092c0.502-0.109,0.992,0.227,1.093,0.732    c0.869,4.399-1.68,9.3-1.789,9.507C362.224,251.978,361.902,252.158,361.568,252.158z"/>
		<path style="fill:#251626;" d="M230.034,281.805c-0.094,0-0.19-0.015-0.284-0.045c-0.49-0.156-0.759-0.681-0.601-1.17    c1.017-3.162,5.104-5.898,5.278-6.014c0.428-0.282,1.006-0.167,1.289,0.262c0.283,0.427,0.167,1.005-0.261,1.29    c-0.037,0.024-3.719,2.495-4.534,5.033C230.793,281.554,230.427,281.805,230.034,281.805z"/>
		<path style="fill:#251626;" d="M240.108,280.008c-0.141,0-0.284-0.033-0.419-0.1c-0.459-0.233-0.642-0.792-0.411-1.25    c1.498-2.962,5.963-5.03,6.152-5.117c0.47-0.207,1.02-0.005,1.233,0.46c0.214,0.467,0.008,1.019-0.459,1.234    c-0.04,0.018-4.063,1.884-5.266,4.263C240.775,279.821,240.447,280.008,240.108,280.008z"/>
		<path style="fill:#251626;" d="M235.309,290.476c-0.043,0-0.086-0.004-0.131-0.009c-0.509-0.071-0.863-0.541-0.791-1.05    c0.462-3.289,4.023-6.685,4.175-6.827c0.374-0.356,0.96-0.334,1.315,0.036c0.353,0.374,0.336,0.963-0.037,1.316    c-0.032,0.031-3.238,3.093-3.61,5.733C236.164,290.139,235.766,290.476,235.309,290.476z"/>
		<path style="fill:#251626;" d="M230.833,304.548c-0.472,0-0.877-0.358-0.925-0.838c-0.332-3.303,2.322-7.446,2.435-7.621    c0.279-0.432,0.855-0.552,1.286-0.276c0.431,0.28,0.555,0.854,0.276,1.286c-0.025,0.036-2.412,3.772-2.146,6.425    c0.051,0.511-0.322,0.967-0.833,1.018C230.895,304.547,230.864,304.548,230.833,304.548z"/>
		<path style="fill:#251626;" d="M90.774,287.797c-0.172,0-0.345-0.047-0.502-0.147c-0.432-0.278-0.558-0.852-0.281-1.285    c0.024-0.038,2.399-3.783,2.125-6.434c-0.053-0.512,0.319-0.968,0.83-1.021c0.511-0.064,0.968,0.318,1.021,0.829    c0.341,3.303-2.299,7.455-2.41,7.632C91.38,287.646,91.08,287.797,90.774,287.797z"/>
		<path style="fill:#251626;" d="M89.627,275.887c-0.172,0-0.345-0.047-0.501-0.147c-0.432-0.278-0.558-0.852-0.281-1.285    c0.024-0.038,2.399-3.783,2.125-6.434c-0.053-0.512,0.319-0.968,0.83-1.021c0.507-0.06,0.968,0.318,1.021,0.829    c0.341,3.303-2.299,7.455-2.41,7.632C90.233,275.736,89.933,275.887,89.627,275.887z"/>
		<path style="fill:#251626;" d="M96.532,272.672c-0.172,0-0.345-0.047-0.502-0.147c-0.432-0.278-0.558-0.852-0.281-1.285    c0.024-0.038,2.399-3.783,2.124-6.434c-0.053-0.511,0.319-0.968,0.829-1.021c0.521-0.055,0.968,0.318,1.022,0.829    c0.342,3.303-2.298,7.455-2.409,7.632C97.138,272.522,96.838,272.672,96.532,272.672z"/>
		<path style="fill:#251626;" d="M93.067,261.572c-0.172,0-0.346-0.047-0.501-0.147c-0.432-0.278-0.558-0.854-0.281-1.286    c0.025-0.036,2.399-3.779,2.124-6.43c-0.053-0.511,0.319-0.968,0.829-1.021c0.513-0.053,0.969,0.318,1.022,0.829    c0.342,3.303-2.298,7.453-2.41,7.63C93.673,261.421,93.373,261.572,93.067,261.572z"/>
		<path style="fill:#251626;" d="M100.069,258.494c-0.172,0-0.345-0.047-0.501-0.147c-0.432-0.278-0.558-0.852-0.281-1.285    c0.025-0.038,2.399-3.783,2.124-6.434c-0.053-0.511,0.319-0.968,0.829-1.021c0.516-0.058,0.968,0.318,1.022,0.829    c0.342,3.303-2.298,7.455-2.409,7.631C100.675,258.343,100.375,258.494,100.069,258.494z"/>
		<path style="fill:#251626;" d="M98.922,246.649c-0.172,0-0.345-0.047-0.502-0.147c-0.432-0.278-0.558-0.852-0.281-1.285    c0.025-0.038,2.399-3.783,2.124-6.434c-0.053-0.511,0.319-0.968,0.829-1.021c0.514-0.056,0.969,0.318,1.022,0.829    c0.342,3.303-2.298,7.455-2.409,7.632C99.528,246.498,99.228,246.649,98.922,246.649z"/>
		<path style="fill:#251626;" d="M40.707,306.642c-0.112,0-0.225-0.02-0.336-0.064c-0.479-0.185-0.717-0.723-0.531-1.203    c0.016-0.042,1.595-4.183,0.798-6.727c-0.154-0.491,0.119-1.012,0.609-1.167c0.494-0.154,1.013,0.12,1.167,0.611    c0.994,3.167-0.762,7.76-0.838,7.955C41.431,306.416,41.08,306.642,40.707,306.642z"/>
		<path style="fill:#251626;" d="M37.207,295.202c-0.112,0-0.225-0.02-0.335-0.064c-0.48-0.185-0.718-0.723-0.532-1.203    c0.016-0.042,1.595-4.185,0.798-6.728c-0.154-0.491,0.119-1.012,0.609-1.167c0.492-0.154,1.014,0.12,1.167,0.611    c0.994,3.167-0.762,7.762-0.838,7.957C37.932,294.976,37.579,295.202,37.207,295.202z"/>
		<path style="fill:#251626;" d="M43.33,290.674c-0.112,0-0.225-0.02-0.335-0.064c-0.48-0.185-0.718-0.723-0.532-1.203    c0.016-0.042,1.595-4.185,0.798-6.728c-0.154-0.491,0.119-1.012,0.609-1.167c0.494-0.158,1.013,0.12,1.167,0.611    c0.994,3.167-0.762,7.762-0.838,7.957C44.055,290.448,43.703,290.674,43.33,290.674z"/>
		<path style="fill:#251626;" d="M37.72,280.489c-0.112,0-0.225-0.02-0.335-0.064c-0.48-0.185-0.718-0.723-0.532-1.203    c0.016-0.042,1.595-4.185,0.798-6.728c-0.154-0.491,0.119-1.012,0.609-1.167c0.492-0.156,1.013,0.12,1.167,0.611    c0.994,3.167-0.762,7.762-0.838,7.957C38.445,280.264,38.093,280.489,37.72,280.489z"/>
		<path style="fill:#251626;" d="M43.966,276.074c-0.112,0-0.225-0.02-0.335-0.064c-0.48-0.185-0.718-0.723-0.532-1.203    c0.016-0.042,1.595-4.185,0.798-6.728c-0.154-0.491,0.119-1.012,0.609-1.167c0.491-0.156,1.013,0.12,1.167,0.611    c0.994,3.167-0.762,7.762-0.838,7.957C44.691,275.849,44.339,276.074,43.966,276.074z"/>
		<path style="fill:#251626;" d="M40.478,264.696c-0.112,0-0.225-0.02-0.336-0.064c-0.479-0.185-0.717-0.723-0.531-1.203    c0.016-0.042,1.595-4.183,0.798-6.727c-0.154-0.491,0.119-1.012,0.609-1.167c0.491-0.154,1.013,0.12,1.167,0.611    c0.994,3.167-0.762,7.761-0.838,7.955C41.202,264.47,40.851,264.696,40.478,264.696z"/>
		<path style="fill:#251626;" d="M105.769,241.741c-0.172,0-0.345-0.047-0.501-0.147c-0.432-0.278-0.558-0.852-0.281-1.285    c0.024-0.038,2.399-3.783,2.124-6.434c-0.053-0.511,0.319-0.968,0.829-1.021c0.514-0.056,0.969,0.318,1.022,0.829    c0.342,3.303-2.298,7.455-2.409,7.632C106.375,241.59,106.076,241.741,105.769,241.741z"/>
		<path style="fill:#251626;" d="M226.143,296.11c-0.043,0-0.086-0.004-0.131-0.009c-0.509-0.071-0.863-0.541-0.791-1.05    c0.462-3.287,4.023-6.683,4.175-6.827c0.374-0.354,0.962-0.334,1.315,0.036c0.353,0.374,0.336,0.963-0.036,1.316    c-0.033,0.031-3.239,3.094-3.61,5.733C226.998,295.774,226.6,296.11,226.143,296.11z"/>
	</g>
</g>















</svg>
