<?xml version="1.0" encoding="UTF-8"?>
<!-- Generator: Adobe Illustrator 25.1.0, SVG Export Plug-In . SVG Version: 6.00 Build 0)  -->
<svg xmlns="http://www.w3.org/2000/svg" xmlns:xlink="http://www.w3.org/1999/xlink" version="1.1" id="Capa_1" x="0px" y="0px" viewBox="0 0 500 500" style="enable-background:new 0 0 500 500;" xml:space="preserve" width="512" height="512">
<g>
	<g>
		<path style="fill:#EA7C71;" d="M224.076,430.893l9.959,48.137l74.098-48.137c0,0,19.262,31.535,28.776,33.275    c9.513,1.74-12.928-33.275-12.928-33.275s22.44,33.275,28.532,29.794c6.091-3.481-15.604-30.017-15.604-30.017    s14.663,20.445,22.095,16.964c7.432-3.481-24.165-44.702-35.022-42.639C313.124,407.059,224.076,430.893,224.076,430.893z"/>
		<path style="fill:#DD7C2E;" d="M282.692,404.995l-63.922,19.144L205.5,313.187C205.5,313.187,252.029,322.858,282.692,404.995z"/>
		<path style="fill:#E9546A;" d="M107.259,110.001c0,0-26.782-59.976,5.683-90.466c32.465-30.49,93.246-29.62,117.678,33.904    C230.62,53.439,183.976,137.847,107.259,110.001z"/>
		<path style="fill:#F7C67C;" d="M198.407,82.155c0,0-10.428-73.096,34.421-67.875c44.849,5.221,138.273,99.327,59.364,117.973    C292.192,132.254,202.675,116.092,198.407,82.155z"/>
		<path style="fill:#251626;" d="M290.898,124.753c-0.678-0.242-1.032-0.989-0.79-1.668c0.24-0.68,0.984-1.031,1.667-0.792    c9.285,3.308,17.948,0.559,23.775-7.539c6.396-8.892,7.253-21.144,1.95-27.89c-1.326-1.689-2.804-2.872-4.37-3.525    c0.39,5.648-0.288,10.594-2.279,13.252c-1.736,2.316-4.362,2.991-7.383,1.903c-3.35-1.206-5.254-3.728-5.229-6.923    c0.038-4.469,3.788-9.239,8.538-10.859c1.162-0.398,2.384-0.599,3.475-0.582c-1.04-7.166-3.707-15.051-7.396-20.105    c-2.786-3.809-7.067-3.899-9.953-3.409c0.438,2.222,0.706,4.399,0.811,6.474c0.352,7.025-1.249,12.131-4.393,14.01    c-1.43,0.854-3.857,1.438-7.306-0.646c-3.855-2.329-5.67-5.619-5.112-9.266c0.785-5.122,6.325-10.405,12.905-12.494    c-2.58-10.325-8.9-21.109-19.179-25.932c-5.861-2.751-10.804-3.257-14.442-1.517c6.101,4.052,8.316,8.292,9.112,10.646    c1.343,3.98,0.698,7.926-1.726,10.558c-2.075,2.254-5.058,3.1-8.161,2.326c-3.645-0.907-6.429-4.217-7.441-8.853    c-0.987-4.527-0.212-10.506,3.533-14.445c-4.423-2.305-10.516-4.44-18.904-5.923c-10.463-1.847-18.407-0.095-23.628,5.208    c-11.128,11.308-6.654,35.249-6.606,35.489c0.135,0.707-0.326,1.393-1.035,1.53c-0.693,0.13-1.389-0.324-1.53-1.032    c-0.202-1.036-4.785-25.519,7.304-37.811c5.856-5.955,14.577-7.958,25.948-5.953c9.208,1.628,15.824,4.068,20.579,6.71    c3.347-2.208,9.04-3.552,18.106,0.704c11.052,5.184,17.836,16.683,20.594,27.667c5.298-0.953,9.859,0.626,12.63,4.419    c4.079,5.582,6.904,14.186,7.89,22.002c2.452,0.674,4.755,2.286,6.702,4.762c5.981,7.614,5.152,21.243-1.887,31.028    c-4.732,6.58-11.136,10.018-18.266,10.018C296.658,126.297,293.805,125.788,290.898,124.753z M307.62,83.183    c-3.704,1.263-6.74,5.038-6.769,8.41c-0.018,2.076,1.193,3.614,3.5,4.445c2.577,0.932,3.753-0.131,4.413-1.012    c1.767-2.362,2.279-6.98,1.8-12.275C309.593,82.705,308.612,82.845,307.62,83.183z M279.485,67.585    c-0.398,2.607,0.908,4.839,3.883,6.635c1.874,1.136,3.426,1.349,4.617,0.641c2.221-1.327,3.416-5.787,3.123-11.639    c-0.094-1.913-0.339-3.92-0.732-5.965C284.854,59.089,280.112,63.502,279.485,67.585z M250.524,41.368    c0.795,3.643,2.858,6.213,5.522,6.874c2.154,0.535,4.201-0.033,5.609-1.561c1.769-1.919,2.205-4.892,1.173-7.954    c-0.734-2.169-2.855-6.138-8.961-9.908C250.391,32.023,249.678,37.485,250.524,41.368z"/>
		<polygon style="fill:#757A91;" points="456.936,349.275 401.244,332.168 347.292,456.417 262.311,456.417 261.071,487.133     396.022,487.133   "/>
		<path style="fill:#DD7C2E;" d="M43.064,479.031c0,0,22.038-188.927,56.035-195.847c33.997-6.92,120.228,28.431,128.216,49.641    c7.989,21.21-1.022,146.206-1.022,146.206H43.064z"/>
		<path style="fill:#EFA880;" d="M185.415,242.421l-2.928,58.988l18.775,9.322c0,0-3.489,35.999-19.927,34.482    c-37.723-3.481-44.493-59.19-44.493-59.19l20.103,5.647l8.413-57.138L185.415,242.421z"/>
		<path style="fill:#EFA880;" d="M50.99,356.938L96.728,500c0,0,167.971-76.447,174.46-75.283    c6.489,1.163,26.703,31.712,39.292,34.149c12.589,2.437-10.018-26.255-10.018-26.255s27.074,23.412,30.323,20.164    c3.249-3.249-15.007-26.741-15.007-26.741s30.845,27.959,30.033,19.837c-0.812-8.122-34.924-52.385-60.101-48.324    c-25.177,4.061-162.332,55.634-162.332,55.634L91.599,332.168L50.99,356.938z"/>
		<path style="fill:#EFA880;" d="M132.484,103.841c0,0,57.554-64.442,122.978-32.411c48.949,23.965,38.087,194.132-42.681,188.494    C155.53,255.928,108.697,140.582,132.484,103.841z"/>
		<path style="fill:#F7C67C;" d="M132.484,103.841c0,0,11.145,110.08,38.655,119.156c49.372,16.288-18.435-44.15,49.058-43.389    c43.278,0.488,6.437,38.5,42.817,27.608c27.362-8.192,0.854-126.569-3.031-132.967c-3.885-6.397,47.501,20.725,27.885,96.583    c-6.579,25.442,56.23,38.865,10.89,79.454c-80.492,72.057-199.737,15.744-172.066-23.485    C164.761,172.832,62.373,173.081,132.484,103.841z"/>
		<path style="fill:#251626;" d="M236.941,178.502c0.711,0,1.313-0.324,1.677-0.909c2.315-3.736-11.582-27.24-20.071-40.919    c-0.382-0.612-1.191-0.794-1.797-0.421c-0.612,0.38-0.8,1.184-0.421,1.797c9.864,15.892,19.696,33.776,20.041,37.779    c-6.159-0.701-23.878-4.213-24.061-4.249c-0.693-0.144-1.395,0.316-1.535,1.026c-0.14,0.706,0.319,1.393,1.025,1.533    c0.785,0.156,19.258,3.816,24.913,4.349C236.788,178.498,236.864,178.502,236.941,178.502z"/>
		<path style="fill:#251626;" d="M213.153,224.131c0.415,0,0.839-0.074,1.262-0.224c7.872-2.789,18.435-26.743,19.612-29.464    c0.285-0.662-0.018-1.43-0.681-1.717c-0.658-0.282-1.428,0.018-1.716,0.679c-3.077,7.108-12.324,26-18.088,28.042    c-0.37,0.131-0.65,0.091-0.979-0.136c-3.643-2.519-5.351-19.932-5.57-30.317c-0.015-0.711-0.596-1.277-1.305-1.277    c-0.008,0-0.018,0-0.028,0c-0.721,0.015-1.292,0.612-1.277,1.333c0.061,2.886,0.767,28.311,6.697,32.409    C211.728,223.905,212.431,224.131,213.153,224.131z"/>
		<path style="fill:#251626;" d="M184.895,151.606c0.041,0,0.079-0.001,0.12-0.003c6.047-0.232,6.246-17.29,6.162-22.512    c-0.013-0.722-0.589-1.261-1.326-1.285c-0.722,0.012-1.295,0.605-1.285,1.326c0.148,9.323-1.318,19.773-3.653,19.864    c-0.01,0-0.023,0-0.033,0c-2.486,0.001-6.396-10.1-8.507-19.596c-0.158-0.701-0.849-1.143-1.558-0.992    c-0.704,0.157-1.147,0.854-0.992,1.558C174.955,135.064,179.085,151.605,184.895,151.606z"/>
		<path style="fill:#251626;" d="M246.33,148.05c0.038,0,0.076-0.001,0.115-0.003c6.047-0.233,6.246-17.291,6.162-22.514    c-0.013-0.722-0.67-1.298-1.326-1.285c-0.721,0.011-1.295,0.605-1.285,1.326c0.148,9.323-1.318,19.774-3.653,19.865    c-0.013,0-0.025,0-0.041,0c-2.692,0.001-8.507-10.172-12.377-19.661c-0.273-0.669-1.038-0.99-1.701-0.715    c-0.668,0.271-0.989,1.034-0.716,1.702C233.553,131.779,240.635,148.048,246.33,148.05z"/>
		<path style="fill:#EFA880;" d="M129.145,164.866c0.346,8.949-6.628,16.483-15.576,16.829c-8.948,0.346-16.483-6.628-16.829-15.576    c-0.346-8.948,6.628-16.483,15.576-16.829C121.265,148.944,128.799,155.918,129.145,164.866z"/>
		<path style="fill:#EFA880;" d="M312.926,136.606c0.322,8.345-6.182,15.373-14.527,15.695c-8.346,0.322-15.373-6.182-15.696-14.527    c-0.322-8.345,6.182-15.373,14.527-15.695C305.576,121.757,312.603,128.261,312.926,136.606z"/>
		<path style="fill:#251626;" d="M119.037,174.571c0.003,0,0.008,0,0.01,0c0.722-0.005,1.3-0.594,1.295-1.316    c-0.038-4.963-1.517-8.511-4.398-10.543c-4.854-3.425-11.763-1.085-12.053-0.983c-0.681,0.236-1.04,0.978-0.806,1.658    c0.237,0.679,0.979,1.045,1.66,0.808c0.061-0.023,5.955-2.001,9.703,0.654c2.147,1.521,3.253,4.356,3.284,8.426    C117.737,173.994,118.321,174.571,119.037,174.571z"/>
		<path style="fill:#251626;" d="M296.227,149.451c0.156,0,0.314-0.028,0.467-0.087c0.673-0.259,1.01-1.013,0.752-1.686    c-2.042-5.321-2.254-9.369-0.612-11.707c1.708-2.432,4.971-2.403,5.089-2.412c0.727-0.042,1.315-0.557,1.333-1.275    c0.015-0.718-0.548-1.315-1.267-1.336c-0.209-0.001-4.742-0.084-7.274,3.495c-2.213,3.125-2.116,7.893,0.293,14.169    C295.207,149.132,295.702,149.451,296.227,149.451z"/>
		
			<ellipse transform="matrix(0.7267 -0.687 0.687 0.7267 -74.3901 161.5962)" style="fill:#EA7C71;" cx="165.877" cy="174.282" rx="15.458" ry="15.458"/>
		<path style="fill:#EA7C71;" d="M271.182,163.859c-0.239,8.534-7.352,15.258-15.886,15.018    c-8.534-0.239-15.258-7.352-15.018-15.885c0.239-8.534,7.352-15.258,15.885-15.019    C264.697,148.213,271.421,155.325,271.182,163.859z"/>
		<path style="fill:#251626;" d="M179.689,266.034c-3.189,2.015-8.212,3.605-15.967,3.527c-15.444-0.187-22.47-11.474-23.898-21.972    c0-0.004,0-0.008-0.003-0.01c-2.317,0.283-4.844-0.156-7.413-1.361c-5.453-2.554-7.898-8.3-6.886-16.177    c0.51-3.965,1.846-8.112,3.625-11.815c-4.78-1.653-6.256-5.166-6.58-8.139c-0.477-4.41,1.418-9.845,4.033-14.531    c-1.685-0.818-2.901-2.05-3.633-3.682c-2.679-5.975,2.498-15.138,2.72-15.526c0.357-0.627,1.162-0.841,1.779-0.484    c0.627,0.358,0.844,1.156,0.484,1.782c-1.326,2.316-4.38,9.197-2.603,13.16c0.502,1.119,1.359,1.946,2.598,2.498    c2.753-4.302,5.94-7.602,8.008-8.228c1.657-0.501,3.151-0.082,4.092,1.154c1.285,1.69,1.183,4.452-0.252,6.72    c-0.956,1.512-3.895,4.885-10.641,3.458c-0.005-0.001-0.013-0.003-0.018-0.004c-2.476,4.308-4.405,9.402-3.972,13.402    c0.337,3.1,2.047,5.108,5.201,6.078c2.891-5.154,6.572-9.038,9.795-9.633c3.092-0.574,6.353,0.664,8.077,3.085    c1.285,1.802,1.458,3.928,0.464,5.685c-1.066,1.883-4.446,4.911-15.105,4.078c-0.648-0.051-1.259-0.125-1.835-0.221    c-1.757,3.52-3.141,7.573-3.646,11.496c-0.607,4.711-0.161,10.875,5.402,13.481c2.378,1.113,4.395,1.35,6.065,1.119    c-0.349-6.948,1.805-12.609,5.405-13.653c1.909-0.558,3.533-0.05,4.449,1.392c1.644,2.593,0.494,7.531-2.565,11.007    c-1.315,1.494-2.835,2.57-4.497,3.218c0.013,0.099,0.026,0.2,0.041,0.301c1.28,9.42,7.559,19.546,21.341,19.713    c7.704,0.083,12.189-1.491,14.934-3.37c-0.586-1.67-0.966-3.284-1.17-4.731c-0.729-5.145,0.395-8.807,2.865-9.332    c1.346-0.276,2.697,0.291,3.702,1.59c1.55,2.001,2.335,5.926,0.4,9.817c-0.512,1.026-1.336,2.268-2.659,3.485    c2.786,6.307,8.994,12.76,20.612,11.927c6.575-0.481,11.809-3.257,15.661-6.827c-0.997-0.613-1.792-1.252-2.412-1.843    c-3.222-3.069-4.538-7.401-3.523-11.587c0.999-4.131,4.071-7.323,8.214-8.54c3.559-1.048,5.578,0.112,6.634,1.271    c2.149,2.359,2.226,6.978,0.201,12.05c-1.022,2.556-2.611,5.291-4.755,7.843c4.316,1.512,11.23,2.027,22.057-1.154    c11.174-3.285,16.653-7.569,19.317-11.215c-4.171-1.242-7.281-3.688-8.276-6.665c-0.864-2.59-0.036-5.293,2.333-7.611    c1.723-1.688,4.053-2.092,6.21-1.087c3.12,1.451,5.081,5.344,4.772,9.466c-0.076,1.012-0.326,2.417-1.015,4.048    c3.664,0.377,14.261,0.328,21.95-11.366c1.884-2.86,3.309-5.42,4.36-7.687c-2.608-1.17-4.88-2.817-6.458-4.595    c-3.016-3.403-3.307-6.974-0.754-9.317c3.125-2.871,7.281-3.343,9.881-1.132c1.247,1.062,4.133,4.667,0.801,13.527    c3.954,1.119,8.344,0.857,11.691-2.009c4.296-3.676,4.576-12.569,0.681-21.624c-2.009-4.669-5.428-9.694-9.851-12.649    c-0.433,1.753-1.333,3.153-2.848,3.957c-4.102,2.183-8.558,1.06-10.957-0.906c-1.678-1.374-2.399-3.132-1.927-4.701    c0.398-1.332,1.78-3.013,6.096-3.467c2.613-0.278,5.055,0.115,7.319,0.985c-0.206-2.691-1.091-6.062-2.626-9.67    c-0.905-2.121-1.94-4.075-3.021-5.768c-1.693,1.048-3.743,1.374-5.943,0.861c-3.345-0.777-6.049-3.296-6.159-5.735    c-0.036-0.843,0.219-2.917,3.388-3.957c3.034-0.998,6.261,1.205,9.104,4.818c0.082-0.13,0.161-0.266,0.24-0.409    c4.285-7.827-6.376-17.064-6.483-17.157c-0.548-0.468-0.614-1.291-0.145-1.839c0.466-0.551,1.292-0.612,1.838-0.148    c0.507,0.433,12.385,10.709,7.08,20.399c-0.278,0.509-0.592,0.975-0.931,1.397c1.288,1.983,2.455,4.221,3.434,6.514    c1.626,3.823,2.876,8.275,2.863,11.964c5.446,3.164,9.586,9.036,11.929,14.479c3.671,8.534,4.668,19.462-1.382,24.639    c-4.281,3.661-9.672,3.907-14.409,2.463c-1.091,2.393-2.595,5.113-4.627,8.201c-5.963,9.065-15.289,13.73-24.882,12.47    c-0.188-0.024-0.375-0.051-0.558-0.079c-2.764,4.289-8.693,9.403-21.3,13.108c-12.214,3.591-19.944,2.66-24.688,0.706    c-4.293,4.246-10.292,7.624-17.935,8.181c-0.78,0.057-1.54,0.085-2.276,0.085C189.035,279.023,182.733,272.539,179.689,266.034z     M221.112,250.042c-3.235,0.952-5.634,3.438-6.412,6.651c-0.793,3.268,0.25,6.664,2.787,9.082c0.615,0.586,1.43,1.222,2.488,1.816    c2.2-2.479,3.809-5.186,4.813-7.7c1.601-4.012,1.718-7.759,0.293-9.326c-0.502-0.551-1.208-0.827-2.114-0.827    C222.42,249.738,221.802,249.84,221.112,250.042z M180.923,252.072c-0.462,0.098-1.418,2.218-0.821,6.41    c0.14,1.001,0.377,2.093,0.722,3.229c0.609-0.692,1.03-1.364,1.323-1.951c1.372-2.753,0.974-5.633-0.125-7.054    c-0.196-0.252-0.566-0.647-0.971-0.647C181.007,252.058,180.967,252.063,180.923,252.072z M259.714,243.923    c-1.662,1.626-2.228,3.281-1.683,4.918c0.765,2.287,3.541,4.234,7.192,5.169c0.727-1.531,0.976-2.842,1.045-3.77    c0.255-3.414-1.45-6.056-3.271-6.902c-0.362-0.17-0.803-0.305-1.287-0.305C261.089,243.032,260.395,243.256,259.714,243.923z     M145.714,233.826c-1.981,0.575-3.671,4.756-3.549,10.329c1.208-0.617,2.118-1.449,2.746-2.161    c2.595-2.951,3.108-6.64,2.317-7.883c-0.087-0.135-0.257-0.404-0.793-0.404C146.244,233.708,146.007,233.741,145.714,233.826z     M288.719,223.441c-2.027,1.862-0.015,4.581,0.946,5.663c1.361,1.537,3.307,2.929,5.519,3.918    c2.187-5.764,1.611-9.243-0.041-10.647c-0.612-0.521-1.392-0.774-2.241-0.774C291.556,221.602,290.032,222.237,288.719,223.441z     M140.633,208.817c-2.182,0.403-5.071,3.422-7.544,7.61c0.232,0.027,0.467,0.048,0.709,0.067    c9.825,0.779,12.153-1.918,12.63-2.761c0.668-1.182,0.087-2.315-0.319-2.885c-0.811-1.134-2.417-2.133-4.387-2.133    C141.37,208.716,141.005,208.748,140.633,208.817z M290.797,195.11c-2.578,0.271-3.689,1.015-3.87,1.62    c-0.153,0.511,0.27,1.27,1.081,1.934c1.751,1.438,5.025,2.247,8.079,0.621c0.902-0.48,1.461-1.526,1.688-2.988    C295.623,195.319,293.272,194.857,290.797,195.11z M136.709,187.573c-1.356,0.412-3.801,2.983-6.098,6.441    c3.179,0.442,5.693-0.432,6.978-2.462c0.905-1.431,0.902-3.058,0.38-3.743c-0.076-0.103-0.252-0.331-0.699-0.331    C137.117,187.478,136.934,187.505,136.709,187.573z M284.296,171.713c-0.744,0.244-1.626,0.678-1.596,1.361    c0.051,1.118,1.833,2.77,4.143,3.307c0.959,0.227,2.447,0.348,3.855-0.459C288.344,172.865,285.943,171.171,284.296,171.713z"/>
		<path style="fill:#E9546A;" d="M205.5,63.375c0,0-69.664,34.106-98.236,83.369l-19.781-35.637c0,0,42.658-59.564,112.698-62.889    L205.5,63.375z"/>
		<path style="fill:#251626;" d="M107.259,92.665c0.436,0,0.862-0.218,1.109-0.616c21.922-35.257,88.55-47.647,89.221-47.768    c0.709-0.129,1.18-0.807,1.053-1.517c-0.13-0.711-0.818-1.178-1.517-1.053c-0.171,0.031-17.252,3.161-36.854,10.69    c-18.175,6.979-42.315,19.285-54.121,38.269c-0.38,0.613-0.191,1.417,0.421,1.798C106.785,92.602,107.022,92.665,107.259,92.665z"/>
		<path style="fill:#251626;" d="M123.498,125.855c0.204,0,0.41-0.047,0.604-0.148c0.638-0.333,0.887-1.12,0.553-1.76l-16.24-31.182    c-0.334-0.64-1.124-0.886-1.762-0.554c-0.637,0.333-0.887,1.12-0.553,1.76l16.24,31.182    C122.573,125.599,123.029,125.855,123.498,125.855z"/>
		<path style="fill:#251626;" d="M150.42,98.787c0.168,0,0.339-0.032,0.502-0.101c0.665-0.278,0.979-1.043,0.701-1.708    l-12.658-30.303c-0.278-0.668-1.048-0.979-1.705-0.701c-0.665,0.278-0.979,1.043-0.701,1.708l12.658,30.303    C149.426,98.486,149.91,98.787,150.42,98.787z"/>
		<path style="fill:#251626;" d="M175.098,82.464c0.235,0,0.474-0.062,0.688-0.195c0.612-0.38,0.8-1.184,0.421-1.797l-14.458-23.341    c-0.38-0.613-1.185-0.803-1.797-0.423c-0.612,0.38-0.801,1.184-0.421,1.797l14.458,23.341    C174.236,82.245,174.662,82.464,175.098,82.464z"/>
		<path style="fill:#251626;" d="M191.829,70.793c0.117,0,0.24-0.016,0.359-0.05c0.693-0.199,1.094-0.922,0.895-1.615l-6.766-23.658    c-0.196-0.692-0.913-1.094-1.614-0.896c-0.693,0.199-1.094,0.922-0.895,1.615l6.766,23.658    C190.738,70.42,191.261,70.793,191.829,70.793z"/>
		<path style="fill:#251626;" d="M189.877,17.907c0.209,0,0.418-0.05,0.614-0.154c0.637-0.339,0.877-1.131,0.538-1.767    c-1.563-2.919-6.445-7.96-13.647-6.173c-0.701,0.175-1.127,0.882-0.953,1.582c0.173,0.699,0.872,1.125,1.581,0.952    c7.082-1.764,10.679,4.804,10.715,4.871C188.962,17.658,189.413,17.907,189.877,17.907z"/>
		<path style="fill:#251626;" d="M173.963,23.772c0.206,0,0.418-0.051,0.615-0.157c0.635-0.34,0.875-1.128,0.535-1.763    c-1.563-2.918-6.445-7.964-13.647-6.173c-0.701,0.173-1.127,0.882-0.953,1.582c0.173,0.697,0.869,1.127,1.581,0.952    c7.034-1.739,10.57,4.602,10.717,4.873C173.048,23.524,173.497,23.772,173.963,23.772z"/>
		<path style="fill:#251626;" d="M162.568,10.632c0.334,0,0.668-0.127,0.923-0.382c0.507-0.51,0.51-1.333,0-1.842    c-2.338-2.344-8.454-5.768-14.848-1.964c-0.619,0.368-0.823,1.17-0.454,1.79c0.372,0.619,1.178,0.819,1.79,0.454    c6.221-3.703,11.449,1.35,11.669,1.567C161.902,10.505,162.234,10.632,162.568,10.632z"/>
		<path style="fill:#251626;" d="M149.311,19.556c0.334,0,0.668-0.128,0.923-0.382c0.507-0.51,0.51-1.333,0-1.842    c-2.338-2.343-8.456-5.767-14.848-1.964c-0.62,0.368-0.823,1.17-0.454,1.79c0.372,0.618,1.18,0.817,1.79,0.454    c6.22-3.704,11.449,1.349,11.668,1.566C148.645,19.429,148.977,19.556,149.311,19.556z"/>
		<path style="fill:#251626;" d="M194.534,32.675c0.296,0,0.594-0.099,0.839-0.305c0.553-0.463,0.625-1.286,0.161-1.839    c-0.27-0.323-6.715-7.899-13.537-5.937c-0.693,0.197-1.094,0.92-0.895,1.614c0.196,0.688,0.921,1.091,1.614,0.895    c5.201-1.481,10.763,5.039,10.819,5.106C193.793,32.515,194.162,32.675,194.534,32.675z"/>
		<path style="fill:#DD7C2E;" d="M136.842,404.995l-76.713,19.144c0,0-50.748-132.404,38.971-140.956L136.842,404.995z"/>
		<path style="fill:#251626;" d="M228.897,413.221c0.619,0,1.17-0.445,1.282-1.078c7.054-39.953-9.593-72.687-9.761-73.012    c-0.337-0.642-1.124-0.888-1.759-0.558c-0.64,0.332-0.892,1.119-0.561,1.759c0.166,0.319,16.408,32.306,9.512,71.357    c-0.125,0.71,0.349,1.387,1.058,1.512C228.744,413.215,228.821,413.221,228.897,413.221z"/>
		<path style="fill:#251626;" d="M66.17,423.937c0.12,0,0.242-0.016,0.362-0.051l77.922-22.482c0.648-0.187,1.048-0.837,0.92-1.5    l-14.934-77.907c-0.135-0.709-0.834-1.171-1.527-1.036c-0.709,0.137-1.173,0.82-1.037,1.529l14.71,76.736l-76.777,22.152    c-0.694,0.2-1.091,0.923-0.892,1.616C65.082,423.565,65.602,423.937,66.17,423.937z"/>
		<path style="fill:#251426;" d="M318.144,430.474c0.268,0,0.538-0.081,0.77-0.252c0.584-0.424,0.708-1.241,0.283-1.824    c-1.818-2.486-6.863-7.653-7.077-7.872c-0.505-0.514-1.331-0.524-1.846-0.02c-0.515,0.504-0.525,1.33-0.02,1.846    c0.051,0.052,5.127,5.253,6.837,7.589C317.346,430.289,317.743,430.474,318.144,430.474z"/>
		<path style="fill:#251426;" d="M303.615,438.112c0.265,0,0.53-0.08,0.762-0.246c0.586-0.421,0.719-1.237,0.298-1.822    c-1.237-1.717-5.754-5.726-6.264-6.177c-0.533-0.475-1.359-0.428-1.843,0.114c-0.477,0.54-0.426,1.365,0.115,1.842    c1.328,1.174,4.971,4.492,5.871,5.746C302.809,437.923,303.209,438.112,303.615,438.112z"/>
	</g>
	<g>
		<path style="fill:#3D9C91;" d="M366.792,242.263c0,0-52.495-5.113-64.076,33.269c-17.932,59.43,64.574,77.714,64.574,77.714    l-13.179-22.327c0,0,55.418,4.544,64.555-28.339C427.804,269.698,390.542,240.425,366.792,242.263z"/>
		<path style="fill:#251426;" d="M380.499,288.595c0-5.279,4.293-9.573,9.573-9.573c5.28,0,9.573,4.294,9.573,9.573    s-4.293,9.573-9.573,9.573C384.792,298.168,380.499,293.873,380.499,288.595z M383.11,288.595c0,3.839,3.123,6.962,6.962,6.962    s6.962-3.123,6.962-6.962s-3.123-6.962-6.962-6.962S383.11,284.755,383.11,288.595z"/>
		<path style="fill:#251426;" d="M322.241,288.595c0-5.279,4.293-9.573,9.573-9.573c5.28,0,9.573,4.294,9.573,9.573    s-4.293,9.573-9.573,9.573C326.534,298.168,322.241,293.873,322.241,288.595z M324.851,288.595c0,3.839,3.123,6.962,6.962,6.962    s6.962-3.123,6.962-6.962s-3.123-6.962-6.962-6.962S324.851,284.755,324.851,288.595z"/>
		<path style="fill:#251426;" d="M350.116,288.595c0-5.279,4.293-9.573,9.573-9.573s9.573,4.294,9.573,9.573    s-4.293,9.573-9.573,9.573S350.116,293.873,350.116,288.595z M352.726,288.595c0,3.839,3.123,6.962,6.962,6.962    s6.962-3.123,6.962-6.962s-3.123-6.962-6.962-6.962S352.726,284.755,352.726,288.595z"/>
	</g>
</g>















</svg>
