<?xml version="1.0" encoding="UTF-8"?>
<!-- Generator: Adobe Illustrator 25.1.0, SVG Export Plug-In . SVG Version: 6.00 Build 0)  -->
<svg xmlns="http://www.w3.org/2000/svg" xmlns:xlink="http://www.w3.org/1999/xlink" version="1.1" id="Capa_1" x="0px" y="0px" viewBox="0 0 500 500" style="enable-background:new 0 0 500 500;" xml:space="preserve" width="512" height="512">
<g>
	<g>
		<path style="fill:#9CD1C3;" d="M117.666,211.121c0,0,65.279-94.285,190.683-32.219c90.702,44.89,5.861,155.85,38.468,170.526    c71.894,32.358,44.642,149.332-108.184,145.36S50.828,395.759,87.266,367.684C150.098,319.273,71.757,276.794,117.666,211.121z"/>
		<path style="fill:#251626;" d="M91.157,378.45c-0.059,0-0.119-0.006-0.178-0.016c-0.551-0.097-0.919-0.622-0.82-1.171    c1.472-8.307,6.335-10.026,6.541-10.093c0.529-0.186,1.104,0.107,1.28,0.636c0.178,0.527-0.105,1.096-0.628,1.278    c-0.166,0.059-3.953,1.497-5.202,8.53C92.064,378.107,91.637,378.45,91.157,378.45z"/>
		<path style="fill:#251626;" d="M109.318,373.794c-0.059,0-0.119-0.006-0.178-0.016c-0.551-0.097-0.919-0.622-0.82-1.171    c1.472-8.303,6.336-10.024,6.541-10.093c0.531-0.186,1.104,0.107,1.28,0.636c0.178,0.527-0.105,1.098-0.628,1.278    c-0.186,0.067-3.957,1.517-5.202,8.53C110.225,373.45,109.798,373.794,109.318,373.794z"/>
		<path style="fill:#251626;" d="M86.894,401.21c-0.494,0-0.926-0.364-1-0.867c-1.205-8.346,2.872-11.505,3.046-11.636    c0.444-0.332,1.079-0.243,1.416,0.203c0.334,0.446,0.245,1.075-0.198,1.41c-0.158,0.126-3.281,2.687-2.262,9.734    c0.079,0.553-0.304,1.065-0.857,1.146C86.991,401.206,86.943,401.21,86.894,401.21z"/>
		<path style="fill:#251626;" d="M97.544,389.535c-0.024,0-0.047,0-0.069-0.002c-0.559-0.038-0.98-0.519-0.942-1.077    c0.567-8.418,5.217-10.65,5.415-10.741c0.502-0.233,1.108-0.016,1.341,0.496c0.233,0.506,0.014,1.102-0.488,1.338    c-0.172,0.085-3.769,1.928-4.249,9.042C98.516,389.126,98.071,389.535,97.544,389.535z"/>
		<path style="fill:#251626;" d="M97.441,412.615c-0.371,0-0.727-0.206-0.905-0.559c-3.767-7.549-0.887-11.828-0.762-12.005    c0.324-0.462,0.956-0.565,1.409-0.251c0.456,0.318,0.569,0.944,0.257,1.401c-0.107,0.158-2.278,3.57,0.907,9.951    c0.249,0.5,0.047,1.108-0.453,1.357C97.747,412.581,97.593,412.615,97.441,412.615z"/>
		<path style="fill:#251626;" d="M105.716,363.733c-0.107,0-0.217-0.018-0.324-0.053c-0.529-0.18-0.814-0.753-0.634-1.282    c2.704-7.989,7.77-8.957,7.983-8.995c0.541-0.109,1.075,0.269,1.169,0.822c0.097,0.547-0.267,1.069-0.814,1.169    c-0.184,0.036-4.135,0.895-6.422,7.651C106.532,363.468,106.139,363.733,105.716,363.733z"/>
		<path style="fill:#251626;" d="M147.892,193.848c-0.231,0-0.464-0.079-0.654-0.239c-0.427-0.361-0.478-1-0.119-1.426    c5.454-6.431,10.524-5.474,10.735-5.427c0.547,0.113,0.899,0.648,0.784,1.195c-0.113,0.545-0.65,0.901-1.185,0.786    c-0.19-0.032-4.176-0.689-8.789,4.753C148.463,193.727,148.178,193.848,147.892,193.848z"/>
		<path style="fill:#251626;" d="M165.929,198.968c-0.231,0-0.464-0.079-0.654-0.239c-0.427-0.361-0.478-1-0.119-1.426    c5.456-6.436,10.522-5.476,10.735-5.427c0.547,0.113,0.899,0.648,0.784,1.195c-0.113,0.545-0.648,0.903-1.185,0.786    c-0.192-0.034-4.18-0.689-8.789,4.753C166.499,198.848,166.215,198.968,165.929,198.968z"/>
		<path style="fill:#251626;" d="M131.592,209.049c-0.126,0-0.255-0.024-0.379-0.073c-0.517-0.209-0.768-0.8-0.559-1.318    c3.161-7.819,8.273-8.495,8.489-8.52c0.537-0.055,1.057,0.334,1.122,0.889c0.063,0.553-0.33,1.051-0.881,1.12    c-0.182,0.026-4.18,0.654-6.853,7.27C132.37,208.81,131.991,209.049,131.592,209.049z"/>
		<path style="fill:#251626;" d="M147.831,206.639c-0.196,0-0.393-0.055-0.567-0.174c-0.462-0.314-0.585-0.942-0.271-1.405    c4.729-6.986,9.876-6.571,10.085-6.553c0.557,0.055,0.964,0.549,0.911,1.104c-0.053,0.553-0.543,0.956-1.096,0.911    c-0.196-0.024-4.23-0.229-8.224,5.672C148.473,206.483,148.155,206.639,147.831,206.639z"/>
		<path style="fill:#251626;" d="M133.21,217.244c-0.195,0-0.393-0.055-0.567-0.174c-0.462-0.314-0.585-0.942-0.271-1.405    c4.729-6.986,9.878-6.565,10.085-6.553c0.557,0.055,0.964,0.549,0.911,1.104c-0.055,0.553-0.555,0.946-1.096,0.911    c-0.194-0.026-4.23-0.229-8.224,5.672C133.852,217.088,133.534,217.244,133.21,217.244z"/>
		<path style="fill:#251626;" d="M120.507,227.58c-0.024,0-0.046,0-0.067-0.002c-0.557-0.036-0.98-0.517-0.944-1.075    c0.545-8.416,5.188-10.662,5.385-10.753c0.502-0.241,1.108-0.016,1.341,0.492c0.235,0.504,0.018,1.1-0.484,1.339    c-0.174,0.085-3.763,1.942-4.224,9.052C121.479,227.169,121.035,227.58,120.507,227.58z"/>
		<path style="fill:#251626;" d="M167.882,188.462c-0.283,0-0.563-0.117-0.763-0.348c-0.367-0.421-0.324-1.059,0.099-1.426    c6.351-5.541,11.221-3.83,11.426-3.753c0.524,0.194,0.79,0.776,0.597,1.3c-0.192,0.52-0.772,0.79-1.292,0.599    c-0.192-0.063-4.034-1.302-9.404,3.38C168.354,188.381,168.119,188.462,167.882,188.462z"/>
	</g>
	<g>
		<path style="fill:#EFA880;" d="M379.89,157.816c0,0,1.598-32.016,10.088-34.864c8.49-2.848-3.095,23.568-3.095,23.568    s18.439-27.682,20.972-25.749c2.533,1.933-12.093,26.127-12.093,26.127s21.209-19.102,22.711-17.521    c1.502,1.581-15.14,23.905-15.14,23.905s20.535-15.478,22.521-12.98c1.986,2.498-18.595,24.502-27.234,28.125    C389.982,172.049,379.689,160.765,379.89,157.816z"/>
		<path style="fill:#251626;" d="M390.49,161.295c-0.057,0-0.117-0.006-0.174-0.016c-0.551-0.095-0.919-0.618-0.826-1.168    c0.018-0.097,1.592-9.587-3.165-12.75c-0.466-0.308-0.593-0.936-0.283-1.401c0.31-0.468,0.94-0.589,1.401-0.282    c5.857,3.892,4.117,14.336,4.04,14.779C391.399,160.949,390.972,161.295,390.49,161.295z"/>
		<path style="fill:#EFA880;" d="M395.015,164.469c0,0,0.282,86.3-4.01,94.257c-4.292,7.957-88.318-9.862-88.318-9.862l9.014-23.061    l64.759,12.634c0,0,3.427-76.399,3.567-79.813C380.047,158.139,395.015,164.469,395.015,164.469z"/>
		<path style="fill:#84556C;" d="M218.254,163.561c0,0-55.855,40.532-87.185-21.184c-20.831-41.034,0.762-117.616,68.48-129.372    s93.162,23.339,109.1,73.293C325.879,140.305,275.404,210.5,218.254,163.561z"/>
		<path style="fill:#757A91;" d="M181.274,334.469l106.31,10.615c0,0,14.541-126.553-1.418-132.1    c-15.959-5.547-103.917-14.118-117.755,10.017C161.701,234.705,181.274,334.469,181.274,334.469z"/>
		<path style="fill:#251426;" d="M364.993,399.179l35.41-9.84l2.339,9.601l-11.361-0.445c0,0,15.854,0.598,12.688,26.922    c0,0-18.342-31.181-35.941-8.282L364.993,399.179z"/>
		<path style="fill:#251426;" d="M291.737,454.911l33.597,14.899l-4.293,8.901l-8.491-7.562c0,0,11.864,10.534-7.307,28.851    c0,0,5.646-35.732-22.493-29.23L291.737,454.911z"/>
		<path style="fill:#EFA880;" d="M162.695,73.788c0,0,48.717-45.927,97.098-16.85c36.198,21.755,16.504,152.41-45.479,142.69    C170.38,192.738,141.888,100.573,162.695,73.788z"/>
		<path style="fill:#251626;" d="M232.873,151.155c-0.221,0-0.451-0.049-0.678-0.148c-4.032-1.764-16.739-8.945-17.278-9.249    c-0.486-0.277-0.658-0.893-0.383-1.379c0.275-0.49,0.893-0.658,1.379-0.383c0.126,0.073,12.313,6.958,16.675,8.971    c0.717-3.032-2.175-18.58-5.575-32.669c-0.13-0.543,0.204-1.089,0.747-1.221c0.549-0.122,1.091,0.206,1.221,0.747    c2.926,12.128,7.444,32.8,4.834,34.986C233.541,151.038,233.215,151.155,232.873,151.155z"/>
		<path style="fill:#251626;" d="M199.467,129.222c-0.04,0-0.077-0.002-0.117-0.004c-4.552-0.213-6.664-13.41-7.203-17.448    c-0.073-0.555,0.316-1.063,0.869-1.136c0.543-0.095,1.063,0.312,1.136,0.867c1.004,7.507,3.368,15.607,5.292,15.698    c0.01,0,0.02,0,0.03,0c1.8,0,3.607-7.926,4.111-15.095c0.039-0.559,0.567-0.972,1.081-0.938c0.557,0.04,0.978,0.524,0.938,1.081    C205.324,116.251,204.054,129.222,199.467,129.222z"/>
		<path style="fill:#251626;" d="M246.285,129.582c-0.156,0-0.312-0.016-0.472-0.047c-4.342-0.869-6.748-14.568-7.382-18.744    c-0.085-0.553,0.296-1.069,0.848-1.152c0.543-0.077,1.069,0.296,1.152,0.848c1.199,7.89,3.752,16.658,5.782,17.064    c1.719,0.344,4.781-7.248,6.361-14.299c0.125-0.543,0.66-0.879,1.209-0.766c0.545,0.122,0.889,0.664,0.766,1.209    C253.691,117.507,250.633,129.582,246.285,129.582z"/>
		<path style="fill:#EFA880;" d="M166.044,130.669c-0.328,6.931-6.212,12.285-13.144,11.957    c-6.932-0.328-12.285-6.212-11.957-13.144c0.328-6.932,6.212-12.285,13.144-11.957    C161.018,117.853,166.371,123.737,166.044,130.669z"/>
		<path style="fill:#251626;" d="M158.295,138.942c-0.028,0-0.053,0-0.081-0.004c-0.557-0.043-0.974-0.529-0.929-1.087    c0.245-3.147-0.421-5.411-1.981-6.727c-2.734-2.305-7.39-1.156-7.438-1.146c-0.547,0.144-1.091-0.19-1.229-0.731    c-0.138-0.541,0.19-1.092,0.731-1.229c0.235-0.059,5.723-1.405,9.24,1.559c2.088,1.76,2.995,4.597,2.693,8.432    C159.259,138.539,158.817,138.942,158.295,138.942z"/>
		<path style="fill:#EA7C71;" d="M200.201,143.545c-0.752,6.573-6.69,11.291-13.262,10.539c-6.573-0.752-11.291-6.69-10.539-13.262    c0.752-6.573,6.69-11.291,13.262-10.539C196.235,131.035,200.953,136.973,200.201,143.545z"/>
		<path style="fill:#EA7C71;" d="M269.159,142.366c-0.752,6.573-6.69,11.291-13.262,10.539c-6.573-0.752-11.291-6.69-10.539-13.262    c0.752-6.573,6.69-11.291,13.262-10.539C265.193,129.856,269.911,135.793,269.159,142.366z"/>
		<polygon style="fill:#E9546A;" points="201.651,328.569 112.25,418.773 290.301,497.307 316.548,443.341 174.808,407.378     239.648,355.271   "/>
		<polygon style="fill:#E9546A;" points="232.781,350.445 187.836,425.087 382.435,426.108 371.257,376.426 240.662,389.692     271.369,362.356   "/>
		<path style="fill:#EFA880;" d="M225.846,177.086l1.887,29.151l17.545,0.292c0,0-3.927,30.996-19.84,29.489    c-15.913-1.507-29.624-27.012-29.624-27.012l16.199-2.476l-5.853-25.235L225.846,177.086z"/>
		<path style="fill:#EA7C71;" d="M209.961,161.837c0,0,6.24-7.821,8.555-5.806c2.316,2.015,4.188,7.83,4.188,7.83    s2.261-13.178,5.456-10.473c3.194,2.705,7.021,13.872,7.021,13.872s-0.416,15.07-13.035,15.702    C209.528,183.593,201.049,169.892,209.961,161.837z"/>
		<path style="fill:#251626;" d="M221.964,174.357c-6.397,0-14.17-17.778-15.719-21.482c-0.215-0.516,0.028-1.108,0.541-1.324    c0.52-0.213,1.108,0.026,1.324,0.541c3.744,8.949,10.64,21.108,14.18,20.2c4.68-1.217,13.947-11.395,17.122-15.213    c0.361-0.431,1-0.484,1.424-0.132c0.431,0.357,0.488,0.996,0.132,1.424c-0.484,0.583-11.906,14.249-18.169,15.879    C222.523,174.323,222.245,174.357,221.964,174.357z"/>
		<polygon style="fill:#EFA880;" points="168.411,223.001 77.089,319.617 170.143,358.56 179.877,340.502 112.25,315.029     180.524,252.869   "/>
		<path style="fill:#84556C;" d="M149.364,87.932c0,0,2.88,19.292,28.398,20.147c45.466,1.523,38.792-51.46,38.792-51.46    s24.801,55.226,57.413,44.025s-1.152-70.039-41.406-67.223C192.307,36.237,155.653,52.788,149.364,87.932z"/>
		<path style="fill:#251626;" d="M178.015,111.994c-3.029,0-5.182-1.426-6.422-2.574c-0.924-0.855-1.699-1.873-2.319-2.955    c-0.073,0.065-0.146,0.13-0.219,0.196c-2.054,1.782-7.562,5.585-14.425,2.347c-3.923-1.853-6.177-4.263-6.695-7.167    c-0.802-4.494,2.924-8.349,3.084-8.511c0.389-0.395,1.027-0.401,1.428-0.014c0.399,0.391,0.405,1.031,0.016,1.43    c-0.032,0.034-3.159,3.287-2.535,6.749c0.399,2.217,2.272,4.129,5.567,5.683c5.782,2.73,10.478-0.522,12.232-2.045    c0.219-0.192,0.433-0.389,0.636-0.589c-1.007-2.596-1.173-5.267-0.437-6.879c0.585-1.27,1.679-1.896,3.02-1.762    c1.241,0.14,2.112,0.826,2.454,1.928c0.569,1.828-0.537,4.649-2.655,7.124c0.553,1.081,1.29,2.12,2.221,2.979    c1.908,1.768,5.239,3.285,10.261,0.494c4.751-2.645,7.349-6.814,8.485-10.905c-1.958-0.332-3.376-1.154-4.273-1.849    c-2.6-2.017-3.999-5.356-3.481-8.313c0.369-2.096,1.683-3.655,3.607-4.275c2.365-0.771,4.546,0.504,5.806,3.404    c1.039,2.392,1.409,5.674,0.871,9.121c1.478-0.109,3.07-0.539,4.729-1.29c6.426-2.912,8.902-10.277,8.795-16.602    c-1.93-0.049-3.686-0.672-5.132-1.859c-2.078-1.709-3.125-4.397-2.544-6.541c0.423-1.565,1.646-2.617,3.35-2.892    c2.294-0.34,4.36,1.63,5.48,5.354c0.342,1.138,0.595,2.412,0.739,3.773c0.944-0.182,1.997-0.529,3.163-1.106    c2.165-1.071,3.42-2.551,3.836-4.522c1.233-5.826-5.31-13.763-5.375-13.843c-0.358-0.429-0.3-1.067,0.128-1.424    c0.429-0.359,1.067-0.3,1.424,0.128c0.296,0.356,7.234,8.765,5.804,15.553c-0.545,2.582-2.201,4.573-4.921,5.921    c-1.337,0.662-2.657,1.098-3.929,1.31c0.17,6.91-2.424,15.168-9.984,18.592c-2.294,1.041-4.289,1.46-5.988,1.505    c-1.233,4.749-4.235,9.54-9.607,12.527C181.851,111.508,179.783,111.994,178.015,111.994z M170.557,97.904    c-0.285,0-0.565,0.111-0.792,0.602c-0.413,0.905-0.385,2.523,0.119,4.273c1.268-1.75,1.859-3.469,1.584-4.348    c-0.071-0.233-0.213-0.456-0.751-0.518C170.664,97.908,170.61,97.904,170.557,97.904z M188.868,84.898    c-0.215,0-0.442,0.036-0.684,0.112c-1.543,0.498-2.066,1.744-2.234,2.701c-0.387,2.203,0.735,4.82,2.726,6.365    c1.007,0.78,2.179,1.268,3.475,1.466c0.549-3.256,0.215-6.286-0.636-8.246C191.1,86.344,190.245,84.898,188.868,84.898z     M203.955,68.41c-0.065,0-0.13,0.004-0.196,0.016c-0.924,0.148-1.501,0.626-1.719,1.42c-0.318,1.183,0.223,3.09,1.877,4.449    c0.727,0.597,1.952,1.31,3.724,1.407c-0.128-1.191-0.352-2.317-0.66-3.341C206.249,69.923,205.079,68.41,203.955,68.41z"/>
		<path style="fill:#251626;" d="M254.236,102.219c-1.944,0-4.236-0.611-6.823-2.353c-5.099-3.436-7.683-8.463-8.509-13.301    c-1.689-0.188-3.639-0.774-5.838-2.005c-7.24-4.056-9.125-12.503-8.368-19.374c-1.25-0.32-2.529-0.867-3.805-1.64    c-2.596-1.573-4.076-3.698-4.399-6.318c-0.85-6.883,6.78-14.676,7.104-15.004c0.393-0.395,1.033-0.403,1.43-0.008    c0.397,0.393,0.401,1.033,0.008,1.43c-0.073,0.073-7.266,7.428-6.535,13.337c0.249,1.999,1.373,3.58,3.439,4.832    c1.112,0.674,2.133,1.11,3.058,1.371c0.259-1.343,0.62-2.594,1.057-3.698c1.434-3.613,3.635-5.429,5.917-4.868    c1.675,0.417,2.803,1.57,3.092,3.165c0.397,2.185-0.875,4.777-3.09,6.302c-1.541,1.059-3.329,1.545-5.273,1.416    c-0.644,6.296,1.197,13.842,7.353,17.29c1.59,0.891,3.139,1.454,4.601,1.689c-0.241-3.481,0.405-6.721,1.644-9.016    c1.501-2.78,3.773-3.866,6.075-2.898c1.865,0.78,3.042,2.446,3.23,4.568c0.267,2.989-1.411,6.197-4.172,7.987    c-0.954,0.616-2.438,1.316-4.415,1.478c0.784,4.174,3.017,8.55,7.527,11.586c4.767,3.21,8.214,1.978,10.265,0.381    c1.002-0.778,1.825-1.75,2.467-2.78c-1.901-2.647-2.762-5.551-2.041-7.325c0.435-1.069,1.361-1.677,2.61-1.713    c1.328,0.016,2.386,0.697,2.859,2.013c0.599,1.669,0.206,4.315-1.017,6.817c0.186,0.217,0.379,0.431,0.583,0.64    c1.618,1.668,6.019,5.308,12.015,3.076c3.414-1.268,5.441-3.015,6.029-5.192c0.915-3.394-1.924-6.902-1.954-6.938    c-0.354-0.43-0.292-1.069,0.138-1.424c0.431-0.352,1.067-0.292,1.421,0.135c0.146,0.176,3.532,4.332,2.351,8.742    c-0.763,2.851-3.212,5.061-7.282,6.575c-7.104,2.635-12.276-1.612-14.17-3.564c-0.069-0.071-0.136-0.142-0.204-0.213    c-0.709,1.027-1.567,1.975-2.562,2.748C258.837,101.109,256.854,102.219,254.236,102.219z M261.949,88.771    c-0.016,0-0.032,0.002-0.049,0.002c-0.539,0.014-0.699,0.225-0.792,0.452c-0.346,0.853,0.095,2.616,1.211,4.469    c0.65-1.701,0.816-3.313,0.48-4.247C262.591,88.868,262.271,88.771,261.949,88.771z M244.756,74.255    c-1.286,0-2.203,1.296-2.677,2.173c-1.013,1.879-1.604,4.872-1.333,8.161c1.308-0.085,2.517-0.474,3.585-1.165    c2.116-1.371,3.455-3.882,3.258-6.11c-0.087-0.968-0.502-2.254-1.997-2.88C245.297,74.311,245.019,74.255,244.756,74.255z     M226.998,63.505c1.782,0.053,3.056-0.551,3.828-1.085c1.764-1.213,2.466-3.068,2.248-4.273c-0.148-0.812-0.684-1.337-1.592-1.563    c-1.168-0.306-2.553,1.146-3.546,3.649C227.545,61.225,227.227,62.329,226.998,63.505z"/>
		<path style="fill:#251626;" d="M267.22,174.863c-1.341,0-2.805-0.162-4.409-0.527c-0.543-0.124-0.885-0.666-0.761-1.211    c0.122-0.541,0.644-0.891,1.211-0.761c5.666,1.29,10.245-0.126,13.214-4.095c1.645-2.201,2.649-4.996,3.08-7.801    c-0.867-0.357-1.579-0.751-2.116-1.089c-3.975-2.503-6.505-6.891-5.765-9.988c0.399-1.665,1.705-2.718,3.586-2.892    c1.962-0.17,3.67,0.895,4.86,3.023c1.314,2.347,1.918,5.877,1.63,9.562c3.39,0.928,8.593,0.83,14.929-4.311    c4.563-3.702,5.117-9.21,4.075-13.378c-1.055,0.444-2.047,0.759-2.928,0.944c-2.635,0.561-4.623,0.154-5.595-1.134    c-0.595-0.788-1.039-2.23,0.223-4.629c1.487-2.823,3.354-3.098,4.342-2.995c1.997,0.194,3.925,2.102,5.15,5.002    c4.67-2.57,9.988-7.697,11.839-15.549c1.891-8.032-1.29-15.761-5.512-20.304c-1.041,0.921-2.027,1.561-2.772,1.978    c-3.412,1.904-7.151,2.228-9.084,0.778c-1.037-0.778-1.454-2.003-1.142-3.36c0.81-3.534,2.712-4.802,4.164-5.245    c2.552-0.786,5.737,0.314,8.805,3.005c2.365-2.714,4.557-7.238,3.892-14.483c-0.944-10.29-7.481-14.49-11.294-16.077    c-1.367-0.569-2.698-0.946-3.939-1.169c-1.551,3.427-3.479,5.624-5.245,5.915c-1.085,0.184-3.011-0.122-3.834-4.093    c-0.213-1.029,0.148-1.993,1.021-2.714c1.41-1.164,3.947-1.594,6.808-1.322c1.693-4.479,2.874-11.022,1.989-18.329    c-1.106-9.149-6.6-11.928-11.012-12.647c-2.92-0.474-5.988-0.16-8.684,0.537c-0.468,2.392-1.452,4.312-2.651,5.605    c-2.005,2.161-4.587,2.519-6.42,0.893c-0.909-0.806-1.122-1.92-0.583-3.056c0.853-1.792,3.888-3.787,7.78-5.026    c0.51-5.101-1.452-12.574-9.874-20.748c-6.043-5.863-15.142-3.034-20.03-0.825c-2.991,1.352-5.697,3.034-7.938,4.742    c0.071,0.247,0.138,0.493,0.199,0.737c0.964,3.873,0.47,7.167-1.32,8.814c-0.931,0.855-2.639,1.669-5.476,0.711    c-1.187-0.403-1.871-1.261-1.928-2.416c-0.107-2.206,2.394-5.472,6.16-8.561c-2.108-5.72-7.345-11.811-15.237-13.873    c-9.334-2.437-18.011,5.32-23.023,13.391c-0.075,0.119-0.146,0.237-0.219,0.355c1.533,1.164,2.669,2.446,3.414,3.712    c1.45,2.465,1.551,4.999,0.267,6.78c-0.83,1.15-2.934,2.928-7.795,1.891c-0.737-0.158-1.278-0.688-1.525-1.492    c-0.583-1.895,0.581-5.922,2.963-10.286c-3.86-2.309-9.882-3.807-18.191-2.824c-10.954,1.292-15.528,8.357-17.434,14.058    c-0.847,2.529-1.276,5.101-1.397,7.495c2.09,0.282,3.544,0.915,4.303,1.322c2.726,1.466,4.324,3.9,4.168,6.349    c-0.146,2.307-1.804,4.235-4.548,5.29c-1.031,0.401-2.1,0.138-3.005-0.725c-1.758-1.683-2.91-5.664-2.973-10.348c0,0,0,0-0.002,0    c-4.172,0-9.641,1.709-15.871,6.418c-11.883,8.983-8.277,19.896-6.891,23.025c0.039,0.089,0.081,0.178,0.12,0.265    c2.697-1.152,4.941-1.294,6.464-0.377c0.915,0.553,1.981,1.752,1.873,4.328c-0.128,2.989-1.576,3.706-2.428,3.868    c-2.025,0.387-4.755-1.733-6.78-5.134c-0.119,0.065-0.239,0.134-0.36,0.204c-6.879,3.99-17.659,15.676-17.307,30.038    c0.117,4.775,1.555,7.572,3.404,9.182c2.017-2.926,5.109-4.404,9.174-4.352c5.688,0.119,6.871,1.81,6.863,3.208    c-0.014,2.598-4.872,5.194-9.805,5.239c-1.116,0.02-3.309-0.138-5.5-1.243c-0.551,1.247-0.883,2.584-1.077,3.852    c-1.675,10.982,5.13,26.529,12.552,28.679c0.385,0.112,0.761,0.207,1.128,0.288c-0.235-2.329-0.128-4.457,0.357-6.154    c0.923-3.226,3.175-4.791,6.193-4.269c4.323,0.739,5.666,2.979,6.081,4.249c0.616,1.879,0.028,3.991-1.574,5.65    c-2.029,2.1-5.121,3.105-8.675,2.896c1.42,7.078,5.81,15.314,11.948,17.821c3.56,1.456,6.389,0.899,8.333-0.028    c-2.94-4.141-3.949-8.923-2.882-11.99c0.919-2.639,3.224-3.619,6.179-2.623c2.345,0.79,3.868,2.527,4.293,4.887    c0.603,3.36-1.189,7.497-4.358,10.059c-0.063,0.051-0.126,0.101-0.19,0.15c1.748,1.948,4.034,3.633,6.863,4.646    c6.871,2.462,12.823-0.684,12.882-0.713c0.486-0.267,1.104-0.085,1.369,0.409c0.267,0.49,0.083,1.104-0.409,1.369    c-0.272,0.148-6.813,3.599-14.526,0.84c-3.274-1.173-5.929-3.131-7.938-5.415c-3.109,1.628-6.78,1.75-10.383,0.281    c-7.009-2.865-11.861-12.096-13.264-19.943c-0.654-0.119-1.32-0.275-1.991-0.468c-9.056-2.624-15.668-19.927-13.991-30.929    c0.269-1.754,0.721-3.307,1.349-4.65c-2.327-1.845-4.289-5.115-4.431-10.879c-0.375-15.346,10.747-27.448,18.315-31.838    c0.144-0.085,0.288-0.166,0.431-0.245c-0.051-0.112-0.103-0.225-0.154-0.34c-1.541-3.475-5.551-15.579,7.519-25.456    c7.244-5.476,12.997-6.835,17.134-6.837c0.138-2.61,0.611-5.358,1.494-7.995c2.957-8.842,9.747-14.32,19.115-15.425    c8.736-1.028,15.19,0.583,19.429,3.102c1.501-2.464,3.358-4.959,5.484-7.177c4.409-4.602,11.454-9.616,19.943-7.4    c8.327,2.176,13.947,8.471,16.395,14.538c2.333-1.717,5.018-3.319,7.801-4.577c5.358-2.42,15.371-5.479,22.274,1.216    c8.402,8.156,10.917,15.886,10.603,21.617c2.772-0.626,5.818-0.844,8.744-0.365c7.207,1.173,11.715,6.288,12.695,14.399    c0.869,7.177-0.164,13.947-1.968,18.878c1.306,0.267,2.641,0.67,3.939,1.209c4.232,1.762,11.49,6.413,12.531,17.76    c0.735,8.017-1.764,13.052-4.449,16.083c4.625,4.953,8.121,13.41,6.049,22.197c-2.033,8.633-7.979,14.241-13.143,17.007    c1.334,4.832,0.794,11.416-4.656,15.842c-6.839,5.545-12.598,5.757-16.454,4.771c-0.5,2.989-1.604,5.956-3.406,8.364    C276.139,172.095,272.757,174.863,267.22,174.863z M155.024,152.144c-1.049,0-1.754,0.547-2.138,1.652    c-0.804,2.309,0.101,6.521,2.748,10.231c0.063-0.049,0.124-0.097,0.184-0.144c2.62-2.12,4.117-5.462,3.639-8.129    c-0.293-1.626-1.312-2.775-2.949-3.329C155.954,152.237,155.46,152.144,155.024,152.144z M275.671,148.503    c-0.075,0-0.15,0.002-0.225,0.01c-1.019,0.093-1.608,0.535-1.804,1.347c-0.476,1.987,1.369,5.598,4.874,7.805    c0.342,0.215,0.762,0.454,1.258,0.685c0.162-3.044-0.344-5.919-1.42-7.843C277.609,149.177,276.706,148.503,275.671,148.503z     M133.245,145.273c3.597,0.314,6.191-0.84,7.55-2.248c1.073-1.108,1.486-2.46,1.108-3.613c-0.474-1.446-2.07-2.469-4.498-2.884    c-1.991-0.338-3.266,0.585-3.91,2.829C133.04,140.955,132.971,143.013,133.245,145.273z M296.465,135.587    c-0.99,0-1.75,1.037-2.221,1.932c-0.591,1.12-0.737,2.019-0.399,2.465c0.34,0.448,1.482,0.814,3.564,0.373    c0.816-0.172,1.736-0.466,2.714-0.885c-0.915-2.197-2.298-3.761-3.52-3.88C296.558,135.589,296.511,135.587,296.465,135.587z     M119.557,110.411c1.561,0.766,3.271,0.952,4.514,0.944c4.415-0.041,7.797-2.313,7.801-3.228c0.002-0.213-0.863-1.091-4.883-1.174    C123.384,106.887,120.995,108.359,119.557,110.411z M301.102,98.663c-0.379,0-0.737,0.049-1.069,0.15    c-1.371,0.417-2.306,1.683-2.784,3.763c-0.176,0.766,0.134,1.103,0.383,1.288c1.098,0.828,3.975,0.701,6.883-0.925    c0.624-0.348,1.434-0.873,2.297-1.622C304.825,99.613,302.765,98.663,301.102,98.663z M133.947,68.973    c1.681,2.77,3.645,4.212,4.579,4.034c0.441-0.083,0.733-0.82,0.78-1.968c0.055-1.272-0.247-2.118-0.897-2.511    C137.515,67.989,135.895,68.171,133.947,68.973z M294.092,67.892c-1.867,0-3.295,0.383-3.955,0.931    c-0.366,0.3-0.373,0.543-0.332,0.743c0.132,0.626,0.646,2.661,1.527,2.507c0.982-0.16,2.29-1.669,3.483-4.16    C294.569,67.898,294.328,67.892,294.092,67.892z M157.659,37.609c0.087,4.182,1.1,7.55,2.349,8.744    c0.476,0.454,0.747,0.35,0.879,0.298c2.005-0.77,3.161-2.025,3.256-3.528c0.105-1.652-1.087-3.352-3.108-4.441    C160.097,38.178,158.963,37.803,157.659,37.609z M275.641,36.221c-2.859,1.051-4.984,2.467-5.52,3.592    c-0.182,0.383-0.079,0.515,0.099,0.674c1.474,1.308,3.123-0.247,3.593-0.755C274.535,38.955,275.204,37.757,275.641,36.221z     M196.381,17.998c-2.539,4.688-3.129,8.112-2.639,8.676c2.677,0.557,4.765,0.152,5.685-1.121c0.8-1.111,0.664-2.82-0.367-4.572    C198.463,19.968,197.572,18.945,196.381,17.998z M236.51,18.483c-3.029,2.613-4.842,5.095-4.781,6.35    c0.008,0.166,0.02,0.416,0.559,0.599c1.523,0.519,2.687,0.422,3.455-0.285C236.939,24.048,237.229,21.505,236.51,18.483z"/>
		<path style="fill:#757A91;" d="M325.391,223.62l-7.965,48.473l-52.89-20.316l-19.257-45.247    C245.279,206.529,286.61,206.529,325.391,223.62z"/>
		<path style="fill:#757A91;" d="M117.883,257.873l27.131,42.831l57.595-40.542l-6.794-50.831    C195.815,209.331,161.059,212.331,117.883,257.873z"/>
		<polygon style="fill:#F7C67C;" points="157.536,280.549 295.158,279.512 293.652,370.707 164.892,369.06   "/>
		<path style="fill:#251626;" d="M219.287,201.862c-2.809,0-6.017-0.587-9.512-2.219c-0.506-0.237-0.725-0.837-0.488-1.345    c0.237-0.508,0.845-0.725,1.345-0.488c10.988,5.136,18.977-1.241,19.056-1.304c0.431-0.354,1.069-0.29,1.423,0.142    c0.354,0.432,0.29,1.069-0.142,1.422C230.71,198.285,226.223,201.862,219.287,201.862z"/>
		<path style="fill:#251626;" d="M164.727,280.524c-0.249,0-0.496-0.091-0.691-0.273c-9.109-8.53,2.869-27.337,3.382-28.133    c0.302-0.468,0.931-0.605,1.399-0.3c0.468,0.302,0.603,0.928,0.3,1.399c-0.117,0.18-11.58,18.179-3.698,25.557    c0.407,0.383,0.429,1.023,0.048,1.43C165.267,280.417,164.998,280.524,164.727,280.524z"/>
		<path style="fill:#251626;" d="M285.135,280.524c-0.306,0-0.609-0.138-0.808-0.403c-0.336-0.446-0.247-1.081,0.199-1.416    c2.924-2.203,4.488-4.966,4.652-8.212c0.502-9.949-11.873-21.519-11.999-21.634c-0.409-0.379-0.435-1.019-0.055-1.43    c0.379-0.409,1.017-0.435,1.43-0.055c0.537,0.498,13.191,12.323,12.645,23.216c-0.196,3.876-2.031,7.149-5.456,9.731    C285.562,280.457,285.349,280.524,285.135,280.524z"/>
		<path style="fill:#251626;" d="M225.639,243.084c-14.488,0-37.146-27.525-38.12-28.718c-0.354-0.433-0.29-1.071,0.142-1.422    c0.431-0.354,1.071-0.29,1.423,0.142c0.237,0.288,23.85,28.906,37.191,27.952c13.266-0.952,21.966-25.192,22.053-25.437    c0.186-0.529,0.772-0.804,1.29-0.618c0.527,0.186,0.804,0.764,0.618,1.29c-0.371,1.051-9.244,25.737-23.815,26.784    C226.162,243.074,225.901,243.084,225.639,243.084z"/>
		<polygon style="fill:#FFFFFF;" points="217.812,318.384 225.062,305.126 229.586,318.798 245.073,320.986 231.166,327.921     233.761,345.093 223.645,330.396 208.885,341.579 214.498,326.606 200.908,320.035   "/>
		<path style="fill:#251626;" d="M245.074,427.119c-0.087,0-0.174-0.012-0.261-0.034l-64.55-17.28    c-0.541-0.146-0.861-0.699-0.717-1.239c0.146-0.539,0.709-0.849,1.239-0.717l64.55,17.28c0.541,0.146,0.861,0.699,0.717,1.239    C245.929,426.821,245.52,427.119,245.074,427.119z"/>
		<path style="fill:#251626;" d="M275.066,491.6c-0.121,0-0.243-0.022-0.361-0.067c-0.522-0.2-0.782-0.784-0.583-1.306    l20.093-52.393c0.201-0.522,0.788-0.782,1.306-0.583c0.522,0.199,0.782,0.784,0.583,1.306l-20.093,52.393    C275.856,491.353,275.473,491.6,275.066,491.6z"/>
		<path style="fill:#251626;" d="M363.651,427.119c-0.462,0-0.879-0.318-0.986-0.788l-10.838-47.808    c-0.124-0.545,0.217-1.087,0.762-1.209c0.551-0.13,1.085,0.217,1.209,0.762l10.838,47.808c0.124,0.545-0.217,1.087-0.762,1.209    C363.799,427.111,363.724,427.119,363.651,427.119z"/>
		<path style="fill:#251626;" d="M158.222,417.485c-0.257,0-0.512-0.01-0.764-0.03c-0.557-0.043-0.972-0.529-0.929-1.087    c0.044-0.557,0.543-1.011,1.087-0.929c4.998,0.391,11.112-4.097,14.299-6.804l-14.293,1.199c-0.555,0.036-1.047-0.365-1.092-0.922    c-0.047-0.557,0.366-1.047,0.922-1.093l17.272-1.45c0.439-0.03,0.824,0.196,1.002,0.581c0.18,0.385,0.099,0.84-0.2,1.14    C175.13,408.486,166.073,417.485,158.222,417.485z"/>
		<path style="fill:#251626;" d="M229.374,403.215c-0.502,0-0.938-0.373-1.002-0.885c-0.069-0.555,0.324-1.061,0.877-1.13    c4.117-0.516,7.754-6.201,9.579-9.897l-15.545,4.706c-0.533,0.162-1.098-0.138-1.26-0.676c-0.162-0.533,0.14-1.098,0.676-1.26    l17.671-5.35c0.369-0.115,0.772-0.006,1.037,0.283c0.263,0.286,0.338,0.697,0.196,1.059c-0.198,0.5-4.933,12.246-12.1,13.143    C229.459,403.213,229.418,403.215,229.374,403.215z"/>
		<path style="fill:#251626;" d="M222.991,457.999c-8.435,0-10.978-4.488-11.083-4.68c-0.267-0.49-0.085-1.104,0.405-1.373    c0.488-0.261,1.098-0.089,1.367,0.397c0.089,0.154,2.167,3.633,9.311,3.633c0.559,0,1.011,0.453,1.011,1.011    C224.003,457.546,223.551,457.999,222.991,457.999z"/>
		<path style="fill:#251626;" d="M206.44,452.481c-8.433,0-10.976-4.486-11.081-4.678c-0.267-0.49-0.085-1.104,0.405-1.373    c0.49-0.261,1.098-0.089,1.367,0.397c0.097,0.168,2.183,3.631,9.309,3.631c0.559,0,1.011,0.452,1.011,1.011    S207,452.481,206.44,452.481z"/>
		<path style="fill:#251626;" d="M219.495,446.489c-8.434,0-10.976-4.488-11.081-4.68c-0.267-0.49-0.085-1.104,0.405-1.373    c0.488-0.261,1.098-0.087,1.369,0.397c0.097,0.17,2.181,3.633,9.307,3.633c0.559,0,1.011,0.452,1.011,1.011    C220.506,446.037,220.054,446.489,219.495,446.489z"/>
		<path style="fill:#251626;" d="M239.568,455.922c-8.433,0-10.976-4.486-11.081-4.678c-0.267-0.49-0.085-1.104,0.405-1.373    c0.488-0.259,1.098-0.087,1.367,0.397c0.087,0.15,2.163,3.631,9.309,3.631c0.559,0,1.011,0.452,1.011,1.011    C240.579,455.47,240.127,455.922,239.568,455.922z"/>
		<path style="fill:#251626;" d="M255.266,465.403c-8.434,0-10.976-4.486-11.081-4.678c-0.267-0.49-0.085-1.104,0.405-1.373    c0.488-0.263,1.098-0.087,1.367,0.397c0.095,0.162,2.175,3.631,9.309,3.631c0.559,0,1.011,0.452,1.011,1.011    C256.277,464.95,255.825,465.403,255.266,465.403z"/>
		<path style="fill:#251626;" d="M240.662,467.479c-8.433,0-10.976-4.486-11.081-4.678c-0.267-0.49-0.085-1.104,0.405-1.373    c0.488-0.261,1.098-0.087,1.367,0.397c0.087,0.15,2.163,3.631,9.309,3.631c0.559,0,1.011,0.453,1.011,1.011    C241.674,467.027,241.222,467.479,240.662,467.479z"/>
		<path style="fill:#251626;" d="M283.891,417.283c-4.646,0-6.808-2.159-6.924-2.28c-0.387-0.401-0.377-1.041,0.024-1.43    c0.397-0.383,1.033-0.377,1.423,0.016c0.132,0.128,3.064,2.922,9.941,1.011c0.545-0.154,1.096,0.166,1.245,0.703    c0.15,0.537-0.166,1.096-0.703,1.245C286.985,417.08,285.319,417.283,283.891,417.283z"/>
		<path style="fill:#251626;" d="M266.467,416.396c-4.646,0-6.808-2.159-6.924-2.28c-0.387-0.401-0.377-1.041,0.024-1.43    c0.399-0.385,1.035-0.377,1.422,0.016c0.136,0.134,3.064,2.914,9.943,1.009c0.549-0.154,1.096,0.166,1.245,0.703    c0.15,0.537-0.166,1.096-0.703,1.245C269.56,416.191,267.897,416.396,266.467,416.396z"/>
		<path style="fill:#251626;" d="M277.443,407.129c-4.647,0-6.808-2.159-6.924-2.28c-0.387-0.401-0.377-1.041,0.024-1.43    c0.397-0.383,1.033-0.375,1.423,0.016c0.132,0.128,3.064,2.92,9.941,1.011c0.545-0.152,1.096,0.166,1.245,0.703    c0.15,0.537-0.166,1.096-0.703,1.245C280.536,406.926,278.871,407.129,277.443,407.129z"/>
		<path style="fill:#251626;" d="M299.308,410.849c-4.646,0-6.808-2.159-6.924-2.28c-0.387-0.401-0.377-1.041,0.024-1.43    c0.397-0.383,1.033-0.375,1.423,0.016c0.132,0.13,3.064,2.924,9.941,1.011c0.549-0.15,1.094,0.166,1.245,0.703    c0.15,0.537-0.166,1.096-0.703,1.245C302.402,410.645,300.736,410.849,299.308,410.849z"/>
		<path style="fill:#251626;" d="M316.967,415.784c-4.644,0-6.806-2.157-6.922-2.278c-0.387-0.401-0.377-1.041,0.024-1.43    c0.399-0.387,1.037-0.377,1.424,0.018c0.144,0.142,3.076,2.91,9.939,1.008c0.549-0.154,1.094,0.166,1.245,0.703    c0.15,0.538-0.166,1.096-0.703,1.245C320.061,415.58,318.397,415.784,316.967,415.784z"/>
		<path style="fill:#251626;" d="M303.452,421.693c-4.646,0-6.808-2.159-6.924-2.28c-0.387-0.401-0.377-1.041,0.024-1.43    c0.399-0.385,1.035-0.377,1.422,0.016c0.136,0.134,3.066,2.918,9.943,1.009c0.545-0.152,1.096,0.164,1.245,0.703    c0.15,0.537-0.166,1.096-0.703,1.245C306.546,421.487,304.883,421.693,303.452,421.693z"/>
		<path style="fill:#251626;" d="M151.795,238.836c-0.259,0-0.517-0.099-0.715-0.296c-0.395-0.395-0.395-1.035,0-1.43    c0.172-0.172,4.236-4.202,7.987-4.903c0.539-0.101,1.077,0.257,1.179,0.808c0.103,0.549-0.259,1.077-0.808,1.179    c-3.143,0.589-6.891,4.309-6.928,4.346C152.313,238.737,152.054,238.836,151.795,238.836z"/>
		<path style="fill:#251626;" d="M166.256,238.836c-0.259,0-0.518-0.099-0.715-0.296c-0.395-0.395-0.395-1.035,0-1.43    c0.172-0.172,4.235-4.202,7.987-4.903c0.539-0.101,1.077,0.257,1.179,0.808c0.103,0.549-0.259,1.077-0.808,1.179    c-3.143,0.589-6.891,4.309-6.928,4.346C166.774,238.737,166.515,238.836,166.256,238.836z"/>
		<path style="fill:#251626;" d="M148.066,249.504c-0.259,0-0.518-0.099-0.715-0.296c-0.395-0.395-0.395-1.035,0-1.43    c0.172-0.172,4.237-4.202,7.987-4.903c0.537-0.101,1.077,0.257,1.179,0.808c0.103,0.549-0.259,1.077-0.808,1.179    c-3.131,0.587-6.891,4.309-6.928,4.346C148.583,249.405,148.325,249.504,148.066,249.504z"/>
		<path style="fill:#251626;" d="M137.785,246.865c-0.259,0-0.518-0.099-0.715-0.296c-0.395-0.395-0.395-1.035,0-1.43    c0.172-0.172,4.235-4.202,7.987-4.903c0.537-0.099,1.077,0.257,1.179,0.808c0.103,0.549-0.259,1.077-0.808,1.179    c-3.143,0.589-6.891,4.309-6.928,4.346C138.303,246.766,138.044,246.865,137.785,246.865z"/>
		<path style="fill:#251626;" d="M166.256,229.287c-0.259,0-0.518-0.099-0.715-0.296c-0.395-0.395-0.395-1.035,0-1.43    c0.172-0.172,4.235-4.202,7.987-4.903c0.539-0.099,1.077,0.257,1.179,0.808c0.103,0.549-0.259,1.077-0.808,1.179    c-3.143,0.589-6.891,4.309-6.928,4.346C166.774,229.188,166.515,229.287,166.256,229.287z"/>
		<path style="fill:#251626;" d="M290.015,221.339c-0.158,0-0.32-0.037-0.472-0.119c-0.045-0.024-4.69-2.487-7.898-2.118    c-0.557,0.045-1.057-0.336-1.12-0.891c-0.063-0.555,0.336-1.057,0.891-1.12c3.803-0.419,8.862,2.23,9.076,2.343    c0.494,0.261,0.682,0.873,0.419,1.367C290.728,221.143,290.378,221.339,290.015,221.339z"/>
		<path style="fill:#251626;" d="M276.19,225.584c-0.158,0-0.32-0.038-0.472-0.119c-0.047-0.024-4.694-2.501-7.898-2.118    c-0.551,0.053-1.057-0.336-1.12-0.891c-0.063-0.555,0.336-1.057,0.891-1.12c3.793-0.413,8.862,2.23,9.076,2.343    c0.494,0.261,0.682,0.873,0.419,1.367C276.904,225.389,276.554,225.584,276.19,225.584z"/>
		<path style="fill:#251626;" d="M296.712,230.442c-0.158,0-0.32-0.037-0.472-0.119c-0.048-0.024-4.747-2.493-7.898-2.12    c-0.551,0.055-1.057-0.336-1.12-0.891c-0.063-0.555,0.336-1.057,0.891-1.12c3.791-0.427,8.862,2.232,9.076,2.345    c0.494,0.261,0.682,0.873,0.419,1.367C297.425,230.247,297.076,230.442,296.712,230.442z"/>
		<path style="fill:#251626;" d="M305.766,224.901c-0.158,0-0.32-0.038-0.472-0.119c-0.048-0.024-4.728-2.491-7.9-2.118    c-0.547,0.053-1.057-0.336-1.12-0.891c-0.063-0.555,0.336-1.057,0.891-1.12c3.797-0.413,8.864,2.23,9.077,2.343    c0.494,0.261,0.682,0.873,0.419,1.367C306.481,224.705,306.129,224.901,305.766,224.901z"/>
		<path style="fill:#251626;" d="M273.387,216.458c-0.158,0-0.32-0.038-0.472-0.119c-0.047-0.024-4.747-2.501-7.898-2.12    c-0.551,0.046-1.057-0.336-1.12-0.891c-0.063-0.555,0.336-1.057,0.891-1.12c3.791-0.419,8.862,2.232,9.076,2.345    c0.494,0.261,0.682,0.873,0.419,1.367C274.1,216.262,273.751,216.458,273.387,216.458z"/>
	</g>
</g>















</svg>
