<?xml version="1.0" encoding="UTF-8"?>
<!-- Generator: Adobe Illustrator 25.1.0, SVG Export Plug-In . SVG Version: 6.00 Build 0)  -->
<svg xmlns="http://www.w3.org/2000/svg" xmlns:xlink="http://www.w3.org/1999/xlink" version="1.1" id="Capa_1" x="0px" y="0px" viewBox="0 0 500 500" style="enable-background:new 0 0 500 500;" xml:space="preserve" width="512" height="512">
<g>
	<g>
		<path style="fill:#E9546A;" d="M342.845,12.255c0,0-26.719-25.632-63.297-2.756c-29.845,18.665-3.666,51.846-3.666,51.846    l-12.711,18.967l28.464-0.292c0,0,16.541,20.92,34.833,16.67C365.827,87.543,368.075,31.731,342.845,12.255z"/>
		<path style="fill:#FFFFFF;" d="M310.976,71.609c0,0,30.541-26.115,24.786-37.181s-21.246,11.951-21.246,11.951    s-11.951-27.001-17.705-17.705S310.976,71.609,310.976,71.609z"/>
	</g>
	<g>
		<g>
			<path style="fill:#251626;" d="M120.261,489.92c0.445,0,0.858-0.284,1.002-0.729l32.617-100.593     c0.179-0.554-0.123-1.148-0.677-1.327c-0.562-0.179-1.15,0.126-1.327,0.677l-32.617,100.593     c-0.179,0.554,0.123,1.148,0.677,1.327C120.045,489.903,120.154,489.92,120.261,489.92z"/>
			<path style="fill:#251626;" d="M263.492,500c0.082,0,0.167-0.01,0.253-0.031c0.564-0.14,0.91-0.71,0.77-1.276L238.1,391.574     c-0.138-0.564-0.694-0.908-1.276-0.77c-0.564,0.14-0.91,0.71-0.77,1.276l26.414,107.119C262.586,499.679,263.018,500,263.492,500     z"/>
			<path style="fill:#251626;" d="M127.248,468.369h128.444c0.582,0,1.054-0.471,1.054-1.054c0-0.582-0.471-1.054-1.054-1.054     H127.248c-0.582,0-1.054,0.471-1.054,1.054C126.194,467.897,126.666,468.369,127.248,468.369z"/>
			<path style="fill:#251626;" d="M183.114,489.92c0.519,0,0.971-0.385,1.041-0.914l13.048-97.039     c0.078-0.576-0.327-1.107-0.903-1.183c-0.56-0.105-1.105,0.325-1.183,0.903l-13.048,97.039c-0.078,0.576,0.327,1.107,0.903,1.183     C183.02,489.918,183.067,489.92,183.114,489.92z"/>
			<path style="fill:#251626;" d="M255.692,468.369c0.414,0,0.807-0.245,0.973-0.652c0.222-0.537-0.033-1.155-0.572-1.375     l-65.424-26.968c-0.543-0.224-1.155,0.033-1.375,0.572c-0.222,0.537,0.033,1.155,0.572,1.375l65.424,26.968     C255.422,468.344,255.558,468.369,255.692,468.369z"/>
			<path style="fill:#251626;" d="M127.248,468.369c0.138,0,0.28-0.027,0.414-0.084l63.02-26.968     c0.535-0.23,0.784-0.848,0.556-1.383c-0.228-0.537-0.854-0.786-1.383-0.556l-63.02,26.968c-0.535,0.23-0.784,0.848-0.556,1.383     C126.45,468.13,126.841,468.369,127.248,468.369z"/>
		</g>
		<path style="fill:#F2BA9B;" d="M188.232,202.816l87.344,5.052l60.464-85.083l17.525,17.919c0,0-56.89,91.045-70.624,93.155    c-13.734,2.11-89.456,3.362-89.456,3.362L188.232,202.816z"/>
		<path style="fill:#E3A26D;" d="M166.917,162.277c0,0,7.606,44.315-15.304,50.758s-103.875-0.627-113.022-21.949    s31.789-29.046,14.661-79.889C46.454,91.017,172.58,139.843,166.917,162.277z"/>
		<path style="fill:#251626;" d="M98.677,216.013c-6.833-1.367-10.722-3.974-12.908-6.736c-3.719,1.078-8.32,1.354-13.743-0.274    c-9.098-2.727-14.585-7.701-17.038-12.817c-0.51-0.115-1.035-0.249-1.578-0.405c-6.693-1.93-10.891-5.429-12.48-10.393    c-2.188-6.837,1.002-16.587,8.535-26.081c0.362-0.459,1.025-0.533,1.48-0.171c0.457,0.362,0.533,1.025,0.171,1.48    c-7.094,8.944-10.15,17.962-8.178,24.13c1.362,4.254,5.081,7.285,11.058,9.01c0.021,0.006,0.039,0.012,0.06,0.016    c-0.48-1.613-0.663-3.208-0.572-4.717c0.305-5.017,3.636-8.798,8.485-9.631c3.315-0.566,6.077,0.578,7.621,3.136    c1.786,2.957,1.443,7.1-0.836,10.072c-1.202,1.568-4.454,4.659-11.152,3.986c2.498,4.139,7.376,8.071,15.032,10.368    c4.653,1.395,8.642,1.264,11.916,0.432c-1.634-3.054-1.539-5.999-1.362-7.396c0.852-6.662,6.588-12,12.358-11.669    c2.245,0.128,3.881,1.177,4.608,2.951c1.21,2.961-0.344,7.563-3.869,11.449c-1.171,1.292-4.003,4.015-8.343,5.773    c2.352,2.533,6.151,4.421,11.15,5.421c8.08,1.613,15.67-0.257,21.504-3.455c-2.527-1.93-3.733-3.988-4.309-5.505    c-1.301-3.418-0.636-7.119,1.778-9.897c2.603-2.996,6.629-4.233,10.78-3.283c3.844,0.871,5.672,3.575,4.892,7.23    c-0.743,3.48-4.062,7.905-9.119,11.449c2.78,1.397,6.316,2.406,10.451,2.941c12.235,1.597,22.508-3.447,27.48-13.465    c3.879-7.82,3.138-16.47-1.846-21.525c-0.407-0.414-0.403-1.08,0.012-1.49c0.41-0.407,1.076-0.403,1.49,0.012    c5.614,5.692,6.512,15.314,2.231,23.941c-4.161,8.384-14.138,16.635-29.639,14.618c-5.515-0.714-9.434-2.101-12.218-3.709    c-4.748,2.844-10.716,4.857-17.357,4.857C103.1,216.665,100.912,216.459,98.677,216.013z M119.652,196.47    c-1.895,2.184-2.42,5.087-1.399,7.767c0.737,1.939,2.219,3.649,4.332,5.069c5.007-3.225,8.374-7.37,9.088-10.71    c0.537-2.523-0.572-4.116-3.297-4.735c-0.759-0.171-1.511-0.255-2.245-0.255C123.593,193.605,121.27,194.61,119.652,196.47z     M85.275,200.29c-0.305,2.387,0.165,4.575,1.329,6.487c4.254-1.576,7.005-4.217,8.117-5.439c2.898-3.194,4.361-7.077,3.478-9.234    c-0.414-1.01-1.348-1.564-2.776-1.646c-0.132-0.008-0.263-0.01-0.395-0.01C90.459,190.446,85.961,194.937,85.275,200.29z     M62.324,181.502c-3.91,0.671-6.493,3.614-6.738,7.68c-0.101,1.634,0.181,3.383,0.875,5.145c4.717,0.809,8.508-0.226,10.617-2.978    c1.764-2.301,2.054-5.466,0.706-7.701c-0.893-1.48-2.361-2.26-4.204-2.26C63.178,181.389,62.759,181.426,62.324,181.502z"/>
		<path style="fill:#E3A26D;" d="M211.569,95.961c0,0,22.986-87.754-58.803-94.287S13.413,81.715,58.933,130.891    C93.656,168.402,229.727,175.499,211.569,95.961z"/>
		<path style="fill:#9CD1C3;" d="M204.287,256.813c0,0-91.775-54.163-97.655,10.901s17.084,155.088,104.505,152.274    s137.877-84.612,74.48-81.482S245.355,274.343,204.287,256.813z"/>
		<path style="fill:#F2BA9B;" d="M256.784,330.855c0,0-52.199-13.205-34.591-111.374c2.641-14.722-58.884-27.152-87.024-5.994    c-22.396,16.84-2.056,73.258,27.526,136.113L256.784,330.855z"/>
		<path style="fill:#F2BA9B;" d="M154.856,149.042l6.385,57.203l-23.52,16.997c0,0,17.388,13.533,37.582,13.975    c20.194,0.441,34.679-31.113,34.679-31.113l-32.038-1.844l8.281-36.974L154.856,149.042z"/>
		<path style="fill:#F2BA9B;" d="M89.595,98.353c0,0,20.678-66.612,79.46-65.008c43.979,1.2,93.017,129.816,31.809,152.737    C157.478,202.329,84.435,133.307,89.595,98.353z"/>
		<path style="fill:#251626;" d="M171.16,123.438c0.08,0,0.161-0.008,0.243-0.029c0.628-0.148,15.423-3.649,19.755-5.151    c0.622-0.216,1.021-0.689,1.099-1.299c0.447-3.519-17.635-16.129-28.452-23.329c-0.48-0.323-1.14-0.196-1.461,0.292    c-0.323,0.486-0.191,1.138,0.292,1.461c12.57,8.368,25.783,18.209,27.378,21.035c-4.758,1.548-18.948,4.906-19.096,4.941    c-0.566,0.134-0.916,0.702-0.782,1.268C170.248,123.111,170.682,123.438,171.16,123.438z"/>
		<path style="fill:#251626;" d="M142.963,116.107c0.434,0,0.842-0.086,1.214-0.276c4.365-2.198-1.206-14.793-3.017-18.6    c-0.249-0.525-0.881-0.747-1.404-0.498c-0.525,0.249-0.749,0.877-0.498,1.404c3.231,6.798,5.657,14.964,3.972,15.814    c-1.805,0.903-8.084-5.233-12.838-11.531c-0.352-0.469-1.015-0.556-1.476-0.208c-0.465,0.352-0.558,1.013-0.208,1.476    C131.043,106.778,138.462,116.107,142.963,116.107z"/>
		<path style="fill:#251626;" d="M186.753,92.926c0.502,0,0.955-0.091,1.348-0.29c4.365-2.198-1.206-14.793-3.017-18.6    c-0.249-0.525-0.881-0.749-1.404-0.498c-0.525,0.249-0.749,0.877-0.498,1.404c3.231,6.798,5.657,14.964,3.972,15.814    c-1.935,0.945-9.652-4.577-15.709-10.278c-0.424-0.399-1.091-0.379-1.49,0.045c-0.399,0.424-0.379,1.091,0.045,1.49    C172.899,84.741,181.993,92.924,186.753,92.926z"/>
		<circle style="fill:#F2BA9B;" cx="97.615" cy="144.906" r="13.089"/>
		<circle style="fill:#F2BA9B;" cx="222.193" cy="67.451" r="12.208"/>
		<path style="fill:#251626;" d="M104.694,149.628c0.15,0,0.3-0.031,0.445-0.099c0.527-0.245,0.757-0.873,0.51-1.399    c-1.692-3.634-3.966-5.744-6.763-6.271c-4.719-0.889-9,3.145-9.181,3.318c-0.42,0.401-0.434,1.066-0.035,1.488    c0.403,0.422,1.068,0.438,1.49,0.037c0.035-0.033,3.698-3.459,7.343-2.77c2.087,0.397,3.848,2.109,5.236,5.087    C103.919,149.404,104.297,149.628,104.694,149.628z"/>
		<path style="fill:#251626;" d="M224.696,77.082c0.274,0,0.545-0.105,0.751-0.315c0.407-0.416,0.403-1.083-0.012-1.49    c-3.291-3.233-4.801-6.141-4.369-8.409c0.455-2.389,2.898-3.447,2.922-3.457c0.537-0.226,0.788-0.846,0.562-1.381    c-0.228-0.539-0.85-0.782-1.381-0.562c-0.144,0.062-3.509,1.521-4.174,5.005c-0.578,3.036,1.091,6.505,4.962,10.306    C224.163,76.981,224.429,77.082,224.696,77.082z"/>
		<circle style="fill:#ED8777;" cx="137.722" cy="138.898" r="12.478"/>
		<circle style="fill:#ED8777;" cx="204.053" cy="105.37" r="12.478"/>
		<path style="fill:#251426;" d="M409.942,370.214l33.654,18.256l4.616-9.201l-11.638-2.2c0,0,16.235,3.094,19.166-24.371    c0,0-25.9,27.374-38.423,0.018L409.942,370.214z"/>
		<path style="fill:#251426;" d="M355.976,442.114l9.878,36.99l9.856-2.973l-6.403-9.964c0,0,8.914,13.918,30.875-2.836    c0,0-37.685,0.01-26.427-27.891L355.976,442.114z"/>
		<g>
			<path style="fill:#84556C;" d="M450.775,94.833l11.985,64.271c0,0-102.986,24.567-109.09-12.911     C347.565,108.716,450.775,94.833,450.775,94.833z"/>
			
				<rect x="297.743" y="142.081" transform="matrix(0.9831 -0.1833 0.1833 0.9831 -21.5105 64.1145)" style="fill:#84556C;" width="76.595" height="12.654"/>
			<path style="fill:#E9546A;" d="M303.949,149.366"/>
			<polygon style="fill:#84556C;" points="293.398,140.704 296.671,172.173 311.278,159.461 309.212,148.384    "/>
			<g>
				<path style="fill:#FFFFFF;" d="M438.603,163.671l-10.524-65.36c0,0-29.69,6.021-34.727,10.42l11.466,58.28      C404.818,167.01,430.542,167.369,438.603,163.671z"/>
				<path style="fill:#251626;" d="M404.804,168.064c-0.498-0.006-0.924-0.362-1.019-0.85l-11.467-58.28      c-0.074-0.37,0.056-0.749,0.34-0.998c5.188-4.53,33.988-10.409,35.21-10.658c0.28-0.058,0.572,0.004,0.809,0.167      c0.237,0.163,0.395,0.416,0.44,0.7l10.525,65.362c0.076,0.467-0.169,0.928-0.601,1.124c-6.777,3.11-24.898,3.445-32.374,3.445      C405.487,168.074,404.804,168.064,404.804,168.064z M427.214,99.563c-8.576,1.786-27.931,6.308-32.704,9.601l11.177,56.799      c0.27,0.002,0.597,0.004,0.98,0.004c5.526,0,23.595-0.22,30.763-2.947L427.214,99.563z"/>
			</g>
			<g>
				<path style="fill:#FFFFFF;" d="M423.958,166.385c0,0,4.722-20.671-3.971-20.076c-8.693,0.595-10.39,8.216-4.01,7.698      c6.38-0.518,13.464-18.722,3.336-21.342c-10.127-2.62-13.991,4.18-7.186,5.258c6.805,1.078,8.913-17.934,0.22-18.701      c-8.693-0.768-13.772,4.883-4.264,5.028c9.508,0.145,12.595-21.859,0-20.281"/>
				<path style="fill:#251626;" d="M423.723,167.411c-0.568-0.13-0.922-0.694-0.792-1.262c0.817-3.581,2.303-13.179,0.099-17.123      c-1.758,3.272-4.291,5.814-6.968,6.03c-2.754,0.243-3.96-0.903-4.433-1.597c-0.702-1.025-0.739-2.367-0.103-3.68      c0.957-1.976,3.663-4.2,8.39-4.523c0.852-0.062,1.64,0.058,2.348,0.34c0.533-1.434,0.901-2.951,1.029-4.425      c0.247-2.85-0.29-6.462-4.244-7.485c-0.247-0.064-0.488-0.121-0.726-0.175c-0.408,1.274-0.967,2.42-1.669,3.326      c-1.272,1.648-2.943,2.4-4.69,2.126c-2.972-0.471-3.877-1.869-4.151-2.661c-0.362-1.041-0.074-2.177,0.79-3.118      c1.241-1.344,4.038-2.515,8.164-2.064c0.484-2.624,0.309-5.581-0.632-7.73c-0.358-0.819-0.801-1.48-1.327-1.98      c-1.729,2.496-4.085,3.892-6.633,3.892c-0.035,0-0.07,0-0.107,0c-3.256-0.049-5.25-0.724-5.923-2.004      c-0.368-0.7-0.3-1.521,0.185-2.251c1.179-1.77,5.03-3.328,10.111-2.875c0.558,0.049,1.093,0.167,1.597,0.346      c1.762-3.789,1.762-8.617-0.068-11.282c-1.233-1.797-3.155-2.548-5.754-2.221c-0.56,0.08-1.105-0.335-1.177-0.914      c-0.072-0.578,0.337-1.105,0.914-1.177c4.268-0.535,6.575,1.399,7.755,3.12c2.278,3.317,2.323,9.018,0.169,13.515      c0.901,0.735,1.644,1.741,2.19,2.988c1.101,2.515,1.317,5.888,0.766,8.919c0.245,0.056,0.492,0.115,0.745,0.179      c4.137,1.07,6.256,4.608,5.816,9.708c-0.154,1.788-0.632,3.69-1.346,5.489c0.035,0.041,0.072,0.082,0.109,0.123      c4.081,4.775,1.175,18.145,0.829,19.654c-0.111,0.488-0.545,0.819-1.027,0.819C423.882,167.438,423.801,167.43,423.723,167.411z       M420.06,147.36c-3.832,0.261-5.97,1.961-6.637,3.338c-0.298,0.615-0.319,1.187-0.056,1.572      c0.364,0.537,1.284,0.788,2.525,0.687c1.891-0.154,4.034-2.439,5.534-5.431C421.027,147.379,420.574,147.317,420.06,147.36z       M410.153,134.615c-0.189,0.204-0.486,0.607-0.35,0.996c0.156,0.449,0.891,1.017,2.49,1.27c0.978,0.158,1.889-0.29,2.694-1.332      c0.502-0.648,0.916-1.459,1.237-2.367C413.225,132.907,411.081,133.606,410.153,134.615z M412.256,120.271      c-5.081-0.451-8.152,1.393-8.246,2.046c0.004,0.008,0.554,0.825,4.091,0.879c2.204-0.029,3.857-1.432,4.851-2.809      C412.729,120.33,412.497,120.291,412.256,120.271z"/>
			</g>
		</g>
		<path style="fill:#F2BA9B;" d="M332.801,128.769c0,0-3.814,25.225-2.175,28.215c1.639,2.99,18.79,5.073,30.094,5.602    c11.304,0.529,3.851-41.943,3.244-41.539C363.357,121.451,332.313,115.551,332.801,128.769z"/>
		<polygon style="fill:#3D9C91;" points="343.716,457.637 281.261,289.228 309.656,269.209 395.458,438.149   "/>
		<path style="fill:#3D9C91;" d="M162.695,349.6c0,0,20.924,62.339,58.298,44.374c16.623-7.99,103.695-49.417,103.695-49.417    L311.9,313.861L162.695,349.6z"/>
		<path style="fill:#E3A26D;" d="M152.766,16.617c0,0,55.232,8.916,47.309,28.141c-7.923,19.225-36.573,31.093-47.309,22.693    c-10.736-8.399-15.593-16.113-15.593-16.113s4.59,28.649-7.621,35.925c-12.212,7.276-30.385,20.161-42.899,1.074    S82.823,0.861,152.766,16.617z"/>
		<path style="fill:#EF947C;" d="M172.792,149.042c0,0,5.298-11.818,6.929-11.955c1.631-0.136,5.055,4.605,5.055,4.605    s-2.371-8.693,1.581-8.166c3.951,0.527,27.525,10.851,11.448,28.185S166.207,157.149,172.792,149.042z"/>
		<path style="fill:#251626;" d="M187.694,159.976c0.903,0,1.696-0.307,2.303-0.893c4.847-4.686,4.577-25.818,4.53-28.211    c-0.012-0.58-0.397-1.004-1.074-1.033c-0.582,0.012-1.043,0.492-1.033,1.074c0.121,6.25-0.34,23.225-3.888,26.655    c-0.15,0.146-0.414,0.342-0.99,0.294c-4.711-0.35-15.54-13.204-19.316-18.129c-0.356-0.461-1.017-0.552-1.478-0.193    c-0.461,0.354-0.547,1.015-0.193,1.478c1.447,1.887,14.334,18.462,20.831,18.946C187.49,159.971,187.593,159.976,187.694,159.976z    "/>
		<path style="fill:#251626;" d="M187.494,189.561c0.047,0,0.082,0,0.103,0c0.582-0.002,1.052-0.477,1.05-1.058    s-0.473-1.05-1.054-1.05c-0.004-0.002-0.006-0.002-0.027,0c-0.739,0-18.6-0.064-25.28-5.231c-0.455-0.356-1.117-0.276-1.478,0.189    c-0.356,0.459-0.272,1.122,0.189,1.478C168.155,189.428,185.817,189.561,187.494,189.561z"/>
		<path style="fill:#251626;" d="M136.172,44.997c-0.183-0.552,0.113-1.148,0.665-1.332c0.547-0.183,1.15,0.111,1.334,0.663    c0.091,0.265,9.09,26.404,24.797,22.539c3.68-0.91,5.943-2.379,7.337-3.896c-4.396-1.49-7.172-3.91-7.969-6.45    c-0.774-2.465,0.323-4.873,2.933-6.439c1.916-1.15,4.069-1.085,5.898,0.187c2.583,1.79,3.935,5.499,3.287,9.018    c-0.128,0.696-0.362,1.535-0.782,2.435c2.7,0.56,5.917,0.794,9.566,0.552c7.045-0.477,10.784-4.379,11.936-7.872    c1.099-3.332,0.191-6.756-2.371-8.936c-0.442-0.377-0.496-1.043-0.119-1.486c0.377-0.445,1.043-0.494,1.486-0.119    c3.227,2.747,4.379,7.038,3.007,11.2c-1.369,4.145-5.709,8.767-13.795,9.317c-4.172,0.28-7.812-0.037-10.854-0.766    c-1.566,2.06-4.297,4.126-9.053,5.301c-1.309,0.323-2.568,0.473-3.785,0.473C144.523,69.387,136.532,46.07,136.172,44.997z     M166.35,51.89c-1.251,0.751-2.616,2.056-2.004,4.003c0.648,2.066,3.188,4.079,7.23,5.299c0.453-0.848,0.687-1.642,0.805-2.286    c0.56-3.046-0.79-5.779-2.414-6.905c-0.475-0.329-1.117-0.63-1.881-0.63C167.56,51.371,166.976,51.515,166.35,51.89z"/>
		<path style="fill:#251626;" d="M89.239,99.345c-0.547-0.198-0.831-0.801-0.636-1.348c0.195-0.547,0.798-0.829,1.348-0.636    c8.528,3.064,15.083,2.284,18.954-2.254c1.517-1.776,2.476-3.935,2.996-6.139c-4.593-2.136-7.894-6.53-7.456-10.051    c0.263-2.109,1.867-3.525,4.398-3.883c1.622-0.224,3.062,0.685,4.102,2.577c1.229,2.237,1.891,6.063,1.344,10.029    c3.513,1.107,9.461,1.235,15.427-6.565c9.31-12.167,3.972-31.008,3.916-31.197c-0.163-0.558,0.158-1.142,0.718-1.305    c0.566-0.167,1.142,0.156,1.305,0.714c0.239,0.813,5.699,20.045-4.264,33.068c-6.738,8.806-13.77,8.448-17.499,7.361    c-0.597,2.402-1.677,4.762-3.383,6.761c-2.103,2.463-5.606,4.84-11.286,4.84C96.446,101.317,93.147,100.749,89.239,99.345z     M109.14,77.121c-1.585,0.224-2.461,0.916-2.603,2.056c-0.274,2.202,1.986,5.684,5.738,7.627c0.358-3.231-0.154-6.32-1.177-8.178    c-0.387-0.706-1.004-1.517-1.793-1.517C109.249,77.108,109.195,77.112,109.14,77.121z"/>
		<path style="fill:#251626;" d="M66.34,167.428c0.22,0,0.442-0.068,0.632-0.212c14.99-11.255,4.579-36.766,4.128-37.847    c-0.224-0.539-0.848-0.784-1.379-0.568c-0.537,0.224-0.79,0.842-0.568,1.379c0.105,0.249,10.232,25.081-3.445,35.352    c-0.467,0.348-0.56,1.008-0.21,1.474C65.704,167.282,66.021,167.428,66.34,167.428z"/>
		<path style="fill:#251626;" d="M110.459,192.307c0.397,0,0.778-0.226,0.957-0.611c4.7-10.177-2.69-31.201-3.007-32.092    c-0.193-0.545-0.796-0.84-1.346-0.638c-0.547,0.193-0.833,0.796-0.638,1.346c0.074,0.21,7.419,21.103,3.077,30.5    c-0.243,0.529-0.012,1.155,0.514,1.399C110.161,192.276,110.311,192.307,110.459,192.307z"/>
		<path style="fill:#251626;" d="M83.45,184.869c0.331,0,0.659-0.156,0.862-0.449c0.377-0.535,9.197-13.229,9.73-22.984    c0.033-0.58-0.414-1.078-0.994-1.109c-0.646-0.054-1.078,0.414-1.109,0.994c-0.5,9.16-9.263,21.763-9.352,21.889    c-0.335,0.477-0.218,1.134,0.257,1.467C83.03,184.807,83.24,184.869,83.45,184.869z"/>
		<path style="fill:#251626;" d="M71.618,120.361c0.019,0,0.039,0,0.06-0.002c0.58-0.033,1.025-0.529,0.992-1.111    c-1.924-34.383,10.823-53.662,21.856-63.779c11.928-10.942,24.414-13.819,24.537-13.846c0.568-0.128,0.926-0.689,0.801-1.257    c-0.126-0.568-0.683-0.926-1.257-0.801c-0.519,0.115-51.816,12.332-48.04,79.803C70.598,119.927,71.063,120.361,71.618,120.361z"/>
		<path style="fill:#251626;" d="M58.449,109.499c0.111,0,0.222-0.016,0.333-0.054c0.552-0.185,0.85-0.782,0.667-1.334    c-6.19-18.559-5.384-34.856,2.396-48.439c14.519-25.355,48.737-32.86,49.081-32.932c0.57-0.121,0.932-0.679,0.813-1.249    c-0.121-0.57-0.694-0.922-1.249-0.813c-0.354,0.074-35.49,7.783-50.474,33.947c-8.09,14.126-8.952,31.002-2.566,50.153    C57.597,109.219,58.009,109.499,58.449,109.499z"/>
		<path style="fill:#251626;" d="M137.721,38.122c0.156,0,0.313-0.035,0.461-0.107c0.428-0.208,42.963-20.552,60.935-0.249    c0.387,0.44,1.056,0.477,1.486,0.091c0.436-0.385,0.477-1.052,0.091-1.486c-7.913-8.942-21.436-11.803-39.106-8.267    c-13.188,2.64-24.219,7.964-24.328,8.018c-0.523,0.253-0.741,0.885-0.486,1.408C136.956,37.903,137.332,38.122,137.721,38.122z"/>
		<path style="fill:#251626;" d="M133.249,26.764c0.333,0,0.663-0.158,0.866-0.455c0.053-0.076,5.299-7.586,13.924-12.664    c11.428-6.729,23.122-6.218,34.753,1.514c0.482,0.319,1.138,0.192,1.459-0.294c0.323-0.485,0.191-1.139-0.294-1.461    c-29.495-19.606-51.359,11.393-51.578,11.708c-0.329,0.48-0.208,1.136,0.27,1.465C132.833,26.704,133.041,26.764,133.249,26.764z"/>
		<path style="fill:#E9546A;" d="M239.527,238.178c0,0-29.522-35.516-42.004,5.445c0,0-26.438-20.403-54.097,0.002    c-16.624,12.265-25.245,23.952,19.27,105.975l0,0l76.831-39.778l-15.052-36.504C224.474,273.318,256.934,256.593,239.527,238.178z    "/>
		<polygon style="fill:#3D9C91;" points="162.695,349.6 323.878,254.544 431.738,349.689 408.695,394.38 319.315,299.751     226.875,382.725   "/>
		<path style="fill:#251626;" d="M275.21,274.371c0.449,0,0.862-0.286,1.004-0.737l14.328-45.371    c0.175-0.554-0.132-1.146-0.687-1.321c-0.558-0.173-1.146,0.132-1.321,0.687l-14.328,45.371c-0.175,0.554,0.132,1.146,0.687,1.321    C274.998,274.355,275.105,274.371,275.21,274.371z"/>
		<path style="fill:#251626;" d="M289.538,279.523c0.442,0,0.854-0.28,1-0.722c0.183-0.552-0.115-1.148-0.669-1.332l-27.923-9.261    c-0.552-0.189-1.148,0.117-1.332,0.669s0.115,1.148,0.669,1.332l27.923,9.261C289.315,279.506,289.429,279.523,289.538,279.523z"/>
		<path style="fill:#251626;" d="M286.79,229.964c-16.431-7.652-9.994-51.219-9.712-53.07c0.043-0.286,0.202-0.541,0.44-0.708    c0.237-0.165,0.529-0.22,0.817-0.165l41.897,8.736c0.294,0.062,0.547,0.245,0.698,0.506s0.181,0.572,0.086,0.858    c-0.609,1.823-15.073,44.681-30.522,44.681C289.231,230.804,287.984,230.522,286.79,229.964z M279.009,178.314    c-0.897,6.847-4.995,43.376,8.67,49.74c6.339,2.947,13.984-4.394,22.202-20.738c4.414-8.786,7.668-17.672,8.749-20.74    L279.009,178.314z"/>
		<path style="fill:#84556C;" d="M316.481,201.194l-42.059-9.483c0,0-4.643,44.767,7.627,54.25    C292.489,254.031,306.858,222.469,316.481,201.194z"/>
		<path style="fill:#F2BA9B;" d="M265.822,239.03c0,0,20.203-19.548,29.198-15.141c5.076,2.487-14.92,13.332-14.92,13.332    s22.359,5.027,23.062,10.833c0.702,5.806-5.141,21.984-11.326,20.708s-28.143-8.772-28.143-8.772S255.547,248.054,265.822,239.03z    "/>
		<path style="fill:#F2BA9B;" d="M262.451,243.078c0,0-77.154,42.928-72.801,45.696s-49.276-77.523-54.481-75.286    c-26.165,11.242-18.58,36.949-6.406,57.607c8.895,15.094,49.578,54.883,55.969,53.68c6.391-1.203,80.297-65.384,80.297-65.384    L262.451,243.078z"/>
		<path style="fill:#251626;" d="M211.251,395.674c24.663,0,99.004-83.981,108.068-94.326l11.187,12.696    c0.383,0.432,1.048,0.477,1.488,0.093c0.436-0.385,0.477-1.05,0.093-1.488l-11.982-13.595c-0.2-0.226-0.488-0.356-0.79-0.356    c-0.002,0-0.002,0-0.004,0c-0.303,0-0.591,0.134-0.79,0.362c-0.22,0.251-22.148,25.414-46.538,49.513    c-40.468,39.991-56.305,46.426-62.45,44.788c-0.568-0.154-1.14,0.185-1.29,0.747c-0.15,0.562,0.185,1.14,0.747,1.29    C209.687,395.583,210.445,395.674,211.251,395.674z"/>
		<path style="fill:#251626;" d="M308.426,162.698c0.074,0,0.15-0.008,0.226-0.025c0.568-0.126,0.928-0.687,0.803-1.255    l-3.361-15.274c-0.126-0.566-0.681-0.926-1.255-0.803c-0.568,0.126-0.928,0.687-0.803,1.255l3.361,15.274    C307.506,162.363,307.94,162.698,308.426,162.698z"/>
		<path style="fill:#251626;" d="M338.055,159.243c0.22,0,0.44-0.068,0.628-0.208c5.324-3.953,5.079-22.525,5.034-24.63    c-0.012-0.582-0.533-1.035-1.076-1.031c-0.582,0.012-1.043,0.494-1.031,1.076c0.117,5.417-0.41,20.09-4.182,22.893    c-0.467,0.348-0.566,1.006-0.218,1.474C337.415,159.097,337.734,159.243,338.055,159.243z"/>
		<path style="fill:#251626;" d="M350.008,160.828c0.189,0,0.381-0.049,0.552-0.156c3.921-2.414,8.639-22.086,9.547-26.007    c0.132-0.566-0.222-1.132-0.79-1.264c-0.56-0.134-1.132,0.222-1.264,0.79c-2.021,8.742-6.143,23.175-8.596,24.686    c-0.496,0.305-0.65,0.955-0.346,1.449C349.31,160.651,349.656,160.828,350.008,160.828z"/>
		<path style="fill:#251626;" d="M301.556,252.267c0.449,0,0.866-0.29,1.006-0.741c0.173-0.556-0.138-1.146-0.694-1.319    c-0.492-0.15-12.095-3.727-16.851-3.138c-0.578,0.072-0.988,0.599-0.916,1.175c0.072,0.576,0.615,0.99,1.175,0.916    c4.322-0.519,15.851,3.025,15.966,3.06C301.348,252.252,301.453,252.267,301.556,252.267z"/>
		<path style="fill:#251626;" d="M297.216,263.281c0.44,0,0.85-0.278,0.998-0.718c0.185-0.552-0.111-1.148-0.663-1.334    c-1.379-0.465-13.546-4.53-16.291-4.53c-0.582,0-1.054,0.471-1.054,1.054c0,0.582,0.471,1.054,1.054,1.054    c1.819,0,10.337,2.642,15.62,4.419C296.992,263.262,297.105,263.281,297.216,263.281z"/>
		<path style="fill:#251626;" d="M338.359,444.247c0.136,0,0.272-0.025,0.403-0.08l49.273-20.452c0.537-0.224,0.792-0.84,0.57-1.377    c-0.224-0.539-0.842-0.794-1.377-0.57l-49.273,20.452c-0.537,0.224-0.792,0.84-0.57,1.377    C337.555,444.002,337.946,444.247,338.359,444.247z"/>
		<path style="fill:#251626;" d="M399.63,385.837c0.366,0,0.722-0.191,0.916-0.533l23.98-42.263c0.288-0.506,0.111-1.15-0.395-1.436    c-0.504-0.292-1.148-0.111-1.436,0.395l-23.98,42.263c-0.288,0.506-0.111,1.15,0.395,1.436    C399.274,385.793,399.453,385.837,399.63,385.837z"/>
		<path style="fill:#251626;" d="M198.142,248.525c-2.908-5.797-8.831-14.375-12.352-12.743c-0.685,0.319-1.288,0.7-1.805,1.115    c1.455,1.815,3.262,4.581,2.533,6.409c-0.191,0.482-0.724,1.299-2.151,1.369c-2.428,0.126-4.157-0.971-4.637-2.912    c-0.354-1.428,0.084-3.285,1.385-4.96c-2.885-3.052-6.742-5.581-8.991-4.799c-1.091,0.383-1.893,1.231-2.449,2.243    c2.276,1.338,3.931,3.219,4.256,5.054c0.251,1.424-0.303,2.682-1.56,3.542c-1.838,1.262-3.165,0.819-3.797,0.447    c-1.793-1.062-2.198-3.787-1.978-5.983c0.066-0.659,0.193-1.348,0.391-2.033c-0.451-0.179-0.924-0.335-1.412-0.461    c-2.089-0.533-6.024-0.875-8.975,2.813c-0.364,0.457-1.033,0.525-1.482,0.165c-0.455-0.364-0.527-1.027-0.165-1.482    c2.698-3.367,6.761-4.655,11.142-3.538c0.574,0.148,1.136,0.331,1.677,0.545c0.784-1.465,1.972-2.714,3.655-3.301    c3.359-1.175,7.934,1.914,11.084,5.199c0.025,0.027,0.051,0.053,0.082,0.086c0.654-0.533,1.422-1.017,2.305-1.428    c3.968-1.85,8.427,3.046,11.48,7.526c-0.759-4.565-0.903-10.068,2.039-12.465c1.058-0.862,2.41-1.253,3.875-1.257    c1.052-2.015,2.766-3.676,4.97-4.735c3.328-1.595,7.067-1.15,10.269,1.22c0.265,0.196,0.521,0.401,0.766,0.615    c0.829-0.35,1.729-0.669,2.692-0.953c7.197-2.124,11.731,1.367,13.642,5.328c1.358,0,2.976,0.245,4.894,0.854    c4.058,1.29,6.551,3.433,7.405,6.367c1.655,5.686-3.626,12.087-3.851,12.356c-0.372,0.451-1.037,0.504-1.484,0.134    c-0.447-0.372-0.506-1.037-0.134-1.484c0.047-0.058,4.787-5.818,3.443-10.422c-0.646-2.216-2.671-3.879-6.018-4.943    c-1.253-0.399-2.418-0.638-3.472-0.72c0.961,3.715-0.111,7.207-2.727,8.438c-1.572,0.741-3.151,0.457-4.217-0.774    c-1.482-1.71-1.539-4.725-0.13-6.863c0.531-0.807,1.727-2.146,4.038-2.696c-1.737-2.982-5.283-5.184-10.794-3.554    c-0.624,0.183-1.196,0.375-1.723,0.572c1.455,1.846,2.214,3.958,1.947,5.717c-0.241,1.572-1.262,2.747-2.877,3.309    c-2.274,0.788-4.48,0.506-5.904-0.761c-1.111-0.99-1.554-2.418-1.218-3.916c0.416-1.858,1.957-3.571,4.394-4.964    c-1.262-0.916-4.423-2.696-8.028-0.959c-1.552,0.743-2.801,1.854-3.659,3.2c0.407,0.121,0.815,0.276,1.225,0.461    c2.828,1.284,4.855,3.7,4.931,5.878c0.031,0.895-0.245,2.575-2.451,3.766c-1.618,0.875-3.239,0.893-4.556,0.053    c-1.731-1.103-2.704-3.519-2.535-6.304c0.041-0.708,0.152-1.397,0.327-2.062c-0.65,0.101-1.233,0.344-1.71,0.733    c-3.42,2.789-0.918,13.332,0.338,17.16c0.171,0.523-0.091,1.091-0.601,1.301c-0.132,0.056-0.268,0.08-0.401,0.08    C198.698,249.107,198.327,248.893,198.142,248.525z M184.563,242.524c0.165-0.358-0.319-1.891-2.031-4.079    c-0.685,1.004-0.949,2.031-0.755,2.813c0.305,1.231,1.671,1.338,2.488,1.313c0.196-0.01,0.282-0.047,0.296-0.047    C184.561,242.524,184.561,242.524,184.563,242.524z M168.694,237.515c-0.208,2.083,0.338,3.595,0.955,3.962    c0.44,0.259,1.076-0.06,1.533-0.37c0.572-0.393,0.78-0.836,0.673-1.439c-0.183-1.041-1.292-2.365-2.945-3.414    C168.805,236.685,168.733,237.111,168.694,237.515z M230.105,233.253c-0.978,1.484-0.809,3.435-0.037,4.324    c0.436,0.506,1.004,0.589,1.727,0.249c1.72-0.811,2.326-3.628,1.453-6.456C231.848,231.608,230.772,232.24,230.105,233.253z     M203.236,232.022c-0.117,1.961,0.51,3.729,1.564,4.4c0.669,0.428,1.484,0.381,2.42-0.128c1.387-0.751,1.358-1.57,1.35-1.84    c-0.049-1.364-1.638-3.097-3.696-4.032c-0.426-0.193-0.848-0.342-1.259-0.449C203.406,230.629,203.277,231.314,203.236,232.022z     M213.869,231.226c-0.167,0.741,0.035,1.41,0.564,1.881c0.831,0.743,2.286,0.877,3.811,0.344c0.877-0.305,1.362-0.84,1.484-1.634    c0.198-1.294-0.564-3.036-1.879-4.523C214.659,228.921,214.003,230.631,213.869,231.226z"/>
		<path style="fill:#251626;" d="M384.664,316.779c0.317,0,0.632-0.144,0.84-0.418c0.352-0.463,0.261-1.124-0.204-1.476    c-0.706-0.535-6.952-5.244-8.901-5.906c-0.56-0.185-1.15,0.109-1.338,0.659c-0.187,0.552,0.109,1.15,0.661,1.338    c1.225,0.416,5.744,3.649,8.306,5.59C384.218,316.709,384.442,316.779,384.664,316.779z"/>
		<path style="fill:#251626;" d="M374.296,319.654c0.317,0,0.632-0.144,0.84-0.418c0.352-0.463,0.261-1.124-0.204-1.476    c-0.706-0.535-6.952-5.244-8.901-5.906c-0.56-0.179-1.15,0.109-1.338,0.659c-0.187,0.552,0.109,1.15,0.661,1.338    c1.225,0.416,5.744,3.649,8.306,5.59C373.85,319.584,374.074,319.654,374.296,319.654z"/>
		<path style="fill:#251626;" d="M369.127,304.937c0.317,0,0.632-0.144,0.84-0.418c0.352-0.463,0.261-1.124-0.204-1.476    c-0.706-0.535-6.952-5.244-8.901-5.909c-0.552-0.181-1.148,0.107-1.338,0.659c-0.187,0.552,0.107,1.15,0.659,1.338    c1.225,0.416,5.746,3.651,8.308,5.592C368.68,304.867,368.904,304.937,369.127,304.937z"/>
		<path style="fill:#251626;" d="M358.244,307.812c0.317,0,0.632-0.144,0.84-0.418c0.352-0.463,0.261-1.124-0.204-1.476    c-0.706-0.535-6.952-5.246-8.901-5.909c-0.56-0.181-1.15,0.109-1.338,0.659c-0.187,0.552,0.109,1.15,0.661,1.338    c1.225,0.416,5.744,3.651,8.306,5.592C357.797,307.742,358.022,307.812,358.244,307.812z"/>
		<path style="fill:#251626;" d="M353.941,296.991c0.317,0,0.632-0.144,0.84-0.418c0.352-0.463,0.261-1.124-0.204-1.476    c-0.706-0.535-6.952-5.244-8.901-5.906c-0.554-0.183-1.152,0.107-1.338,0.659c-0.187,0.552,0.109,1.15,0.659,1.338    c1.227,0.416,5.746,3.649,8.308,5.59C353.494,296.921,353.718,296.991,353.941,296.991z"/>
		<path style="fill:#251626;" d="M392.221,328.528c0.317,0,0.632-0.144,0.84-0.418c0.352-0.463,0.261-1.124-0.204-1.476    c-0.706-0.535-6.952-5.246-8.901-5.909c-0.562-0.183-1.148,0.109-1.338,0.659c-0.187,0.552,0.109,1.15,0.661,1.338    c1.224,0.416,5.744,3.651,8.306,5.592C391.775,328.458,391.999,328.528,392.221,328.528z"/>
		<path style="fill:#251626;" d="M354.937,378.204c0.128,0,0.259-0.023,0.385-0.072c0.541-0.214,0.809-0.825,0.597-1.367    c-0.323-0.825-3.198-8.1-4.513-9.683c-0.377-0.445-1.039-0.502-1.486-0.136c-0.447,0.372-0.506,1.037-0.136,1.486    c0.829,0.994,2.999,6.11,4.172,9.103C354.12,377.95,354.517,378.204,354.937,378.204z"/>
		<path style="fill:#251626;" d="M344.591,375.248c0.128,0,0.259-0.023,0.385-0.072c0.541-0.214,0.809-0.825,0.597-1.366    c-0.323-0.825-3.198-8.102-4.515-9.683c-0.375-0.447-1.039-0.504-1.484-0.134c-0.447,0.372-0.506,1.037-0.134,1.484    c0.827,0.992,2.996,6.11,4.17,9.103C343.772,374.995,344.171,375.248,344.591,375.248z"/>
		<path style="fill:#251626;" d="M347.857,359.994c0.128,0,0.259-0.023,0.385-0.072c0.541-0.214,0.809-0.825,0.597-1.366    c-0.323-0.825-3.198-8.1-4.517-9.683c-0.375-0.447-1.039-0.506-1.484-0.134c-0.447,0.372-0.506,1.037-0.134,1.484    c0.827,0.994,2.998,6.11,4.172,9.103C347.04,359.741,347.437,359.994,347.857,359.994z"/>
		<path style="fill:#251626;" d="M337.071,356.772c0.128,0,0.257-0.023,0.385-0.072c0.541-0.212,0.809-0.825,0.597-1.367    c-0.323-0.825-3.196-8.102-4.515-9.685c-0.375-0.447-1.039-0.504-1.484-0.134c-0.447,0.372-0.506,1.037-0.134,1.484    c0.827,0.994,2.996,6.112,4.17,9.105C336.252,356.518,336.651,356.772,337.071,356.772z"/>
		<path style="fill:#251626;" d="M339.045,345.294c0.128,0,0.257-0.023,0.385-0.072c0.541-0.214,0.809-0.825,0.597-1.367    c-0.323-0.823-3.196-8.1-4.515-9.683c-0.372-0.445-1.037-0.506-1.484-0.134c-0.447,0.372-0.506,1.037-0.134,1.484    c0.827,0.994,2.999,6.11,4.169,9.103C338.226,345.041,338.625,345.294,339.045,345.294z"/>
		<path style="fill:#251626;" d="M355.256,392.169c0.128,0,0.257-0.023,0.385-0.072c0.541-0.212,0.809-0.825,0.597-1.367    c-0.323-0.825-3.196-8.102-4.515-9.685c-0.375-0.445-1.037-0.506-1.484-0.134c-0.447,0.372-0.506,1.037-0.134,1.484    c0.827,0.994,2.996,6.112,4.169,9.105C354.437,391.916,354.836,392.169,355.256,392.169z"/>
	</g>
</g>















</svg>
