<?xml version="1.0" encoding="UTF-8"?>
<!-- Generator: Adobe Illustrator 25.1.0, SVG Export Plug-In . SVG Version: 6.00 Build 0)  -->
<svg xmlns="http://www.w3.org/2000/svg" xmlns:xlink="http://www.w3.org/1999/xlink" version="1.1" id="Capa_1" x="0px" y="0px" viewBox="0 0 500 500" style="enable-background:new 0 0 500 500;" xml:space="preserve" width="512" height="512">
<g>
	<g>
		<path style="fill:#FFFFFF;" d="M263.583,423.182c0,0,6.739,12.191-5.323,16.429c-12.062,4.239-17.18-7.717-9.535-9.792    c7.645-2.075,5.995,19.021-10.557,17.374c-16.553-1.648-21.627-20.692-12.33-17.374s0.434,25.991-15.457,21.282    c-15.891-4.709-23.795-24.005-11.79-27.92c12.005-3.915-0.356,25.608-12.228,14.882c-11.871-10.726-8.807-25.949-8.807-25.949"/>
		<path style="fill:#251626;" d="M214.559,452.699c-1.429,0-2.919-0.21-4.455-0.665c-6.747-1.999-11.98-6.442-15.09-11.272    c-3.173,1.308-6.399,0.646-9.304-1.978c-12.142-10.97-9.237-26.219-9.108-26.863c0.105-0.525,0.61-0.862,1.145-0.762    c0.526,0.105,0.867,0.618,0.763,1.145c-0.029,0.147-2.797,14.825,8.505,25.036c2.569,2.32,4.996,2.43,6.995,1.711    c-1.402-2.636-2.168-5.314-2.2-7.714c-0.06-4.408,2.302-7.717,6.481-9.08c3.568-1.161,5.043,0.422,5.601,1.473    c1.94,3.644-1.236,11.577-6.178,15.432c-0.316,0.247-0.634,0.473-0.954,0.679c2.931,4.44,7.827,8.529,13.897,10.327    c7.582,2.244,13.034-2.076,15.802-6.758c-2.736-2.259-4.638-5.028-5.59-7.693c-0.973-2.721-0.798-5.013,0.478-6.289    c0.756-0.755,2.207-1.457,4.818-0.525c4.021,1.434,5.488,6.18,3.652,11.807c-0.235,0.719-0.517,1.429-0.843,2.122    c2.507,1.739,5.64,3.028,9.29,3.392c6.789,0.682,10.273-2.647,11.913-5.173c-1.784-0.525-2.979-1.402-3.617-1.977    c-1.912-1.723-2.783-4.117-2.275-6.248c0.456-1.91,1.981-3.348,4.186-3.947c1.739-0.472,3.266-0.004,4.308,1.318    c1.621,2.059,1.711,5.853,0.346,9.345c1.355,0.034,2.944-0.194,4.813-0.851c3.098-1.089,5.121-2.826,6.01-5.163    c1.712-4.494-1.186-9.824-1.216-9.878c-0.26-0.47-0.089-1.062,0.381-1.321c0.471-0.262,1.062-0.088,1.321,0.381    c0.139,0.25,3.361,6.182,1.332,11.511c-1.104,2.897-3.52,5.019-7.184,6.306c-2.511,0.882-4.633,1.075-6.364,0.913    c-2.8,4.891-7.949,7.328-14.146,6.719c-3.944-0.392-7.318-1.732-10.041-3.574C225.234,449.192,220.401,452.698,214.559,452.699z     M223.883,430.407c-0.444,0-0.864,0.103-1.16,0.398c-0.691,0.691-0.699,2.362-0.022,4.258c0.786,2.201,2.39,4.557,4.689,6.542    c0.225-0.506,0.418-1.009,0.577-1.497c1.236-3.788,0.956-8.154-2.456-9.373C225.086,430.584,224.465,430.407,223.883,430.407z     M249.74,430.648c-0.236,0-0.488,0.037-0.76,0.11c-1.518,0.412-2.513,1.308-2.803,2.521c-0.343,1.438,0.302,3.106,1.685,4.352    c0.55,0.496,1.618,1.264,3.265,1.66c1.412-3.218,1.22-6.498,0.124-7.887C250.853,430.899,250.354,430.648,249.74,430.648z     M200.558,423.794c-0.47,0-1.025,0.104-1.664,0.313c-4.309,1.405-5.173,4.693-5.139,7.203c0.029,2.13,0.734,4.51,2.003,6.86    c0.267-0.173,0.52-0.355,0.76-0.542c4.404-3.436,7.004-10.451,5.656-12.985C201.873,424.078,201.332,423.794,200.558,423.794z"/>
	</g>
	<g>
		<path style="fill:#FFFFFF;" d="M69.447,263.056c0,0-11.445-7.939-2.513-17.086s18.82-0.7,12.888,4.55    c-5.932,5.249-13.807-14.392,1.76-20.253s28.559,8.959,18.755,10.106c-9.804,1.147-11.912-23.104,4.419-25.929    c16.331-2.825,31.971,10.968,22.946,19.799s-11.034-23.112,4.363-18.76s19.398,19.355,19.398,19.355"/>
		<path style="fill:#251626;" d="M69.446,264.029c-0.191,0-0.385-0.056-0.554-0.174c-0.235-0.162-5.754-4.053-6.297-9.729    c-0.295-3.085,0.931-6.058,3.643-8.835c1.86-1.904,3.67-3.019,5.301-3.641c0.341-5.625,3.863-10.096,9.701-12.294    c3.709-1.398,7.332-1.695,10.584-1.248c0.58-6.681,4.74-13.235,12.767-14.624c6.934-1.202,13.596,0.462,18.524,3.413    c2.268-2.581,5.451-3.416,9.217-2.351c15.747,4.45,19.903,19.405,20.072,20.039c0.139,0.519-0.169,1.051-0.688,1.19    c-0.521,0.129-1.052-0.17-1.191-0.688c-0.039-0.145-4.063-14.528-18.722-18.671c-3.332-0.941-5.556,0.038-7.029,1.568    c2.426,1.741,4.3,3.802,5.393,5.938c2.008,3.926,1.358,7.94-1.783,11.013c-2.687,2.627-4.708,1.858-5.674,1.164    c-3.355-2.409-4.025-10.927-1.305-16.572c0.175-0.362,0.359-0.706,0.554-1.032c-4.595-2.679-10.8-4.174-17.035-3.096    c-7.798,1.349-10.762,7.64-11.168,13.064c3.454,0.812,6.387,2.451,8.421,4.417c2.078,2.008,2.938,4.14,2.36,5.849    c-0.342,1.012-1.328,2.284-4.085,2.607c-4.253,0.497-7.659-3.107-8.509-8.965c-0.108-0.748-0.17-1.509-0.185-2.275    c-3.018-0.446-6.397-0.215-9.832,1.078c-6.386,2.405-8.034,6.927-8.384,9.918c1.834-0.319,3.292-0.065,4.118,0.168    c2.478,0.697,4.321,2.457,4.81,4.592c0.438,1.914-0.293,3.879-2.002,5.393c-1.349,1.193-2.926,1.451-4.447,0.728    c-2.367-1.126-4.128-4.487-4.453-8.224c-1.22,0.57-2.553,1.48-3.937,2.897c-2.295,2.35-3.337,4.802-3.098,7.292    c0.458,4.788,5.42,8.282,5.47,8.317c0.441,0.306,0.551,0.912,0.244,1.354C70.058,263.883,69.754,264.029,69.446,264.029z     M73.471,243.094c0.161,3.511,1.788,6.365,3.385,7.126c0.805,0.382,1.563,0.244,2.321-0.428c1.179-1.042,1.674-2.286,1.395-3.502    c-0.33-1.441-1.648-2.649-3.439-3.153C76.419,242.936,75.12,242.718,73.471,243.094z M93.72,230.497    c0.023,0.554,0.073,1.089,0.147,1.599c0.571,3.944,2.758,7.74,6.357,7.312c0.789-0.092,2.16-0.384,2.469-1.297    c0.312-0.926-0.421-2.429-1.869-3.828C99.144,232.657,96.662,231.256,93.72,230.497z M123.597,219.552    c-0.162,0.273-0.309,0.549-0.441,0.823c-2.425,5.032-1.645,12.473,0.687,14.147c0.835,0.6,1.905,0.273,3.18-0.974    c3.239-3.17,2.555-6.501,1.411-8.737C127.464,222.914,125.776,221.095,123.597,219.552z"/>
	</g>
	<g>
		<path style="fill:#FFFFFF;" d="M390.738,215.27c0,0-2.006-11.036,8.289-11.167s11.124,10.309,4.756,9.925    s0.319-16.057,12.526-10.541c12.207,5.516,11.179,21.354,4.939,16.43c-6.24-4.924,6.356-19.945,17.271-12.263    c10.915,7.682,11.981,24.44,1.813,24.339c-10.168-0.102,6.861-19.449,13.16-8.21c6.299,11.239,0.044,22.067,0.044,22.067"/>
		<path style="fill:#251626;" d="M453.535,246.822c-0.165,0-0.332-0.042-0.484-0.13c-0.465-0.268-0.625-0.862-0.359-1.328    c0.061-0.104,5.893-10.504-0.049-21.106c-1.113-1.989-2.627-2.999-4.514-3.021c0.357,2.328,0.241,4.524-0.344,6.335    c-1.106,3.433-3.786,5.393-7.363,5.393c-0.034,0-0.066,0-0.099,0c-3.165-0.031-3.915-1.72-4.081-2.724    c-0.554-3.358,3.975-8.701,8.81-10.397c0.247-0.086,0.492-0.162,0.735-0.228c-1.111-4.045-3.754-8.301-7.827-11.168    c-5.063-3.559-10.176-1.778-13.443,0.976c1.467,2.419,2.189,5.001,2.23,7.266c0.043,2.402-0.718,4.17-2.088,4.849    c-0.819,0.406-2.181,0.585-4.013-0.86c-2.786-2.198-2.698-6.301,0.217-10.212c0.337-0.452,0.703-0.888,1.094-1.304    c-1.441-1.898-3.445-3.615-6.049-4.792c-4.745-2.142-8.12-0.723-10.026,0.706c1.127,0.842,1.772,1.767,2.1,2.351    c1.05,1.867,1.097,3.992,0.123,5.547c-0.878,1.4-2.472,2.129-4.382,2.022c-1.505-0.09-2.64-0.907-3.114-2.24    c-0.708-1.987,0.141-4.864,2-7.193c-0.955-0.312-2.12-0.505-3.57-0.49c-2.582,0.033-4.522,0.812-5.765,2.317    c-2.402,2.907-1.587,7.658-1.579,7.705c0.094,0.529-0.257,1.034-0.786,1.129c-0.519,0.1-1.032-0.254-1.128-0.783    c-0.042-0.23-0.99-5.67,1.986-9.282c1.624-1.971,4.062-2.991,7.247-3.032c2.111-0.048,3.77,0.351,5.06,0.908    c3.443-2.992,8.024-3.522,12.636-1.438c2.867,1.296,5.082,3.146,6.693,5.213c4.186-3.437,10.295-4.742,15.675-0.955    c4.622,3.253,7.485,7.965,8.651,12.452c2.783-0.102,5.083,1.275,6.611,3.996c6.495,11.589,0.304,22.568,0.036,23.03    C454.198,246.647,453.871,246.822,453.535,246.822z M446.2,221.519c-0.165,0.048-0.334,0.102-0.505,0.161    c-4.06,1.423-7.895,6.056-7.534,8.245c0.044,0.266,0.178,1.075,2.181,1.095c0.029,0,0.055,0,0.084,0    c3.473,0,4.913-2.194,5.509-4.044C446.436,225.421,446.519,223.531,446.2,221.519z M423.063,210.843    c-0.232,0.262-0.445,0.525-0.641,0.788c-1.864,2.499-2.762,5.793-0.572,7.522c0.468,0.369,1.34,0.94,1.944,0.644    c0.523-0.26,1.038-1.311,1.007-3.072C424.769,214.938,424.203,212.851,423.063,210.843z M404.421,206.429    c-1.778,2.014-2.43,4.412-1.979,5.677c0.216,0.604,0.66,0.906,1.399,0.951c1.227,0.078,2.114-0.312,2.616-1.113    c0.586-0.937,0.52-2.335-0.17-3.562C406.015,207.899,405.454,207.114,404.421,206.429z"/>
	</g>
	<path style="fill:#251626;" d="M86.26,433.108c-0.524,0-1.006-0.207-1.386-0.603c-0.721-0.75-3.776-6.654,6.861-49.301   c0.131-0.521,0.656-0.836,1.18-0.709c0.521,0.13,0.838,0.658,0.709,1.18c-5.385,21.59-9.717,45.889-7.327,47.5   c4.247-0.895,17.209-22.403,24.382-35.754c0.256-0.473,0.843-0.65,1.317-0.396c0.473,0.255,0.651,0.843,0.396,1.317   c-1.943,3.616-19.171,35.372-25.703,36.721C86.543,433.093,86.4,433.108,86.26,433.108z"/>
	<path style="fill:#251626;" d="M381.695,439.849c-0.05,0-0.101-0.001-0.151-0.003c-10.823-0.457-29.151-44.795-31.206-49.849   c-0.202-0.498,0.038-1.066,0.535-1.268c0.497-0.201,1.066,0.038,1.268,0.535c5.451,13.413,21.376,48.297,29.485,48.639   c0.415,0.021,0.7-0.119,0.942-0.454c3.733-5.179-7.055-38.961-15.218-60.404c-0.191-0.502,0.061-1.064,0.563-1.255   c0.506-0.19,1.063,0.061,1.255,0.563c2.116,5.56,20.519,54.546,14.978,62.233C383.549,439.415,382.703,439.849,381.695,439.849z"/>
	<g>
		<path style="fill:#FFFFFF;" d="M336.562,185.757c0,0-17.643-19.779-6.871-30.201c10.772-10.422,23.486,6.499,14.207,5.932    s-14.941-20.008-1.952-22.824s21.706,6.137,14.847,7.027c-6.859,0.889-12.141-16.286-2.35-18.556    c9.791-2.269,22.453,11.676,14.981,10.452c-7.472-1.225-16.931-18.229-2.999-21.149c13.932-2.92,26.714,16.466,19.804,16.386    c-6.91-0.08-11.134-23.453,5.091-21.324s18.799,27.564,17.782,27.715"/>
		<path style="fill:#251626;" d="M336.562,186.73c-0.267,0-0.534-0.11-0.726-0.325c-0.746-0.837-18.134-20.603-6.821-31.549    c1.473-1.425,3.08-2.442,4.749-3.04c-0.178-0.78-0.298-1.562-0.357-2.335c-0.468-6.135,2.647-10.535,8.334-11.768    c2.37-0.513,4.572-0.656,6.562-0.544c-0.963-5.619,1.352-9.922,5.921-10.982c1.384-0.319,2.829-0.339,4.271-0.136    c-0.108-0.598-0.171-1.193-0.184-1.775c-0.058-2.651,0.892-7.318,7.914-8.79c4.819-1.008,9.43,0.434,13.236,2.854    c0.323-1.49,0.888-2.897,1.742-4.108c1.486-2.105,4.468-4.457,10.243-3.697c15.377,2.017,18.787,23.382,18.822,27.504    c0.006,0.693,0.016,1.982-1.024,2.137c-0.529,0.081-1.025-0.288-1.105-0.82c-0.038-0.256,0.028-0.503,0.165-0.7    c0.229-1.611-0.886-11.252-5.713-18.47c-3.029-4.53-6.863-7.128-11.398-7.723c-3.862-0.508-6.69,0.464-8.4,2.89    c-0.839,1.189-1.345,2.651-1.574,4.212c1.963,1.494,3.649,3.215,4.957,4.91c2.514,3.257,3.508,6.219,2.657,7.925    c-0.261,0.523-0.94,1.395-2.563,1.395c-0.017,0-0.035,0-0.053,0c-2.019-0.024-3.89-1.522-5.268-4.218    c-1.264-2.474-2.008-5.843-1.789-9.078c-3.696-2.532-8.153-4.031-12.537-3.11c-4.245,0.89-6.447,3.256-6.368,6.843    c0.015,0.732,0.132,1.496,0.332,2.268c4.611,1.312,8.931,4.602,10.95,7.42c1.125,1.571,1.404,2.834,0.831,3.757    c-0.518,0.83-1.561,1.118-3.103,0.87c-4.126-0.677-8.531-5.453-10.232-10.44c-1.466-0.305-2.951-0.354-4.372-0.025    c-4.262,0.988-5.079,5.234-4.421,8.88c0.025,0.14,0.052,0.278,0.082,0.417c4.305,0.657,7.403,2.508,8.797,4.134    c0.954,1.112,1.272,2.265,0.895,3.247c-0.275,0.716-1.035,1.627-3.096,1.894c-3.704,0.487-6.817-3.198-8.141-7.495    c-1.978-0.175-4.205-0.071-6.625,0.455c-6.702,1.453-6.993,7.28-6.806,9.719c0.05,0.658,0.152,1.325,0.3,1.989    c2.602-0.434,5.274,0.106,7.777,1.657c3.275,2.03,5.216,5.218,4.517,7.416c-0.27,0.848-1.163,2.238-4.102,2.064    c-4.494-0.275-7.962-4.254-9.541-8.784c-1.263,0.471-2.59,1.283-3.93,2.58c-9.986,9.662,6.749,28.664,6.919,28.855    c0.358,0.401,0.323,1.016-0.078,1.373C337.023,186.648,336.792,186.73,336.562,186.73z M336.195,153.198    c1.381,3.816,4.259,7.106,7.762,7.319c0.696,0.043,1.901,0.008,2.13-0.711c0.32-1.008-0.928-3.463-3.688-5.174    C341.249,153.919,338.966,152.831,336.195,153.198z M350.949,139.472c1.184,3.062,3.397,5.546,5.719,5.254    c0.991-0.129,1.441-0.427,1.531-0.663c0.078-0.202-0.021-0.66-0.556-1.283C356.599,141.562,354.244,140.143,350.949,139.472z     M361.422,128.82c1.74,3.813,5.134,7.31,8.16,7.806c0.903,0.151,1.164-0.01,1.166-0.011c0.023-0.193-0.372-1.308-1.98-2.963    C367.141,131.979,364.428,129.979,361.422,128.82z M381.074,121.957c0.047,2.417,0.649,4.858,1.607,6.735    c1.019,1.993,2.316,3.144,3.559,3.158c0.71,0.017,0.813-0.237,0.852-0.318c0.395-0.791-0.331-3.117-2.455-5.869    C383.631,124.36,382.426,123.096,381.074,121.957z"/>
	</g>
	<path style="fill:#EFA880;" d="M166.414,206.866l4.957,21.641l19.825-3.615c0,0-10.662,30.194-21.553,32.447   s-32.973-28.832-32.973-28.832h22.449l-5.775-18.036L166.414,206.866z"/>
	<path style="fill:#251626;" d="M36.962,148.438c-1.298,0-2.584-0.18-3.802-0.58c-4.466-1.468-7.64-5.851-9.029-10.53   c-1.145,0.251-2.338,0.427-3.568,0.514c-6.417,0.478-11.652-4.782-13.976-14.005c-0.844-3.349-1.202-7.047-0.977-10.325   c-0.813-0.635-1.562-1.448-2.239-2.435c-5.563-8.124-4.425-26.137,4.785-34.8c4.88-4.586,10.2-4.984,14.573-3.135   c2.039-5.3,5.511-10.329,10.927-13.196c4.93-2.609,9.834-2.628,13.809-0.059c1.777,1.148,3.272,2.775,4.393,4.681   c2.381-1.332,5.009-2.533,7.868-3.537c5.489-1.93,9.853-1.524,12.97,1.199c8.834,7.717,4.066,31.457,3.859,32.465   c-0.109,0.525-0.621,0.865-1.148,0.756c-0.526-0.108-0.865-0.622-0.757-1.148c0.048-0.236,4.751-23.636-3.234-30.609   c-2.551-2.226-6.267-2.508-11.046-0.827c-2.813,0.989-5.357,2.158-7.631,3.436c1.014,2.328,1.507,4.938,1.341,7.538   c-0.332,5.188-3.204,9.445-7.878,11.681c-4.621,2.21-7.024,1.616-8.227,0.724c-1.235-0.915-1.748-2.527-1.445-4.54   c0.718-4.761,5.567-11.184,13.657-16.157c-0.967-1.641-2.253-3.04-3.778-4.027c-2.376-1.535-6.36-2.754-11.842,0.145   c-4.968,2.629-8.169,7.392-10.055,12.383c1.192,0.714,2.287,1.598,3.25,2.601c4.471,4.656,6.408,12.362,1.195,17.472   c-2.148,2.104-3.84,2.069-4.885,1.666c-2.089-0.805-3.438-3.83-3.704-8.298c-0.205-3.448,0.264-8,1.715-12.514   c-3.625-1.59-8.166-1.444-12.593,2.719c-8.34,7.844-9.613,24.836-4.515,32.284c0.268,0.39,0.573,0.781,0.918,1.147   c0.557-3.194,1.794-5.704,3.828-6.621c4.329-1.952,11.253-1.58,12.679,1.491c0.789,1.699,0.16,4.477-7.321,8.055   c-2.767,1.324-5.345,1.502-7.578,0.575c-0.084,2.702,0.222,5.762,0.973,8.737c0.778,3.084,3.919,13.108,11.953,12.541   c1.129-0.08,2.212-0.239,3.244-0.463c-0.331-1.729-0.412-3.451-0.22-5.036c0.58-4.785,3.493-7.728,7.995-8.073   c3.697-0.286,5.292,0.84,5.968,1.831c0.783,1.149,0.768,2.701-0.04,4.37c-1.517,3.131-5.736,6.597-11.355,8.302   c1.243,4.113,4.014,7.946,7.751,9.174c4.193,1.38,9.326-0.304,12.534-2.744c-0.015-0.011-0.028-0.023-0.044-0.033   c-3.19-2.479-6.1-6.181-4.952-8.452c0.451-0.898,1.645-1.783,4.742-0.906c3.647,1.03,4.782,2.794,5.092,4.094   c0.382,1.6-0.231,3.371-1.732,5.074c4.943,2.999,11.537,4.109,17.135-0.775c0.404-0.354,1.018-0.312,1.372,0.093   c0.352,0.405,0.311,1.019-0.094,1.372c-6.568,5.735-14.265,4.285-19.862,0.701C45.236,146.673,41.032,148.438,36.962,148.438z    M43.801,135.454c-0.507,0-0.72,0.125-0.76,0.204c-0.321,0.636,0.944,3.343,4.411,6.037c0.107,0.084,0.216,0.166,0.325,0.248   c1.178-1.263,1.71-2.522,1.47-3.524c-0.342-1.436-2.217-2.246-3.728-2.674C44.741,135.526,44.187,135.454,43.801,135.454z    M32.564,124.232c-0.308,0-0.632,0.013-0.971,0.039c-4.778,0.367-5.942,4.147-6.212,6.368c-0.163,1.354-0.097,2.826,0.177,4.306   c5.273-1.631,8.918-4.893,10.064-7.26c0.285-0.588,0.688-1.685,0.183-2.427C35.351,124.593,34.192,124.232,32.564,124.232z    M7.655,112.514c1.624,0.891,3.78,1.124,6.584-0.219c5.401-2.583,6.821-4.566,6.396-5.48c-0.701-1.511-6.071-2.361-10.115-0.536   C9.022,106.953,8.029,109.342,7.655,112.514z M23.863,75.933c-1.306,4.19-1.736,8.372-1.554,11.44   c0.209,3.512,1.176,6.103,2.463,6.598c0.918,0.36,2.045-0.475,2.823-1.24c4.321-4.235,2.588-10.753-1.236-14.737   C25.629,77.235,24.789,76.531,23.863,75.933z M51.059,67.294c-7.842,4.875-12.041,10.965-12.604,14.7   c-0.135,0.896-0.127,2.09,0.679,2.686c1.075,0.796,3.347,0.462,6.23-0.916c5.504-2.632,6.608-7.426,6.776-10.05   C52.281,71.501,51.884,69.283,51.059,67.294z"/>
	<path style="fill:#D43F16;" d="M202.717,172.226c0,0,68.679-111.369-59.671-124.411C36.272,36.965,28.925,201.414,116.091,199.281   C183.946,197.62,202.717,172.226,202.717,172.226z"/>
	<path style="fill:#EFA880;" d="M32.863,272.647c0,0,68.651-39.371,105.483-41.77c36.832-2.399,6.123,34.359,6.123,34.359   S52.956,281.671,32.863,272.647z"/>
	<path style="fill:#EFA880;" d="M206.276,286.585c0,0,13.302-56.042,0-60.909c-13.302-4.867-81.386,2.362-87.222,8.798   s20.262,60.903,20.262,60.903L206.276,286.585z"/>
	<path style="fill:#EFA880;" d="M358.924,332.163l8.093-137.632l120.37,59.823c0,0,10.196-19.482,11.553-14.961   c1.356,4.522-10.298,32.008-10.298,32.008l-99.786-41.576l6.966,101.033L358.924,332.163z"/>
	<path style="fill:#EFA880;" d="M294.406,289.399l36.311-108.793l79.107-54.765c0,0-6.765-18.362-2.063-22.557   c0.973-0.868,15.68,31.071,15.68,31.071l-73.271,64.543l-12.32,90.501H294.406z"/>
	<path style="fill:#EFA880;" d="M98.052,131.694c0,0,20.323-48.848,73.101-36.167c39.487,9.487,64.76,116.16,4.77,122.559   C105.629,225.585,86.713,162.274,98.052,131.694z"/>
	<path style="fill:#251626;" d="M160.963,161.252c-0.527,0-0.96-0.421-0.973-0.95c-0.012-0.537,0.413-0.982,0.95-0.995   c0.14-0.003,13.596-0.324,18.189-0.814c-0.901-2.856-10.953-14.266-20.704-24.224c-0.375-0.384-0.369-0.999,0.015-1.375   c0.384-0.375,0.998-0.369,1.375,0.015c8.393,8.57,22.312,23.41,21.235,26.502c-0.187,0.536-0.638,0.886-1.24,0.962   c-4.198,0.53-18.229,0.865-18.825,0.88C160.978,161.252,160.971,161.252,160.963,161.252z"/>
	<path style="fill:#251626;" d="M169.524,197.449c-0.35,0-0.706-0.072-1.06-0.216c-4.978-2.018-9.616-20.395-10.128-22.483   c-0.128-0.521,0.191-1.049,0.712-1.176c0.523-0.129,1.049,0.191,1.177,0.712c1.845,7.517,5.912,19.905,8.969,21.144   c0.273,0.109,0.488,0.094,0.734-0.06c3.861-2.419,7.521-17.66,8.604-23.328c0.101-0.528,0.607-0.876,1.138-0.773   c0.528,0.101,0.874,0.611,0.773,1.138c-0.415,2.171-4.208,21.307-9.482,24.612C170.506,197.305,170.021,197.449,169.524,197.449z"/>
	<path style="fill:#251626;" d="M137.255,149.283c-4.161,0-9.468-10.613-11.053-13.999c-0.228-0.486-0.018-1.065,0.468-1.293   c0.484-0.23,1.065-0.018,1.293,0.468c3.09,6.595,7.62,13.353,9.39,12.866c1.686-0.445,1.055-8.283-0.566-15.039   c-0.125-0.522,0.197-1.048,0.719-1.173c0.524-0.12,1.048,0.197,1.173,0.719c0.908,3.784,3.531,16.222-0.828,17.373   C137.655,149.258,137.457,149.283,137.255,149.283z"/>
	<path style="fill:#251626;" d="M181.336,136.73c-4.243,0-11.497-9.952-13.703-13.13c-0.307-0.442-0.198-1.048,0.244-1.354   c0.442-0.309,1.047-0.198,1.354,0.244c4.379,6.304,10.28,12.789,12.221,12.282c1.685-0.445,1.054-8.282-0.566-15.039   c-0.125-0.522,0.197-1.048,0.719-1.173c0.522-0.123,1.048,0.199,1.173,0.719c0.907,3.785,3.53,16.223-0.83,17.373   C181.752,136.705,181.548,136.73,181.336,136.73z"/>
	<circle style="fill:#EFA880;" cx="87.688" cy="171" r="12.082"/>
	<path style="fill:#251626;" d="M93.379,176.637c-0.443,0-0.842-0.304-0.947-0.753c-0.683-2.959-1.949-4.842-3.761-5.597   c-3.171-1.323-7.113,1.075-7.153,1.1c-0.456,0.283-1.056,0.142-1.338-0.316c-0.282-0.457-0.142-1.056,0.316-1.338   c0.196-0.122,4.844-2.945,8.924-1.24c2.424,1.011,4.076,3.35,4.909,6.954c0.121,0.523-0.205,1.046-0.729,1.167   C93.525,176.629,93.451,176.637,93.379,176.637z"/>
	<circle style="fill:#EA7C71;" cx="127.612" cy="168.804" r="11.518"/>
	<circle style="fill:#EA7C71;" cx="191.197" cy="146.331" r="11.518"/>
	<g>
		<g>
			<path style="fill:#251626;" d="M242.955,227.982c-0.365,0-0.708-0.206-0.874-0.545c-5.495-11.23-12.589-17.678-21.087-19.166     c-15.237-2.676-30.142,11.546-30.29,11.69c-0.386,0.373-1,0.367-1.375-0.023c-0.373-0.386-0.364-1.001,0.023-1.375     c0.634-0.615,15.758-15.045,31.978-12.208c8.228,1.44,15.18,7.091,20.704,16.819c0.267-6.042,1.577-17.561,7.506-23.105     c2.552-2.388,5.681-3.415,9.318-3.055c17.098,1.698,20.901,8.472,21.054,8.759c0.254,0.474,0.074,1.063-0.4,1.316     c-0.472,0.253-1.064,0.075-1.316-0.4c-0.03-0.053-3.622-6.16-19.53-7.739c-3.093-0.306-5.64,0.523-7.797,2.54     c-7.439,6.953-6.948,25.303-6.942,25.489c0.015,0.458-0.293,0.864-0.737,0.975C243.111,227.973,243.033,227.982,242.955,227.982z     "/>
			<path style="fill:#251626;" d="M243.439,230.826c-0.313,0-0.61-0.151-0.794-0.411c-0.128-0.18-12.932-18.046-24.668-14.764     c-11.892,3.309-15.351,14.305-15.384,14.416c-0.156,0.513-0.697,0.805-1.213,0.649c-0.514-0.156-0.805-0.699-0.649-1.213     c0.15-0.494,3.814-12.133,16.725-15.727c11.075-3.071,22.214,9.647,25.691,14.074c1.921-5.033,7.496-18.647,12.25-20.419     c5.687-2.123,14.085,4.218,14.44,4.488c0.426,0.327,0.508,0.937,0.182,1.363c-0.326,0.429-0.936,0.509-1.363,0.183     c-0.078-0.06-7.89-5.958-12.58-4.212c-3.963,1.478-9.805,15.61-11.723,20.931c-0.123,0.341-0.425,0.585-0.784,0.634     C243.527,230.823,243.483,230.826,243.439,230.826z"/>
			<polygon style="fill:#757A91;" points="185.332,212.385 238.043,227.847 247.003,225.789 280.827,198.417 296.544,264.076      259.116,285.412 247.645,287.365 189.587,283.433    "/>
			<path style="fill:#251626;" d="M247.644,288.337c-0.469,0-0.882-0.34-0.959-0.818l-9.603-59.518     c-0.085-0.53,0.275-1.03,0.805-1.115c0.529-0.093,1.03,0.275,1.115,0.805l9.603,59.518c0.085,0.53-0.275,1.03-0.805,1.115     C247.748,288.333,247.696,288.337,247.644,288.337z"/>
			<path style="fill:#251626;" d="M257.985,286.577c-0.452,0-0.858-0.317-0.952-0.777l-12.215-59.532     c-0.108-0.526,0.231-1.04,0.757-1.148c0.53-0.11,1.041,0.232,1.148,0.757l12.215,59.532c0.108,0.526-0.231,1.04-0.757,1.148     C258.115,286.571,258.05,286.577,257.985,286.577z"/>
		</g>
		<path style="fill:#EFA880;" d="M284.851,270.655c0,0-17.077-10.967-17.028-15.25c0.044-3.841,20.369,7.967,20.369,7.967    s-15.711-13.7-13.713-17.618s21.297,11.23,21.297,11.23s-17.782-17.529-14.207-18.933c3.574-1.404,24.949,12.956,26.988,24.021    S291.323,277.023,284.851,270.655z"/>
	</g>
	<g>
		<path style="fill:#FFFFFF;" d="M103.502,280.431c0,0-6.009-27.941,15.172-31.095c21.181-3.155,23.434,19.378,12.618,13.52    s-2.552-26.589,15.398-21.631c17.95,4.957,21.556,18.026,12.542,14.872c-9.013-3.155-2.052-21.631,11.592-18.026    c13.644,3.605,18.151,23.434,10.039,18.026c-8.112-5.408-6.351-26.138,12.823-20.73c19.174,5.408,19.592,30.194,11.271,26.138    c-8.321-4.056,4.748-27.49,22.774-16.224c18.026,11.266,1.352,35.602,0,35.151"/>
		<path style="fill:#251626;" d="M103.501,281.404c-0.448,0-0.852-0.312-0.95-0.768c-0.134-0.62-3.192-15.306,3.392-24.817    c2.852-4.12,7.088-6.624,12.588-7.444c3.163-0.468,5.939-0.388,8.336,0.084c2.896-6.167,10.056-10.939,20.083-8.17    c3.37,0.931,6.328,2.182,8.821,3.595c2.624-5.025,8.222-8.624,15.303-6.753c2.13,0.562,4.042,1.488,5.73,2.642    c1.545-3.003,5.997-8.486,17.147-5.342c6.703,1.891,11.203,6.035,13.903,10.573c0.716-0.582,1.475-1.109,2.266-1.566    c5.531-3.192,11.97-2.829,18.128,1.02c13.328,8.33,8.262,23.034,5.464,28.969c-0.041,0.087-4.135,8.671-6.288,7.928    c-0.51-0.17-0.785-0.721-0.615-1.23c0.115-0.347,0.407-0.585,0.743-0.649c1.354-1.025,7.427-9.904,7.526-19.149    c0.066-6.134-2.58-10.918-7.863-14.22c-7.075-4.421-12.674-2.976-16.124-0.985c-0.825,0.477-1.593,1.024-2.298,1.622    c0.951,1.946,1.589,3.922,1.946,5.784c0.846,4.42,0.123,8.122-1.885,9.66c-1.182,0.905-2.717,0.976-4.325,0.191    c-1.917-0.934-3.02-2.792-3.105-5.233c-0.125-3.568,1.86-7.695,4.955-10.809c-2.453-4.29-6.638-8.251-12.958-10.033    c-7.218-2.038-12.692-0.335-15.041,4.666c4.292,3.593,6.815,8.624,7.374,12.19c0.34,2.17-0.083,3.756-1.189,4.463    c-1.071,0.687-2.499,0.446-4.242-0.716c-4.29-2.861-6.113-9.702-4.291-15.28c-1.598-1.154-3.422-2.078-5.458-2.616    c-6.093-1.611-10.909,1.531-13.137,5.886c4.196,2.733,6.767,5.897,7.382,8.501c0.332,1.411,0.053,2.606-0.787,3.363    c-0.748,0.671-2.243,1.26-5.121,0.255c-4.011-1.404-5.681-5.688-4.157-10.66c0.072-0.233,0.149-0.464,0.233-0.694    c-2.309-1.331-5.148-2.557-8.556-3.498c-8.732-2.411-14.991,1.537-17.637,6.783c4.453,1.386,7.353,4.211,8.784,7.123    c1.477,3.007,1.357,6.097-0.299,7.689c-0.857,0.825-2.836,1.915-6.45-0.046c-4.605-2.494-6.446-7.9-4.687-13.407    c-2.11-0.373-4.547-0.419-7.323-0.006c-4.945,0.736-8.737,2.964-11.272,6.621c-6.106,8.812-3.124,23.163-3.094,23.307    c0.113,0.525-0.221,1.042-0.747,1.155C103.637,281.397,103.569,281.404,103.501,281.404z M128.042,250.754    c-1.324,4.019-0.692,8.861,3.714,11.248c1.846,0.999,3.366,1.128,4.175,0.353c1.011-0.972,0.969-3.255-0.1-5.429    C134.587,254.393,132.022,251.943,128.042,250.754z M207.316,248.163c-2.62,2.846-4.035,6.347-3.945,8.914    c0.042,1.193,0.425,2.777,2.014,3.552c1.41,0.687,2.072,0.18,2.29,0.011c1.355-1.037,1.831-4.224,1.156-7.749    C208.539,251.368,208.04,249.761,207.316,248.163z M177.668,242.95c-1.221,4.647,0.3,10.046,3.737,12.337    c1.157,0.771,1.863,0.856,2.115,0.696c0.311-0.199,0.542-1.073,0.314-2.524C183.368,250.482,181.233,246.178,177.668,242.95z     M156.681,246.715c-0.023,0.07-0.045,0.141-0.066,0.211c-0.922,3.009-0.706,6.976,2.94,8.252c2.226,0.782,2.996,0.301,3.178,0.137    c0.388-0.35,0.289-1.072,0.195-1.47C162.511,252.079,160.516,249.297,156.681,246.715z"/>
	</g>
	<path style="fill:#9CD1C3;" d="M45.783,270.089h372.191c0,0,15.25,80.404-31.124,127.089s-255.108,35.014-293.47,3.891   S45.783,270.089,45.783,270.089z"/>
	<g>
		<path style="fill:#D43F16;" d="M125.071,78.101c0,0,13.195,12.047,8.128,28.095c-5.622,17.804-28.368,7.833-23.184-0.94    s17.335,12.489,6.075,23.392S91,135.73,99.773,127.636s13.154,13.124,6.431,21.897c-6.722,8.773-25.198,0.599-15.68-6.533    c8.047-6.03,7.885,31.772-20.101,15.915"/>
		<path style="fill:#251626;" d="M82.708,163.805c-3.333,0-7.528-1.078-12.764-4.044c-0.467-0.265-0.632-0.859-0.367-1.326    c0.266-0.467,0.856-0.629,1.326-0.367c11.56,6.549,17.403,3.462,20.268-0.284c0.962-1.257,1.657-2.684,2.13-4.141    c-3.381-1.038-5.812-3.119-6.319-5.486c-0.312-1.462-0.053-3.679,2.959-5.935c1.535-1.149,3.152-1.126,4.326,0.06    c1.743,1.759,2.284,5.827,1.429,9.923c3.267,0.519,7.308-0.094,9.737-3.264c2.666-3.479,3.491-9.193,2.906-13.965    c-3.576,1.454-6.836,1.685-9.061,1.03c-1.716-0.504-2.838-1.54-3.159-2.916c-0.299-1.277-0.021-3.384,2.997-6.168    c3.777-3.481,6.567-1.681,7.59-0.748c1.377,1.257,2.414,3.41,3.036,5.979c1.895-1.028,3.833-2.419,5.675-4.204    c3.221-3.119,4.37-7.134,4.33-10.94c-4.181-0.327-8.261-2.374-10.257-5.36c-1.5-2.242-1.61-4.688-0.311-6.887    c1.361-2.303,3.044-2.64,4.206-2.529c2.731,0.272,5.525,3.408,7.121,7.99c0.518,1.487,0.9,3.141,1.078,4.871    c0.341-0.019,0.683-0.053,1.026-0.102c4.589-0.655,8.02-3.882,9.664-9.087c4.824-15.281-7.73-26.968-7.857-27.084    c-0.397-0.362-0.426-0.977-0.063-1.373c0.364-0.4,0.978-0.426,1.373-0.063c0.137,0.124,13.595,12.655,8.4,29.106    c-2.538,8.038-8.133,9.984-11.243,10.427c-0.395,0.057-0.793,0.095-1.194,0.117c0.036,4.262-1.271,8.778-4.922,12.314    c-2.181,2.111-4.446,3.69-6.639,4.809c0.804,5.397-0.061,11.936-3.152,15.969c-2.997,3.912-7.909,4.627-11.778,3.969    c-0.557,1.746-1.379,3.431-2.482,4.874C91.05,161.147,87.941,163.805,82.708,163.805z M92.192,143.313    c-0.267,0-0.618,0.115-1.085,0.464c-1.208,0.906-2.574,2.33-2.223,3.972c0.345,1.613,2.301,3.179,4.907,4.006    c0.714-3.592,0.191-6.997-0.907-8.106C92.757,143.521,92.551,143.313,92.192,143.313z M103.535,126.796    c-0.787,0-1.814,0.367-3.102,1.555c-1.79,1.652-2.673,3.217-2.421,4.295c0.199,0.851,1.096,1.281,1.813,1.492    c2,0.585,4.962,0.255,8.178-1.139c-0.516-2.34-1.407-4.293-2.609-5.39C105.108,127.35,104.502,126.796,103.535,126.796z     M113.006,104.158c-0.805,0-1.528,0.535-2.153,1.593c-1.151,1.948-0.499,3.694,0.252,4.817c1.445,2.16,4.767,4.117,8.517,4.483    c-0.171-1.485-0.508-2.906-0.956-4.19c-1.284-3.69-3.588-6.505-5.476-6.693C113.129,104.161,113.067,104.158,113.006,104.158z"/>
	</g>
	<g>
		<path style="fill:#D43F16;" d="M133.199,70.377c0,0-7.553,35.092,15.766,32.83s24.682-26.137,17.212-19.098    s-0.541,15.119,11.831,18.849s22.227-5.343,14.033-12.689c-8.194-7.346-17.59,21.55-2.602,24.029    c14.988,2.479,15.629-2.055,13.15-7.059s-13.214,15.048-1.697,20.396c11.517,5.348,13.785-9.883,13.785-9.883"/>
		<path style="fill:#251626;" d="M205.461,129.749c-1.548,0-3.211-0.41-4.978-1.231c-4.418-2.052-6.417-6.335-5.631-12.061    c0.025-0.178,0.051-0.354,0.081-0.531c-1.655-0.095-3.534-0.318-5.651-0.669c-4.611-0.763-7.627-3.95-8.493-8.977    c-0.098-0.565-0.165-1.145-0.205-1.732c-0.929-0.148-1.882-0.366-2.855-0.659c-5.352-1.614-9.618-3.971-12.328-6.712    c-5.029,4.603-12.071,6.583-16.34,6.997c-5.578,0.538-9.942-0.926-12.998-4.356c-8.117-9.111-3.992-28.812-3.813-29.646    c0.112-0.525,0.632-0.86,1.155-0.747c0.525,0.113,0.86,0.63,0.747,1.155c-0.042,0.195-4.097,19.574,3.365,27.946    c2.62,2.939,6.434,4.185,11.356,3.712c7.112-0.691,12.007-3.449,15.21-6.588c-0.864-1.164-1.459-2.38-1.752-3.625    c-0.495-2.1-0.345-5.302,3.182-8.624c1.993-1.878,3.38-1.727,4.195-1.271c1.348,0.756,1.815,2.814,1.249,5.506    c-0.689,3.275-2.208,5.967-4.182,8.157c2.474,2.502,6.506,4.723,11.517,6.234c0.769,0.232,1.525,0.412,2.262,0.545    c0.199-5.79,2.829-11.876,6.345-13.821c1.957-1.084,4.013-0.804,5.794,0.793c3.303,2.962,4.211,6.627,2.425,9.804    c-1.815,3.232-6.538,5.77-12.566,5.416c0.036,0.399,0.087,0.795,0.155,1.185c0.505,2.934,2.112,6.598,6.894,7.389    c2.294,0.379,4.191,0.584,5.758,0.658c1.168-4.318,3.682-8.149,5.812-8.496c0.954-0.16,1.803,0.317,2.293,1.306    c1.467,2.961,1.6,5.183,0.407,6.795c-1.153,1.559-3.42,2.344-6.973,2.376c-0.786,4.284,0.05,8.754,4.406,10.776    c2.726,1.265,5.087,1.379,7.02,0.342c4.265-2.293,5.384-9.415,5.394-9.487c0.081-0.53,0.572-0.893,1.107-0.817    c0.531,0.079,0.897,0.574,0.818,1.105c-0.049,0.331-1.269,8.15-6.391,10.909C208.08,129.435,206.815,129.749,205.461,129.749z     M201.49,107.413c-0.506,0-2.419,1.758-3.789,5.588c-0.12,0.334-0.232,0.674-0.334,1.018c3.042-0.095,4.38-0.821,4.937-1.574    c0.708-0.956,0.51-2.562-0.586-4.774c-0.106-0.214-0.184-0.253-0.185-0.254C201.52,107.415,201.506,107.413,201.49,107.413z     M182.488,102.819c5.317,0.388,9.407-1.708,10.933-4.422c1.346-2.395,0.625-5.025-2.029-7.404    c-1.162-1.042-2.324-1.218-3.553-0.539C185.157,91.938,182.621,97.424,182.488,102.819z M168.578,83.788    c-0.339,0-0.956,0.297-1.733,1.029c-2.289,2.157-3.171,4.433-2.622,6.763c0.207,0.881,0.617,1.757,1.208,2.613    c2.107-2.51,3.229-5.097,3.621-6.956c0.421-2,0.079-3.198-0.297-3.41C168.709,83.802,168.649,83.788,168.578,83.788z"/>
	</g>
	<circle style="fill:#EFA880;" cx="214.677" cy="131.495" r="11.268"/>
	<path style="fill:#251626;" d="M215.3,140.692c-0.315,0-0.624-0.153-0.811-0.435c-2.77-4.174-3.614-7.625-2.511-10.257   c1.265-3.02,4.583-3.695,4.723-3.721c0.533-0.111,1.037,0.242,1.14,0.769c0.103,0.526-0.24,1.035-0.766,1.139l0,0   c-0.025,0.006-2.458,0.521-3.31,2.581c-0.814,1.966-0.003,4.875,2.344,8.415c0.297,0.447,0.175,1.051-0.273,1.348   C215.671,140.64,215.484,140.692,215.3,140.692z"/>
	<path style="fill:#251626;" d="M162.447,289.091c-52.172,0-91.053-0.556-92.037-0.57c-0.538-0.009-0.966-0.45-0.958-0.987   c0.008-0.539,0.453-0.941,0.987-0.958c2.511,0.036,252.185,3.6,338.733-7.555c0.54-0.057,1.021,0.309,1.089,0.841   c0.068,0.533-0.308,1.02-0.841,1.089C356.675,287.748,243.523,289.091,162.447,289.091z"/>
	<path style="fill:#EFA880;" d="M30.713,276.451c2.341,9.426,117.835,4.574,117.835,4.574s15.308,26.377,20.025,23.03   c2.191-1.555-5.372-14.655-5.372-14.655s13.806,16.002,14.385,12.636s-8.203-18.763-8.203-18.763s13.856,16.699,16.113,13.377   c1.523-2.242-3.429-19.525-19.813-26.257c-16.384-6.733-84.14-8.195-84.14-8.195S28.372,267.025,30.713,276.451z"/>
	<g>
		<path style="fill:#FFFFFF;" d="M406.955,104.342c0,0,1.606,4.616,2.341,6.399"/>
		<path style="fill:#251626;" d="M409.296,111.713c-0.382,0-0.745-0.226-0.899-0.602c-0.737-1.788-2.294-6.26-2.359-6.45    c-0.177-0.507,0.092-1.061,0.599-1.238c0.506-0.179,1.061,0.091,1.238,0.599c0.016,0.046,1.605,4.61,2.321,6.348    c0.204,0.496-0.032,1.065-0.529,1.27C409.545,111.689,409.419,111.713,409.296,111.713z"/>
	</g>
	<g>
		<path style="fill:#FFFFFF;" d="M408.125,114.307c0,0-2.633-3.404-2.957-5.836"/>
		<path style="fill:#251626;" d="M408.125,115.28c-0.291,0-0.578-0.13-0.769-0.378c-0.114-0.147-2.797-3.642-3.152-6.301    c-0.071-0.533,0.303-1.022,0.835-1.093c0.539-0.067,1.021,0.303,1.093,0.835c0.237,1.777,2.075,4.479,2.763,5.37    c0.329,0.425,0.25,1.035-0.175,1.364C408.543,115.213,408.333,115.28,408.125,115.28z"/>
	</g>
	<path style="fill:#251426;" d="M486.382,262.146c-0.42,0-0.796-0.185-1.06-0.521c-0.745-0.955-0.348-3.369,0.116-5.226   c0.129-0.522,0.65-0.841,1.18-0.708c0.521,0.13,0.838,0.657,0.709,1.179c-0.312,1.244-0.5,2.592-0.479,3.27   c0.792-0.166,2.063-0.638,2.874-0.993c0.49-0.213,1.066,0.009,1.28,0.502c0.215,0.492-0.01,1.066-0.502,1.28   C490.037,261.132,487.654,262.146,486.382,262.146z"/>
	<path style="fill:#251426;" d="M414.415,133.567c-0.016,0-0.032-0.001-0.047-0.002c-0.467-0.031-1.248-0.084-3.584-4.717   c-0.242-0.48-0.049-1.065,0.43-1.306c0.481-0.245,1.064-0.049,1.306,0.43c0.543,1.077,1.237,2.301,1.745,3.06   c0.416-0.862,0.968-2.098,1.356-3.005c0.211-0.495,0.786-0.726,1.277-0.511c0.494,0.212,0.723,0.784,0.511,1.277   c-0.25,0.583-1.523,3.531-2.036,4.281C415.186,133.344,414.753,133.567,414.415,133.567z"/>
	<g>
		<path style="fill:#FFFFFF;" d="M319.251,359.061c0,0,3.858-11.667,14.606-9.829s11.299,12.861,7.992,13.412    c-3.307,0.551-6.063-12.994,6.063-10.217c12.125,2.777,17.086,27.075,6.889,28.843c-10.196,1.767-11.574-7.988-6.614-7.657    s4.522,16.235-9.451,17.515c-13.973,1.279-17.831-12.773-10.391-14.428c7.441-1.654,6.063,7.918-7.165,5.888    c-13.228-2.03-17.361-27.659-5.236-27.935C328.07,354.376,322.558,363.47,319.251,359.061z"/>
		<path style="fill:#251626;" d="M336.974,392.182c-7.342,0-11.753-4.193-12.973-8.351c-0.975-0.033-1.957-0.127-2.968-0.283    c-8.491-1.303-13.788-11.774-13.231-20.357c0.38-5.849,3.416-9.404,8.121-9.512l0.557-0.007c1.649,0,3.071,0.177,4.238,0.525    c2.065-2.936,5.543-6.136,10.895-6.136c0.783,0,1.593,0.071,2.41,0.211c2.947,0.503,5.46,1.732,7.316,3.568    c1.724-0.869,4.023-0.997,6.791-0.362c8.026,1.838,13.365,12.656,13.136,21.216c-0.143,5.389-2.439,8.864-6.297,9.532    c-1.239,0.217-2.418,0.279-3.514,0.189c-0.893,2.848-3.813,8.871-12.628,9.679C338.189,392.153,337.57,392.182,336.974,392.182z     M326.036,383.795c1.325,3.575,5.611,7.016,12.612,6.363c7.427-0.68,10.022-5.563,10.871-8.085    c-3.548-1.008-5.262-3.831-5.067-6.201c0.167-2.04,1.662-3.372,3.8-3.23c1.004,0.067,1.884,0.578,2.548,1.478    c1.086,1.473,1.481,3.849,1.095,6.378c0.856,0.045,1.773-0.017,2.739-0.186c4.062-0.704,4.63-5.596,4.686-7.668    c0.209-7.807-4.515-17.64-11.627-19.268c-2.057-0.469-3.777-0.464-5.048,0.013c1.96,2.801,2.334,6.074,1.618,8.074    c-0.432,1.21-1.233,1.97-2.255,2.141c-1.459,0.243-2.857-1.035-3.548-3.216c-0.749-2.368-0.58-5.404,1.29-7.373    c-1.55-1.438-3.624-2.409-6.058-2.825c-0.708-0.121-1.408-0.182-2.081-0.182c-4.339,0-7.265,2.544-9.078,4.998    c1.62,1.042,2.017,2.508,1.793,3.653c-0.287,1.472-1.589,2.584-3.03,2.584h-0.001c-1.049,0-2.052-0.567-2.824-1.598    c-0.191-0.255-0.245-0.586-0.145-0.889c0.02-0.061,0.422-1.258,1.305-2.832c-0.884-0.202-1.94-0.305-3.153-0.305l-0.513,0.007    c-5.174,0.117-6.076,5.419-6.223,7.693c-0.444,6.834,3.749,17.104,11.584,18.308c0.805,0.123,1.585,0.205,2.333,0.245    c-0.164-3.076,1.535-5.467,4.475-6.122c0.645-0.143,1.26-0.216,1.829-0.216c2.66,0,3.853,1.53,3.857,3.047    C333.826,380.926,331.109,383.418,326.036,383.795z M329.964,377.479c-0.426,0-0.9,0.057-1.408,0.17    c-2.357,0.524-3.067,2.403-2.944,4.226c4.271-0.232,6.266-2.045,6.264-3.289C331.874,377.769,330.887,377.479,329.964,377.479z     M348.109,374.583c-1.414,0-1.674,0.906-1.718,1.448c-0.103,1.25,0.81,3.341,3.584,4.152c0.293-1.981,0.022-3.876-0.739-4.908    c-0.318-0.431-0.692-0.664-1.112-0.691C348.118,374.583,348.113,374.583,348.109,374.583z M341.044,354.493    c-1.201,1.414-1.258,3.634-0.729,5.308c0.407,1.288,1.038,1.887,1.335,1.887c0.451-0.072,0.695-0.639,0.782-0.88    C342.961,359.326,342.618,356.732,341.044,354.493z M320.367,358.861c0.814,0.767,1.876,0.331,2.052-0.575    c0.119-0.614-0.221-1.195-0.95-1.656C320.929,357.561,320.568,358.369,320.367,358.861z"/>
	</g>
	<g>
		<path style="fill:#FFFFFF;" d="M352.485,311.348c0,0,3.858-11.667,14.606-9.829c10.748,1.838,11.299,12.861,7.992,13.412    c-3.307,0.551-6.063-12.994,6.063-10.217c12.125,2.776,17.086,27.075,6.889,28.843c-10.196,1.767-11.574-7.988-6.614-7.657    c4.96,0.33,4.522,16.235-9.451,17.515c-13.973,1.279-17.831-12.773-10.391-14.428c7.441-1.654,6.063,7.918-7.165,5.888    c-13.228-2.03-17.361-27.659-5.236-27.935C361.304,306.663,355.792,315.757,352.485,311.348z"/>
		<path style="fill:#251626;" d="M370.207,344.468c-7.342,0-11.753-4.193-12.972-8.351c-0.975-0.033-1.958-0.127-2.968-0.283    c-8.491-1.303-13.789-11.774-13.232-20.357c0.38-5.849,3.416-9.404,8.121-9.512l0.557-0.007c1.65,0,3.071,0.177,4.239,0.525    c2.065-2.936,5.543-6.136,10.894-6.136c0.783,0,1.594,0.071,2.41,0.211c2.947,0.503,5.46,1.732,7.316,3.568    c1.723-0.869,4.022-0.997,6.792-0.362c8.026,1.838,13.364,12.655,13.136,21.215c-0.144,5.39-2.44,8.865-6.298,9.533    c-1.239,0.216-2.416,0.278-3.514,0.189c-0.893,2.848-3.813,8.871-12.628,9.679C371.422,344.44,370.804,344.468,370.207,344.468z     M359.27,336.081c1.325,3.575,5.608,7.017,12.612,6.363c7.427-0.68,10.022-5.563,10.871-8.085    c-3.548-1.008-5.262-3.831-5.067-6.201c0.166-2.039,1.668-3.38,3.8-3.23c1.004,0.067,1.884,0.578,2.548,1.478    c1.086,1.473,1.481,3.849,1.095,6.378c0.855,0.042,1.773-0.018,2.739-0.186c4.063-0.705,4.63-5.597,4.686-7.668    c0.209-7.807-4.515-17.64-11.626-19.268c-2.059-0.47-3.78-0.466-5.049,0.014c1.96,2.8,2.334,6.073,1.619,8.074    c-0.432,1.21-1.233,1.97-2.255,2.141c-1.465,0.24-2.858-1.036-3.548-3.215c-0.749-2.368-0.58-5.405,1.29-7.374    c-1.551-1.438-3.625-2.409-6.059-2.825c-0.708-0.121-1.408-0.182-2.081-0.182c-4.339,0-7.264,2.545-9.078,4.998    c1.62,1.043,2.016,2.508,1.793,3.653c-0.287,1.473-1.589,2.584-3.03,2.584h-0.001c-1.048,0-2.051-0.567-2.823-1.598    c-0.191-0.255-0.245-0.587-0.145-0.889c0.02-0.061,0.422-1.259,1.305-2.832c-0.884-0.202-1.941-0.305-3.154-0.305l-0.513,0.007    c-5.174,0.117-6.076,5.419-6.223,7.693c-0.444,6.834,3.749,17.104,11.585,18.308c0.804,0.123,1.584,0.205,2.333,0.245    c-0.165-3.077,1.534-5.467,4.474-6.122c0.645-0.143,1.26-0.216,1.829-0.216c2.66,0,3.853,1.53,3.857,3.047    C367.06,333.212,364.343,335.704,359.27,336.081z M363.198,329.765c-0.426,0-0.9,0.057-1.408,0.17    c-2.357,0.524-3.067,2.403-2.944,4.226c4.271-0.232,6.266-2.045,6.264-3.289C365.108,330.056,364.121,329.765,363.198,329.765z     M381.342,326.869c-1.414,0-1.674,0.906-1.718,1.448c-0.103,1.25,0.81,3.341,3.584,4.152c0.293-1.981,0.022-3.876-0.739-4.908    c-0.318-0.431-0.692-0.664-1.112-0.691C381.352,326.869,381.347,326.869,381.342,326.869z M374.277,306.779    c-1.2,1.415-1.257,3.635-0.728,5.309c0.407,1.287,1.038,1.886,1.335,1.886c0.45-0.072,0.695-0.639,0.781-0.88    C376.195,311.614,375.851,309.019,374.277,306.779z M353.601,311.147c0.81,0.765,1.873,0.331,2.051-0.574    c0.119-0.614-0.221-1.195-0.949-1.656C354.164,309.847,353.803,310.655,353.601,311.147z"/>
	</g>
	<g>
		<path style="fill:#FFFFFF;" d="M52.115,356.03c0,0,3.858-11.667,14.606-9.829s11.299,12.861,7.992,13.412    c-3.307,0.551-6.063-12.994,6.063-10.217c12.125,2.776,17.086,27.075,6.889,28.843s-11.574-7.988-6.614-7.657    c4.96,0.33,4.522,16.235-9.451,17.515s-17.831-12.773-10.391-14.428c7.441-1.654,6.063,7.918-7.165,5.888    s-17.361-27.659-5.236-27.935S55.422,360.44,52.115,356.03z"/>
		<path style="fill:#251626;" d="M69.837,389.151c-7.342,0-11.752-4.193-12.972-8.351c-0.975-0.033-1.957-0.127-2.968-0.283    c-8.491-1.303-13.789-11.775-13.231-20.357c0.379-5.849,3.415-9.404,8.12-9.512l0.555-0.006c1.65,0,3.073,0.176,4.241,0.524    c2.065-2.936,5.543-6.136,10.894-6.136c0.783,0,1.594,0.071,2.41,0.211c2.947,0.503,5.46,1.732,7.317,3.568    c1.722-0.869,4.021-0.995,6.791-0.362c8.026,1.838,13.364,12.655,13.136,21.215c-0.144,5.39-2.44,8.865-6.298,9.533    c-1.239,0.216-2.417,0.277-3.514,0.189c-0.892,2.848-3.813,8.871-12.628,9.679C71.051,389.123,70.433,389.151,69.837,389.151z     M58.9,380.764c1.325,3.576,5.61,7.014,12.611,6.363c7.427-0.68,10.022-5.563,10.871-8.085c-3.547-1.008-5.261-3.832-5.067-6.201    c0.167-2.04,1.681-3.368,3.8-3.23c1.004,0.067,1.885,0.578,2.549,1.478c1.086,1.473,1.48,3.849,1.094,6.378    c0.855,0.045,1.773-0.017,2.739-0.186c4.063-0.705,4.63-5.597,4.685-7.668c0.209-7.807-4.515-17.64-11.626-19.268    c-2.06-0.471-3.779-0.465-5.049,0.013c1.961,2.801,2.334,6.074,1.619,8.074c-0.432,1.21-1.233,1.97-2.255,2.141    c-1.462,0.241-2.857-1.036-3.548-3.215c-0.749-2.368-0.58-5.405,1.29-7.374c-1.551-1.438-3.625-2.408-6.059-2.825    c-0.708-0.121-1.408-0.182-2.081-0.182c-4.339,0-7.264,2.544-9.077,4.998c1.621,1.043,2.016,2.508,1.794,3.653    c-0.287,1.473-1.59,2.584-3.03,2.584c-1.049,0.001-2.052-0.567-2.825-1.598c-0.191-0.255-0.245-0.586-0.145-0.889    c0.02-0.061,0.422-1.258,1.305-2.832c-0.885-0.202-1.941-0.304-3.156-0.304l-0.511,0.006c-5.174,0.117-6.075,5.419-6.222,7.692    c-0.444,6.835,3.749,17.105,11.584,18.309c0.805,0.123,1.585,0.205,2.333,0.245c-0.164-3.077,1.535-5.467,4.475-6.122    c0.645-0.143,1.26-0.216,1.829-0.216c2.66,0,3.853,1.53,3.856,3.047C66.689,377.895,63.973,380.387,58.9,380.764z M62.828,374.448    c-0.426,0-0.9,0.057-1.408,0.17c-2.357,0.524-3.067,2.403-2.944,4.226c4.271-0.232,6.266-2.045,6.263-3.289    C64.737,374.738,63.75,374.448,62.828,374.448z M80.971,371.552c-1.414,0-1.674,0.906-1.717,1.448    c-0.103,1.25,0.81,3.341,3.583,4.152c0.293-1.981,0.023-3.875-0.739-4.908c-0.317-0.431-0.691-0.664-1.112-0.691    C80.981,371.552,80.976,371.552,80.971,371.552z M73.907,351.462c-1.2,1.415-1.257,3.635-0.728,5.309    c0.407,1.287,1.038,1.886,1.335,1.886c0.451-0.072,0.695-0.639,0.782-0.88C75.825,356.296,75.481,353.702,73.907,351.462z     M53.231,355.83c0.812,0.767,1.874,0.33,2.052-0.574c0.119-0.614-0.222-1.195-0.95-1.656    C53.793,354.53,53.432,355.338,53.231,355.83z"/>
	</g>
	<path style="fill:#251626;" d="M73.716,140.892c-0.429,0-0.823-0.287-0.938-0.722c-0.139-0.519,0.169-1.051,0.689-1.19   c2.897-0.774,4.597-2.551,5.054-5.282c0.509-3.042-0.572-6.794-2.174-9.864c-2.674,0.669-4.55,0.066-5.43-0.355   c-1.638-0.783-2.706-2.213-2.787-3.733c-0.067-1.293,0.583-2.458,1.786-3.197c0.652-0.401,1.769-0.653,3.378,0.431   c1.272,0.857,2.69,2.491,3.936,4.527c0.958-0.389,2.03-0.975,3.208-1.827c3.483-2.524,4.572-6.164,4.438-9.382   c-4.579,0.43-8.307-1.723-10.3-3.999c-1.69-1.929-2.301-4.092-1.597-5.645c0.348-0.766,1.338-2.051,4.062-2.051   c0.001,0,0.001,0,0.001,0c3.992,0.001,7.564,3.067,9.1,7.809c0.164,0.508,0.305,1.047,0.415,1.608   c0.117-0.031,0.235-0.066,0.352-0.101c5.518-1.668,7.122-8.22,6.818-13.323c-0.013-0.23-0.03-0.459-0.052-0.684   c-2.033,0.32-3.538-0.413-4.298-0.925c-2.398-1.613-3.774-5.087-2.887-7.289c0.544-1.349,1.83-1.988,3.445-1.7   c2.78,0.49,4.536,3.688,5.311,7.33c0.809-0.434,1.643-1.062,2.486-1.879c2.136-2.071,3.086-4.265,2.824-6.521   c-0.62-5.346-7.603-9.578-7.674-9.62c-0.462-0.275-0.612-0.873-0.336-1.334c0.276-0.462,0.875-0.61,1.334-0.336   c0.322,0.192,7.879,4.778,8.609,11.065c0.335,2.888-0.809,5.628-3.402,8.141c-1.259,1.221-2.438,2.01-3.516,2.491   c0.043,0.382,0.076,0.764,0.099,1.145c0.345,5.81-1.595,13.304-8.198,15.3c-0.223,0.067-0.445,0.129-0.667,0.184   c0.23,3.833-1.019,8.242-5.226,11.289c-1.219,0.882-2.353,1.515-3.397,1.959c1.709,3.357,2.829,7.395,2.258,10.806   c-0.586,3.5-2.823,5.865-6.471,6.84C73.884,140.881,73.799,140.892,73.716,140.892z M71.145,118.155   c-0.085,0-0.156,0.016-0.212,0.05c-0.594,0.366-0.891,0.862-0.861,1.438c0.042,0.796,0.702,1.612,1.682,2.08   c0.598,0.286,1.807,0.67,3.568,0.349c-1.005-1.556-2.11-2.8-3.116-3.479C71.784,118.309,71.403,118.155,71.145,118.155z    M77.039,100.548c-0.702,0-1.932,0.119-2.291,0.91c-0.373,0.823,0.144,2.253,1.288,3.559c1.661,1.896,4.763,3.692,8.605,3.347   c-0.094-0.472-0.213-0.925-0.351-1.353c-1.272-3.926-4.118-6.463-7.249-6.464C77.041,100.548,77.04,100.548,77.039,100.548z    M89.185,85.874c-0.669,0-0.821,0.376-0.891,0.552c-0.446,1.106,0.268,3.67,2.167,4.947c0.883,0.595,1.872,0.795,2.936,0.617   c-0.659-3.324-2.131-5.782-3.8-6.077C89.441,85.886,89.304,85.874,89.185,85.874z"/>
	<path style="fill:#251626;" d="M198.439,90.598c-3.72,0-5.542-1.791-6.416-3.297c-0.762-1.315-1.097-2.881-1.138-4.498   c-2.735,0.441-5.485-0.981-7.822-4.047c-1.421-1.865-2.632-4.345-3.318-6.743c-3.036,1.326-7.058,2.123-11.466,1.421   c-3.074-0.489-5.06-1.52-6.343-2.637c-2.072,1.036-4.565,1.234-7.165,0.517c-9.472-2.606-10.334-13.641-10.342-13.753   c-0.036-0.536,0.368-0.998,0.903-1.036c0.529-0.021,0.999,0.366,1.038,0.902c0.028,0.398,0.787,9.774,8.917,12.012   c2.261,0.619,4.012,0.368,5.306-0.163c-0.354-0.537-0.583-1.045-0.73-1.471c-0.694-2.014-0.31-4.213,0.981-5.604   c0.914-0.982,2.131-1.365,3.339-1.047c1.069,0.282,1.817,1.037,2.11,2.127c0.481,1.793-0.379,4.174-2.139,5.923   c-0.165,0.164-0.335,0.32-0.511,0.469c1.048,0.77,2.611,1.469,4.943,1.841c4.163,0.663,7.974-0.162,10.723-1.43   c-0.301-1.841-0.21-3.507,0.435-4.639c0.608-1.069,1.648-1.579,2.926-1.426c1.753,0.204,2.426,0.979,2.68,1.594   c0.255,0.614,0.336,1.628-0.725,2.975c-0.663,0.841-1.732,1.735-3.116,2.537c0.548,2.109,1.609,4.494,3.102,6.452   c1.153,1.515,3.51,3.944,6.348,3.228c0.005-0.002,0.01-0.003,0.016-0.005c0.277-2.522,1.13-4.969,2.063-6.587   c1.022-1.773,2.163-2.711,3.302-2.711c1.648,0,2.853,1.125,3.072,2.865c0.348,2.775-1.818,6.223-6.591,7.905   c-0.017,1.522,0.247,2.952,0.886,4.054c0.896,1.544,2.489,2.328,4.733,2.328c0.009,0,0.013-0.004,0.032,0   c0.536,0,0.971,0.433,0.973,0.97C199.445,90.171,198.981,90.595,198.439,90.598z M196.338,73.446c-0.16,0-0.8,0.319-1.616,1.736   c-0.789,1.37-1.405,3.133-1.704,4.926c3.521-1.527,4.642-4.054,4.461-5.501C197.414,74.078,197.162,73.446,196.338,73.446z    M182.239,65.938c-0.469,0-0.667,0.222-0.807,0.469c-0.327,0.574-0.422,1.524-0.303,2.679c0.861-0.56,1.531-1.149,1.968-1.703   c0.473-0.601,0.49-0.943,0.456-1.024c-0.034-0.082-0.299-0.314-1.108-0.408C182.37,65.942,182.302,65.938,182.239,65.938z    M163.351,62.99c-0.475,0-0.842,0.275-1.082,0.534c-0.663,0.714-1.095,2.118-0.568,3.646c0.111,0.322,0.288,0.706,0.568,1.112   c0.196-0.158,0.366-0.313,0.512-0.459c1.408-1.398,1.886-3.09,1.632-4.039c-0.11-0.41-0.341-0.649-0.727-0.75   C163.569,63.004,163.457,62.99,163.351,62.99z"/>
	<path style="fill:#251626;" d="M171.628,288.337c-0.35,0-0.689-0.189-0.862-0.521c-0.951-1.814-4.912-7.2-4.951-7.254   c-0.318-0.432-0.226-1.041,0.207-1.36c0.433-0.316,1.043-0.226,1.36,0.207c0.166,0.226,4.088,5.559,5.107,7.505   c0.25,0.476,0.066,1.064-0.41,1.313C171.935,288.302,171.78,288.337,171.628,288.337z"/>
	<path style="fill:#251626;" d="M163.203,290.372c-0.341,0-0.672-0.18-0.85-0.498c-0.613-1.096-3.333-4.71-4.33-6.01   c-0.327-0.426-0.246-1.037,0.18-1.364c0.429-0.325,1.037-0.245,1.364,0.18c0.149,0.196,3.679,4.802,4.484,6.244   c0.262,0.469,0.094,1.062-0.374,1.324C163.526,290.332,163.363,290.372,163.203,290.372z"/>
	<path style="fill:#251626;" d="M59.629,266.002c-0.483,0-0.9-0.358-0.964-0.849c-0.068-0.533,0.309-1.02,0.842-1.089   c1.44-0.184,35.356-4.49,43.5-1.936c0.512,0.161,0.797,0.707,0.636,1.22c-0.161,0.511-0.708,0.796-1.22,0.636   c-7.736-2.431-42.321,1.964-42.67,2.01C59.711,265.999,59.67,266.002,59.629,266.002z"/>
	<g>
		<path style="fill:#FFFFFF;" d="M180.139,405.985c0,0,9.981,3.502,15.502,1.562"/>
		<path style="fill:#251626;" d="M191.556,409.103c-5.387,0-11.413-2.087-11.739-2.201c-0.507-0.178-0.773-0.732-0.596-1.24    c0.178-0.508,0.734-0.778,1.24-0.596c0.096,0.034,9.721,3.364,14.858,1.562c0.503-0.178,1.062,0.087,1.24,0.596    c0.179,0.506-0.088,1.062-0.596,1.24C194.655,408.925,193.133,409.103,191.556,409.103z"/>
	</g>
	<g>
		<path style="fill:#FFFFFF;" d="M155.451,411.673c0,0,9.981,3.502,15.502,1.562"/>
		<path style="fill:#251626;" d="M166.867,414.791c-5.387,0-11.413-2.086-11.739-2.2c-0.507-0.178-0.773-0.732-0.596-1.24    c0.178-0.507,0.734-0.776,1.24-0.596c0.096,0.033,9.724,3.363,14.859,1.561c0.506-0.18,1.061,0.088,1.24,0.596    c0.179,0.506-0.088,1.062-0.596,1.24C169.967,414.612,168.444,414.791,166.867,414.791z"/>
	</g>
	<g>
		<path style="fill:#FFFFFF;" d="M156.183,397.016c0,0,9.981,3.502,15.502,1.562"/>
		<path style="fill:#251626;" d="M167.6,400.135c-5.387,0-11.414-2.087-11.74-2.201c-0.507-0.178-0.773-0.732-0.596-1.24    c0.178-0.505,0.73-0.778,1.24-0.596c0.096,0.033,9.723,3.361,14.858,1.562c0.505-0.18,1.062,0.088,1.24,0.596    c0.179,0.506-0.088,1.062-0.596,1.24C170.699,399.956,169.176,400.135,167.6,400.135z"/>
	</g>
	<g>
		<path style="fill:#FFFFFF;" d="M138.875,402.811c0,0,9.981,3.502,15.502,1.562"/>
		<path style="fill:#251626;" d="M150.292,405.929c-5.387,0-11.413-2.087-11.739-2.201c-0.507-0.178-0.773-0.732-0.596-1.24    c0.178-0.507,0.734-0.78,1.24-0.596c0.097,0.033,9.722,3.363,14.858,1.562c0.508-0.18,1.062,0.088,1.24,0.596    c0.179,0.506-0.088,1.062-0.596,1.24C153.391,405.75,151.869,405.929,150.292,405.929z"/>
	</g>
	<g>
		<path style="fill:#FFFFFF;" d="M192.849,415.51c0,0,9.981,3.502,15.502,1.562"/>
		<path style="fill:#251626;" d="M204.266,418.628c-5.387,0-11.413-2.087-11.739-2.201c-0.507-0.178-0.773-0.732-0.596-1.24    c0.178-0.507,0.734-0.778,1.24-0.596c0.097,0.033,9.722,3.367,14.858,1.562c0.503-0.179,1.062,0.087,1.24,0.596    c0.179,0.506-0.088,1.062-0.596,1.24C207.365,418.449,205.842,418.628,204.266,418.628z"/>
	</g>
	<g>
		<path style="fill:#FFFFFF;" d="M200.6,398.09c0,0,9.981,3.502,15.502,1.562"/>
		<path style="fill:#251626;" d="M212.017,401.208c-5.387,0-11.414-2.087-11.74-2.201c-0.507-0.178-0.773-0.732-0.596-1.24    c0.178-0.507,0.733-0.776,1.24-0.596c0.097,0.034,9.722,3.365,14.859,1.562c0.506-0.181,1.062,0.088,1.24,0.596    c0.179,0.506-0.088,1.062-0.596,1.24C215.117,401.03,213.594,401.208,212.017,401.208z"/>
	</g>
	<g>
		<path style="fill:#FFFFFF;" d="M209.885,410.599c0,0,9.981,3.502,15.502,1.562"/>
		<path style="fill:#251626;" d="M221.302,413.717c-5.387,0-11.413-2.087-11.739-2.201c-0.507-0.178-0.773-0.732-0.596-1.24    c0.178-0.507,0.733-0.779,1.24-0.596c0.097,0.033,9.723,3.366,14.858,1.562c0.507-0.179,1.063,0.087,1.24,0.596    c0.179,0.506-0.088,1.062-0.596,1.24C224.401,413.539,222.879,413.717,221.302,413.717z"/>
	</g>
	<g>
		<path style="fill:#FFFFFF;" d="M232.108,407.059c0,0,9.981,3.502,15.502,1.562"/>
		<path style="fill:#251626;" d="M243.525,410.176c-5.387,0-11.413-2.086-11.739-2.2c-0.507-0.178-0.773-0.732-0.596-1.24    c0.178-0.507,0.73-0.78,1.24-0.596c0.096,0.033,9.725,3.365,14.859,1.561c0.508-0.179,1.061,0.087,1.24,0.596    c0.179,0.506-0.088,1.062-0.596,1.24C246.625,409.998,245.102,410.176,243.525,410.176z"/>
	</g>
	<g>
		<path style="fill:#FFFFFF;" d="M232.755,416.583c0,0,9.981,3.502,15.502,1.562"/>
		<path style="fill:#251626;" d="M244.173,419.701c-5.387,0-11.413-2.087-11.739-2.201c-0.507-0.178-0.773-0.732-0.596-1.24    c0.179-0.507,0.731-0.78,1.24-0.596c0.096,0.034,9.721,3.365,14.858,1.562c0.505-0.18,1.062,0.088,1.24,0.596    c0.179,0.506-0.088,1.062-0.596,1.24C247.272,419.523,245.749,419.701,244.173,419.701z"/>
	</g>
	<g>
		<path style="fill:#FFFFFF;" d="M255.258,411.178c0,0,10.213,2.751,15.575,0.407"/>
		<path style="fill:#251626;" d="M265.103,413.503c-4.872,0-9.801-1.306-10.098-1.386c-0.519-0.14-0.826-0.673-0.687-1.192    c0.141-0.519,0.675-0.824,1.192-0.687c0.1,0.027,9.949,2.634,14.933,0.456c0.494-0.218,1.067,0.01,1.28,0.501    c0.216,0.492-0.009,1.066-0.502,1.28C269.481,413.238,267.298,413.503,265.103,413.503z"/>
	</g>
	<path style="fill:#251626;" d="M298.341,259.877c-0.386,0-0.751-0.231-0.903-0.612c-0.621-1.555-4.022-4.127-6.02-5.383   c-0.455-0.286-0.592-0.886-0.306-1.341c0.288-0.453,0.889-0.589,1.341-0.306c0.583,0.367,5.731,3.659,6.791,6.308   c0.199,0.499-0.044,1.065-0.542,1.264C298.585,259.855,298.462,259.877,298.341,259.877z"/>
	<path style="fill:#251626;" d="M291.935,266.199c-0.483,0-0.901-0.359-0.964-0.851c-0.229-0.843-3.905-3.408-8.022-5.584   c-0.475-0.251-0.657-0.839-0.406-1.314c0.25-0.475,0.84-0.659,1.314-0.406c2.626,1.387,8.765,4.851,9.044,7.06   c0.067,0.533-0.31,1.019-0.843,1.087C292.017,266.196,291.976,266.199,291.935,266.199z"/>
	<path style="fill:#251426;" d="M496.82,245.892c-0.074,0-0.15-0.009-0.224-0.027c-0.522-0.123-0.845-0.648-0.722-1.17   c0.171-0.725,1.102-4.4,2.536-5.577c0.412-0.341,1.026-0.282,1.37,0.134c0.34,0.415,0.279,1.028-0.135,1.369   c-0.688,0.565-1.512,2.985-1.879,4.524C497.66,245.591,497.261,245.892,496.82,245.892z"/>
	<path style="fill:#251426;" d="M493.676,245.892c-0.103,0-0.207-0.016-0.312-0.051c-0.509-0.172-0.783-0.724-0.61-1.233   c0.124-0.366,1.25-3.618,2.686-4.995c0.388-0.37,1.005-0.361,1.373,0.028c0.372,0.388,0.359,1.003-0.029,1.375   c-0.929,0.892-1.894,3.344-2.188,4.214C494.461,245.637,494.083,245.892,493.676,245.892z"/>
	<path style="fill:#251626;" d="M166.809,219.856c-8.259,0-16.599-1.372-17.085-1.452c-0.53-0.088-0.887-0.59-0.799-1.12   c0.089-0.529,0.585-0.892,1.12-0.799c0.161,0.029,16.341,2.685,25.67,0.652c0.522-0.126,1.042,0.218,1.157,0.743   s-0.217,1.043-0.743,1.157C173.37,219.639,170.096,219.856,166.809,219.856z"/>
</g>















</svg>
