<?xml version="1.0" encoding="UTF-8"?>
<!-- Generator: Adobe Illustrator 25.1.0, SVG Export Plug-In . SVG Version: 6.00 Build 0)  -->
<svg xmlns="http://www.w3.org/2000/svg" xmlns:xlink="http://www.w3.org/1999/xlink" version="1.1" id="Capa_1" x="0px" y="0px" viewBox="0 0 500 500" style="enable-background:new 0 0 500 500;" xml:space="preserve" width="512" height="512">
<g>
	<g>
		<path style="fill:#F7C67C;" d="M52.307,110.493c0,0,8.399-25.461,25.972-17.535s9.87,27.785,2.19,25.863    c-7.68-1.922,1.929-23.419,12.499-13.631s12.573,30.621-0.166,32.831c-12.739,2.21-15.94-15.997-6.446-12.153    c9.495,3.844,4.791,30.254-9.383,26.082c-14.175-4.172-19.622-19.676-9.661-17.754c9.961,1.922,4.81,21.417-10.14,17.754    s-23.963-23.52-10.58-26.082c13.384-2.563,5.108,23.027-8.692,13.756c-13.8-9.271-4.664-41.381,7.181-39.901    c11.845,1.48,20.66,10.318,13.613,14.388C51.649,118.181,52.307,110.493,52.307,110.493z"/>
		<path style="fill:#251626;" d="M60.788,153.298c-1.232,0-2.52-0.162-3.828-0.483c-5.703-1.397-11.114-5.264-14.554-10.38    c-1.654-0.255-3.334-0.952-5.001-2.071c-8.083-5.431-8.683-17.762-5.693-27.576c2.747-9.012,8.07-14.627,13.48-13.946    c3.592,0.448,7.147,1.597,10.113,3.258c3.29-5.448,8.692-11.56,16.369-11.56c2.259,0,4.603,0.54,6.97,1.607    c4.908,2.214,8.376,5.575,10.06,9.739c1.672,0.316,3.307,1.206,4.869,2.65c7.023,6.505,10.633,17.986,8.221,26.142    c-1.345,4.546-4.484,7.466-8.84,8.22c-0.319,0.056-0.632,0.099-0.94,0.132c-0.926,7.203-5.278,14.255-12.097,14.255    c-1.034,0-2.109-0.162-3.195-0.481c-2.483-0.73-4.815-1.825-6.943-3.255c-2.33,2.424-5.491,3.748-8.989,3.748    C60.79,153.298,60.789,153.298,60.788,153.298z M44.647,142.513c3.203,4.223,7.858,7.379,12.737,8.574    c1.169,0.287,2.314,0.431,3.404,0.431c0.001,0,0.002,0,0.002,0c2.919,0,5.559-1.069,7.533-3.026    c-4.913-3.86-7.851-9.294-6.757-12.686c0.321-0.996,1.289-2.662,4.169-2.662c0.538,0,1.125,0.059,1.746,0.179    c2.588,0.5,4.488,2.122,5.352,4.569c1.11,3.14,0.339,7.162-1.909,10.283c1.936,1.279,4.051,2.261,6.3,2.923    c0.923,0.271,1.828,0.408,2.692,0.408c5.701,0,9.399-6.095,10.295-12.417c-3.768-0.155-6.985-2.094-8.881-5.377    c-1.519-2.631-1.801-5.542-0.719-7.415c1.075-1.861,3.332-2.369,6.08-1.255c3.687,1.493,5.784,6.211,5.485,12.175    c0.156-0.021,0.315-0.045,0.474-0.071c4.683-0.813,6.63-4.24,7.438-6.972c2.199-7.436-1.265-18.351-7.724-24.331    c-0.988-0.916-1.992-1.561-3-1.932c1.066,4.27,0.311,8.979-2.065,12.377c-1.58,2.257-3.686,3.554-5.778,3.554c0,0,0,0-0.001,0    c-0.424,0-0.851-0.052-1.267-0.156c-2.531-0.634-3.79-3.062-3.367-6.496c0.64-5.196,4.78-10.962,9.83-11.404    c-1.616-3.38-4.634-6.135-8.803-8.015c-2.134-0.963-4.233-1.451-6.238-1.451c-6.859,0-11.805,5.658-14.852,10.71    c3.35,2.249,5.306,4.989,5.273,7.441c-0.016,1.243-0.542,3.017-2.956,4.411c-2.9,1.677-5.114,1.71-6.467,0.24    c-1.472-1.604-1.28-4.391-1.253-4.704c0.006-0.068,0.02-0.137,0.042-0.202c0.043-0.13,1.005-3.019,2.956-6.572    c-2.764-1.547-6.084-2.615-9.446-3.036c-4.442-0.528-9.108,4.663-11.557,12.7c-2.708,8.887-2.304,20.684,4.983,25.579    c0.914,0.615,1.825,1.081,2.723,1.395c-2.01-3.849-2.498-7.681-1.283-10.529c0.742-1.736,2.486-3.973,6.588-4.758    c4.763-0.909,7.845,1.538,7.845,6.004C54.27,135.617,50.631,141.983,44.647,142.513z M65.736,134.924    c-1.355,0-2.165,0.466-2.476,1.428c-0.764,2.369,1.554,7.151,6.219,10.785c1.892-2.636,2.584-6.086,1.677-8.653    c-0.456-1.293-1.523-2.933-4.012-3.413C66.635,134.972,66.161,134.924,65.736,134.924z M43.439,140.757    c5.518,0.283,9.051-5.676,9.051-9.76c0-1.651-0.535-4.421-4.115-4.421c-0.498,0-1.042,0.056-1.614,0.165    c-2.676,0.513-4.455,1.76-5.286,3.709C40.338,133.115,41.074,136.943,43.439,140.757z M83.97,126.222    c-0.849,0-1.444,0.316-1.819,0.964c-0.746,1.293-0.45,3.609,0.719,5.636c0.764,1.322,3.005,4.358,7.519,4.492    c0.315-5.281-1.361-9.405-4.366-10.622C85.253,126.38,84.562,126.222,83.97,126.222z M87.335,103.537    c-4.625,0-8.175,5.749-8.682,9.869c-0.145,1.18-0.238,3.983,2.033,4.551c1.759,0.448,3.683-0.584,5.154-2.69    c1.713-2.449,3.102-6.937,1.57-11.729C87.385,103.537,87.36,103.537,87.335,103.537z M53.186,110.671    c-0.039,0.714,0.036,2.419,0.8,3.25c0.773,0.836,2.22,0.601,4.265-0.579c1.356-0.784,2.052-1.757,2.067-2.893    c0.023-1.8-1.635-4-4.383-5.87C54.29,107.593,53.371,110.139,53.186,110.671z"/>
	</g>
	<path style="fill:#F7C67C;" d="M81.369,129.973c0,0,35.849-18.506,60.273,0.585s29.109,78.645,48.034,81.587   s-40.096,48.978-81.076,61.811c-40.981,12.833-93.089-9.683-97.595-15.549s7.655-22.385,4.05-37.651S-5.444,134.768,81.369,129.973   z"/>
	<path style="fill:#251626;" d="M50.997,268.781c-0.851,0-1.753-0.049-2.712-0.158c-3.521-0.405-5.968-2.256-6.917-5.107   c-1.981,0.933-4.35,1.441-7.046,1.142c-2.169-0.24-4.118-1.128-5.697-2.551c-2.293,1.1-4.827,1.291-7.321,0.502   c-6.874-2.181-9.229-8.09-9.156-12.486c0.062-3.712,1.746-6.574,4.291-7.29c0.473-0.129,0.964,0.144,1.097,0.615   c0.133,0.474-0.142,0.964-0.616,1.098c-1.742,0.49-2.945,2.742-2.993,5.606c-0.063,3.785,1.972,8.875,7.915,10.761   c2.148,0.683,4.002,0.434,5.503-0.177c-0.62-0.791-1.154-1.686-1.587-2.676c-1.497-3.427-1.383-7.245,0.284-9.497   c1.14-1.54,2.924-2.254,5.03-2.009c2.032,0.236,3.495,1.329,4.121,3.079c1.011,2.822-0.336,7.029-3.204,10.003   c-0.551,0.572-1.134,1.076-1.74,1.508c1.225,0.965,2.676,1.569,4.266,1.745c2.425,0.266,4.628-0.25,6.466-1.194   c-0.028-0.269-0.045-0.544-0.05-0.824c-0.077-3.752,1.953-7.132,4.528-7.535c1.3-0.203,1.921,0.41,2.178,0.794   c0.666,0.992,0.414,2.608-0.692,4.431c-0.862,1.422-2.21,2.902-3.974,4.056c0.491,1.74,1.853,3.818,5.515,4.237   c8.786,1.011,12.272-3.427,12.415-3.616c0.298-0.391,0.855-0.466,1.245-0.174c0.391,0.295,0.472,0.848,0.179,1.241   C62.176,264.506,58.886,268.781,50.997,268.781z M45.951,255.075c-0.059,0-0.13,0.005-0.216,0.019c-1.594,0.25-3,2.843-3.025,5.511   c1.147-0.869,2.071-1.905,2.715-2.966c0.861-1.42,0.865-2.323,0.735-2.518C46.148,255.101,46.082,255.075,45.951,255.075z    M30.258,248.284c-1.192,0-2.126,0.448-2.784,1.336c-1.281,1.731-1.315,4.908-0.083,7.728c0.416,0.952,0.941,1.8,1.558,2.532   c0.727-0.487,1.319-1.02,1.762-1.481c2.383-2.471,3.591-5.983,2.809-8.168c-0.397-1.109-1.289-1.752-2.651-1.91   C30.658,248.297,30.454,248.284,30.258,248.284z"/>
	<path style="fill:#EFA880;" d="M86.819,282.036c0,0-44.233,57.31-49.487,54.498c-1.605-0.859,82.287-21.516,82.287-21.516   l-1.166,31.825c0,0-113.922,6.774-116.77,6.855c-14.651,0.412,71.2-71.231,69.569-74.243   C69.621,276.442,86.819,282.036,86.819,282.036z"/>
	<path style="fill:#E9546A;" d="M129.68,290.147l-42.861,27.669l12.494,35.881l56.171-4.294   C155.484,349.403,169.891,258.401,129.68,290.147z"/>
	<path style="fill:#E9546A;" d="M280.79,292.052c0,0-74.192-4.194-36.033,5.958c31.851,8.474-65.462-59.465-76.816-49.588   c-24.319,21.154-48.913,72.193-41.029,90.889c7.883,18.696,153.879,18.634,153.879,18.634V292.052z"/>
	<path style="fill:#EFA880;" d="M37.562,177.246c0,0,35.989-46.622,82.034-28.034c34.45,13.907,35.363,130.136-19.828,130.242   C60.647,279.529,23.18,203.387,37.562,177.246z"/>
	<path style="fill:#251626;" d="M108.317,236.119c-0.128,0-0.261-0.017-0.394-0.054c-3.746-0.977-15.777-5.462-16.287-5.651   c-0.461-0.172-0.694-0.685-0.522-1.145c0.17-0.461,0.685-0.693,1.144-0.523c0.12,0.045,11.657,4.346,15.725,5.493   c0.206-2.732-4.452-15.84-9.349-27.612c-0.189-0.454,0.026-0.975,0.48-1.164c0.451-0.181,0.975,0.028,1.163,0.48   c4.215,10.133,10.993,27.468,9.026,29.729C109.047,235.964,108.701,236.119,108.317,236.119z"/>
	<path style="fill:#251626;" d="M76.825,220.36c-3.894,0.002-7.428-10.811-8.434-14.181c-0.141-0.469,0.127-0.966,0.598-1.107   c0.471-0.136,0.967,0.127,1.107,0.6c1.881,6.296,4.993,12.91,6.693,12.91c0.023,0,0.046,0,0.07-0.003   c1.584-0.176,2.07-7.353,1.515-13.684c-0.043-0.49,0.319-0.921,0.809-0.964c0.494-0.021,0.921,0.32,0.964,0.808   c0.311,3.547,1.008,15.154-3.092,15.609C76.977,220.357,76.9,220.36,76.825,220.36z"/>
	<path style="fill:#251626;" d="M113.92,210.383c-3.864,0-9.352-10.486-10.967-13.753c-0.218-0.441-0.037-0.975,0.403-1.192   c0.442-0.219,0.973-0.035,1.192,0.403c3.111,6.293,7.52,12.964,9.402,12.761c1.583-0.176,2.069-7.353,1.515-13.684   c-0.043-0.49,0.319-0.921,0.809-0.964c0.487-0.026,0.92,0.32,0.964,0.808c0.311,3.547,1.009,15.154-3.092,15.609   C114.071,210.38,113.996,210.383,113.92,210.383z"/>
	<circle style="fill:#EFA880;" cx="37.332" cy="227.417" r="11.053"/>
	<circle style="fill:#EFA880;" cx="151.599" cy="191.858" r="10.308"/>
	<path style="fill:#251626;" d="M42.585,234.47c-0.46,0-0.849-0.353-0.886-0.819c-0.22-2.77-1.11-4.645-2.648-5.571   c-2.692-1.628-6.583,0.014-6.621,0.03c-0.451,0.2-0.974-0.014-1.169-0.466c-0.194-0.452,0.015-0.975,0.467-1.168   c0.194-0.085,4.774-2.011,8.242,0.08c2.057,1.241,3.236,3.58,3.503,6.953c0.039,0.49-0.327,0.919-0.817,0.958   C42.632,234.468,42.609,234.47,42.585,234.47z"/>
	<path style="fill:#251626;" d="M151.054,200.274c-0.335,0-0.655-0.189-0.806-0.513c-1.944-4.15-2.243-7.387-0.89-9.619   c1.551-2.562,4.644-2.725,4.775-2.732c0.528,0.009,0.907,0.361,0.928,0.852c0.022,0.49-0.357,0.904-0.847,0.926   c-0.043,0.003-2.297,0.148-3.342,1.889c-1.001,1.668-0.66,4.411,0.987,7.93c0.209,0.445,0.017,0.975-0.428,1.183   C151.309,200.248,151.18,200.274,151.054,200.274z"/>
	<circle style="fill:#EA7C71;" cx="69.243" cy="233.135" r="10.537"/>
	<circle style="fill:#EA7C71;" cx="128.99" cy="222.598" r="10.537"/>
	<path style="fill:#251426;" d="M407.284,378.303l31.255-8.267l1.953,8.471l-9.988-0.516c0,0,13.939,0.699,10.865,23.82   c0,0-15.792-27.628-31.523-7.679L407.284,378.303z"/>
	<path style="fill:#251426;" d="M467.203,335.73l32.144-3.459l0.653,8.668l-9.796-2.017c0,0,13.674,2.793,7.149,25.186   c0,0-11.445-29.693-30.005-12.345L467.203,335.73z"/>
	<polygon style="fill:#757A91;" points="308.43,299.367 308.43,359.028 482.123,366.02 478.82,319.51 358.714,339.075    335.834,286.616  "/>
	<polygon style="fill:#757A91;" points="279.606,292.725 280.79,404.275 420.915,400.61 413.627,357.434 319.487,354.493    324.13,284.649  "/>
	<path style="fill:#EFA880;" d="M128.551,259.377l13.911,20.596l6.954-9.956c0,0,18.113,26.511,11.777,35.232   c-6.336,8.721-40.605-9.232-40.605-9.232l13.265-8.783l-17.576-17.072L128.551,259.377z"/>
	<path style="fill:#EFA880;" d="M87.039,274.029c0,0-20.872-21.072-23.482-28.469c-2.61-7.396-4.59,9.081,3.106,15.454   c0,0-8.762-12.553-9.922-15.599s-2.61,17.258,6.381,20.594c0,0-11.892-9.137-13.197-12.472c-1.305-3.336-0.145,13.197,5.511,16.388   c5.656,3.191,15.518,8.847,17.838,12.182C75.594,285.442,95.293,284.659,87.039,274.029z"/>
	<path style="fill:#EA7C71;" d="M92.757,250.753c0,0,4.342-7.656,6.632-6.225c2.29,1.431,4.719,6.225,4.719,6.225   s0.147-11.761,3.295-9.852c3.148,1.91,8.014,11.084,8.014,11.084s1.717,13.15-9.159,15.44S86.125,258.981,92.757,250.753z"/>
	<path style="fill:#251626;" d="M104.406,260.014c-5.593,0-14.314-13.619-16.116-16.535c-0.258-0.417-0.129-0.966,0.289-1.225   c0.414-0.254,0.964-0.129,1.224,0.29c4.486,7.255,12.153,16.888,15.106,15.594c3.897-1.703,10.545-11.824,12.778-15.581   c0.251-0.422,0.797-0.561,1.219-0.309c0.422,0.25,0.561,0.798,0.31,1.22c-0.34,0.57-8.38,14.022-13.595,16.301   C105.238,259.936,104.831,260.014,104.406,260.014z"/>
	<path style="fill:#F7C67C;" d="M115.515,132.206c0,0,35.513,20.452,13.475,33.906c-22.038,13.453-98.853,22.47-91.019,0.688   S69.912,124.518,115.515,132.206z"/>
	<g>
		<path style="fill:#F7C67C;" d="M34.652,177.697c0,0-5.443,23.619,14.65,19.112c20.093-4.507,10.059-30.065,4.579-21.85    c-5.48,8.215,9.645,23.072,23.989,12.449s8.09-27.966,3.459-26.14s-2.812,24.277,19.07,22.402    c21.882-1.874,19.198-34.457,9.759-28.435c-6.964,4.443,31.149,46.933,29.25-2.826"/>
		<path style="fill:#251626;" d="M44.612,198.269c-3.329,0.002-5.983-0.978-7.924-2.93c-5.63-5.664-3.017-17.347-2.903-17.842    c0.11-0.48,0.59-0.78,1.066-0.667c0.479,0.109,0.778,0.587,0.668,1.067c-0.026,0.111-2.506,11.226,2.433,16.19    c2.354,2.365,6.106,2.991,11.155,1.854c5.271-1.182,8.095-3.816,9.6-6.454c-0.989-0.612-1.899-1.316-2.711-2.089    c-4.201-3.999-5.348-9.197-2.856-12.933c1.529-2.294,3.256-2.144,4.149-1.849c2.936,0.97,5.119,5.959,4.866,11.124    c-0.059,1.215-0.301,3.045-1.095,5.003c4.542,2.16,10.527,2.211,16.28-2.049c3.035-2.249,5.085-4.756,6.412-7.281    c-2.581-2.539-4.174-5.716-4.915-8.872c-1.131-4.826-0.201-9.169,2.165-10.1c1.686-0.667,3.556,0.401,4.879,2.784    c2.049,3.695,2.672,9.824,0.02,15.778c2.974,2.516,7.518,4.369,14.42,3.781c10.599-0.909,14.096-9.271,15.108-12.825    c0.054-0.189,0.105-0.379,0.154-0.568c-2.947-3.041-5.299-6.433-6.412-9.132c-1.472-3.566-0.537-5.107,0.507-5.775    c1.801-1.149,3.613-1.173,5.102-0.064c2.947,2.195,4.06,8.331,2.754,14.441c4.187,4.134,9.43,7.381,13.662,6.461    c5.316-1.159,7.847-9.071,7.321-22.878c-0.019-0.492,0.364-0.905,0.855-0.925c0.473-0.002,0.904,0.365,0.923,0.855    c0.573,14.994-2.361,23.299-8.719,24.686c-4.611,1.011-10.08-2.094-14.543-6.246c-2.426,8.046-8.442,13.048-16.561,13.743    c-6.774,0.582-11.826-1.131-15.37-3.95c-1.474,2.671-3.651,5.257-6.705,7.516c-6.38,4.725-13.042,4.654-18.112,2.226    c-1.688,3.003-4.861,5.999-10.79,7.33C47.736,198.073,46.106,198.269,44.612,198.269z M56.299,174.228    c-0.402,0-1,0.207-1.678,1.223c-1.996,2.993-0.95,7.275,2.602,10.656c0.679,0.648,1.436,1.241,2.257,1.76    c0.647-1.654,0.847-3.187,0.898-4.216c0.224-4.588-1.74-8.717-3.646-9.346C56.643,174.277,56.494,174.228,56.299,174.228z     M82.008,162.028c-0.123,0-0.241,0.023-0.353,0.066c-1.136,0.448-2.098,3.722-1.085,8.039c0.366,1.559,1.387,4.76,3.973,7.566    c2.248-5.598,1.223-11.016-0.217-13.612C83.606,162.79,82.734,162.028,82.008,162.028z M112.386,155.381    c-0.539,0-1.119,0.2-1.749,0.603c-0.646,0.412-0.579,1.755,0.181,3.596c0.923,2.237,2.817,5.055,5.205,7.697    c0.839-5.297-0.347-9.973-2.303-11.431C113.302,155.536,112.86,155.381,112.386,155.381z"/>
	</g>
	<path style="fill:#757A91;" d="M279.606,292.725c0,0,32.773-24.412,51.755-12.636c18.982,11.776-12.516,113.8-12.516,113.8   l-38.054,10.386L279.606,292.725z"/>
	<path style="fill:#251626;" d="M322.942,368.405c-0.087,0-0.176-0.012-0.263-0.04c-0.469-0.144-0.732-0.643-0.587-1.112   c0.195-0.633,19.436-63.337,10.611-79.332c-0.237-0.429-0.081-0.971,0.349-1.208c0.431-0.242,0.971-0.083,1.21,0.349   c9.187,16.652-9.663,78.108-10.47,80.715C323.674,368.16,323.322,368.405,322.942,368.405z"/>
	<path style="fill:#251626;" d="M307.985,384.169c-0.21,0-0.421-0.075-0.591-0.224c-0.368-0.327-0.401-0.89-0.075-1.256   c0.421-0.474,8.879-9.989,13.214-14.203c-4.338,1.022-13.645,3.761-22.089,6.407c-0.473,0.146-0.969-0.116-1.115-0.584   c-0.147-0.469,0.114-0.968,0.583-1.116c25.22-7.905,25.61-7.155,26.02-6.347c0.09,0.176,0.324,0.798-0.459,1.382   c-2.743,2.049-14.704,15.507-14.824,15.642C308.475,384.068,308.23,384.169,307.985,384.169z"/>
	<path style="fill:#251626;" d="M470.71,364.999c-0.436,0-0.819-0.322-0.879-0.768l-5.86-42.325   c-0.068-0.487,0.273-0.935,0.759-1.003c0.474-0.061,0.937,0.273,1.003,0.759l5.86,42.325c0.068,0.487-0.273,0.935-0.759,1.003   C470.792,364.996,470.752,364.999,470.71,364.999z"/>
	<path style="fill:#251626;" d="M153.582,352.951c-2.303,0-4.441-0.514-6.403-1.545c-10.647-5.591-12.113-24.232-12.171-25.023   c-0.036-0.49,0.333-0.916,0.823-0.952c0.485-0.043,0.916,0.334,0.951,0.824c0.014,0.184,1.455,18.449,11.227,23.577   c4.538,2.383,10.272,1.571,17.045-2.409c0.423-0.25,0.969-0.108,1.218,0.316c0.249,0.422,0.107,0.968-0.316,1.216   C161.43,351.618,157.29,352.951,153.582,352.951z"/>
	<path style="fill:#251626;" d="M270.263,355.382c-0.149,0-0.297-0.036-0.434-0.113c-0.358-0.2-0.534-0.619-0.424-1.015   c6.041-21.815-15.647-50.736-15.867-51.024c-0.297-0.393-0.221-0.951,0.171-1.248c0.391-0.297,0.948-0.219,1.247,0.17   c0.848,1.119,19.252,25.673,17.14,47.264c2.266-5.571,4.636-16.711,0.155-35.426c-0.115-0.478,0.181-0.958,0.659-1.072   c0.477-0.12,0.958,0.181,1.072,0.659c7.188,30.017-2.644,41.065-3.066,41.52C270.743,355.283,270.505,355.382,270.263,355.382z"/>
	<path style="fill:#251626;" d="M322.941,366.909c-0.454,0-0.841-0.346-0.885-0.806c-0.047-0.488,0.312-0.923,0.801-0.97   l90.687-8.587c0.457-0.023,0.923,0.313,0.97,0.803c0.045,0.488-0.313,0.923-0.803,0.97l-90.685,8.587   C322.998,366.907,322.969,366.909,322.941,366.909z"/>
	<path style="fill:#EFA880;" d="M218.657,267.377l27.805,90.568l-75.558-0.512c0,0-16.476,10.787-17.811,10.082   c-1.335-0.705,12.413-15.145,12.413-15.145s-19.551,13.468-19.106,8.317c0.445-5.151,13.397-12.498,13.397-12.498   s-16.742,12.335-18.674,9.244c-1.932-3.091,18.746-16.412,21.415-16.857c2.669-0.445,58.505,0,58.505,0l-21.515-58.541   L218.657,267.377z"/>
	<path style="fill:#E9546A;" d="M193.318,307.639l39.948-21.023c0,0-27.37-91.571-77.262-25.526   C156.004,261.09,175.212,273.456,193.318,307.639z"/>
	<path style="fill:#251626;" d="M207.044,308.529c-0.038,0-0.077-0.002-0.117-0.007c-0.487-0.064-0.83-0.511-0.766-0.999   c2.69-20.447-22.78-29.713-23.037-29.804c-0.463-0.165-0.706-0.673-0.542-1.137c0.163-0.464,0.669-0.706,1.135-0.542   c0.271,0.096,27.087,9.833,24.209,31.715C207.866,308.202,207.484,308.529,207.044,308.529z"/>
	<g>
		<path style="fill:#251626;" d="M153.52,394.104c-0.368,0-0.699-0.226-0.832-0.573c-8.779-23.078-19.63-35.471-32.254-36.833    c-20.71-2.209-39.582,26.269-39.77,26.557c-0.268,0.412-0.819,0.527-1.231,0.259c-0.411-0.269-0.527-0.82-0.259-1.232    c0.049-0.073,4.921-7.488,12.375-14.507c9.96-9.381,20.009-13.823,29.073-12.846c12.844,1.383,23.839,13.27,32.703,35.344    c2.323-8.856,10.655-35.813,26.581-38.566c10.34-1.781,21.685,7.078,33.728,26.349c0.261,0.415,0.134,0.965-0.282,1.225    c-0.416,0.262-0.967,0.136-1.226-0.283c-11.622-18.593-22.352-27.195-31.914-25.537c-17.509,3.026-25.742,39.577-25.822,39.946    c-0.084,0.384-0.411,0.667-0.804,0.697C153.563,394.104,153.542,394.104,153.52,394.104z"/>
		<path style="fill:#251626;" d="M159.795,394.104c-0.149,0-0.3-0.038-0.438-0.116c-0.396-0.224-0.559-0.713-0.376-1.13    c0.537-1.229,13.311-30.087,26.288-31.196c13.094-1.11,22.216,20.647,22.597,21.573c0.187,0.455-0.03,0.975-0.484,1.161    c-0.454,0.195-0.973-0.028-1.162-0.483c-0.088-0.215-8.968-21.424-20.8-20.479c-8.037,0.688-16.443,13.986-21.115,22.686    c6.248-7.229,16.949-17.589,25.748-16.07c4.962,0.865,8.613,5.333,10.848,13.282c0.133,0.474-0.143,0.965-0.616,1.098    c-0.464,0.134-0.964-0.142-1.097-0.615c-2.034-7.235-5.21-11.275-9.44-12.012c-11.995-2.091-29.056,21.686-29.227,21.926    C160.349,393.972,160.075,394.104,159.795,394.104z"/>
		<path style="fill:#251626;" d="M146.402,395.663c-0.288,0-0.569-0.141-0.74-0.395c-0.117-0.176-11.972-17.618-26.568-19.535    c-5.956-0.777-11.629,1.14-16.854,5.71c-0.369,0.322-0.932,0.288-1.256-0.083c-0.323-0.37-0.286-0.931,0.084-1.255    c5.627-4.927,11.769-6.99,18.263-6.136c9.989,1.314,18.511,9.157,23.402,14.707c-3.942-8.411-11.289-22.268-17.538-23.838    c-15.984-4.027-31.419,13.43-31.573,13.607c-0.322,0.37-0.885,0.408-1.256,0.087c-0.37-0.323-0.409-0.885-0.086-1.255    c0.658-0.756,16.295-18.444,33.349-14.167c9.868,2.482,21.123,30.151,21.598,31.329c0.17,0.422-0.006,0.905-0.409,1.117    C146.685,395.63,146.543,395.663,146.402,395.663z"/>
		<polygon style="fill:#3D9C91;" points="73.838,385.283 148.753,409.46 221.042,386.724 212.88,370.071 153.519,393.214     86.166,370.071   "/>
	</g>
	<path style="fill:#251626;" d="M404.756,401.188c-0.443,0-0.825-0.33-0.881-0.782l-5.088-41.543   c-0.061-0.487,0.287-0.931,0.775-0.991c0.481-0.076,0.93,0.287,0.991,0.775l5.088,41.543c0.061,0.487-0.287,0.931-0.775,0.991   C404.829,401.186,404.793,401.188,404.756,401.188z"/>
	<path style="fill:#251626;" d="M132.146,260.024c-0.454,0-0.841-0.346-0.885-0.806c-0.047-0.488,0.312-0.923,0.801-0.97   c5.929-0.561,8.792-4.633,10.042-7.29c-0.664-0.422-1.282-0.923-1.845-1.5c-2.295-2.348-3.332-5.683-2.524-8.11   c0.494-1.481,1.602-2.426,3.123-2.662c1.255-0.195,2.374,0.268,3.17,1.296c1.621,2.099,1.726,6.234,0.333,10.159   c1.85,0.786,4.442,1.143,7.899,0.082c4.932-1.517,6.473-5.994,6.896-9.482c0.111-0.918,0.156-1.837,0.143-2.739   c-3.015-0.549-5.28-2.214-6.565-4.36c-1.771-2.956-1.382-6.277,0.925-7.897c0.904-0.638,1.942-0.66,2.923-0.071   c2.303,1.38,4.052,5.936,4.421,10.766c2.185,0.108,4.809-0.462,7.87-2.007c2.896-1.462,4.887-3.357,5.823-5.497   c-2.051,0.106-3.7-0.176-4.586-0.377c-3.871-0.888-6.781-3.118-7.242-5.551c-0.176-0.93-0.133-2.721,2.134-4.272   c2.332-1.594,5.069-1.76,7.512-0.45c2.817,1.508,4.611,4.598,4.571,7.872c-0.003,0.209-0.013,0.434-0.036,0.676   c3.07-0.66,6.651-2.429,9.749-6.611c2.693-3.632,3.522-6.541,2.466-8.646c-1.799-3.589-8.941-4.397-11.541-4.405   c-0.492-0.002-0.889-0.401-0.887-0.893c0.002-0.49,0.4-0.886,0.89-0.886h0.003c0.427,0.002,10.474,0.096,13.127,5.387   c1.382,2.754,0.498,6.287-2.627,10.503c-3.675,4.958-7.989,6.844-11.559,7.438c-0.713,2.264-2.546,5.054-6.996,7.299   c-3.204,1.618-6.095,2.261-8.599,2.167c0.005,0.933-0.044,1.861-0.154,2.768c-0.688,5.669-3.579,9.563-8.139,10.966   c-3.324,1.022-6.477,0.952-9.1-0.143c-2.263,4.77-6.407,7.761-11.452,8.241C132.203,260.023,132.174,260.024,132.146,260.024z    M141.416,240.422c-0.091,0-0.186,0.007-0.284,0.023c-0.853,0.132-1.428,0.626-1.707,1.467c-0.512,1.536,0.049,4.195,2.109,6.305   c0.324,0.33,0.738,0.699,1.248,1.053c1.177-3.517,0.902-6.823-0.16-8.197C142.281,240.632,141.894,240.422,141.416,240.422z    M155.151,227.032c-0.187,0-0.335,0.076-0.468,0.17c-1.521,1.069-1.699,3.392-0.421,5.526c0.937,1.562,2.596,2.928,4.94,3.472   c-0.421-4.421-2.085-8.133-3.532-9C155.465,227.079,155.296,227.032,155.151,227.032z M169.123,219.187   c-1.064,0-2.124,0.342-3.115,1.02c-1.091,0.746-1.559,1.576-1.39,2.471c0.321,1.693,2.798,3.436,5.89,4.145   c0.88,0.203,2.597,0.49,4.719,0.29c0.05-0.321,0.076-0.646,0.08-0.977c0.031-2.577-1.428-5.102-3.631-6.282   C170.843,219.41,169.981,219.187,169.123,219.187z"/>
	<path style="fill:#251626;" d="M88.246,274.492c-0.247,0-0.492-0.103-0.668-0.302c-2.342-2.662-22.923-26.135-24.325-30.21   c-0.087-0.254-0.191-0.341-0.224-0.346c-0.27,0-0.988,0.516-1.549,1.788c-0.663,1.505-0.9,3.512-0.348,5.782   c2.293,3.827,4.65,7.643,4.689,7.706c0.238,0.384,0.149,0.886-0.206,1.166c-0.355,0.282-0.864,0.249-1.182-0.071   c-2.749-2.765-4.277-5.549-4.954-8.093c-1.294-2.162-2.557-4.313-3.371-5.797c-0.485,1.156-1.033,4.266-0.516,8.091   c0.155,1.15,0.461,2.68,1.061,4.214c1.337,1.521,2.93,3.368,4.832,5.611c0.273,0.322,0.282,0.791,0.023,1.123   c-0.261,0.332-0.719,0.436-1.095,0.25c-2.499-1.232-4.177-3.424-5.241-5.947c-2.851-3.224-5.258-5.808-5.934-6.26   c-0.315-0.073-0.578-0.315-0.662-0.65c-0.12-0.476,0.169-0.961,0.646-1.081c0.436-0.109,0.904-0.221,4.782,3.995   c-0.487-2.638-0.486-5.29-0.193-7.37c0.358-2.535,1.057-3.915,2.077-4.098c0.371-0.068,1.081-0.028,1.636,0.998   c0.401,0.742,0.945,1.7,1.567,2.765c0.098-1.135,0.369-2.164,0.76-3.052c0.797-1.807,2.049-2.923,3.26-2.848   c0.834,0.035,1.499,0.598,1.824,1.543c0.975,2.834,14.875,19.264,23.979,29.616c0.324,0.368,0.288,0.931-0.081,1.255   C88.664,274.419,88.455,274.492,88.246,274.492z"/>
	<path style="fill:#251626;" d="M335.255,397.898c-1.029,0-1.984-0.16-2.707-0.582c-0.424-0.249-0.567-0.792-0.319-1.218   c0.249-0.424,0.793-0.565,1.217-0.318c1.541,0.902,5.804-0.151,8.13-1.025c0.461-0.17,0.972,0.059,1.146,0.518   c0.174,0.461-0.058,0.973-0.518,1.147C341.69,396.614,338.175,397.898,335.255,397.898z"/>
	<path style="fill:#251626;" d="M344.147,391.086c-1.029,0-1.983-0.16-2.706-0.582c-0.424-0.249-0.567-0.792-0.319-1.216   c0.248-0.422,0.793-0.568,1.217-0.32c1.545,0.905,5.808-0.151,8.13-1.025c0.462-0.17,0.972,0.059,1.146,0.518   c0.174,0.461-0.058,0.973-0.519,1.147C350.582,389.801,347.066,391.086,344.147,391.086z"/>
	<path style="fill:#251626;" d="M327.227,390.371c-1.029,0-1.983-0.16-2.706-0.582c-0.424-0.249-0.567-0.792-0.319-1.216   c0.248-0.424,0.793-0.568,1.217-0.32c1.546,0.904,5.807-0.149,8.13-1.025c0.461-0.172,0.972,0.059,1.146,0.518   c0.174,0.461-0.058,0.973-0.519,1.147C333.663,389.087,330.146,390.371,327.227,390.371z"/>
	<path style="fill:#251626;" d="M202.372,258.177c-0.289,0-0.573-0.141-0.745-0.401c-0.981-1.493-5.267-2.445-7.738-2.695   c-0.489-0.049-0.845-0.485-0.797-0.973s0.487-0.852,0.974-0.796c0.74,0.073,7.283,0.803,9.048,3.488   c0.269,0.41,0.156,0.963-0.255,1.232C202.709,258.13,202.54,258.177,202.372,258.177z"/>
	<path style="fill:#251626;" d="M199.534,246.994c-0.289,0-0.573-0.141-0.745-0.401c-0.982-1.495-5.267-2.447-7.738-2.697   c-0.489-0.049-0.845-0.485-0.797-0.973c0.05-0.488,0.478-0.852,0.974-0.796c0.74,0.073,7.283,0.803,9.048,3.49   c0.269,0.41,0.156,0.963-0.255,1.232C199.871,246.947,199.702,246.994,199.534,246.994z"/>
	<path style="fill:#251626;" d="M210.598,256.632c-0.412,0-0.781-0.287-0.87-0.706c-0.37-1.75-4.014-4.199-6.225-5.33   c-0.437-0.224-0.61-0.761-0.386-1.197c0.224-0.436,0.761-0.608,1.197-0.388c0.663,0.339,6.49,3.403,7.155,6.546   c0.102,0.481-0.206,0.952-0.686,1.055C210.721,256.625,210.659,256.632,210.598,256.632z"/>
	<path style="fill:#251626;" d="M191.139,250.378c-0.19,0-0.382-0.061-0.545-0.188c-1.412-1.093-5.774-0.608-8.194-0.043   c-0.479,0.111-0.958-0.186-1.069-0.666c-0.112-0.478,0.185-0.956,0.664-1.069c0.725-0.167,7.15-1.599,9.69,0.374   c0.388,0.301,0.459,0.86,0.157,1.248C191.668,250.259,191.405,250.378,191.139,250.378z"/>
	<path style="fill:#251626;" d="M112.413,308.96c-0.229,0-0.458-0.089-0.632-0.264c-0.346-0.348-0.343-0.912,0.005-1.258   c0.528-0.523,5.252-5.097,8.45-4.756c0.488,0.054,0.841,0.492,0.788,0.982c-0.054,0.488-0.49,0.832-0.981,0.787   c-1.78-0.189-5.241,2.504-7.004,4.252C112.866,308.874,112.639,308.96,112.413,308.96z"/>
	<path style="fill:#251626;" d="M97.791,317.021c-0.229,0-0.458-0.089-0.632-0.264c-0.346-0.348-0.343-0.912,0.005-1.258   c0.528-0.523,5.253-5.088,8.45-4.756c0.488,0.054,0.841,0.492,0.788,0.982c-0.054,0.487-0.49,0.834-0.981,0.787   c-1.793-0.202-5.24,2.504-7.004,4.252C98.243,316.936,98.016,317.021,97.791,317.021z"/>
	<path style="fill:#251626;" d="M108.55,319.281c-0.229,0-0.458-0.089-0.632-0.264c-0.346-0.348-0.343-0.912,0.005-1.258   c0.528-0.523,5.246-5.092,8.45-4.756c0.488,0.054,0.841,0.492,0.788,0.982c-0.053,0.487-0.497,0.836-0.981,0.787   c-1.778-0.191-5.241,2.506-7.004,4.252C109.003,319.195,108.776,319.281,108.55,319.281z"/>
	<path style="fill:#251626;" d="M212.879,268.628c-0.412,0-0.781-0.287-0.87-0.706c-0.369-1.75-4.014-4.197-6.224-5.328   c-0.438-0.224-0.611-0.761-0.387-1.197c0.224-0.436,0.761-0.608,1.196-0.388c0.663,0.339,6.491,3.401,7.155,6.545   c0.102,0.481-0.206,0.952-0.686,1.055C213.001,268.621,212.94,268.628,212.879,268.628z"/>
	<path style="fill:#251626;" d="M220.934,268.901c-0.443,0-0.826-0.33-0.882-0.78c-0.22-1.778-3.642-4.524-5.749-5.839   c-0.417-0.259-0.544-0.808-0.284-1.225c0.26-0.417,0.806-0.544,1.226-0.283c0.632,0.393,6.178,3.94,6.572,7.129   c0.061,0.488-0.286,0.931-0.773,0.992C221.007,268.899,220.97,268.901,220.934,268.901z"/>
	<path style="fill:#251626;" d="M352.518,397.898c-1.03,0-1.984-0.16-2.707-0.582c-0.424-0.249-0.567-0.794-0.319-1.218   c0.249-0.424,0.795-0.565,1.217-0.318c1.544,0.905,5.804-0.149,8.13-1.025c0.459-0.17,0.972,0.059,1.146,0.518   c0.174,0.461-0.058,0.973-0.518,1.147C358.952,396.614,355.437,397.898,352.518,397.898z"/>
	<path style="fill:#251626;" d="M364.886,390.371c-1.029,0-1.983-0.16-2.706-0.582c-0.424-0.249-0.567-0.792-0.319-1.216   c0.248-0.424,0.792-0.568,1.217-0.32c1.545,0.904,5.806-0.149,8.13-1.025c0.46-0.172,0.971,0.059,1.146,0.518   c0.174,0.461-0.058,0.973-0.519,1.147C371.321,389.087,367.805,390.371,364.886,390.371z"/>
	<path style="fill:#251626;" d="M435.175,359.032c-1.027,0-1.981-0.16-2.704-0.582c-0.424-0.249-0.568-0.792-0.32-1.216   c0.247-0.427,0.796-0.57,1.216-0.32c1.545,0.904,5.808-0.151,8.13-1.025c0.462-0.172,0.975,0.059,1.147,0.518   c0.174,0.461-0.059,0.973-0.518,1.147C441.61,357.747,438.095,359.032,435.175,359.032z"/>
	<path style="fill:#251626;" d="M428.752,351.604c-1.029,0-1.983-0.16-2.706-0.582c-0.424-0.249-0.568-0.792-0.32-1.216   c0.247-0.426,0.792-0.572,1.216-0.32c1.545,0.902,5.806-0.151,8.13-1.025c0.466-0.172,0.973,0.059,1.147,0.518   c0.174,0.461-0.059,0.973-0.518,1.147C435.187,350.32,431.672,351.604,428.752,351.604z"/>
	<path style="fill:#251626;" d="M420.791,358.317c-1.027,0-1.981-0.16-2.704-0.582c-0.424-0.249-0.568-0.792-0.32-1.216   c0.247-0.426,0.796-0.57,1.216-0.32c1.547,0.904,5.808-0.151,8.13-1.025c0.462-0.169,0.975,0.059,1.147,0.518   c0.174,0.461-0.059,0.973-0.518,1.147C427.226,357.033,423.711,358.317,420.791,358.317z"/>
	<path style="fill:#251626;" d="M410.05,352.52c-1.027,0-1.981-0.16-2.704-0.582c-0.424-0.249-0.568-0.792-0.32-1.216   c0.249-0.426,0.794-0.57,1.216-0.32c1.545,0.902,5.808-0.151,8.13-1.025c0.462-0.17,0.975,0.059,1.147,0.518   c0.174,0.461-0.059,0.973-0.518,1.147C416.485,351.236,412.969,352.52,410.05,352.52z"/>
	<path style="fill:#251626;" d="M393.879,353.948c-1.027,0-1.981-0.16-2.702-0.582c-0.424-0.249-0.568-0.792-0.32-1.216   c0.249-0.426,0.794-0.57,1.216-0.32c1.543,0.898,5.804-0.151,8.13-1.027c0.464-0.17,0.973,0.059,1.147,0.518   c0.174,0.461-0.059,0.973-0.518,1.147C400.318,352.662,396.799,353.948,393.879,353.948z"/>
	<path style="fill:#251626;" d="M373.779,397.185c-1.029,0-1.983-0.16-2.706-0.582c-0.424-0.249-0.567-0.792-0.319-1.216   c0.248-0.424,0.792-0.568,1.217-0.32c1.545,0.904,5.807-0.151,8.13-1.025c0.461-0.169,0.972,0.057,1.146,0.518   c0.174,0.461-0.058,0.973-0.519,1.147C380.214,395.901,376.697,397.185,373.779,397.185z"/>
	<path style="fill:#251626;" d="M319.317,398.612c-1.029,0-1.983-0.16-2.706-0.582c-0.424-0.249-0.567-0.792-0.319-1.216   c0.249-0.422,0.792-0.57,1.217-0.32c1.546,0.904,5.807-0.151,8.13-1.025c0.461-0.169,0.973,0.057,1.146,0.518   c0.174,0.461-0.058,0.973-0.519,1.147C325.752,397.328,322.236,398.612,319.317,398.612z"/>
	<path style="fill:#251626;" d="M96.053,149.167c-0.469,0-0.862-0.367-0.888-0.841c-0.702-12.994-20.531-13.835-20.73-13.842   c-0.491-0.017-0.876-0.429-0.858-0.921c0.017-0.49,0.436-0.843,0.919-0.858c0.216,0.009,21.657,0.907,22.447,15.524   c0.026,0.492-0.35,0.911-0.841,0.937C96.085,149.167,96.069,149.167,96.053,149.167z"/>
	<path style="fill:#251626;" d="M110.159,141.826c-0.299,0-0.59-0.151-0.759-0.424c-0.334-0.539-8.367-13.185-26.028-9.97   c-0.484,0.076-0.945-0.233-1.034-0.716c-0.089-0.485,0.232-0.947,0.716-1.036c18.895-3.441,27.775,10.648,27.863,10.79   c0.256,0.419,0.126,0.966-0.292,1.223C110.478,141.783,110.318,141.826,110.159,141.826z"/>
	<path style="fill:#251626;" d="M69.244,156.123c-0.302,0-0.597-0.153-0.764-0.431c-0.356-0.594-8.653-14.624-1.825-22.095   c0.333-0.365,0.893-0.389,1.257-0.057c0.362,0.332,0.388,0.895,0.056,1.256c-5.942,6.503,1.956,19.844,2.037,19.978   c0.253,0.422,0.116,0.968-0.305,1.222C69.558,156.082,69.4,156.123,69.244,156.123z"/>
	<path style="fill:#251626;" d="M46.957,160.245c-0.465,0-0.857-0.361-0.887-0.832c-0.011-0.176-0.984-17.708,13.347-24.731   c0.441-0.214,0.975-0.035,1.191,0.408c0.215,0.441,0.033,0.973-0.408,1.19c-13.273,6.505-12.366,22.852-12.355,23.017   c0.032,0.49-0.34,0.914-0.83,0.945C46.997,160.245,46.977,160.245,46.957,160.245z"/>
	<path style="fill:#251426;" d="M153.45,353.26c-0.24,0-0.479-0.097-0.653-0.287c-0.334-0.361-0.311-0.923,0.05-1.256   c0.13-0.12,3.213-2.947,6.611-4.35c0.453-0.188,0.975,0.028,1.162,0.483c0.188,0.454-0.028,0.973-0.482,1.161   c-3.099,1.281-6.054,3.987-6.083,4.013C153.881,353.182,153.666,353.26,153.45,353.26z"/>
	<path style="fill:#251426;" d="M158.754,357.61c-0.29,0-0.574-0.143-0.746-0.403c-0.269-0.41-0.154-0.963,0.257-1.23   c0.672-0.44,6.624-4.306,8.741-4.782c0.479-0.111,0.956,0.193,1.064,0.673c0.108,0.478-0.193,0.954-0.673,1.062   c-1.369,0.309-5.628,2.881-8.157,4.536C159.09,357.563,158.921,357.61,158.754,357.61z"/>
	<path style="fill:#251626;" d="M119.619,273.286c-0.369,0-0.713-0.233-0.84-0.601c-0.159-0.464,0.089-0.97,0.552-1.13   c0.061-0.021,6.164-2.214,10.71-10.703c0.233-0.433,0.772-0.6,1.205-0.363c0.433,0.231,0.596,0.77,0.364,1.204   c-4.901,9.148-11.43,11.452-11.705,11.546C119.81,273.27,119.714,273.286,119.619,273.286z"/>
</g>















</svg>
